M48
; DRILL file {KiCad (6.0.10)} date Sun Jul  9 19:42:04 2023
; FORMAT={-:-/ absolute / metric / decimal}
; #@! TF.CreationDate,2023-07-09T19:42:04+01:00
; #@! TF.GenerationSoftware,Kicad,Pcbnew,(6.0.10)
; #@! TF.FileFunction,MixedPlating,1,2
FMAT,2
METRIC
; #@! TA.AperFunction,Plated,PTH,ViaDrill
T1C0.300
; #@! TA.AperFunction,Plated,PTH,ViaDrill
T2C0.400
; #@! TA.AperFunction,Plated,PTH,ViaDrill
T3C0.450
; #@! TA.AperFunction,Plated,PTH,ViaDrill
T4C0.600
; #@! TA.AperFunction,Plated,PTH,ViaDrill
T5C0.750
; #@! TA.AperFunction,Plated,PTH,ComponentDrill
T6C1.000
; #@! TA.AperFunction,Plated,PTH,ComponentDrill
T7C1.200
; #@! TA.AperFunction,NonPlated,NPTH,ComponentDrill
T8C0.500
; #@! TA.AperFunction,NonPlated,NPTH,ComponentDrill
T9C1.750
; #@! TA.AperFunction,NonPlated,NPTH,ComponentDrill
T10C2.200
%
G90
G05
T1
X87.843Y-111.006
X91.843Y-115.006
X216.042Y-113.388
X242.401Y-59.333
X247.348Y-62.373
T2
X109.766Y-128.167
X111.681Y-57.815
X116.91Y-59.111
X194.476Y-118.881
X195.089Y-66.578
X201.042Y-63.602
X214.264Y-42.635
X225.45Y-46.933
X230.174Y-58.775
X231.964Y-64.185
T3
X105.004Y-128.167
T4
X205.192Y-88.52
X211.591Y-73.488
T5
X65.36Y-59.273
X67.89Y-65.623
X71.76Y-40.173
X73.316Y-47.107
X77.51Y-68.823
X77.62Y-65.064
X78.741Y-71.377
X81.191Y-63.874
X82.33Y-48.443
X84.71Y-46.243
X84.776Y-61.505
X88.335Y-59.111
X88.335Y-65.064
X99.45Y-53.823
X100.242Y-67.446
X102.05Y-35.503
X103.289Y-62.365
X104.422Y-43.525
X106.25Y-67.803
X110.951Y-49.847
X111.931Y-61.165
X113.283Y-43.076
X115.345Y-98.777
X117.08Y-139.689
X118.164Y-78.099
X119.39Y-123.603
X119.7Y-118.989
X120.482Y-96.021
X120.554Y-87.617
X123.254Y-80.327
X124.15Y-134.363
X124.963Y-137.666
X125.294Y-63.677
X126.06Y-69.303
X126.14Y-88.433
X126.85Y-149.927
X130.63Y-70.633
X131.84Y-90.847
X132.05Y-106.459
X132.323Y-142.416
X134.77Y-112.689
X134.85Y-133.733
X136.339Y-72.467
X140.3Y-144.213
X168.124Y-137.357
X171.864Y-85.431
X173.168Y-63.963
X174.235Y-149.242
X174.803Y-79.131
X176.163Y-146.558
X178.443Y-105.106
X178.583Y-129.504
X179.199Y-94.674
X179.593Y-134.359
X179.908Y-74.113
X180.041Y-82.396
X181.058Y-139.733
X182.828Y-128.443
X184.788Y-66.723
X186.838Y-92.563
X187.928Y-139.121
X190.951Y-120.016
X191.108Y-83.743
X191.499Y-101.617
X192.598Y-136.153
X193.921Y-124.156
X194.268Y-37.563
X194.476Y-105.784
X196.291Y-127.126
X199.758Y-54.653
X204.11Y-42.915
X207.378Y-40.133
X209.591Y-60.816
X212.168Y-57.873
X212.916Y-47.458
X221.305Y-64.625
X225.343Y-40.959
X227.531Y-63.707
X230.419Y-47.893
X230.495Y-67.119
X233.767Y-52.206
X233.901Y-58.386
X237.271Y-43.936
X239.758Y-53.183
X242.111Y-62.046
T6
X95.217Y-91.496
X95.217Y-94.036
X95.217Y-96.576
X95.217Y-99.116
X95.217Y-101.656
X95.217Y-104.196
X95.217Y-106.736
X95.217Y-109.276
X136.968Y-94.116
X141.731Y-103.174
X141.731Y-105.714
X141.731Y-108.254
X141.731Y-110.794
X166.496Y-103.174
X166.496Y-105.714
X166.496Y-108.254
X166.496Y-110.794
X171.259Y-94.116
X213.01Y-91.496
X213.01Y-94.036
X213.01Y-96.576
X213.01Y-99.116
X213.01Y-101.656
X213.01Y-104.196
X213.01Y-106.736
X213.01Y-109.276
T7
X143.954Y-119.595
X143.954Y-134.835
X164.274Y-119.595
X164.274Y-134.835
T8
X153.394Y-55.497
X153.394Y-58.287
X153.394Y-61.077
X153.394Y-100.497
X153.394Y-103.287
X153.394Y-106.077
X153.394Y-145.497
X153.394Y-148.287
X153.394Y-151.077
T9
X64.692Y-65.154
X70.262Y-46.936
X74.408Y-68.125
X79.978Y-49.907
X95.732Y-61.364
X101.301Y-43.146
X105.448Y-64.334
X111.017Y-46.116
X113.329Y-131.324
X117.488Y-87.936
X121.85Y-136.857
X123.058Y-69.718
X127.204Y-90.906
X129.306Y-141.699
X132.774Y-72.689
X137.826Y-147.233
X170.043Y-146.681
X175.453Y-72.689
X178.564Y-141.148
X181.023Y-90.906
X185.169Y-69.718
X186.019Y-136.306
X190.739Y-87.936
X194.54Y-130.772
X197.21Y-46.116
X202.78Y-64.334
X206.926Y-43.146
X212.496Y-61.364
X228.249Y-49.907
X233.819Y-68.125
X237.966Y-46.936
X243.535Y-65.154
T10
X61.394Y-35.787
X61.394Y-153.787
X77.394Y-109.787
X112.894Y-64.787
X148.394Y-35.787
X148.394Y-153.787
X158.394Y-35.787
X158.394Y-153.787
X196.394Y-72.787
X229.394Y-107.787
X247.394Y-35.787
X247.394Y-153.787
T0
M30
