G04 #@! TF.GenerationSoftware,KiCad,Pcbnew,(6.0.10)*
G04 #@! TF.CreationDate,2023-07-09T19:41:39+01:00*
G04 #@! TF.ProjectId,magnetonekeys,6d61676e-6574-46f6-9e65-6b6579732e6b,rev?*
G04 #@! TF.SameCoordinates,Original*
G04 #@! TF.FileFunction,Legend,Bot*
G04 #@! TF.FilePolarity,Positive*
%FSLAX46Y46*%
G04 Gerber Fmt 4.6, Leading zero omitted, Abs format (unit mm)*
G04 Created by KiCad (PCBNEW (6.0.10)) date 2023-07-09 19:41:39*
%MOMM*%
%LPD*%
G01*
G04 APERTURE LIST*
G04 Aperture macros list*
%AMRoundRect*
0 Rectangle with rounded corners*
0 $1 Rounding radius*
0 $2 $3 $4 $5 $6 $7 $8 $9 X,Y pos of 4 corners*
0 Add a 4 corners polygon primitive as box body*
4,1,4,$2,$3,$4,$5,$6,$7,$8,$9,$2,$3,0*
0 Add four circle primitives for the rounded corners*
1,1,$1+$1,$2,$3*
1,1,$1+$1,$4,$5*
1,1,$1+$1,$6,$7*
1,1,$1+$1,$8,$9*
0 Add four rect primitives between the rounded corners*
20,1,$1+$1,$2,$3,$4,$5,0*
20,1,$1+$1,$4,$5,$6,$7,0*
20,1,$1+$1,$6,$7,$8,$9,0*
20,1,$1+$1,$8,$9,$2,$3,0*%
%AMRotRect*
0 Rectangle, with rotation*
0 The origin of the aperture is its center*
0 $1 length*
0 $2 width*
0 $3 Rotation angle, in degrees counterclockwise*
0 Add horizontal line*
21,1,$1,$2,0,0,$3*%
G04 Aperture macros list end*
%ADD10C,0.000000*%
%ADD11C,0.150000*%
%ADD12C,0.127000*%
%ADD13C,0.200000*%
%ADD14C,0.120000*%
%ADD15RoundRect,0.039200X-0.254558X-0.595101X0.595101X0.254558X0.254558X0.595101X-0.595101X-0.254558X0*%
%ADD16C,2.200000*%
%ADD17C,0.500000*%
%ADD18C,1.750000*%
%ADD19RoundRect,0.225000X0.443559X0.556332X-0.688646X-0.178930X-0.443559X-0.556332X0.688646X0.178930X0*%
%ADD20R,1.700000X1.700000*%
%ADD21O,1.700000X1.700000*%
%ADD22RoundRect,0.225000X-0.579722X-0.412519X0.711289X-0.017818X0.579722X0.412519X-0.711289X0.017818X0*%
%ADD23RoundRect,0.225000X-0.688646X0.178930X0.443559X-0.556332X0.688646X-0.178930X-0.443559X0.556332X0*%
%ADD24RoundRect,0.225000X-0.711289X-0.017818X0.579722X-0.412519X0.711289X0.017818X-0.579722X0.412519X0*%
%ADD25RoundRect,0.225000X0.711289X0.017818X-0.579722X0.412519X-0.711289X-0.017818X0.579722X-0.412519X0*%
%ADD26RotRect,0.800000X0.750000X56.000000*%
%ADD27RotRect,0.800000X0.750000X253.000000*%
%ADD28RoundRect,0.039200X0.405935X-0.504145X0.054621X0.644951X-0.405935X0.504145X-0.054621X-0.644951X0*%
%ADD29RoundRect,0.039200X-0.405935X0.504145X-0.054621X-0.644951X0.405935X-0.504145X0.054621X0.644951X0*%
%ADD30RotRect,0.800000X0.750000X73.000000*%
%ADD31RotRect,0.800000X0.750000X343.000000*%
%ADD32RotRect,0.800000X0.750000X107.000000*%
%ADD33RotRect,0.800000X0.750000X316.000000*%
%ADD34RoundRect,0.039200X-0.529171X0.372724X0.125267X-0.635022X0.529171X-0.372724X-0.125267X0.635022X0*%
%ADD35C,2.400000*%
%ADD36O,2.400000X2.400000*%
%ADD37RoundRect,0.039200X0.240800X-0.600800X0.240800X0.600800X-0.240800X0.600800X-0.240800X-0.600800X0*%
%ADD38RoundRect,0.039200X0.504145X0.405935X-0.644951X0.054621X-0.504145X-0.405935X0.644951X-0.054621X0*%
%ADD39RotRect,0.800000X0.750000X348.000000*%
G04 APERTURE END LIST*
D10*
G36*
X105348332Y-141105957D02*
G01*
X102636353Y-141105957D01*
X102636353Y-145688540D01*
X100958895Y-145688540D01*
X100958895Y-141105957D01*
X98326289Y-141105957D01*
X98326289Y-139933853D01*
X105348332Y-139933853D01*
X105348332Y-141105957D01*
G37*
G36*
X88153061Y-145691187D02*
G01*
X86446499Y-145691187D01*
X86446499Y-145691186D01*
X84094354Y-141510770D01*
X82432770Y-144476749D01*
X84094354Y-144476749D01*
X84094354Y-145693832D01*
X79847791Y-145693832D01*
X80366375Y-144844519D01*
X83300604Y-139925916D01*
X84877520Y-139925916D01*
X88153061Y-145691187D01*
G37*
G36*
X95627541Y-139925916D02*
G01*
X95662500Y-139926675D01*
X95696436Y-139928954D01*
X95729349Y-139932753D01*
X95761238Y-139938070D01*
X95792104Y-139944907D01*
X95821947Y-139953263D01*
X95850767Y-139963138D01*
X95878564Y-139974533D01*
X95905338Y-139987447D01*
X95931088Y-140001880D01*
X95955815Y-140017833D01*
X95979519Y-140035304D01*
X96002200Y-140054296D01*
X96023857Y-140074806D01*
X96044492Y-140096836D01*
X96064103Y-140120385D01*
X96082691Y-140145453D01*
X96100256Y-140172040D01*
X96116797Y-140200147D01*
X96132316Y-140229773D01*
X96146811Y-140260919D01*
X96160283Y-140293583D01*
X96172732Y-140327767D01*
X96184158Y-140363470D01*
X96194560Y-140400693D01*
X96203939Y-140439435D01*
X96212296Y-140479696D01*
X96219628Y-140521476D01*
X96225938Y-140564776D01*
X96231225Y-140609595D01*
X96238728Y-140703791D01*
X96238728Y-142809874D01*
X96238116Y-142845073D01*
X96236280Y-142879235D01*
X96233221Y-142912358D01*
X96228940Y-142944445D01*
X96223439Y-142975494D01*
X96216718Y-143005507D01*
X96208777Y-143034485D01*
X96199619Y-143062427D01*
X96189244Y-143089334D01*
X96177653Y-143115207D01*
X96164846Y-143140047D01*
X96150826Y-143163852D01*
X96135593Y-143186625D01*
X96119147Y-143208366D01*
X96101490Y-143229074D01*
X96082623Y-143248752D01*
X96062547Y-143267398D01*
X96041263Y-143285014D01*
X96018771Y-143301599D01*
X95995073Y-143317156D01*
X95970170Y-143331683D01*
X95944062Y-143345182D01*
X95916751Y-143357652D01*
X95888237Y-143369096D01*
X95858522Y-143379512D01*
X95827607Y-143388901D01*
X95795491Y-143397265D01*
X95762178Y-143404602D01*
X95727667Y-143410915D01*
X95691959Y-143416203D01*
X95616957Y-143423707D01*
X94553334Y-143423707D01*
X96855208Y-145691186D01*
X94812623Y-145691186D01*
X92510748Y-143423707D01*
X90999979Y-143423707D01*
X90999979Y-145691186D01*
X89502437Y-145691186D01*
X89502437Y-142050520D01*
X90999979Y-142050520D01*
X94598311Y-142050520D01*
X94611504Y-142050186D01*
X94624293Y-142049186D01*
X94636677Y-142047520D01*
X94648654Y-142045187D01*
X94660225Y-142042187D01*
X94671388Y-142038520D01*
X94682142Y-142034187D01*
X94692486Y-142029188D01*
X94702420Y-142023521D01*
X94711941Y-142017188D01*
X94721050Y-142010189D01*
X94729745Y-142002523D01*
X94738026Y-141994190D01*
X94745890Y-141985190D01*
X94753338Y-141975524D01*
X94760369Y-141965192D01*
X94766981Y-141954192D01*
X94773173Y-141942526D01*
X94778945Y-141930194D01*
X94784295Y-141917194D01*
X94789223Y-141903529D01*
X94793727Y-141889196D01*
X94797807Y-141874197D01*
X94801462Y-141858531D01*
X94804690Y-141842199D01*
X94807491Y-141825200D01*
X94809864Y-141807535D01*
X94811808Y-141789202D01*
X94813321Y-141770203D01*
X94814403Y-141750538D01*
X94815053Y-141730206D01*
X94815270Y-141709207D01*
X94815270Y-141471082D01*
X94814432Y-141429752D01*
X94811916Y-141391087D01*
X94807718Y-141355089D01*
X94801834Y-141321758D01*
X94794261Y-141291093D01*
X94784993Y-141263095D01*
X94774028Y-141237763D01*
X94767908Y-141226097D01*
X94761362Y-141215098D01*
X94754389Y-141204765D01*
X94746990Y-141195099D01*
X94739163Y-141186100D01*
X94730909Y-141177767D01*
X94722226Y-141170101D01*
X94713115Y-141163101D01*
X94703574Y-141156768D01*
X94693603Y-141151102D01*
X94683203Y-141146102D01*
X94672371Y-141141769D01*
X94661109Y-141138103D01*
X94649414Y-141135103D01*
X94637288Y-141132770D01*
X94624729Y-141131103D01*
X94611737Y-141130103D01*
X94598311Y-141129770D01*
X90999979Y-141129770D01*
X90999979Y-142050520D01*
X89502437Y-142050520D01*
X89502437Y-139925916D01*
X95627541Y-139925916D01*
G37*
G36*
X82005965Y-147029124D02*
G01*
X82123379Y-147037123D01*
X82233407Y-147050456D01*
X82336044Y-147069121D01*
X82431285Y-147093120D01*
X82519128Y-147122451D01*
X82599568Y-147157116D01*
X82672602Y-147197113D01*
X82706340Y-147219112D01*
X82738225Y-147242444D01*
X82768257Y-147267109D01*
X82796434Y-147293107D01*
X82822757Y-147320439D01*
X82847225Y-147349104D01*
X82869837Y-147379102D01*
X82890594Y-147410434D01*
X82909494Y-147443098D01*
X82926537Y-147477096D01*
X82941722Y-147512427D01*
X82955050Y-147549092D01*
X82966519Y-147587089D01*
X82976129Y-147626420D01*
X82989771Y-147709082D01*
X82989771Y-149299228D01*
X81571604Y-149299228D01*
X81571604Y-148259415D01*
X81574249Y-148259415D01*
X81571604Y-148256769D01*
X81571604Y-148259415D01*
X77661062Y-148259415D01*
X77661062Y-151590519D01*
X81574250Y-151590519D01*
X81574250Y-150373436D01*
X82992417Y-150373436D01*
X82992417Y-151950353D01*
X82995750Y-151982792D01*
X82997812Y-152014627D01*
X82998602Y-152045854D01*
X82998122Y-152076474D01*
X82996370Y-152106486D01*
X82993347Y-152135888D01*
X82989052Y-152164680D01*
X82983487Y-152192860D01*
X82976650Y-152220428D01*
X82968542Y-152247382D01*
X82959162Y-152273723D01*
X82948512Y-152299448D01*
X82936590Y-152324556D01*
X82923397Y-152349048D01*
X82908933Y-152372921D01*
X82893198Y-152396176D01*
X82876191Y-152418810D01*
X82857913Y-152440823D01*
X82838364Y-152462214D01*
X82817543Y-152482982D01*
X82795452Y-152503126D01*
X82772089Y-152522645D01*
X82747455Y-152541538D01*
X82721549Y-152559804D01*
X82694373Y-152577442D01*
X82665925Y-152594452D01*
X82605215Y-152626580D01*
X82539421Y-152656182D01*
X82468541Y-152683249D01*
X82436884Y-152694815D01*
X82404421Y-152705707D01*
X82371152Y-152715933D01*
X82337076Y-152725499D01*
X82302195Y-152734415D01*
X82266507Y-152742687D01*
X82230013Y-152750323D01*
X82192713Y-152757332D01*
X82115695Y-152769497D01*
X82035452Y-152779243D01*
X81951984Y-152786632D01*
X81865292Y-152791728D01*
X80211646Y-152795697D01*
X77089563Y-152791728D01*
X77041892Y-152790914D01*
X76995615Y-152788471D01*
X76950734Y-152784400D01*
X76907249Y-152778700D01*
X76865158Y-152771370D01*
X76824463Y-152762410D01*
X76785163Y-152751819D01*
X76747258Y-152739596D01*
X76710749Y-152725743D01*
X76675635Y-152710257D01*
X76641916Y-152693138D01*
X76609592Y-152674386D01*
X76578664Y-152654001D01*
X76549131Y-152631981D01*
X76520993Y-152608327D01*
X76494251Y-152583038D01*
X76468903Y-152556113D01*
X76444951Y-152527552D01*
X76422395Y-152497355D01*
X76401233Y-152465520D01*
X76381467Y-152432049D01*
X76363096Y-152396939D01*
X76346120Y-152360190D01*
X76330540Y-152321803D01*
X76316354Y-152281776D01*
X76303565Y-152240110D01*
X76292170Y-152196803D01*
X76282171Y-152151855D01*
X76273566Y-152105266D01*
X76266358Y-152057034D01*
X76256126Y-151955645D01*
X76262079Y-151295881D01*
X76264063Y-150368475D01*
X76257754Y-148256769D01*
X76256126Y-147711728D01*
X76257195Y-147672614D01*
X76260404Y-147634647D01*
X76265751Y-147597826D01*
X76273236Y-147562150D01*
X76282858Y-147527621D01*
X76294618Y-147494235D01*
X76308513Y-147461995D01*
X76324545Y-147430898D01*
X76342713Y-147400944D01*
X76363015Y-147372133D01*
X76385452Y-147344465D01*
X76410023Y-147317938D01*
X76436728Y-147292553D01*
X76465566Y-147268309D01*
X76496536Y-147245205D01*
X76529639Y-147223241D01*
X76564873Y-147202417D01*
X76602238Y-147182731D01*
X76641734Y-147164184D01*
X76683361Y-147146775D01*
X76727117Y-147130504D01*
X76773002Y-147115370D01*
X76821016Y-147101372D01*
X76871158Y-147088510D01*
X76923428Y-147076784D01*
X76977825Y-147066193D01*
X77034349Y-147056737D01*
X77093000Y-147048414D01*
X77153776Y-147041226D01*
X77216677Y-147035170D01*
X77348855Y-147026457D01*
X81881167Y-147026457D01*
X82005965Y-147029124D01*
G37*
G36*
X85916061Y-151556124D02*
G01*
X89577893Y-151556124D01*
X89577893Y-147029103D01*
X91046333Y-147029103D01*
X91046333Y-151884207D01*
X91045449Y-151936041D01*
X91042797Y-151986370D01*
X91038377Y-152035193D01*
X91032189Y-152082510D01*
X91024231Y-152128319D01*
X91014503Y-152172619D01*
X91003005Y-152215410D01*
X90989736Y-152256690D01*
X90974696Y-152296459D01*
X90957885Y-152334715D01*
X90939301Y-152371458D01*
X90918945Y-152406686D01*
X90896815Y-152440399D01*
X90872912Y-152472596D01*
X90847234Y-152503275D01*
X90819782Y-152532436D01*
X90790555Y-152560077D01*
X90759553Y-152586199D01*
X90726774Y-152610799D01*
X90692219Y-152633877D01*
X90655887Y-152655432D01*
X90617777Y-152675462D01*
X90577889Y-152693968D01*
X90536223Y-152710947D01*
X90492778Y-152726399D01*
X90447553Y-152740324D01*
X90400549Y-152752719D01*
X90351764Y-152763585D01*
X90301198Y-152772919D01*
X90248851Y-152780722D01*
X90138810Y-152791728D01*
X85331332Y-152791728D01*
X85282677Y-152790859D01*
X85235431Y-152788254D01*
X85189597Y-152783910D01*
X85145173Y-152777827D01*
X85102160Y-152770003D01*
X85060558Y-152760439D01*
X85020367Y-152749132D01*
X84981586Y-152736082D01*
X84944217Y-152721289D01*
X84908258Y-152704750D01*
X84873709Y-152686465D01*
X84840572Y-152666433D01*
X84808845Y-152644653D01*
X84778529Y-152621124D01*
X84749624Y-152595846D01*
X84722130Y-152568816D01*
X84696046Y-152540035D01*
X84671373Y-152509501D01*
X84648111Y-152477213D01*
X84626259Y-152443170D01*
X84605819Y-152407372D01*
X84586789Y-152369817D01*
X84569170Y-152330504D01*
X84552962Y-152289433D01*
X84538164Y-152246602D01*
X84524777Y-152202010D01*
X84512801Y-152155657D01*
X84502236Y-152107542D01*
X84493081Y-152057663D01*
X84485338Y-152006020D01*
X84474082Y-151897436D01*
X84474082Y-147029103D01*
X85916061Y-147029103D01*
X85916061Y-151556124D01*
G37*
G36*
X98830375Y-147029103D02*
G01*
X98865822Y-147029862D01*
X98900231Y-147032141D01*
X98933601Y-147035940D01*
X98965932Y-147041257D01*
X98997225Y-147048094D01*
X99027479Y-147056450D01*
X99056694Y-147066325D01*
X99084870Y-147077720D01*
X99112008Y-147090634D01*
X99138107Y-147105067D01*
X99163168Y-147121020D01*
X99187190Y-147138491D01*
X99210173Y-147157483D01*
X99232117Y-147177993D01*
X99253023Y-147200023D01*
X99272890Y-147223572D01*
X99291718Y-147248640D01*
X99309508Y-147275227D01*
X99326259Y-147303334D01*
X99341971Y-147332960D01*
X99356644Y-147364106D01*
X99370279Y-147396770D01*
X99382875Y-147430954D01*
X99394433Y-147466657D01*
X99404951Y-147503880D01*
X99414431Y-147542622D01*
X99422873Y-147582883D01*
X99430275Y-147624663D01*
X99436639Y-147667963D01*
X99441964Y-147712782D01*
X99449498Y-147806978D01*
X99449498Y-149262186D01*
X99452018Y-149297153D01*
X99453126Y-149331110D01*
X99452824Y-149364057D01*
X99451111Y-149395992D01*
X99447987Y-149426913D01*
X99443452Y-149456820D01*
X99437507Y-149485709D01*
X99430150Y-149513582D01*
X99421383Y-149540434D01*
X99411206Y-149566266D01*
X99399617Y-149591076D01*
X99386618Y-149614862D01*
X99372208Y-149637623D01*
X99356387Y-149659358D01*
X99339156Y-149680064D01*
X99320514Y-149699741D01*
X99300461Y-149718387D01*
X99278997Y-149736000D01*
X99256122Y-149752580D01*
X99231837Y-149768124D01*
X99206141Y-149782632D01*
X99179034Y-149796101D01*
X99150517Y-149808531D01*
X99120589Y-149819919D01*
X99089249Y-149830265D01*
X99056500Y-149839567D01*
X99022339Y-149847824D01*
X98986768Y-149855034D01*
X98949786Y-149861195D01*
X98911393Y-149866306D01*
X98871589Y-149870366D01*
X98830375Y-149873374D01*
X98865822Y-149872312D01*
X98900231Y-149872598D01*
X98933601Y-149874234D01*
X98965932Y-149877218D01*
X98997225Y-149881551D01*
X99027479Y-149887233D01*
X99056694Y-149894264D01*
X99084870Y-149902643D01*
X99112008Y-149912371D01*
X99138107Y-149923448D01*
X99163168Y-149935874D01*
X99187190Y-149949648D01*
X99210173Y-149964771D01*
X99232117Y-149981243D01*
X99253023Y-149999064D01*
X99272890Y-150018233D01*
X99291718Y-150038751D01*
X99309508Y-150060618D01*
X99326259Y-150083834D01*
X99341971Y-150108398D01*
X99356644Y-150134311D01*
X99370279Y-150161573D01*
X99382875Y-150190184D01*
X99394433Y-150220143D01*
X99404951Y-150251451D01*
X99414431Y-150284108D01*
X99422873Y-150318114D01*
X99430275Y-150353468D01*
X99436639Y-150390171D01*
X99441964Y-150428223D01*
X99449498Y-150508373D01*
X99449498Y-152045603D01*
X99447111Y-152130403D01*
X99439949Y-152210172D01*
X99428011Y-152284902D01*
X99420252Y-152320376D01*
X99411299Y-152354587D01*
X99401153Y-152387534D01*
X99389812Y-152419217D01*
X99377278Y-152449635D01*
X99363551Y-152478786D01*
X99348629Y-152506669D01*
X99332514Y-152533285D01*
X99315205Y-152558631D01*
X99296702Y-152582707D01*
X99277006Y-152605512D01*
X99256116Y-152627044D01*
X99234032Y-152647303D01*
X99210754Y-152666288D01*
X99186283Y-152683998D01*
X99160618Y-152700432D01*
X99133759Y-152715589D01*
X99105706Y-152729468D01*
X99076460Y-152742068D01*
X99046020Y-152753388D01*
X99014386Y-152763427D01*
X98981559Y-152772184D01*
X98947538Y-152779658D01*
X98912323Y-152785848D01*
X98838311Y-152794374D01*
X92699979Y-152794374D01*
X92699979Y-151521728D01*
X94210748Y-151521728D01*
X97809081Y-151521728D01*
X97822274Y-151521394D01*
X97835063Y-151520395D01*
X97847447Y-151518730D01*
X97859425Y-151516400D01*
X97870996Y-151513405D01*
X97882159Y-151509746D01*
X97892913Y-151505423D01*
X97903257Y-151500437D01*
X97913190Y-151494788D01*
X97922712Y-151488477D01*
X97931821Y-151481504D01*
X97940516Y-151473870D01*
X97948796Y-151465575D01*
X97956661Y-151456620D01*
X97964109Y-151447005D01*
X97971139Y-151436730D01*
X97977751Y-151425797D01*
X97983943Y-151414205D01*
X97989715Y-151401955D01*
X97995065Y-151389048D01*
X97999993Y-151375484D01*
X98004498Y-151361264D01*
X98008578Y-151346387D01*
X98012232Y-151330855D01*
X98015461Y-151314668D01*
X98018262Y-151297827D01*
X98020634Y-151280332D01*
X98022578Y-151262183D01*
X98024091Y-151243380D01*
X98025173Y-151223926D01*
X98025823Y-151203819D01*
X98026040Y-151183061D01*
X98026040Y-150944936D01*
X98025202Y-150904071D01*
X98022686Y-150865814D01*
X98018488Y-150830170D01*
X98012604Y-150797141D01*
X98005031Y-150766733D01*
X97995763Y-150738948D01*
X97984798Y-150713792D01*
X97978677Y-150702200D01*
X97972131Y-150691266D01*
X97965159Y-150680992D01*
X97957759Y-150671377D01*
X97949933Y-150662421D01*
X97941678Y-150654127D01*
X97932995Y-150646492D01*
X97923884Y-150639520D01*
X97914343Y-150633208D01*
X97904373Y-150627560D01*
X97893972Y-150622574D01*
X97883141Y-150618251D01*
X97871878Y-150614592D01*
X97860184Y-150611597D01*
X97848058Y-150609267D01*
X97835499Y-150607602D01*
X97822507Y-150606602D01*
X97809081Y-150606269D01*
X94210748Y-150606269D01*
X94210748Y-151521728D01*
X92699979Y-151521728D01*
X92699979Y-149153707D01*
X94210748Y-149153707D01*
X97809081Y-149153707D01*
X97822274Y-149153374D01*
X97835063Y-149152374D01*
X97847447Y-149150709D01*
X97859425Y-149148379D01*
X97870996Y-149145384D01*
X97882159Y-149141725D01*
X97892913Y-149137402D01*
X97903257Y-149132416D01*
X97913190Y-149126767D01*
X97922712Y-149120456D01*
X97931821Y-149113483D01*
X97940516Y-149105849D01*
X97948796Y-149097554D01*
X97956661Y-149088599D01*
X97964109Y-149078984D01*
X97971139Y-149068710D01*
X97977751Y-149057776D01*
X97983943Y-149046184D01*
X97989715Y-149033935D01*
X97995065Y-149021028D01*
X97999993Y-149007464D01*
X98004498Y-148993243D01*
X98008578Y-148978367D01*
X98012232Y-148962835D01*
X98015461Y-148946648D01*
X98018262Y-148929807D01*
X98020634Y-148912311D01*
X98022578Y-148894162D01*
X98024091Y-148875360D01*
X98025173Y-148855905D01*
X98025823Y-148835799D01*
X98026040Y-148815040D01*
X98026040Y-148576916D01*
X98025202Y-148537012D01*
X98022686Y-148499654D01*
X98018488Y-148464847D01*
X98012604Y-148432594D01*
X98005031Y-148402898D01*
X97995763Y-148375765D01*
X97984798Y-148351197D01*
X97978677Y-148339877D01*
X97972131Y-148329199D01*
X97965159Y-148319165D01*
X97957759Y-148309775D01*
X97949933Y-148301029D01*
X97941678Y-148292928D01*
X97932995Y-148285472D01*
X97923884Y-148278662D01*
X97914343Y-148272498D01*
X97904373Y-148266981D01*
X97893972Y-148262111D01*
X97883141Y-148257889D01*
X97871878Y-148254315D01*
X97860184Y-148251390D01*
X97848058Y-148249114D01*
X97835499Y-148247488D01*
X97822507Y-148246512D01*
X97809081Y-148246186D01*
X94210748Y-148246186D01*
X94210748Y-149153707D01*
X92699979Y-149153707D01*
X92699979Y-147029103D01*
X98830375Y-147029103D01*
G37*
G36*
X107222955Y-148217082D02*
G01*
X102595392Y-148217082D01*
X102595392Y-149246311D01*
X105307370Y-149246311D01*
X105307370Y-150497790D01*
X102600683Y-150497790D01*
X102600683Y-151527020D01*
X107207078Y-151527020D01*
X107207078Y-152794373D01*
X101105788Y-152794373D01*
X101105788Y-147037040D01*
X107222955Y-147037040D01*
X107222955Y-148217082D01*
G37*
G36*
X82724792Y-133874584D02*
G01*
X80605479Y-135118126D01*
X77631562Y-133514751D01*
X74784646Y-135200147D01*
X74813750Y-140356875D01*
X78486167Y-142351833D01*
X78417375Y-145754376D01*
X74670875Y-143611250D01*
X74432750Y-152691750D01*
X72107063Y-151469376D01*
X72107063Y-133692022D01*
X77359042Y-130927126D01*
X82724792Y-133874584D01*
G37*
G36*
X222444460Y-130652356D02*
G01*
X220325147Y-131895898D01*
X217351230Y-130292523D01*
X214504314Y-131977919D01*
X214533418Y-137134647D01*
X218205835Y-139129605D01*
X218137043Y-142532148D01*
X214390543Y-140389022D01*
X214152418Y-149469522D01*
X211826731Y-148247148D01*
X211826731Y-130469794D01*
X217078710Y-127704898D01*
X222444460Y-130652356D01*
G37*
G36*
X235347209Y-136703688D02*
G01*
X235382168Y-136704447D01*
X235416104Y-136706726D01*
X235449017Y-136710525D01*
X235480906Y-136715842D01*
X235511772Y-136722679D01*
X235541615Y-136731035D01*
X235570435Y-136740910D01*
X235598232Y-136752305D01*
X235625006Y-136765219D01*
X235650756Y-136779652D01*
X235675483Y-136795605D01*
X235699187Y-136813076D01*
X235721868Y-136832068D01*
X235743525Y-136852578D01*
X235764160Y-136874608D01*
X235783771Y-136898157D01*
X235802359Y-136923225D01*
X235819924Y-136949812D01*
X235836465Y-136977919D01*
X235851984Y-137007545D01*
X235866479Y-137038691D01*
X235879951Y-137071355D01*
X235892400Y-137105539D01*
X235903826Y-137141242D01*
X235914228Y-137178465D01*
X235923607Y-137217207D01*
X235931964Y-137257468D01*
X235939296Y-137299248D01*
X235945606Y-137342548D01*
X235950893Y-137387367D01*
X235958396Y-137481563D01*
X235958396Y-139587646D01*
X235957784Y-139622845D01*
X235955948Y-139657007D01*
X235952889Y-139690130D01*
X235948608Y-139722217D01*
X235943107Y-139753266D01*
X235936386Y-139783279D01*
X235928445Y-139812257D01*
X235919287Y-139840199D01*
X235908912Y-139867106D01*
X235897321Y-139892979D01*
X235884514Y-139917819D01*
X235870494Y-139941624D01*
X235855261Y-139964397D01*
X235838815Y-139986138D01*
X235821158Y-140006846D01*
X235802291Y-140026524D01*
X235782215Y-140045170D01*
X235760931Y-140062786D01*
X235738439Y-140079371D01*
X235714741Y-140094928D01*
X235689838Y-140109455D01*
X235663730Y-140122954D01*
X235636419Y-140135424D01*
X235607905Y-140146868D01*
X235578190Y-140157284D01*
X235547275Y-140166673D01*
X235515159Y-140175037D01*
X235481846Y-140182374D01*
X235447335Y-140188687D01*
X235411627Y-140193975D01*
X235336625Y-140201479D01*
X234273002Y-140201479D01*
X236574876Y-142468958D01*
X234532291Y-142468958D01*
X232230416Y-140201479D01*
X230719647Y-140201479D01*
X230719647Y-142468958D01*
X229222105Y-142468958D01*
X229222105Y-138828292D01*
X230719647Y-138828292D01*
X234317979Y-138828292D01*
X234331172Y-138827958D01*
X234343961Y-138826958D01*
X234356345Y-138825292D01*
X234368322Y-138822959D01*
X234379893Y-138819959D01*
X234391056Y-138816292D01*
X234401810Y-138811959D01*
X234412154Y-138806960D01*
X234422088Y-138801293D01*
X234431609Y-138794960D01*
X234440718Y-138787961D01*
X234449413Y-138780295D01*
X234457694Y-138771962D01*
X234465558Y-138762962D01*
X234473006Y-138753296D01*
X234480037Y-138742964D01*
X234486649Y-138731964D01*
X234492841Y-138720298D01*
X234498613Y-138707966D01*
X234503963Y-138694966D01*
X234508891Y-138681301D01*
X234513395Y-138666968D01*
X234517475Y-138651969D01*
X234521130Y-138636303D01*
X234524358Y-138619971D01*
X234527159Y-138602972D01*
X234529532Y-138585307D01*
X234531476Y-138566974D01*
X234532989Y-138547975D01*
X234534071Y-138528310D01*
X234534721Y-138507978D01*
X234534938Y-138486979D01*
X234534938Y-138248854D01*
X234534100Y-138207524D01*
X234531584Y-138168859D01*
X234527386Y-138132861D01*
X234521502Y-138099530D01*
X234513929Y-138068865D01*
X234504661Y-138040867D01*
X234493696Y-138015535D01*
X234487576Y-138003869D01*
X234481030Y-137992870D01*
X234474057Y-137982537D01*
X234466658Y-137972871D01*
X234458831Y-137963872D01*
X234450577Y-137955539D01*
X234441894Y-137947873D01*
X234432783Y-137940873D01*
X234423242Y-137934540D01*
X234413271Y-137928874D01*
X234402871Y-137923874D01*
X234392039Y-137919541D01*
X234380777Y-137915875D01*
X234369082Y-137912875D01*
X234356956Y-137910542D01*
X234344397Y-137908875D01*
X234331405Y-137907875D01*
X234317979Y-137907542D01*
X230719647Y-137907542D01*
X230719647Y-138828292D01*
X229222105Y-138828292D01*
X229222105Y-136703688D01*
X235347209Y-136703688D01*
G37*
G36*
X245068000Y-137883729D02*
G01*
X242356021Y-137883729D01*
X242356021Y-142466312D01*
X240678563Y-142466312D01*
X240678563Y-137883729D01*
X238045957Y-137883729D01*
X238045957Y-136711625D01*
X245068000Y-136711625D01*
X245068000Y-137883729D01*
G37*
G36*
X227872729Y-142468959D02*
G01*
X226166167Y-142468959D01*
X226166167Y-142468958D01*
X223814022Y-138288542D01*
X222152438Y-141254521D01*
X223814022Y-141254521D01*
X223814022Y-142471604D01*
X219567459Y-142471604D01*
X220086043Y-141622291D01*
X223020272Y-136703688D01*
X224597188Y-136703688D01*
X227872729Y-142468959D01*
G37*
G36*
X246942623Y-144994854D02*
G01*
X242315060Y-144994854D01*
X242315060Y-146024083D01*
X245027038Y-146024083D01*
X245027038Y-147275562D01*
X242320351Y-147275562D01*
X242320351Y-148304792D01*
X246926746Y-148304792D01*
X246926746Y-149572145D01*
X240825456Y-149572145D01*
X240825456Y-143814812D01*
X246942623Y-143814812D01*
X246942623Y-144994854D01*
G37*
G36*
X238550043Y-143806875D02*
G01*
X238585490Y-143807634D01*
X238619899Y-143809913D01*
X238653269Y-143813712D01*
X238685600Y-143819029D01*
X238716893Y-143825866D01*
X238747147Y-143834222D01*
X238776362Y-143844097D01*
X238804538Y-143855492D01*
X238831676Y-143868406D01*
X238857775Y-143882839D01*
X238882836Y-143898792D01*
X238906858Y-143916263D01*
X238929841Y-143935255D01*
X238951785Y-143955765D01*
X238972691Y-143977795D01*
X238992558Y-144001344D01*
X239011386Y-144026412D01*
X239029176Y-144052999D01*
X239045927Y-144081106D01*
X239061639Y-144110732D01*
X239076312Y-144141878D01*
X239089947Y-144174542D01*
X239102543Y-144208726D01*
X239114101Y-144244429D01*
X239124619Y-144281652D01*
X239134099Y-144320394D01*
X239142541Y-144360655D01*
X239149943Y-144402435D01*
X239156307Y-144445735D01*
X239161632Y-144490554D01*
X239169166Y-144584750D01*
X239169166Y-146039958D01*
X239171686Y-146074925D01*
X239172794Y-146108882D01*
X239172492Y-146141829D01*
X239170779Y-146173764D01*
X239167655Y-146204685D01*
X239163120Y-146234592D01*
X239157175Y-146263481D01*
X239149818Y-146291354D01*
X239141051Y-146318206D01*
X239130874Y-146344038D01*
X239119285Y-146368848D01*
X239106286Y-146392634D01*
X239091876Y-146415395D01*
X239076055Y-146437130D01*
X239058824Y-146457836D01*
X239040182Y-146477513D01*
X239020129Y-146496159D01*
X238998665Y-146513772D01*
X238975790Y-146530352D01*
X238951505Y-146545896D01*
X238925809Y-146560404D01*
X238898702Y-146573873D01*
X238870185Y-146586303D01*
X238840257Y-146597691D01*
X238808917Y-146608037D01*
X238776168Y-146617339D01*
X238742007Y-146625596D01*
X238706436Y-146632806D01*
X238669454Y-146638967D01*
X238631061Y-146644078D01*
X238591257Y-146648138D01*
X238550043Y-146651146D01*
X238585490Y-146650084D01*
X238619899Y-146650370D01*
X238653269Y-146652006D01*
X238685600Y-146654990D01*
X238716893Y-146659323D01*
X238747147Y-146665005D01*
X238776362Y-146672036D01*
X238804538Y-146680415D01*
X238831676Y-146690143D01*
X238857775Y-146701220D01*
X238882836Y-146713646D01*
X238906858Y-146727420D01*
X238929841Y-146742543D01*
X238951785Y-146759015D01*
X238972691Y-146776836D01*
X238992558Y-146796005D01*
X239011386Y-146816523D01*
X239029176Y-146838390D01*
X239045927Y-146861606D01*
X239061639Y-146886170D01*
X239076312Y-146912083D01*
X239089947Y-146939345D01*
X239102543Y-146967956D01*
X239114101Y-146997915D01*
X239124619Y-147029223D01*
X239134099Y-147061880D01*
X239142541Y-147095886D01*
X239149943Y-147131240D01*
X239156307Y-147167943D01*
X239161632Y-147205995D01*
X239169166Y-147286145D01*
X239169166Y-148823375D01*
X239166779Y-148908175D01*
X239159617Y-148987944D01*
X239147679Y-149062674D01*
X239139920Y-149098148D01*
X239130967Y-149132359D01*
X239120821Y-149165306D01*
X239109480Y-149196989D01*
X239096946Y-149227407D01*
X239083219Y-149256558D01*
X239068297Y-149284441D01*
X239052182Y-149311057D01*
X239034873Y-149336403D01*
X239016370Y-149360479D01*
X238996674Y-149383284D01*
X238975784Y-149404816D01*
X238953700Y-149425075D01*
X238930422Y-149444060D01*
X238905951Y-149461770D01*
X238880286Y-149478204D01*
X238853427Y-149493361D01*
X238825374Y-149507240D01*
X238796128Y-149519840D01*
X238765688Y-149531160D01*
X238734054Y-149541199D01*
X238701227Y-149549956D01*
X238667206Y-149557430D01*
X238631991Y-149563620D01*
X238557979Y-149572146D01*
X232419647Y-149572146D01*
X232419647Y-148299500D01*
X233930416Y-148299500D01*
X237528749Y-148299500D01*
X237541942Y-148299166D01*
X237554731Y-148298167D01*
X237567115Y-148296502D01*
X237579093Y-148294172D01*
X237590664Y-148291177D01*
X237601827Y-148287518D01*
X237612581Y-148283195D01*
X237622925Y-148278209D01*
X237632858Y-148272560D01*
X237642380Y-148266249D01*
X237651489Y-148259276D01*
X237660184Y-148251642D01*
X237668464Y-148243347D01*
X237676329Y-148234392D01*
X237683777Y-148224777D01*
X237690807Y-148214502D01*
X237697419Y-148203569D01*
X237703611Y-148191977D01*
X237709383Y-148179727D01*
X237714733Y-148166820D01*
X237719661Y-148153256D01*
X237724166Y-148139036D01*
X237728246Y-148124159D01*
X237731900Y-148108627D01*
X237735129Y-148092440D01*
X237737930Y-148075599D01*
X237740302Y-148058104D01*
X237742246Y-148039955D01*
X237743759Y-148021152D01*
X237744841Y-148001698D01*
X237745491Y-147981591D01*
X237745708Y-147960833D01*
X237745708Y-147722708D01*
X237744870Y-147681843D01*
X237742354Y-147643586D01*
X237738156Y-147607942D01*
X237732272Y-147574913D01*
X237724699Y-147544505D01*
X237715431Y-147516720D01*
X237704466Y-147491564D01*
X237698345Y-147479972D01*
X237691799Y-147469038D01*
X237684827Y-147458764D01*
X237677427Y-147449149D01*
X237669601Y-147440193D01*
X237661346Y-147431899D01*
X237652663Y-147424264D01*
X237643552Y-147417292D01*
X237634011Y-147410980D01*
X237624041Y-147405332D01*
X237613640Y-147400346D01*
X237602809Y-147396023D01*
X237591546Y-147392364D01*
X237579852Y-147389369D01*
X237567726Y-147387039D01*
X237555167Y-147385374D01*
X237542175Y-147384374D01*
X237528749Y-147384041D01*
X233930416Y-147384041D01*
X233930416Y-148299500D01*
X232419647Y-148299500D01*
X232419647Y-145931479D01*
X233930416Y-145931479D01*
X237528749Y-145931479D01*
X237541942Y-145931146D01*
X237554731Y-145930146D01*
X237567115Y-145928481D01*
X237579093Y-145926151D01*
X237590664Y-145923156D01*
X237601827Y-145919497D01*
X237612581Y-145915174D01*
X237622925Y-145910188D01*
X237632858Y-145904539D01*
X237642380Y-145898228D01*
X237651489Y-145891255D01*
X237660184Y-145883621D01*
X237668464Y-145875326D01*
X237676329Y-145866371D01*
X237683777Y-145856756D01*
X237690807Y-145846482D01*
X237697419Y-145835548D01*
X237703611Y-145823956D01*
X237709383Y-145811707D01*
X237714733Y-145798800D01*
X237719661Y-145785236D01*
X237724166Y-145771015D01*
X237728246Y-145756139D01*
X237731900Y-145740607D01*
X237735129Y-145724420D01*
X237737930Y-145707579D01*
X237740302Y-145690083D01*
X237742246Y-145671934D01*
X237743759Y-145653132D01*
X237744841Y-145633677D01*
X237745491Y-145613571D01*
X237745708Y-145592812D01*
X237745708Y-145354688D01*
X237744870Y-145314784D01*
X237742354Y-145277426D01*
X237738156Y-145242619D01*
X237732272Y-145210366D01*
X237724699Y-145180670D01*
X237715431Y-145153537D01*
X237704466Y-145128969D01*
X237698345Y-145117649D01*
X237691799Y-145106971D01*
X237684827Y-145096937D01*
X237677427Y-145087547D01*
X237669601Y-145078801D01*
X237661346Y-145070700D01*
X237652663Y-145063244D01*
X237643552Y-145056434D01*
X237634011Y-145050270D01*
X237624041Y-145044753D01*
X237613640Y-145039883D01*
X237602809Y-145035661D01*
X237591546Y-145032087D01*
X237579852Y-145029162D01*
X237567726Y-145026886D01*
X237555167Y-145025260D01*
X237542175Y-145024284D01*
X237528749Y-145023958D01*
X233930416Y-145023958D01*
X233930416Y-145931479D01*
X232419647Y-145931479D01*
X232419647Y-143806875D01*
X238550043Y-143806875D01*
G37*
G36*
X221725633Y-143806896D02*
G01*
X221843047Y-143814895D01*
X221953075Y-143828228D01*
X222055712Y-143846893D01*
X222150953Y-143870892D01*
X222238796Y-143900223D01*
X222319236Y-143934888D01*
X222392270Y-143974885D01*
X222426008Y-143996884D01*
X222457893Y-144020216D01*
X222487925Y-144044881D01*
X222516102Y-144070879D01*
X222542425Y-144098211D01*
X222566893Y-144126876D01*
X222589505Y-144156874D01*
X222610262Y-144188206D01*
X222629162Y-144220870D01*
X222646205Y-144254868D01*
X222661390Y-144290199D01*
X222674718Y-144326864D01*
X222686187Y-144364861D01*
X222695797Y-144404192D01*
X222709439Y-144486854D01*
X222709439Y-146077000D01*
X221291272Y-146077000D01*
X221291272Y-145037187D01*
X221293917Y-145037187D01*
X221291272Y-145034541D01*
X221291272Y-145037187D01*
X217380730Y-145037187D01*
X217380730Y-148368291D01*
X221293918Y-148368291D01*
X221293918Y-147151208D01*
X222712085Y-147151208D01*
X222712085Y-148728125D01*
X222715418Y-148760564D01*
X222717480Y-148792399D01*
X222718270Y-148823626D01*
X222717790Y-148854246D01*
X222716038Y-148884258D01*
X222713015Y-148913660D01*
X222708720Y-148942452D01*
X222703155Y-148970632D01*
X222696318Y-148998200D01*
X222688210Y-149025154D01*
X222678830Y-149051495D01*
X222668180Y-149077220D01*
X222656258Y-149102328D01*
X222643065Y-149126820D01*
X222628601Y-149150693D01*
X222612866Y-149173948D01*
X222595859Y-149196582D01*
X222577581Y-149218595D01*
X222558032Y-149239986D01*
X222537211Y-149260754D01*
X222515120Y-149280898D01*
X222491757Y-149300417D01*
X222467123Y-149319310D01*
X222441217Y-149337576D01*
X222414041Y-149355214D01*
X222385593Y-149372224D01*
X222324883Y-149404352D01*
X222259089Y-149433954D01*
X222188209Y-149461021D01*
X222156552Y-149472587D01*
X222124089Y-149483479D01*
X222090820Y-149493705D01*
X222056744Y-149503271D01*
X222021863Y-149512187D01*
X221986175Y-149520459D01*
X221949681Y-149528095D01*
X221912381Y-149535104D01*
X221835363Y-149547269D01*
X221755120Y-149557015D01*
X221671652Y-149564404D01*
X221584960Y-149569500D01*
X219931314Y-149573469D01*
X216809231Y-149569500D01*
X216761560Y-149568686D01*
X216715283Y-149566243D01*
X216670402Y-149562172D01*
X216626917Y-149556472D01*
X216584826Y-149549142D01*
X216544131Y-149540182D01*
X216504831Y-149529591D01*
X216466926Y-149517368D01*
X216430417Y-149503515D01*
X216395303Y-149488029D01*
X216361584Y-149470910D01*
X216329260Y-149452158D01*
X216298332Y-149431773D01*
X216268799Y-149409753D01*
X216240661Y-149386099D01*
X216213919Y-149360810D01*
X216188571Y-149333885D01*
X216164619Y-149305324D01*
X216142063Y-149275127D01*
X216120901Y-149243292D01*
X216101135Y-149209821D01*
X216082764Y-149174711D01*
X216065788Y-149137962D01*
X216050208Y-149099575D01*
X216036022Y-149059548D01*
X216023233Y-149017882D01*
X216011838Y-148974575D01*
X216001839Y-148929627D01*
X215993234Y-148883038D01*
X215986026Y-148834806D01*
X215975794Y-148733417D01*
X215981747Y-148073653D01*
X215983731Y-147146247D01*
X215977422Y-145034541D01*
X215975794Y-144489500D01*
X215976863Y-144450386D01*
X215980072Y-144412419D01*
X215985419Y-144375598D01*
X215992904Y-144339922D01*
X216002526Y-144305393D01*
X216014286Y-144272007D01*
X216028181Y-144239767D01*
X216044213Y-144208670D01*
X216062381Y-144178716D01*
X216082683Y-144149905D01*
X216105120Y-144122237D01*
X216129691Y-144095710D01*
X216156396Y-144070325D01*
X216185234Y-144046081D01*
X216216204Y-144022977D01*
X216249307Y-144001013D01*
X216284541Y-143980189D01*
X216321906Y-143960503D01*
X216361402Y-143941956D01*
X216403029Y-143924547D01*
X216446785Y-143908276D01*
X216492670Y-143893142D01*
X216540684Y-143879144D01*
X216590826Y-143866282D01*
X216643096Y-143854556D01*
X216697493Y-143843965D01*
X216754017Y-143834509D01*
X216812668Y-143826186D01*
X216873444Y-143818998D01*
X216936345Y-143812942D01*
X217068523Y-143804229D01*
X221600835Y-143804229D01*
X221725633Y-143806896D01*
G37*
G36*
X225635729Y-148333896D02*
G01*
X229297561Y-148333896D01*
X229297561Y-143806875D01*
X230766001Y-143806875D01*
X230766001Y-148661979D01*
X230765117Y-148713813D01*
X230762465Y-148764142D01*
X230758045Y-148812965D01*
X230751857Y-148860282D01*
X230743899Y-148906091D01*
X230734171Y-148950391D01*
X230722673Y-148993182D01*
X230709404Y-149034462D01*
X230694364Y-149074231D01*
X230677553Y-149112487D01*
X230658969Y-149149230D01*
X230638613Y-149184458D01*
X230616483Y-149218171D01*
X230592580Y-149250368D01*
X230566902Y-149281047D01*
X230539450Y-149310208D01*
X230510223Y-149337849D01*
X230479221Y-149363971D01*
X230446442Y-149388571D01*
X230411887Y-149411649D01*
X230375555Y-149433204D01*
X230337445Y-149453234D01*
X230297557Y-149471740D01*
X230255891Y-149488719D01*
X230212446Y-149504171D01*
X230167221Y-149518096D01*
X230120217Y-149530491D01*
X230071432Y-149541357D01*
X230020866Y-149550691D01*
X229968519Y-149558494D01*
X229858478Y-149569500D01*
X225051000Y-149569500D01*
X225002345Y-149568631D01*
X224955099Y-149566026D01*
X224909265Y-149561682D01*
X224864841Y-149555599D01*
X224821828Y-149547775D01*
X224780226Y-149538211D01*
X224740035Y-149526904D01*
X224701254Y-149513854D01*
X224663885Y-149499061D01*
X224627926Y-149482522D01*
X224593377Y-149464237D01*
X224560240Y-149444205D01*
X224528513Y-149422425D01*
X224498197Y-149398896D01*
X224469292Y-149373618D01*
X224441798Y-149346588D01*
X224415714Y-149317807D01*
X224391041Y-149287273D01*
X224367779Y-149254985D01*
X224345927Y-149220942D01*
X224325487Y-149185144D01*
X224306457Y-149147589D01*
X224288838Y-149108276D01*
X224272630Y-149067205D01*
X224257832Y-149024374D01*
X224244445Y-148979782D01*
X224232469Y-148933429D01*
X224221904Y-148885314D01*
X224212749Y-148835435D01*
X224205006Y-148783792D01*
X224193750Y-148675208D01*
X224193750Y-143806875D01*
X225635729Y-143806875D01*
X225635729Y-148333896D01*
G37*
G36*
X81639958Y-94936023D02*
G01*
X77480708Y-97375479D01*
X71644000Y-94232230D01*
X66056000Y-97539522D01*
X66111562Y-107662479D01*
X73321457Y-111575668D01*
X73189166Y-118253750D01*
X65833750Y-114046875D01*
X65365437Y-131874498D01*
X60801375Y-129472082D01*
X60801375Y-94581480D01*
X71109542Y-89152230D01*
X81639958Y-94936023D01*
G37*
D11*
X135602690Y-145336651D02*
X135969039Y-145703000D01*
X135990589Y-145767650D01*
X135990589Y-145810750D01*
X135969039Y-145875399D01*
X135882839Y-145961599D01*
X135818190Y-145983149D01*
X135775090Y-145983149D01*
X135710440Y-145961599D01*
X135344091Y-145595251D01*
X135344091Y-146500347D02*
X135602690Y-146241748D01*
X135473391Y-146371048D02*
X135020842Y-145918499D01*
X135128592Y-145940049D01*
X135214792Y-145940049D01*
X135279442Y-145918499D01*
X134740694Y-146198648D02*
X134438995Y-146500347D01*
X135085492Y-146758946D01*
X115370106Y-126956728D02*
X115361111Y-126910454D01*
X115296847Y-126826900D01*
X115241578Y-126789621D01*
X115140034Y-126761336D01*
X115047486Y-126779325D01*
X114982571Y-126815955D01*
X114880378Y-126907853D01*
X114824459Y-126990757D01*
X114777534Y-127119935D01*
X114767889Y-127193844D01*
X114785879Y-127286393D01*
X114850143Y-127369947D01*
X114905412Y-127407226D01*
X115006955Y-127435511D01*
X115053230Y-127426516D01*
X115960077Y-127274254D02*
X115628462Y-127050577D01*
X115794270Y-127162416D02*
X115402835Y-127742742D01*
X115403485Y-127622559D01*
X115385495Y-127530010D01*
X115348866Y-127465096D01*
X116066065Y-128190096D02*
X115955526Y-128115537D01*
X115918897Y-128050623D01*
X115909902Y-128004349D01*
X115910552Y-127884166D01*
X115957477Y-127754988D01*
X116106595Y-127533911D01*
X116171509Y-127497281D01*
X116217783Y-127488287D01*
X116291692Y-127497932D01*
X116402230Y-127572491D01*
X116438860Y-127637405D01*
X116447855Y-127683679D01*
X116438210Y-127757588D01*
X116345011Y-127895761D01*
X116280097Y-127932390D01*
X116233822Y-127941385D01*
X116159914Y-127931740D01*
X116049375Y-127857181D01*
X116012746Y-127792267D01*
X116003751Y-127745993D01*
X116013396Y-127672084D01*
X75619171Y-62411686D02*
X75597040Y-62370063D01*
X75511155Y-62308949D01*
X75447402Y-62289458D01*
X75342026Y-62292098D01*
X75258780Y-62336360D01*
X75207412Y-62390368D01*
X75136552Y-62508129D01*
X75107315Y-62603760D01*
X75100209Y-62741013D01*
X75112595Y-62814512D01*
X75156857Y-62897757D01*
X75242742Y-62958871D01*
X75306495Y-62978363D01*
X75411871Y-62975723D01*
X75453494Y-62953592D01*
X76276199Y-62542847D02*
X75893677Y-62425898D01*
X76084938Y-62484373D02*
X75880278Y-63153786D01*
X75845762Y-63038664D01*
X75801499Y-62955419D01*
X75747491Y-62904051D01*
X76677199Y-63397429D02*
X76358430Y-63299972D01*
X76424011Y-62971458D01*
X76446142Y-63013080D01*
X76500150Y-63064449D01*
X76659534Y-63113177D01*
X76733033Y-63100792D01*
X76774656Y-63078661D01*
X76826024Y-63024653D01*
X76874753Y-62865269D01*
X76862367Y-62791769D01*
X76840236Y-62750147D01*
X76786228Y-62698778D01*
X76626844Y-62650050D01*
X76553345Y-62662435D01*
X76511722Y-62684566D01*
X234921640Y-47323684D02*
X235417097Y-47172208D01*
X235484297Y-47183532D01*
X235522352Y-47203766D01*
X235569317Y-47253145D01*
X235604958Y-47369723D01*
X235593635Y-47436922D01*
X235573401Y-47474977D01*
X235524022Y-47521942D01*
X235028565Y-47673419D01*
X235401874Y-48164792D02*
X235809897Y-48040047D01*
X235124166Y-48090352D02*
X235516782Y-47810974D01*
X235632617Y-48189853D01*
X183111271Y-89791199D02*
X183606728Y-89639723D01*
X183673928Y-89651047D01*
X183711983Y-89671281D01*
X183758948Y-89720660D01*
X183794589Y-89837238D01*
X183783266Y-89904437D01*
X183763032Y-89942492D01*
X183713653Y-89989457D01*
X183218196Y-90140934D01*
X184017349Y-90565851D02*
X183910424Y-90216117D01*
X183963887Y-90390984D02*
X183351852Y-90578102D01*
X183421464Y-90493081D01*
X183461933Y-90416972D01*
X183473256Y-90349772D01*
X101736130Y-38364982D02*
X101713999Y-38323359D01*
X101628114Y-38262245D01*
X101564361Y-38242754D01*
X101458985Y-38245394D01*
X101375739Y-38289656D01*
X101324371Y-38343664D01*
X101253511Y-38461425D01*
X101224274Y-38557056D01*
X101217168Y-38694309D01*
X101229554Y-38767808D01*
X101273816Y-38851053D01*
X101359701Y-38912167D01*
X101423454Y-38931659D01*
X101528830Y-38929019D01*
X101570453Y-38906888D01*
X102393158Y-38496143D02*
X102010636Y-38379194D01*
X102201897Y-38437669D02*
X101997237Y-39107082D01*
X101962721Y-38991960D01*
X101918458Y-38908715D01*
X101864450Y-38857347D01*
X102463004Y-39179768D02*
X102485135Y-39221391D01*
X102539143Y-39272759D01*
X102698527Y-39321488D01*
X102772027Y-39309102D01*
X102813649Y-39286971D01*
X102865017Y-39232963D01*
X102884509Y-39169210D01*
X102881869Y-39063834D01*
X102616296Y-38564363D01*
X103030695Y-38691057D01*
X203882111Y-43533135D02*
X204377568Y-43381659D01*
X204444768Y-43392983D01*
X204482823Y-43413217D01*
X204529788Y-43462596D01*
X204565429Y-43579174D01*
X204554106Y-43646373D01*
X204533872Y-43684428D01*
X204484493Y-43731393D01*
X203989036Y-43882870D01*
X204127518Y-44127350D02*
X204107284Y-44165405D01*
X204095960Y-44232604D01*
X204140512Y-44378327D01*
X204187478Y-44427705D01*
X204225533Y-44447939D01*
X204292732Y-44459263D01*
X204351021Y-44441443D01*
X204429544Y-44385567D01*
X204672354Y-43928908D01*
X204788189Y-44307787D01*
X209451792Y-61750741D02*
X209947249Y-61599265D01*
X210014449Y-61610589D01*
X210052504Y-61630823D01*
X210099469Y-61680202D01*
X210135110Y-61796780D01*
X210123787Y-61863979D01*
X210103553Y-61902034D01*
X210054174Y-61948999D01*
X209558717Y-62100476D01*
X209630000Y-62333632D02*
X209745835Y-62712511D01*
X209916618Y-62437216D01*
X209943350Y-62524650D01*
X209990315Y-62574028D01*
X210028370Y-62594262D01*
X210095569Y-62605586D01*
X210241292Y-62561034D01*
X210290670Y-62514069D01*
X210310905Y-62476014D01*
X210322228Y-62408815D01*
X210268766Y-62233948D01*
X210221801Y-62184569D01*
X210183746Y-62164335D01*
X83694018Y-44068380D02*
X83735641Y-44046249D01*
X83796755Y-43960364D01*
X83816246Y-43896611D01*
X83813606Y-43791235D01*
X83769344Y-43707989D01*
X83715336Y-43656621D01*
X83597575Y-43585761D01*
X83501944Y-43556524D01*
X83364691Y-43549418D01*
X83291192Y-43561804D01*
X83207947Y-43606066D01*
X83146833Y-43691951D01*
X83127341Y-43755704D01*
X83129981Y-43861080D01*
X83152112Y-43902703D01*
X83562857Y-44725408D02*
X83679806Y-44342886D01*
X83621331Y-44534147D02*
X82951918Y-44329487D01*
X83067040Y-44294971D01*
X83150285Y-44250708D01*
X83201653Y-44196700D01*
X82941159Y-45162751D02*
X83387434Y-45299191D01*
X82734873Y-44925401D02*
X83261754Y-44912203D01*
X83135059Y-45326602D01*
X174204850Y-68536672D02*
X174246473Y-68558803D01*
X174351849Y-68561442D01*
X174415603Y-68541951D01*
X174501487Y-68480837D01*
X174545750Y-68397592D01*
X174558135Y-68324092D01*
X174551029Y-68186839D01*
X174521792Y-68091209D01*
X174450932Y-67973447D01*
X174399564Y-67919439D01*
X174316319Y-67875177D01*
X174210943Y-67872538D01*
X174147189Y-67892029D01*
X174061304Y-67953143D01*
X174039173Y-67994766D01*
X173605283Y-68057706D02*
X173541529Y-68077198D01*
X173487521Y-68128566D01*
X173465390Y-68170189D01*
X173453005Y-68243688D01*
X173460111Y-68380941D01*
X173508839Y-68540325D01*
X173579699Y-68658087D01*
X173631067Y-68712095D01*
X173672690Y-68734226D01*
X173746189Y-68746611D01*
X173809943Y-68727120D01*
X173863951Y-68675751D01*
X173886082Y-68634129D01*
X173898467Y-68560630D01*
X173891361Y-68423376D01*
X173842633Y-68263992D01*
X173771773Y-68146231D01*
X173720405Y-68092223D01*
X173678782Y-68070092D01*
X173605283Y-68057706D01*
X191476354Y-126476127D02*
X191523487Y-126475304D01*
X191616931Y-126426526D01*
X191663242Y-126378570D01*
X191708729Y-126283480D01*
X191707084Y-126189214D01*
X191682283Y-126118925D01*
X191609527Y-126002326D01*
X191537593Y-125932860D01*
X191418525Y-125864217D01*
X191347414Y-125841885D01*
X191253148Y-125843530D01*
X191159704Y-125892309D01*
X191113393Y-125940265D01*
X191067905Y-126035354D01*
X191068728Y-126082487D01*
X190858685Y-126204023D02*
X190534511Y-126539715D01*
X191246447Y-126810174D01*
X226811673Y-45441381D02*
X226853296Y-45463512D01*
X226958672Y-45466151D01*
X227022426Y-45446660D01*
X227108310Y-45385546D01*
X227152573Y-45302301D01*
X227164958Y-45228801D01*
X227157852Y-45091548D01*
X227128615Y-44995918D01*
X227057755Y-44878156D01*
X227006387Y-44824148D01*
X226923142Y-44779886D01*
X226817766Y-44777247D01*
X226754012Y-44796738D01*
X226668127Y-44857852D01*
X226645996Y-44899475D01*
X226120942Y-45234282D02*
X226257382Y-45680557D01*
X226202360Y-44930539D02*
X226507930Y-45359962D01*
X226093531Y-45486657D01*
X133863617Y-67323931D02*
X133841486Y-67282308D01*
X133755601Y-67221194D01*
X133691848Y-67201703D01*
X133586472Y-67204343D01*
X133503226Y-67248605D01*
X133451858Y-67302613D01*
X133380998Y-67420374D01*
X133351761Y-67516005D01*
X133344655Y-67653258D01*
X133357041Y-67726757D01*
X133401303Y-67810002D01*
X133487188Y-67871116D01*
X133550941Y-67890608D01*
X133656317Y-67887968D01*
X133697940Y-67865837D01*
X134520645Y-67455092D02*
X134138123Y-67338143D01*
X134329384Y-67396618D02*
X134124724Y-68066031D01*
X134090208Y-67950909D01*
X134045945Y-67867664D01*
X133991937Y-67816296D01*
X134730384Y-68251200D02*
X134794137Y-68270691D01*
X134867637Y-68258306D01*
X134909259Y-68236175D01*
X134960628Y-68182167D01*
X135031487Y-68064405D01*
X135080216Y-67905021D01*
X135087322Y-67767768D01*
X135074937Y-67694269D01*
X135052806Y-67652646D01*
X134998798Y-67601278D01*
X134935044Y-67581786D01*
X134861545Y-67594172D01*
X134819922Y-67616303D01*
X134768554Y-67670311D01*
X134697694Y-67788072D01*
X134648965Y-67947456D01*
X134641859Y-68084709D01*
X134654245Y-68158209D01*
X134676376Y-68199831D01*
X134730384Y-68251200D01*
X129952631Y-72074103D02*
X130318980Y-72440452D01*
X130340530Y-72505102D01*
X130340530Y-72548202D01*
X130318980Y-72612851D01*
X130232780Y-72699051D01*
X130168131Y-72720601D01*
X130125031Y-72720601D01*
X130060381Y-72699051D01*
X129694032Y-72332703D01*
X129694032Y-73237799D02*
X129952631Y-72979200D01*
X129823332Y-73108500D02*
X129370783Y-72655951D01*
X129478533Y-72677501D01*
X129564733Y-72677501D01*
X129629383Y-72655951D01*
X128961335Y-73065400D02*
X128918235Y-73108500D01*
X128896685Y-73173149D01*
X128896685Y-73216249D01*
X128918235Y-73280899D01*
X128982885Y-73388649D01*
X129090635Y-73496398D01*
X129198384Y-73561048D01*
X129263034Y-73582598D01*
X129306134Y-73582598D01*
X129370783Y-73561048D01*
X129413883Y-73517948D01*
X129435433Y-73453298D01*
X129435433Y-73410199D01*
X129413883Y-73345549D01*
X129349234Y-73237799D01*
X129241484Y-73130050D01*
X129133734Y-73065400D01*
X129069085Y-73043850D01*
X129025985Y-73043850D01*
X128961335Y-73065400D01*
X171742799Y-145033783D02*
X172177310Y-144751608D01*
X172245028Y-144743970D01*
X172287186Y-144752931D01*
X172345942Y-144787452D01*
X172412336Y-144889690D01*
X172419974Y-144957407D01*
X172411013Y-144999565D01*
X172376493Y-145058322D01*
X171941981Y-145340497D01*
X172257353Y-145826127D02*
X172190959Y-145723889D01*
X172183322Y-145656171D01*
X172192283Y-145614013D01*
X172235764Y-145513099D01*
X172321403Y-145421145D01*
X172525879Y-145288357D01*
X172593597Y-145280719D01*
X172635755Y-145289680D01*
X172694511Y-145324201D01*
X172760905Y-145426439D01*
X172768543Y-145494156D01*
X172759582Y-145536314D01*
X172725062Y-145595071D01*
X172597264Y-145678063D01*
X172529547Y-145685701D01*
X172487389Y-145676740D01*
X172428632Y-145642220D01*
X172362238Y-145539982D01*
X172354600Y-145472264D01*
X172363561Y-145430106D01*
X172398082Y-145371350D01*
X141036130Y-127048344D02*
X140559940Y-126715011D01*
X141036130Y-126476915D02*
X140036130Y-126476915D01*
X140036130Y-126857868D01*
X140083750Y-126953106D01*
X140131369Y-127000725D01*
X140226607Y-127048344D01*
X140369464Y-127048344D01*
X140464702Y-127000725D01*
X140512321Y-126953106D01*
X140559940Y-126857868D01*
X140559940Y-126476915D01*
X141036130Y-128000725D02*
X141036130Y-127429296D01*
X141036130Y-127715011D02*
X140036130Y-127715011D01*
X140178988Y-127619772D01*
X140274226Y-127524534D01*
X140321845Y-127429296D01*
X201589248Y-60202290D02*
X201630871Y-60224421D01*
X201736247Y-60227060D01*
X201800001Y-60207569D01*
X201885885Y-60146455D01*
X201930148Y-60063210D01*
X201942533Y-59989710D01*
X201935427Y-59852457D01*
X201906190Y-59756827D01*
X201835330Y-59639065D01*
X201783962Y-59585057D01*
X201700717Y-59540795D01*
X201595341Y-59538156D01*
X201531587Y-59557647D01*
X201445702Y-59618761D01*
X201423571Y-59660384D01*
X201180942Y-59664850D02*
X200766543Y-59791544D01*
X201067647Y-59978339D01*
X200972016Y-60007576D01*
X200918008Y-60058944D01*
X200895877Y-60100567D01*
X200883492Y-60174066D01*
X200932220Y-60333450D01*
X200983589Y-60387458D01*
X201025211Y-60409590D01*
X201098711Y-60421975D01*
X201289972Y-60363501D01*
X201343979Y-60312132D01*
X201366111Y-60270510D01*
X179781946Y-86517978D02*
X179823569Y-86540109D01*
X179928945Y-86542748D01*
X179992699Y-86523257D01*
X180078583Y-86462143D01*
X180122846Y-86378898D01*
X180135231Y-86305398D01*
X180128125Y-86168145D01*
X180098888Y-86072515D01*
X180028028Y-85954753D01*
X179976660Y-85900745D01*
X179893415Y-85856483D01*
X179788039Y-85853844D01*
X179724285Y-85873335D01*
X179638400Y-85934449D01*
X179616269Y-85976072D01*
X179163901Y-86776646D02*
X179546423Y-86659697D01*
X179355162Y-86718171D02*
X179150502Y-86048758D01*
X179243493Y-86124897D01*
X179326738Y-86169159D01*
X179400237Y-86181545D01*
X128342992Y-85355181D02*
X128320861Y-85313558D01*
X128234976Y-85252444D01*
X128171223Y-85232953D01*
X128065847Y-85235593D01*
X127982601Y-85279855D01*
X127931233Y-85333863D01*
X127860373Y-85451624D01*
X127831136Y-85547255D01*
X127824030Y-85684508D01*
X127836416Y-85758007D01*
X127880678Y-85841252D01*
X127966563Y-85902366D01*
X128030316Y-85921858D01*
X128135692Y-85919218D01*
X128177315Y-85897087D01*
X129000020Y-85486342D02*
X128617498Y-85369393D01*
X128808759Y-85427868D02*
X128604099Y-86097281D01*
X128569583Y-85982159D01*
X128525320Y-85898914D01*
X128471312Y-85847546D01*
X129637557Y-85681256D02*
X129255035Y-85564308D01*
X129446296Y-85622782D02*
X129241636Y-86292195D01*
X129207119Y-86177073D01*
X129162857Y-86093828D01*
X129108849Y-86042460D01*
X107488676Y-58292414D02*
X107466545Y-58250791D01*
X107380660Y-58189677D01*
X107316907Y-58170186D01*
X107211531Y-58172826D01*
X107128285Y-58217088D01*
X107076917Y-58271096D01*
X107006057Y-58388857D01*
X106976820Y-58484488D01*
X106969714Y-58621741D01*
X106982100Y-58695240D01*
X107026362Y-58778485D01*
X107112247Y-58839599D01*
X107176000Y-58859091D01*
X107281376Y-58856451D01*
X107322999Y-58834320D01*
X108145704Y-58423575D02*
X107763182Y-58306626D01*
X107954443Y-58365101D02*
X107749783Y-59034514D01*
X107715267Y-58919392D01*
X107671004Y-58836147D01*
X107616996Y-58784779D01*
X108164182Y-59161208D02*
X108578581Y-59287903D01*
X108433409Y-58964668D01*
X108529039Y-58993905D01*
X108602538Y-58981520D01*
X108644161Y-58959389D01*
X108695529Y-58905381D01*
X108744258Y-58745997D01*
X108731872Y-58672497D01*
X108709741Y-58630875D01*
X108655733Y-58579506D01*
X108464472Y-58521032D01*
X108390973Y-58533417D01*
X108349351Y-58555549D01*
X77175616Y-47597312D02*
X77693712Y-47597312D01*
X77754664Y-47627788D01*
X77785140Y-47658264D01*
X77815616Y-47719216D01*
X77815616Y-47841121D01*
X77785140Y-47902073D01*
X77754664Y-47932550D01*
X77693712Y-47963026D01*
X77175616Y-47963026D01*
X77815616Y-48603026D02*
X77815616Y-48237312D01*
X77815616Y-48420169D02*
X77175616Y-48420169D01*
X77267045Y-48359216D01*
X77327997Y-48298264D01*
X77358473Y-48237312D01*
X77388950Y-49151597D02*
X77815616Y-49151597D01*
X77145140Y-48999216D02*
X77602283Y-48846835D01*
X77602283Y-49243026D01*
X179940895Y-68433647D02*
X180092371Y-68929104D01*
X180081047Y-68996304D01*
X180060813Y-69034359D01*
X180011434Y-69081324D01*
X179894856Y-69116965D01*
X179827657Y-69105642D01*
X179789602Y-69085408D01*
X179742637Y-69036029D01*
X179591160Y-68540572D01*
X179183137Y-68665317D02*
X179124848Y-68683138D01*
X179075469Y-68730103D01*
X179055235Y-68768158D01*
X179043911Y-68835358D01*
X179050408Y-68960846D01*
X179094960Y-69106569D01*
X179159746Y-69214236D01*
X179206711Y-69263615D01*
X179244766Y-69283849D01*
X179311966Y-69295173D01*
X179370255Y-69277352D01*
X179419633Y-69230387D01*
X179439868Y-69192332D01*
X179451191Y-69125133D01*
X179444694Y-68999644D01*
X179400143Y-68853922D01*
X179335357Y-68746254D01*
X179288391Y-68696875D01*
X179250336Y-68676641D01*
X179183137Y-68665317D01*
X240491321Y-65541290D02*
X240986778Y-65389814D01*
X241053978Y-65401138D01*
X241092033Y-65421372D01*
X241138998Y-65470751D01*
X241174639Y-65587329D01*
X241163316Y-65654528D01*
X241143082Y-65692583D01*
X241093703Y-65739548D01*
X240598246Y-65891025D01*
X240776453Y-66473915D02*
X240687350Y-66182470D01*
X240969885Y-66064222D01*
X240949650Y-66102277D01*
X240938327Y-66169476D01*
X240982879Y-66315199D01*
X241029844Y-66364577D01*
X241067899Y-66384811D01*
X241135098Y-66396135D01*
X241280821Y-66351583D01*
X241330199Y-66304618D01*
X241350434Y-66266563D01*
X241361757Y-66199364D01*
X241317206Y-66053641D01*
X241270240Y-66004262D01*
X241232185Y-65984028D01*
X124382952Y-90291709D02*
X124749301Y-90658058D01*
X124770851Y-90722708D01*
X124770851Y-90765808D01*
X124749301Y-90830457D01*
X124663101Y-90916657D01*
X124598452Y-90938207D01*
X124555352Y-90938207D01*
X124490702Y-90916657D01*
X124124353Y-90550309D01*
X124124353Y-91455405D02*
X124382952Y-91196806D01*
X124253653Y-91326106D02*
X123801104Y-90873557D01*
X123908854Y-90895107D01*
X123995054Y-90895107D01*
X124059704Y-90873557D01*
X123693355Y-91886404D02*
X123951954Y-91627805D01*
X123822654Y-91757104D02*
X123370106Y-91304556D01*
X123477856Y-91326106D01*
X123564055Y-91326106D01*
X123628705Y-91304556D01*
X176443004Y-136979761D02*
X176482539Y-136954087D01*
X176535935Y-136863202D01*
X176549796Y-136797992D01*
X176537982Y-136693247D01*
X176486633Y-136614177D01*
X176428354Y-136567711D01*
X176304864Y-136507385D01*
X176207050Y-136486593D01*
X176069700Y-136491477D01*
X175997559Y-136510221D01*
X175918489Y-136561570D01*
X175865093Y-136652454D01*
X175851232Y-136717664D01*
X175863046Y-136822409D01*
X175888720Y-136861945D01*
X175698763Y-137434972D02*
X175726485Y-137304553D01*
X175772951Y-137246273D01*
X175812486Y-137220599D01*
X175924161Y-137176180D01*
X176061511Y-137171297D01*
X176322351Y-137226740D01*
X176380630Y-137273205D01*
X176406305Y-137312741D01*
X176425049Y-137384881D01*
X176397327Y-137515301D01*
X176350862Y-137573580D01*
X176311326Y-137599255D01*
X176239186Y-137617999D01*
X176076162Y-137583347D01*
X176017882Y-137536881D01*
X175992208Y-137497346D01*
X175973463Y-137425206D01*
X176001185Y-137294786D01*
X176047651Y-137236507D01*
X176087186Y-137210832D01*
X176159326Y-137192088D01*
X161356130Y-127048344D02*
X160879940Y-126715011D01*
X161356130Y-126476915D02*
X160356130Y-126476915D01*
X160356130Y-126857868D01*
X160403750Y-126953106D01*
X160451369Y-127000725D01*
X160546607Y-127048344D01*
X160689464Y-127048344D01*
X160784702Y-127000725D01*
X160832321Y-126953106D01*
X160879940Y-126857868D01*
X160879940Y-126476915D01*
X160356130Y-127381677D02*
X160356130Y-128000725D01*
X160737083Y-127667391D01*
X160737083Y-127810249D01*
X160784702Y-127905487D01*
X160832321Y-127953106D01*
X160927559Y-128000725D01*
X161165654Y-128000725D01*
X161260892Y-127953106D01*
X161308511Y-127905487D01*
X161356130Y-127810249D01*
X161356130Y-127524534D01*
X161308511Y-127429296D01*
X161260892Y-127381677D01*
X232764803Y-63896084D02*
X232806426Y-63918215D01*
X232911802Y-63920854D01*
X232975556Y-63901363D01*
X233061440Y-63840249D01*
X233105703Y-63757004D01*
X233118088Y-63683504D01*
X233110982Y-63546251D01*
X233081745Y-63450621D01*
X233010885Y-63332859D01*
X232959517Y-63278851D01*
X232876272Y-63234589D01*
X232770896Y-63231950D01*
X232707142Y-63251441D01*
X232621257Y-63312555D01*
X232599126Y-63354178D01*
X231973975Y-63475593D02*
X232292743Y-63378135D01*
X232422077Y-63687158D01*
X232380455Y-63665027D01*
X232306955Y-63652642D01*
X232147571Y-63701370D01*
X232093563Y-63752738D01*
X232071432Y-63794361D01*
X232059047Y-63867860D01*
X232107775Y-64027244D01*
X232159144Y-64081252D01*
X232200766Y-64103384D01*
X232274266Y-64115769D01*
X232433650Y-64067040D01*
X232487658Y-64015672D01*
X232509789Y-63974049D01*
X195855397Y-41869503D02*
X195897020Y-41891634D01*
X196002396Y-41894273D01*
X196066150Y-41874782D01*
X196152034Y-41813668D01*
X196196297Y-41730423D01*
X196208682Y-41656923D01*
X196201576Y-41519670D01*
X196172339Y-41424040D01*
X196101479Y-41306278D01*
X196050111Y-41252270D01*
X195966866Y-41208008D01*
X195861490Y-41205369D01*
X195797736Y-41224860D01*
X195711851Y-41285974D01*
X195689720Y-41327597D01*
X195434705Y-41405562D02*
X195393083Y-41383431D01*
X195319583Y-41371046D01*
X195160199Y-41419775D01*
X195106191Y-41471143D01*
X195084060Y-41512765D01*
X195071675Y-41586265D01*
X195091166Y-41650018D01*
X195152280Y-41735903D01*
X195651751Y-42001476D01*
X195237352Y-42128171D01*
X71605935Y-65814918D02*
X72124031Y-65814918D01*
X72184983Y-65845394D01*
X72215459Y-65875870D01*
X72245935Y-65936822D01*
X72245935Y-66058727D01*
X72215459Y-66119679D01*
X72184983Y-66150156D01*
X72124031Y-66180632D01*
X71605935Y-66180632D01*
X72245935Y-66820632D02*
X72245935Y-66454918D01*
X72245935Y-66637775D02*
X71605935Y-66637775D01*
X71697364Y-66576822D01*
X71758316Y-66515870D01*
X71788792Y-66454918D01*
X71605935Y-67399679D02*
X71605935Y-67094918D01*
X71910697Y-67064441D01*
X71880221Y-67094918D01*
X71849745Y-67155870D01*
X71849745Y-67308251D01*
X71880221Y-67369203D01*
X71910697Y-67399679D01*
X71971650Y-67430156D01*
X72124031Y-67430156D01*
X72184983Y-67399679D01*
X72215459Y-67369203D01*
X72245935Y-67308251D01*
X72245935Y-67155870D01*
X72215459Y-67094918D01*
X72184983Y-67064441D01*
X102626223Y-63719581D02*
X102992572Y-64085930D01*
X103014122Y-64150580D01*
X103014122Y-64193680D01*
X102992572Y-64258329D01*
X102906372Y-64344529D01*
X102841723Y-64366079D01*
X102798623Y-64366079D01*
X102733973Y-64344529D01*
X102367624Y-63978181D01*
X102367624Y-64883277D02*
X102626223Y-64624678D01*
X102496924Y-64753978D02*
X102044375Y-64301429D01*
X102152125Y-64322979D01*
X102238325Y-64322979D01*
X102302975Y-64301429D01*
X101764227Y-64581578D02*
X101484078Y-64861727D01*
X101807326Y-64883277D01*
X101742677Y-64947927D01*
X101721127Y-65012577D01*
X101721127Y-65055677D01*
X101742677Y-65120326D01*
X101850426Y-65228076D01*
X101915076Y-65249626D01*
X101958176Y-65249626D01*
X102022826Y-65228076D01*
X102152125Y-65098776D01*
X102173675Y-65034127D01*
X102173675Y-64991027D01*
X131483753Y-137127393D02*
X131474758Y-137081119D01*
X131410494Y-136997565D01*
X131355225Y-136960286D01*
X131253681Y-136932001D01*
X131161133Y-136949990D01*
X131096218Y-136986620D01*
X130994025Y-137078518D01*
X130938106Y-137161422D01*
X130891181Y-137290600D01*
X130881536Y-137364509D01*
X130899526Y-137457058D01*
X130963790Y-137540612D01*
X131019059Y-137577891D01*
X131120602Y-137606176D01*
X131166877Y-137597181D01*
X132073724Y-137444919D02*
X131742109Y-137221242D01*
X131907917Y-137333081D02*
X131516482Y-137913407D01*
X131517132Y-137793224D01*
X131499142Y-137700675D01*
X131462513Y-137635761D01*
X131875731Y-138155724D02*
X132262615Y-138416681D01*
X132405339Y-137668597D01*
X187719474Y-134658411D02*
X188153985Y-134376236D01*
X188221703Y-134368598D01*
X188263861Y-134377559D01*
X188322617Y-134412080D01*
X188389011Y-134514318D01*
X188396649Y-134582035D01*
X188387688Y-134624193D01*
X188353168Y-134682950D01*
X187918656Y-134965125D01*
X188051445Y-135169600D02*
X188283824Y-135527433D01*
X188671186Y-134948829D01*
X119626016Y-134961277D02*
X119992365Y-135327626D01*
X120013915Y-135392276D01*
X120013915Y-135435376D01*
X119992365Y-135500025D01*
X119906165Y-135586225D01*
X119841516Y-135607775D01*
X119798416Y-135607775D01*
X119733766Y-135586225D01*
X119367417Y-135219877D01*
X119367417Y-136124973D02*
X119626016Y-135866374D01*
X119496717Y-135995674D02*
X119044168Y-135543125D01*
X119151918Y-135564675D01*
X119238118Y-135564675D01*
X119302768Y-135543125D01*
X118526970Y-136060323D02*
X118613170Y-135974124D01*
X118677820Y-135952574D01*
X118720920Y-135952574D01*
X118828669Y-135974124D01*
X118936419Y-136038774D01*
X119108818Y-136211173D01*
X119130368Y-136275823D01*
X119130368Y-136318922D01*
X119108818Y-136383572D01*
X119022619Y-136469772D01*
X118957969Y-136491322D01*
X118914869Y-136491322D01*
X118850219Y-136469772D01*
X118742470Y-136362022D01*
X118720920Y-136297373D01*
X118720920Y-136254273D01*
X118742470Y-136189623D01*
X118828669Y-136103423D01*
X118893319Y-136081873D01*
X118936419Y-136081873D01*
X119001069Y-136103423D01*
X108215145Y-43806763D02*
X108733241Y-43806763D01*
X108794193Y-43837239D01*
X108824669Y-43867715D01*
X108855145Y-43928667D01*
X108855145Y-44050572D01*
X108824669Y-44111524D01*
X108794193Y-44142001D01*
X108733241Y-44172477D01*
X108215145Y-44172477D01*
X108855145Y-44812477D02*
X108855145Y-44446763D01*
X108855145Y-44629620D02*
X108215145Y-44629620D01*
X108306574Y-44568667D01*
X108367526Y-44507715D01*
X108398002Y-44446763D01*
X108276098Y-45056286D02*
X108245622Y-45086763D01*
X108215145Y-45147715D01*
X108215145Y-45300096D01*
X108245622Y-45361048D01*
X108276098Y-45391524D01*
X108337050Y-45422001D01*
X108398002Y-45422001D01*
X108489431Y-45391524D01*
X108855145Y-45025810D01*
X108855145Y-45422001D01*
D12*
X135126946Y-145096913D02*
X134455195Y-144425161D01*
X132934915Y-142904882D02*
X133606667Y-143576633D01*
X134197101Y-146026758D02*
X135126946Y-145096913D01*
X132005070Y-143834727D02*
X132934915Y-142904882D01*
D13*
X132746769Y-146728562D02*
G75*
G03*
X132746769Y-146728562I-100000J0D01*
G01*
G36*
X167775265Y-140105141D02*
G01*
X166936594Y-140649780D01*
X167312321Y-139392271D01*
X167775265Y-140105141D01*
G37*
D14*
X167775265Y-140105141D02*
X166936594Y-140649780D01*
X167312321Y-139392271D01*
X167775265Y-140105141D01*
G36*
X188383861Y-85978674D02*
G01*
X188135345Y-85165815D01*
X189091649Y-84873443D01*
X188383861Y-85978674D01*
G37*
X188383861Y-85978674D02*
X188135345Y-85165815D01*
X189091649Y-84873443D01*
X188383861Y-85978674D01*
G36*
X183751940Y-129729769D02*
G01*
X182913269Y-130274408D01*
X183288996Y-129016899D01*
X183751940Y-129729769D01*
G37*
X183751940Y-129729769D02*
X182913269Y-130274408D01*
X183288996Y-129016899D01*
X183751940Y-129729769D01*
G36*
X123136704Y-133626991D02*
G01*
X121835090Y-133795222D01*
X122298033Y-133082352D01*
X123136704Y-133626991D01*
G37*
X123136704Y-133626991D02*
X121835090Y-133795222D01*
X122298033Y-133082352D01*
X123136704Y-133626991D01*
G36*
X111363950Y-42656580D02*
G01*
X110159130Y-43177068D01*
X110407646Y-42364209D01*
X111363950Y-42656580D01*
G37*
X111363950Y-42656580D02*
X110159130Y-43177068D01*
X110407646Y-42364209D01*
X111363950Y-42656580D01*
G36*
X73841766Y-40972572D02*
G01*
X72885461Y-40680200D01*
X74090282Y-40159713D01*
X73841766Y-40972572D01*
G37*
X73841766Y-40972572D02*
X72885461Y-40680200D01*
X74090282Y-40159713D01*
X73841766Y-40972572D01*
G36*
X126638022Y-63754151D02*
G01*
X125681717Y-63461779D01*
X126886538Y-62941292D01*
X126638022Y-63754151D01*
G37*
X126638022Y-63754151D02*
X125681717Y-63461779D01*
X126886538Y-62941292D01*
X126638022Y-63754151D01*
G36*
X139113378Y-144002365D02*
G01*
X137811764Y-144170596D01*
X138274707Y-143457726D01*
X139113378Y-144002365D01*
G37*
X139113378Y-144002365D02*
X137811764Y-144170596D01*
X138274707Y-143457726D01*
X139113378Y-144002365D01*
G36*
X99311614Y-55399629D02*
G01*
X98355309Y-55107257D01*
X99560130Y-54586770D01*
X99311614Y-55399629D01*
G37*
X99311614Y-55399629D02*
X98355309Y-55107257D01*
X99560130Y-54586770D01*
X99311614Y-55399629D01*
G36*
X182814182Y-67761068D02*
G01*
X182565666Y-66948209D01*
X183521970Y-66655837D01*
X182814182Y-67761068D01*
G37*
X182814182Y-67761068D02*
X182565666Y-66948209D01*
X183521970Y-66655837D01*
X182814182Y-67761068D01*
G36*
X121068343Y-81971757D02*
G01*
X120112038Y-81679385D01*
X121316859Y-81158898D01*
X121068343Y-81971757D01*
G37*
X121068343Y-81971757D02*
X120112038Y-81679385D01*
X121316859Y-81158898D01*
X121068343Y-81971757D01*
G36*
X204570909Y-41188940D02*
G01*
X204322393Y-40376081D01*
X205278697Y-40083709D01*
X204570909Y-41188940D01*
G37*
X204570909Y-41188940D02*
X204322393Y-40376081D01*
X205278697Y-40083709D01*
X204570909Y-41188940D01*
G36*
X235610438Y-44979489D02*
G01*
X235361922Y-44166630D01*
X236318226Y-43874258D01*
X235610438Y-44979489D01*
G37*
X235610438Y-44979489D02*
X235361922Y-44166630D01*
X236318226Y-43874258D01*
X235610438Y-44979489D01*
G36*
X241180119Y-63197095D02*
G01*
X240931603Y-62384236D01*
X241887907Y-62091864D01*
X241180119Y-63197095D01*
G37*
X241180119Y-63197095D02*
X240931603Y-62384236D01*
X241887907Y-62091864D01*
X241180119Y-63197095D01*
G36*
X210140590Y-59406546D02*
G01*
X209892074Y-58593687D01*
X210848378Y-58301315D01*
X210140590Y-59406546D01*
G37*
X210140590Y-59406546D02*
X209892074Y-58593687D01*
X210848378Y-58301315D01*
X210140590Y-59406546D01*
G36*
X68272085Y-59190178D02*
G01*
X67315780Y-58897806D01*
X68520601Y-58377319D01*
X68272085Y-59190178D01*
G37*
X68272085Y-59190178D02*
X67315780Y-58897806D01*
X68520601Y-58377319D01*
X68272085Y-59190178D01*
D13*
X116174369Y-126597895D02*
X117086310Y-127213007D01*
X117684190Y-124359493D02*
X116174369Y-126597895D01*
X118596131Y-124974605D02*
X117684190Y-124359493D01*
X117086310Y-127213007D02*
X118596131Y-124974605D01*
X76297723Y-63612548D02*
X75245788Y-63290939D01*
X75508320Y-66194571D02*
X76297723Y-63612548D01*
X74456385Y-65872962D02*
X75508320Y-66194571D01*
X75245788Y-63290939D02*
X74456385Y-65872962D01*
D12*
X234397511Y-47339746D02*
X233489021Y-47617500D01*
X231432966Y-48246099D02*
X232341456Y-47968346D01*
X234781980Y-48597287D02*
X234397511Y-47339746D01*
X231817435Y-49503640D02*
X231432966Y-48246099D01*
D13*
X234773799Y-50295626D02*
G75*
G03*
X234773799Y-50295626I-100000J0D01*
G01*
D12*
X184590858Y-90502825D02*
X185499348Y-90225071D01*
X187555403Y-89596472D02*
X186646913Y-89874225D01*
X184206389Y-89245284D02*
X184590858Y-90502825D01*
X187170934Y-88338931D02*
X187555403Y-89596472D01*
D13*
X184414570Y-87546945D02*
G75*
G03*
X184414570Y-87546945I-100000J0D01*
G01*
X102703042Y-37780380D02*
X103754977Y-38101989D01*
X103492445Y-35198357D02*
X102703042Y-37780380D01*
X104544380Y-35519966D02*
X103492445Y-35198357D01*
X103754977Y-38101989D02*
X104544380Y-35519966D01*
D12*
X203357982Y-43549197D02*
X202449492Y-43826951D01*
X200393437Y-44455550D02*
X201301927Y-44177797D01*
X203742451Y-44806738D02*
X203357982Y-43549197D01*
X200777906Y-45713091D02*
X200393437Y-44455550D01*
D13*
X203734270Y-46505077D02*
G75*
G03*
X203734270Y-46505077I-100000J0D01*
G01*
D12*
X208927663Y-61766803D02*
X208019173Y-62044557D01*
X205963118Y-62673156D02*
X206871608Y-62395403D01*
X209312132Y-63024344D02*
X208927663Y-61766803D01*
X206347587Y-63930697D02*
X205963118Y-62673156D01*
D13*
X209303951Y-64722683D02*
G75*
G03*
X209303951Y-64722683I-100000J0D01*
G01*
X81251918Y-45093706D02*
X80930309Y-46145641D01*
X83833941Y-45883109D02*
X81251918Y-45093706D01*
X83512332Y-46935044D02*
X83833941Y-45883109D01*
X80930309Y-46145641D02*
X83512332Y-46935044D01*
X173289561Y-67823097D02*
X174341496Y-67501488D01*
X172500158Y-65241074D02*
X173289561Y-67823097D01*
X173552093Y-64919465D02*
X172500158Y-65241074D01*
X174341496Y-67501488D02*
X173552093Y-64919465D01*
X192101075Y-126477010D02*
X191336951Y-127268284D01*
X194043293Y-128352588D02*
X192101075Y-126477010D01*
X193279169Y-129143862D02*
X194043293Y-128352588D01*
X191336951Y-127268284D02*
X193279169Y-129143862D01*
X225896384Y-44727806D02*
X226948319Y-44406197D01*
X225106981Y-42145783D02*
X225896384Y-44727806D01*
X226158916Y-41824174D02*
X225106981Y-42145783D01*
X226948319Y-44406197D02*
X226158916Y-41824174D01*
X134542169Y-68524793D02*
X133490234Y-68203184D01*
X133752766Y-71106816D02*
X134542169Y-68524793D01*
X132700831Y-70785207D02*
X133752766Y-71106816D01*
X133490234Y-68203184D02*
X132700831Y-70785207D01*
X127096710Y-73466014D02*
G75*
G03*
X127096710Y-73466014I-100000J0D01*
G01*
D12*
X126355011Y-70572179D02*
X127284856Y-69642334D01*
X128547042Y-72764210D02*
X129476887Y-71834365D01*
X127284856Y-69642334D02*
X127956608Y-70314085D01*
X129476887Y-71834365D02*
X128805136Y-71162613D01*
X173361219Y-145310011D02*
X174157956Y-144792604D01*
X175961098Y-143621630D02*
X175164361Y-144139037D01*
X172645018Y-144207160D02*
X173361219Y-145310011D01*
X175244897Y-142518779D02*
X175961098Y-143621630D01*
D13*
X172380883Y-142544793D02*
G75*
G03*
X172380883Y-142544793I-100000J0D01*
G01*
D14*
X146323750Y-121145011D02*
X146323750Y-133285011D01*
X146323750Y-133285011D02*
X141583750Y-133285011D01*
X141583750Y-133285011D02*
X141583750Y-121145011D01*
X141583750Y-121145011D02*
X146323750Y-121145011D01*
X143953750Y-121035011D02*
X143953750Y-121145011D01*
X143953750Y-133395011D02*
X143953750Y-133285011D01*
D13*
X200673959Y-59488715D02*
X201725894Y-59167106D01*
X199884556Y-56906692D02*
X200673959Y-59488715D01*
X200936491Y-56585083D02*
X199884556Y-56906692D01*
X201725894Y-59167106D02*
X200936491Y-56585083D01*
X178866657Y-85804403D02*
X179918592Y-85482794D01*
X178077254Y-83222380D02*
X178866657Y-85804403D01*
X179129189Y-82900771D02*
X178077254Y-83222380D01*
X179918592Y-85482794D02*
X179129189Y-82900771D01*
X129021544Y-86556043D02*
X127969609Y-86234434D01*
X128232141Y-89138066D02*
X129021544Y-86556043D01*
X127180206Y-88816457D02*
X128232141Y-89138066D01*
X127969609Y-86234434D02*
X127180206Y-88816457D01*
X108167228Y-59493276D02*
X107115293Y-59171667D01*
X107377825Y-62075299D02*
X108167228Y-59493276D01*
X106325890Y-61753690D02*
X107377825Y-62075299D01*
X107115293Y-59171667D02*
X106325890Y-61753690D01*
D12*
X76669693Y-47764193D02*
X75719693Y-47764193D01*
X73569693Y-47764193D02*
X74519693Y-47764193D01*
X76669693Y-49079193D02*
X76669693Y-47764193D01*
X73569693Y-49079193D02*
X73569693Y-47764193D01*
D13*
X76169693Y-50671693D02*
G75*
G03*
X76169693Y-50671693I-100000J0D01*
G01*
D12*
X179229270Y-69913234D02*
X179507024Y-70821724D01*
X180135623Y-72877779D02*
X179857870Y-71969289D01*
X180486811Y-69528765D02*
X179229270Y-69913234D01*
X181393164Y-72493310D02*
X180135623Y-72877779D01*
D13*
X182285150Y-69636946D02*
G75*
G03*
X182285150Y-69636946I-100000J0D01*
G01*
D12*
X239967192Y-65557352D02*
X239058702Y-65835106D01*
X237002647Y-66463705D02*
X237911137Y-66185952D01*
X240351661Y-66814893D02*
X239967192Y-65557352D01*
X237387116Y-67721246D02*
X237002647Y-66463705D01*
D13*
X240343480Y-68513232D02*
G75*
G03*
X240343480Y-68513232I-100000J0D01*
G01*
D12*
X123907208Y-90051971D02*
X123235457Y-89380219D01*
X121715177Y-87859940D02*
X122386929Y-88531691D01*
X122977363Y-90981816D02*
X123907208Y-90051971D01*
X120785332Y-88789785D02*
X121715177Y-87859940D01*
D13*
X121527031Y-91683620D02*
G75*
G03*
X121527031Y-91683620I-100000J0D01*
G01*
X176973265Y-136649459D02*
X176744562Y-137725421D01*
X179614264Y-137210821D02*
X176973265Y-136649459D01*
X179385561Y-138286783D02*
X179614264Y-137210821D01*
X176744562Y-137725421D02*
X179385561Y-138286783D01*
D14*
X166643750Y-121145011D02*
X166643750Y-133285011D01*
X166643750Y-133285011D02*
X161903750Y-133285011D01*
X161903750Y-133285011D02*
X161903750Y-121145011D01*
X161903750Y-121145011D02*
X166643750Y-121145011D01*
X164273750Y-121035011D02*
X164273750Y-121145011D01*
X164273750Y-133395011D02*
X164273750Y-133285011D01*
D13*
X231849514Y-63182509D02*
X232901449Y-62860900D01*
X231060111Y-60600486D02*
X231849514Y-63182509D01*
X232112046Y-60278877D02*
X231060111Y-60600486D01*
X232901449Y-62860900D02*
X232112046Y-60278877D01*
X194940108Y-41155928D02*
X195992043Y-40834319D01*
X194150705Y-38573905D02*
X194940108Y-41155928D01*
X195202640Y-38252296D02*
X194150705Y-38573905D01*
X195992043Y-40834319D02*
X195202640Y-38252296D01*
D12*
X71100012Y-65981799D02*
X70150012Y-65981799D01*
X68000012Y-65981799D02*
X68950012Y-65981799D01*
X71100012Y-67296799D02*
X71100012Y-65981799D01*
X68000012Y-67296799D02*
X68000012Y-65981799D01*
D13*
X70600012Y-68889299D02*
G75*
G03*
X70600012Y-68889299I-100000J0D01*
G01*
D12*
X102150479Y-63479843D02*
X101478728Y-62808091D01*
X99958448Y-61287812D02*
X100630200Y-61959563D01*
X101220634Y-64409688D02*
X102150479Y-63479843D01*
X99028603Y-62217657D02*
X99958448Y-61287812D01*
D13*
X99770302Y-65111492D02*
G75*
G03*
X99770302Y-65111492I-100000J0D01*
G01*
X131652486Y-136698408D02*
X132564427Y-137313520D01*
X133162307Y-134460006D02*
X131652486Y-136698408D01*
X134074248Y-135075118D02*
X133162307Y-134460006D01*
X132564427Y-137313520D02*
X134074248Y-135075118D01*
D12*
X189337894Y-134934639D02*
X190134631Y-134417232D01*
X191937773Y-133246258D02*
X191141036Y-133763665D01*
X188621693Y-133831788D02*
X189337894Y-134934639D01*
X191221572Y-132143407D02*
X191937773Y-133246258D01*
D13*
X188357558Y-132169421D02*
G75*
G03*
X188357558Y-132169421I-100000J0D01*
G01*
D12*
X119150272Y-134721539D02*
X118478521Y-134049787D01*
X116958241Y-132529508D02*
X117629993Y-133201259D01*
X118220427Y-135651384D02*
X119150272Y-134721539D01*
X116028396Y-133459353D02*
X116958241Y-132529508D01*
D13*
X116770095Y-136353188D02*
G75*
G03*
X116770095Y-136353188I-100000J0D01*
G01*
D12*
X107709222Y-43973644D02*
X106759222Y-43973644D01*
X104609222Y-43973644D02*
X105559222Y-43973644D01*
X107709222Y-45288644D02*
X107709222Y-43973644D01*
X104609222Y-45288644D02*
X104609222Y-43973644D01*
D13*
X107209222Y-46881144D02*
G75*
G03*
X107209222Y-46881144I-100000J0D01*
G01*
%LPC*%
D15*
X133512975Y-145862356D03*
X132169472Y-144518853D03*
X134290792Y-143741036D03*
D16*
X77393750Y-109786875D03*
X112893750Y-64786875D03*
X229393750Y-107786875D03*
X196393750Y-72786875D03*
X158393750Y-153786875D03*
X158393750Y-35786875D03*
X148393750Y-35786875D03*
X247393750Y-35786875D03*
X247393750Y-153786875D03*
X148393750Y-153786875D03*
X61393750Y-153786875D03*
X61393750Y-35786875D03*
D17*
X153393750Y-58286875D03*
X153393750Y-55496875D03*
X153393750Y-61076875D03*
X153393750Y-103286875D03*
X153393750Y-100496875D03*
X153393750Y-106076875D03*
X153393750Y-148286875D03*
X153393750Y-145496875D03*
X153393750Y-151076875D03*
D18*
X170042612Y-146681161D03*
X178563504Y-141147629D03*
D19*
X174418849Y-138676266D03*
X173601891Y-137418260D03*
X168653734Y-140631631D03*
X169470693Y-141889637D03*
D20*
X141730816Y-103174481D03*
D21*
X141730816Y-105714481D03*
X141730816Y-108254481D03*
X141730816Y-110794481D03*
D18*
X181022868Y-90906126D03*
X190738924Y-87935630D03*
D22*
X181355270Y-84708118D03*
X181793827Y-86142575D03*
X187436026Y-84417582D03*
X186997468Y-82983125D03*
D20*
X166496350Y-103174481D03*
D21*
X166496350Y-105714481D03*
X166496350Y-108254481D03*
X166496350Y-110794481D03*
D20*
X213010000Y-109276261D03*
D21*
X213010000Y-106736261D03*
X213010000Y-104196261D03*
X213010000Y-101656261D03*
X213010000Y-99116261D03*
X213010000Y-96576261D03*
X213010000Y-94036261D03*
X213010000Y-91496261D03*
D18*
X186019287Y-136305789D03*
X194540179Y-130772257D03*
D19*
X190395524Y-128300894D03*
X189578566Y-127042888D03*
X184630409Y-130256259D03*
X185447368Y-131514265D03*
D18*
X113328888Y-131323680D03*
X121849780Y-136857212D03*
D23*
X118290501Y-127594311D03*
X117473543Y-128852317D03*
X122421699Y-132065688D03*
X123238658Y-130807682D03*
D20*
X136968312Y-94115721D03*
X171258854Y-94115721D03*
D18*
X101301194Y-43145896D03*
X111017250Y-46116392D03*
D24*
X105042650Y-38193391D03*
X104604092Y-39627848D03*
X110246291Y-41352841D03*
X110684848Y-39918384D03*
D18*
X70261665Y-46936445D03*
X79977721Y-49906941D03*
D25*
X79206762Y-45143390D03*
X79645319Y-43708933D03*
X74003121Y-41983940D03*
X73564563Y-43418397D03*
X126360819Y-66199976D03*
X126799377Y-64765519D03*
X132441575Y-66490512D03*
X132003018Y-67924969D03*
D18*
X132773977Y-72688520D03*
X123057921Y-69718024D03*
X129305562Y-141699054D03*
X137826454Y-147232586D03*
D23*
X134267175Y-137969685D03*
X133450217Y-139227691D03*
X138398373Y-142441062D03*
X139215332Y-141183056D03*
D18*
X95731513Y-61363502D03*
X105447569Y-64333998D03*
D25*
X104676610Y-59570447D03*
X105115167Y-58135990D03*
X99472969Y-56410997D03*
X99034411Y-57845454D03*
D18*
X175453189Y-72688520D03*
X185169245Y-69718024D03*
D22*
X175785591Y-66490512D03*
X176224148Y-67924969D03*
X181866347Y-66199976D03*
X181427789Y-64765519D03*
D18*
X117488242Y-87935630D03*
X127204298Y-90906126D03*
D25*
X126433339Y-86142575D03*
X126871896Y-84708118D03*
X121229698Y-82983125D03*
X120791140Y-84417582D03*
D18*
X197209916Y-46116392D03*
X206925972Y-43145896D03*
D22*
X197542318Y-39918384D03*
X197980875Y-41352841D03*
X203623074Y-39627848D03*
X203184516Y-38193391D03*
D18*
X228249445Y-49906941D03*
X237965501Y-46936445D03*
D22*
X228581847Y-43708933D03*
X229020404Y-45143390D03*
X234662603Y-43418397D03*
X234224045Y-41983940D03*
D18*
X233819126Y-68124547D03*
X243535182Y-65154051D03*
D22*
X234151528Y-61926539D03*
X234590085Y-63360996D03*
X240232284Y-61636003D03*
X239793726Y-60201546D03*
D18*
X202779597Y-64333998D03*
X212495653Y-61363502D03*
D22*
X203111999Y-58135990D03*
X203550556Y-59570447D03*
X209192755Y-57845454D03*
X208754197Y-56410997D03*
D18*
X64691984Y-65154051D03*
X74408040Y-68124547D03*
D25*
X73637081Y-63360996D03*
X74075638Y-61926539D03*
X68433440Y-60201546D03*
X67994882Y-61636003D03*
D26*
X117804645Y-125164472D03*
X116965855Y-126408028D03*
D27*
X75157775Y-65459984D03*
X75596333Y-64025526D03*
D28*
X234315644Y-49124152D03*
X232498664Y-49679658D03*
X232807792Y-47441481D03*
D29*
X184672725Y-88718419D03*
X186489705Y-88162913D03*
X186180577Y-90401090D03*
D30*
X103842990Y-35932944D03*
X103404432Y-37367402D03*
D28*
X203276115Y-45333603D03*
X201459135Y-45889109D03*
X201768263Y-43650932D03*
X208845796Y-63551209D03*
X207028816Y-64106715D03*
X207337944Y-61868538D03*
D31*
X83099354Y-46233654D03*
X81664896Y-45795096D03*
D32*
X173201548Y-65654052D03*
X173640106Y-67088510D03*
D33*
X193229627Y-128331430D03*
X192150617Y-127289442D03*
D32*
X225808371Y-42558761D03*
X226246929Y-43993219D03*
D27*
X133402221Y-70372229D03*
X133840779Y-68937771D03*
D15*
X128640733Y-70478488D03*
X126519413Y-71256305D03*
X127862916Y-72599808D03*
D34*
X172948066Y-143572165D03*
X174541540Y-142537351D03*
X174861313Y-144774032D03*
D35*
X143953750Y-119595011D03*
D36*
X143953750Y-134835011D03*
D32*
X200585946Y-57319670D03*
X201024504Y-58754128D03*
X178778644Y-83635358D03*
X179217202Y-85069816D03*
D27*
X127881596Y-88403479D03*
X128320154Y-86969021D03*
D21*
X95217166Y-91496261D03*
X95217166Y-94036261D03*
X95217166Y-96576261D03*
X95217166Y-99116261D03*
X95217166Y-101656261D03*
X95217166Y-104196261D03*
X95217166Y-106736261D03*
D20*
X95217166Y-109276261D03*
D27*
X107027280Y-61340712D03*
X107465838Y-59906254D03*
D37*
X76069693Y-49446693D03*
X74169693Y-49446693D03*
X75119693Y-47396693D03*
D38*
X181013676Y-69995101D03*
X181569182Y-71812081D03*
X179331005Y-71502953D03*
D28*
X239885325Y-67341758D03*
X238068345Y-67897264D03*
X238377473Y-65659087D03*
D15*
X122293237Y-90817414D03*
X120949734Y-89473911D03*
X123071054Y-88696094D03*
D39*
X178913024Y-137624055D03*
X177445802Y-137312187D03*
D35*
X164273750Y-119595011D03*
D36*
X164273750Y-134835011D03*
D32*
X231761501Y-61013464D03*
X232200059Y-62447922D03*
X194852095Y-38986883D03*
X195290653Y-40421341D03*
D37*
X70500012Y-67664299D03*
X68600012Y-67664299D03*
X69550012Y-65614299D03*
D15*
X100536508Y-64245286D03*
X99193005Y-62901783D03*
X101314325Y-62123966D03*
D26*
X133282762Y-135264985D03*
X132443972Y-136508541D03*
D34*
X188924741Y-133196793D03*
X190518215Y-132161979D03*
X190837988Y-134398660D03*
D15*
X117536301Y-135486982D03*
X116192798Y-134143479D03*
X118314118Y-133365662D03*
D37*
X107109222Y-45656144D03*
X105209222Y-45656144D03*
X106159222Y-43606144D03*
M02*
