G04 #@! TF.GenerationSoftware,KiCad,Pcbnew,(6.0.10)*
G04 #@! TF.CreationDate,2023-07-09T19:41:39+01:00*
G04 #@! TF.ProjectId,magnetonekeys,6d61676e-6574-46f6-9e65-6b6579732e6b,rev?*
G04 #@! TF.SameCoordinates,Original*
G04 #@! TF.FileFunction,Soldermask,Bot*
G04 #@! TF.FilePolarity,Negative*
%FSLAX46Y46*%
G04 Gerber Fmt 4.6, Leading zero omitted, Abs format (unit mm)*
G04 Created by KiCad (PCBNEW (6.0.10)) date 2023-07-09 19:41:39*
%MOMM*%
%LPD*%
G01*
G04 APERTURE LIST*
G04 Aperture macros list*
%AMRoundRect*
0 Rectangle with rounded corners*
0 $1 Rounding radius*
0 $2 $3 $4 $5 $6 $7 $8 $9 X,Y pos of 4 corners*
0 Add a 4 corners polygon primitive as box body*
4,1,4,$2,$3,$4,$5,$6,$7,$8,$9,$2,$3,0*
0 Add four circle primitives for the rounded corners*
1,1,$1+$1,$2,$3*
1,1,$1+$1,$4,$5*
1,1,$1+$1,$6,$7*
1,1,$1+$1,$8,$9*
0 Add four rect primitives between the rounded corners*
20,1,$1+$1,$2,$3,$4,$5,0*
20,1,$1+$1,$4,$5,$6,$7,0*
20,1,$1+$1,$6,$7,$8,$9,0*
20,1,$1+$1,$8,$9,$2,$3,0*%
%AMRotRect*
0 Rectangle, with rotation*
0 The origin of the aperture is its center*
0 $1 length*
0 $2 width*
0 $3 Rotation angle, in degrees counterclockwise*
0 Add horizontal line*
21,1,$1,$2,0,0,$3*%
G04 Aperture macros list end*
%ADD10RoundRect,0.039200X-0.254558X-0.595101X0.595101X0.254558X0.254558X0.595101X-0.595101X-0.254558X0*%
%ADD11C,2.200000*%
%ADD12C,0.500000*%
%ADD13C,1.750000*%
%ADD14RoundRect,0.225000X0.443559X0.556332X-0.688646X-0.178930X-0.443559X-0.556332X0.688646X0.178930X0*%
%ADD15R,1.700000X1.700000*%
%ADD16O,1.700000X1.700000*%
%ADD17RoundRect,0.225000X-0.579722X-0.412519X0.711289X-0.017818X0.579722X0.412519X-0.711289X0.017818X0*%
%ADD18RoundRect,0.225000X-0.688646X0.178930X0.443559X-0.556332X0.688646X-0.178930X-0.443559X0.556332X0*%
%ADD19RoundRect,0.225000X-0.711289X-0.017818X0.579722X-0.412519X0.711289X0.017818X-0.579722X0.412519X0*%
%ADD20RoundRect,0.225000X0.711289X0.017818X-0.579722X0.412519X-0.711289X-0.017818X0.579722X-0.412519X0*%
%ADD21RotRect,0.800000X0.750000X56.000000*%
%ADD22RotRect,0.800000X0.750000X253.000000*%
%ADD23RoundRect,0.039200X0.405935X-0.504145X0.054621X0.644951X-0.405935X0.504145X-0.054621X-0.644951X0*%
%ADD24RoundRect,0.039200X-0.405935X0.504145X-0.054621X-0.644951X0.405935X-0.504145X0.054621X0.644951X0*%
%ADD25RotRect,0.800000X0.750000X73.000000*%
%ADD26RotRect,0.800000X0.750000X343.000000*%
%ADD27RotRect,0.800000X0.750000X107.000000*%
%ADD28RotRect,0.800000X0.750000X316.000000*%
%ADD29RoundRect,0.039200X-0.529171X0.372724X0.125267X-0.635022X0.529171X-0.372724X-0.125267X0.635022X0*%
%ADD30C,2.400000*%
%ADD31O,2.400000X2.400000*%
%ADD32RoundRect,0.039200X0.240800X-0.600800X0.240800X0.600800X-0.240800X0.600800X-0.240800X-0.600800X0*%
%ADD33RoundRect,0.039200X0.504145X0.405935X-0.644951X0.054621X-0.504145X-0.405935X0.644951X-0.054621X0*%
%ADD34RotRect,0.800000X0.750000X348.000000*%
G04 APERTURE END LIST*
D10*
X133512975Y-145862356D03*
X132169472Y-144518853D03*
X134290792Y-143741036D03*
D11*
X77393750Y-109786875D03*
X112893750Y-64786875D03*
X229393750Y-107786875D03*
X196393750Y-72786875D03*
X158393750Y-153786875D03*
X158393750Y-35786875D03*
X148393750Y-35786875D03*
X247393750Y-35786875D03*
X247393750Y-153786875D03*
X148393750Y-153786875D03*
X61393750Y-153786875D03*
X61393750Y-35786875D03*
D12*
X153393750Y-58286875D03*
X153393750Y-55496875D03*
X153393750Y-61076875D03*
X153393750Y-103286875D03*
X153393750Y-100496875D03*
X153393750Y-106076875D03*
X153393750Y-148286875D03*
X153393750Y-145496875D03*
X153393750Y-151076875D03*
D13*
X170042612Y-146681161D03*
X178563504Y-141147629D03*
D14*
X174418849Y-138676266D03*
X173601891Y-137418260D03*
X168653734Y-140631631D03*
X169470693Y-141889637D03*
D15*
X141730816Y-103174481D03*
D16*
X141730816Y-105714481D03*
X141730816Y-108254481D03*
X141730816Y-110794481D03*
D13*
X181022868Y-90906126D03*
X190738924Y-87935630D03*
D17*
X181355270Y-84708118D03*
X181793827Y-86142575D03*
X187436026Y-84417582D03*
X186997468Y-82983125D03*
D15*
X166496350Y-103174481D03*
D16*
X166496350Y-105714481D03*
X166496350Y-108254481D03*
X166496350Y-110794481D03*
D15*
X213010000Y-109276261D03*
D16*
X213010000Y-106736261D03*
X213010000Y-104196261D03*
X213010000Y-101656261D03*
X213010000Y-99116261D03*
X213010000Y-96576261D03*
X213010000Y-94036261D03*
X213010000Y-91496261D03*
D13*
X186019287Y-136305789D03*
X194540179Y-130772257D03*
D14*
X190395524Y-128300894D03*
X189578566Y-127042888D03*
X184630409Y-130256259D03*
X185447368Y-131514265D03*
D13*
X113328888Y-131323680D03*
X121849780Y-136857212D03*
D18*
X118290501Y-127594311D03*
X117473543Y-128852317D03*
X122421699Y-132065688D03*
X123238658Y-130807682D03*
D15*
X136968312Y-94115721D03*
X171258854Y-94115721D03*
D13*
X101301194Y-43145896D03*
X111017250Y-46116392D03*
D19*
X105042650Y-38193391D03*
X104604092Y-39627848D03*
X110246291Y-41352841D03*
X110684848Y-39918384D03*
D13*
X70261665Y-46936445D03*
X79977721Y-49906941D03*
D20*
X79206762Y-45143390D03*
X79645319Y-43708933D03*
X74003121Y-41983940D03*
X73564563Y-43418397D03*
X126360819Y-66199976D03*
X126799377Y-64765519D03*
X132441575Y-66490512D03*
X132003018Y-67924969D03*
D13*
X132773977Y-72688520D03*
X123057921Y-69718024D03*
X129305562Y-141699054D03*
X137826454Y-147232586D03*
D18*
X134267175Y-137969685D03*
X133450217Y-139227691D03*
X138398373Y-142441062D03*
X139215332Y-141183056D03*
D13*
X95731513Y-61363502D03*
X105447569Y-64333998D03*
D20*
X104676610Y-59570447D03*
X105115167Y-58135990D03*
X99472969Y-56410997D03*
X99034411Y-57845454D03*
D13*
X175453189Y-72688520D03*
X185169245Y-69718024D03*
D17*
X175785591Y-66490512D03*
X176224148Y-67924969D03*
X181866347Y-66199976D03*
X181427789Y-64765519D03*
D13*
X117488242Y-87935630D03*
X127204298Y-90906126D03*
D20*
X126433339Y-86142575D03*
X126871896Y-84708118D03*
X121229698Y-82983125D03*
X120791140Y-84417582D03*
D13*
X197209916Y-46116392D03*
X206925972Y-43145896D03*
D17*
X197542318Y-39918384D03*
X197980875Y-41352841D03*
X203623074Y-39627848D03*
X203184516Y-38193391D03*
D13*
X228249445Y-49906941D03*
X237965501Y-46936445D03*
D17*
X228581847Y-43708933D03*
X229020404Y-45143390D03*
X234662603Y-43418397D03*
X234224045Y-41983940D03*
D13*
X233819126Y-68124547D03*
X243535182Y-65154051D03*
D17*
X234151528Y-61926539D03*
X234590085Y-63360996D03*
X240232284Y-61636003D03*
X239793726Y-60201546D03*
D13*
X202779597Y-64333998D03*
X212495653Y-61363502D03*
D17*
X203111999Y-58135990D03*
X203550556Y-59570447D03*
X209192755Y-57845454D03*
X208754197Y-56410997D03*
D13*
X64691984Y-65154051D03*
X74408040Y-68124547D03*
D20*
X73637081Y-63360996D03*
X74075638Y-61926539D03*
X68433440Y-60201546D03*
X67994882Y-61636003D03*
D21*
X117804645Y-125164472D03*
X116965855Y-126408028D03*
D22*
X75157775Y-65459984D03*
X75596333Y-64025526D03*
D23*
X234315644Y-49124152D03*
X232498664Y-49679658D03*
X232807792Y-47441481D03*
D24*
X184672725Y-88718419D03*
X186489705Y-88162913D03*
X186180577Y-90401090D03*
D25*
X103842990Y-35932944D03*
X103404432Y-37367402D03*
D23*
X203276115Y-45333603D03*
X201459135Y-45889109D03*
X201768263Y-43650932D03*
X208845796Y-63551209D03*
X207028816Y-64106715D03*
X207337944Y-61868538D03*
D26*
X83099354Y-46233654D03*
X81664896Y-45795096D03*
D27*
X173201548Y-65654052D03*
X173640106Y-67088510D03*
D28*
X193229627Y-128331430D03*
X192150617Y-127289442D03*
D27*
X225808371Y-42558761D03*
X226246929Y-43993219D03*
D22*
X133402221Y-70372229D03*
X133840779Y-68937771D03*
D10*
X128640733Y-70478488D03*
X126519413Y-71256305D03*
X127862916Y-72599808D03*
D29*
X172948066Y-143572165D03*
X174541540Y-142537351D03*
X174861313Y-144774032D03*
D30*
X143953750Y-119595011D03*
D31*
X143953750Y-134835011D03*
D27*
X200585946Y-57319670D03*
X201024504Y-58754128D03*
X178778644Y-83635358D03*
X179217202Y-85069816D03*
D22*
X127881596Y-88403479D03*
X128320154Y-86969021D03*
D16*
X95217166Y-91496261D03*
X95217166Y-94036261D03*
X95217166Y-96576261D03*
X95217166Y-99116261D03*
X95217166Y-101656261D03*
X95217166Y-104196261D03*
X95217166Y-106736261D03*
D15*
X95217166Y-109276261D03*
D22*
X107027280Y-61340712D03*
X107465838Y-59906254D03*
D32*
X76069693Y-49446693D03*
X74169693Y-49446693D03*
X75119693Y-47396693D03*
D33*
X181013676Y-69995101D03*
X181569182Y-71812081D03*
X179331005Y-71502953D03*
D23*
X239885325Y-67341758D03*
X238068345Y-67897264D03*
X238377473Y-65659087D03*
D10*
X122293237Y-90817414D03*
X120949734Y-89473911D03*
X123071054Y-88696094D03*
D34*
X178913024Y-137624055D03*
X177445802Y-137312187D03*
D30*
X164273750Y-119595011D03*
D31*
X164273750Y-134835011D03*
D27*
X231761501Y-61013464D03*
X232200059Y-62447922D03*
X194852095Y-38986883D03*
X195290653Y-40421341D03*
D32*
X70500012Y-67664299D03*
X68600012Y-67664299D03*
X69550012Y-65614299D03*
D10*
X100536508Y-64245286D03*
X99193005Y-62901783D03*
X101314325Y-62123966D03*
D21*
X133282762Y-135264985D03*
X132443972Y-136508541D03*
D29*
X188924741Y-133196793D03*
X190518215Y-132161979D03*
X190837988Y-134398660D03*
D10*
X117536301Y-135486982D03*
X116192798Y-134143479D03*
X118314118Y-133365662D03*
D32*
X107109222Y-45656144D03*
X105209222Y-45656144D03*
X106159222Y-43606144D03*
M02*
