%TF.GenerationSoftware,KiCad,Pcbnew,(6.0.10)*%
%TF.CreationDate,2023-07-09T19:42:05+01:00*%
%TF.ProjectId,magnetonekeys,6d61676e-6574-46f6-9e65-6b6579732e6b,rev?*%
%TF.SameCoordinates,Original*%
%TF.FileFunction,Drillmap*%
%TF.FilePolarity,Positive*%
%FSLAX45Y45*%
G04 Gerber Fmt 4.5, Leading zero omitted, Abs format (unit mm)*
G04 Created by KiCad (PCBNEW (6.0.10)) date 2023-07-09 19:42:05*
%MOMM*%
%LPD*%
G01*
G04 APERTURE LIST*
%ADD10C,0.100000*%
%ADD11C,0.200000*%
%ADD12C,0.030000*%
%ADD13C,0.040000*%
%ADD14C,0.045000*%
%ADD15C,0.060000*%
%ADD16C,0.075000*%
%ADD17C,0.120000*%
%ADD18C,0.050000*%
%ADD19C,0.175000*%
%ADD20C,0.220000*%
G04 APERTURE END LIST*
D10*
X25139375Y-3578687D02*
G75*
G03*
X24739375Y-3178687I-400000J0D01*
G01*
X24739375Y-15778687D02*
G75*
G03*
X25139375Y-15378687I0J400000D01*
G01*
X5739375Y-15378687D02*
G75*
G03*
X6139375Y-15778687I400000J0D01*
G01*
X6139375Y-3178687D02*
G75*
G03*
X5739375Y-3578687I0J-400000D01*
G01*
X15439375Y-15278687D02*
G75*
G03*
X15239375Y-15278687I-100000J0D01*
G01*
X15239375Y-14378687D02*
G75*
G03*
X15439375Y-14378687I100000J0D01*
G01*
X15439375Y-10778688D02*
G75*
G03*
X15239375Y-10778688I-100000J0D01*
G01*
X15239375Y-9878688D02*
G75*
G03*
X15439375Y-9878688I100000J0D01*
G01*
X15439375Y-6278687D02*
G75*
G03*
X15239375Y-6278687I-100000J0D01*
G01*
X15239375Y-5378688D02*
G75*
G03*
X15439375Y-5378688I100000J0D01*
G01*
X15239375Y-10778688D02*
X15239375Y-14378687D01*
X15439375Y-14378687D02*
X15439375Y-10778688D01*
X15439375Y-9878688D02*
X15439375Y-6278687D01*
X15239375Y-6278687D02*
X15239375Y-9878688D01*
X15439375Y-5378688D02*
X15439375Y-3878687D01*
X15239375Y-3878687D02*
X15239375Y-5378688D01*
X15439375Y-3178687D02*
X15439375Y-3878687D01*
X15239375Y-3178687D02*
X15239375Y-3878687D01*
X15239375Y-15278687D02*
X15239375Y-15778687D01*
X15439375Y-15278687D02*
X15439375Y-15778687D01*
X6139375Y-15778687D02*
X15239375Y-15778687D01*
X5739375Y-3578687D02*
X5739375Y-15378687D01*
X15239375Y-3178687D02*
X6139375Y-3178687D01*
X15439375Y-3178687D02*
X24739375Y-3178687D01*
X25139375Y-15378687D02*
X25139375Y-3578687D01*
X15439375Y-15778687D02*
X24739375Y-15778687D01*
D11*
D12*
X8769275Y-11085625D02*
X8799275Y-11115625D01*
X8799275Y-11085625D02*
X8769275Y-11115625D01*
X9169275Y-11485625D02*
X9199275Y-11515625D01*
X9199275Y-11485625D02*
X9169275Y-11515625D01*
X21589206Y-11323819D02*
X21619206Y-11353819D01*
X21619206Y-11323819D02*
X21589206Y-11353819D01*
X24225137Y-5918312D02*
X24255137Y-5948312D01*
X24255137Y-5918312D02*
X24225137Y-5948312D01*
X24719825Y-6222312D02*
X24749825Y-6252312D01*
X24749825Y-6222312D02*
X24719825Y-6252312D01*
D13*
X10996650Y-12816750D02*
G75*
G03*
X10996650Y-12816750I-20000J0D01*
G01*
X11188150Y-5781500D02*
G75*
G03*
X11188150Y-5781500I-20000J0D01*
G01*
X11711025Y-5911125D02*
G75*
G03*
X11711025Y-5911125I-20000J0D01*
G01*
X19467606Y-11888074D02*
G75*
G03*
X19467606Y-11888074I-20000J0D01*
G01*
X19528873Y-6657846D02*
G75*
G03*
X19528873Y-6657846I-20000J0D01*
G01*
X20124186Y-6360190D02*
G75*
G03*
X20124186Y-6360190I-20000J0D01*
G01*
X21446375Y-4263501D02*
G75*
G03*
X21446375Y-4263501I-20000J0D01*
G01*
X22564969Y-4693313D02*
G75*
G03*
X22564969Y-4693313I-20000J0D01*
G01*
X23037375Y-5877501D02*
G75*
G03*
X23037375Y-5877501I-20000J0D01*
G01*
X23216375Y-6418501D02*
G75*
G03*
X23216375Y-6418501I-20000J0D01*
G01*
D14*
X10500400Y-12794250D02*
X10500400Y-12839250D01*
X10477900Y-12816750D02*
X10522900Y-12816750D01*
D15*
X20540383Y-8873191D02*
X20540383Y-8830764D01*
X20497956Y-8830764D01*
X20497956Y-8873191D01*
X20540383Y-8873191D01*
X21180344Y-7370026D02*
X21180344Y-7327599D01*
X21137918Y-7327599D01*
X21137918Y-7370026D01*
X21180344Y-7370026D01*
D16*
X6536025Y-5964812D02*
X6573525Y-5927312D01*
X6536025Y-5889812D01*
X6498525Y-5927312D01*
X6536025Y-5964812D01*
X6789025Y-6599812D02*
X6826525Y-6562312D01*
X6789025Y-6524812D01*
X6751525Y-6562312D01*
X6789025Y-6599812D01*
X7176025Y-4054812D02*
X7213525Y-4017312D01*
X7176025Y-3979812D01*
X7138525Y-4017312D01*
X7176025Y-4054812D01*
X7331589Y-4748249D02*
X7369089Y-4710749D01*
X7331589Y-4673249D01*
X7294089Y-4710749D01*
X7331589Y-4748249D01*
X7751025Y-6919812D02*
X7788525Y-6882312D01*
X7751025Y-6844812D01*
X7713525Y-6882312D01*
X7751025Y-6919812D01*
X7761962Y-6543937D02*
X7799462Y-6506437D01*
X7761962Y-6468937D01*
X7724462Y-6506437D01*
X7761962Y-6543937D01*
X7874087Y-7175187D02*
X7911587Y-7137687D01*
X7874087Y-7100187D01*
X7836587Y-7137687D01*
X7874087Y-7175187D01*
X8119150Y-6424875D02*
X8156650Y-6387375D01*
X8119150Y-6349875D01*
X8081650Y-6387375D01*
X8119150Y-6424875D01*
X8233025Y-4881813D02*
X8270525Y-4844313D01*
X8233025Y-4806813D01*
X8195525Y-4844313D01*
X8233025Y-4881813D01*
X8471025Y-4661813D02*
X8508525Y-4624313D01*
X8471025Y-4586813D01*
X8433525Y-4624313D01*
X8471025Y-4661813D01*
X8477610Y-6188022D02*
X8515110Y-6150522D01*
X8477610Y-6113022D01*
X8440110Y-6150522D01*
X8477610Y-6188022D01*
X8833525Y-5948625D02*
X8871025Y-5911125D01*
X8833525Y-5873625D01*
X8796025Y-5911125D01*
X8833525Y-5948625D01*
X8833525Y-6543937D02*
X8871025Y-6506437D01*
X8833525Y-6468937D01*
X8796025Y-6506437D01*
X8833525Y-6543937D01*
X9945025Y-5419813D02*
X9982525Y-5382313D01*
X9945025Y-5344813D01*
X9907525Y-5382313D01*
X9945025Y-5419813D01*
X10024150Y-6782062D02*
X10061650Y-6744562D01*
X10024150Y-6707062D01*
X9986650Y-6744562D01*
X10024150Y-6782062D01*
X10205025Y-3587812D02*
X10242525Y-3550312D01*
X10205025Y-3512812D01*
X10167525Y-3550312D01*
X10205025Y-3587812D01*
X10328885Y-6273953D02*
X10366385Y-6236453D01*
X10328885Y-6198953D01*
X10291385Y-6236453D01*
X10328885Y-6273953D01*
X10442205Y-4389992D02*
X10479705Y-4352492D01*
X10442205Y-4314992D01*
X10404705Y-4352492D01*
X10442205Y-4389992D01*
X10625025Y-6817812D02*
X10662525Y-6780312D01*
X10625025Y-6742812D01*
X10587525Y-6780312D01*
X10625025Y-6817812D01*
X11095088Y-5022188D02*
X11132588Y-4984688D01*
X11095088Y-4947188D01*
X11057588Y-4984688D01*
X11095088Y-5022188D01*
X11193150Y-6154000D02*
X11230650Y-6116500D01*
X11193150Y-6079000D01*
X11155650Y-6116500D01*
X11193150Y-6154000D01*
X11328337Y-4345063D02*
X11365837Y-4307563D01*
X11328337Y-4270063D01*
X11290837Y-4307563D01*
X11328337Y-4345063D01*
X11534458Y-9915192D02*
X11571958Y-9877692D01*
X11534458Y-9840192D01*
X11496958Y-9877692D01*
X11534458Y-9915192D01*
X11707962Y-14006375D02*
X11745462Y-13968875D01*
X11707962Y-13931375D01*
X11670462Y-13968875D01*
X11707962Y-14006375D01*
X11816354Y-7847359D02*
X11853854Y-7809859D01*
X11816354Y-7772359D01*
X11778854Y-7809859D01*
X11816354Y-7847359D01*
X11939025Y-12397812D02*
X11976525Y-12360312D01*
X11939025Y-12322812D01*
X11901525Y-12360312D01*
X11939025Y-12397812D01*
X11969962Y-11936375D02*
X12007462Y-11898875D01*
X11969962Y-11861375D01*
X11932462Y-11898875D01*
X11969962Y-11936375D01*
X12048212Y-9639563D02*
X12085712Y-9602063D01*
X12048212Y-9564563D01*
X12010712Y-9602063D01*
X12048212Y-9639563D01*
X12055375Y-8799188D02*
X12092875Y-8761688D01*
X12055375Y-8724188D01*
X12017875Y-8761688D01*
X12055375Y-8799188D01*
X12325375Y-8070187D02*
X12362875Y-8032687D01*
X12325375Y-7995187D01*
X12287875Y-8032687D01*
X12325375Y-8070187D01*
X12415025Y-13473812D02*
X12452525Y-13436312D01*
X12415025Y-13398812D01*
X12377525Y-13436312D01*
X12415025Y-13473812D01*
X12496337Y-13804062D02*
X12533837Y-13766562D01*
X12496337Y-13729062D01*
X12458837Y-13766562D01*
X12496337Y-13804062D01*
X12529375Y-6405187D02*
X12566875Y-6367687D01*
X12529375Y-6330187D01*
X12491875Y-6367687D01*
X12529375Y-6405187D01*
X12606025Y-6967812D02*
X12643525Y-6930312D01*
X12606025Y-6892812D01*
X12568525Y-6930312D01*
X12606025Y-6967812D01*
X12614025Y-8880813D02*
X12651525Y-8843313D01*
X12614025Y-8805813D01*
X12576525Y-8843313D01*
X12614025Y-8880813D01*
X12684962Y-15030187D02*
X12722462Y-14992687D01*
X12684962Y-14955187D01*
X12647462Y-14992687D01*
X12684962Y-15030187D01*
X13063025Y-7100812D02*
X13100525Y-7063312D01*
X13063025Y-7025812D01*
X13025525Y-7063312D01*
X13063025Y-7100812D01*
X13184015Y-9122177D02*
X13221515Y-9084677D01*
X13184015Y-9047177D01*
X13146515Y-9084677D01*
X13184015Y-9122177D01*
X13204962Y-10683375D02*
X13242462Y-10645875D01*
X13204962Y-10608375D01*
X13167462Y-10645875D01*
X13204962Y-10683375D01*
X13232337Y-14279062D02*
X13269837Y-14241562D01*
X13232337Y-14204062D01*
X13194837Y-14241562D01*
X13232337Y-14279062D01*
X13476962Y-11306437D02*
X13514462Y-11268937D01*
X13476962Y-11231437D01*
X13439462Y-11268937D01*
X13476962Y-11306437D01*
X13485025Y-13410812D02*
X13522525Y-13373312D01*
X13485025Y-13335812D01*
X13447525Y-13373312D01*
X13485025Y-13410812D01*
X13633912Y-7284238D02*
X13671412Y-7246738D01*
X13633912Y-7209238D01*
X13596412Y-7246738D01*
X13633912Y-7284238D01*
X14030025Y-14458812D02*
X14067525Y-14421312D01*
X14030025Y-14383812D01*
X13992525Y-14421312D01*
X14030025Y-14458812D01*
X16812375Y-13773187D02*
X16849875Y-13735687D01*
X16812375Y-13698187D01*
X16774875Y-13735687D01*
X16812375Y-13773187D01*
X17186400Y-8580575D02*
X17223900Y-8543075D01*
X17186400Y-8505575D01*
X17148900Y-8543075D01*
X17186400Y-8580575D01*
X17316825Y-6433812D02*
X17354325Y-6396312D01*
X17316825Y-6358812D01*
X17279325Y-6396312D01*
X17316825Y-6433812D01*
X17423542Y-14961670D02*
X17461042Y-14924170D01*
X17423542Y-14886670D01*
X17386042Y-14924170D01*
X17423542Y-14961670D01*
X17480287Y-7950627D02*
X17517787Y-7913127D01*
X17480287Y-7875627D01*
X17442787Y-7913127D01*
X17480287Y-7950627D01*
X17616269Y-14693294D02*
X17653769Y-14655794D01*
X17616269Y-14618294D01*
X17578769Y-14655794D01*
X17616269Y-14693294D01*
X17844263Y-10548125D02*
X17881763Y-10510625D01*
X17844263Y-10473125D01*
X17806763Y-10510625D01*
X17844263Y-10548125D01*
X17858273Y-12987927D02*
X17895773Y-12950427D01*
X17858273Y-12912927D01*
X17820773Y-12950427D01*
X17858273Y-12987927D01*
X17919928Y-9504926D02*
X17957428Y-9467426D01*
X17919928Y-9429926D01*
X17882428Y-9467426D01*
X17919928Y-9504926D01*
X17959324Y-13473388D02*
X17996824Y-13435888D01*
X17959324Y-13398388D01*
X17921824Y-13435888D01*
X17959324Y-13473388D01*
X17990825Y-7448812D02*
X18028325Y-7411312D01*
X17990825Y-7373812D01*
X17953325Y-7411312D01*
X17990825Y-7448812D01*
X18004138Y-8277062D02*
X18041638Y-8239562D01*
X18004138Y-8202062D01*
X17966638Y-8239562D01*
X18004138Y-8277062D01*
X18105825Y-14010812D02*
X18143325Y-13973312D01*
X18105825Y-13935812D01*
X18068325Y-13973312D01*
X18105825Y-14010812D01*
X18282825Y-12881812D02*
X18320325Y-12844312D01*
X18282825Y-12806812D01*
X18245325Y-12844312D01*
X18282825Y-12881812D01*
X18478825Y-6709812D02*
X18516325Y-6672312D01*
X18478825Y-6634812D01*
X18441325Y-6672312D01*
X18478825Y-6709812D01*
X18683825Y-9293813D02*
X18721325Y-9256313D01*
X18683825Y-9218813D01*
X18646325Y-9256313D01*
X18683825Y-9293813D01*
X18792762Y-13949638D02*
X18830262Y-13912138D01*
X18792762Y-13874638D01*
X18755262Y-13912138D01*
X18792762Y-13949638D01*
X19095138Y-12039062D02*
X19132638Y-12001562D01*
X19095138Y-11964062D01*
X19057638Y-12001562D01*
X19095138Y-12039062D01*
X19110825Y-8411813D02*
X19148325Y-8374312D01*
X19110825Y-8336812D01*
X19073325Y-8374312D01*
X19110825Y-8411813D01*
X19149950Y-10199166D02*
X19187450Y-10161666D01*
X19149950Y-10124166D01*
X19112450Y-10161666D01*
X19149950Y-10199166D01*
X19259825Y-13652812D02*
X19297325Y-13615312D01*
X19259825Y-13577812D01*
X19222325Y-13615312D01*
X19259825Y-13652812D01*
X19392075Y-12453125D02*
X19429575Y-12415625D01*
X19392075Y-12378125D01*
X19354575Y-12415625D01*
X19392075Y-12453125D01*
X19426825Y-3793812D02*
X19464325Y-3756312D01*
X19426825Y-3718812D01*
X19389325Y-3756312D01*
X19426825Y-3793812D01*
X19447606Y-10615886D02*
X19485106Y-10578386D01*
X19447606Y-10540886D01*
X19410106Y-10578386D01*
X19447606Y-10615886D01*
X19629138Y-12750062D02*
X19666638Y-12712562D01*
X19629138Y-12675062D01*
X19591638Y-12712562D01*
X19629138Y-12750062D01*
X19975825Y-5502813D02*
X20013325Y-5465313D01*
X19975825Y-5427813D01*
X19938325Y-5465313D01*
X19975825Y-5502813D01*
X20411047Y-4328972D02*
X20448547Y-4291472D01*
X20411047Y-4253972D01*
X20373547Y-4291472D01*
X20411047Y-4328972D01*
X20737825Y-4050812D02*
X20775325Y-4013312D01*
X20737825Y-3975812D01*
X20700325Y-4013312D01*
X20737825Y-4050812D01*
X20959138Y-6119062D02*
X20996638Y-6081562D01*
X20959138Y-6044062D01*
X20921638Y-6081562D01*
X20959138Y-6119062D01*
X21216825Y-5824812D02*
X21254325Y-5787312D01*
X21216825Y-5749812D01*
X21179325Y-5787312D01*
X21216825Y-5824812D01*
X21291624Y-4783270D02*
X21329124Y-4745770D01*
X21291624Y-4708270D01*
X21254124Y-4745770D01*
X21291624Y-4783270D01*
X22130513Y-6500000D02*
X22168013Y-6462500D01*
X22130513Y-6425000D01*
X22093013Y-6462500D01*
X22130513Y-6500000D01*
X22534279Y-4133358D02*
X22571779Y-4095858D01*
X22534279Y-4058358D01*
X22496779Y-4095858D01*
X22534279Y-4133358D01*
X22753063Y-6408176D02*
X22790563Y-6370676D01*
X22753063Y-6333176D01*
X22715563Y-6370676D01*
X22753063Y-6408176D01*
X23041855Y-4826842D02*
X23079355Y-4789342D01*
X23041855Y-4751842D01*
X23004355Y-4789342D01*
X23041855Y-4826842D01*
X23049512Y-6749437D02*
X23087012Y-6711937D01*
X23049512Y-6674437D01*
X23012012Y-6711937D01*
X23049512Y-6749437D01*
X23376672Y-5258069D02*
X23414172Y-5220569D01*
X23376672Y-5183069D01*
X23339172Y-5220569D01*
X23376672Y-5258069D01*
X23390137Y-5876062D02*
X23427637Y-5838562D01*
X23390137Y-5801062D01*
X23352637Y-5838562D01*
X23390137Y-5876062D01*
X23727137Y-4431063D02*
X23764637Y-4393563D01*
X23727137Y-4356063D01*
X23689637Y-4393563D01*
X23727137Y-4431063D01*
X23975825Y-5355813D02*
X24013325Y-5318313D01*
X23975825Y-5280813D01*
X23938325Y-5318313D01*
X23975825Y-5355813D01*
X24211137Y-6242062D02*
X24248637Y-6204562D01*
X24211137Y-6167062D01*
X24173637Y-6204562D01*
X24211137Y-6242062D01*
D10*
X9471717Y-9099626D02*
X9571717Y-9199626D01*
X9571717Y-9099626D02*
X9471717Y-9199626D01*
X9571717Y-9149626D02*
G75*
G03*
X9571717Y-9149626I-50000J0D01*
G01*
X9471717Y-9353626D02*
X9571717Y-9453626D01*
X9571717Y-9353626D02*
X9471717Y-9453626D01*
X9571717Y-9403626D02*
G75*
G03*
X9571717Y-9403626I-50000J0D01*
G01*
X9471717Y-9607626D02*
X9571717Y-9707626D01*
X9571717Y-9607626D02*
X9471717Y-9707626D01*
X9571717Y-9657626D02*
G75*
G03*
X9571717Y-9657626I-50000J0D01*
G01*
X9471717Y-9861626D02*
X9571717Y-9961626D01*
X9571717Y-9861626D02*
X9471717Y-9961626D01*
X9571717Y-9911626D02*
G75*
G03*
X9571717Y-9911626I-50000J0D01*
G01*
X9471717Y-10115626D02*
X9571717Y-10215626D01*
X9571717Y-10115626D02*
X9471717Y-10215626D01*
X9571717Y-10165626D02*
G75*
G03*
X9571717Y-10165626I-50000J0D01*
G01*
X9471717Y-10369626D02*
X9571717Y-10469626D01*
X9571717Y-10369626D02*
X9471717Y-10469626D01*
X9571717Y-10419626D02*
G75*
G03*
X9571717Y-10419626I-50000J0D01*
G01*
X9471717Y-10623626D02*
X9571717Y-10723626D01*
X9571717Y-10623626D02*
X9471717Y-10723626D01*
X9571717Y-10673626D02*
G75*
G03*
X9571717Y-10673626I-50000J0D01*
G01*
X9471717Y-10877626D02*
X9571717Y-10977626D01*
X9571717Y-10877626D02*
X9471717Y-10977626D01*
X9571717Y-10927626D02*
G75*
G03*
X9571717Y-10927626I-50000J0D01*
G01*
X13646831Y-9361572D02*
X13746831Y-9461572D01*
X13746831Y-9361572D02*
X13646831Y-9461572D01*
X13746831Y-9411572D02*
G75*
G03*
X13746831Y-9411572I-50000J0D01*
G01*
X14123082Y-10267448D02*
X14223082Y-10367448D01*
X14223082Y-10267448D02*
X14123082Y-10367448D01*
X14223082Y-10317448D02*
G75*
G03*
X14223082Y-10317448I-50000J0D01*
G01*
X14123082Y-10521448D02*
X14223082Y-10621448D01*
X14223082Y-10521448D02*
X14123082Y-10621448D01*
X14223082Y-10571448D02*
G75*
G03*
X14223082Y-10571448I-50000J0D01*
G01*
X14123082Y-10775448D02*
X14223082Y-10875448D01*
X14223082Y-10775448D02*
X14123082Y-10875448D01*
X14223082Y-10825448D02*
G75*
G03*
X14223082Y-10825448I-50000J0D01*
G01*
X14123082Y-11029448D02*
X14223082Y-11129448D01*
X14223082Y-11029448D02*
X14123082Y-11129448D01*
X14223082Y-11079448D02*
G75*
G03*
X14223082Y-11079448I-50000J0D01*
G01*
X16599635Y-10267448D02*
X16699635Y-10367448D01*
X16699635Y-10267448D02*
X16599635Y-10367448D01*
X16699635Y-10317448D02*
G75*
G03*
X16699635Y-10317448I-50000J0D01*
G01*
X16599635Y-10521448D02*
X16699635Y-10621448D01*
X16699635Y-10521448D02*
X16599635Y-10621448D01*
X16699635Y-10571448D02*
G75*
G03*
X16699635Y-10571448I-50000J0D01*
G01*
X16599635Y-10775448D02*
X16699635Y-10875448D01*
X16699635Y-10775448D02*
X16599635Y-10875448D01*
X16699635Y-10825448D02*
G75*
G03*
X16699635Y-10825448I-50000J0D01*
G01*
X16599635Y-11029448D02*
X16699635Y-11129448D01*
X16699635Y-11029448D02*
X16599635Y-11129448D01*
X16699635Y-11079448D02*
G75*
G03*
X16699635Y-11079448I-50000J0D01*
G01*
X17075885Y-9361572D02*
X17175885Y-9461572D01*
X17175885Y-9361572D02*
X17075885Y-9461572D01*
X17175885Y-9411572D02*
G75*
G03*
X17175885Y-9411572I-50000J0D01*
G01*
X21251000Y-9099626D02*
X21351000Y-9199626D01*
X21351000Y-9099626D02*
X21251000Y-9199626D01*
X21351000Y-9149626D02*
G75*
G03*
X21351000Y-9149626I-50000J0D01*
G01*
X21251000Y-9353626D02*
X21351000Y-9453626D01*
X21351000Y-9353626D02*
X21251000Y-9453626D01*
X21351000Y-9403626D02*
G75*
G03*
X21351000Y-9403626I-50000J0D01*
G01*
X21251000Y-9607626D02*
X21351000Y-9707626D01*
X21351000Y-9607626D02*
X21251000Y-9707626D01*
X21351000Y-9657626D02*
G75*
G03*
X21351000Y-9657626I-50000J0D01*
G01*
X21251000Y-9861626D02*
X21351000Y-9961626D01*
X21351000Y-9861626D02*
X21251000Y-9961626D01*
X21351000Y-9911626D02*
G75*
G03*
X21351000Y-9911626I-50000J0D01*
G01*
X21251000Y-10115626D02*
X21351000Y-10215626D01*
X21351000Y-10115626D02*
X21251000Y-10215626D01*
X21351000Y-10165626D02*
G75*
G03*
X21351000Y-10165626I-50000J0D01*
G01*
X21251000Y-10369626D02*
X21351000Y-10469626D01*
X21351000Y-10369626D02*
X21251000Y-10469626D01*
X21351000Y-10419626D02*
G75*
G03*
X21351000Y-10419626I-50000J0D01*
G01*
X21251000Y-10623626D02*
X21351000Y-10723626D01*
X21351000Y-10623626D02*
X21251000Y-10723626D01*
X21351000Y-10673626D02*
G75*
G03*
X21351000Y-10673626I-50000J0D01*
G01*
X21251000Y-10877626D02*
X21351000Y-10977626D01*
X21351000Y-10877626D02*
X21251000Y-10977626D01*
X21351000Y-10927626D02*
G75*
G03*
X21351000Y-10927626I-50000J0D01*
G01*
D17*
X14335375Y-11899501D02*
X14455375Y-12019501D01*
X14455375Y-11899501D02*
X14335375Y-12019501D01*
X14395375Y-11899501D02*
X14395375Y-12019501D01*
X14335375Y-11959501D02*
X14455375Y-11959501D01*
X14335375Y-13423501D02*
X14455375Y-13543501D01*
X14455375Y-13423501D02*
X14335375Y-13543501D01*
X14395375Y-13423501D02*
X14395375Y-13543501D01*
X14335375Y-13483501D02*
X14455375Y-13483501D01*
X16367375Y-11899501D02*
X16487375Y-12019501D01*
X16487375Y-11899501D02*
X16367375Y-12019501D01*
X16427375Y-11899501D02*
X16427375Y-12019501D01*
X16367375Y-11959501D02*
X16487375Y-11959501D01*
X16367375Y-13423501D02*
X16487375Y-13543501D01*
X16487375Y-13423501D02*
X16367375Y-13543501D01*
X16427375Y-13423501D02*
X16427375Y-13543501D01*
X16367375Y-13483501D02*
X16487375Y-13483501D01*
D18*
X15314375Y-5524688D02*
X15364375Y-5574688D01*
X15364375Y-5524688D02*
X15314375Y-5574688D01*
X15357053Y-5567365D02*
X15357053Y-5532010D01*
X15321697Y-5532010D01*
X15321697Y-5567365D01*
X15357053Y-5567365D01*
X15314375Y-5803687D02*
X15364375Y-5853687D01*
X15364375Y-5803687D02*
X15314375Y-5853687D01*
X15357053Y-5846365D02*
X15357053Y-5811010D01*
X15321697Y-5811010D01*
X15321697Y-5846365D01*
X15357053Y-5846365D01*
X15314375Y-6082687D02*
X15364375Y-6132687D01*
X15364375Y-6082687D02*
X15314375Y-6132687D01*
X15357053Y-6125365D02*
X15357053Y-6090010D01*
X15321697Y-6090010D01*
X15321697Y-6125365D01*
X15357053Y-6125365D01*
X15314375Y-10024688D02*
X15364375Y-10074688D01*
X15364375Y-10024688D02*
X15314375Y-10074688D01*
X15357053Y-10067365D02*
X15357053Y-10032010D01*
X15321697Y-10032010D01*
X15321697Y-10067365D01*
X15357053Y-10067365D01*
X15314375Y-10303688D02*
X15364375Y-10353688D01*
X15364375Y-10303688D02*
X15314375Y-10353688D01*
X15357053Y-10346365D02*
X15357053Y-10311010D01*
X15321697Y-10311010D01*
X15321697Y-10346365D01*
X15357053Y-10346365D01*
X15314375Y-10582688D02*
X15364375Y-10632688D01*
X15364375Y-10582688D02*
X15314375Y-10632688D01*
X15357053Y-10625365D02*
X15357053Y-10590010D01*
X15321697Y-10590010D01*
X15321697Y-10625365D01*
X15357053Y-10625365D01*
X15314375Y-14524687D02*
X15364375Y-14574687D01*
X15364375Y-14524687D02*
X15314375Y-14574687D01*
X15357053Y-14567365D02*
X15357053Y-14532010D01*
X15321697Y-14532010D01*
X15321697Y-14567365D01*
X15357053Y-14567365D01*
X15314375Y-14803687D02*
X15364375Y-14853687D01*
X15364375Y-14803687D02*
X15314375Y-14853687D01*
X15357053Y-14846365D02*
X15357053Y-14811010D01*
X15321697Y-14811010D01*
X15321697Y-14846365D01*
X15357053Y-14846365D01*
X15314375Y-15082687D02*
X15364375Y-15132687D01*
X15364375Y-15082687D02*
X15314375Y-15132687D01*
X15357053Y-15125365D02*
X15357053Y-15090010D01*
X15321697Y-15090010D01*
X15321697Y-15125365D01*
X15357053Y-15125365D01*
D19*
X6381698Y-6427905D02*
X6556698Y-6602905D01*
X6556698Y-6427905D02*
X6381698Y-6602905D01*
X6469198Y-6602905D02*
X6556698Y-6515405D01*
X6469198Y-6427905D01*
X6381698Y-6515405D01*
X6469198Y-6602905D01*
X6938666Y-4606145D02*
X7113666Y-4781145D01*
X7113666Y-4606145D02*
X6938666Y-4781145D01*
X7026166Y-4781145D02*
X7113666Y-4693645D01*
X7026166Y-4606145D01*
X6938666Y-4693645D01*
X7026166Y-4781145D01*
X7353304Y-6724955D02*
X7528304Y-6899955D01*
X7528304Y-6724955D02*
X7353304Y-6899955D01*
X7440804Y-6899955D02*
X7528304Y-6812455D01*
X7440804Y-6724955D01*
X7353304Y-6812455D01*
X7440804Y-6899955D01*
X7910272Y-4903194D02*
X8085272Y-5078194D01*
X8085272Y-4903194D02*
X7910272Y-5078194D01*
X7997772Y-5078194D02*
X8085272Y-4990694D01*
X7997772Y-4903194D01*
X7910272Y-4990694D01*
X7997772Y-5078194D01*
X9485651Y-6048850D02*
X9660651Y-6223850D01*
X9660651Y-6048850D02*
X9485651Y-6223850D01*
X9573151Y-6223850D02*
X9660651Y-6136350D01*
X9573151Y-6048850D01*
X9485651Y-6136350D01*
X9573151Y-6223850D01*
X10042619Y-4227090D02*
X10217619Y-4402090D01*
X10217619Y-4227090D02*
X10042619Y-4402090D01*
X10130119Y-4402090D02*
X10217619Y-4314590D01*
X10130119Y-4227090D01*
X10042619Y-4314590D01*
X10130119Y-4402090D01*
X10457257Y-6345900D02*
X10632257Y-6520900D01*
X10632257Y-6345900D02*
X10457257Y-6520900D01*
X10544757Y-6520900D02*
X10632257Y-6433400D01*
X10544757Y-6345900D01*
X10457257Y-6433400D01*
X10544757Y-6520900D01*
X11014225Y-4524139D02*
X11189225Y-4699139D01*
X11189225Y-4524139D02*
X11014225Y-4699139D01*
X11101725Y-4699139D02*
X11189225Y-4611639D01*
X11101725Y-4524139D01*
X11014225Y-4611639D01*
X11101725Y-4699139D01*
X11245389Y-13044868D02*
X11420389Y-13219868D01*
X11420389Y-13044868D02*
X11245389Y-13219868D01*
X11332889Y-13219868D02*
X11420389Y-13132368D01*
X11332889Y-13044868D01*
X11245389Y-13132368D01*
X11332889Y-13219868D01*
X11661324Y-8706063D02*
X11836324Y-8881063D01*
X11836324Y-8706063D02*
X11661324Y-8881063D01*
X11748824Y-8881063D02*
X11836324Y-8793563D01*
X11748824Y-8706063D01*
X11661324Y-8793563D01*
X11748824Y-8881063D01*
X12097478Y-13598221D02*
X12272478Y-13773221D01*
X12272478Y-13598221D02*
X12097478Y-13773221D01*
X12184978Y-13773221D02*
X12272478Y-13685721D01*
X12184978Y-13598221D01*
X12097478Y-13685721D01*
X12184978Y-13773221D01*
X12218292Y-6884302D02*
X12393292Y-7059302D01*
X12393292Y-6884302D02*
X12218292Y-7059302D01*
X12305792Y-7059302D02*
X12393292Y-6971802D01*
X12305792Y-6884302D01*
X12218292Y-6971802D01*
X12305792Y-7059302D01*
X12632930Y-9003113D02*
X12807930Y-9178113D01*
X12807930Y-9003113D02*
X12632930Y-9178113D01*
X12720430Y-9178113D02*
X12807930Y-9090613D01*
X12720430Y-9003113D01*
X12632930Y-9090613D01*
X12720430Y-9178113D01*
X12843056Y-14082405D02*
X13018056Y-14257405D01*
X13018056Y-14082405D02*
X12843056Y-14257405D01*
X12930556Y-14257405D02*
X13018056Y-14169905D01*
X12930556Y-14082405D01*
X12843056Y-14169905D01*
X12930556Y-14257405D01*
X13189898Y-7181352D02*
X13364898Y-7356352D01*
X13364898Y-7181352D02*
X13189898Y-7356352D01*
X13277398Y-7356352D02*
X13364898Y-7268852D01*
X13277398Y-7181352D01*
X13189898Y-7268852D01*
X13277398Y-7356352D01*
X13695145Y-14635759D02*
X13870145Y-14810759D01*
X13870145Y-14635759D02*
X13695145Y-14810759D01*
X13782645Y-14810759D02*
X13870145Y-14723259D01*
X13782645Y-14635759D01*
X13695145Y-14723259D01*
X13782645Y-14810759D01*
X16916761Y-14580616D02*
X17091761Y-14755616D01*
X17091761Y-14580616D02*
X16916761Y-14755616D01*
X17004261Y-14755616D02*
X17091761Y-14668116D01*
X17004261Y-14580616D01*
X16916761Y-14668116D01*
X17004261Y-14755616D01*
X17457819Y-7181352D02*
X17632819Y-7356352D01*
X17632819Y-7181352D02*
X17457819Y-7356352D01*
X17545319Y-7356352D02*
X17632819Y-7268852D01*
X17545319Y-7181352D01*
X17457819Y-7268852D01*
X17545319Y-7356352D01*
X17768850Y-14027263D02*
X17943850Y-14202263D01*
X17943850Y-14027263D02*
X17768850Y-14202263D01*
X17856350Y-14202263D02*
X17943850Y-14114763D01*
X17856350Y-14027263D01*
X17768850Y-14114763D01*
X17856350Y-14202263D01*
X18014787Y-9003113D02*
X18189787Y-9178113D01*
X18189787Y-9003113D02*
X18014787Y-9178113D01*
X18102287Y-9178113D02*
X18189787Y-9090613D01*
X18102287Y-9003113D01*
X18014787Y-9090613D01*
X18102287Y-9178113D01*
X18429425Y-6884302D02*
X18604425Y-7059302D01*
X18604425Y-6884302D02*
X18429425Y-7059302D01*
X18516925Y-7059302D02*
X18604425Y-6971802D01*
X18516925Y-6884302D01*
X18429425Y-6971802D01*
X18516925Y-7059302D01*
X18514429Y-13543079D02*
X18689429Y-13718079D01*
X18689429Y-13543079D02*
X18514429Y-13718079D01*
X18601929Y-13718079D02*
X18689429Y-13630579D01*
X18601929Y-13543079D01*
X18514429Y-13630579D01*
X18601929Y-13718079D01*
X18986392Y-8706063D02*
X19161392Y-8881063D01*
X19161392Y-8706063D02*
X18986392Y-8881063D01*
X19073892Y-8881063D02*
X19161392Y-8793563D01*
X19073892Y-8706063D01*
X18986392Y-8793563D01*
X19073892Y-8881063D01*
X19366518Y-12989726D02*
X19541518Y-13164726D01*
X19541518Y-12989726D02*
X19366518Y-13164726D01*
X19454018Y-13164726D02*
X19541518Y-13077226D01*
X19454018Y-12989726D01*
X19366518Y-13077226D01*
X19454018Y-13164726D01*
X19633492Y-4524139D02*
X19808492Y-4699139D01*
X19808492Y-4524139D02*
X19633492Y-4699139D01*
X19720992Y-4699139D02*
X19808492Y-4611639D01*
X19720992Y-4524139D01*
X19633492Y-4611639D01*
X19720992Y-4699139D01*
X20190460Y-6345900D02*
X20365460Y-6520900D01*
X20365460Y-6345900D02*
X20190460Y-6520900D01*
X20277960Y-6520900D02*
X20365460Y-6433400D01*
X20277960Y-6345900D01*
X20190460Y-6433400D01*
X20277960Y-6520900D01*
X20605097Y-4227090D02*
X20780097Y-4402090D01*
X20780097Y-4227090D02*
X20605097Y-4402090D01*
X20692597Y-4402090D02*
X20780097Y-4314590D01*
X20692597Y-4227090D01*
X20605097Y-4314590D01*
X20692597Y-4402090D01*
X21162065Y-6048850D02*
X21337065Y-6223850D01*
X21337065Y-6048850D02*
X21162065Y-6223850D01*
X21249565Y-6223850D02*
X21337065Y-6136350D01*
X21249565Y-6048850D01*
X21162065Y-6136350D01*
X21249565Y-6223850D01*
X22737444Y-4903194D02*
X22912444Y-5078194D01*
X22912444Y-4903194D02*
X22737444Y-5078194D01*
X22824944Y-5078194D02*
X22912444Y-4990694D01*
X22824944Y-4903194D01*
X22737444Y-4990694D01*
X22824944Y-5078194D01*
X23294413Y-6724955D02*
X23469413Y-6899955D01*
X23469413Y-6724955D02*
X23294413Y-6899955D01*
X23381913Y-6899955D02*
X23469413Y-6812455D01*
X23381913Y-6724955D01*
X23294413Y-6812455D01*
X23381913Y-6899955D01*
X23709050Y-4606145D02*
X23884050Y-4781145D01*
X23884050Y-4606145D02*
X23709050Y-4781145D01*
X23796550Y-4781145D02*
X23884050Y-4693645D01*
X23796550Y-4606145D01*
X23709050Y-4693645D01*
X23796550Y-4781145D01*
X24266018Y-6427905D02*
X24441018Y-6602905D01*
X24441018Y-6427905D02*
X24266018Y-6602905D01*
X24353518Y-6602905D02*
X24441018Y-6515405D01*
X24353518Y-6427905D01*
X24266018Y-6515405D01*
X24353518Y-6602905D01*
D20*
X6139375Y-3468687D02*
X6139375Y-3688687D01*
X6029375Y-3578687D02*
X6249375Y-3578687D01*
X6249375Y-3578687D02*
G75*
G03*
X6249375Y-3578687I-110000J0D01*
G01*
X6139375Y-15268687D02*
X6139375Y-15488687D01*
X6029375Y-15378687D02*
X6249375Y-15378687D01*
X6249375Y-15378687D02*
G75*
G03*
X6249375Y-15378687I-110000J0D01*
G01*
X7739375Y-10868688D02*
X7739375Y-11088688D01*
X7629375Y-10978688D02*
X7849375Y-10978688D01*
X7849375Y-10978688D02*
G75*
G03*
X7849375Y-10978688I-110000J0D01*
G01*
X11289375Y-6368687D02*
X11289375Y-6588687D01*
X11179375Y-6478687D02*
X11399375Y-6478687D01*
X11399375Y-6478687D02*
G75*
G03*
X11399375Y-6478687I-110000J0D01*
G01*
X14839375Y-3468687D02*
X14839375Y-3688687D01*
X14729375Y-3578687D02*
X14949375Y-3578687D01*
X14949375Y-3578687D02*
G75*
G03*
X14949375Y-3578687I-110000J0D01*
G01*
X14839375Y-15268687D02*
X14839375Y-15488687D01*
X14729375Y-15378687D02*
X14949375Y-15378687D01*
X14949375Y-15378687D02*
G75*
G03*
X14949375Y-15378687I-110000J0D01*
G01*
X15839375Y-3468687D02*
X15839375Y-3688687D01*
X15729375Y-3578687D02*
X15949375Y-3578687D01*
X15949375Y-3578687D02*
G75*
G03*
X15949375Y-3578687I-110000J0D01*
G01*
X15839375Y-15268687D02*
X15839375Y-15488687D01*
X15729375Y-15378687D02*
X15949375Y-15378687D01*
X15949375Y-15378687D02*
G75*
G03*
X15949375Y-15378687I-110000J0D01*
G01*
X19639375Y-7168687D02*
X19639375Y-7388687D01*
X19529375Y-7278687D02*
X19749375Y-7278687D01*
X19749375Y-7278687D02*
G75*
G03*
X19749375Y-7278687I-110000J0D01*
G01*
X22939375Y-10668688D02*
X22939375Y-10888688D01*
X22829375Y-10778688D02*
X23049375Y-10778688D01*
X23049375Y-10778688D02*
G75*
G03*
X23049375Y-10778688I-110000J0D01*
G01*
X24739375Y-3468687D02*
X24739375Y-3688687D01*
X24629375Y-3578687D02*
X24849375Y-3578687D01*
X24849375Y-3578687D02*
G75*
G03*
X24849375Y-3578687I-110000J0D01*
G01*
X24739375Y-15268687D02*
X24739375Y-15488687D01*
X24629375Y-15378687D02*
X24849375Y-15378687D01*
X24849375Y-15378687D02*
G75*
G03*
X24849375Y-15378687I-110000J0D01*
G01*
D11*
X5991994Y-16094164D02*
X5991994Y-15894164D01*
X6039613Y-15894164D01*
X6068184Y-15903687D01*
X6087232Y-15922735D01*
X6096756Y-15941783D01*
X6106280Y-15979878D01*
X6106280Y-16008449D01*
X6096756Y-16046545D01*
X6087232Y-16065592D01*
X6068184Y-16084640D01*
X6039613Y-16094164D01*
X5991994Y-16094164D01*
X6191994Y-16094164D02*
X6191994Y-15960830D01*
X6191994Y-15998925D02*
X6201518Y-15979878D01*
X6211042Y-15970354D01*
X6230089Y-15960830D01*
X6249137Y-15960830D01*
X6315803Y-16094164D02*
X6315803Y-15960830D01*
X6315803Y-15894164D02*
X6306280Y-15903687D01*
X6315803Y-15913211D01*
X6325327Y-15903687D01*
X6315803Y-15894164D01*
X6315803Y-15913211D01*
X6439613Y-16094164D02*
X6420565Y-16084640D01*
X6411042Y-16065592D01*
X6411042Y-15894164D01*
X6544375Y-16094164D02*
X6525327Y-16084640D01*
X6515803Y-16065592D01*
X6515803Y-15894164D01*
X6772946Y-16094164D02*
X6772946Y-15894164D01*
X6839613Y-16037021D01*
X6906280Y-15894164D01*
X6906280Y-16094164D01*
X7087232Y-16094164D02*
X7087232Y-15989402D01*
X7077708Y-15970354D01*
X7058661Y-15960830D01*
X7020565Y-15960830D01*
X7001518Y-15970354D01*
X7087232Y-16084640D02*
X7068184Y-16094164D01*
X7020565Y-16094164D01*
X7001518Y-16084640D01*
X6991994Y-16065592D01*
X6991994Y-16046545D01*
X7001518Y-16027497D01*
X7020565Y-16017973D01*
X7068184Y-16017973D01*
X7087232Y-16008449D01*
X7182470Y-15960830D02*
X7182470Y-16160830D01*
X7182470Y-15970354D02*
X7201518Y-15960830D01*
X7239613Y-15960830D01*
X7258661Y-15970354D01*
X7268184Y-15979878D01*
X7277708Y-15998925D01*
X7277708Y-16056068D01*
X7268184Y-16075116D01*
X7258661Y-16084640D01*
X7239613Y-16094164D01*
X7201518Y-16094164D01*
X7182470Y-16084640D01*
X7363423Y-16075116D02*
X7372946Y-16084640D01*
X7363423Y-16094164D01*
X7353899Y-16084640D01*
X7363423Y-16075116D01*
X7363423Y-16094164D01*
X7363423Y-15970354D02*
X7372946Y-15979878D01*
X7363423Y-15989402D01*
X7353899Y-15979878D01*
X7363423Y-15970354D01*
X7363423Y-15989402D01*
D12*
X5704375Y-16408687D02*
X5734375Y-16438687D01*
X5734375Y-16408687D02*
X5704375Y-16438687D01*
D11*
X6030089Y-16314164D02*
X6049137Y-16314164D01*
X6068184Y-16323687D01*
X6077708Y-16333211D01*
X6087232Y-16352259D01*
X6096756Y-16390354D01*
X6096756Y-16437973D01*
X6087232Y-16476068D01*
X6077708Y-16495116D01*
X6068184Y-16504640D01*
X6049137Y-16514164D01*
X6030089Y-16514164D01*
X6011042Y-16504640D01*
X6001518Y-16495116D01*
X5991994Y-16476068D01*
X5982470Y-16437973D01*
X5982470Y-16390354D01*
X5991994Y-16352259D01*
X6001518Y-16333211D01*
X6011042Y-16323687D01*
X6030089Y-16314164D01*
X6182470Y-16495116D02*
X6191994Y-16504640D01*
X6182470Y-16514164D01*
X6172946Y-16504640D01*
X6182470Y-16495116D01*
X6182470Y-16514164D01*
X6258661Y-16314164D02*
X6382470Y-16314164D01*
X6315803Y-16390354D01*
X6344375Y-16390354D01*
X6363423Y-16399878D01*
X6372946Y-16409402D01*
X6382470Y-16428449D01*
X6382470Y-16476068D01*
X6372946Y-16495116D01*
X6363423Y-16504640D01*
X6344375Y-16514164D01*
X6287232Y-16514164D01*
X6268184Y-16504640D01*
X6258661Y-16495116D01*
X6506280Y-16314164D02*
X6525327Y-16314164D01*
X6544375Y-16323687D01*
X6553899Y-16333211D01*
X6563423Y-16352259D01*
X6572946Y-16390354D01*
X6572946Y-16437973D01*
X6563423Y-16476068D01*
X6553899Y-16495116D01*
X6544375Y-16504640D01*
X6525327Y-16514164D01*
X6506280Y-16514164D01*
X6487232Y-16504640D01*
X6477708Y-16495116D01*
X6468184Y-16476068D01*
X6458661Y-16437973D01*
X6458661Y-16390354D01*
X6468184Y-16352259D01*
X6477708Y-16333211D01*
X6487232Y-16323687D01*
X6506280Y-16314164D01*
X6696756Y-16314164D02*
X6715803Y-16314164D01*
X6734851Y-16323687D01*
X6744375Y-16333211D01*
X6753899Y-16352259D01*
X6763423Y-16390354D01*
X6763423Y-16437973D01*
X6753899Y-16476068D01*
X6744375Y-16495116D01*
X6734851Y-16504640D01*
X6715803Y-16514164D01*
X6696756Y-16514164D01*
X6677708Y-16504640D01*
X6668184Y-16495116D01*
X6658661Y-16476068D01*
X6649137Y-16437973D01*
X6649137Y-16390354D01*
X6658661Y-16352259D01*
X6668184Y-16333211D01*
X6677708Y-16323687D01*
X6696756Y-16314164D01*
X6849137Y-16514164D02*
X6849137Y-16380830D01*
X6849137Y-16399878D02*
X6858661Y-16390354D01*
X6877708Y-16380830D01*
X6906280Y-16380830D01*
X6925327Y-16390354D01*
X6934851Y-16409402D01*
X6934851Y-16514164D01*
X6934851Y-16409402D02*
X6944375Y-16390354D01*
X6963423Y-16380830D01*
X6991994Y-16380830D01*
X7011042Y-16390354D01*
X7020565Y-16409402D01*
X7020565Y-16514164D01*
X7115803Y-16514164D02*
X7115803Y-16380830D01*
X7115803Y-16399878D02*
X7125327Y-16390354D01*
X7144375Y-16380830D01*
X7172946Y-16380830D01*
X7191994Y-16390354D01*
X7201518Y-16409402D01*
X7201518Y-16514164D01*
X7201518Y-16409402D02*
X7211042Y-16390354D01*
X7230089Y-16380830D01*
X7258661Y-16380830D01*
X7277708Y-16390354D01*
X7287232Y-16409402D01*
X7287232Y-16514164D01*
X7677708Y-16304640D02*
X7506280Y-16561783D01*
X7934851Y-16314164D02*
X7953899Y-16314164D01*
X7972946Y-16323687D01*
X7982470Y-16333211D01*
X7991994Y-16352259D01*
X8001518Y-16390354D01*
X8001518Y-16437973D01*
X7991994Y-16476068D01*
X7982470Y-16495116D01*
X7972946Y-16504640D01*
X7953899Y-16514164D01*
X7934851Y-16514164D01*
X7915803Y-16504640D01*
X7906280Y-16495116D01*
X7896756Y-16476068D01*
X7887232Y-16437973D01*
X7887232Y-16390354D01*
X7896756Y-16352259D01*
X7906280Y-16333211D01*
X7915803Y-16323687D01*
X7934851Y-16314164D01*
X8087232Y-16495116D02*
X8096756Y-16504640D01*
X8087232Y-16514164D01*
X8077708Y-16504640D01*
X8087232Y-16495116D01*
X8087232Y-16514164D01*
X8220565Y-16314164D02*
X8239613Y-16314164D01*
X8258661Y-16323687D01*
X8268184Y-16333211D01*
X8277708Y-16352259D01*
X8287232Y-16390354D01*
X8287232Y-16437973D01*
X8277708Y-16476068D01*
X8268184Y-16495116D01*
X8258661Y-16504640D01*
X8239613Y-16514164D01*
X8220565Y-16514164D01*
X8201518Y-16504640D01*
X8191994Y-16495116D01*
X8182470Y-16476068D01*
X8172946Y-16437973D01*
X8172946Y-16390354D01*
X8182470Y-16352259D01*
X8191994Y-16333211D01*
X8201518Y-16323687D01*
X8220565Y-16314164D01*
X8477708Y-16514164D02*
X8363423Y-16514164D01*
X8420565Y-16514164D02*
X8420565Y-16314164D01*
X8401518Y-16342735D01*
X8382470Y-16361783D01*
X8363423Y-16371306D01*
X8668185Y-16514164D02*
X8553899Y-16514164D01*
X8611042Y-16514164D02*
X8611042Y-16314164D01*
X8591994Y-16342735D01*
X8572946Y-16361783D01*
X8553899Y-16371306D01*
X8782470Y-16399878D02*
X8763423Y-16390354D01*
X8753899Y-16380830D01*
X8744375Y-16361783D01*
X8744375Y-16352259D01*
X8753899Y-16333211D01*
X8763423Y-16323687D01*
X8782470Y-16314164D01*
X8820565Y-16314164D01*
X8839613Y-16323687D01*
X8849137Y-16333211D01*
X8858661Y-16352259D01*
X8858661Y-16361783D01*
X8849137Y-16380830D01*
X8839613Y-16390354D01*
X8820565Y-16399878D01*
X8782470Y-16399878D01*
X8763423Y-16409402D01*
X8753899Y-16418925D01*
X8744375Y-16437973D01*
X8744375Y-16476068D01*
X8753899Y-16495116D01*
X8763423Y-16504640D01*
X8782470Y-16514164D01*
X8820565Y-16514164D01*
X8839613Y-16504640D01*
X8849137Y-16495116D01*
X8858661Y-16476068D01*
X8858661Y-16437973D01*
X8849137Y-16418925D01*
X8839613Y-16409402D01*
X8820565Y-16399878D01*
X8934851Y-16314164D02*
X8934851Y-16352259D01*
X9011042Y-16314164D02*
X9011042Y-16352259D01*
X9306280Y-16590354D02*
X9296756Y-16580830D01*
X9277708Y-16552259D01*
X9268185Y-16533211D01*
X9258661Y-16504640D01*
X9249137Y-16457021D01*
X9249137Y-16418925D01*
X9258661Y-16371306D01*
X9268185Y-16342735D01*
X9277708Y-16323687D01*
X9296756Y-16295116D01*
X9306280Y-16285592D01*
X9477708Y-16314164D02*
X9382470Y-16314164D01*
X9372946Y-16409402D01*
X9382470Y-16399878D01*
X9401518Y-16390354D01*
X9449137Y-16390354D01*
X9468185Y-16399878D01*
X9477708Y-16409402D01*
X9487232Y-16428449D01*
X9487232Y-16476068D01*
X9477708Y-16495116D01*
X9468185Y-16504640D01*
X9449137Y-16514164D01*
X9401518Y-16514164D01*
X9382470Y-16504640D01*
X9372946Y-16495116D01*
X9725327Y-16514164D02*
X9725327Y-16314164D01*
X9811042Y-16514164D02*
X9811042Y-16409402D01*
X9801518Y-16390354D01*
X9782470Y-16380830D01*
X9753899Y-16380830D01*
X9734851Y-16390354D01*
X9725327Y-16399878D01*
X9934851Y-16514164D02*
X9915804Y-16504640D01*
X9906280Y-16495116D01*
X9896756Y-16476068D01*
X9896756Y-16418925D01*
X9906280Y-16399878D01*
X9915804Y-16390354D01*
X9934851Y-16380830D01*
X9963423Y-16380830D01*
X9982470Y-16390354D01*
X9991994Y-16399878D01*
X10001518Y-16418925D01*
X10001518Y-16476068D01*
X9991994Y-16495116D01*
X9982470Y-16504640D01*
X9963423Y-16514164D01*
X9934851Y-16514164D01*
X10115804Y-16514164D02*
X10096756Y-16504640D01*
X10087232Y-16485592D01*
X10087232Y-16314164D01*
X10268185Y-16504640D02*
X10249137Y-16514164D01*
X10211042Y-16514164D01*
X10191994Y-16504640D01*
X10182470Y-16485592D01*
X10182470Y-16409402D01*
X10191994Y-16390354D01*
X10211042Y-16380830D01*
X10249137Y-16380830D01*
X10268185Y-16390354D01*
X10277708Y-16409402D01*
X10277708Y-16428449D01*
X10182470Y-16447497D01*
X10353899Y-16504640D02*
X10372946Y-16514164D01*
X10411042Y-16514164D01*
X10430089Y-16504640D01*
X10439613Y-16485592D01*
X10439613Y-16476068D01*
X10430089Y-16457021D01*
X10411042Y-16447497D01*
X10382470Y-16447497D01*
X10363423Y-16437973D01*
X10353899Y-16418925D01*
X10353899Y-16409402D01*
X10363423Y-16390354D01*
X10382470Y-16380830D01*
X10411042Y-16380830D01*
X10430089Y-16390354D01*
X10506280Y-16590354D02*
X10515804Y-16580830D01*
X10534851Y-16552259D01*
X10544375Y-16533211D01*
X10553899Y-16504640D01*
X10563423Y-16457021D01*
X10563423Y-16418925D01*
X10553899Y-16371306D01*
X10544375Y-16342735D01*
X10534851Y-16323687D01*
X10515804Y-16295116D01*
X10506280Y-16285592D01*
D13*
X5734375Y-16687687D02*
G75*
G03*
X5734375Y-16687687I-20000J0D01*
G01*
D11*
X6030089Y-16578164D02*
X6049137Y-16578164D01*
X6068184Y-16587687D01*
X6077708Y-16597211D01*
X6087232Y-16616259D01*
X6096756Y-16654354D01*
X6096756Y-16701973D01*
X6087232Y-16740068D01*
X6077708Y-16759116D01*
X6068184Y-16768640D01*
X6049137Y-16778164D01*
X6030089Y-16778164D01*
X6011042Y-16768640D01*
X6001518Y-16759116D01*
X5991994Y-16740068D01*
X5982470Y-16701973D01*
X5982470Y-16654354D01*
X5991994Y-16616259D01*
X6001518Y-16597211D01*
X6011042Y-16587687D01*
X6030089Y-16578164D01*
X6182470Y-16759116D02*
X6191994Y-16768640D01*
X6182470Y-16778164D01*
X6172946Y-16768640D01*
X6182470Y-16759116D01*
X6182470Y-16778164D01*
X6363423Y-16644830D02*
X6363423Y-16778164D01*
X6315803Y-16568640D02*
X6268184Y-16711497D01*
X6391994Y-16711497D01*
X6506280Y-16578164D02*
X6525327Y-16578164D01*
X6544375Y-16587687D01*
X6553899Y-16597211D01*
X6563423Y-16616259D01*
X6572946Y-16654354D01*
X6572946Y-16701973D01*
X6563423Y-16740068D01*
X6553899Y-16759116D01*
X6544375Y-16768640D01*
X6525327Y-16778164D01*
X6506280Y-16778164D01*
X6487232Y-16768640D01*
X6477708Y-16759116D01*
X6468184Y-16740068D01*
X6458661Y-16701973D01*
X6458661Y-16654354D01*
X6468184Y-16616259D01*
X6477708Y-16597211D01*
X6487232Y-16587687D01*
X6506280Y-16578164D01*
X6696756Y-16578164D02*
X6715803Y-16578164D01*
X6734851Y-16587687D01*
X6744375Y-16597211D01*
X6753899Y-16616259D01*
X6763423Y-16654354D01*
X6763423Y-16701973D01*
X6753899Y-16740068D01*
X6744375Y-16759116D01*
X6734851Y-16768640D01*
X6715803Y-16778164D01*
X6696756Y-16778164D01*
X6677708Y-16768640D01*
X6668184Y-16759116D01*
X6658661Y-16740068D01*
X6649137Y-16701973D01*
X6649137Y-16654354D01*
X6658661Y-16616259D01*
X6668184Y-16597211D01*
X6677708Y-16587687D01*
X6696756Y-16578164D01*
X6849137Y-16778164D02*
X6849137Y-16644830D01*
X6849137Y-16663878D02*
X6858661Y-16654354D01*
X6877708Y-16644830D01*
X6906280Y-16644830D01*
X6925327Y-16654354D01*
X6934851Y-16673402D01*
X6934851Y-16778164D01*
X6934851Y-16673402D02*
X6944375Y-16654354D01*
X6963423Y-16644830D01*
X6991994Y-16644830D01*
X7011042Y-16654354D01*
X7020565Y-16673402D01*
X7020565Y-16778164D01*
X7115803Y-16778164D02*
X7115803Y-16644830D01*
X7115803Y-16663878D02*
X7125327Y-16654354D01*
X7144375Y-16644830D01*
X7172946Y-16644830D01*
X7191994Y-16654354D01*
X7201518Y-16673402D01*
X7201518Y-16778164D01*
X7201518Y-16673402D02*
X7211042Y-16654354D01*
X7230089Y-16644830D01*
X7258661Y-16644830D01*
X7277708Y-16654354D01*
X7287232Y-16673402D01*
X7287232Y-16778164D01*
X7677708Y-16568640D02*
X7506280Y-16825783D01*
X7934851Y-16578164D02*
X7953899Y-16578164D01*
X7972946Y-16587687D01*
X7982470Y-16597211D01*
X7991994Y-16616259D01*
X8001518Y-16654354D01*
X8001518Y-16701973D01*
X7991994Y-16740068D01*
X7982470Y-16759116D01*
X7972946Y-16768640D01*
X7953899Y-16778164D01*
X7934851Y-16778164D01*
X7915803Y-16768640D01*
X7906280Y-16759116D01*
X7896756Y-16740068D01*
X7887232Y-16701973D01*
X7887232Y-16654354D01*
X7896756Y-16616259D01*
X7906280Y-16597211D01*
X7915803Y-16587687D01*
X7934851Y-16578164D01*
X8087232Y-16759116D02*
X8096756Y-16768640D01*
X8087232Y-16778164D01*
X8077708Y-16768640D01*
X8087232Y-16759116D01*
X8087232Y-16778164D01*
X8220565Y-16578164D02*
X8239613Y-16578164D01*
X8258661Y-16587687D01*
X8268184Y-16597211D01*
X8277708Y-16616259D01*
X8287232Y-16654354D01*
X8287232Y-16701973D01*
X8277708Y-16740068D01*
X8268184Y-16759116D01*
X8258661Y-16768640D01*
X8239613Y-16778164D01*
X8220565Y-16778164D01*
X8201518Y-16768640D01*
X8191994Y-16759116D01*
X8182470Y-16740068D01*
X8172946Y-16701973D01*
X8172946Y-16654354D01*
X8182470Y-16616259D01*
X8191994Y-16597211D01*
X8201518Y-16587687D01*
X8220565Y-16578164D01*
X8477708Y-16778164D02*
X8363423Y-16778164D01*
X8420565Y-16778164D02*
X8420565Y-16578164D01*
X8401518Y-16606735D01*
X8382470Y-16625783D01*
X8363423Y-16635306D01*
X8658661Y-16578164D02*
X8563423Y-16578164D01*
X8553899Y-16673402D01*
X8563423Y-16663878D01*
X8582470Y-16654354D01*
X8630089Y-16654354D01*
X8649137Y-16663878D01*
X8658661Y-16673402D01*
X8668185Y-16692449D01*
X8668185Y-16740068D01*
X8658661Y-16759116D01*
X8649137Y-16768640D01*
X8630089Y-16778164D01*
X8582470Y-16778164D01*
X8563423Y-16768640D01*
X8553899Y-16759116D01*
X8734851Y-16578164D02*
X8868185Y-16578164D01*
X8782470Y-16778164D01*
X8934851Y-16578164D02*
X8934851Y-16616259D01*
X9011042Y-16578164D02*
X9011042Y-16616259D01*
X9306280Y-16854354D02*
X9296756Y-16844830D01*
X9277708Y-16816259D01*
X9268185Y-16797211D01*
X9258661Y-16768640D01*
X9249137Y-16721021D01*
X9249137Y-16682925D01*
X9258661Y-16635306D01*
X9268185Y-16606735D01*
X9277708Y-16587687D01*
X9296756Y-16559116D01*
X9306280Y-16549592D01*
X9487232Y-16778164D02*
X9372946Y-16778164D01*
X9430089Y-16778164D02*
X9430089Y-16578164D01*
X9411042Y-16606735D01*
X9391994Y-16625783D01*
X9372946Y-16635306D01*
X9611042Y-16578164D02*
X9630089Y-16578164D01*
X9649137Y-16587687D01*
X9658661Y-16597211D01*
X9668185Y-16616259D01*
X9677708Y-16654354D01*
X9677708Y-16701973D01*
X9668185Y-16740068D01*
X9658661Y-16759116D01*
X9649137Y-16768640D01*
X9630089Y-16778164D01*
X9611042Y-16778164D01*
X9591994Y-16768640D01*
X9582470Y-16759116D01*
X9572946Y-16740068D01*
X9563423Y-16701973D01*
X9563423Y-16654354D01*
X9572946Y-16616259D01*
X9582470Y-16597211D01*
X9591994Y-16587687D01*
X9611042Y-16578164D01*
X9915804Y-16778164D02*
X9915804Y-16578164D01*
X10001518Y-16778164D02*
X10001518Y-16673402D01*
X9991994Y-16654354D01*
X9972946Y-16644830D01*
X9944375Y-16644830D01*
X9925327Y-16654354D01*
X9915804Y-16663878D01*
X10125327Y-16778164D02*
X10106280Y-16768640D01*
X10096756Y-16759116D01*
X10087232Y-16740068D01*
X10087232Y-16682925D01*
X10096756Y-16663878D01*
X10106280Y-16654354D01*
X10125327Y-16644830D01*
X10153899Y-16644830D01*
X10172946Y-16654354D01*
X10182470Y-16663878D01*
X10191994Y-16682925D01*
X10191994Y-16740068D01*
X10182470Y-16759116D01*
X10172946Y-16768640D01*
X10153899Y-16778164D01*
X10125327Y-16778164D01*
X10306280Y-16778164D02*
X10287232Y-16768640D01*
X10277708Y-16749592D01*
X10277708Y-16578164D01*
X10458661Y-16768640D02*
X10439613Y-16778164D01*
X10401518Y-16778164D01*
X10382470Y-16768640D01*
X10372946Y-16749592D01*
X10372946Y-16673402D01*
X10382470Y-16654354D01*
X10401518Y-16644830D01*
X10439613Y-16644830D01*
X10458661Y-16654354D01*
X10468185Y-16673402D01*
X10468185Y-16692449D01*
X10372946Y-16711497D01*
X10544375Y-16768640D02*
X10563423Y-16778164D01*
X10601518Y-16778164D01*
X10620565Y-16768640D01*
X10630089Y-16749592D01*
X10630089Y-16740068D01*
X10620565Y-16721021D01*
X10601518Y-16711497D01*
X10572946Y-16711497D01*
X10553899Y-16701973D01*
X10544375Y-16682925D01*
X10544375Y-16673402D01*
X10553899Y-16654354D01*
X10572946Y-16644830D01*
X10601518Y-16644830D01*
X10620565Y-16654354D01*
X10696756Y-16854354D02*
X10706280Y-16844830D01*
X10725327Y-16816259D01*
X10734851Y-16797211D01*
X10744375Y-16768640D01*
X10753899Y-16721021D01*
X10753899Y-16682925D01*
X10744375Y-16635306D01*
X10734851Y-16606735D01*
X10725327Y-16587687D01*
X10706280Y-16559116D01*
X10696756Y-16549592D01*
D14*
X5711875Y-16929188D02*
X5711875Y-16974188D01*
X5689375Y-16951688D02*
X5734375Y-16951688D01*
D11*
X6030089Y-16842164D02*
X6049137Y-16842164D01*
X6068184Y-16851688D01*
X6077708Y-16861211D01*
X6087232Y-16880259D01*
X6096756Y-16918354D01*
X6096756Y-16965973D01*
X6087232Y-17004068D01*
X6077708Y-17023116D01*
X6068184Y-17032640D01*
X6049137Y-17042164D01*
X6030089Y-17042164D01*
X6011042Y-17032640D01*
X6001518Y-17023116D01*
X5991994Y-17004068D01*
X5982470Y-16965973D01*
X5982470Y-16918354D01*
X5991994Y-16880259D01*
X6001518Y-16861211D01*
X6011042Y-16851688D01*
X6030089Y-16842164D01*
X6182470Y-17023116D02*
X6191994Y-17032640D01*
X6182470Y-17042164D01*
X6172946Y-17032640D01*
X6182470Y-17023116D01*
X6182470Y-17042164D01*
X6363423Y-16908830D02*
X6363423Y-17042164D01*
X6315803Y-16832640D02*
X6268184Y-16975497D01*
X6391994Y-16975497D01*
X6563423Y-16842164D02*
X6468184Y-16842164D01*
X6458661Y-16937402D01*
X6468184Y-16927878D01*
X6487232Y-16918354D01*
X6534851Y-16918354D01*
X6553899Y-16927878D01*
X6563423Y-16937402D01*
X6572946Y-16956449D01*
X6572946Y-17004068D01*
X6563423Y-17023116D01*
X6553899Y-17032640D01*
X6534851Y-17042164D01*
X6487232Y-17042164D01*
X6468184Y-17032640D01*
X6458661Y-17023116D01*
X6696756Y-16842164D02*
X6715803Y-16842164D01*
X6734851Y-16851688D01*
X6744375Y-16861211D01*
X6753899Y-16880259D01*
X6763423Y-16918354D01*
X6763423Y-16965973D01*
X6753899Y-17004068D01*
X6744375Y-17023116D01*
X6734851Y-17032640D01*
X6715803Y-17042164D01*
X6696756Y-17042164D01*
X6677708Y-17032640D01*
X6668184Y-17023116D01*
X6658661Y-17004068D01*
X6649137Y-16965973D01*
X6649137Y-16918354D01*
X6658661Y-16880259D01*
X6668184Y-16861211D01*
X6677708Y-16851688D01*
X6696756Y-16842164D01*
X6849137Y-17042164D02*
X6849137Y-16908830D01*
X6849137Y-16927878D02*
X6858661Y-16918354D01*
X6877708Y-16908830D01*
X6906280Y-16908830D01*
X6925327Y-16918354D01*
X6934851Y-16937402D01*
X6934851Y-17042164D01*
X6934851Y-16937402D02*
X6944375Y-16918354D01*
X6963423Y-16908830D01*
X6991994Y-16908830D01*
X7011042Y-16918354D01*
X7020565Y-16937402D01*
X7020565Y-17042164D01*
X7115803Y-17042164D02*
X7115803Y-16908830D01*
X7115803Y-16927878D02*
X7125327Y-16918354D01*
X7144375Y-16908830D01*
X7172946Y-16908830D01*
X7191994Y-16918354D01*
X7201518Y-16937402D01*
X7201518Y-17042164D01*
X7201518Y-16937402D02*
X7211042Y-16918354D01*
X7230089Y-16908830D01*
X7258661Y-16908830D01*
X7277708Y-16918354D01*
X7287232Y-16937402D01*
X7287232Y-17042164D01*
X7677708Y-16832640D02*
X7506280Y-17089783D01*
X7934851Y-16842164D02*
X7953899Y-16842164D01*
X7972946Y-16851688D01*
X7982470Y-16861211D01*
X7991994Y-16880259D01*
X8001518Y-16918354D01*
X8001518Y-16965973D01*
X7991994Y-17004068D01*
X7982470Y-17023116D01*
X7972946Y-17032640D01*
X7953899Y-17042164D01*
X7934851Y-17042164D01*
X7915803Y-17032640D01*
X7906280Y-17023116D01*
X7896756Y-17004068D01*
X7887232Y-16965973D01*
X7887232Y-16918354D01*
X7896756Y-16880259D01*
X7906280Y-16861211D01*
X7915803Y-16851688D01*
X7934851Y-16842164D01*
X8087232Y-17023116D02*
X8096756Y-17032640D01*
X8087232Y-17042164D01*
X8077708Y-17032640D01*
X8087232Y-17023116D01*
X8087232Y-17042164D01*
X8220565Y-16842164D02*
X8239613Y-16842164D01*
X8258661Y-16851688D01*
X8268184Y-16861211D01*
X8277708Y-16880259D01*
X8287232Y-16918354D01*
X8287232Y-16965973D01*
X8277708Y-17004068D01*
X8268184Y-17023116D01*
X8258661Y-17032640D01*
X8239613Y-17042164D01*
X8220565Y-17042164D01*
X8201518Y-17032640D01*
X8191994Y-17023116D01*
X8182470Y-17004068D01*
X8172946Y-16965973D01*
X8172946Y-16918354D01*
X8182470Y-16880259D01*
X8191994Y-16861211D01*
X8201518Y-16851688D01*
X8220565Y-16842164D01*
X8477708Y-17042164D02*
X8363423Y-17042164D01*
X8420565Y-17042164D02*
X8420565Y-16842164D01*
X8401518Y-16870735D01*
X8382470Y-16889783D01*
X8363423Y-16899307D01*
X8544375Y-16842164D02*
X8677708Y-16842164D01*
X8591994Y-17042164D01*
X8734851Y-16842164D02*
X8868185Y-16842164D01*
X8782470Y-17042164D01*
X8934851Y-16842164D02*
X8934851Y-16880259D01*
X9011042Y-16842164D02*
X9011042Y-16880259D01*
X9306280Y-17118354D02*
X9296756Y-17108830D01*
X9277708Y-17080259D01*
X9268185Y-17061211D01*
X9258661Y-17032640D01*
X9249137Y-16985021D01*
X9249137Y-16946926D01*
X9258661Y-16899307D01*
X9268185Y-16870735D01*
X9277708Y-16851688D01*
X9296756Y-16823116D01*
X9306280Y-16813592D01*
X9487232Y-17042164D02*
X9372946Y-17042164D01*
X9430089Y-17042164D02*
X9430089Y-16842164D01*
X9411042Y-16870735D01*
X9391994Y-16889783D01*
X9372946Y-16899307D01*
X9725327Y-17042164D02*
X9725327Y-16842164D01*
X9811042Y-17042164D02*
X9811042Y-16937402D01*
X9801518Y-16918354D01*
X9782470Y-16908830D01*
X9753899Y-16908830D01*
X9734851Y-16918354D01*
X9725327Y-16927878D01*
X9934851Y-17042164D02*
X9915804Y-17032640D01*
X9906280Y-17023116D01*
X9896756Y-17004068D01*
X9896756Y-16946926D01*
X9906280Y-16927878D01*
X9915804Y-16918354D01*
X9934851Y-16908830D01*
X9963423Y-16908830D01*
X9982470Y-16918354D01*
X9991994Y-16927878D01*
X10001518Y-16946926D01*
X10001518Y-17004068D01*
X9991994Y-17023116D01*
X9982470Y-17032640D01*
X9963423Y-17042164D01*
X9934851Y-17042164D01*
X10115804Y-17042164D02*
X10096756Y-17032640D01*
X10087232Y-17013592D01*
X10087232Y-16842164D01*
X10268185Y-17032640D02*
X10249137Y-17042164D01*
X10211042Y-17042164D01*
X10191994Y-17032640D01*
X10182470Y-17013592D01*
X10182470Y-16937402D01*
X10191994Y-16918354D01*
X10211042Y-16908830D01*
X10249137Y-16908830D01*
X10268185Y-16918354D01*
X10277708Y-16937402D01*
X10277708Y-16956449D01*
X10182470Y-16975497D01*
X10344375Y-17118354D02*
X10353899Y-17108830D01*
X10372946Y-17080259D01*
X10382470Y-17061211D01*
X10391994Y-17032640D01*
X10401518Y-16985021D01*
X10401518Y-16946926D01*
X10391994Y-16899307D01*
X10382470Y-16870735D01*
X10372946Y-16851688D01*
X10353899Y-16823116D01*
X10344375Y-16813592D01*
D15*
X5725588Y-17236901D02*
X5725588Y-17194474D01*
X5683162Y-17194474D01*
X5683162Y-17236901D01*
X5725588Y-17236901D01*
D11*
X6030089Y-17106164D02*
X6049137Y-17106164D01*
X6068184Y-17115688D01*
X6077708Y-17125211D01*
X6087232Y-17144259D01*
X6096756Y-17182354D01*
X6096756Y-17229973D01*
X6087232Y-17268068D01*
X6077708Y-17287116D01*
X6068184Y-17296640D01*
X6049137Y-17306164D01*
X6030089Y-17306164D01*
X6011042Y-17296640D01*
X6001518Y-17287116D01*
X5991994Y-17268068D01*
X5982470Y-17229973D01*
X5982470Y-17182354D01*
X5991994Y-17144259D01*
X6001518Y-17125211D01*
X6011042Y-17115688D01*
X6030089Y-17106164D01*
X6182470Y-17287116D02*
X6191994Y-17296640D01*
X6182470Y-17306164D01*
X6172946Y-17296640D01*
X6182470Y-17287116D01*
X6182470Y-17306164D01*
X6363423Y-17106164D02*
X6325327Y-17106164D01*
X6306280Y-17115688D01*
X6296756Y-17125211D01*
X6277708Y-17153783D01*
X6268184Y-17191878D01*
X6268184Y-17268068D01*
X6277708Y-17287116D01*
X6287232Y-17296640D01*
X6306280Y-17306164D01*
X6344375Y-17306164D01*
X6363423Y-17296640D01*
X6372946Y-17287116D01*
X6382470Y-17268068D01*
X6382470Y-17220449D01*
X6372946Y-17201402D01*
X6363423Y-17191878D01*
X6344375Y-17182354D01*
X6306280Y-17182354D01*
X6287232Y-17191878D01*
X6277708Y-17201402D01*
X6268184Y-17220449D01*
X6506280Y-17106164D02*
X6525327Y-17106164D01*
X6544375Y-17115688D01*
X6553899Y-17125211D01*
X6563423Y-17144259D01*
X6572946Y-17182354D01*
X6572946Y-17229973D01*
X6563423Y-17268068D01*
X6553899Y-17287116D01*
X6544375Y-17296640D01*
X6525327Y-17306164D01*
X6506280Y-17306164D01*
X6487232Y-17296640D01*
X6477708Y-17287116D01*
X6468184Y-17268068D01*
X6458661Y-17229973D01*
X6458661Y-17182354D01*
X6468184Y-17144259D01*
X6477708Y-17125211D01*
X6487232Y-17115688D01*
X6506280Y-17106164D01*
X6696756Y-17106164D02*
X6715803Y-17106164D01*
X6734851Y-17115688D01*
X6744375Y-17125211D01*
X6753899Y-17144259D01*
X6763423Y-17182354D01*
X6763423Y-17229973D01*
X6753899Y-17268068D01*
X6744375Y-17287116D01*
X6734851Y-17296640D01*
X6715803Y-17306164D01*
X6696756Y-17306164D01*
X6677708Y-17296640D01*
X6668184Y-17287116D01*
X6658661Y-17268068D01*
X6649137Y-17229973D01*
X6649137Y-17182354D01*
X6658661Y-17144259D01*
X6668184Y-17125211D01*
X6677708Y-17115688D01*
X6696756Y-17106164D01*
X6849137Y-17306164D02*
X6849137Y-17172830D01*
X6849137Y-17191878D02*
X6858661Y-17182354D01*
X6877708Y-17172830D01*
X6906280Y-17172830D01*
X6925327Y-17182354D01*
X6934851Y-17201402D01*
X6934851Y-17306164D01*
X6934851Y-17201402D02*
X6944375Y-17182354D01*
X6963423Y-17172830D01*
X6991994Y-17172830D01*
X7011042Y-17182354D01*
X7020565Y-17201402D01*
X7020565Y-17306164D01*
X7115803Y-17306164D02*
X7115803Y-17172830D01*
X7115803Y-17191878D02*
X7125327Y-17182354D01*
X7144375Y-17172830D01*
X7172946Y-17172830D01*
X7191994Y-17182354D01*
X7201518Y-17201402D01*
X7201518Y-17306164D01*
X7201518Y-17201402D02*
X7211042Y-17182354D01*
X7230089Y-17172830D01*
X7258661Y-17172830D01*
X7277708Y-17182354D01*
X7287232Y-17201402D01*
X7287232Y-17306164D01*
X7677708Y-17096640D02*
X7506280Y-17353783D01*
X7934851Y-17106164D02*
X7953899Y-17106164D01*
X7972946Y-17115688D01*
X7982470Y-17125211D01*
X7991994Y-17144259D01*
X8001518Y-17182354D01*
X8001518Y-17229973D01*
X7991994Y-17268068D01*
X7982470Y-17287116D01*
X7972946Y-17296640D01*
X7953899Y-17306164D01*
X7934851Y-17306164D01*
X7915803Y-17296640D01*
X7906280Y-17287116D01*
X7896756Y-17268068D01*
X7887232Y-17229973D01*
X7887232Y-17182354D01*
X7896756Y-17144259D01*
X7906280Y-17125211D01*
X7915803Y-17115688D01*
X7934851Y-17106164D01*
X8087232Y-17287116D02*
X8096756Y-17296640D01*
X8087232Y-17306164D01*
X8077708Y-17296640D01*
X8087232Y-17287116D01*
X8087232Y-17306164D01*
X8220565Y-17106164D02*
X8239613Y-17106164D01*
X8258661Y-17115688D01*
X8268184Y-17125211D01*
X8277708Y-17144259D01*
X8287232Y-17182354D01*
X8287232Y-17229973D01*
X8277708Y-17268068D01*
X8268184Y-17287116D01*
X8258661Y-17296640D01*
X8239613Y-17306164D01*
X8220565Y-17306164D01*
X8201518Y-17296640D01*
X8191994Y-17287116D01*
X8182470Y-17268068D01*
X8172946Y-17229973D01*
X8172946Y-17182354D01*
X8182470Y-17144259D01*
X8191994Y-17125211D01*
X8201518Y-17115688D01*
X8220565Y-17106164D01*
X8363423Y-17125211D02*
X8372946Y-17115688D01*
X8391994Y-17106164D01*
X8439613Y-17106164D01*
X8458661Y-17115688D01*
X8468185Y-17125211D01*
X8477708Y-17144259D01*
X8477708Y-17163307D01*
X8468185Y-17191878D01*
X8353899Y-17306164D01*
X8477708Y-17306164D01*
X8544375Y-17106164D02*
X8668185Y-17106164D01*
X8601518Y-17182354D01*
X8630089Y-17182354D01*
X8649137Y-17191878D01*
X8658661Y-17201402D01*
X8668185Y-17220449D01*
X8668185Y-17268068D01*
X8658661Y-17287116D01*
X8649137Y-17296640D01*
X8630089Y-17306164D01*
X8572946Y-17306164D01*
X8553899Y-17296640D01*
X8544375Y-17287116D01*
X8839613Y-17106164D02*
X8801518Y-17106164D01*
X8782470Y-17115688D01*
X8772946Y-17125211D01*
X8753899Y-17153783D01*
X8744375Y-17191878D01*
X8744375Y-17268068D01*
X8753899Y-17287116D01*
X8763423Y-17296640D01*
X8782470Y-17306164D01*
X8820565Y-17306164D01*
X8839613Y-17296640D01*
X8849137Y-17287116D01*
X8858661Y-17268068D01*
X8858661Y-17220449D01*
X8849137Y-17201402D01*
X8839613Y-17191878D01*
X8820565Y-17182354D01*
X8782470Y-17182354D01*
X8763423Y-17191878D01*
X8753899Y-17201402D01*
X8744375Y-17220449D01*
X8934851Y-17106164D02*
X8934851Y-17144259D01*
X9011042Y-17106164D02*
X9011042Y-17144259D01*
X9306280Y-17382354D02*
X9296756Y-17372830D01*
X9277708Y-17344259D01*
X9268185Y-17325211D01*
X9258661Y-17296640D01*
X9249137Y-17249021D01*
X9249137Y-17210926D01*
X9258661Y-17163307D01*
X9268185Y-17134735D01*
X9277708Y-17115688D01*
X9296756Y-17087116D01*
X9306280Y-17077592D01*
X9372946Y-17125211D02*
X9382470Y-17115688D01*
X9401518Y-17106164D01*
X9449137Y-17106164D01*
X9468185Y-17115688D01*
X9477708Y-17125211D01*
X9487232Y-17144259D01*
X9487232Y-17163307D01*
X9477708Y-17191878D01*
X9363423Y-17306164D01*
X9487232Y-17306164D01*
X9725327Y-17306164D02*
X9725327Y-17106164D01*
X9811042Y-17306164D02*
X9811042Y-17201402D01*
X9801518Y-17182354D01*
X9782470Y-17172830D01*
X9753899Y-17172830D01*
X9734851Y-17182354D01*
X9725327Y-17191878D01*
X9934851Y-17306164D02*
X9915804Y-17296640D01*
X9906280Y-17287116D01*
X9896756Y-17268068D01*
X9896756Y-17210926D01*
X9906280Y-17191878D01*
X9915804Y-17182354D01*
X9934851Y-17172830D01*
X9963423Y-17172830D01*
X9982470Y-17182354D01*
X9991994Y-17191878D01*
X10001518Y-17210926D01*
X10001518Y-17268068D01*
X9991994Y-17287116D01*
X9982470Y-17296640D01*
X9963423Y-17306164D01*
X9934851Y-17306164D01*
X10115804Y-17306164D02*
X10096756Y-17296640D01*
X10087232Y-17277592D01*
X10087232Y-17106164D01*
X10268185Y-17296640D02*
X10249137Y-17306164D01*
X10211042Y-17306164D01*
X10191994Y-17296640D01*
X10182470Y-17277592D01*
X10182470Y-17201402D01*
X10191994Y-17182354D01*
X10211042Y-17172830D01*
X10249137Y-17172830D01*
X10268185Y-17182354D01*
X10277708Y-17201402D01*
X10277708Y-17220449D01*
X10182470Y-17239497D01*
X10353899Y-17296640D02*
X10372946Y-17306164D01*
X10411042Y-17306164D01*
X10430089Y-17296640D01*
X10439613Y-17277592D01*
X10439613Y-17268068D01*
X10430089Y-17249021D01*
X10411042Y-17239497D01*
X10382470Y-17239497D01*
X10363423Y-17229973D01*
X10353899Y-17210926D01*
X10353899Y-17201402D01*
X10363423Y-17182354D01*
X10382470Y-17172830D01*
X10411042Y-17172830D01*
X10430089Y-17182354D01*
X10506280Y-17382354D02*
X10515804Y-17372830D01*
X10534851Y-17344259D01*
X10544375Y-17325211D01*
X10553899Y-17296640D01*
X10563423Y-17249021D01*
X10563423Y-17210926D01*
X10553899Y-17163307D01*
X10544375Y-17134735D01*
X10534851Y-17115688D01*
X10515804Y-17087116D01*
X10506280Y-17077592D01*
D16*
X5696875Y-17517188D02*
X5734375Y-17479688D01*
X5696875Y-17442188D01*
X5659375Y-17479688D01*
X5696875Y-17517188D01*
D11*
X6030089Y-17370164D02*
X6049137Y-17370164D01*
X6068184Y-17379688D01*
X6077708Y-17389211D01*
X6087232Y-17408259D01*
X6096756Y-17446354D01*
X6096756Y-17493973D01*
X6087232Y-17532068D01*
X6077708Y-17551116D01*
X6068184Y-17560640D01*
X6049137Y-17570164D01*
X6030089Y-17570164D01*
X6011042Y-17560640D01*
X6001518Y-17551116D01*
X5991994Y-17532068D01*
X5982470Y-17493973D01*
X5982470Y-17446354D01*
X5991994Y-17408259D01*
X6001518Y-17389211D01*
X6011042Y-17379688D01*
X6030089Y-17370164D01*
X6182470Y-17551116D02*
X6191994Y-17560640D01*
X6182470Y-17570164D01*
X6172946Y-17560640D01*
X6182470Y-17551116D01*
X6182470Y-17570164D01*
X6258661Y-17370164D02*
X6391994Y-17370164D01*
X6306280Y-17570164D01*
X6563423Y-17370164D02*
X6468184Y-17370164D01*
X6458661Y-17465402D01*
X6468184Y-17455878D01*
X6487232Y-17446354D01*
X6534851Y-17446354D01*
X6553899Y-17455878D01*
X6563423Y-17465402D01*
X6572946Y-17484449D01*
X6572946Y-17532068D01*
X6563423Y-17551116D01*
X6553899Y-17560640D01*
X6534851Y-17570164D01*
X6487232Y-17570164D01*
X6468184Y-17560640D01*
X6458661Y-17551116D01*
X6696756Y-17370164D02*
X6715803Y-17370164D01*
X6734851Y-17379688D01*
X6744375Y-17389211D01*
X6753899Y-17408259D01*
X6763423Y-17446354D01*
X6763423Y-17493973D01*
X6753899Y-17532068D01*
X6744375Y-17551116D01*
X6734851Y-17560640D01*
X6715803Y-17570164D01*
X6696756Y-17570164D01*
X6677708Y-17560640D01*
X6668184Y-17551116D01*
X6658661Y-17532068D01*
X6649137Y-17493973D01*
X6649137Y-17446354D01*
X6658661Y-17408259D01*
X6668184Y-17389211D01*
X6677708Y-17379688D01*
X6696756Y-17370164D01*
X6849137Y-17570164D02*
X6849137Y-17436830D01*
X6849137Y-17455878D02*
X6858661Y-17446354D01*
X6877708Y-17436830D01*
X6906280Y-17436830D01*
X6925327Y-17446354D01*
X6934851Y-17465402D01*
X6934851Y-17570164D01*
X6934851Y-17465402D02*
X6944375Y-17446354D01*
X6963423Y-17436830D01*
X6991994Y-17436830D01*
X7011042Y-17446354D01*
X7020565Y-17465402D01*
X7020565Y-17570164D01*
X7115803Y-17570164D02*
X7115803Y-17436830D01*
X7115803Y-17455878D02*
X7125327Y-17446354D01*
X7144375Y-17436830D01*
X7172946Y-17436830D01*
X7191994Y-17446354D01*
X7201518Y-17465402D01*
X7201518Y-17570164D01*
X7201518Y-17465402D02*
X7211042Y-17446354D01*
X7230089Y-17436830D01*
X7258661Y-17436830D01*
X7277708Y-17446354D01*
X7287232Y-17465402D01*
X7287232Y-17570164D01*
X7677708Y-17360640D02*
X7506280Y-17617783D01*
X7934851Y-17370164D02*
X7953899Y-17370164D01*
X7972946Y-17379688D01*
X7982470Y-17389211D01*
X7991994Y-17408259D01*
X8001518Y-17446354D01*
X8001518Y-17493973D01*
X7991994Y-17532068D01*
X7982470Y-17551116D01*
X7972946Y-17560640D01*
X7953899Y-17570164D01*
X7934851Y-17570164D01*
X7915803Y-17560640D01*
X7906280Y-17551116D01*
X7896756Y-17532068D01*
X7887232Y-17493973D01*
X7887232Y-17446354D01*
X7896756Y-17408259D01*
X7906280Y-17389211D01*
X7915803Y-17379688D01*
X7934851Y-17370164D01*
X8087232Y-17551116D02*
X8096756Y-17560640D01*
X8087232Y-17570164D01*
X8077708Y-17560640D01*
X8087232Y-17551116D01*
X8087232Y-17570164D01*
X8220565Y-17370164D02*
X8239613Y-17370164D01*
X8258661Y-17379688D01*
X8268184Y-17389211D01*
X8277708Y-17408259D01*
X8287232Y-17446354D01*
X8287232Y-17493973D01*
X8277708Y-17532068D01*
X8268184Y-17551116D01*
X8258661Y-17560640D01*
X8239613Y-17570164D01*
X8220565Y-17570164D01*
X8201518Y-17560640D01*
X8191994Y-17551116D01*
X8182470Y-17532068D01*
X8172946Y-17493973D01*
X8172946Y-17446354D01*
X8182470Y-17408259D01*
X8191994Y-17389211D01*
X8201518Y-17379688D01*
X8220565Y-17370164D01*
X8363423Y-17389211D02*
X8372946Y-17379688D01*
X8391994Y-17370164D01*
X8439613Y-17370164D01*
X8458661Y-17379688D01*
X8468185Y-17389211D01*
X8477708Y-17408259D01*
X8477708Y-17427307D01*
X8468185Y-17455878D01*
X8353899Y-17570164D01*
X8477708Y-17570164D01*
X8572946Y-17570164D02*
X8611042Y-17570164D01*
X8630089Y-17560640D01*
X8639613Y-17551116D01*
X8658661Y-17522545D01*
X8668185Y-17484449D01*
X8668185Y-17408259D01*
X8658661Y-17389211D01*
X8649137Y-17379688D01*
X8630089Y-17370164D01*
X8591994Y-17370164D01*
X8572946Y-17379688D01*
X8563423Y-17389211D01*
X8553899Y-17408259D01*
X8553899Y-17455878D01*
X8563423Y-17474926D01*
X8572946Y-17484449D01*
X8591994Y-17493973D01*
X8630089Y-17493973D01*
X8649137Y-17484449D01*
X8658661Y-17474926D01*
X8668185Y-17455878D01*
X8849137Y-17370164D02*
X8753899Y-17370164D01*
X8744375Y-17465402D01*
X8753899Y-17455878D01*
X8772946Y-17446354D01*
X8820565Y-17446354D01*
X8839613Y-17455878D01*
X8849137Y-17465402D01*
X8858661Y-17484449D01*
X8858661Y-17532068D01*
X8849137Y-17551116D01*
X8839613Y-17560640D01*
X8820565Y-17570164D01*
X8772946Y-17570164D01*
X8753899Y-17560640D01*
X8744375Y-17551116D01*
X8934851Y-17370164D02*
X8934851Y-17408259D01*
X9011042Y-17370164D02*
X9011042Y-17408259D01*
X9306280Y-17646354D02*
X9296756Y-17636830D01*
X9277708Y-17608259D01*
X9268185Y-17589211D01*
X9258661Y-17560640D01*
X9249137Y-17513021D01*
X9249137Y-17474926D01*
X9258661Y-17427307D01*
X9268185Y-17398735D01*
X9277708Y-17379688D01*
X9296756Y-17351116D01*
X9306280Y-17341592D01*
X9411042Y-17455878D02*
X9391994Y-17446354D01*
X9382470Y-17436830D01*
X9372946Y-17417783D01*
X9372946Y-17408259D01*
X9382470Y-17389211D01*
X9391994Y-17379688D01*
X9411042Y-17370164D01*
X9449137Y-17370164D01*
X9468185Y-17379688D01*
X9477708Y-17389211D01*
X9487232Y-17408259D01*
X9487232Y-17417783D01*
X9477708Y-17436830D01*
X9468185Y-17446354D01*
X9449137Y-17455878D01*
X9411042Y-17455878D01*
X9391994Y-17465402D01*
X9382470Y-17474926D01*
X9372946Y-17493973D01*
X9372946Y-17532068D01*
X9382470Y-17551116D01*
X9391994Y-17560640D01*
X9411042Y-17570164D01*
X9449137Y-17570164D01*
X9468185Y-17560640D01*
X9477708Y-17551116D01*
X9487232Y-17532068D01*
X9487232Y-17493973D01*
X9477708Y-17474926D01*
X9468185Y-17465402D01*
X9449137Y-17455878D01*
X9668185Y-17370164D02*
X9572946Y-17370164D01*
X9563423Y-17465402D01*
X9572946Y-17455878D01*
X9591994Y-17446354D01*
X9639613Y-17446354D01*
X9658661Y-17455878D01*
X9668185Y-17465402D01*
X9677708Y-17484449D01*
X9677708Y-17532068D01*
X9668185Y-17551116D01*
X9658661Y-17560640D01*
X9639613Y-17570164D01*
X9591994Y-17570164D01*
X9572946Y-17560640D01*
X9563423Y-17551116D01*
X9915804Y-17570164D02*
X9915804Y-17370164D01*
X10001518Y-17570164D02*
X10001518Y-17465402D01*
X9991994Y-17446354D01*
X9972946Y-17436830D01*
X9944375Y-17436830D01*
X9925327Y-17446354D01*
X9915804Y-17455878D01*
X10125327Y-17570164D02*
X10106280Y-17560640D01*
X10096756Y-17551116D01*
X10087232Y-17532068D01*
X10087232Y-17474926D01*
X10096756Y-17455878D01*
X10106280Y-17446354D01*
X10125327Y-17436830D01*
X10153899Y-17436830D01*
X10172946Y-17446354D01*
X10182470Y-17455878D01*
X10191994Y-17474926D01*
X10191994Y-17532068D01*
X10182470Y-17551116D01*
X10172946Y-17560640D01*
X10153899Y-17570164D01*
X10125327Y-17570164D01*
X10306280Y-17570164D02*
X10287232Y-17560640D01*
X10277708Y-17541592D01*
X10277708Y-17370164D01*
X10458661Y-17560640D02*
X10439613Y-17570164D01*
X10401518Y-17570164D01*
X10382470Y-17560640D01*
X10372946Y-17541592D01*
X10372946Y-17465402D01*
X10382470Y-17446354D01*
X10401518Y-17436830D01*
X10439613Y-17436830D01*
X10458661Y-17446354D01*
X10468185Y-17465402D01*
X10468185Y-17484449D01*
X10372946Y-17503497D01*
X10544375Y-17560640D02*
X10563423Y-17570164D01*
X10601518Y-17570164D01*
X10620565Y-17560640D01*
X10630089Y-17541592D01*
X10630089Y-17532068D01*
X10620565Y-17513021D01*
X10601518Y-17503497D01*
X10572946Y-17503497D01*
X10553899Y-17493973D01*
X10544375Y-17474926D01*
X10544375Y-17465402D01*
X10553899Y-17446354D01*
X10572946Y-17436830D01*
X10601518Y-17436830D01*
X10620565Y-17446354D01*
X10696756Y-17646354D02*
X10706280Y-17636830D01*
X10725327Y-17608259D01*
X10734851Y-17589211D01*
X10744375Y-17560640D01*
X10753899Y-17513021D01*
X10753899Y-17474926D01*
X10744375Y-17427307D01*
X10734851Y-17398735D01*
X10725327Y-17379688D01*
X10706280Y-17351116D01*
X10696756Y-17341592D01*
D10*
X5634375Y-17693688D02*
X5734375Y-17793688D01*
X5734375Y-17693688D02*
X5634375Y-17793688D01*
X5734375Y-17743688D02*
G75*
G03*
X5734375Y-17743688I-50000J0D01*
G01*
D11*
X6096756Y-17834164D02*
X5982470Y-17834164D01*
X6039613Y-17834164D02*
X6039613Y-17634164D01*
X6020565Y-17662735D01*
X6001518Y-17681783D01*
X5982470Y-17691307D01*
X6182470Y-17815116D02*
X6191994Y-17824640D01*
X6182470Y-17834164D01*
X6172946Y-17824640D01*
X6182470Y-17815116D01*
X6182470Y-17834164D01*
X6315803Y-17634164D02*
X6334851Y-17634164D01*
X6353899Y-17643688D01*
X6363423Y-17653211D01*
X6372946Y-17672259D01*
X6382470Y-17710354D01*
X6382470Y-17757973D01*
X6372946Y-17796068D01*
X6363423Y-17815116D01*
X6353899Y-17824640D01*
X6334851Y-17834164D01*
X6315803Y-17834164D01*
X6296756Y-17824640D01*
X6287232Y-17815116D01*
X6277708Y-17796068D01*
X6268184Y-17757973D01*
X6268184Y-17710354D01*
X6277708Y-17672259D01*
X6287232Y-17653211D01*
X6296756Y-17643688D01*
X6315803Y-17634164D01*
X6506280Y-17634164D02*
X6525327Y-17634164D01*
X6544375Y-17643688D01*
X6553899Y-17653211D01*
X6563423Y-17672259D01*
X6572946Y-17710354D01*
X6572946Y-17757973D01*
X6563423Y-17796068D01*
X6553899Y-17815116D01*
X6544375Y-17824640D01*
X6525327Y-17834164D01*
X6506280Y-17834164D01*
X6487232Y-17824640D01*
X6477708Y-17815116D01*
X6468184Y-17796068D01*
X6458661Y-17757973D01*
X6458661Y-17710354D01*
X6468184Y-17672259D01*
X6477708Y-17653211D01*
X6487232Y-17643688D01*
X6506280Y-17634164D01*
X6696756Y-17634164D02*
X6715803Y-17634164D01*
X6734851Y-17643688D01*
X6744375Y-17653211D01*
X6753899Y-17672259D01*
X6763423Y-17710354D01*
X6763423Y-17757973D01*
X6753899Y-17796068D01*
X6744375Y-17815116D01*
X6734851Y-17824640D01*
X6715803Y-17834164D01*
X6696756Y-17834164D01*
X6677708Y-17824640D01*
X6668184Y-17815116D01*
X6658661Y-17796068D01*
X6649137Y-17757973D01*
X6649137Y-17710354D01*
X6658661Y-17672259D01*
X6668184Y-17653211D01*
X6677708Y-17643688D01*
X6696756Y-17634164D01*
X6849137Y-17834164D02*
X6849137Y-17700830D01*
X6849137Y-17719878D02*
X6858661Y-17710354D01*
X6877708Y-17700830D01*
X6906280Y-17700830D01*
X6925327Y-17710354D01*
X6934851Y-17729402D01*
X6934851Y-17834164D01*
X6934851Y-17729402D02*
X6944375Y-17710354D01*
X6963423Y-17700830D01*
X6991994Y-17700830D01*
X7011042Y-17710354D01*
X7020565Y-17729402D01*
X7020565Y-17834164D01*
X7115803Y-17834164D02*
X7115803Y-17700830D01*
X7115803Y-17719878D02*
X7125327Y-17710354D01*
X7144375Y-17700830D01*
X7172946Y-17700830D01*
X7191994Y-17710354D01*
X7201518Y-17729402D01*
X7201518Y-17834164D01*
X7201518Y-17729402D02*
X7211042Y-17710354D01*
X7230089Y-17700830D01*
X7258661Y-17700830D01*
X7277708Y-17710354D01*
X7287232Y-17729402D01*
X7287232Y-17834164D01*
X7677708Y-17624640D02*
X7506280Y-17881783D01*
X7934851Y-17634164D02*
X7953899Y-17634164D01*
X7972946Y-17643688D01*
X7982470Y-17653211D01*
X7991994Y-17672259D01*
X8001518Y-17710354D01*
X8001518Y-17757973D01*
X7991994Y-17796068D01*
X7982470Y-17815116D01*
X7972946Y-17824640D01*
X7953899Y-17834164D01*
X7934851Y-17834164D01*
X7915803Y-17824640D01*
X7906280Y-17815116D01*
X7896756Y-17796068D01*
X7887232Y-17757973D01*
X7887232Y-17710354D01*
X7896756Y-17672259D01*
X7906280Y-17653211D01*
X7915803Y-17643688D01*
X7934851Y-17634164D01*
X8087232Y-17815116D02*
X8096756Y-17824640D01*
X8087232Y-17834164D01*
X8077708Y-17824640D01*
X8087232Y-17815116D01*
X8087232Y-17834164D01*
X8220565Y-17634164D02*
X8239613Y-17634164D01*
X8258661Y-17643688D01*
X8268184Y-17653211D01*
X8277708Y-17672259D01*
X8287232Y-17710354D01*
X8287232Y-17757973D01*
X8277708Y-17796068D01*
X8268184Y-17815116D01*
X8258661Y-17824640D01*
X8239613Y-17834164D01*
X8220565Y-17834164D01*
X8201518Y-17824640D01*
X8191994Y-17815116D01*
X8182470Y-17796068D01*
X8172946Y-17757973D01*
X8172946Y-17710354D01*
X8182470Y-17672259D01*
X8191994Y-17653211D01*
X8201518Y-17643688D01*
X8220565Y-17634164D01*
X8353899Y-17634164D02*
X8477708Y-17634164D01*
X8411042Y-17710354D01*
X8439613Y-17710354D01*
X8458661Y-17719878D01*
X8468185Y-17729402D01*
X8477708Y-17748449D01*
X8477708Y-17796068D01*
X8468185Y-17815116D01*
X8458661Y-17824640D01*
X8439613Y-17834164D01*
X8382470Y-17834164D01*
X8363423Y-17824640D01*
X8353899Y-17815116D01*
X8572946Y-17834164D02*
X8611042Y-17834164D01*
X8630089Y-17824640D01*
X8639613Y-17815116D01*
X8658661Y-17786545D01*
X8668185Y-17748449D01*
X8668185Y-17672259D01*
X8658661Y-17653211D01*
X8649137Y-17643688D01*
X8630089Y-17634164D01*
X8591994Y-17634164D01*
X8572946Y-17643688D01*
X8563423Y-17653211D01*
X8553899Y-17672259D01*
X8553899Y-17719878D01*
X8563423Y-17738926D01*
X8572946Y-17748449D01*
X8591994Y-17757973D01*
X8630089Y-17757973D01*
X8649137Y-17748449D01*
X8658661Y-17738926D01*
X8668185Y-17719878D01*
X8839613Y-17700830D02*
X8839613Y-17834164D01*
X8791994Y-17624640D02*
X8744375Y-17767497D01*
X8868185Y-17767497D01*
X8934851Y-17634164D02*
X8934851Y-17672259D01*
X9011042Y-17634164D02*
X9011042Y-17672259D01*
X9306280Y-17910354D02*
X9296756Y-17900830D01*
X9277708Y-17872259D01*
X9268185Y-17853211D01*
X9258661Y-17824640D01*
X9249137Y-17777021D01*
X9249137Y-17738926D01*
X9258661Y-17691307D01*
X9268185Y-17662735D01*
X9277708Y-17643688D01*
X9296756Y-17615116D01*
X9306280Y-17605592D01*
X9372946Y-17653211D02*
X9382470Y-17643688D01*
X9401518Y-17634164D01*
X9449137Y-17634164D01*
X9468185Y-17643688D01*
X9477708Y-17653211D01*
X9487232Y-17672259D01*
X9487232Y-17691307D01*
X9477708Y-17719878D01*
X9363423Y-17834164D01*
X9487232Y-17834164D01*
X9658661Y-17634164D02*
X9620565Y-17634164D01*
X9601518Y-17643688D01*
X9591994Y-17653211D01*
X9572946Y-17681783D01*
X9563423Y-17719878D01*
X9563423Y-17796068D01*
X9572946Y-17815116D01*
X9582470Y-17824640D01*
X9601518Y-17834164D01*
X9639613Y-17834164D01*
X9658661Y-17824640D01*
X9668185Y-17815116D01*
X9677708Y-17796068D01*
X9677708Y-17748449D01*
X9668185Y-17729402D01*
X9658661Y-17719878D01*
X9639613Y-17710354D01*
X9601518Y-17710354D01*
X9582470Y-17719878D01*
X9572946Y-17729402D01*
X9563423Y-17748449D01*
X9915804Y-17834164D02*
X9915804Y-17634164D01*
X10001518Y-17834164D02*
X10001518Y-17729402D01*
X9991994Y-17710354D01*
X9972946Y-17700830D01*
X9944375Y-17700830D01*
X9925327Y-17710354D01*
X9915804Y-17719878D01*
X10125327Y-17834164D02*
X10106280Y-17824640D01*
X10096756Y-17815116D01*
X10087232Y-17796068D01*
X10087232Y-17738926D01*
X10096756Y-17719878D01*
X10106280Y-17710354D01*
X10125327Y-17700830D01*
X10153899Y-17700830D01*
X10172946Y-17710354D01*
X10182470Y-17719878D01*
X10191994Y-17738926D01*
X10191994Y-17796068D01*
X10182470Y-17815116D01*
X10172946Y-17824640D01*
X10153899Y-17834164D01*
X10125327Y-17834164D01*
X10306280Y-17834164D02*
X10287232Y-17824640D01*
X10277708Y-17805592D01*
X10277708Y-17634164D01*
X10458661Y-17824640D02*
X10439613Y-17834164D01*
X10401518Y-17834164D01*
X10382470Y-17824640D01*
X10372946Y-17805592D01*
X10372946Y-17729402D01*
X10382470Y-17710354D01*
X10401518Y-17700830D01*
X10439613Y-17700830D01*
X10458661Y-17710354D01*
X10468185Y-17729402D01*
X10468185Y-17748449D01*
X10372946Y-17767497D01*
X10544375Y-17824640D02*
X10563423Y-17834164D01*
X10601518Y-17834164D01*
X10620565Y-17824640D01*
X10630089Y-17805592D01*
X10630089Y-17796068D01*
X10620565Y-17777021D01*
X10601518Y-17767497D01*
X10572946Y-17767497D01*
X10553899Y-17757973D01*
X10544375Y-17738926D01*
X10544375Y-17729402D01*
X10553899Y-17710354D01*
X10572946Y-17700830D01*
X10601518Y-17700830D01*
X10620565Y-17710354D01*
X10696756Y-17910354D02*
X10706280Y-17900830D01*
X10725327Y-17872259D01*
X10734851Y-17853211D01*
X10744375Y-17824640D01*
X10753899Y-17777021D01*
X10753899Y-17738926D01*
X10744375Y-17691307D01*
X10734851Y-17662735D01*
X10725327Y-17643688D01*
X10706280Y-17615116D01*
X10696756Y-17605592D01*
D17*
X5614375Y-17947688D02*
X5734375Y-18067688D01*
X5734375Y-17947688D02*
X5614375Y-18067688D01*
X5674375Y-17947688D02*
X5674375Y-18067688D01*
X5614375Y-18007688D02*
X5734375Y-18007688D01*
D11*
X6096756Y-18098164D02*
X5982470Y-18098164D01*
X6039613Y-18098164D02*
X6039613Y-17898164D01*
X6020565Y-17926735D01*
X6001518Y-17945783D01*
X5982470Y-17955307D01*
X6182470Y-18079116D02*
X6191994Y-18088640D01*
X6182470Y-18098164D01*
X6172946Y-18088640D01*
X6182470Y-18079116D01*
X6182470Y-18098164D01*
X6268184Y-17917211D02*
X6277708Y-17907688D01*
X6296756Y-17898164D01*
X6344375Y-17898164D01*
X6363423Y-17907688D01*
X6372946Y-17917211D01*
X6382470Y-17936259D01*
X6382470Y-17955307D01*
X6372946Y-17983878D01*
X6258661Y-18098164D01*
X6382470Y-18098164D01*
X6506280Y-17898164D02*
X6525327Y-17898164D01*
X6544375Y-17907688D01*
X6553899Y-17917211D01*
X6563423Y-17936259D01*
X6572946Y-17974354D01*
X6572946Y-18021973D01*
X6563423Y-18060068D01*
X6553899Y-18079116D01*
X6544375Y-18088640D01*
X6525327Y-18098164D01*
X6506280Y-18098164D01*
X6487232Y-18088640D01*
X6477708Y-18079116D01*
X6468184Y-18060068D01*
X6458661Y-18021973D01*
X6458661Y-17974354D01*
X6468184Y-17936259D01*
X6477708Y-17917211D01*
X6487232Y-17907688D01*
X6506280Y-17898164D01*
X6696756Y-17898164D02*
X6715803Y-17898164D01*
X6734851Y-17907688D01*
X6744375Y-17917211D01*
X6753899Y-17936259D01*
X6763423Y-17974354D01*
X6763423Y-18021973D01*
X6753899Y-18060068D01*
X6744375Y-18079116D01*
X6734851Y-18088640D01*
X6715803Y-18098164D01*
X6696756Y-18098164D01*
X6677708Y-18088640D01*
X6668184Y-18079116D01*
X6658661Y-18060068D01*
X6649137Y-18021973D01*
X6649137Y-17974354D01*
X6658661Y-17936259D01*
X6668184Y-17917211D01*
X6677708Y-17907688D01*
X6696756Y-17898164D01*
X6849137Y-18098164D02*
X6849137Y-17964830D01*
X6849137Y-17983878D02*
X6858661Y-17974354D01*
X6877708Y-17964830D01*
X6906280Y-17964830D01*
X6925327Y-17974354D01*
X6934851Y-17993402D01*
X6934851Y-18098164D01*
X6934851Y-17993402D02*
X6944375Y-17974354D01*
X6963423Y-17964830D01*
X6991994Y-17964830D01*
X7011042Y-17974354D01*
X7020565Y-17993402D01*
X7020565Y-18098164D01*
X7115803Y-18098164D02*
X7115803Y-17964830D01*
X7115803Y-17983878D02*
X7125327Y-17974354D01*
X7144375Y-17964830D01*
X7172946Y-17964830D01*
X7191994Y-17974354D01*
X7201518Y-17993402D01*
X7201518Y-18098164D01*
X7201518Y-17993402D02*
X7211042Y-17974354D01*
X7230089Y-17964830D01*
X7258661Y-17964830D01*
X7277708Y-17974354D01*
X7287232Y-17993402D01*
X7287232Y-18098164D01*
X7677708Y-17888640D02*
X7506280Y-18145783D01*
X7934851Y-17898164D02*
X7953899Y-17898164D01*
X7972946Y-17907688D01*
X7982470Y-17917211D01*
X7991994Y-17936259D01*
X8001518Y-17974354D01*
X8001518Y-18021973D01*
X7991994Y-18060068D01*
X7982470Y-18079116D01*
X7972946Y-18088640D01*
X7953899Y-18098164D01*
X7934851Y-18098164D01*
X7915803Y-18088640D01*
X7906280Y-18079116D01*
X7896756Y-18060068D01*
X7887232Y-18021973D01*
X7887232Y-17974354D01*
X7896756Y-17936259D01*
X7906280Y-17917211D01*
X7915803Y-17907688D01*
X7934851Y-17898164D01*
X8087232Y-18079116D02*
X8096756Y-18088640D01*
X8087232Y-18098164D01*
X8077708Y-18088640D01*
X8087232Y-18079116D01*
X8087232Y-18098164D01*
X8220565Y-17898164D02*
X8239613Y-17898164D01*
X8258661Y-17907688D01*
X8268184Y-17917211D01*
X8277708Y-17936259D01*
X8287232Y-17974354D01*
X8287232Y-18021973D01*
X8277708Y-18060068D01*
X8268184Y-18079116D01*
X8258661Y-18088640D01*
X8239613Y-18098164D01*
X8220565Y-18098164D01*
X8201518Y-18088640D01*
X8191994Y-18079116D01*
X8182470Y-18060068D01*
X8172946Y-18021973D01*
X8172946Y-17974354D01*
X8182470Y-17936259D01*
X8191994Y-17917211D01*
X8201518Y-17907688D01*
X8220565Y-17898164D01*
X8458661Y-17964830D02*
X8458661Y-18098164D01*
X8411042Y-17888640D02*
X8363423Y-18031497D01*
X8487232Y-18031497D01*
X8544375Y-17898164D02*
X8677708Y-17898164D01*
X8591994Y-18098164D01*
X8744375Y-17917211D02*
X8753899Y-17907688D01*
X8772946Y-17898164D01*
X8820565Y-17898164D01*
X8839613Y-17907688D01*
X8849137Y-17917211D01*
X8858661Y-17936259D01*
X8858661Y-17955307D01*
X8849137Y-17983878D01*
X8734851Y-18098164D01*
X8858661Y-18098164D01*
X8934851Y-17898164D02*
X8934851Y-17936259D01*
X9011042Y-17898164D02*
X9011042Y-17936259D01*
X9306280Y-18174354D02*
X9296756Y-18164830D01*
X9277708Y-18136259D01*
X9268185Y-18117211D01*
X9258661Y-18088640D01*
X9249137Y-18041021D01*
X9249137Y-18002926D01*
X9258661Y-17955307D01*
X9268185Y-17926735D01*
X9277708Y-17907688D01*
X9296756Y-17879116D01*
X9306280Y-17869592D01*
X9468185Y-17964830D02*
X9468185Y-18098164D01*
X9420565Y-17888640D02*
X9372946Y-18031497D01*
X9496756Y-18031497D01*
X9725327Y-18098164D02*
X9725327Y-17898164D01*
X9811042Y-18098164D02*
X9811042Y-17993402D01*
X9801518Y-17974354D01*
X9782470Y-17964830D01*
X9753899Y-17964830D01*
X9734851Y-17974354D01*
X9725327Y-17983878D01*
X9934851Y-18098164D02*
X9915804Y-18088640D01*
X9906280Y-18079116D01*
X9896756Y-18060068D01*
X9896756Y-18002926D01*
X9906280Y-17983878D01*
X9915804Y-17974354D01*
X9934851Y-17964830D01*
X9963423Y-17964830D01*
X9982470Y-17974354D01*
X9991994Y-17983878D01*
X10001518Y-18002926D01*
X10001518Y-18060068D01*
X9991994Y-18079116D01*
X9982470Y-18088640D01*
X9963423Y-18098164D01*
X9934851Y-18098164D01*
X10115804Y-18098164D02*
X10096756Y-18088640D01*
X10087232Y-18069592D01*
X10087232Y-17898164D01*
X10268185Y-18088640D02*
X10249137Y-18098164D01*
X10211042Y-18098164D01*
X10191994Y-18088640D01*
X10182470Y-18069592D01*
X10182470Y-17993402D01*
X10191994Y-17974354D01*
X10211042Y-17964830D01*
X10249137Y-17964830D01*
X10268185Y-17974354D01*
X10277708Y-17993402D01*
X10277708Y-18012449D01*
X10182470Y-18031497D01*
X10353899Y-18088640D02*
X10372946Y-18098164D01*
X10411042Y-18098164D01*
X10430089Y-18088640D01*
X10439613Y-18069592D01*
X10439613Y-18060068D01*
X10430089Y-18041021D01*
X10411042Y-18031497D01*
X10382470Y-18031497D01*
X10363423Y-18021973D01*
X10353899Y-18002926D01*
X10353899Y-17993402D01*
X10363423Y-17974354D01*
X10382470Y-17964830D01*
X10411042Y-17964830D01*
X10430089Y-17974354D01*
X10506280Y-18174354D02*
X10515804Y-18164830D01*
X10534851Y-18136259D01*
X10544375Y-18117211D01*
X10553899Y-18088640D01*
X10563423Y-18041021D01*
X10563423Y-18002926D01*
X10553899Y-17955307D01*
X10544375Y-17926735D01*
X10534851Y-17907688D01*
X10515804Y-17879116D01*
X10506280Y-17869592D01*
D18*
X5684375Y-18246688D02*
X5734375Y-18296688D01*
X5734375Y-18246688D02*
X5684375Y-18296688D01*
X5727053Y-18289365D02*
X5727053Y-18254010D01*
X5691697Y-18254010D01*
X5691697Y-18289365D01*
X5727053Y-18289365D01*
D11*
X6030089Y-18162164D02*
X6049137Y-18162164D01*
X6068184Y-18171688D01*
X6077708Y-18181211D01*
X6087232Y-18200259D01*
X6096756Y-18238354D01*
X6096756Y-18285973D01*
X6087232Y-18324068D01*
X6077708Y-18343116D01*
X6068184Y-18352640D01*
X6049137Y-18362164D01*
X6030089Y-18362164D01*
X6011042Y-18352640D01*
X6001518Y-18343116D01*
X5991994Y-18324068D01*
X5982470Y-18285973D01*
X5982470Y-18238354D01*
X5991994Y-18200259D01*
X6001518Y-18181211D01*
X6011042Y-18171688D01*
X6030089Y-18162164D01*
X6182470Y-18343116D02*
X6191994Y-18352640D01*
X6182470Y-18362164D01*
X6172946Y-18352640D01*
X6182470Y-18343116D01*
X6182470Y-18362164D01*
X6372946Y-18162164D02*
X6277708Y-18162164D01*
X6268184Y-18257402D01*
X6277708Y-18247878D01*
X6296756Y-18238354D01*
X6344375Y-18238354D01*
X6363423Y-18247878D01*
X6372946Y-18257402D01*
X6382470Y-18276449D01*
X6382470Y-18324068D01*
X6372946Y-18343116D01*
X6363423Y-18352640D01*
X6344375Y-18362164D01*
X6296756Y-18362164D01*
X6277708Y-18352640D01*
X6268184Y-18343116D01*
X6506280Y-18162164D02*
X6525327Y-18162164D01*
X6544375Y-18171688D01*
X6553899Y-18181211D01*
X6563423Y-18200259D01*
X6572946Y-18238354D01*
X6572946Y-18285973D01*
X6563423Y-18324068D01*
X6553899Y-18343116D01*
X6544375Y-18352640D01*
X6525327Y-18362164D01*
X6506280Y-18362164D01*
X6487232Y-18352640D01*
X6477708Y-18343116D01*
X6468184Y-18324068D01*
X6458661Y-18285973D01*
X6458661Y-18238354D01*
X6468184Y-18200259D01*
X6477708Y-18181211D01*
X6487232Y-18171688D01*
X6506280Y-18162164D01*
X6696756Y-18162164D02*
X6715803Y-18162164D01*
X6734851Y-18171688D01*
X6744375Y-18181211D01*
X6753899Y-18200259D01*
X6763423Y-18238354D01*
X6763423Y-18285973D01*
X6753899Y-18324068D01*
X6744375Y-18343116D01*
X6734851Y-18352640D01*
X6715803Y-18362164D01*
X6696756Y-18362164D01*
X6677708Y-18352640D01*
X6668184Y-18343116D01*
X6658661Y-18324068D01*
X6649137Y-18285973D01*
X6649137Y-18238354D01*
X6658661Y-18200259D01*
X6668184Y-18181211D01*
X6677708Y-18171688D01*
X6696756Y-18162164D01*
X6849137Y-18362164D02*
X6849137Y-18228830D01*
X6849137Y-18247878D02*
X6858661Y-18238354D01*
X6877708Y-18228830D01*
X6906280Y-18228830D01*
X6925327Y-18238354D01*
X6934851Y-18257402D01*
X6934851Y-18362164D01*
X6934851Y-18257402D02*
X6944375Y-18238354D01*
X6963423Y-18228830D01*
X6991994Y-18228830D01*
X7011042Y-18238354D01*
X7020565Y-18257402D01*
X7020565Y-18362164D01*
X7115803Y-18362164D02*
X7115803Y-18228830D01*
X7115803Y-18247878D02*
X7125327Y-18238354D01*
X7144375Y-18228830D01*
X7172946Y-18228830D01*
X7191994Y-18238354D01*
X7201518Y-18257402D01*
X7201518Y-18362164D01*
X7201518Y-18257402D02*
X7211042Y-18238354D01*
X7230089Y-18228830D01*
X7258661Y-18228830D01*
X7277708Y-18238354D01*
X7287232Y-18257402D01*
X7287232Y-18362164D01*
X7677708Y-18152640D02*
X7506280Y-18409783D01*
X7934851Y-18162164D02*
X7953899Y-18162164D01*
X7972946Y-18171688D01*
X7982470Y-18181211D01*
X7991994Y-18200259D01*
X8001518Y-18238354D01*
X8001518Y-18285973D01*
X7991994Y-18324068D01*
X7982470Y-18343116D01*
X7972946Y-18352640D01*
X7953899Y-18362164D01*
X7934851Y-18362164D01*
X7915803Y-18352640D01*
X7906280Y-18343116D01*
X7896756Y-18324068D01*
X7887232Y-18285973D01*
X7887232Y-18238354D01*
X7896756Y-18200259D01*
X7906280Y-18181211D01*
X7915803Y-18171688D01*
X7934851Y-18162164D01*
X8087232Y-18343116D02*
X8096756Y-18352640D01*
X8087232Y-18362164D01*
X8077708Y-18352640D01*
X8087232Y-18343116D01*
X8087232Y-18362164D01*
X8220565Y-18162164D02*
X8239613Y-18162164D01*
X8258661Y-18171688D01*
X8268184Y-18181211D01*
X8277708Y-18200259D01*
X8287232Y-18238354D01*
X8287232Y-18285973D01*
X8277708Y-18324068D01*
X8268184Y-18343116D01*
X8258661Y-18352640D01*
X8239613Y-18362164D01*
X8220565Y-18362164D01*
X8201518Y-18352640D01*
X8191994Y-18343116D01*
X8182470Y-18324068D01*
X8172946Y-18285973D01*
X8172946Y-18238354D01*
X8182470Y-18200259D01*
X8191994Y-18181211D01*
X8201518Y-18171688D01*
X8220565Y-18162164D01*
X8477708Y-18362164D02*
X8363423Y-18362164D01*
X8420565Y-18362164D02*
X8420565Y-18162164D01*
X8401518Y-18190735D01*
X8382470Y-18209783D01*
X8363423Y-18219307D01*
X8572946Y-18362164D02*
X8611042Y-18362164D01*
X8630089Y-18352640D01*
X8639613Y-18343116D01*
X8658661Y-18314545D01*
X8668185Y-18276449D01*
X8668185Y-18200259D01*
X8658661Y-18181211D01*
X8649137Y-18171688D01*
X8630089Y-18162164D01*
X8591994Y-18162164D01*
X8572946Y-18171688D01*
X8563423Y-18181211D01*
X8553899Y-18200259D01*
X8553899Y-18247878D01*
X8563423Y-18266926D01*
X8572946Y-18276449D01*
X8591994Y-18285973D01*
X8630089Y-18285973D01*
X8649137Y-18276449D01*
X8658661Y-18266926D01*
X8668185Y-18247878D01*
X8734851Y-18162164D02*
X8868185Y-18162164D01*
X8782470Y-18362164D01*
X8934851Y-18162164D02*
X8934851Y-18200259D01*
X9011042Y-18162164D02*
X9011042Y-18200259D01*
X9306280Y-18438354D02*
X9296756Y-18428830D01*
X9277708Y-18400259D01*
X9268185Y-18381211D01*
X9258661Y-18352640D01*
X9249137Y-18305021D01*
X9249137Y-18266926D01*
X9258661Y-18219307D01*
X9268185Y-18190735D01*
X9277708Y-18171688D01*
X9296756Y-18143116D01*
X9306280Y-18133592D01*
X9391994Y-18362164D02*
X9430089Y-18362164D01*
X9449137Y-18352640D01*
X9458661Y-18343116D01*
X9477708Y-18314545D01*
X9487232Y-18276449D01*
X9487232Y-18200259D01*
X9477708Y-18181211D01*
X9468185Y-18171688D01*
X9449137Y-18162164D01*
X9411042Y-18162164D01*
X9391994Y-18171688D01*
X9382470Y-18181211D01*
X9372946Y-18200259D01*
X9372946Y-18247878D01*
X9382470Y-18266926D01*
X9391994Y-18276449D01*
X9411042Y-18285973D01*
X9449137Y-18285973D01*
X9468185Y-18276449D01*
X9477708Y-18266926D01*
X9487232Y-18247878D01*
X9725327Y-18362164D02*
X9725327Y-18162164D01*
X9811042Y-18362164D02*
X9811042Y-18257402D01*
X9801518Y-18238354D01*
X9782470Y-18228830D01*
X9753899Y-18228830D01*
X9734851Y-18238354D01*
X9725327Y-18247878D01*
X9934851Y-18362164D02*
X9915804Y-18352640D01*
X9906280Y-18343116D01*
X9896756Y-18324068D01*
X9896756Y-18266926D01*
X9906280Y-18247878D01*
X9915804Y-18238354D01*
X9934851Y-18228830D01*
X9963423Y-18228830D01*
X9982470Y-18238354D01*
X9991994Y-18247878D01*
X10001518Y-18266926D01*
X10001518Y-18324068D01*
X9991994Y-18343116D01*
X9982470Y-18352640D01*
X9963423Y-18362164D01*
X9934851Y-18362164D01*
X10115804Y-18362164D02*
X10096756Y-18352640D01*
X10087232Y-18333592D01*
X10087232Y-18162164D01*
X10268185Y-18352640D02*
X10249137Y-18362164D01*
X10211042Y-18362164D01*
X10191994Y-18352640D01*
X10182470Y-18333592D01*
X10182470Y-18257402D01*
X10191994Y-18238354D01*
X10211042Y-18228830D01*
X10249137Y-18228830D01*
X10268185Y-18238354D01*
X10277708Y-18257402D01*
X10277708Y-18276449D01*
X10182470Y-18295497D01*
X10353899Y-18352640D02*
X10372946Y-18362164D01*
X10411042Y-18362164D01*
X10430089Y-18352640D01*
X10439613Y-18333592D01*
X10439613Y-18324068D01*
X10430089Y-18305021D01*
X10411042Y-18295497D01*
X10382470Y-18295497D01*
X10363423Y-18285973D01*
X10353899Y-18266926D01*
X10353899Y-18257402D01*
X10363423Y-18238354D01*
X10382470Y-18228830D01*
X10411042Y-18228830D01*
X10430089Y-18238354D01*
X10506280Y-18438354D02*
X10515804Y-18428830D01*
X10534851Y-18400259D01*
X10544375Y-18381211D01*
X10553899Y-18352640D01*
X10563423Y-18305021D01*
X10563423Y-18266926D01*
X10553899Y-18219307D01*
X10544375Y-18190735D01*
X10534851Y-18171688D01*
X10515804Y-18143116D01*
X10506280Y-18133592D01*
X10868185Y-18438354D02*
X10858661Y-18428830D01*
X10839613Y-18400259D01*
X10830089Y-18381211D01*
X10820565Y-18352640D01*
X10811042Y-18305021D01*
X10811042Y-18266926D01*
X10820565Y-18219307D01*
X10830089Y-18190735D01*
X10839613Y-18171688D01*
X10858661Y-18143116D01*
X10868185Y-18133592D01*
X10944375Y-18228830D02*
X10944375Y-18362164D01*
X10944375Y-18247878D02*
X10953899Y-18238354D01*
X10972946Y-18228830D01*
X11001518Y-18228830D01*
X11020565Y-18238354D01*
X11030089Y-18257402D01*
X11030089Y-18362164D01*
X11153899Y-18362164D02*
X11134851Y-18352640D01*
X11125327Y-18343116D01*
X11115804Y-18324068D01*
X11115804Y-18266926D01*
X11125327Y-18247878D01*
X11134851Y-18238354D01*
X11153899Y-18228830D01*
X11182470Y-18228830D01*
X11201518Y-18238354D01*
X11211042Y-18247878D01*
X11220565Y-18266926D01*
X11220565Y-18324068D01*
X11211042Y-18343116D01*
X11201518Y-18352640D01*
X11182470Y-18362164D01*
X11153899Y-18362164D01*
X11277708Y-18228830D02*
X11353899Y-18228830D01*
X11306280Y-18162164D02*
X11306280Y-18333592D01*
X11315803Y-18352640D01*
X11334851Y-18362164D01*
X11353899Y-18362164D01*
X11572946Y-18228830D02*
X11572946Y-18428830D01*
X11572946Y-18238354D02*
X11591994Y-18228830D01*
X11630089Y-18228830D01*
X11649137Y-18238354D01*
X11658661Y-18247878D01*
X11668184Y-18266926D01*
X11668184Y-18324068D01*
X11658661Y-18343116D01*
X11649137Y-18352640D01*
X11630089Y-18362164D01*
X11591994Y-18362164D01*
X11572946Y-18352640D01*
X11782470Y-18362164D02*
X11763423Y-18352640D01*
X11753899Y-18333592D01*
X11753899Y-18162164D01*
X11944375Y-18362164D02*
X11944375Y-18257402D01*
X11934851Y-18238354D01*
X11915803Y-18228830D01*
X11877708Y-18228830D01*
X11858661Y-18238354D01*
X11944375Y-18352640D02*
X11925327Y-18362164D01*
X11877708Y-18362164D01*
X11858661Y-18352640D01*
X11849137Y-18333592D01*
X11849137Y-18314545D01*
X11858661Y-18295497D01*
X11877708Y-18285973D01*
X11925327Y-18285973D01*
X11944375Y-18276449D01*
X12011042Y-18228830D02*
X12087232Y-18228830D01*
X12039613Y-18162164D02*
X12039613Y-18333592D01*
X12049137Y-18352640D01*
X12068184Y-18362164D01*
X12087232Y-18362164D01*
X12230089Y-18352640D02*
X12211042Y-18362164D01*
X12172946Y-18362164D01*
X12153899Y-18352640D01*
X12144375Y-18333592D01*
X12144375Y-18257402D01*
X12153899Y-18238354D01*
X12172946Y-18228830D01*
X12211042Y-18228830D01*
X12230089Y-18238354D01*
X12239613Y-18257402D01*
X12239613Y-18276449D01*
X12144375Y-18295497D01*
X12411042Y-18362164D02*
X12411042Y-18162164D01*
X12411042Y-18352640D02*
X12391994Y-18362164D01*
X12353899Y-18362164D01*
X12334851Y-18352640D01*
X12325327Y-18343116D01*
X12315803Y-18324068D01*
X12315803Y-18266926D01*
X12325327Y-18247878D01*
X12334851Y-18238354D01*
X12353899Y-18228830D01*
X12391994Y-18228830D01*
X12411042Y-18238354D01*
X12487232Y-18438354D02*
X12496756Y-18428830D01*
X12515803Y-18400259D01*
X12525327Y-18381211D01*
X12534851Y-18352640D01*
X12544375Y-18305021D01*
X12544375Y-18266926D01*
X12534851Y-18219307D01*
X12525327Y-18190735D01*
X12515803Y-18171688D01*
X12496756Y-18143116D01*
X12487232Y-18133592D01*
D19*
X5559375Y-18448188D02*
X5734375Y-18623188D01*
X5734375Y-18448188D02*
X5559375Y-18623188D01*
X5646875Y-18623188D02*
X5734375Y-18535688D01*
X5646875Y-18448188D01*
X5559375Y-18535688D01*
X5646875Y-18623188D01*
D11*
X6096756Y-18626164D02*
X5982470Y-18626164D01*
X6039613Y-18626164D02*
X6039613Y-18426164D01*
X6020565Y-18454735D01*
X6001518Y-18473783D01*
X5982470Y-18483307D01*
X6182470Y-18607116D02*
X6191994Y-18616640D01*
X6182470Y-18626164D01*
X6172946Y-18616640D01*
X6182470Y-18607116D01*
X6182470Y-18626164D01*
X6258661Y-18426164D02*
X6391994Y-18426164D01*
X6306280Y-18626164D01*
X6563423Y-18426164D02*
X6468184Y-18426164D01*
X6458661Y-18521402D01*
X6468184Y-18511878D01*
X6487232Y-18502354D01*
X6534851Y-18502354D01*
X6553899Y-18511878D01*
X6563423Y-18521402D01*
X6572946Y-18540449D01*
X6572946Y-18588068D01*
X6563423Y-18607116D01*
X6553899Y-18616640D01*
X6534851Y-18626164D01*
X6487232Y-18626164D01*
X6468184Y-18616640D01*
X6458661Y-18607116D01*
X6696756Y-18426164D02*
X6715803Y-18426164D01*
X6734851Y-18435688D01*
X6744375Y-18445211D01*
X6753899Y-18464259D01*
X6763423Y-18502354D01*
X6763423Y-18549973D01*
X6753899Y-18588068D01*
X6744375Y-18607116D01*
X6734851Y-18616640D01*
X6715803Y-18626164D01*
X6696756Y-18626164D01*
X6677708Y-18616640D01*
X6668184Y-18607116D01*
X6658661Y-18588068D01*
X6649137Y-18549973D01*
X6649137Y-18502354D01*
X6658661Y-18464259D01*
X6668184Y-18445211D01*
X6677708Y-18435688D01*
X6696756Y-18426164D01*
X6849137Y-18626164D02*
X6849137Y-18492830D01*
X6849137Y-18511878D02*
X6858661Y-18502354D01*
X6877708Y-18492830D01*
X6906280Y-18492830D01*
X6925327Y-18502354D01*
X6934851Y-18521402D01*
X6934851Y-18626164D01*
X6934851Y-18521402D02*
X6944375Y-18502354D01*
X6963423Y-18492830D01*
X6991994Y-18492830D01*
X7011042Y-18502354D01*
X7020565Y-18521402D01*
X7020565Y-18626164D01*
X7115803Y-18626164D02*
X7115803Y-18492830D01*
X7115803Y-18511878D02*
X7125327Y-18502354D01*
X7144375Y-18492830D01*
X7172946Y-18492830D01*
X7191994Y-18502354D01*
X7201518Y-18521402D01*
X7201518Y-18626164D01*
X7201518Y-18521402D02*
X7211042Y-18502354D01*
X7230089Y-18492830D01*
X7258661Y-18492830D01*
X7277708Y-18502354D01*
X7287232Y-18521402D01*
X7287232Y-18626164D01*
X7677708Y-18416640D02*
X7506280Y-18673783D01*
X7934851Y-18426164D02*
X7953899Y-18426164D01*
X7972946Y-18435688D01*
X7982470Y-18445211D01*
X7991994Y-18464259D01*
X8001518Y-18502354D01*
X8001518Y-18549973D01*
X7991994Y-18588068D01*
X7982470Y-18607116D01*
X7972946Y-18616640D01*
X7953899Y-18626164D01*
X7934851Y-18626164D01*
X7915803Y-18616640D01*
X7906280Y-18607116D01*
X7896756Y-18588068D01*
X7887232Y-18549973D01*
X7887232Y-18502354D01*
X7896756Y-18464259D01*
X7906280Y-18445211D01*
X7915803Y-18435688D01*
X7934851Y-18426164D01*
X8087232Y-18607116D02*
X8096756Y-18616640D01*
X8087232Y-18626164D01*
X8077708Y-18616640D01*
X8087232Y-18607116D01*
X8087232Y-18626164D01*
X8220565Y-18426164D02*
X8239613Y-18426164D01*
X8258661Y-18435688D01*
X8268184Y-18445211D01*
X8277708Y-18464259D01*
X8287232Y-18502354D01*
X8287232Y-18549973D01*
X8277708Y-18588068D01*
X8268184Y-18607116D01*
X8258661Y-18616640D01*
X8239613Y-18626164D01*
X8220565Y-18626164D01*
X8201518Y-18616640D01*
X8191994Y-18607116D01*
X8182470Y-18588068D01*
X8172946Y-18549973D01*
X8172946Y-18502354D01*
X8182470Y-18464259D01*
X8191994Y-18445211D01*
X8201518Y-18435688D01*
X8220565Y-18426164D01*
X8458661Y-18426164D02*
X8420565Y-18426164D01*
X8401518Y-18435688D01*
X8391994Y-18445211D01*
X8372946Y-18473783D01*
X8363423Y-18511878D01*
X8363423Y-18588068D01*
X8372946Y-18607116D01*
X8382470Y-18616640D01*
X8401518Y-18626164D01*
X8439613Y-18626164D01*
X8458661Y-18616640D01*
X8468185Y-18607116D01*
X8477708Y-18588068D01*
X8477708Y-18540449D01*
X8468185Y-18521402D01*
X8458661Y-18511878D01*
X8439613Y-18502354D01*
X8401518Y-18502354D01*
X8382470Y-18511878D01*
X8372946Y-18521402D01*
X8363423Y-18540449D01*
X8591994Y-18511878D02*
X8572946Y-18502354D01*
X8563423Y-18492830D01*
X8553899Y-18473783D01*
X8553899Y-18464259D01*
X8563423Y-18445211D01*
X8572946Y-18435688D01*
X8591994Y-18426164D01*
X8630089Y-18426164D01*
X8649137Y-18435688D01*
X8658661Y-18445211D01*
X8668185Y-18464259D01*
X8668185Y-18473783D01*
X8658661Y-18492830D01*
X8649137Y-18502354D01*
X8630089Y-18511878D01*
X8591994Y-18511878D01*
X8572946Y-18521402D01*
X8563423Y-18530926D01*
X8553899Y-18549973D01*
X8553899Y-18588068D01*
X8563423Y-18607116D01*
X8572946Y-18616640D01*
X8591994Y-18626164D01*
X8630089Y-18626164D01*
X8649137Y-18616640D01*
X8658661Y-18607116D01*
X8668185Y-18588068D01*
X8668185Y-18549973D01*
X8658661Y-18530926D01*
X8649137Y-18521402D01*
X8630089Y-18511878D01*
X8763423Y-18626164D02*
X8801518Y-18626164D01*
X8820565Y-18616640D01*
X8830089Y-18607116D01*
X8849137Y-18578545D01*
X8858661Y-18540449D01*
X8858661Y-18464259D01*
X8849137Y-18445211D01*
X8839613Y-18435688D01*
X8820565Y-18426164D01*
X8782470Y-18426164D01*
X8763423Y-18435688D01*
X8753899Y-18445211D01*
X8744375Y-18464259D01*
X8744375Y-18511878D01*
X8753899Y-18530926D01*
X8763423Y-18540449D01*
X8782470Y-18549973D01*
X8820565Y-18549973D01*
X8839613Y-18540449D01*
X8849137Y-18530926D01*
X8858661Y-18511878D01*
X8934851Y-18426164D02*
X8934851Y-18464259D01*
X9011042Y-18426164D02*
X9011042Y-18464259D01*
X9306280Y-18702354D02*
X9296756Y-18692830D01*
X9277708Y-18664259D01*
X9268185Y-18645211D01*
X9258661Y-18616640D01*
X9249137Y-18569021D01*
X9249137Y-18530926D01*
X9258661Y-18483307D01*
X9268185Y-18454735D01*
X9277708Y-18435688D01*
X9296756Y-18407116D01*
X9306280Y-18397592D01*
X9363423Y-18426164D02*
X9487232Y-18426164D01*
X9420565Y-18502354D01*
X9449137Y-18502354D01*
X9468185Y-18511878D01*
X9477708Y-18521402D01*
X9487232Y-18540449D01*
X9487232Y-18588068D01*
X9477708Y-18607116D01*
X9468185Y-18616640D01*
X9449137Y-18626164D01*
X9391994Y-18626164D01*
X9372946Y-18616640D01*
X9363423Y-18607116D01*
X9563423Y-18445211D02*
X9572946Y-18435688D01*
X9591994Y-18426164D01*
X9639613Y-18426164D01*
X9658661Y-18435688D01*
X9668185Y-18445211D01*
X9677708Y-18464259D01*
X9677708Y-18483307D01*
X9668185Y-18511878D01*
X9553899Y-18626164D01*
X9677708Y-18626164D01*
X9915804Y-18626164D02*
X9915804Y-18426164D01*
X10001518Y-18626164D02*
X10001518Y-18521402D01*
X9991994Y-18502354D01*
X9972946Y-18492830D01*
X9944375Y-18492830D01*
X9925327Y-18502354D01*
X9915804Y-18511878D01*
X10125327Y-18626164D02*
X10106280Y-18616640D01*
X10096756Y-18607116D01*
X10087232Y-18588068D01*
X10087232Y-18530926D01*
X10096756Y-18511878D01*
X10106280Y-18502354D01*
X10125327Y-18492830D01*
X10153899Y-18492830D01*
X10172946Y-18502354D01*
X10182470Y-18511878D01*
X10191994Y-18530926D01*
X10191994Y-18588068D01*
X10182470Y-18607116D01*
X10172946Y-18616640D01*
X10153899Y-18626164D01*
X10125327Y-18626164D01*
X10306280Y-18626164D02*
X10287232Y-18616640D01*
X10277708Y-18597592D01*
X10277708Y-18426164D01*
X10458661Y-18616640D02*
X10439613Y-18626164D01*
X10401518Y-18626164D01*
X10382470Y-18616640D01*
X10372946Y-18597592D01*
X10372946Y-18521402D01*
X10382470Y-18502354D01*
X10401518Y-18492830D01*
X10439613Y-18492830D01*
X10458661Y-18502354D01*
X10468185Y-18521402D01*
X10468185Y-18540449D01*
X10372946Y-18559497D01*
X10544375Y-18616640D02*
X10563423Y-18626164D01*
X10601518Y-18626164D01*
X10620565Y-18616640D01*
X10630089Y-18597592D01*
X10630089Y-18588068D01*
X10620565Y-18569021D01*
X10601518Y-18559497D01*
X10572946Y-18559497D01*
X10553899Y-18549973D01*
X10544375Y-18530926D01*
X10544375Y-18521402D01*
X10553899Y-18502354D01*
X10572946Y-18492830D01*
X10601518Y-18492830D01*
X10620565Y-18502354D01*
X10696756Y-18702354D02*
X10706280Y-18692830D01*
X10725327Y-18664259D01*
X10734851Y-18645211D01*
X10744375Y-18616640D01*
X10753899Y-18569021D01*
X10753899Y-18530926D01*
X10744375Y-18483307D01*
X10734851Y-18454735D01*
X10725327Y-18435688D01*
X10706280Y-18407116D01*
X10696756Y-18397592D01*
X11058661Y-18702354D02*
X11049137Y-18692830D01*
X11030089Y-18664259D01*
X11020565Y-18645211D01*
X11011042Y-18616640D01*
X11001518Y-18569021D01*
X11001518Y-18530926D01*
X11011042Y-18483307D01*
X11020565Y-18454735D01*
X11030089Y-18435688D01*
X11049137Y-18407116D01*
X11058661Y-18397592D01*
X11134851Y-18492830D02*
X11134851Y-18626164D01*
X11134851Y-18511878D02*
X11144375Y-18502354D01*
X11163423Y-18492830D01*
X11191994Y-18492830D01*
X11211042Y-18502354D01*
X11220565Y-18521402D01*
X11220565Y-18626164D01*
X11344375Y-18626164D02*
X11325327Y-18616640D01*
X11315803Y-18607116D01*
X11306280Y-18588068D01*
X11306280Y-18530926D01*
X11315803Y-18511878D01*
X11325327Y-18502354D01*
X11344375Y-18492830D01*
X11372946Y-18492830D01*
X11391994Y-18502354D01*
X11401518Y-18511878D01*
X11411042Y-18530926D01*
X11411042Y-18588068D01*
X11401518Y-18607116D01*
X11391994Y-18616640D01*
X11372946Y-18626164D01*
X11344375Y-18626164D01*
X11468184Y-18492830D02*
X11544375Y-18492830D01*
X11496756Y-18426164D02*
X11496756Y-18597592D01*
X11506280Y-18616640D01*
X11525327Y-18626164D01*
X11544375Y-18626164D01*
X11763423Y-18492830D02*
X11763423Y-18692830D01*
X11763423Y-18502354D02*
X11782470Y-18492830D01*
X11820565Y-18492830D01*
X11839613Y-18502354D01*
X11849137Y-18511878D01*
X11858661Y-18530926D01*
X11858661Y-18588068D01*
X11849137Y-18607116D01*
X11839613Y-18616640D01*
X11820565Y-18626164D01*
X11782470Y-18626164D01*
X11763423Y-18616640D01*
X11972946Y-18626164D02*
X11953899Y-18616640D01*
X11944375Y-18597592D01*
X11944375Y-18426164D01*
X12134851Y-18626164D02*
X12134851Y-18521402D01*
X12125327Y-18502354D01*
X12106280Y-18492830D01*
X12068184Y-18492830D01*
X12049137Y-18502354D01*
X12134851Y-18616640D02*
X12115803Y-18626164D01*
X12068184Y-18626164D01*
X12049137Y-18616640D01*
X12039613Y-18597592D01*
X12039613Y-18578545D01*
X12049137Y-18559497D01*
X12068184Y-18549973D01*
X12115803Y-18549973D01*
X12134851Y-18540449D01*
X12201518Y-18492830D02*
X12277708Y-18492830D01*
X12230089Y-18426164D02*
X12230089Y-18597592D01*
X12239613Y-18616640D01*
X12258661Y-18626164D01*
X12277708Y-18626164D01*
X12420565Y-18616640D02*
X12401518Y-18626164D01*
X12363423Y-18626164D01*
X12344375Y-18616640D01*
X12334851Y-18597592D01*
X12334851Y-18521402D01*
X12344375Y-18502354D01*
X12363423Y-18492830D01*
X12401518Y-18492830D01*
X12420565Y-18502354D01*
X12430089Y-18521402D01*
X12430089Y-18540449D01*
X12334851Y-18559497D01*
X12601518Y-18626164D02*
X12601518Y-18426164D01*
X12601518Y-18616640D02*
X12582470Y-18626164D01*
X12544375Y-18626164D01*
X12525327Y-18616640D01*
X12515803Y-18607116D01*
X12506280Y-18588068D01*
X12506280Y-18530926D01*
X12515803Y-18511878D01*
X12525327Y-18502354D01*
X12544375Y-18492830D01*
X12582470Y-18492830D01*
X12601518Y-18502354D01*
X12677708Y-18702354D02*
X12687232Y-18692830D01*
X12706280Y-18664259D01*
X12715803Y-18645211D01*
X12725327Y-18616640D01*
X12734851Y-18569021D01*
X12734851Y-18530926D01*
X12725327Y-18483307D01*
X12715803Y-18454735D01*
X12706280Y-18435688D01*
X12687232Y-18407116D01*
X12677708Y-18397592D01*
X5634375Y-18730688D02*
X5634375Y-18930688D01*
X5534375Y-18830688D02*
X5734375Y-18830688D01*
X5734375Y-18830688D02*
G75*
G03*
X5734375Y-18830688I-100000J0D01*
G01*
X5982470Y-18740211D02*
X5991994Y-18730688D01*
X6011042Y-18721164D01*
X6058661Y-18721164D01*
X6077708Y-18730688D01*
X6087232Y-18740211D01*
X6096756Y-18759259D01*
X6096756Y-18778307D01*
X6087232Y-18806878D01*
X5972946Y-18921164D01*
X6096756Y-18921164D01*
X6182470Y-18902116D02*
X6191994Y-18911640D01*
X6182470Y-18921164D01*
X6172946Y-18911640D01*
X6182470Y-18902116D01*
X6182470Y-18921164D01*
X6268184Y-18740211D02*
X6277708Y-18730688D01*
X6296756Y-18721164D01*
X6344375Y-18721164D01*
X6363423Y-18730688D01*
X6372946Y-18740211D01*
X6382470Y-18759259D01*
X6382470Y-18778307D01*
X6372946Y-18806878D01*
X6258661Y-18921164D01*
X6382470Y-18921164D01*
X6506280Y-18721164D02*
X6525327Y-18721164D01*
X6544375Y-18730688D01*
X6553899Y-18740211D01*
X6563423Y-18759259D01*
X6572946Y-18797354D01*
X6572946Y-18844973D01*
X6563423Y-18883068D01*
X6553899Y-18902116D01*
X6544375Y-18911640D01*
X6525327Y-18921164D01*
X6506280Y-18921164D01*
X6487232Y-18911640D01*
X6477708Y-18902116D01*
X6468184Y-18883068D01*
X6458661Y-18844973D01*
X6458661Y-18797354D01*
X6468184Y-18759259D01*
X6477708Y-18740211D01*
X6487232Y-18730688D01*
X6506280Y-18721164D01*
X6696756Y-18721164D02*
X6715803Y-18721164D01*
X6734851Y-18730688D01*
X6744375Y-18740211D01*
X6753899Y-18759259D01*
X6763423Y-18797354D01*
X6763423Y-18844973D01*
X6753899Y-18883068D01*
X6744375Y-18902116D01*
X6734851Y-18911640D01*
X6715803Y-18921164D01*
X6696756Y-18921164D01*
X6677708Y-18911640D01*
X6668184Y-18902116D01*
X6658661Y-18883068D01*
X6649137Y-18844973D01*
X6649137Y-18797354D01*
X6658661Y-18759259D01*
X6668184Y-18740211D01*
X6677708Y-18730688D01*
X6696756Y-18721164D01*
X6849137Y-18921164D02*
X6849137Y-18787830D01*
X6849137Y-18806878D02*
X6858661Y-18797354D01*
X6877708Y-18787830D01*
X6906280Y-18787830D01*
X6925327Y-18797354D01*
X6934851Y-18816402D01*
X6934851Y-18921164D01*
X6934851Y-18816402D02*
X6944375Y-18797354D01*
X6963423Y-18787830D01*
X6991994Y-18787830D01*
X7011042Y-18797354D01*
X7020565Y-18816402D01*
X7020565Y-18921164D01*
X7115803Y-18921164D02*
X7115803Y-18787830D01*
X7115803Y-18806878D02*
X7125327Y-18797354D01*
X7144375Y-18787830D01*
X7172946Y-18787830D01*
X7191994Y-18797354D01*
X7201518Y-18816402D01*
X7201518Y-18921164D01*
X7201518Y-18816402D02*
X7211042Y-18797354D01*
X7230089Y-18787830D01*
X7258661Y-18787830D01*
X7277708Y-18797354D01*
X7287232Y-18816402D01*
X7287232Y-18921164D01*
X7677708Y-18711640D02*
X7506280Y-18968783D01*
X7934851Y-18721164D02*
X7953899Y-18721164D01*
X7972946Y-18730688D01*
X7982470Y-18740211D01*
X7991994Y-18759259D01*
X8001518Y-18797354D01*
X8001518Y-18844973D01*
X7991994Y-18883068D01*
X7982470Y-18902116D01*
X7972946Y-18911640D01*
X7953899Y-18921164D01*
X7934851Y-18921164D01*
X7915803Y-18911640D01*
X7906280Y-18902116D01*
X7896756Y-18883068D01*
X7887232Y-18844973D01*
X7887232Y-18797354D01*
X7896756Y-18759259D01*
X7906280Y-18740211D01*
X7915803Y-18730688D01*
X7934851Y-18721164D01*
X8087232Y-18902116D02*
X8096756Y-18911640D01*
X8087232Y-18921164D01*
X8077708Y-18911640D01*
X8087232Y-18902116D01*
X8087232Y-18921164D01*
X8220565Y-18721164D02*
X8239613Y-18721164D01*
X8258661Y-18730688D01*
X8268184Y-18740211D01*
X8277708Y-18759259D01*
X8287232Y-18797354D01*
X8287232Y-18844973D01*
X8277708Y-18883068D01*
X8268184Y-18902116D01*
X8258661Y-18911640D01*
X8239613Y-18921164D01*
X8220565Y-18921164D01*
X8201518Y-18911640D01*
X8191994Y-18902116D01*
X8182470Y-18883068D01*
X8172946Y-18844973D01*
X8172946Y-18797354D01*
X8182470Y-18759259D01*
X8191994Y-18740211D01*
X8201518Y-18730688D01*
X8220565Y-18721164D01*
X8401518Y-18806878D02*
X8382470Y-18797354D01*
X8372946Y-18787830D01*
X8363423Y-18768783D01*
X8363423Y-18759259D01*
X8372946Y-18740211D01*
X8382470Y-18730688D01*
X8401518Y-18721164D01*
X8439613Y-18721164D01*
X8458661Y-18730688D01*
X8468185Y-18740211D01*
X8477708Y-18759259D01*
X8477708Y-18768783D01*
X8468185Y-18787830D01*
X8458661Y-18797354D01*
X8439613Y-18806878D01*
X8401518Y-18806878D01*
X8382470Y-18816402D01*
X8372946Y-18825926D01*
X8363423Y-18844973D01*
X8363423Y-18883068D01*
X8372946Y-18902116D01*
X8382470Y-18911640D01*
X8401518Y-18921164D01*
X8439613Y-18921164D01*
X8458661Y-18911640D01*
X8468185Y-18902116D01*
X8477708Y-18883068D01*
X8477708Y-18844973D01*
X8468185Y-18825926D01*
X8458661Y-18816402D01*
X8439613Y-18806878D01*
X8649137Y-18721164D02*
X8611042Y-18721164D01*
X8591994Y-18730688D01*
X8582470Y-18740211D01*
X8563423Y-18768783D01*
X8553899Y-18806878D01*
X8553899Y-18883068D01*
X8563423Y-18902116D01*
X8572946Y-18911640D01*
X8591994Y-18921164D01*
X8630089Y-18921164D01*
X8649137Y-18911640D01*
X8658661Y-18902116D01*
X8668185Y-18883068D01*
X8668185Y-18835449D01*
X8658661Y-18816402D01*
X8649137Y-18806878D01*
X8630089Y-18797354D01*
X8591994Y-18797354D01*
X8572946Y-18806878D01*
X8563423Y-18816402D01*
X8553899Y-18835449D01*
X8839613Y-18721164D02*
X8801518Y-18721164D01*
X8782470Y-18730688D01*
X8772946Y-18740211D01*
X8753899Y-18768783D01*
X8744375Y-18806878D01*
X8744375Y-18883068D01*
X8753899Y-18902116D01*
X8763423Y-18911640D01*
X8782470Y-18921164D01*
X8820565Y-18921164D01*
X8839613Y-18911640D01*
X8849137Y-18902116D01*
X8858661Y-18883068D01*
X8858661Y-18835449D01*
X8849137Y-18816402D01*
X8839613Y-18806878D01*
X8820565Y-18797354D01*
X8782470Y-18797354D01*
X8763423Y-18806878D01*
X8753899Y-18816402D01*
X8744375Y-18835449D01*
X8934851Y-18721164D02*
X8934851Y-18759259D01*
X9011042Y-18721164D02*
X9011042Y-18759259D01*
X9306280Y-18997354D02*
X9296756Y-18987830D01*
X9277708Y-18959259D01*
X9268185Y-18940211D01*
X9258661Y-18911640D01*
X9249137Y-18864021D01*
X9249137Y-18825926D01*
X9258661Y-18778307D01*
X9268185Y-18749735D01*
X9277708Y-18730688D01*
X9296756Y-18702116D01*
X9306280Y-18692592D01*
X9487232Y-18921164D02*
X9372946Y-18921164D01*
X9430089Y-18921164D02*
X9430089Y-18721164D01*
X9411042Y-18749735D01*
X9391994Y-18768783D01*
X9372946Y-18778307D01*
X9563423Y-18740211D02*
X9572946Y-18730688D01*
X9591994Y-18721164D01*
X9639613Y-18721164D01*
X9658661Y-18730688D01*
X9668185Y-18740211D01*
X9677708Y-18759259D01*
X9677708Y-18778307D01*
X9668185Y-18806878D01*
X9553899Y-18921164D01*
X9677708Y-18921164D01*
X9915804Y-18921164D02*
X9915804Y-18721164D01*
X10001518Y-18921164D02*
X10001518Y-18816402D01*
X9991994Y-18797354D01*
X9972946Y-18787830D01*
X9944375Y-18787830D01*
X9925327Y-18797354D01*
X9915804Y-18806878D01*
X10125327Y-18921164D02*
X10106280Y-18911640D01*
X10096756Y-18902116D01*
X10087232Y-18883068D01*
X10087232Y-18825926D01*
X10096756Y-18806878D01*
X10106280Y-18797354D01*
X10125327Y-18787830D01*
X10153899Y-18787830D01*
X10172946Y-18797354D01*
X10182470Y-18806878D01*
X10191994Y-18825926D01*
X10191994Y-18883068D01*
X10182470Y-18902116D01*
X10172946Y-18911640D01*
X10153899Y-18921164D01*
X10125327Y-18921164D01*
X10306280Y-18921164D02*
X10287232Y-18911640D01*
X10277708Y-18892592D01*
X10277708Y-18721164D01*
X10458661Y-18911640D02*
X10439613Y-18921164D01*
X10401518Y-18921164D01*
X10382470Y-18911640D01*
X10372946Y-18892592D01*
X10372946Y-18816402D01*
X10382470Y-18797354D01*
X10401518Y-18787830D01*
X10439613Y-18787830D01*
X10458661Y-18797354D01*
X10468185Y-18816402D01*
X10468185Y-18835449D01*
X10372946Y-18854497D01*
X10544375Y-18911640D02*
X10563423Y-18921164D01*
X10601518Y-18921164D01*
X10620565Y-18911640D01*
X10630089Y-18892592D01*
X10630089Y-18883068D01*
X10620565Y-18864021D01*
X10601518Y-18854497D01*
X10572946Y-18854497D01*
X10553899Y-18844973D01*
X10544375Y-18825926D01*
X10544375Y-18816402D01*
X10553899Y-18797354D01*
X10572946Y-18787830D01*
X10601518Y-18787830D01*
X10620565Y-18797354D01*
X10696756Y-18997354D02*
X10706280Y-18987830D01*
X10725327Y-18959259D01*
X10734851Y-18940211D01*
X10744375Y-18911640D01*
X10753899Y-18864021D01*
X10753899Y-18825926D01*
X10744375Y-18778307D01*
X10734851Y-18749735D01*
X10725327Y-18730688D01*
X10706280Y-18702116D01*
X10696756Y-18692592D01*
X11058661Y-18997354D02*
X11049137Y-18987830D01*
X11030089Y-18959259D01*
X11020565Y-18940211D01*
X11011042Y-18911640D01*
X11001518Y-18864021D01*
X11001518Y-18825926D01*
X11011042Y-18778307D01*
X11020565Y-18749735D01*
X11030089Y-18730688D01*
X11049137Y-18702116D01*
X11058661Y-18692592D01*
X11134851Y-18787830D02*
X11134851Y-18921164D01*
X11134851Y-18806878D02*
X11144375Y-18797354D01*
X11163423Y-18787830D01*
X11191994Y-18787830D01*
X11211042Y-18797354D01*
X11220565Y-18816402D01*
X11220565Y-18921164D01*
X11344375Y-18921164D02*
X11325327Y-18911640D01*
X11315803Y-18902116D01*
X11306280Y-18883068D01*
X11306280Y-18825926D01*
X11315803Y-18806878D01*
X11325327Y-18797354D01*
X11344375Y-18787830D01*
X11372946Y-18787830D01*
X11391994Y-18797354D01*
X11401518Y-18806878D01*
X11411042Y-18825926D01*
X11411042Y-18883068D01*
X11401518Y-18902116D01*
X11391994Y-18911640D01*
X11372946Y-18921164D01*
X11344375Y-18921164D01*
X11468184Y-18787830D02*
X11544375Y-18787830D01*
X11496756Y-18721164D02*
X11496756Y-18892592D01*
X11506280Y-18911640D01*
X11525327Y-18921164D01*
X11544375Y-18921164D01*
X11763423Y-18787830D02*
X11763423Y-18987830D01*
X11763423Y-18797354D02*
X11782470Y-18787830D01*
X11820565Y-18787830D01*
X11839613Y-18797354D01*
X11849137Y-18806878D01*
X11858661Y-18825926D01*
X11858661Y-18883068D01*
X11849137Y-18902116D01*
X11839613Y-18911640D01*
X11820565Y-18921164D01*
X11782470Y-18921164D01*
X11763423Y-18911640D01*
X11972946Y-18921164D02*
X11953899Y-18911640D01*
X11944375Y-18892592D01*
X11944375Y-18721164D01*
X12134851Y-18921164D02*
X12134851Y-18816402D01*
X12125327Y-18797354D01*
X12106280Y-18787830D01*
X12068184Y-18787830D01*
X12049137Y-18797354D01*
X12134851Y-18911640D02*
X12115803Y-18921164D01*
X12068184Y-18921164D01*
X12049137Y-18911640D01*
X12039613Y-18892592D01*
X12039613Y-18873545D01*
X12049137Y-18854497D01*
X12068184Y-18844973D01*
X12115803Y-18844973D01*
X12134851Y-18835449D01*
X12201518Y-18787830D02*
X12277708Y-18787830D01*
X12230089Y-18721164D02*
X12230089Y-18892592D01*
X12239613Y-18911640D01*
X12258661Y-18921164D01*
X12277708Y-18921164D01*
X12420565Y-18911640D02*
X12401518Y-18921164D01*
X12363423Y-18921164D01*
X12344375Y-18911640D01*
X12334851Y-18892592D01*
X12334851Y-18816402D01*
X12344375Y-18797354D01*
X12363423Y-18787830D01*
X12401518Y-18787830D01*
X12420565Y-18797354D01*
X12430089Y-18816402D01*
X12430089Y-18835449D01*
X12334851Y-18854497D01*
X12601518Y-18921164D02*
X12601518Y-18721164D01*
X12601518Y-18911640D02*
X12582470Y-18921164D01*
X12544375Y-18921164D01*
X12525327Y-18911640D01*
X12515803Y-18902116D01*
X12506280Y-18883068D01*
X12506280Y-18825926D01*
X12515803Y-18806878D01*
X12525327Y-18797354D01*
X12544375Y-18787830D01*
X12582470Y-18787830D01*
X12601518Y-18797354D01*
X12677708Y-18997354D02*
X12687232Y-18987830D01*
X12706280Y-18959259D01*
X12715803Y-18940211D01*
X12725327Y-18911640D01*
X12734851Y-18864021D01*
X12734851Y-18825926D01*
X12725327Y-18778307D01*
X12715803Y-18749735D01*
X12706280Y-18730688D01*
X12687232Y-18702116D01*
X12677708Y-18692592D01*
M02*
