G04 #@! TF.GenerationSoftware,KiCad,Pcbnew,(6.0.10)*
G04 #@! TF.CreationDate,2023-07-09T19:41:39+01:00*
G04 #@! TF.ProjectId,magnetonekeys,6d61676e-6574-46f6-9e65-6b6579732e6b,rev?*
G04 #@! TF.SameCoordinates,Original*
G04 #@! TF.FileFunction,Soldermask,Top*
G04 #@! TF.FilePolarity,Negative*
%FSLAX46Y46*%
G04 Gerber Fmt 4.6, Leading zero omitted, Abs format (unit mm)*
G04 Created by KiCad (PCBNEW (6.0.10)) date 2023-07-09 19:41:39*
%MOMM*%
%LPD*%
G01*
G04 APERTURE LIST*
%ADD10C,2.200000*%
%ADD11C,0.500000*%
%ADD12C,1.750000*%
%ADD13R,1.700000X1.700000*%
%ADD14O,1.700000X1.700000*%
%ADD15C,2.400000*%
%ADD16O,2.400000X2.400000*%
G04 APERTURE END LIST*
D10*
X77393750Y-109786875D03*
X112893750Y-64786875D03*
X229393750Y-107786875D03*
X196393750Y-72786875D03*
X158393750Y-153786875D03*
X158393750Y-35786875D03*
X148393750Y-35786875D03*
X247393750Y-35786875D03*
X247393750Y-153786875D03*
X148393750Y-153786875D03*
X61393750Y-153786875D03*
X61393750Y-35786875D03*
D11*
X153393750Y-58286875D03*
X153393750Y-55496875D03*
X153393750Y-61076875D03*
X153393750Y-103286875D03*
X153393750Y-100496875D03*
X153393750Y-106076875D03*
X153393750Y-148286875D03*
X153393750Y-145496875D03*
X153393750Y-151076875D03*
D12*
X170042612Y-146681161D03*
X178563504Y-141147629D03*
D13*
X141730816Y-103174481D03*
D14*
X141730816Y-105714481D03*
X141730816Y-108254481D03*
X141730816Y-110794481D03*
D12*
X181022868Y-90906126D03*
X190738924Y-87935630D03*
D13*
X166496350Y-103174481D03*
D14*
X166496350Y-105714481D03*
X166496350Y-108254481D03*
X166496350Y-110794481D03*
D13*
X213010000Y-109276261D03*
D14*
X213010000Y-106736261D03*
X213010000Y-104196261D03*
X213010000Y-101656261D03*
X213010000Y-99116261D03*
X213010000Y-96576261D03*
X213010000Y-94036261D03*
X213010000Y-91496261D03*
D12*
X186019287Y-136305789D03*
X194540179Y-130772257D03*
X113328888Y-131323680D03*
X121849780Y-136857212D03*
D13*
X136968312Y-94115721D03*
X171258854Y-94115721D03*
D12*
X101301194Y-43145896D03*
X111017250Y-46116392D03*
X70261665Y-46936445D03*
X79977721Y-49906941D03*
X132773977Y-72688520D03*
X123057921Y-69718024D03*
X129305562Y-141699054D03*
X137826454Y-147232586D03*
X95731513Y-61363502D03*
X105447569Y-64333998D03*
X175453189Y-72688520D03*
X185169245Y-69718024D03*
X117488242Y-87935630D03*
X127204298Y-90906126D03*
X197209916Y-46116392D03*
X206925972Y-43145896D03*
X228249445Y-49906941D03*
X237965501Y-46936445D03*
X233819126Y-68124547D03*
X243535182Y-65154051D03*
X202779597Y-64333998D03*
X212495653Y-61363502D03*
X64691984Y-65154051D03*
X74408040Y-68124547D03*
D15*
X143953750Y-119595011D03*
D16*
X143953750Y-134835011D03*
D14*
X95217166Y-91496261D03*
X95217166Y-94036261D03*
X95217166Y-96576261D03*
X95217166Y-99116261D03*
X95217166Y-101656261D03*
X95217166Y-104196261D03*
X95217166Y-106736261D03*
D13*
X95217166Y-109276261D03*
D15*
X164273750Y-119595011D03*
D16*
X164273750Y-134835011D03*
M02*
