G04 #@! TF.GenerationSoftware,KiCad,Pcbnew,(6.0.10)*
G04 #@! TF.CreationDate,2023-07-09T19:41:39+01:00*
G04 #@! TF.ProjectId,magnetonekeys,6d61676e-6574-46f6-9e65-6b6579732e6b,rev?*
G04 #@! TF.SameCoordinates,Original*
G04 #@! TF.FileFunction,Copper,L2,Bot*
G04 #@! TF.FilePolarity,Positive*
%FSLAX46Y46*%
G04 Gerber Fmt 4.6, Leading zero omitted, Abs format (unit mm)*
G04 Created by KiCad (PCBNEW (6.0.10)) date 2023-07-09 19:41:39*
%MOMM*%
%LPD*%
G01*
G04 APERTURE LIST*
G04 Aperture macros list*
%AMRoundRect*
0 Rectangle with rounded corners*
0 $1 Rounding radius*
0 $2 $3 $4 $5 $6 $7 $8 $9 X,Y pos of 4 corners*
0 Add a 4 corners polygon primitive as box body*
4,1,4,$2,$3,$4,$5,$6,$7,$8,$9,$2,$3,0*
0 Add four circle primitives for the rounded corners*
1,1,$1+$1,$2,$3*
1,1,$1+$1,$4,$5*
1,1,$1+$1,$6,$7*
1,1,$1+$1,$8,$9*
0 Add four rect primitives between the rounded corners*
20,1,$1+$1,$2,$3,$4,$5,0*
20,1,$1+$1,$4,$5,$6,$7,0*
20,1,$1+$1,$6,$7,$8,$9,0*
20,1,$1+$1,$8,$9,$2,$3,0*%
%AMRotRect*
0 Rectangle, with rotation*
0 The origin of the aperture is its center*
0 $1 length*
0 $2 width*
0 $3 Rotation angle, in degrees counterclockwise*
0 Add horizontal line*
21,1,$1,$2,0,0,$3*%
G04 Aperture macros list end*
G04 #@! TA.AperFunction,SMDPad,CuDef*
%ADD10RoundRect,0.039200X-0.254558X-0.595101X0.595101X0.254558X0.254558X0.595101X-0.595101X-0.254558X0*%
G04 #@! TD*
G04 #@! TA.AperFunction,SMDPad,CuDef*
%ADD11RoundRect,0.225000X0.443559X0.556332X-0.688646X-0.178930X-0.443559X-0.556332X0.688646X0.178930X0*%
G04 #@! TD*
G04 #@! TA.AperFunction,ComponentPad*
%ADD12R,1.700000X1.700000*%
G04 #@! TD*
G04 #@! TA.AperFunction,ComponentPad*
%ADD13O,1.700000X1.700000*%
G04 #@! TD*
G04 #@! TA.AperFunction,SMDPad,CuDef*
%ADD14RoundRect,0.225000X-0.579722X-0.412519X0.711289X-0.017818X0.579722X0.412519X-0.711289X0.017818X0*%
G04 #@! TD*
G04 #@! TA.AperFunction,SMDPad,CuDef*
%ADD15RoundRect,0.225000X-0.688646X0.178930X0.443559X-0.556332X0.688646X-0.178930X-0.443559X0.556332X0*%
G04 #@! TD*
G04 #@! TA.AperFunction,SMDPad,CuDef*
%ADD16RoundRect,0.225000X-0.711289X-0.017818X0.579722X-0.412519X0.711289X0.017818X-0.579722X0.412519X0*%
G04 #@! TD*
G04 #@! TA.AperFunction,SMDPad,CuDef*
%ADD17RoundRect,0.225000X0.711289X0.017818X-0.579722X0.412519X-0.711289X-0.017818X0.579722X-0.412519X0*%
G04 #@! TD*
G04 #@! TA.AperFunction,SMDPad,CuDef*
%ADD18RotRect,0.800000X0.750000X56.000000*%
G04 #@! TD*
G04 #@! TA.AperFunction,SMDPad,CuDef*
%ADD19RotRect,0.800000X0.750000X253.000000*%
G04 #@! TD*
G04 #@! TA.AperFunction,SMDPad,CuDef*
%ADD20RoundRect,0.039200X0.405935X-0.504145X0.054621X0.644951X-0.405935X0.504145X-0.054621X-0.644951X0*%
G04 #@! TD*
G04 #@! TA.AperFunction,SMDPad,CuDef*
%ADD21RoundRect,0.039200X-0.405935X0.504145X-0.054621X-0.644951X0.405935X-0.504145X0.054621X0.644951X0*%
G04 #@! TD*
G04 #@! TA.AperFunction,SMDPad,CuDef*
%ADD22RotRect,0.800000X0.750000X73.000000*%
G04 #@! TD*
G04 #@! TA.AperFunction,SMDPad,CuDef*
%ADD23RotRect,0.800000X0.750000X343.000000*%
G04 #@! TD*
G04 #@! TA.AperFunction,SMDPad,CuDef*
%ADD24RotRect,0.800000X0.750000X107.000000*%
G04 #@! TD*
G04 #@! TA.AperFunction,SMDPad,CuDef*
%ADD25RotRect,0.800000X0.750000X316.000000*%
G04 #@! TD*
G04 #@! TA.AperFunction,SMDPad,CuDef*
%ADD26RoundRect,0.039200X-0.529171X0.372724X0.125267X-0.635022X0.529171X-0.372724X-0.125267X0.635022X0*%
G04 #@! TD*
G04 #@! TA.AperFunction,ComponentPad*
%ADD27C,2.400000*%
G04 #@! TD*
G04 #@! TA.AperFunction,ComponentPad*
%ADD28O,2.400000X2.400000*%
G04 #@! TD*
G04 #@! TA.AperFunction,SMDPad,CuDef*
%ADD29RoundRect,0.039200X0.240800X-0.600800X0.240800X0.600800X-0.240800X0.600800X-0.240800X-0.600800X0*%
G04 #@! TD*
G04 #@! TA.AperFunction,SMDPad,CuDef*
%ADD30RoundRect,0.039200X0.504145X0.405935X-0.644951X0.054621X-0.504145X-0.405935X0.644951X-0.054621X0*%
G04 #@! TD*
G04 #@! TA.AperFunction,SMDPad,CuDef*
%ADD31RotRect,0.800000X0.750000X348.000000*%
G04 #@! TD*
G04 #@! TA.AperFunction,ViaPad*
%ADD32C,1.250000*%
G04 #@! TD*
G04 #@! TA.AperFunction,ViaPad*
%ADD33C,0.800000*%
G04 #@! TD*
G04 #@! TA.AperFunction,ViaPad*
%ADD34C,0.450000*%
G04 #@! TD*
G04 #@! TA.AperFunction,ViaPad*
%ADD35C,0.750000*%
G04 #@! TD*
G04 #@! TA.AperFunction,Conductor*
%ADD36C,0.500000*%
G04 #@! TD*
G04 #@! TA.AperFunction,Conductor*
%ADD37C,0.300000*%
G04 #@! TD*
G04 APERTURE END LIST*
D10*
X133512975Y-145862356D03*
X132169472Y-144518853D03*
X134290792Y-143741036D03*
D11*
X174418849Y-138676266D03*
X173601891Y-137418260D03*
X168653734Y-140631631D03*
X169470693Y-141889637D03*
D12*
X141730816Y-103174481D03*
D13*
X141730816Y-105714481D03*
X141730816Y-108254481D03*
X141730816Y-110794481D03*
D14*
X181355270Y-84708118D03*
X181793827Y-86142575D03*
X187436026Y-84417582D03*
X186997468Y-82983125D03*
D12*
X166496350Y-103174481D03*
D13*
X166496350Y-105714481D03*
X166496350Y-108254481D03*
X166496350Y-110794481D03*
D12*
X213010000Y-109276261D03*
D13*
X213010000Y-106736261D03*
X213010000Y-104196261D03*
X213010000Y-101656261D03*
X213010000Y-99116261D03*
X213010000Y-96576261D03*
X213010000Y-94036261D03*
X213010000Y-91496261D03*
D11*
X190395524Y-128300894D03*
X189578566Y-127042888D03*
X184630409Y-130256259D03*
X185447368Y-131514265D03*
D15*
X118290501Y-127594311D03*
X117473543Y-128852317D03*
X122421699Y-132065688D03*
X123238658Y-130807682D03*
D12*
X136968312Y-94115721D03*
X171258854Y-94115721D03*
D16*
X105042650Y-38193391D03*
X104604092Y-39627848D03*
X110246291Y-41352841D03*
X110684848Y-39918384D03*
D17*
X79206762Y-45143390D03*
X79645319Y-43708933D03*
X74003121Y-41983940D03*
X73564563Y-43418397D03*
X126360819Y-66199976D03*
X126799377Y-64765519D03*
X132441575Y-66490512D03*
X132003018Y-67924969D03*
D15*
X134267175Y-137969685D03*
X133450217Y-139227691D03*
X138398373Y-142441062D03*
X139215332Y-141183056D03*
D17*
X104676610Y-59570447D03*
X105115167Y-58135990D03*
X99472969Y-56410997D03*
X99034411Y-57845454D03*
D14*
X175785591Y-66490512D03*
X176224148Y-67924969D03*
X181866347Y-66199976D03*
X181427789Y-64765519D03*
D17*
X126433339Y-86142575D03*
X126871896Y-84708118D03*
X121229698Y-82983125D03*
X120791140Y-84417582D03*
D14*
X197542318Y-39918384D03*
X197980875Y-41352841D03*
X203623074Y-39627848D03*
X203184516Y-38193391D03*
X228581847Y-43708933D03*
X229020404Y-45143390D03*
X234662603Y-43418397D03*
X234224045Y-41983940D03*
X234151528Y-61926539D03*
X234590085Y-63360996D03*
X240232284Y-61636003D03*
X239793726Y-60201546D03*
X203111999Y-58135990D03*
X203550556Y-59570447D03*
X209192755Y-57845454D03*
X208754197Y-56410997D03*
D17*
X73637081Y-63360996D03*
X74075638Y-61926539D03*
X68433440Y-60201546D03*
X67994882Y-61636003D03*
D18*
X117804645Y-125164472D03*
X116965855Y-126408028D03*
D19*
X75157775Y-65459984D03*
X75596333Y-64025526D03*
D20*
X234315644Y-49124152D03*
X232498664Y-49679658D03*
X232807792Y-47441481D03*
D21*
X184672725Y-88718419D03*
X186489705Y-88162913D03*
X186180577Y-90401090D03*
D22*
X103842990Y-35932944D03*
X103404432Y-37367402D03*
D20*
X203276115Y-45333603D03*
X201459135Y-45889109D03*
X201768263Y-43650932D03*
X208845796Y-63551209D03*
X207028816Y-64106715D03*
X207337944Y-61868538D03*
D23*
X83099354Y-46233654D03*
X81664896Y-45795096D03*
D24*
X173201548Y-65654052D03*
X173640106Y-67088510D03*
D25*
X193229627Y-128331430D03*
X192150617Y-127289442D03*
D24*
X225808371Y-42558761D03*
X226246929Y-43993219D03*
D19*
X133402221Y-70372229D03*
X133840779Y-68937771D03*
D10*
X128640733Y-70478488D03*
X126519413Y-71256305D03*
X127862916Y-72599808D03*
D26*
X172948066Y-143572165D03*
X174541540Y-142537351D03*
X174861313Y-144774032D03*
D27*
X143953750Y-119595011D03*
D28*
X143953750Y-134835011D03*
D24*
X200585946Y-57319670D03*
X201024504Y-58754128D03*
X178778644Y-83635358D03*
X179217202Y-85069816D03*
D19*
X127881596Y-88403479D03*
X128320154Y-86969021D03*
D13*
X95217166Y-91496261D03*
X95217166Y-94036261D03*
X95217166Y-96576261D03*
X95217166Y-99116261D03*
X95217166Y-101656261D03*
X95217166Y-104196261D03*
X95217166Y-106736261D03*
D12*
X95217166Y-109276261D03*
D19*
X107027280Y-61340712D03*
X107465838Y-59906254D03*
D29*
X76069693Y-49446693D03*
X74169693Y-49446693D03*
X75119693Y-47396693D03*
D30*
X181013676Y-69995101D03*
X181569182Y-71812081D03*
X179331005Y-71502953D03*
D20*
X239885325Y-67341758D03*
X238068345Y-67897264D03*
X238377473Y-65659087D03*
D10*
X122293237Y-90817414D03*
X120949734Y-89473911D03*
X123071054Y-88696094D03*
D31*
X178913024Y-137624055D03*
X177445802Y-137312187D03*
D27*
X164273750Y-119595011D03*
D28*
X164273750Y-134835011D03*
D24*
X231761501Y-61013464D03*
X232200059Y-62447922D03*
X194852095Y-38986883D03*
X195290653Y-40421341D03*
D29*
X70500012Y-67664299D03*
X68600012Y-67664299D03*
X69550012Y-65614299D03*
D10*
X100536508Y-64245286D03*
X99193005Y-62901783D03*
X101314325Y-62123966D03*
D18*
X133282762Y-135264985D03*
X132443972Y-136508541D03*
D26*
X188924741Y-133196793D03*
X190518215Y-132161979D03*
X190837988Y-134398660D03*
D10*
X117536301Y-135486982D03*
X116192798Y-134143479D03*
X118314118Y-133365662D03*
D29*
X107109222Y-45656144D03*
X105209222Y-45656144D03*
X106159222Y-43606144D03*
D32*
X77619625Y-65064375D03*
X81191500Y-63873750D03*
X171864004Y-85430754D03*
X131840147Y-90846772D03*
X115344580Y-98776920D03*
X193920750Y-124156250D03*
X221305125Y-64625000D03*
X134769625Y-112689375D03*
X119699625Y-118988750D03*
X132049625Y-106458750D03*
X194476061Y-105783855D03*
X190951375Y-120015625D03*
X82330250Y-48443125D03*
X88335250Y-65064375D03*
X178442625Y-105106250D03*
X179593236Y-134358879D03*
D33*
X205191695Y-88519778D03*
D32*
X136339117Y-72467383D03*
X111931500Y-61165000D03*
X227530631Y-63706756D03*
X178582725Y-129504275D03*
X124963375Y-137665625D03*
X123253750Y-80326875D03*
X99450250Y-53823125D03*
X130630250Y-70633125D03*
X126060250Y-69303125D03*
X67890250Y-65623125D03*
X225342795Y-40958580D03*
X140300250Y-144213125D03*
X65360250Y-59273125D03*
X77510250Y-68823125D03*
X242111375Y-62045625D03*
X181058250Y-139733125D03*
X209591375Y-60815625D03*
X176162689Y-146557936D03*
X194268250Y-37563125D03*
X180041375Y-82395625D03*
X168123750Y-137356875D03*
X207378250Y-40133125D03*
X126140250Y-88433125D03*
X103288847Y-62364528D03*
X212168250Y-57873125D03*
X125293750Y-63676875D03*
X237271375Y-43935625D03*
X184788250Y-66723125D03*
X84710250Y-46243125D03*
X196291375Y-127125625D03*
X230495125Y-67119375D03*
X132323375Y-142415625D03*
X113283375Y-43075625D03*
X204110471Y-42914721D03*
X182828250Y-128443125D03*
X199758250Y-54653125D03*
X120553750Y-87616875D03*
X192598250Y-136153125D03*
X124150250Y-134363125D03*
X119390250Y-123603125D03*
X73315890Y-47107485D03*
X233901375Y-58385625D03*
X104422049Y-43524924D03*
X102050250Y-35503125D03*
X191108250Y-83743125D03*
X106250250Y-67803125D03*
X230418548Y-47893423D03*
X71760250Y-40173125D03*
X186838250Y-92563125D03*
X134850250Y-133733125D03*
X173168250Y-63963125D03*
X179908250Y-74113125D03*
D33*
X214263750Y-42635011D03*
X225449689Y-46933133D03*
X230173750Y-58775011D03*
X231963750Y-64185011D03*
X194476061Y-118880741D03*
D34*
X247348250Y-62373125D03*
X216042064Y-113388189D03*
X242401375Y-59333125D03*
D32*
X126849625Y-149926875D03*
X100241500Y-67445625D03*
X179199278Y-94674263D03*
X187927618Y-139121383D03*
X78740875Y-71376875D03*
X174235419Y-149241704D03*
X88335250Y-59111250D03*
X110950875Y-49846875D03*
X117079625Y-139688750D03*
X212916244Y-47457701D03*
X233766719Y-52205685D03*
X191499496Y-101616664D03*
X120482125Y-96020625D03*
X84776095Y-61505220D03*
X174802874Y-79131275D03*
X118163539Y-78098586D03*
D33*
X211591310Y-73488125D03*
D32*
X239758250Y-53183125D03*
D33*
X195088726Y-66578462D03*
X201041856Y-63601897D03*
X116910250Y-59111250D03*
X111681500Y-57815000D03*
D34*
X91842750Y-115006250D03*
X87842750Y-111006250D03*
D33*
X109766500Y-128167500D03*
D35*
X105004000Y-128167500D03*
D36*
X174869157Y-144774032D02*
X174861313Y-144774032D01*
X176162689Y-146557936D02*
X174869157Y-144774032D01*
X168653734Y-140488609D02*
X168653734Y-140631631D01*
X168123750Y-137356875D02*
X168653734Y-140488609D01*
X120553750Y-87616875D02*
X123071054Y-88433929D01*
X123071054Y-88433929D02*
X123071054Y-88696094D01*
X121229698Y-82983125D02*
X123253750Y-80326875D01*
X125293750Y-63676875D02*
X126799377Y-64765519D01*
X119699625Y-118988750D02*
X115779625Y-122908750D01*
X141730816Y-108254481D02*
X133845356Y-108254481D01*
X192150617Y-127289442D02*
X190395524Y-128300894D01*
X173640106Y-67088510D02*
X175785591Y-66490512D01*
X75596333Y-64025526D02*
X73637081Y-63360996D01*
X133840779Y-68937771D02*
X132003018Y-67924969D01*
X190911375Y-120015625D02*
X190951375Y-120015625D01*
X227530631Y-63706756D02*
X232200059Y-62447922D01*
X126433339Y-86142575D02*
X128320154Y-86969021D01*
X133845356Y-108254481D02*
X132049625Y-106458750D01*
X192094809Y-45061929D02*
X195290653Y-40421341D01*
X174418849Y-138676266D02*
X174569045Y-138526070D01*
X179217202Y-85069816D02*
X171864004Y-85430754D01*
X192005435Y-108254481D02*
X194476061Y-105783855D01*
X171864004Y-85430754D02*
X166536375Y-75340625D01*
X131765699Y-91056909D02*
X128320154Y-86969021D01*
X107465838Y-59906254D02*
X105012417Y-59906254D01*
X201024504Y-58754128D02*
X203111999Y-58135990D01*
X131197750Y-135262319D02*
X132443972Y-136508541D01*
X98788689Y-37367402D02*
X103404432Y-37367402D01*
X197764457Y-63204801D02*
X201024504Y-58754128D01*
X184951053Y-113522924D02*
X175426045Y-113522924D01*
X91825013Y-56647888D02*
X97572858Y-38583233D01*
X226246929Y-43993219D02*
X228581847Y-43708933D01*
X175294394Y-108254481D02*
X192005435Y-108254481D01*
X166496350Y-108254481D02*
X175426045Y-113522924D01*
X186736992Y-115308863D02*
X184951053Y-113522924D01*
X174569045Y-138526070D02*
X177445802Y-137312187D01*
X111931500Y-61165000D02*
X107465838Y-59906254D01*
X131765699Y-91056909D02*
X131765699Y-90921220D01*
X193920750Y-124156250D02*
X192150617Y-127289442D01*
X103404432Y-37367402D02*
X105042650Y-38193391D01*
X131765699Y-90921220D02*
X131840147Y-90846772D01*
X131197750Y-134120625D02*
X131197750Y-135262319D01*
X205191695Y-88519778D02*
X201024504Y-73636953D01*
X82330250Y-48443125D02*
X81664896Y-45795096D01*
X195290653Y-40421341D02*
X197542318Y-39918384D01*
X134769625Y-112689375D02*
X131197750Y-134120625D01*
X118290501Y-127594311D02*
X118152138Y-127594311D01*
X221305125Y-64625000D02*
X221305125Y-49146875D01*
X115779625Y-122908750D02*
X115779625Y-125221798D01*
X166496350Y-108254481D02*
X175294394Y-108254481D01*
X201024504Y-73636953D02*
X192094809Y-45061929D01*
X179593236Y-134358879D02*
X178402610Y-136355379D01*
X115344580Y-98776920D02*
X115464455Y-98832045D01*
X190911375Y-120015625D02*
X186736992Y-115308863D01*
X77619625Y-65064375D02*
X75596333Y-64025526D01*
X115464455Y-98832045D02*
X132049625Y-106458750D01*
X118152138Y-127594311D02*
X116965855Y-126408028D01*
X136339117Y-72467383D02*
X133840779Y-68937771D01*
X115464455Y-98832045D02*
X115409330Y-98776920D01*
X178541375Y-129305625D02*
X175518217Y-113615096D01*
X105012417Y-59906254D02*
X104676610Y-59570447D01*
X175294394Y-108254481D02*
X178442625Y-105106250D01*
X88335250Y-65064375D02*
X81191500Y-63873750D01*
X179217202Y-85069816D02*
X181355270Y-84708118D01*
X178402610Y-136355379D02*
X177445802Y-137312187D01*
X132443972Y-136508541D02*
X134267175Y-137969685D01*
X226246929Y-43993219D02*
X221305125Y-49146875D01*
X166536375Y-75340625D02*
X173640106Y-67088510D01*
X234151528Y-61926539D02*
X232200059Y-62447922D01*
X88335250Y-65064375D02*
X91825013Y-56647888D01*
X97572858Y-38583233D02*
X98788689Y-37367402D01*
X115409330Y-98776920D02*
X115344580Y-98776920D01*
X141730816Y-108254481D02*
X134769625Y-112689375D01*
X79206762Y-45143390D02*
X81664896Y-45795096D01*
X115779625Y-125221798D02*
X116965855Y-126408028D01*
X205712973Y-39627848D02*
X203623074Y-39627848D01*
X179331005Y-73445880D02*
X179331005Y-71502953D01*
X232381375Y-59445625D02*
X231761501Y-61013464D01*
X102991091Y-62123966D02*
X101314325Y-62123966D01*
X207378250Y-40133125D02*
X205712973Y-39627848D01*
X121483375Y-134165625D02*
X118314118Y-133365662D01*
X122421699Y-132065688D02*
X122421699Y-132634574D01*
X240341128Y-61636003D02*
X240232284Y-61636003D01*
X173201548Y-63996423D02*
X173168250Y-63963125D01*
X107750250Y-62253125D02*
X107027280Y-61340712D01*
X124963375Y-137665625D02*
X121483375Y-134165625D01*
X75157775Y-65459984D02*
X77500250Y-68833125D01*
X194852095Y-38986883D02*
X194338250Y-37713125D01*
X191128250Y-83723125D02*
X191108250Y-83743125D01*
X200585946Y-57319670D02*
X199768250Y-54623125D01*
X199758250Y-54633125D02*
X199758250Y-54653125D01*
X184630409Y-130256259D02*
X184630409Y-130245284D01*
X230418548Y-47893423D02*
X230939894Y-47441481D01*
X242111375Y-62045625D02*
X240341128Y-61636003D01*
X194439945Y-128331430D02*
X193229627Y-128331430D01*
X84700779Y-46233654D02*
X84710250Y-46243125D01*
X122421699Y-132634574D02*
X124150250Y-134363125D01*
X190843785Y-134398660D02*
X192598250Y-136153125D01*
X184788250Y-66723125D02*
X182835101Y-66199976D01*
X212140579Y-57845454D02*
X212168250Y-57873125D01*
X103842990Y-35932944D02*
X102050250Y-35503125D01*
X201768263Y-43650932D02*
X204110471Y-42914721D01*
X194338250Y-37633125D02*
X194268250Y-37563125D01*
X133282762Y-135264985D02*
X133318390Y-135264985D01*
X130630250Y-70633125D02*
X131631146Y-70372229D01*
X117828903Y-125164472D02*
X119390250Y-123603125D01*
X234662603Y-43437478D02*
X234662603Y-43418397D01*
X190837988Y-134398660D02*
X190843785Y-134398660D01*
X67890250Y-65623125D02*
X69550012Y-65614299D01*
X178778644Y-83635358D02*
X180018377Y-82395625D01*
X186180577Y-90401090D02*
X186838250Y-92563125D01*
X236578250Y-65793125D02*
X238377473Y-65659087D01*
X83099354Y-46233654D02*
X84700779Y-46233654D01*
X237271375Y-43935625D02*
X234662603Y-43437478D01*
X74003121Y-41983940D02*
X73571065Y-41983940D01*
X73571065Y-41983940D02*
X71760250Y-40173125D01*
X99472969Y-53845844D02*
X99450250Y-53823125D01*
X179908250Y-74113125D02*
X179331005Y-73445880D01*
X110246291Y-41379166D02*
X110246291Y-41352841D01*
X207442837Y-61868538D02*
X207337944Y-61868538D01*
X230939894Y-47441481D02*
X232807792Y-47441481D01*
X113283375Y-43075625D02*
X110246291Y-41379166D01*
X180018377Y-82395625D02*
X180041375Y-82395625D01*
X184630409Y-130245284D02*
X182828250Y-128443125D01*
X178949180Y-137624055D02*
X181058250Y-139733125D01*
X126169896Y-88403479D02*
X126140250Y-88433125D01*
X103288847Y-62364528D02*
X102991091Y-62123966D01*
X104422049Y-43524924D02*
X106159222Y-43606144D01*
X199768250Y-54623125D02*
X199758250Y-54633125D01*
X225808371Y-42558761D02*
X225342795Y-40958580D01*
X187436026Y-84417582D02*
X191128250Y-83723125D01*
X230495125Y-67119375D02*
X236578250Y-65793125D01*
X138528187Y-142441062D02*
X140300250Y-144213125D01*
X99472969Y-56410997D02*
X99472969Y-53845844D01*
X106250250Y-67803125D02*
X107750250Y-62253125D01*
X131631146Y-70372229D02*
X133402221Y-70372229D01*
X132323375Y-142415625D02*
X134290792Y-143741036D01*
X138398373Y-142441062D02*
X138528187Y-142441062D01*
X127881596Y-88403479D02*
X126169896Y-88403479D01*
X68433440Y-60201546D02*
X65360250Y-59273125D01*
X117804645Y-125164472D02*
X117828903Y-125164472D01*
X194338250Y-37713125D02*
X194338250Y-37633125D01*
X173201548Y-65654052D02*
X173201548Y-63996423D01*
X209591375Y-60815625D02*
X207442837Y-61868538D01*
X133318390Y-135264985D02*
X134850250Y-133733125D01*
X75119693Y-47396693D02*
X73315890Y-47107485D01*
X178913024Y-137624055D02*
X178949180Y-137624055D01*
X182835101Y-66199976D02*
X181866347Y-66199976D01*
X77500250Y-68833125D02*
X77510250Y-68823125D01*
X209192755Y-57845454D02*
X212140579Y-57845454D01*
X196291375Y-127125625D02*
X194439945Y-128331430D01*
X126060250Y-69303125D02*
X128640733Y-70478488D01*
X233901375Y-58385625D02*
X232381375Y-59445625D01*
D37*
X141730816Y-110794481D02*
X143953750Y-113017415D01*
X164273750Y-113017081D02*
X164273750Y-119595011D01*
X166496350Y-110794481D02*
X164273750Y-113017081D01*
X143953750Y-113017415D02*
X143953750Y-119595011D01*
D36*
X99050875Y-97211250D02*
X95217166Y-99116261D01*
X208763573Y-96854160D02*
X213010000Y-99116261D01*
X181569182Y-71812081D02*
X192094809Y-73636953D01*
X192094809Y-73636953D02*
X208763573Y-96854160D01*
X126519413Y-71256305D02*
X114529000Y-75780000D01*
X114529000Y-75780000D02*
X99050875Y-97211250D01*
X189118244Y-89115091D02*
X207572947Y-102807290D01*
X186489705Y-88162913D02*
X189118244Y-89115091D01*
X120949734Y-89473911D02*
X95217166Y-104196261D01*
X207572947Y-102807290D02*
X213010000Y-104196261D01*
X220074520Y-76018205D02*
X217097955Y-83161961D01*
X212930764Y-52800998D02*
X220074520Y-76018205D01*
X201459135Y-45889109D02*
X202215130Y-48633807D01*
X117861500Y-65025000D02*
X95217166Y-91496261D01*
X217097955Y-83161961D02*
X213010000Y-91496261D01*
X105209222Y-45656144D02*
X117861500Y-65025000D01*
X202215130Y-48633807D02*
X212930764Y-52800998D01*
X209358886Y-90305717D02*
X213010000Y-94036261D01*
X207028816Y-64106715D02*
X209358886Y-90305717D01*
X99193005Y-62901783D02*
X90716500Y-71378288D01*
X90716500Y-89535595D02*
X95217166Y-94036261D01*
X90716500Y-71378288D02*
X90716500Y-89535595D01*
X92462761Y-96576261D02*
X95217166Y-96576261D01*
X89525875Y-93639375D02*
X92462761Y-96576261D01*
X224837024Y-56968189D02*
X220669833Y-90305717D01*
X232498664Y-49679658D02*
X231385467Y-50419746D01*
X80000875Y-65064375D02*
X89525875Y-93639375D01*
X231385467Y-50419746D02*
X224837024Y-56968189D01*
X74169693Y-49446693D02*
X75238375Y-51967500D01*
X220669833Y-90305717D02*
X213010000Y-96576261D01*
X75238375Y-51967500D02*
X80000875Y-65064375D01*
X70475875Y-82923750D02*
X68600012Y-67664299D01*
X218883894Y-98044786D02*
X215272419Y-101656261D01*
X95217166Y-101656261D02*
X70475875Y-82923750D01*
X215272419Y-101656261D02*
X213010000Y-101656261D01*
X238068345Y-67897264D02*
X218883894Y-98044786D01*
X113361229Y-134143479D02*
X95217166Y-115999416D01*
X95217166Y-115999416D02*
X95217166Y-109276261D01*
X192250719Y-142537351D02*
X213010000Y-121778070D01*
X116192798Y-134143479D02*
X113361229Y-134143479D01*
X213010000Y-121778070D02*
X213010000Y-109276261D01*
X174541540Y-142537351D02*
X192250719Y-142537351D01*
X89525875Y-116261250D02*
X90716500Y-107926875D01*
X207572947Y-121261993D02*
X207572947Y-109355733D01*
X210192419Y-106736261D02*
X213010000Y-106736261D01*
X190518215Y-132161979D02*
X196672961Y-132161979D01*
X207572947Y-109355733D02*
X210192419Y-106736261D01*
X90716500Y-107926875D02*
X95217166Y-106736261D01*
X132169472Y-144518853D02*
X117783478Y-144518853D01*
X117783478Y-144518853D02*
X89525875Y-116261250D01*
X196672961Y-132161979D02*
X207572947Y-121261993D01*
D37*
X181793827Y-86142575D02*
X171258854Y-94115721D01*
X176224148Y-67924969D02*
X170085580Y-77294096D01*
X171276206Y-80865974D02*
X186159031Y-81461287D01*
X186159031Y-81461287D02*
X186997468Y-82983125D01*
X170085580Y-77294096D02*
X171276206Y-80865974D01*
X136968312Y-91075562D02*
X130600868Y-84708118D01*
X130600868Y-84708118D02*
X126871896Y-84708118D01*
X136968312Y-94115721D02*
X136968312Y-91075562D01*
X200446543Y-50505011D02*
X208754197Y-56410997D01*
X197980875Y-41352841D02*
X200446543Y-50505011D01*
X214263750Y-42635011D02*
X209822130Y-38193391D01*
X229020404Y-45143390D02*
X225449689Y-46933133D01*
X209822130Y-38193391D02*
X203184516Y-38193391D01*
X230173750Y-58775011D02*
X241053750Y-48035011D01*
X241053750Y-48035011D02*
X239003750Y-41915011D01*
X239003750Y-41915011D02*
X234224045Y-41983940D01*
X234590085Y-63360996D02*
X231963750Y-64185011D01*
X189578566Y-123778236D02*
X194476061Y-118880741D01*
X247348250Y-62373125D02*
X244782625Y-73072500D01*
X242401375Y-59333125D02*
X239793726Y-60201546D01*
X189578566Y-127042888D02*
X189578566Y-123778236D01*
X242101101Y-87329152D02*
X216042064Y-113388189D01*
X242101101Y-87329152D02*
X244782625Y-84647628D01*
X244782625Y-84647628D02*
X244782625Y-73072500D01*
X173601891Y-137418260D02*
X178447211Y-132572940D01*
X184388693Y-132572940D02*
X185447368Y-131514265D01*
X178447211Y-132572940D02*
X184388693Y-132572940D01*
X164273750Y-139280035D02*
X167091663Y-142097948D01*
X169262382Y-142097948D02*
X169470693Y-141889637D01*
X164273750Y-134835011D02*
X164273750Y-139280035D01*
X167091663Y-142097948D02*
X169262382Y-142097948D01*
D36*
X159352594Y-140312009D02*
X167091663Y-149837017D01*
X187927618Y-139121383D02*
X187927618Y-134193916D01*
X100241500Y-67445625D02*
X100241500Y-64540294D01*
X78740875Y-71376875D02*
X72662588Y-69826875D01*
X110950875Y-49846875D02*
X110950875Y-49716875D01*
X142305356Y-103174481D02*
X141730816Y-103174481D01*
X133512975Y-145862356D02*
X135550250Y-150023125D01*
X233766719Y-52205685D02*
X234315644Y-49124152D01*
X180488337Y-69469762D02*
X181013676Y-69995101D01*
X110950875Y-49716875D02*
X107109222Y-45656144D01*
X174802874Y-79131275D02*
X177807297Y-70065075D01*
X147949625Y-140128750D02*
X148320250Y-104983125D01*
X211591310Y-73488125D02*
X208845796Y-63551209D01*
X166496350Y-103174481D02*
X159118250Y-105443125D01*
X167091663Y-149837017D02*
X174235419Y-149241704D01*
X117079625Y-139688750D02*
X117536301Y-135486982D01*
X159118250Y-105443125D02*
X159352594Y-140312009D01*
X166496350Y-103174481D02*
X170699059Y-103174481D01*
X120482125Y-96020625D02*
X124054000Y-96020625D01*
X141730816Y-103174481D02*
X124054000Y-96020625D01*
X178402610Y-69469762D02*
X180488337Y-69469762D01*
X88335250Y-59111250D02*
X84776095Y-61505220D01*
X100241500Y-64540294D02*
X100536508Y-64245286D01*
X170699059Y-103174481D02*
X191499496Y-101616664D01*
X76069693Y-49446693D02*
X88335250Y-59111250D01*
X177807297Y-70065075D02*
X178402610Y-69469762D01*
X172948066Y-143572165D02*
X162924472Y-144479200D01*
X187927618Y-134193916D02*
X188924741Y-133196793D01*
X179199278Y-94674263D02*
X184672725Y-89200815D01*
X124054000Y-96020625D02*
X122293237Y-94259862D01*
X139810250Y-150293125D02*
X147949625Y-140128750D01*
X212916244Y-47457701D02*
X210792146Y-45333603D01*
X184672725Y-89200815D02*
X184672725Y-88718419D01*
X239758250Y-53183125D02*
X245117625Y-61053125D01*
X210792146Y-45333603D02*
X203276115Y-45333603D01*
X126849625Y-149926875D02*
X139810250Y-150293125D01*
X170699059Y-103174481D02*
X179199278Y-94674263D01*
X122293237Y-94259862D02*
X122293237Y-90817414D01*
X245117625Y-61053125D02*
X239885325Y-67341758D01*
X148320250Y-104983125D02*
X142305356Y-103174481D01*
X125244625Y-74589375D02*
X118163539Y-78098586D01*
X127063974Y-73398750D02*
X125244625Y-74589375D01*
X127862916Y-72599808D02*
X127063974Y-73398750D01*
X72662588Y-69826875D02*
X70500012Y-67664299D01*
D37*
X195088726Y-66578462D02*
X191516848Y-64197210D01*
X183777779Y-64197210D02*
X181427789Y-64765519D01*
X191516848Y-64197210D02*
X183777779Y-64197210D01*
X203550556Y-59570447D02*
X201041856Y-63601897D01*
X139215332Y-140865543D02*
X139215332Y-141183056D01*
X143953750Y-134835011D02*
X143953750Y-136127125D01*
X143953750Y-136127125D02*
X139215332Y-140865543D01*
X126360819Y-66199976D02*
X124940250Y-65423125D01*
X124940250Y-65423125D02*
X116910250Y-59111250D01*
X111681500Y-57815000D02*
X105115167Y-58135990D01*
X118441500Y-82405000D02*
X120791140Y-84417582D01*
X137751500Y-68465000D02*
X138671500Y-73285000D01*
X129780250Y-76003125D02*
X119561500Y-79375000D01*
X119561500Y-79375000D02*
X118441500Y-82405000D01*
X138671500Y-73285000D02*
X129780250Y-76003125D01*
X132441575Y-66490512D02*
X137751500Y-68465000D01*
X98661500Y-43405000D02*
X95911500Y-52465000D01*
X95911500Y-52465000D02*
X95991500Y-55585000D01*
X103016118Y-39627848D02*
X98661500Y-43405000D01*
X95991500Y-55585000D02*
X99034411Y-57845454D01*
X104604092Y-39627848D02*
X103016118Y-39627848D01*
X88259442Y-42442500D02*
X97810250Y-33483125D01*
X107385250Y-35298750D02*
X110957125Y-39646107D01*
X79645319Y-43708933D02*
X88259442Y-42442500D01*
X103813375Y-34108125D02*
X107385250Y-35298750D01*
X97810250Y-33483125D02*
X103813375Y-34108125D01*
X110957125Y-39646107D02*
X110684848Y-39918384D01*
X68470250Y-46603125D02*
X68970250Y-44693125D01*
X68970250Y-44693125D02*
X70294978Y-43418397D01*
X74075638Y-61926539D02*
X71666500Y-55539375D01*
X70294978Y-43418397D02*
X73564563Y-43418397D01*
X71666500Y-55539375D02*
X68470250Y-46603125D01*
X91842750Y-115006250D02*
X105004000Y-128167500D01*
X64670250Y-61923125D02*
X62250250Y-64343125D01*
X67994882Y-61636003D02*
X64670250Y-61923125D01*
X62250250Y-64343125D02*
X62250250Y-65053125D01*
X64216697Y-86823750D02*
X87842750Y-111006250D01*
X109766500Y-128167500D02*
X111462933Y-128852317D01*
X62250250Y-65053125D02*
X64216697Y-86823750D01*
X111462933Y-128852317D02*
X117473543Y-128852317D01*
X133450217Y-139227691D02*
X124054000Y-131739375D01*
X124054000Y-131739375D02*
X123238658Y-130807682D01*
M02*
