  0
SECTION
  2
HEADER
  9
$ANGBASE
  50
0.0
  9
$ANGDIR
  70
1
  9
$MEASUREMENT
  70
0
  0
ENDSEC
  0
SECTION
  2
TABLES
  0
TABLE
  2
LTYPE
  70
4
  0
LTYPE
  5
40F
  2
CONTINUOUS
  70
0
  3
Solid line
  72
65
  73
0
  40
0.0
  0
LTYPE
  5
410
  2
DASHDOT
 70
0
  3
Dash Dot ____ _ ____ _
 72
65
 73
4
 40
2.0
 49
1.25
 49
-0.25
 49
0.25
 49
-0.25
  0
LTYPE
  5
411
  2
DASHED
 70
0
  3
Dashed __ __ __ __ __
 72
65
 73
2
 40
0.75
 49
0.5
 49
-0.25
  0
LTYPE
  5
43B
  2
DOTTED
 70
0
  3
Dotted .  .  .  .
 72
65
 73
2
 40
0.2
 49
0.0
 49
-0.2
  0
ENDTAB
  0
TABLE
  2
STYLE
  70
4
  0
STYLE
  2
KICAD
  70
0
  40
0
  41
1
  42
1
  50
0
  71
0
  3
isocp.shx
  0
STYLE
  2
KICADB
  70
0
  40
0
  41
1
  42
1
  50
0
  71
0
  3
isocp.shx
  0
STYLE
  2
KICADI
  70
0
  40
0
  41
1
  42
1
  50
15
  71
0
  3
isocp.shx
  0
STYLE
  2
KICADBI
  70
0
  40
0
  41
1
  42
1
  50
15
  71
0
  3
isocp.shx
  0
ENDTAB
  0
TABLE
  2
LAYER
  70
1
  0
LAYER
  2
BLACK
  70
0
  62
7
  6
CONTINUOUS
  0
ENDTAB
  0
ENDSEC
  0
SECTION
  2
ENTITIES
0
LINE
8
BLACK
6
CONTINUOUS
10
9.73992
20
-1.17075
11
9.75434
21
-1.1708
0
LINE
8
BLACK
6
CONTINUOUS
10
9.75434
20
-1.1708
11
9.76878
21
-1.17223
0
LINE
8
BLACK
6
CONTINUOUS
10
9.76878
20
-1.17223
11
9.78302
21
-1.17502
0
LINE
8
BLACK
6
CONTINUOUS
10
9.78302
20
-1.17502
11
9.79693
21
-1.17915
0
LINE
8
BLACK
6
CONTINUOUS
10
9.79693
20
-1.17915
11
9.81038
21
-1.18458
0
LINE
8
BLACK
6
CONTINUOUS
10
9.81038
20
-1.18458
11
9.82326
21
-1.19126
0
LINE
8
BLACK
6
CONTINUOUS
10
9.82326
20
-1.19126
11
9.83545
21
-1.19914
0
LINE
8
BLACK
6
CONTINUOUS
10
9.83545
20
-1.19914
11
9.84684
21
-1.20813
0
LINE
8
BLACK
6
CONTINUOUS
10
9.84684
20
-1.20813
11
9.85732
21
-1.21816
0
LINE
8
BLACK
6
CONTINUOUS
10
9.85732
20
-1.21816
11
9.86681
21
-1.22915
0
LINE
8
BLACK
6
CONTINUOUS
10
9.86681
20
-1.22915
11
9.87521
21
-1.24098
0
LINE
8
BLACK
6
CONTINUOUS
10
9.87521
20
-1.24098
11
9.88245
21
-1.25355
0
LINE
8
BLACK
6
CONTINUOUS
10
9.88245
20
-1.25355
11
9.88846
21
-1.26676
0
LINE
8
BLACK
6
CONTINUOUS
10
9.88846
20
-1.26676
11
9.8932
21
-1.28048
0
LINE
8
BLACK
6
CONTINUOUS
10
9.8932
20
-1.28048
11
9.89661
21
-1.29458
0
LINE
8
BLACK
6
CONTINUOUS
10
9.89661
20
-1.29458
11
9.89867
21
-1.30894
0
LINE
8
BLACK
6
CONTINUOUS
10
9.89867
20
-1.30894
11
9.89936
21
-1.32343
0
LINE
8
BLACK
6
CONTINUOUS
10
9.89936
20
-1.32343
11
9.89936
21
-1.32344
0
LINE
8
BLACK
6
CONTINUOUS
10
9.89936
20
-1.32344
11
9.89936
21
-4.32232
0
LINE
8
BLACK
6
CONTINUOUS
10
9.89936
20
-4.32232
11
9.89878
21
-4.32371
0
LINE
8
BLACK
6
CONTINUOUS
10
9.89878
20
-4.32371
11
8.00902
21
-6.21347
0
LINE
8
BLACK
6
CONTINUOUS
10
8.00902
20
-6.21347
11
8.00763
21
-6.21405
0
LINE
8
BLACK
6
CONTINUOUS
10
8.00763
20
-6.21405
11
6.23597
21
-6.21405
0
LINE
8
BLACK
6
CONTINUOUS
10
6.23597
20
-6.21405
11
6.22126
21
-6.21337
0
LINE
8
BLACK
6
CONTINUOUS
10
6.22126
20
-6.21337
11
6.20668
21
-6.21134
0
LINE
8
BLACK
6
CONTINUOUS
10
6.20668
20
-6.21134
11
6.19234
21
-6.20796
0
LINE
8
BLACK
6
CONTINUOUS
10
6.19234
20
-6.20796
11
6.17837
21
-6.20328
0
LINE
8
BLACK
6
CONTINUOUS
10
6.17837
20
-6.20328
11
6.1649
21
-6.19733
0
LINE
8
BLACK
6
CONTINUOUS
10
6.1649
20
-6.19733
11
6.15203
21
-6.19017
0
LINE
8
BLACK
6
CONTINUOUS
10
6.15203
20
-6.19017
11
6.13988
21
-6.18184
0
LINE
8
BLACK
6
CONTINUOUS
10
6.13988
20
-6.18184
11
6.12855
21
-6.17244
0
LINE
8
BLACK
6
CONTINUOUS
10
6.12855
20
-6.17244
11
6.11814
21
-6.16202
0
LINE
8
BLACK
6
CONTINUOUS
10
6.11814
20
-6.16202
11
6.10873
21
-6.15069
0
LINE
8
BLACK
6
CONTINUOUS
10
6.10873
20
-6.15069
11
6.10041
21
-6.13854
0
LINE
8
BLACK
6
CONTINUOUS
10
6.10041
20
-6.13854
11
6.09324
21
-6.12567
0
LINE
8
BLACK
6
CONTINUOUS
10
6.09324
20
-6.12567
11
6.08729
21
-6.1122
0
LINE
8
BLACK
6
CONTINUOUS
10
6.08729
20
-6.1122
11
6.08261
21
-6.09824
0
LINE
8
BLACK
6
CONTINUOUS
10
6.08261
20
-6.09824
11
6.07924
21
-6.0839
0
LINE
8
BLACK
6
CONTINUOUS
10
6.07924
20
-6.0839
11
6.0772
21
-6.06931
0
LINE
8
BLACK
6
CONTINUOUS
10
6.0772
20
-6.06931
11
6.07652
21
-6.0546
0
LINE
8
BLACK
6
CONTINUOUS
10
6.07652
20
-6.0546
11
6.07653
21
-6.0546
0
LINE
8
BLACK
6
CONTINUOUS
10
6.07653
20
-6.0546
11
6.07653
21
-6.01523
0
LINE
8
BLACK
6
CONTINUOUS
10
6.07653
20
-6.01523
11
6.07667
21
-6.01488
0
LINE
8
BLACK
6
CONTINUOUS
10
6.07667
20
-6.01488
11
6.07598
21
-6.0079
0
LINE
8
BLACK
6
CONTINUOUS
10
6.07598
20
-6.0079
11
6.07385
21
-6.00085
0
LINE
8
BLACK
6
CONTINUOUS
10
6.07385
20
-6.00085
11
6.07037
21
-5.99435
0
LINE
8
BLACK
6
CONTINUOUS
10
6.07037
20
-5.99435
11
6.0657
21
-5.98866
0
LINE
8
BLACK
6
CONTINUOUS
10
6.0657
20
-5.98866
11
6.06
21
-5.98398
0
LINE
8
BLACK
6
CONTINUOUS
10
6.06
20
-5.98398
11
6.05351
21
-5.98051
0
LINE
8
BLACK
6
CONTINUOUS
10
6.05351
20
-5.98051
11
6.04646
21
-5.97837
0
LINE
8
BLACK
6
CONTINUOUS
10
6.04646
20
-5.97837
11
6.03912
21
-5.97765
0
LINE
8
BLACK
6
CONTINUOUS
10
6.03912
20
-5.97765
11
6.03179
21
-5.97837
0
LINE
8
BLACK
6
CONTINUOUS
10
6.03179
20
-5.97837
11
6.02474
21
-5.98051
0
LINE
8
BLACK
6
CONTINUOUS
10
6.02474
20
-5.98051
11
6.01824
21
-5.98398
0
LINE
8
BLACK
6
CONTINUOUS
10
6.01824
20
-5.98398
11
6.01255
21
-5.98866
0
LINE
8
BLACK
6
CONTINUOUS
10
6.01255
20
-5.98866
11
6.00788
21
-5.99435
0
LINE
8
BLACK
6
CONTINUOUS
10
6.00788
20
-5.99435
11
6.0044
21
-6.00085
0
LINE
8
BLACK
6
CONTINUOUS
10
6.0044
20
-6.00085
11
6.00226
21
-6.0079
0
LINE
8
BLACK
6
CONTINUOUS
10
6.00226
20
-6.0079
11
6.00158
21
-6.01488
0
LINE
8
BLACK
6
CONTINUOUS
10
6.00158
20
-6.01488
11
6.00172
21
-6.01523
0
LINE
8
BLACK
6
CONTINUOUS
10
6.00172
20
-6.01523
11
6.00172
21
-6.0546
0
LINE
8
BLACK
6
CONTINUOUS
10
6.00172
20
-6.0546
11
6.00104
21
-6.06931
0
LINE
8
BLACK
6
CONTINUOUS
10
6.00104
20
-6.06931
11
5.99901
21
-6.0839
0
LINE
8
BLACK
6
CONTINUOUS
10
5.99901
20
-6.0839
11
5.99564
21
-6.09824
0
LINE
8
BLACK
6
CONTINUOUS
10
5.99564
20
-6.09824
11
5.99096
21
-6.1122
0
LINE
8
BLACK
6
CONTINUOUS
10
5.99096
20
-6.1122
11
5.98501
21
-6.12567
0
LINE
8
BLACK
6
CONTINUOUS
10
5.98501
20
-6.12567
11
5.97784
21
-6.13854
0
LINE
8
BLACK
6
CONTINUOUS
10
5.97784
20
-6.13854
11
5.96952
21
-6.15069
0
LINE
8
BLACK
6
CONTINUOUS
10
5.96952
20
-6.15069
11
5.96011
21
-6.16202
0
LINE
8
BLACK
6
CONTINUOUS
10
5.96011
20
-6.16202
11
5.94969
21
-6.17244
0
LINE
8
BLACK
6
CONTINUOUS
10
5.94969
20
-6.17244
11
5.93836
21
-6.18184
0
LINE
8
BLACK
6
CONTINUOUS
10
5.93836
20
-6.18184
11
5.92621
21
-6.19017
0
LINE
8
BLACK
6
CONTINUOUS
10
5.92621
20
-6.19017
11
5.91335
21
-6.19733
0
LINE
8
BLACK
6
CONTINUOUS
10
5.91335
20
-6.19733
11
5.89987
21
-6.20328
0
LINE
8
BLACK
6
CONTINUOUS
10
5.89987
20
-6.20328
11
5.88591
21
-6.20796
0
LINE
8
BLACK
6
CONTINUOUS
10
5.88591
20
-6.20796
11
5.87157
21
-6.21133
0
LINE
8
BLACK
6
CONTINUOUS
10
5.87157
20
-6.21133
11
5.85699
21
-6.21337
0
LINE
8
BLACK
6
CONTINUOUS
10
5.85699
20
-6.21337
11
5.84228
21
-6.21405
0
LINE
8
BLACK
6
CONTINUOUS
10
5.84228
20
-6.21405
11
5.84227
21
-6.21405
0
LINE
8
BLACK
6
CONTINUOUS
10
5.84227
20
-6.21405
11
4.07062
21
-6.21405
0
LINE
8
BLACK
6
CONTINUOUS
10
4.07062
20
-6.21405
11
4.06923
21
-6.21347
0
LINE
8
BLACK
6
CONTINUOUS
10
4.06923
20
-6.21347
11
2.17946
21
-4.32371
0
LINE
8
BLACK
6
CONTINUOUS
10
2.17946
20
-4.32371
11
2.17889
21
-4.32232
0
LINE
8
BLACK
6
CONTINUOUS
10
2.17889
20
-4.32232
11
2.17889
21
-1.33019
0
LINE
8
BLACK
6
CONTINUOUS
10
2.17889
20
-1.33019
11
2.17957
21
-1.31548
0
LINE
8
BLACK
6
CONTINUOUS
10
2.17957
20
-1.31548
11
2.1816
21
-1.30089
0
LINE
8
BLACK
6
CONTINUOUS
10
2.1816
20
-1.30089
11
2.18497
21
-1.28656
0
LINE
8
BLACK
6
CONTINUOUS
10
2.18497
20
-1.28656
11
2.18965
21
-1.27259
0
LINE
8
BLACK
6
CONTINUOUS
10
2.18965
20
-1.27259
11
2.1956
21
-1.25912
0
LINE
8
BLACK
6
CONTINUOUS
10
2.1956
20
-1.25912
11
2.20277
21
-1.24625
0
LINE
8
BLACK
6
CONTINUOUS
10
2.20277
20
-1.24625
11
2.21109
21
-1.2341
0
LINE
8
BLACK
6
CONTINUOUS
10
2.21109
20
-1.2341
11
2.2205
21
-1.22277
0
LINE
8
BLACK
6
CONTINUOUS
10
2.2205
20
-1.22277
11
2.23092
21
-1.21236
0
LINE
8
BLACK
6
CONTINUOUS
10
2.23092
20
-1.21236
11
2.24225
21
-1.20295
0
LINE
8
BLACK
6
CONTINUOUS
10
2.24225
20
-1.20295
11
2.2544
21
-1.19463
0
LINE
8
BLACK
6
CONTINUOUS
10
2.2544
20
-1.19463
11
2.26726
21
-1.18746
0
LINE
8
BLACK
6
CONTINUOUS
10
2.26726
20
-1.18746
11
2.28074
21
-1.18151
0
LINE
8
BLACK
6
CONTINUOUS
10
2.28074
20
-1.18151
11
2.2947
21
-1.17683
0
LINE
8
BLACK
6
CONTINUOUS
10
2.2947
20
-1.17683
11
2.30904
21
-1.17346
0
LINE
8
BLACK
6
CONTINUOUS
10
2.30904
20
-1.17346
11
2.32362
21
-1.17142
0
LINE
8
BLACK
6
CONTINUOUS
10
2.32362
20
-1.17142
11
2.33834
21
-1.17074
0
LINE
8
BLACK
6
CONTINUOUS
10
2.33834
20
-1.17074
11
2.33834
21
-1.17074
0
LINE
8
BLACK
6
CONTINUOUS
10
2.33834
20
-1.17074
11
5.09424
21
-1.17074
0
LINE
8
BLACK
6
CONTINUOUS
10
5.09424
20
-1.17074
11
5.10695
21
-1.17137
0
LINE
8
BLACK
6
CONTINUOUS
10
5.10695
20
-1.17137
11
5.11954
21
-1.17323
0
LINE
8
BLACK
6
CONTINUOUS
10
5.11954
20
-1.17323
11
5.13189
21
-1.17632
0
LINE
8
BLACK
6
CONTINUOUS
10
5.13189
20
-1.17632
11
5.14388
21
-1.1806
0
LINE
8
BLACK
6
CONTINUOUS
10
5.14388
20
-1.1806
11
5.15539
21
-1.18603
0
LINE
8
BLACK
6
CONTINUOUS
10
5.15539
20
-1.18603
11
5.16631
21
-1.19256
0
LINE
8
BLACK
6
CONTINUOUS
10
5.16631
20
-1.19256
11
5.17654
21
-1.20013
0
LINE
8
BLACK
6
CONTINUOUS
10
5.17654
20
-1.20013
11
5.18598
21
-1.20867
0
LINE
8
BLACK
6
CONTINUOUS
10
5.18598
20
-1.20867
11
5.19454
21
-1.21809
0
LINE
8
BLACK
6
CONTINUOUS
10
5.19454
20
-1.21809
11
5.20214
21
-1.2283
0
LINE
8
BLACK
6
CONTINUOUS
10
5.20214
20
-1.2283
11
5.2087
21
-1.2392
0
LINE
8
BLACK
6
CONTINUOUS
10
5.2087
20
-1.2392
11
5.21413
21
-1.25062
0
LINE
8
BLACK
6
CONTINUOUS
10
5.21413
20
-1.25062
11
5.21414
21
-1.25062
0
LINE
8
BLACK
6
CONTINUOUS
10
5.21414
20
-1.25062
11
6.00154
21
-2.94353
0
LINE
8
BLACK
6
CONTINUOUS
10
6.00154
20
-2.94353
11
6.00156
21
-2.94397
0
LINE
8
BLACK
6
CONTINUOUS
10
6.00156
20
-2.94397
11
6.00172
21
-2.94437
0
LINE
8
BLACK
6
CONTINUOUS
10
6.00172
20
-2.94437
11
6.00172
21
-3.88925
0
LINE
8
BLACK
6
CONTINUOUS
10
6.00172
20
-3.88925
11
6.00158
21
-3.8896
0
LINE
8
BLACK
6
CONTINUOUS
10
6.00158
20
-3.8896
11
6.00226
21
-3.89658
0
LINE
8
BLACK
6
CONTINUOUS
10
6.00226
20
-3.89658
11
6.0044
21
-3.90363
0
LINE
8
BLACK
6
CONTINUOUS
10
6.0044
20
-3.90363
11
6.00788
21
-3.91013
0
LINE
8
BLACK
6
CONTINUOUS
10
6.00788
20
-3.91013
11
6.01255
21
-3.91582
0
LINE
8
BLACK
6
CONTINUOUS
10
6.01255
20
-3.91582
11
6.01824
21
-3.9205
0
LINE
8
BLACK
6
CONTINUOUS
10
6.01824
20
-3.9205
11
6.02474
21
-3.92397
0
LINE
8
BLACK
6
CONTINUOUS
10
6.02474
20
-3.92397
11
6.03179
21
-3.92611
0
LINE
8
BLACK
6
CONTINUOUS
10
6.03179
20
-3.92611
11
6.03912
21
-3.92683
0
LINE
8
BLACK
6
CONTINUOUS
10
6.03912
20
-3.92683
11
6.04646
21
-3.92611
0
LINE
8
BLACK
6
CONTINUOUS
10
6.04646
20
-3.92611
11
6.05351
21
-3.92397
0
LINE
8
BLACK
6
CONTINUOUS
10
6.05351
20
-3.92397
11
6.06
21
-3.9205
0
LINE
8
BLACK
6
CONTINUOUS
10
6.06
20
-3.9205
11
6.0657
21
-3.91582
0
LINE
8
BLACK
6
CONTINUOUS
10
6.0657
20
-3.91582
11
6.07037
21
-3.91013
0
LINE
8
BLACK
6
CONTINUOUS
10
6.07037
20
-3.91013
11
6.07385
21
-3.90363
0
LINE
8
BLACK
6
CONTINUOUS
10
6.07385
20
-3.90363
11
6.07598
21
-3.89658
0
LINE
8
BLACK
6
CONTINUOUS
10
6.07598
20
-3.89658
11
6.07667
21
-3.8896
0
LINE
8
BLACK
6
CONTINUOUS
10
6.07667
20
-3.8896
11
6.07653
21
-3.88925
0
LINE
8
BLACK
6
CONTINUOUS
10
6.07653
20
-3.88925
11
6.07653
21
-2.94437
0
LINE
8
BLACK
6
CONTINUOUS
10
6.07653
20
-2.94437
11
6.07669
21
-2.94397
0
LINE
8
BLACK
6
CONTINUOUS
10
6.07669
20
-2.94397
11
6.07671
21
-2.94353
0
LINE
8
BLACK
6
CONTINUOUS
10
6.07671
20
-2.94353
11
6.86411
21
-1.25062
0
LINE
8
BLACK
6
CONTINUOUS
10
6.86411
20
-1.25062
11
6.86412
21
-1.25062
0
LINE
8
BLACK
6
CONTINUOUS
10
6.86412
20
-1.25062
11
6.86954
21
-1.2392
0
LINE
8
BLACK
6
CONTINUOUS
10
6.86954
20
-1.2392
11
6.87611
21
-1.2283
0
LINE
8
BLACK
6
CONTINUOUS
10
6.87611
20
-1.2283
11
6.8837
21
-1.21809
0
LINE
8
BLACK
6
CONTINUOUS
10
6.8837
20
-1.21809
11
6.89227
21
-1.20867
0
LINE
8
BLACK
6
CONTINUOUS
10
6.89227
20
-1.20867
11
6.90171
21
-1.20013
0
LINE
8
BLACK
6
CONTINUOUS
10
6.90171
20
-1.20013
11
6.91194
21
-1.19256
0
LINE
8
BLACK
6
CONTINUOUS
10
6.91194
20
-1.19256
11
6.92286
21
-1.18603
0
LINE
8
BLACK
6
CONTINUOUS
10
6.92286
20
-1.18603
11
6.93437
21
-1.1806
0
LINE
8
BLACK
6
CONTINUOUS
10
6.93437
20
-1.1806
11
6.94636
21
-1.17632
0
LINE
8
BLACK
6
CONTINUOUS
10
6.94636
20
-1.17632
11
6.9587
21
-1.17323
0
LINE
8
BLACK
6
CONTINUOUS
10
6.9587
20
-1.17323
11
6.97129
21
-1.17137
0
LINE
8
BLACK
6
CONTINUOUS
10
6.97129
20
-1.17137
11
6.98401
21
-1.17074
0
LINE
8
BLACK
6
CONTINUOUS
10
6.98401
20
-1.17074
11
6.98401
21
-1.17074
0
LINE
8
BLACK
6
CONTINUOUS
10
6.98401
20
-1.17074
11
9.73991
21
-1.17074
0
LINE
8
BLACK
6
CONTINUOUS
10
9.73991
20
-1.17074
11
9.73992
21
-1.17075
0
LINE
8
BLACK
6
CONTINUOUS
10
6.98368
20
-1.17454
11
6.97166
21
-1.17513
0
LINE
8
BLACK
6
CONTINUOUS
10
6.97166
20
-1.17513
11
6.95944
21
-1.17694
0
LINE
8
BLACK
6
CONTINUOUS
10
6.95944
20
-1.17694
11
6.94745
21
-1.17994
0
LINE
8
BLACK
6
CONTINUOUS
10
6.94745
20
-1.17994
11
6.93582
21
-1.1841
0
LINE
8
BLACK
6
CONTINUOUS
10
6.93582
20
-1.1841
11
6.92464
21
-1.18937
0
LINE
8
BLACK
6
CONTINUOUS
10
6.92464
20
-1.18937
11
6.91404
21
-1.19571
0
LINE
8
BLACK
6
CONTINUOUS
10
6.91404
20
-1.19571
11
6.90411
21
-1.20306
0
LINE
8
BLACK
6
CONTINUOUS
10
6.90411
20
-1.20306
11
6.89494
21
-1.21135
0
LINE
8
BLACK
6
CONTINUOUS
10
6.89494
20
-1.21135
11
6.88663
21
-1.22049
0
LINE
8
BLACK
6
CONTINUOUS
10
6.88663
20
-1.22049
11
6.87925
21
-1.2304
0
LINE
8
BLACK
6
CONTINUOUS
10
6.87925
20
-1.2304
11
6.87288
21
-1.24099
0
LINE
8
BLACK
6
CONTINUOUS
10
6.87288
20
-1.24099
11
6.86771
21
-1.25185
0
LINE
8
BLACK
6
CONTINUOUS
10
6.86771
20
-1.25185
11
6.86771
21
-1.25221
0
LINE
8
BLACK
6
CONTINUOUS
10
6.86771
20
-1.25221
11
6.86768
21
-1.25224
0
LINE
8
BLACK
6
CONTINUOUS
10
6.86768
20
-1.25224
11
6.86768
21
-1.25228
0
LINE
8
BLACK
6
CONTINUOUS
10
6.86768
20
-1.25228
11
6.08046
21
-2.9448
0
LINE
8
BLACK
6
CONTINUOUS
10
6.08046
20
-2.9448
11
6.08046
21
-3.88925
0
LINE
8
BLACK
6
CONTINUOUS
10
6.08046
20
-3.88925
11
6.07976
21
-3.89684
0
LINE
8
BLACK
6
CONTINUOUS
10
6.07976
20
-3.89684
11
6.07767
21
-3.90418
0
LINE
8
BLACK
6
CONTINUOUS
10
6.07767
20
-3.90418
11
6.07427
21
-3.91101
0
LINE
8
BLACK
6
CONTINUOUS
10
6.07427
20
-3.91101
11
6.06967
21
-3.9171
0
LINE
8
BLACK
6
CONTINUOUS
10
6.06967
20
-3.9171
11
6.06404
21
-3.92224
0
LINE
8
BLACK
6
CONTINUOUS
10
6.06404
20
-3.92224
11
6.05755
21
-3.92625
0
LINE
8
BLACK
6
CONTINUOUS
10
6.05755
20
-3.92625
11
6.05044
21
-3.92901
0
LINE
8
BLACK
6
CONTINUOUS
10
6.05044
20
-3.92901
11
6.04294
21
-3.93041
0
LINE
8
BLACK
6
CONTINUOUS
10
6.04294
20
-3.93041
11
6.03531
21
-3.93041
0
LINE
8
BLACK
6
CONTINUOUS
10
6.03531
20
-3.93041
11
6.02781
21
-3.92901
0
LINE
8
BLACK
6
CONTINUOUS
10
6.02781
20
-3.92901
11
6.0207
21
-3.92625
0
LINE
8
BLACK
6
CONTINUOUS
10
6.0207
20
-3.92625
11
6.01421
21
-3.92224
0
LINE
8
BLACK
6
CONTINUOUS
10
6.01421
20
-3.92224
11
6.00857
21
-3.9171
0
LINE
8
BLACK
6
CONTINUOUS
10
6.00857
20
-3.9171
11
6.00398
21
-3.91101
0
LINE
8
BLACK
6
CONTINUOUS
10
6.00398
20
-3.91101
11
6.00058
21
-3.90418
0
LINE
8
BLACK
6
CONTINUOUS
10
6.00058
20
-3.90418
11
5.99849
21
-3.89684
0
LINE
8
BLACK
6
CONTINUOUS
10
5.99849
20
-3.89684
11
5.99779
21
-3.88925
0
LINE
8
BLACK
6
CONTINUOUS
10
5.99779
20
-3.88925
11
5.99779
21
-2.9448
0
LINE
8
BLACK
6
CONTINUOUS
10
5.99779
20
-2.9448
11
5.21057
21
-1.25228
0
LINE
8
BLACK
6
CONTINUOUS
10
5.21057
20
-1.25228
11
5.21057
21
-1.25224
0
LINE
8
BLACK
6
CONTINUOUS
10
5.21057
20
-1.25224
11
5.21054
21
-1.25221
0
LINE
8
BLACK
6
CONTINUOUS
10
5.21054
20
-1.25221
11
5.21053
21
-1.25186
0
LINE
8
BLACK
6
CONTINUOUS
10
5.21053
20
-1.25186
11
5.20537
21
-1.24099
0
LINE
8
BLACK
6
CONTINUOUS
10
5.20537
20
-1.24099
11
5.199
21
-1.2304
0
LINE
8
BLACK
6
CONTINUOUS
10
5.199
20
-1.2304
11
5.19162
21
-1.22049
0
LINE
8
BLACK
6
CONTINUOUS
10
5.19162
20
-1.22049
11
5.18331
21
-1.21135
0
LINE
8
BLACK
6
CONTINUOUS
10
5.18331
20
-1.21135
11
5.17414
21
-1.20306
0
LINE
8
BLACK
6
CONTINUOUS
10
5.17414
20
-1.20306
11
5.16421
21
-1.19571
0
LINE
8
BLACK
6
CONTINUOUS
10
5.16421
20
-1.19571
11
5.1536
21
-1.18937
0
LINE
8
BLACK
6
CONTINUOUS
10
5.1536
20
-1.18937
11
5.14243
21
-1.1841
0
LINE
8
BLACK
6
CONTINUOUS
10
5.14243
20
-1.1841
11
5.13079
21
-1.17994
0
LINE
8
BLACK
6
CONTINUOUS
10
5.13079
20
-1.17994
11
5.11881
21
-1.17694
0
LINE
8
BLACK
6
CONTINUOUS
10
5.11881
20
-1.17694
11
5.10658
21
-1.17513
0
LINE
8
BLACK
6
CONTINUOUS
10
5.10658
20
-1.17513
11
5.09457
21
-1.17454
0
LINE
8
BLACK
6
CONTINUOUS
10
5.09457
20
-1.17454
11
5.09424
21
-1.17468
0
LINE
8
BLACK
6
CONTINUOUS
10
5.09424
20
-1.17468
11
2.33834
21
-1.17468
0
LINE
8
BLACK
6
CONTINUOUS
10
2.33834
20
-1.17468
11
2.33798
21
-1.17453
0
LINE
8
BLACK
6
CONTINUOUS
10
2.33798
20
-1.17453
11
2.32397
21
-1.17518
0
LINE
8
BLACK
6
CONTINUOUS
10
2.32397
20
-1.17518
11
2.30973
21
-1.17716
0
LINE
8
BLACK
6
CONTINUOUS
10
2.30973
20
-1.17716
11
2.29573
21
-1.18046
0
LINE
8
BLACK
6
CONTINUOUS
10
2.29573
20
-1.18046
11
2.2821
21
-1.18503
0
LINE
8
BLACK
6
CONTINUOUS
10
2.2821
20
-1.18503
11
2.26894
21
-1.19083
0
LINE
8
BLACK
6
CONTINUOUS
10
2.26894
20
-1.19083
11
2.25638
21
-1.19783
0
LINE
8
BLACK
6
CONTINUOUS
10
2.25638
20
-1.19783
11
2.24452
21
-1.20596
0
LINE
8
BLACK
6
CONTINUOUS
10
2.24452
20
-1.20596
11
2.23346
21
-1.21514
0
LINE
8
BLACK
6
CONTINUOUS
10
2.23346
20
-1.21514
11
2.22329
21
-1.22531
0
LINE
8
BLACK
6
CONTINUOUS
10
2.22329
20
-1.22531
11
2.2141
21
-1.23637
0
LINE
8
BLACK
6
CONTINUOUS
10
2.2141
20
-1.23637
11
2.20598
21
-1.24824
0
LINE
8
BLACK
6
CONTINUOUS
10
2.20598
20
-1.24824
11
2.19898
21
-1.2608
0
LINE
8
BLACK
6
CONTINUOUS
10
2.19898
20
-1.2608
11
2.19317
21
-1.27395
0
LINE
8
BLACK
6
CONTINUOUS
10
2.19317
20
-1.27395
11
2.1886
21
-1.28759
0
LINE
8
BLACK
6
CONTINUOUS
10
2.1886
20
-1.28759
11
2.18531
21
-1.30159
0
LINE
8
BLACK
6
CONTINUOUS
10
2.18531
20
-1.30159
11
2.18332
21
-1.31583
0
LINE
8
BLACK
6
CONTINUOUS
10
2.18332
20
-1.31583
11
2.18268
21
-1.32983
0
LINE
8
BLACK
6
CONTINUOUS
10
2.18268
20
-1.32983
11
2.18282
21
-1.33019
0
LINE
8
BLACK
6
CONTINUOUS
10
2.18282
20
-1.33019
11
2.18282
21
-4.3215
0
LINE
8
BLACK
6
CONTINUOUS
10
2.18282
20
-4.3215
11
4.07144
21
-6.21011
0
LINE
8
BLACK
6
CONTINUOUS
10
4.07144
20
-6.21011
11
5.84227
21
-6.21011
0
LINE
8
BLACK
6
CONTINUOUS
10
5.84227
20
-6.21011
11
5.84263
21
-6.21026
0
LINE
8
BLACK
6
CONTINUOUS
10
5.84263
20
-6.21026
11
5.85664
21
-6.20961
0
LINE
8
BLACK
6
CONTINUOUS
10
5.85664
20
-6.20961
11
5.87088
21
-6.20763
0
LINE
8
BLACK
6
CONTINUOUS
10
5.87088
20
-6.20763
11
5.88488
21
-6.20434
0
LINE
8
BLACK
6
CONTINUOUS
10
5.88488
20
-6.20434
11
5.89851
21
-6.19977
0
LINE
8
BLACK
6
CONTINUOUS
10
5.89851
20
-6.19977
11
5.91167
21
-6.19396
0
LINE
8
BLACK
6
CONTINUOUS
10
5.91167
20
-6.19396
11
5.92423
21
-6.18696
0
LINE
8
BLACK
6
CONTINUOUS
10
5.92423
20
-6.18696
11
5.93609
21
-6.17883
0
LINE
8
BLACK
6
CONTINUOUS
10
5.93609
20
-6.17883
11
5.94715
21
-6.16965
0
LINE
8
BLACK
6
CONTINUOUS
10
5.94715
20
-6.16965
11
5.95732
21
-6.15948
0
LINE
8
BLACK
6
CONTINUOUS
10
5.95732
20
-6.15948
11
5.96651
21
-6.14842
0
LINE
8
BLACK
6
CONTINUOUS
10
5.96651
20
-6.14842
11
5.97463
21
-6.13656
0
LINE
8
BLACK
6
CONTINUOUS
10
5.97463
20
-6.13656
11
5.98163
21
-6.12399
0
LINE
8
BLACK
6
CONTINUOUS
10
5.98163
20
-6.12399
11
5.98744
21
-6.11084
0
LINE
8
BLACK
6
CONTINUOUS
10
5.98744
20
-6.11084
11
5.99201
21
-6.0972
0
LINE
8
BLACK
6
CONTINUOUS
10
5.99201
20
-6.0972
11
5.9953
21
-6.08321
0
LINE
8
BLACK
6
CONTINUOUS
10
5.9953
20
-6.08321
11
5.99729
21
-6.06897
0
LINE
8
BLACK
6
CONTINUOUS
10
5.99729
20
-6.06897
11
5.99793
21
-6.05496
0
LINE
8
BLACK
6
CONTINUOUS
10
5.99793
20
-6.05496
11
5.99779
21
-6.0546
0
LINE
8
BLACK
6
CONTINUOUS
10
5.99779
20
-6.0546
11
5.99779
21
-6.01523
0
LINE
8
BLACK
6
CONTINUOUS
10
5.99779
20
-6.01523
11
5.99849
21
-6.00764
0
LINE
8
BLACK
6
CONTINUOUS
10
5.99849
20
-6.00764
11
6.00058
21
-6.0003
0
LINE
8
BLACK
6
CONTINUOUS
10
6.00058
20
-6.0003
11
6.00398
21
-5.99347
0
LINE
8
BLACK
6
CONTINUOUS
10
6.00398
20
-5.99347
11
6.00857
21
-5.98738
0
LINE
8
BLACK
6
CONTINUOUS
10
6.00857
20
-5.98738
11
6.01421
21
-5.98224
0
LINE
8
BLACK
6
CONTINUOUS
10
6.01421
20
-5.98224
11
6.0207
21
-5.97823
0
LINE
8
BLACK
6
CONTINUOUS
10
6.0207
20
-5.97823
11
6.02781
21
-5.97547
0
LINE
8
BLACK
6
CONTINUOUS
10
6.02781
20
-5.97547
11
6.03531
21
-5.97407
0
LINE
8
BLACK
6
CONTINUOUS
10
6.03531
20
-5.97407
11
6.04294
21
-5.97407
0
LINE
8
BLACK
6
CONTINUOUS
10
6.04294
20
-5.97407
11
6.05044
21
-5.97547
0
LINE
8
BLACK
6
CONTINUOUS
10
6.05044
20
-5.97547
11
6.05755
21
-5.97823
0
LINE
8
BLACK
6
CONTINUOUS
10
6.05755
20
-5.97823
11
6.06404
21
-5.98224
0
LINE
8
BLACK
6
CONTINUOUS
10
6.06404
20
-5.98224
11
6.06967
21
-5.98738
0
LINE
8
BLACK
6
CONTINUOUS
10
6.06967
20
-5.98738
11
6.07427
21
-5.99347
0
LINE
8
BLACK
6
CONTINUOUS
10
6.07427
20
-5.99347
11
6.07767
21
-6.0003
0
LINE
8
BLACK
6
CONTINUOUS
10
6.07767
20
-6.0003
11
6.07976
21
-6.00764
0
LINE
8
BLACK
6
CONTINUOUS
10
6.07976
20
-6.00764
11
6.08046
21
-6.01523
0
LINE
8
BLACK
6
CONTINUOUS
10
6.08046
20
-6.01523
11
6.08046
21
-6.01523
0
LINE
8
BLACK
6
CONTINUOUS
10
6.08046
20
-6.01523
11
6.08046
21
-6.0546
0
LINE
8
BLACK
6
CONTINUOUS
10
6.08046
20
-6.0546
11
6.08031
21
-6.05496
0
LINE
8
BLACK
6
CONTINUOUS
10
6.08031
20
-6.05496
11
6.08096
21
-6.06897
0
LINE
8
BLACK
6
CONTINUOUS
10
6.08096
20
-6.06897
11
6.08295
21
-6.08321
0
LINE
8
BLACK
6
CONTINUOUS
10
6.08295
20
-6.08321
11
6.08624
21
-6.0972
0
LINE
8
BLACK
6
CONTINUOUS
10
6.08624
20
-6.0972
11
6.09081
21
-6.11084
0
LINE
8
BLACK
6
CONTINUOUS
10
6.09081
20
-6.11084
11
6.09662
21
-6.12399
0
LINE
8
BLACK
6
CONTINUOUS
10
6.09662
20
-6.12399
11
6.10361
21
-6.13656
0
LINE
8
BLACK
6
CONTINUOUS
10
6.10361
20
-6.13656
11
6.11174
21
-6.14842
0
LINE
8
BLACK
6
CONTINUOUS
10
6.11174
20
-6.14842
11
6.12093
21
-6.15948
0
LINE
8
BLACK
6
CONTINUOUS
10
6.12093
20
-6.15948
11
6.13109
21
-6.16965
0
LINE
8
BLACK
6
CONTINUOUS
10
6.13109
20
-6.16965
11
6.14216
21
-6.17884
0
LINE
8
BLACK
6
CONTINUOUS
10
6.14216
20
-6.17884
11
6.15402
21
-6.18696
0
LINE
8
BLACK
6
CONTINUOUS
10
6.15402
20
-6.18696
11
6.16658
21
-6.19396
0
LINE
8
BLACK
6
CONTINUOUS
10
6.16658
20
-6.19396
11
6.17974
21
-6.19977
0
LINE
8
BLACK
6
CONTINUOUS
10
6.17974
20
-6.19977
11
6.19337
21
-6.20434
0
LINE
8
BLACK
6
CONTINUOUS
10
6.19337
20
-6.20434
11
6.20737
21
-6.20763
0
LINE
8
BLACK
6
CONTINUOUS
10
6.20737
20
-6.20763
11
6.22161
21
-6.20962
0
LINE
8
BLACK
6
CONTINUOUS
10
6.22161
20
-6.20962
11
6.23561
21
-6.21026
0
LINE
8
BLACK
6
CONTINUOUS
10
6.23561
20
-6.21026
11
6.23597
21
-6.21011
0
LINE
8
BLACK
6
CONTINUOUS
10
6.23597
20
-6.21011
11
8.00681
21
-6.21011
0
LINE
8
BLACK
6
CONTINUOUS
10
8.00681
20
-6.21011
11
9.89542
21
-4.3215
0
LINE
8
BLACK
6
CONTINUOUS
10
9.89542
20
-4.3215
11
9.89542
21
-1.32344
0
LINE
8
BLACK
6
CONTINUOUS
10
9.89542
20
-1.32344
11
9.89557
21
-1.32308
0
LINE
8
BLACK
6
CONTINUOUS
10
9.89557
20
-1.32308
11
9.89492
21
-1.3093
0
LINE
8
BLACK
6
CONTINUOUS
10
9.89492
20
-1.3093
11
9.89291
21
-1.29529
0
LINE
8
BLACK
6
CONTINUOUS
10
9.89291
20
-1.29529
11
9.88958
21
-1.28153
0
LINE
8
BLACK
6
CONTINUOUS
10
9.88958
20
-1.28153
11
9.88496
21
-1.26816
0
LINE
8
BLACK
6
CONTINUOUS
10
9.88496
20
-1.26816
11
9.87909
21
-1.25528
0
LINE
8
BLACK
6
CONTINUOUS
10
9.87909
20
-1.25528
11
9.87203
21
-1.24301
0
LINE
8
BLACK
6
CONTINUOUS
10
9.87203
20
-1.24301
11
9.86384
21
-1.23147
0
LINE
8
BLACK
6
CONTINUOUS
10
9.86384
20
-1.23147
11
9.85459
21
-1.22076
0
LINE
8
BLACK
6
CONTINUOUS
10
9.85459
20
-1.22076
11
9.84437
21
-1.21097
0
LINE
8
BLACK
6
CONTINUOUS
10
9.84437
20
-1.21097
11
9.83326
21
-1.2022
0
LINE
8
BLACK
6
CONTINUOUS
10
9.83326
20
-1.2022
11
9.82137
21
-1.19452
0
LINE
8
BLACK
6
CONTINUOUS
10
9.82137
20
-1.19452
11
9.80881
21
-1.188
0
LINE
8
BLACK
6
CONTINUOUS
10
9.80881
20
-1.188
11
9.79568
21
-1.18271
0
LINE
8
BLACK
6
CONTINUOUS
10
9.79568
20
-1.18271
11
9.78212
21
-1.17868
0
LINE
8
BLACK
6
CONTINUOUS
10
9.78212
20
-1.17868
11
9.76823
21
-1.17596
0
LINE
8
BLACK
6
CONTINUOUS
10
9.76823
20
-1.17596
11
9.75414
21
-1.17456
0
LINE
8
BLACK
6
CONTINUOUS
10
9.75414
20
-1.17456
11
9.74036
21
-1.17451
0
LINE
8
BLACK
6
CONTINUOUS
10
9.74036
20
-1.17451
11
9.74
21
-1.17468
0
LINE
8
BLACK
6
CONTINUOUS
10
9.74
20
-1.17468
11
9.73995
21
-1.17466
0
LINE
8
BLACK
6
CONTINUOUS
10
9.73995
20
-1.17466
11
9.73991
21
-1.17468
0
LINE
8
BLACK
6
CONTINUOUS
10
9.73991
20
-1.17468
11
6.98401
21
-1.17468
0
LINE
8
BLACK
6
CONTINUOUS
10
6.98401
20
-1.17468
11
6.98368
21
-1.17454
0
LINE
8
BLACK
6
CONTINUOUS
10
6.05044
20
-4.20382
11
6.05755
21
-4.20657
0
LINE
8
BLACK
6
CONTINUOUS
10
6.05755
20
-4.20657
11
6.06404
21
-4.21059
0
LINE
8
BLACK
6
CONTINUOUS
10
6.06404
20
-4.21059
11
6.06967
21
-4.21573
0
LINE
8
BLACK
6
CONTINUOUS
10
6.06967
20
-4.21573
11
6.07427
21
-4.22182
0
LINE
8
BLACK
6
CONTINUOUS
10
6.07427
20
-4.22182
11
6.07767
21
-4.22864
0
LINE
8
BLACK
6
CONTINUOUS
10
6.07767
20
-4.22864
11
6.07976
21
-4.23598
0
LINE
8
BLACK
6
CONTINUOUS
10
6.07976
20
-4.23598
11
6.08046
21
-4.24358
0
LINE
8
BLACK
6
CONTINUOUS
10
6.08046
20
-4.24358
11
6.08046
21
-4.24358
0
LINE
8
BLACK
6
CONTINUOUS
10
6.08046
20
-4.24358
11
6.08046
21
-5.6609
0
LINE
8
BLACK
6
CONTINUOUS
10
6.08046
20
-5.6609
11
6.07976
21
-5.6685
0
LINE
8
BLACK
6
CONTINUOUS
10
6.07976
20
-5.6685
11
6.07767
21
-5.67583
0
LINE
8
BLACK
6
CONTINUOUS
10
6.07767
20
-5.67583
11
6.07427
21
-5.68266
0
LINE
8
BLACK
6
CONTINUOUS
10
6.07427
20
-5.68266
11
6.06967
21
-5.68875
0
LINE
8
BLACK
6
CONTINUOUS
10
6.06967
20
-5.68875
11
6.06404
21
-5.69389
0
LINE
8
BLACK
6
CONTINUOUS
10
6.06404
20
-5.69389
11
6.05755
21
-5.69791
0
LINE
8
BLACK
6
CONTINUOUS
10
6.05755
20
-5.69791
11
6.05044
21
-5.70066
0
LINE
8
BLACK
6
CONTINUOUS
10
6.05044
20
-5.70066
11
6.04294
21
-5.70206
0
LINE
8
BLACK
6
CONTINUOUS
10
6.04294
20
-5.70206
11
6.03531
21
-5.70206
0
LINE
8
BLACK
6
CONTINUOUS
10
6.03531
20
-5.70206
11
6.02781
21
-5.70066
0
LINE
8
BLACK
6
CONTINUOUS
10
6.02781
20
-5.70066
11
6.0207
21
-5.69791
0
LINE
8
BLACK
6
CONTINUOUS
10
6.0207
20
-5.69791
11
6.01421
21
-5.69389
0
LINE
8
BLACK
6
CONTINUOUS
10
6.01421
20
-5.69389
11
6.00857
21
-5.68875
0
LINE
8
BLACK
6
CONTINUOUS
10
6.00857
20
-5.68875
11
6.00398
21
-5.68266
0
LINE
8
BLACK
6
CONTINUOUS
10
6.00398
20
-5.68266
11
6.00058
21
-5.67583
0
LINE
8
BLACK
6
CONTINUOUS
10
6.00058
20
-5.67583
11
5.99849
21
-5.6685
0
LINE
8
BLACK
6
CONTINUOUS
10
5.99849
20
-5.6685
11
5.99779
21
-5.6609
0
LINE
8
BLACK
6
CONTINUOUS
10
5.99779
20
-5.6609
11
5.99779
21
-4.24358
0
LINE
8
BLACK
6
CONTINUOUS
10
5.99779
20
-4.24358
11
5.99849
21
-4.23598
0
LINE
8
BLACK
6
CONTINUOUS
10
5.99849
20
-4.23598
11
6.00058
21
-4.22864
0
LINE
8
BLACK
6
CONTINUOUS
10
6.00058
20
-4.22864
11
6.00398
21
-4.22182
0
LINE
8
BLACK
6
CONTINUOUS
10
6.00398
20
-4.22182
11
6.00857
21
-4.21573
0
LINE
8
BLACK
6
CONTINUOUS
10
6.00857
20
-4.21573
11
6.01421
21
-4.21059
0
LINE
8
BLACK
6
CONTINUOUS
10
6.01421
20
-4.21059
11
6.0207
21
-4.20657
0
LINE
8
BLACK
6
CONTINUOUS
10
6.0207
20
-4.20657
11
6.02781
21
-4.20382
0
LINE
8
BLACK
6
CONTINUOUS
10
6.02781
20
-4.20382
11
6.03531
21
-4.20242
0
LINE
8
BLACK
6
CONTINUOUS
10
6.03531
20
-4.20242
11
6.04294
21
-4.20242
0
LINE
8
BLACK
6
CONTINUOUS
10
6.04294
20
-4.20242
11
6.05044
21
-4.20382
0
LINE
8
BLACK
6
CONTINUOUS
10
6.03179
20
-4.20672
11
6.02474
21
-4.20886
0
LINE
8
BLACK
6
CONTINUOUS
10
6.02474
20
-4.20886
11
6.01824
21
-4.21233
0
LINE
8
BLACK
6
CONTINUOUS
10
6.01824
20
-4.21233
11
6.01255
21
-4.217
0
LINE
8
BLACK
6
CONTINUOUS
10
6.01255
20
-4.217
11
6.00788
21
-4.2227
0
LINE
8
BLACK
6
CONTINUOUS
10
6.00788
20
-4.2227
11
6.0044
21
-4.2292
0
LINE
8
BLACK
6
CONTINUOUS
10
6.0044
20
-4.2292
11
6.00226
21
-4.23625
0
LINE
8
BLACK
6
CONTINUOUS
10
6.00226
20
-4.23625
11
6.00158
21
-4.24322
0
LINE
8
BLACK
6
CONTINUOUS
10
6.00158
20
-4.24322
11
6.00172
21
-4.24358
0
LINE
8
BLACK
6
CONTINUOUS
10
6.00172
20
-4.24358
11
6.00172
21
-5.6609
0
LINE
8
BLACK
6
CONTINUOUS
10
6.00172
20
-5.6609
11
6.00158
21
-5.66125
0
LINE
8
BLACK
6
CONTINUOUS
10
6.00158
20
-5.66125
11
6.00226
21
-5.66823
0
LINE
8
BLACK
6
CONTINUOUS
10
6.00226
20
-5.66823
11
6.0044
21
-5.67528
0
LINE
8
BLACK
6
CONTINUOUS
10
6.0044
20
-5.67528
11
6.00788
21
-5.68178
0
LINE
8
BLACK
6
CONTINUOUS
10
6.00788
20
-5.68178
11
6.01255
21
-5.68748
0
LINE
8
BLACK
6
CONTINUOUS
10
6.01255
20
-5.68748
11
6.01824
21
-5.69215
0
LINE
8
BLACK
6
CONTINUOUS
10
6.01824
20
-5.69215
11
6.02474
21
-5.69562
0
LINE
8
BLACK
6
CONTINUOUS
10
6.02474
20
-5.69562
11
6.03179
21
-5.69776
0
LINE
8
BLACK
6
CONTINUOUS
10
6.03179
20
-5.69776
11
6.03912
21
-5.69848
0
LINE
8
BLACK
6
CONTINUOUS
10
6.03912
20
-5.69848
11
6.04646
21
-5.69776
0
LINE
8
BLACK
6
CONTINUOUS
10
6.04646
20
-5.69776
11
6.05351
21
-5.69562
0
LINE
8
BLACK
6
CONTINUOUS
10
6.05351
20
-5.69562
11
6.06
21
-5.69215
0
LINE
8
BLACK
6
CONTINUOUS
10
6.06
20
-5.69215
11
6.0657
21
-5.68748
0
LINE
8
BLACK
6
CONTINUOUS
10
6.0657
20
-5.68748
11
6.07037
21
-5.68178
0
LINE
8
BLACK
6
CONTINUOUS
10
6.07037
20
-5.68178
11
6.07385
21
-5.67528
0
LINE
8
BLACK
6
CONTINUOUS
10
6.07385
20
-5.67528
11
6.07598
21
-5.66823
0
LINE
8
BLACK
6
CONTINUOUS
10
6.07598
20
-5.66823
11
6.07667
21
-5.66125
0
LINE
8
BLACK
6
CONTINUOUS
10
6.07667
20
-5.66125
11
6.07653
21
-5.6609
0
LINE
8
BLACK
6
CONTINUOUS
10
6.07653
20
-5.6609
11
6.07653
21
-4.24358
0
LINE
8
BLACK
6
CONTINUOUS
10
6.07653
20
-4.24358
11
6.07667
21
-4.24322
0
LINE
8
BLACK
6
CONTINUOUS
10
6.07667
20
-4.24322
11
6.07598
21
-4.23625
0
LINE
8
BLACK
6
CONTINUOUS
10
6.07598
20
-4.23625
11
6.07385
21
-4.2292
0
LINE
8
BLACK
6
CONTINUOUS
10
6.07385
20
-4.2292
11
6.07037
21
-4.2227
0
LINE
8
BLACK
6
CONTINUOUS
10
6.07037
20
-4.2227
11
6.0657
21
-4.217
0
LINE
8
BLACK
6
CONTINUOUS
10
6.0657
20
-4.217
11
6.06
21
-4.21233
0
LINE
8
BLACK
6
CONTINUOUS
10
6.06
20
-4.21233
11
6.05351
21
-4.20886
0
LINE
8
BLACK
6
CONTINUOUS
10
6.05351
20
-4.20886
11
6.04646
21
-4.20672
0
LINE
8
BLACK
6
CONTINUOUS
10
6.04646
20
-4.20672
11
6.03912
21
-4.206
0
LINE
8
BLACK
6
CONTINUOUS
10
6.03912
20
-4.206
11
6.03179
21
-4.20672
0
LINE
8
BLACK
6
CONTINUOUS
10
5.4385
20
-5.42104
11
5.56397
21
-5.50252
0
LINE
8
BLACK
6
CONTINUOUS
10
5.56397
20
-5.50252
11
5.56499
21
-5.50401
0
LINE
8
BLACK
6
CONTINUOUS
10
5.56499
20
-5.50401
11
5.56499
21
-5.50401
0
LINE
8
BLACK
6
CONTINUOUS
10
5.56499
20
-5.50401
11
5.56466
21
-5.50579
0
LINE
8
BLACK
6
CONTINUOUS
10
5.56466
20
-5.50579
11
5.49176
21
-5.61806
0
LINE
8
BLACK
6
CONTINUOUS
10
5.49176
20
-5.61806
11
5.49027
21
-5.61908
0
LINE
8
BLACK
6
CONTINUOUS
10
5.49027
20
-5.61908
11
5.49027
21
-5.61908
0
LINE
8
BLACK
6
CONTINUOUS
10
5.49027
20
-5.61908
11
5.48849
21
-5.61875
0
LINE
8
BLACK
6
CONTINUOUS
10
5.48849
20
-5.61875
11
5.36302
21
-5.53727
0
LINE
8
BLACK
6
CONTINUOUS
10
5.36302
20
-5.53727
11
5.362
21
-5.53578
0
LINE
8
BLACK
6
CONTINUOUS
10
5.362
20
-5.53578
11
5.36233
21
-5.534
0
LINE
8
BLACK
6
CONTINUOUS
10
5.36233
20
-5.534
11
5.43523
21
-5.42174
0
LINE
8
BLACK
6
CONTINUOUS
10
5.43523
20
-5.42174
11
5.43672
21
-5.42071
0
LINE
8
BLACK
6
CONTINUOUS
10
5.43672
20
-5.42071
11
5.4385
21
-5.42104
0
LINE
8
BLACK
6
CONTINUOUS
10
5.36758
20
-5.53459
11
5.48908
21
-5.6135
0
LINE
8
BLACK
6
CONTINUOUS
10
5.48908
20
-5.6135
11
5.55941
21
-5.5052
0
LINE
8
BLACK
6
CONTINUOUS
10
5.55941
20
-5.5052
11
5.43791
21
-5.42629
0
LINE
8
BLACK
6
CONTINUOUS
10
5.43791
20
-5.42629
11
5.36758
21
-5.53459
0
LINE
8
BLACK
6
CONTINUOUS
10
6.64304
20
-5.40003
11
6.64304
21
-5.40003
0
LINE
8
BLACK
6
CONTINUOUS
10
6.64304
20
-5.40003
11
6.71594
21
-5.51229
0
LINE
8
BLACK
6
CONTINUOUS
10
6.71594
20
-5.51229
11
6.71594
21
-5.51229
0
LINE
8
BLACK
6
CONTINUOUS
10
6.71594
20
-5.51229
11
6.71627
21
-5.51407
0
LINE
8
BLACK
6
CONTINUOUS
10
6.71627
20
-5.51407
11
6.71525
21
-5.51556
0
LINE
8
BLACK
6
CONTINUOUS
10
6.71525
20
-5.51556
11
6.58978
21
-5.59704
0
LINE
8
BLACK
6
CONTINUOUS
10
6.58978
20
-5.59704
11
6.588
21
-5.59737
0
LINE
8
BLACK
6
CONTINUOUS
10
6.588
20
-5.59737
11
6.58651
21
-5.59635
0
LINE
8
BLACK
6
CONTINUOUS
10
6.58651
20
-5.59635
11
6.51361
21
-5.48408
0
LINE
8
BLACK
6
CONTINUOUS
10
6.51361
20
-5.48408
11
6.51328
21
-5.48231
0
LINE
8
BLACK
6
CONTINUOUS
10
6.51328
20
-5.48231
11
6.5143
21
-5.48082
0
LINE
8
BLACK
6
CONTINUOUS
10
6.5143
20
-5.48082
11
6.63977
21
-5.39933
0
LINE
8
BLACK
6
CONTINUOUS
10
6.63977
20
-5.39933
11
6.64155
21
-5.399
0
LINE
8
BLACK
6
CONTINUOUS
10
6.64155
20
-5.399
11
6.64304
21
-5.40003
0
LINE
8
BLACK
6
CONTINUOUS
10
6.51886
20
-5.48349
11
6.58919
21
-5.59179
0
LINE
8
BLACK
6
CONTINUOUS
10
6.58919
20
-5.59179
11
6.7107
21
-5.51288
0
LINE
8
BLACK
6
CONTINUOUS
10
6.7107
20
-5.51288
11
6.64036
21
-5.40458
0
LINE
8
BLACK
6
CONTINUOUS
10
6.64036
20
-5.40458
11
6.51886
21
-5.48349
0
LINE
8
BLACK
6
CONTINUOUS
10
4.8095
20
-5.01256
11
4.93497
21
-5.09405
0
LINE
8
BLACK
6
CONTINUOUS
10
4.93497
20
-5.09405
11
4.93599
21
-5.09554
0
LINE
8
BLACK
6
CONTINUOUS
10
4.93599
20
-5.09554
11
4.93599
21
-5.09554
0
LINE
8
BLACK
6
CONTINUOUS
10
4.93599
20
-5.09554
11
4.93566
21
-5.09731
0
LINE
8
BLACK
6
CONTINUOUS
10
4.93566
20
-5.09731
11
4.86276
21
-5.20958
0
LINE
8
BLACK
6
CONTINUOUS
10
4.86276
20
-5.20958
11
4.86127
21
-5.2106
0
LINE
8
BLACK
6
CONTINUOUS
10
4.86127
20
-5.2106
11
4.86127
21
-5.2106
0
LINE
8
BLACK
6
CONTINUOUS
10
4.86127
20
-5.2106
11
4.85949
21
-5.21027
0
LINE
8
BLACK
6
CONTINUOUS
10
4.85949
20
-5.21027
11
4.73402
21
-5.12879
0
LINE
8
BLACK
6
CONTINUOUS
10
4.73402
20
-5.12879
11
4.73299
21
-5.1273
0
LINE
8
BLACK
6
CONTINUOUS
10
4.73299
20
-5.1273
11
4.73332
21
-5.12552
0
LINE
8
BLACK
6
CONTINUOUS
10
4.73332
20
-5.12552
11
4.80623
21
-5.01326
0
LINE
8
BLACK
6
CONTINUOUS
10
4.80623
20
-5.01326
11
4.80772
21
-5.01223
0
LINE
8
BLACK
6
CONTINUOUS
10
4.80772
20
-5.01223
11
4.8095
21
-5.01256
0
LINE
8
BLACK
6
CONTINUOUS
10
4.73857
20
-5.12611
11
4.86008
21
-5.20502
0
LINE
8
BLACK
6
CONTINUOUS
10
4.86008
20
-5.20502
11
4.93041
21
-5.09672
0
LINE
8
BLACK
6
CONTINUOUS
10
4.93041
20
-5.09672
11
4.8089
21
-5.01781
0
LINE
8
BLACK
6
CONTINUOUS
10
4.8089
20
-5.01781
11
4.73857
21
-5.12611
0
LINE
8
BLACK
6
CONTINUOUS
10
7.27204
20
-4.99155
11
7.27204
21
-4.99155
0
LINE
8
BLACK
6
CONTINUOUS
10
7.27204
20
-4.99155
11
7.34495
21
-5.10381
0
LINE
8
BLACK
6
CONTINUOUS
10
7.34495
20
-5.10381
11
7.34495
21
-5.10381
0
LINE
8
BLACK
6
CONTINUOUS
10
7.34495
20
-5.10381
11
7.34528
21
-5.10559
0
LINE
8
BLACK
6
CONTINUOUS
10
7.34528
20
-5.10559
11
7.34425
21
-5.10708
0
LINE
8
BLACK
6
CONTINUOUS
10
7.34425
20
-5.10708
11
7.21878
21
-5.18856
0
LINE
8
BLACK
6
CONTINUOUS
10
7.21878
20
-5.18856
11
7.217
21
-5.18889
0
LINE
8
BLACK
6
CONTINUOUS
10
7.217
20
-5.18889
11
7.21551
21
-5.18787
0
LINE
8
BLACK
6
CONTINUOUS
10
7.21551
20
-5.18787
11
7.14261
21
-5.0756
0
LINE
8
BLACK
6
CONTINUOUS
10
7.14261
20
-5.0756
11
7.14228
21
-5.07383
0
LINE
8
BLACK
6
CONTINUOUS
10
7.14228
20
-5.07383
11
7.1433
21
-5.07234
0
LINE
8
BLACK
6
CONTINUOUS
10
7.1433
20
-5.07234
11
7.26877
21
-4.99085
0
LINE
8
BLACK
6
CONTINUOUS
10
7.26877
20
-4.99085
11
7.27055
21
-4.99052
0
LINE
8
BLACK
6
CONTINUOUS
10
7.27055
20
-4.99052
11
7.27204
21
-4.99155
0
LINE
8
BLACK
6
CONTINUOUS
10
7.14786
20
-5.07501
11
7.21819
21
-5.18331
0
LINE
8
BLACK
6
CONTINUOUS
10
7.21819
20
-5.18331
11
7.3397
21
-5.1044
0
LINE
8
BLACK
6
CONTINUOUS
10
7.3397
20
-5.1044
11
7.26937
21
-4.9961
0
LINE
8
BLACK
6
CONTINUOUS
10
7.26937
20
-4.9961
11
7.14786
21
-5.07501
0
LINE
8
BLACK
6
CONTINUOUS
10
5.06311
20
-3.28485
11
5.06451
21
-3.286
0
LINE
8
BLACK
6
CONTINUOUS
10
5.06451
20
-3.286
11
5.06468
21
-3.2878
0
LINE
8
BLACK
6
CONTINUOUS
10
5.06468
20
-3.2878
11
5.02555
21
-3.41581
0
LINE
8
BLACK
6
CONTINUOUS
10
5.02555
20
-3.41581
11
5.0244
21
-3.41721
0
LINE
8
BLACK
6
CONTINUOUS
10
5.0244
20
-3.41721
11
5.0226
21
-3.41738
0
LINE
8
BLACK
6
CONTINUOUS
10
5.0226
20
-3.41738
11
4.87953
21
-3.37364
0
LINE
8
BLACK
6
CONTINUOUS
10
4.87953
20
-3.37364
11
4.87813
21
-3.37249
0
LINE
8
BLACK
6
CONTINUOUS
10
4.87813
20
-3.37249
11
4.87796
21
-3.37069
0
LINE
8
BLACK
6
CONTINUOUS
10
4.87796
20
-3.37069
11
4.91709
21
-3.24268
0
LINE
8
BLACK
6
CONTINUOUS
10
4.91709
20
-3.24268
11
4.91824
21
-3.24129
0
LINE
8
BLACK
6
CONTINUOUS
10
4.91824
20
-3.24129
11
4.92004
21
-3.24111
0
LINE
8
BLACK
6
CONTINUOUS
10
4.92004
20
-3.24111
11
5.06311
21
-3.28485
0
LINE
8
BLACK
6
CONTINUOUS
10
4.88317
20
-3.36981
11
5.02172
21
-3.41217
0
LINE
8
BLACK
6
CONTINUOUS
10
5.02172
20
-3.41217
11
5.05947
21
-3.28868
0
LINE
8
BLACK
6
CONTINUOUS
10
5.05947
20
-3.28868
11
4.92092
21
-3.24632
0
LINE
8
BLACK
6
CONTINUOUS
10
4.92092
20
-3.24632
11
4.88317
21
-3.36981
0
LINE
8
BLACK
6
CONTINUOUS
10
7.17412
20
-3.24129
11
7.17527
21
-3.24268
0
LINE
8
BLACK
6
CONTINUOUS
10
7.17527
20
-3.24268
11
7.21441
21
-3.37069
0
LINE
8
BLACK
6
CONTINUOUS
10
7.21441
20
-3.37069
11
7.21424
21
-3.37249
0
LINE
8
BLACK
6
CONTINUOUS
10
7.21424
20
-3.37249
11
7.21284
21
-3.37364
0
LINE
8
BLACK
6
CONTINUOUS
10
7.21284
20
-3.37364
11
7.06977
21
-3.41738
0
LINE
8
BLACK
6
CONTINUOUS
10
7.06977
20
-3.41738
11
7.06797
21
-3.41721
0
LINE
8
BLACK
6
CONTINUOUS
10
7.06797
20
-3.41721
11
7.06682
21
-3.41581
0
LINE
8
BLACK
6
CONTINUOUS
10
7.06682
20
-3.41581
11
7.02769
21
-3.2878
0
LINE
8
BLACK
6
CONTINUOUS
10
7.02769
20
-3.2878
11
7.02786
21
-3.286
0
LINE
8
BLACK
6
CONTINUOUS
10
7.02786
20
-3.286
11
7.02926
21
-3.28485
0
LINE
8
BLACK
6
CONTINUOUS
10
7.02926
20
-3.28485
11
7.17232
21
-3.24111
0
LINE
8
BLACK
6
CONTINUOUS
10
7.17232
20
-3.24111
11
7.17412
21
-3.24129
0
LINE
8
BLACK
6
CONTINUOUS
10
7.0329
20
-3.28868
11
7.07065
21
-3.41217
0
LINE
8
BLACK
6
CONTINUOUS
10
7.07065
20
-3.41217
11
7.2092
21
-3.36981
0
LINE
8
BLACK
6
CONTINUOUS
10
7.2092
20
-3.36981
11
7.17145
21
-3.24632
0
LINE
8
BLACK
6
CONTINUOUS
10
7.17145
20
-3.24632
11
7.0329
21
-3.28868
0
LINE
8
BLACK
6
CONTINUOUS
10
6.95485
20
-2.52406
11
6.956
21
-2.52545
0
LINE
8
BLACK
6
CONTINUOUS
10
6.956
20
-2.52545
11
6.99513
21
-2.65346
0
LINE
8
BLACK
6
CONTINUOUS
10
6.99513
20
-2.65346
11
6.99496
21
-2.65526
0
LINE
8
BLACK
6
CONTINUOUS
10
6.99496
20
-2.65526
11
6.99356
21
-2.65641
0
LINE
8
BLACK
6
CONTINUOUS
10
6.99356
20
-2.65641
11
6.85049
21
-2.70015
0
LINE
8
BLACK
6
CONTINUOUS
10
6.85049
20
-2.70015
11
6.8487
21
-2.69998
0
LINE
8
BLACK
6
CONTINUOUS
10
6.8487
20
-2.69998
11
6.84755
21
-2.69858
0
LINE
8
BLACK
6
CONTINUOUS
10
6.84755
20
-2.69858
11
6.80841
21
-2.57057
0
LINE
8
BLACK
6
CONTINUOUS
10
6.80841
20
-2.57057
11
6.80858
21
-2.56877
0
LINE
8
BLACK
6
CONTINUOUS
10
6.80858
20
-2.56877
11
6.80998
21
-2.56762
0
LINE
8
BLACK
6
CONTINUOUS
10
6.80998
20
-2.56762
11
6.95305
21
-2.52388
0
LINE
8
BLACK
6
CONTINUOUS
10
6.95305
20
-2.52388
11
6.95485
21
-2.52406
0
LINE
8
BLACK
6
CONTINUOUS
10
6.81362
20
-2.57145
11
6.85137
21
-2.69494
0
LINE
8
BLACK
6
CONTINUOUS
10
6.85137
20
-2.69494
11
6.98992
21
-2.65258
0
LINE
8
BLACK
6
CONTINUOUS
10
6.98992
20
-2.65258
11
6.95217
21
-2.52909
0
LINE
8
BLACK
6
CONTINUOUS
10
6.95217
20
-2.52909
11
6.81362
21
-2.57145
0
LINE
8
BLACK
6
CONTINUOUS
10
5.28239
20
-2.56762
11
5.28379
21
-2.56877
0
LINE
8
BLACK
6
CONTINUOUS
10
5.28379
20
-2.56877
11
5.28396
21
-2.57057
0
LINE
8
BLACK
6
CONTINUOUS
10
5.28396
20
-2.57057
11
5.24482
21
-2.69858
0
LINE
8
BLACK
6
CONTINUOUS
10
5.24482
20
-2.69858
11
5.24367
21
-2.69998
0
LINE
8
BLACK
6
CONTINUOUS
10
5.24367
20
-2.69998
11
5.24187
21
-2.70015
0
LINE
8
BLACK
6
CONTINUOUS
10
5.24187
20
-2.70015
11
5.0988
21
-2.65641
0
LINE
8
BLACK
6
CONTINUOUS
10
5.0988
20
-2.65641
11
5.09741
21
-2.65526
0
LINE
8
BLACK
6
CONTINUOUS
10
5.09741
20
-2.65526
11
5.09724
21
-2.65346
0
LINE
8
BLACK
6
CONTINUOUS
10
5.09724
20
-2.65346
11
5.13637
21
-2.52545
0
LINE
8
BLACK
6
CONTINUOUS
10
5.13637
20
-2.52545
11
5.13752
21
-2.52406
0
LINE
8
BLACK
6
CONTINUOUS
10
5.13752
20
-2.52406
11
5.13932
21
-2.52388
0
LINE
8
BLACK
6
CONTINUOUS
10
5.13932
20
-2.52388
11
5.28239
21
-2.56762
0
LINE
8
BLACK
6
CONTINUOUS
10
5.10245
20
-2.65258
11
5.241
21
-2.69494
0
LINE
8
BLACK
6
CONTINUOUS
10
5.241
20
-2.69494
11
5.27875
21
-2.57145
0
LINE
8
BLACK
6
CONTINUOUS
10
5.27875
20
-2.57145
11
5.1402
21
-2.52909
0
LINE
8
BLACK
6
CONTINUOUS
10
5.1402
20
-2.52909
11
5.10245
21
-2.65258
0
LINE
8
BLACK
6
CONTINUOUS
10
2.98452
20
-2.38794
11
2.98592
21
-2.38909
0
LINE
8
BLACK
6
CONTINUOUS
10
2.98592
20
-2.38909
11
2.98609
21
-2.39089
0
LINE
8
BLACK
6
CONTINUOUS
10
2.98609
20
-2.39089
11
2.94695
21
-2.5189
0
LINE
8
BLACK
6
CONTINUOUS
10
2.94695
20
-2.5189
11
2.9458
21
-2.52029
0
LINE
8
BLACK
6
CONTINUOUS
10
2.9458
20
-2.52029
11
2.944
21
-2.52047
0
LINE
8
BLACK
6
CONTINUOUS
10
2.944
20
-2.52047
11
2.80093
21
-2.47673
0
LINE
8
BLACK
6
CONTINUOUS
10
2.80093
20
-2.47673
11
2.79954
21
-2.47558
0
LINE
8
BLACK
6
CONTINUOUS
10
2.79954
20
-2.47558
11
2.79936
21
-2.47378
0
LINE
8
BLACK
6
CONTINUOUS
10
2.79936
20
-2.47378
11
2.8385
21
-2.34577
0
LINE
8
BLACK
6
CONTINUOUS
10
2.8385
20
-2.34577
11
2.83965
21
-2.34437
0
LINE
8
BLACK
6
CONTINUOUS
10
2.83965
20
-2.34437
11
2.84145
21
-2.3442
0
LINE
8
BLACK
6
CONTINUOUS
10
2.84145
20
-2.3442
11
2.98452
21
-2.38794
0
LINE
8
BLACK
6
CONTINUOUS
10
2.80457
20
-2.4729
11
2.94312
21
-2.51526
0
LINE
8
BLACK
6
CONTINUOUS
10
2.94312
20
-2.51526
11
2.98088
21
-2.39177
0
LINE
8
BLACK
6
CONTINUOUS
10
2.98088
20
-2.39177
11
2.84233
21
-2.34941
0
LINE
8
BLACK
6
CONTINUOUS
10
2.84233
20
-2.34941
11
2.80457
21
-2.4729
0
LINE
8
BLACK
6
CONTINUOUS
10
9.25272
20
-2.34437
11
9.25387
21
-2.34577
0
LINE
8
BLACK
6
CONTINUOUS
10
9.25387
20
-2.34577
11
9.293
21
-2.47378
0
LINE
8
BLACK
6
CONTINUOUS
10
9.293
20
-2.47378
11
9.29283
21
-2.47558
0
LINE
8
BLACK
6
CONTINUOUS
10
9.29283
20
-2.47558
11
9.29144
21
-2.47673
0
LINE
8
BLACK
6
CONTINUOUS
10
9.29144
20
-2.47673
11
9.14837
21
-2.52047
0
LINE
8
BLACK
6
CONTINUOUS
10
9.14837
20
-2.52047
11
9.14657
21
-2.52029
0
LINE
8
BLACK
6
CONTINUOUS
10
9.14657
20
-2.52029
11
9.14542
21
-2.5189
0
LINE
8
BLACK
6
CONTINUOUS
10
9.14542
20
-2.5189
11
9.10628
21
-2.39089
0
LINE
8
BLACK
6
CONTINUOUS
10
9.10628
20
-2.39089
11
9.10645
21
-2.38909
0
LINE
8
BLACK
6
CONTINUOUS
10
9.10645
20
-2.38909
11
9.10785
21
-2.38794
0
LINE
8
BLACK
6
CONTINUOUS
10
9.10785
20
-2.38794
11
9.25092
21
-2.3442
0
LINE
8
BLACK
6
CONTINUOUS
10
9.25092
20
-2.3442
11
9.25272
21
-2.34437
0
LINE
8
BLACK
6
CONTINUOUS
10
9.11149
20
-2.39177
11
9.14924
21
-2.51526
0
LINE
8
BLACK
6
CONTINUOUS
10
9.14924
20
-2.51526
11
9.2878
21
-2.4729
0
LINE
8
BLACK
6
CONTINUOUS
10
9.2878
20
-2.4729
11
9.25004
21
-2.34941
0
LINE
8
BLACK
6
CONTINUOUS
10
9.25004
20
-2.34941
11
9.11149
21
-2.39177
0
LINE
8
BLACK
6
CONTINUOUS
10
4.02157
20
-2.32634
11
4.02139
21
-2.32454
0
LINE
8
BLACK
6
CONTINUOUS
10
4.02139
20
-2.32454
11
4.06053
21
-2.19653
0
LINE
8
BLACK
6
CONTINUOUS
10
4.06053
20
-2.19653
11
4.06168
21
-2.19514
0
LINE
8
BLACK
6
CONTINUOUS
10
4.06168
20
-2.19514
11
4.06348
21
-2.19497
0
LINE
8
BLACK
6
CONTINUOUS
10
4.06348
20
-2.19497
11
4.20655
21
-2.23871
0
LINE
8
BLACK
6
CONTINUOUS
10
4.20655
20
-2.23871
11
4.20794
21
-2.23986
0
LINE
8
BLACK
6
CONTINUOUS
10
4.20794
20
-2.23986
11
4.20812
21
-2.24166
0
LINE
8
BLACK
6
CONTINUOUS
10
4.20812
20
-2.24166
11
4.16898
21
-2.36966
0
LINE
8
BLACK
6
CONTINUOUS
10
4.16898
20
-2.36966
11
4.16783
21
-2.37106
0
LINE
8
BLACK
6
CONTINUOUS
10
4.16783
20
-2.37106
11
4.16603
21
-2.37123
0
LINE
8
BLACK
6
CONTINUOUS
10
4.16603
20
-2.37123
11
4.02296
21
-2.32749
0
LINE
8
BLACK
6
CONTINUOUS
10
4.02296
20
-2.32749
11
4.02157
21
-2.32634
0
LINE
8
BLACK
6
CONTINUOUS
10
4.0266
20
-2.32367
11
4.16515
21
-2.36602
0
LINE
8
BLACK
6
CONTINUOUS
10
4.16515
20
-2.36602
11
4.20291
21
-2.24253
0
LINE
8
BLACK
6
CONTINUOUS
10
4.20291
20
-2.24253
11
4.06436
21
-2.20017
0
LINE
8
BLACK
6
CONTINUOUS
10
4.06436
20
-2.20017
11
4.0266
21
-2.32367
0
LINE
8
BLACK
6
CONTINUOUS
10
8.03069
20
-2.19514
11
8.03184
21
-2.19653
0
LINE
8
BLACK
6
CONTINUOUS
10
8.03184
20
-2.19653
11
8.07098
21
-2.32454
0
LINE
8
BLACK
6
CONTINUOUS
10
8.07098
20
-2.32454
11
8.0708
21
-2.32634
0
LINE
8
BLACK
6
CONTINUOUS
10
8.0708
20
-2.32634
11
8.06941
21
-2.32749
0
LINE
8
BLACK
6
CONTINUOUS
10
8.06941
20
-2.32749
11
7.92634
21
-2.37123
0
LINE
8
BLACK
6
CONTINUOUS
10
7.92634
20
-2.37123
11
7.92454
21
-2.37106
0
LINE
8
BLACK
6
CONTINUOUS
10
7.92454
20
-2.37106
11
7.92339
21
-2.36966
0
LINE
8
BLACK
6
CONTINUOUS
10
7.92339
20
-2.36966
11
7.88425
21
-2.24166
0
LINE
8
BLACK
6
CONTINUOUS
10
7.88425
20
-2.24166
11
7.88442
21
-2.23986
0
LINE
8
BLACK
6
CONTINUOUS
10
7.88442
20
-2.23986
11
7.88582
21
-2.23871
0
LINE
8
BLACK
6
CONTINUOUS
10
7.88582
20
-2.23871
11
8.02889
21
-2.19497
0
LINE
8
BLACK
6
CONTINUOUS
10
8.02889
20
-2.19497
11
8.03069
21
-2.19514
0
LINE
8
BLACK
6
CONTINUOUS
10
7.88946
20
-2.24253
11
7.92722
21
-2.36602
0
LINE
8
BLACK
6
CONTINUOUS
10
7.92722
20
-2.36602
11
8.06577
21
-2.32367
0
LINE
8
BLACK
6
CONTINUOUS
10
8.06577
20
-2.32367
11
8.02801
21
-2.20017
0
LINE
8
BLACK
6
CONTINUOUS
10
8.02801
20
-2.20017
11
7.88946
21
-2.24253
0
LINE
8
BLACK
6
CONTINUOUS
10
9.03344
20
-1.62714
11
9.03459
21
-1.62854
0
LINE
8
BLACK
6
CONTINUOUS
10
9.03459
20
-1.62854
11
9.07372
21
-1.75655
0
LINE
8
BLACK
6
CONTINUOUS
10
9.07372
20
-1.75655
11
9.07355
21
-1.75835
0
LINE
8
BLACK
6
CONTINUOUS
10
9.07355
20
-1.75835
11
9.07216
21
-1.7595
0
LINE
8
BLACK
6
CONTINUOUS
10
9.07216
20
-1.7595
11
8.92909
21
-1.80324
0
LINE
8
BLACK
6
CONTINUOUS
10
8.92909
20
-1.80324
11
8.92729
21
-1.80307
0
LINE
8
BLACK
6
CONTINUOUS
10
8.92729
20
-1.80307
11
8.92614
21
-1.80167
0
LINE
8
BLACK
6
CONTINUOUS
10
8.92614
20
-1.80167
11
8.887
21
-1.67366
0
LINE
8
BLACK
6
CONTINUOUS
10
8.887
20
-1.67366
11
8.88717
21
-1.67186
0
LINE
8
BLACK
6
CONTINUOUS
10
8.88717
20
-1.67186
11
8.88857
21
-1.67071
0
LINE
8
BLACK
6
CONTINUOUS
10
8.88857
20
-1.67071
11
9.03164
21
-1.62697
0
LINE
8
BLACK
6
CONTINUOUS
10
9.03164
20
-1.62697
11
9.03344
21
-1.62714
0
LINE
8
BLACK
6
CONTINUOUS
10
8.89221
20
-1.67454
11
8.92997
21
-1.79803
0
LINE
8
BLACK
6
CONTINUOUS
10
8.92997
20
-1.79803
11
9.06852
21
-1.75567
0
LINE
8
BLACK
6
CONTINUOUS
10
9.06852
20
-1.75567
11
9.03076
21
-1.63218
0
LINE
8
BLACK
6
CONTINUOUS
10
9.03076
20
-1.63218
11
8.89221
21
-1.67454
0
LINE
8
BLACK
6
CONTINUOUS
10
3.01882
20
-1.75835
11
3.01864
21
-1.75655
0
LINE
8
BLACK
6
CONTINUOUS
10
3.01864
20
-1.75655
11
3.05778
21
-1.62854
0
LINE
8
BLACK
6
CONTINUOUS
10
3.05778
20
-1.62854
11
3.05893
21
-1.62714
0
LINE
8
BLACK
6
CONTINUOUS
10
3.05893
20
-1.62714
11
3.06073
21
-1.62697
0
LINE
8
BLACK
6
CONTINUOUS
10
3.06073
20
-1.62697
11
3.2038
21
-1.67071
0
LINE
8
BLACK
6
CONTINUOUS
10
3.2038
20
-1.67071
11
3.20519
21
-1.67186
0
LINE
8
BLACK
6
CONTINUOUS
10
3.20519
20
-1.67186
11
3.20537
21
-1.67366
0
LINE
8
BLACK
6
CONTINUOUS
10
3.20537
20
-1.67366
11
3.16623
21
-1.80167
0
LINE
8
BLACK
6
CONTINUOUS
10
3.16623
20
-1.80167
11
3.16508
21
-1.80307
0
LINE
8
BLACK
6
CONTINUOUS
10
3.16508
20
-1.80307
11
3.16328
21
-1.80324
0
LINE
8
BLACK
6
CONTINUOUS
10
3.16328
20
-1.80324
11
3.02021
21
-1.7595
0
LINE
8
BLACK
6
CONTINUOUS
10
3.02021
20
-1.7595
11
3.01882
21
-1.75835
0
LINE
8
BLACK
6
CONTINUOUS
10
3.02385
20
-1.75567
11
3.1624
21
-1.79803
0
LINE
8
BLACK
6
CONTINUOUS
10
3.1624
20
-1.79803
11
3.20016
21
-1.67454
0
LINE
8
BLACK
6
CONTINUOUS
10
3.20016
20
-1.67454
11
3.06161
21
-1.63218
0
LINE
8
BLACK
6
CONTINUOUS
10
3.06161
20
-1.63218
11
3.02385
21
-1.75567
0
LINE
8
BLACK
6
CONTINUOUS
10
7.81141
20
-1.47791
11
7.81256
21
-1.47931
0
LINE
8
BLACK
6
CONTINUOUS
10
7.81256
20
-1.47931
11
7.8517
21
-1.60731
0
LINE
8
BLACK
6
CONTINUOUS
10
7.8517
20
-1.60731
11
7.85152
21
-1.60911
0
LINE
8
BLACK
6
CONTINUOUS
10
7.85152
20
-1.60911
11
7.85013
21
-1.61026
0
LINE
8
BLACK
6
CONTINUOUS
10
7.85013
20
-1.61026
11
7.70706
21
-1.654
0
LINE
8
BLACK
6
CONTINUOUS
10
7.70706
20
-1.654
11
7.70526
21
-1.65383
0
LINE
8
BLACK
6
CONTINUOUS
10
7.70526
20
-1.65383
11
7.70411
21
-1.65244
0
LINE
8
BLACK
6
CONTINUOUS
10
7.70411
20
-1.65244
11
7.66497
21
-1.52443
0
LINE
8
BLACK
6
CONTINUOUS
10
7.66497
20
-1.52443
11
7.66515
21
-1.52263
0
LINE
8
BLACK
6
CONTINUOUS
10
7.66515
20
-1.52263
11
7.66654
21
-1.52148
0
LINE
8
BLACK
6
CONTINUOUS
10
7.66654
20
-1.52148
11
7.80961
21
-1.47774
0
LINE
8
BLACK
6
CONTINUOUS
10
7.80961
20
-1.47774
11
7.81141
21
-1.47791
0
LINE
8
BLACK
6
CONTINUOUS
10
7.67018
20
-1.5253
11
7.70794
21
-1.6488
0
LINE
8
BLACK
6
CONTINUOUS
10
7.70794
20
-1.6488
11
7.84649
21
-1.60644
0
LINE
8
BLACK
6
CONTINUOUS
10
7.84649
20
-1.60644
11
7.80873
21
-1.48295
0
LINE
8
BLACK
6
CONTINUOUS
10
7.80873
20
-1.48295
11
7.67018
21
-1.5253
0
LINE
8
BLACK
6
CONTINUOUS
10
4.24085
20
-1.60911
11
4.24067
21
-1.60731
0
LINE
8
BLACK
6
CONTINUOUS
10
4.24067
20
-1.60731
11
4.27981
21
-1.47931
0
LINE
8
BLACK
6
CONTINUOUS
10
4.27981
20
-1.47931
11
4.28096
21
-1.47791
0
LINE
8
BLACK
6
CONTINUOUS
10
4.28096
20
-1.47791
11
4.28276
21
-1.47774
0
LINE
8
BLACK
6
CONTINUOUS
10
4.28276
20
-1.47774
11
4.42583
21
-1.52148
0
LINE
8
BLACK
6
CONTINUOUS
10
4.42583
20
-1.52148
11
4.42722
21
-1.52263
0
LINE
8
BLACK
6
CONTINUOUS
10
4.42722
20
-1.52263
11
4.4274
21
-1.52443
0
LINE
8
BLACK
6
CONTINUOUS
10
4.4274
20
-1.52443
11
4.38826
21
-1.65244
0
LINE
8
BLACK
6
CONTINUOUS
10
4.38826
20
-1.65244
11
4.38711
21
-1.65383
0
LINE
8
BLACK
6
CONTINUOUS
10
4.38711
20
-1.65383
11
4.38531
21
-1.654
0
LINE
8
BLACK
6
CONTINUOUS
10
4.38531
20
-1.654
11
4.24224
21
-1.61026
0
LINE
8
BLACK
6
CONTINUOUS
10
4.24224
20
-1.61026
11
4.24085
21
-1.60911
0
LINE
8
BLACK
6
CONTINUOUS
10
4.24588
20
-1.60644
11
4.38443
21
-1.6488
0
LINE
8
BLACK
6
CONTINUOUS
10
4.38443
20
-1.6488
11
4.42219
21
-1.5253
0
LINE
8
BLACK
6
CONTINUOUS
10
4.42219
20
-1.5253
11
4.28364
21
-1.48295
0
LINE
8
BLACK
6
CONTINUOUS
10
4.28364
20
-1.48295
11
4.24588
21
-1.60644
  0
ENDSEC
  0
EOF
