  0
SECTION
  2
HEADER
  9
$ANGBASE
  50
0.0
  9
$ANGDIR
  70
1
  9
$MEASUREMENT
  70
0
  0
ENDSEC
  0
SECTION
  2
TABLES
  0
TABLE
  2
LTYPE
  70
4
  0
LTYPE
  5
40F
  2
CONTINUOUS
  70
0
  3
Solid line
  72
65
  73
0
  40
0.0
  0
LTYPE
  5
410
  2
DASHDOT
 70
0
  3
Dash Dot ____ _ ____ _
 72
65
 73
4
 40
2.0
 49
1.25
 49
-0.25
 49
0.25
 49
-0.25
  0
LTYPE
  5
411
  2
DASHED
 70
0
  3
Dashed __ __ __ __ __
 72
65
 73
2
 40
0.75
 49
0.5
 49
-0.25
  0
LTYPE
  5
43B
  2
DOTTED
 70
0
  3
Dotted .  .  .  .
 72
65
 73
2
 40
0.2
 49
0.0
 49
-0.2
  0
ENDTAB
  0
TABLE
  2
STYLE
  70
4
  0
STYLE
  2
KICAD
  70
0
  40
0
  41
1
  42
1
  50
0
  71
0
  3
isocp.shx
  0
STYLE
  2
KICADB
  70
0
  40
0
  41
1
  42
1
  50
0
  71
0
  3
isocp.shx
  0
STYLE
  2
KICADI
  70
0
  40
0
  41
1
  42
1
  50
15
  71
0
  3
isocp.shx
  0
STYLE
  2
KICADBI
  70
0
  40
0
  41
1
  42
1
  50
15
  71
0
  3
isocp.shx
  0
ENDTAB
  0
TABLE
  2
LAYER
  70
1
  0
LAYER
  2
BLACK
  70
0
  62
7
  6
CONTINUOUS
  0
ENDTAB
  0
ENDSEC
  0
SECTION
  2
ENTITIES
0
LINE
8
BLACK
6
CONTINUOUS
10
5.60445
20
-4.43276
11
5.60417
21
-4.43207
0
LINE
8
BLACK
6
CONTINUOUS
10
5.60417
20
-4.43207
11
5.60417
21
-3.99112
0
LINE
8
BLACK
6
CONTINUOUS
10
5.60417
20
-3.99112
11
5.60445
21
-3.99043
0
LINE
8
BLACK
6
CONTINUOUS
10
5.60445
20
-3.99043
11
5.60515
21
-3.99014
0
LINE
8
BLACK
6
CONTINUOUS
10
5.60515
20
-3.99014
11
5.74491
21
-3.99014
0
LINE
8
BLACK
6
CONTINUOUS
10
5.74491
20
-3.99014
11
5.74561
21
-3.99043
0
LINE
8
BLACK
6
CONTINUOUS
10
5.74561
20
-3.99043
11
5.7459
21
-3.99112
0
LINE
8
BLACK
6
CONTINUOUS
10
5.7459
20
-3.99112
11
5.7459
21
-4.43207
0
LINE
8
BLACK
6
CONTINUOUS
10
5.7459
20
-4.43207
11
5.74561
21
-4.43276
0
LINE
8
BLACK
6
CONTINUOUS
10
5.74561
20
-4.43276
11
5.74491
21
-4.43305
0
LINE
8
BLACK
6
CONTINUOUS
10
5.74491
20
-4.43305
11
5.60515
21
-4.43305
0
LINE
8
BLACK
6
CONTINUOUS
10
5.60515
20
-4.43305
11
5.60445
21
-4.43276
0
LINE
8
BLACK
6
CONTINUOUS
10
5.60613
20
-3.99211
11
5.60613
21
-4.43108
0
LINE
8
BLACK
6
CONTINUOUS
10
5.60613
20
-4.43108
11
5.74393
21
-4.43108
0
LINE
8
BLACK
6
CONTINUOUS
10
5.74393
20
-4.43108
11
5.74393
21
-3.99211
0
LINE
8
BLACK
6
CONTINUOUS
10
5.74393
20
-3.99211
11
5.60613
21
-3.99211
0
LINE
8
BLACK
6
CONTINUOUS
10
6.34479
20
-4.43276
11
6.3445
21
-4.43207
0
LINE
8
BLACK
6
CONTINUOUS
10
6.3445
20
-4.43207
11
6.3445
21
-3.99112
0
LINE
8
BLACK
6
CONTINUOUS
10
6.3445
20
-3.99112
11
6.34479
21
-3.99043
0
LINE
8
BLACK
6
CONTINUOUS
10
6.34479
20
-3.99043
11
6.34549
21
-3.99014
0
LINE
8
BLACK
6
CONTINUOUS
10
6.34549
20
-3.99014
11
6.48525
21
-3.99014
0
LINE
8
BLACK
6
CONTINUOUS
10
6.48525
20
-3.99014
11
6.48595
21
-3.99043
0
LINE
8
BLACK
6
CONTINUOUS
10
6.48595
20
-3.99043
11
6.48623
21
-3.99112
0
LINE
8
BLACK
6
CONTINUOUS
10
6.48623
20
-3.99112
11
6.48623
21
-4.43207
0
LINE
8
BLACK
6
CONTINUOUS
10
6.48623
20
-4.43207
11
6.48595
21
-4.43276
0
LINE
8
BLACK
6
CONTINUOUS
10
6.48595
20
-4.43276
11
6.48525
21
-4.43305
0
LINE
8
BLACK
6
CONTINUOUS
10
6.48525
20
-4.43305
11
6.34549
21
-4.43305
0
LINE
8
BLACK
6
CONTINUOUS
10
6.34549
20
-4.43305
11
6.34479
21
-4.43276
0
LINE
8
BLACK
6
CONTINUOUS
10
6.34647
20
-3.99211
11
6.34647
21
-4.43108
0
LINE
8
BLACK
6
CONTINUOUS
10
6.34647
20
-4.43108
11
6.48427
21
-4.43108
0
LINE
8
BLACK
6
CONTINUOUS
10
6.48427
20
-4.43108
11
6.48427
21
-3.99211
0
LINE
8
BLACK
6
CONTINUOUS
10
6.48427
20
-3.99211
11
6.34647
21
-3.99211
0
LINE
8
BLACK
6
CONTINUOUS
10
7.83174
20
-4.37538
11
7.83145
21
-4.37468
0
LINE
8
BLACK
6
CONTINUOUS
10
7.83145
20
-4.37468
11
7.83145
21
-3.43374
0
LINE
8
BLACK
6
CONTINUOUS
10
7.83145
20
-3.43374
11
7.83174
21
-3.43304
0
LINE
8
BLACK
6
CONTINUOUS
10
7.83174
20
-3.43304
11
7.83243
21
-3.43275
0
LINE
8
BLACK
6
CONTINUOUS
10
7.83243
20
-3.43275
11
8.31668
21
-3.43275
0
LINE
8
BLACK
6
CONTINUOUS
10
8.31668
20
-3.43275
11
8.31738
21
-3.43304
0
LINE
8
BLACK
6
CONTINUOUS
10
8.31738
20
-3.43304
11
8.31767
21
-3.43374
0
LINE
8
BLACK
6
CONTINUOUS
10
8.31767
20
-3.43374
11
8.31767
21
-4.37468
0
LINE
8
BLACK
6
CONTINUOUS
10
8.31767
20
-4.37468
11
8.31738
21
-4.37538
0
LINE
8
BLACK
6
CONTINUOUS
10
8.31738
20
-4.37538
11
8.31668
21
-4.37566
0
LINE
8
BLACK
6
CONTINUOUS
10
8.31668
20
-4.37566
11
7.83243
21
-4.37566
0
LINE
8
BLACK
6
CONTINUOUS
10
7.83243
20
-4.37566
11
7.83174
21
-4.37538
0
LINE
8
BLACK
6
CONTINUOUS
10
7.83342
20
-3.43472
11
7.83342
21
-4.3737
0
LINE
8
BLACK
6
CONTINUOUS
10
7.83342
20
-4.3737
11
8.3157
21
-4.3737
0
LINE
8
BLACK
6
CONTINUOUS
10
8.3157
20
-4.3737
11
8.3157
21
-3.43472
0
LINE
8
BLACK
6
CONTINUOUS
10
8.3157
20
-3.43472
11
7.83342
21
-3.43472
0
LINE
8
BLACK
6
CONTINUOUS
10
3.42859
20
-4.37498
11
3.4283
21
-4.37429
0
LINE
8
BLACK
6
CONTINUOUS
10
3.4283
20
-4.37429
11
3.4283
21
-3.43334
0
LINE
8
BLACK
6
CONTINUOUS
10
3.4283
20
-3.43334
11
3.42859
21
-3.43265
0
LINE
8
BLACK
6
CONTINUOUS
10
3.42859
20
-3.43265
11
3.42928
21
-3.43236
0
LINE
8
BLACK
6
CONTINUOUS
10
3.42928
20
-3.43236
11
3.91353
21
-3.43236
0
LINE
8
BLACK
6
CONTINUOUS
10
3.91353
20
-3.43236
11
3.91423
21
-3.43265
0
LINE
8
BLACK
6
CONTINUOUS
10
3.91423
20
-3.43265
11
3.91452
21
-3.43334
0
LINE
8
BLACK
6
CONTINUOUS
10
3.91452
20
-3.43334
11
3.91452
21
-4.37429
0
LINE
8
BLACK
6
CONTINUOUS
10
3.91452
20
-4.37429
11
3.91423
21
-4.37498
0
LINE
8
BLACK
6
CONTINUOUS
10
3.91423
20
-4.37498
11
3.91353
21
-4.37527
0
LINE
8
BLACK
6
CONTINUOUS
10
3.91353
20
-4.37527
11
3.42928
21
-4.37527
0
LINE
8
BLACK
6
CONTINUOUS
10
3.42928
20
-4.37527
11
3.42859
21
-4.37498
0
LINE
8
BLACK
6
CONTINUOUS
10
3.43027
20
-3.43433
11
3.43027
21
-4.3733
0
LINE
8
BLACK
6
CONTINUOUS
10
3.43027
20
-4.3733
11
3.91255
21
-4.3733
0
LINE
8
BLACK
6
CONTINUOUS
10
3.91255
20
-4.3733
11
3.91255
21
-3.43433
0
LINE
8
BLACK
6
CONTINUOUS
10
3.91255
20
-3.43433
11
3.43027
21
-3.43433
0
LINE
8
BLACK
6
CONTINUOUS
10
5.41695
20
-3.91947
11
5.41667
21
-3.91877
0
LINE
8
BLACK
6
CONTINUOUS
10
5.41667
20
-3.91877
11
5.41667
21
-3.77901
0
LINE
8
BLACK
6
CONTINUOUS
10
5.41667
20
-3.77901
11
5.41695
21
-3.77831
0
LINE
8
BLACK
6
CONTINUOUS
10
5.41695
20
-3.77831
11
5.41765
21
-3.77803
0
LINE
8
BLACK
6
CONTINUOUS
10
5.41765
20
-3.77803
11
5.55741
21
-3.77803
0
LINE
8
BLACK
6
CONTINUOUS
10
5.55741
20
-3.77803
11
5.55811
21
-3.77831
0
LINE
8
BLACK
6
CONTINUOUS
10
5.55811
20
-3.77831
11
5.5584
21
-3.77901
0
LINE
8
BLACK
6
CONTINUOUS
10
5.5584
20
-3.77901
11
5.5584
21
-3.91877
0
LINE
8
BLACK
6
CONTINUOUS
10
5.5584
20
-3.91877
11
5.55811
21
-3.91947
0
LINE
8
BLACK
6
CONTINUOUS
10
5.55811
20
-3.91947
11
5.55741
21
-3.91976
0
LINE
8
BLACK
6
CONTINUOUS
10
5.55741
20
-3.91976
11
5.41765
21
-3.91976
0
LINE
8
BLACK
6
CONTINUOUS
10
5.41765
20
-3.91976
11
5.41695
21
-3.91947
0
LINE
8
BLACK
6
CONTINUOUS
10
5.41863
20
-3.78
11
5.41863
21
-3.91779
0
LINE
8
BLACK
6
CONTINUOUS
10
5.41863
20
-3.91779
11
5.55643
21
-3.91779
0
LINE
8
BLACK
6
CONTINUOUS
10
5.55643
20
-3.91779
11
5.55643
21
-3.78
0
LINE
8
BLACK
6
CONTINUOUS
10
5.55643
20
-3.78
11
5.41863
21
-3.78
0
LINE
8
BLACK
6
CONTINUOUS
10
6.41949
20
-3.91947
11
6.4192
21
-3.91877
0
LINE
8
BLACK
6
CONTINUOUS
10
6.4192
20
-3.91877
11
6.4192
21
-3.77901
0
LINE
8
BLACK
6
CONTINUOUS
10
6.4192
20
-3.77901
11
6.41949
21
-3.77831
0
LINE
8
BLACK
6
CONTINUOUS
10
6.41949
20
-3.77831
11
6.42019
21
-3.77803
0
LINE
8
BLACK
6
CONTINUOUS
10
6.42019
20
-3.77803
11
6.55995
21
-3.77803
0
LINE
8
BLACK
6
CONTINUOUS
10
6.55995
20
-3.77803
11
6.56065
21
-3.77831
0
LINE
8
BLACK
6
CONTINUOUS
10
6.56065
20
-3.77831
11
6.56094
21
-3.77901
0
LINE
8
BLACK
6
CONTINUOUS
10
6.56094
20
-3.77901
11
6.56094
21
-3.91877
0
LINE
8
BLACK
6
CONTINUOUS
10
6.56094
20
-3.91877
11
6.56065
21
-3.91947
0
LINE
8
BLACK
6
CONTINUOUS
10
6.56065
20
-3.91947
11
6.55995
21
-3.91976
0
LINE
8
BLACK
6
CONTINUOUS
10
6.55995
20
-3.91976
11
6.42019
21
-3.91976
0
LINE
8
BLACK
6
CONTINUOUS
10
6.42019
20
-3.91976
11
6.41949
21
-3.91947
0
LINE
8
BLACK
6
CONTINUOUS
10
6.42117
20
-3.78
11
6.42117
21
-3.91779
0
LINE
8
BLACK
6
CONTINUOUS
10
6.42117
20
-3.91779
11
6.55897
21
-3.91779
0
LINE
8
BLACK
6
CONTINUOUS
10
6.55897
20
-3.91779
11
6.55897
21
-3.78
0
LINE
8
BLACK
6
CONTINUOUS
10
6.55897
20
-3.78
11
6.42117
21
-3.78
0
LINE
8
BLACK
6
CONTINUOUS
10
5.74789
20
-6.03037
11
5.75168
21
-6.01873
0
LINE
8
BLACK
6
CONTINUOUS
10
5.75168
20
-6.01873
11
5.75689
21
-6.00766
0
LINE
8
BLACK
6
CONTINUOUS
10
5.75689
20
-6.00766
11
5.76344
21
-5.99733
0
LINE
8
BLACK
6
CONTINUOUS
10
5.76344
20
-5.99733
11
5.77124
21
-5.9879
0
LINE
8
BLACK
6
CONTINUOUS
10
5.77124
20
-5.9879
11
5.78016
21
-5.97952
0
LINE
8
BLACK
6
CONTINUOUS
10
5.78016
20
-5.97952
11
5.79006
21
-5.97233
0
LINE
8
BLACK
6
CONTINUOUS
10
5.79006
20
-5.97233
11
5.80079
21
-5.96643
0
LINE
8
BLACK
6
CONTINUOUS
10
5.80079
20
-5.96643
11
5.81216
21
-5.96193
0
LINE
8
BLACK
6
CONTINUOUS
10
5.81216
20
-5.96193
11
5.82402
21
-5.95889
0
LINE
8
BLACK
6
CONTINUOUS
10
5.82402
20
-5.95889
11
5.83616
21
-5.95735
0
LINE
8
BLACK
6
CONTINUOUS
10
5.83616
20
-5.95735
11
5.84839
21
-5.95735
0
LINE
8
BLACK
6
CONTINUOUS
10
5.84839
20
-5.95735
11
5.86053
21
-5.95889
0
LINE
8
BLACK
6
CONTINUOUS
10
5.86053
20
-5.95889
11
5.87238
21
-5.96193
0
LINE
8
BLACK
6
CONTINUOUS
10
5.87238
20
-5.96193
11
5.88376
21
-5.96643
0
LINE
8
BLACK
6
CONTINUOUS
10
5.88376
20
-5.96643
11
5.89449
21
-5.97233
0
LINE
8
BLACK
6
CONTINUOUS
10
5.89449
20
-5.97233
11
5.90438
21
-5.97952
0
LINE
8
BLACK
6
CONTINUOUS
10
5.90438
20
-5.97952
11
5.91331
21
-5.9879
0
LINE
8
BLACK
6
CONTINUOUS
10
5.91331
20
-5.9879
11
5.92111
21
-5.99733
0
LINE
8
BLACK
6
CONTINUOUS
10
5.92111
20
-5.99733
11
5.92766
21
-6.00766
0
LINE
8
BLACK
6
CONTINUOUS
10
5.92766
20
-6.00766
11
5.93287
21
-6.01873
0
LINE
8
BLACK
6
CONTINUOUS
10
5.93287
20
-6.01873
11
5.93665
21
-6.03037
0
LINE
8
BLACK
6
CONTINUOUS
10
5.93665
20
-6.03037
11
5.93895
21
-6.04239
0
LINE
8
BLACK
6
CONTINUOUS
10
5.93895
20
-6.04239
11
5.93971
21
-6.0546
0
LINE
8
BLACK
6
CONTINUOUS
10
5.93971
20
-6.0546
11
5.93895
21
-6.06681
0
LINE
8
BLACK
6
CONTINUOUS
10
5.93895
20
-6.06681
11
5.93665
21
-6.07883
0
LINE
8
BLACK
6
CONTINUOUS
10
5.93665
20
-6.07883
11
5.93287
21
-6.09047
0
LINE
8
BLACK
6
CONTINUOUS
10
5.93287
20
-6.09047
11
5.92766
21
-6.10154
0
LINE
8
BLACK
6
CONTINUOUS
10
5.92766
20
-6.10154
11
5.92111
21
-6.11188
0
LINE
8
BLACK
6
CONTINUOUS
10
5.92111
20
-6.11188
11
5.91331
21
-6.1213
0
LINE
8
BLACK
6
CONTINUOUS
10
5.91331
20
-6.1213
11
5.90438
21
-6.12968
0
LINE
8
BLACK
6
CONTINUOUS
10
5.90438
20
-6.12968
11
5.89449
21
-6.13687
0
LINE
8
BLACK
6
CONTINUOUS
10
5.89449
20
-6.13687
11
5.88376
21
-6.14277
0
LINE
8
BLACK
6
CONTINUOUS
10
5.88376
20
-6.14277
11
5.87238
21
-6.14727
0
LINE
8
BLACK
6
CONTINUOUS
10
5.87238
20
-6.14727
11
5.86053
21
-6.15032
0
LINE
8
BLACK
6
CONTINUOUS
10
5.86053
20
-6.15032
11
5.84839
21
-6.15185
0
LINE
8
BLACK
6
CONTINUOUS
10
5.84839
20
-6.15185
11
5.83616
21
-6.15185
0
LINE
8
BLACK
6
CONTINUOUS
10
5.83616
20
-6.15185
11
5.82402
21
-6.15032
0
LINE
8
BLACK
6
CONTINUOUS
10
5.82402
20
-6.15032
11
5.81216
21
-6.14727
0
LINE
8
BLACK
6
CONTINUOUS
10
5.81216
20
-6.14727
11
5.80079
21
-6.14277
0
LINE
8
BLACK
6
CONTINUOUS
10
5.80079
20
-6.14277
11
5.79006
21
-6.13687
0
LINE
8
BLACK
6
CONTINUOUS
10
5.79006
20
-6.13687
11
5.78016
21
-6.12968
0
LINE
8
BLACK
6
CONTINUOUS
10
5.78016
20
-6.12968
11
5.77124
21
-6.1213
0
LINE
8
BLACK
6
CONTINUOUS
10
5.77124
20
-6.1213
11
5.76344
21
-6.11188
0
LINE
8
BLACK
6
CONTINUOUS
10
5.76344
20
-6.11188
11
5.75689
21
-6.10154
0
LINE
8
BLACK
6
CONTINUOUS
10
5.75689
20
-6.10154
11
5.75168
21
-6.09047
0
LINE
8
BLACK
6
CONTINUOUS
10
5.75168
20
-6.09047
11
5.74789
21
-6.07883
0
LINE
8
BLACK
6
CONTINUOUS
10
5.74789
20
-6.07883
11
5.7456
21
-6.06681
0
LINE
8
BLACK
6
CONTINUOUS
10
5.7456
20
-6.06681
11
5.74483
21
-6.0546
0
LINE
8
BLACK
6
CONTINUOUS
10
5.74483
20
-6.0546
11
5.7456
21
-6.04239
0
LINE
8
BLACK
6
CONTINUOUS
10
5.7456
20
-6.04239
11
5.74789
21
-6.03037
0
LINE
8
BLACK
6
CONTINUOUS
10
5.74962
20
-6.07839
11
5.75333
21
-6.08982
0
LINE
8
BLACK
6
CONTINUOUS
10
5.75333
20
-6.08982
11
5.75845
21
-6.10069
0
LINE
8
BLACK
6
CONTINUOUS
10
5.75845
20
-6.10069
11
5.76488
21
-6.11083
0
LINE
8
BLACK
6
CONTINUOUS
10
5.76488
20
-6.11083
11
5.77254
21
-6.12009
0
LINE
8
BLACK
6
CONTINUOUS
10
5.77254
20
-6.12009
11
5.7813
21
-6.12831
0
LINE
8
BLACK
6
CONTINUOUS
10
5.7813
20
-6.12831
11
5.79102
21
-6.13537
0
LINE
8
BLACK
6
CONTINUOUS
10
5.79102
20
-6.13537
11
5.80154
21
-6.14116
0
LINE
8
BLACK
6
CONTINUOUS
10
5.80154
20
-6.14116
11
5.81271
21
-6.14558
0
LINE
8
BLACK
6
CONTINUOUS
10
5.81271
20
-6.14558
11
5.82435
21
-6.14857
0
LINE
8
BLACK
6
CONTINUOUS
10
5.82435
20
-6.14857
11
5.83627
21
-6.15007
0
LINE
8
BLACK
6
CONTINUOUS
10
5.83627
20
-6.15007
11
5.84828
21
-6.15007
0
LINE
8
BLACK
6
CONTINUOUS
10
5.84828
20
-6.15007
11
5.8602
21
-6.14857
0
LINE
8
BLACK
6
CONTINUOUS
10
5.8602
20
-6.14857
11
5.87183
21
-6.14558
0
LINE
8
BLACK
6
CONTINUOUS
10
5.87183
20
-6.14558
11
5.883
21
-6.14116
0
LINE
8
BLACK
6
CONTINUOUS
10
5.883
20
-6.14116
11
5.89353
21
-6.13537
0
LINE
8
BLACK
6
CONTINUOUS
10
5.89353
20
-6.13537
11
5.90325
21
-6.12831
0
LINE
8
BLACK
6
CONTINUOUS
10
5.90325
20
-6.12831
11
5.91201
21
-6.12009
0
LINE
8
BLACK
6
CONTINUOUS
10
5.91201
20
-6.12009
11
5.91967
21
-6.11083
0
LINE
8
BLACK
6
CONTINUOUS
10
5.91967
20
-6.11083
11
5.9261
21
-6.10069
0
LINE
8
BLACK
6
CONTINUOUS
10
5.9261
20
-6.10069
11
5.93122
21
-6.08982
0
LINE
8
BLACK
6
CONTINUOUS
10
5.93122
20
-6.08982
11
5.93493
21
-6.07839
0
LINE
8
BLACK
6
CONTINUOUS
10
5.93493
20
-6.07839
11
5.93718
21
-6.06659
0
LINE
8
BLACK
6
CONTINUOUS
10
5.93718
20
-6.06659
11
5.93793
21
-6.0546
0
LINE
8
BLACK
6
CONTINUOUS
10
5.93793
20
-6.0546
11
5.93718
21
-6.04261
0
LINE
8
BLACK
6
CONTINUOUS
10
5.93718
20
-6.04261
11
5.93493
21
-6.03081
0
LINE
8
BLACK
6
CONTINUOUS
10
5.93493
20
-6.03081
11
5.93122
21
-6.01939
0
LINE
8
BLACK
6
CONTINUOUS
10
5.93122
20
-6.01939
11
5.9261
21
-6.00852
0
LINE
8
BLACK
6
CONTINUOUS
10
5.9261
20
-6.00852
11
5.91967
21
-5.99837
0
LINE
8
BLACK
6
CONTINUOUS
10
5.91967
20
-5.99837
11
5.91201
21
-5.98912
0
LINE
8
BLACK
6
CONTINUOUS
10
5.91201
20
-5.98912
11
5.90325
21
-5.98089
0
LINE
8
BLACK
6
CONTINUOUS
10
5.90325
20
-5.98089
11
5.89353
21
-5.97383
0
LINE
8
BLACK
6
CONTINUOUS
10
5.89353
20
-5.97383
11
5.883
21
-5.96804
0
LINE
8
BLACK
6
CONTINUOUS
10
5.883
20
-5.96804
11
5.87183
21
-5.96362
0
LINE
8
BLACK
6
CONTINUOUS
10
5.87183
20
-5.96362
11
5.8602
21
-5.96063
0
LINE
8
BLACK
6
CONTINUOUS
10
5.8602
20
-5.96063
11
5.84828
21
-5.95913
0
LINE
8
BLACK
6
CONTINUOUS
10
5.84828
20
-5.95913
11
5.83627
21
-5.95913
0
LINE
8
BLACK
6
CONTINUOUS
10
5.83627
20
-5.95913
11
5.82435
21
-5.96063
0
LINE
8
BLACK
6
CONTINUOUS
10
5.82435
20
-5.96063
11
5.81271
21
-5.96362
0
LINE
8
BLACK
6
CONTINUOUS
10
5.81271
20
-5.96362
11
5.80154
21
-5.96804
0
LINE
8
BLACK
6
CONTINUOUS
10
5.80154
20
-5.96804
11
5.79102
21
-5.97383
0
LINE
8
BLACK
6
CONTINUOUS
10
5.79102
20
-5.97383
11
5.7813
21
-5.98089
0
LINE
8
BLACK
6
CONTINUOUS
10
5.7813
20
-5.98089
11
5.77254
21
-5.98912
0
LINE
8
BLACK
6
CONTINUOUS
10
5.77254
20
-5.98912
11
5.76488
21
-5.99837
0
LINE
8
BLACK
6
CONTINUOUS
10
5.76488
20
-5.99837
11
5.75845
21
-6.00852
0
LINE
8
BLACK
6
CONTINUOUS
10
5.75845
20
-6.00852
11
5.75333
21
-6.01939
0
LINE
8
BLACK
6
CONTINUOUS
10
5.75333
20
-6.01939
11
5.74962
21
-6.03081
0
LINE
8
BLACK
6
CONTINUOUS
10
5.74962
20
-6.03081
11
5.74737
21
-6.04261
0
LINE
8
BLACK
6
CONTINUOUS
10
5.74737
20
-6.04261
11
5.74661
21
-6.0546
0
LINE
8
BLACK
6
CONTINUOUS
10
5.74661
20
-6.0546
11
5.74737
21
-6.06659
0
LINE
8
BLACK
6
CONTINUOUS
10
5.74737
20
-6.06659
11
5.74962
21
-6.07839
0
LINE
8
BLACK
6
CONTINUOUS
10
6.14159
20
-6.03037
11
6.14538
21
-6.01873
0
LINE
8
BLACK
6
CONTINUOUS
10
6.14538
20
-6.01873
11
6.15059
21
-6.00766
0
LINE
8
BLACK
6
CONTINUOUS
10
6.15059
20
-6.00766
11
6.15714
21
-5.99733
0
LINE
8
BLACK
6
CONTINUOUS
10
6.15714
20
-5.99733
11
6.16494
21
-5.9879
0
LINE
8
BLACK
6
CONTINUOUS
10
6.16494
20
-5.9879
11
6.17386
21
-5.97952
0
LINE
8
BLACK
6
CONTINUOUS
10
6.17386
20
-5.97952
11
6.18376
21
-5.97233
0
LINE
8
BLACK
6
CONTINUOUS
10
6.18376
20
-5.97233
11
6.19449
21
-5.96643
0
LINE
8
BLACK
6
CONTINUOUS
10
6.19449
20
-5.96643
11
6.20586
21
-5.96193
0
LINE
8
BLACK
6
CONTINUOUS
10
6.20586
20
-5.96193
11
6.21772
21
-5.95889
0
LINE
8
BLACK
6
CONTINUOUS
10
6.21772
20
-5.95889
11
6.22986
21
-5.95735
0
LINE
8
BLACK
6
CONTINUOUS
10
6.22986
20
-5.95735
11
6.24209
21
-5.95735
0
LINE
8
BLACK
6
CONTINUOUS
10
6.24209
20
-5.95735
11
6.25423
21
-5.95889
0
LINE
8
BLACK
6
CONTINUOUS
10
6.25423
20
-5.95889
11
6.26609
21
-5.96193
0
LINE
8
BLACK
6
CONTINUOUS
10
6.26609
20
-5.96193
11
6.27746
21
-5.96643
0
LINE
8
BLACK
6
CONTINUOUS
10
6.27746
20
-5.96643
11
6.28819
21
-5.97233
0
LINE
8
BLACK
6
CONTINUOUS
10
6.28819
20
-5.97233
11
6.29809
21
-5.97952
0
LINE
8
BLACK
6
CONTINUOUS
10
6.29809
20
-5.97952
11
6.30701
21
-5.9879
0
LINE
8
BLACK
6
CONTINUOUS
10
6.30701
20
-5.9879
11
6.31481
21
-5.99733
0
LINE
8
BLACK
6
CONTINUOUS
10
6.31481
20
-5.99733
11
6.32136
21
-6.00766
0
LINE
8
BLACK
6
CONTINUOUS
10
6.32136
20
-6.00766
11
6.32657
21
-6.01873
0
LINE
8
BLACK
6
CONTINUOUS
10
6.32657
20
-6.01873
11
6.33035
21
-6.03037
0
LINE
8
BLACK
6
CONTINUOUS
10
6.33035
20
-6.03037
11
6.33265
21
-6.04239
0
LINE
8
BLACK
6
CONTINUOUS
10
6.33265
20
-6.04239
11
6.33342
21
-6.0546
0
LINE
8
BLACK
6
CONTINUOUS
10
6.33342
20
-6.0546
11
6.33265
21
-6.06681
0
LINE
8
BLACK
6
CONTINUOUS
10
6.33265
20
-6.06681
11
6.33035
21
-6.07883
0
LINE
8
BLACK
6
CONTINUOUS
10
6.33035
20
-6.07883
11
6.32657
21
-6.09047
0
LINE
8
BLACK
6
CONTINUOUS
10
6.32657
20
-6.09047
11
6.32136
21
-6.10154
0
LINE
8
BLACK
6
CONTINUOUS
10
6.32136
20
-6.10154
11
6.31481
21
-6.11188
0
LINE
8
BLACK
6
CONTINUOUS
10
6.31481
20
-6.11188
11
6.30701
21
-6.1213
0
LINE
8
BLACK
6
CONTINUOUS
10
6.30701
20
-6.1213
11
6.29809
21
-6.12968
0
LINE
8
BLACK
6
CONTINUOUS
10
6.29809
20
-6.12968
11
6.28819
21
-6.13687
0
LINE
8
BLACK
6
CONTINUOUS
10
6.28819
20
-6.13687
11
6.27746
21
-6.14277
0
LINE
8
BLACK
6
CONTINUOUS
10
6.27746
20
-6.14277
11
6.26609
21
-6.14727
0
LINE
8
BLACK
6
CONTINUOUS
10
6.26609
20
-6.14727
11
6.25423
21
-6.15032
0
LINE
8
BLACK
6
CONTINUOUS
10
6.25423
20
-6.15032
11
6.24209
21
-6.15185
0
LINE
8
BLACK
6
CONTINUOUS
10
6.24209
20
-6.15185
11
6.22986
21
-6.15185
0
LINE
8
BLACK
6
CONTINUOUS
10
6.22986
20
-6.15185
11
6.21772
21
-6.15032
0
LINE
8
BLACK
6
CONTINUOUS
10
6.21772
20
-6.15032
11
6.20586
21
-6.14727
0
LINE
8
BLACK
6
CONTINUOUS
10
6.20586
20
-6.14727
11
6.19449
21
-6.14277
0
LINE
8
BLACK
6
CONTINUOUS
10
6.19449
20
-6.14277
11
6.18376
21
-6.13687
0
LINE
8
BLACK
6
CONTINUOUS
10
6.18376
20
-6.13687
11
6.17386
21
-6.12968
0
LINE
8
BLACK
6
CONTINUOUS
10
6.17386
20
-6.12968
11
6.16494
21
-6.1213
0
LINE
8
BLACK
6
CONTINUOUS
10
6.16494
20
-6.1213
11
6.15714
21
-6.11188
0
LINE
8
BLACK
6
CONTINUOUS
10
6.15714
20
-6.11188
11
6.15059
21
-6.10154
0
LINE
8
BLACK
6
CONTINUOUS
10
6.15059
20
-6.10154
11
6.14538
21
-6.09047
0
LINE
8
BLACK
6
CONTINUOUS
10
6.14538
20
-6.09047
11
6.14159
21
-6.07883
0
LINE
8
BLACK
6
CONTINUOUS
10
6.14159
20
-6.07883
11
6.1393
21
-6.06681
0
LINE
8
BLACK
6
CONTINUOUS
10
6.1393
20
-6.06681
11
6.13853
21
-6.0546
0
LINE
8
BLACK
6
CONTINUOUS
10
6.13853
20
-6.0546
11
6.1393
21
-6.04239
0
LINE
8
BLACK
6
CONTINUOUS
10
6.1393
20
-6.04239
11
6.14159
21
-6.03037
0
LINE
8
BLACK
6
CONTINUOUS
10
6.14332
20
-6.07839
11
6.14703
21
-6.08982
0
LINE
8
BLACK
6
CONTINUOUS
10
6.14703
20
-6.08982
11
6.15215
21
-6.10069
0
LINE
8
BLACK
6
CONTINUOUS
10
6.15215
20
-6.10069
11
6.15858
21
-6.11083
0
LINE
8
BLACK
6
CONTINUOUS
10
6.15858
20
-6.11083
11
6.16624
21
-6.12009
0
LINE
8
BLACK
6
CONTINUOUS
10
6.16624
20
-6.12009
11
6.175
21
-6.12831
0
LINE
8
BLACK
6
CONTINUOUS
10
6.175
20
-6.12831
11
6.18472
21
-6.13537
0
LINE
8
BLACK
6
CONTINUOUS
10
6.18472
20
-6.13537
11
6.19524
21
-6.14116
0
LINE
8
BLACK
6
CONTINUOUS
10
6.19524
20
-6.14116
11
6.20641
21
-6.14558
0
LINE
8
BLACK
6
CONTINUOUS
10
6.20641
20
-6.14558
11
6.21805
21
-6.14857
0
LINE
8
BLACK
6
CONTINUOUS
10
6.21805
20
-6.14857
11
6.22997
21
-6.15007
0
LINE
8
BLACK
6
CONTINUOUS
10
6.22997
20
-6.15007
11
6.24198
21
-6.15007
0
LINE
8
BLACK
6
CONTINUOUS
10
6.24198
20
-6.15007
11
6.2539
21
-6.14857
0
LINE
8
BLACK
6
CONTINUOUS
10
6.2539
20
-6.14857
11
6.26554
21
-6.14558
0
LINE
8
BLACK
6
CONTINUOUS
10
6.26554
20
-6.14558
11
6.2767
21
-6.14116
0
LINE
8
BLACK
6
CONTINUOUS
10
6.2767
20
-6.14116
11
6.28723
21
-6.13537
0
LINE
8
BLACK
6
CONTINUOUS
10
6.28723
20
-6.13537
11
6.29695
21
-6.12831
0
LINE
8
BLACK
6
CONTINUOUS
10
6.29695
20
-6.12831
11
6.30571
21
-6.12009
0
LINE
8
BLACK
6
CONTINUOUS
10
6.30571
20
-6.12009
11
6.31337
21
-6.11083
0
LINE
8
BLACK
6
CONTINUOUS
10
6.31337
20
-6.11083
11
6.3198
21
-6.10069
0
LINE
8
BLACK
6
CONTINUOUS
10
6.3198
20
-6.10069
11
6.32492
21
-6.08982
0
LINE
8
BLACK
6
CONTINUOUS
10
6.32492
20
-6.08982
11
6.32863
21
-6.07839
0
LINE
8
BLACK
6
CONTINUOUS
10
6.32863
20
-6.07839
11
6.33088
21
-6.06659
0
LINE
8
BLACK
6
CONTINUOUS
10
6.33088
20
-6.06659
11
6.33164
21
-6.0546
0
LINE
8
BLACK
6
CONTINUOUS
10
6.33164
20
-6.0546
11
6.33088
21
-6.04261
0
LINE
8
BLACK
6
CONTINUOUS
10
6.33088
20
-6.04261
11
6.32863
21
-6.03081
0
LINE
8
BLACK
6
CONTINUOUS
10
6.32863
20
-6.03081
11
6.32492
21
-6.01939
0
LINE
8
BLACK
6
CONTINUOUS
10
6.32492
20
-6.01939
11
6.3198
21
-6.00852
0
LINE
8
BLACK
6
CONTINUOUS
10
6.3198
20
-6.00852
11
6.31337
21
-5.99837
0
LINE
8
BLACK
6
CONTINUOUS
10
6.31337
20
-5.99837
11
6.30571
21
-5.98912
0
LINE
8
BLACK
6
CONTINUOUS
10
6.30571
20
-5.98912
11
6.29695
21
-5.98089
0
LINE
8
BLACK
6
CONTINUOUS
10
6.29695
20
-5.98089
11
6.28723
21
-5.97383
0
LINE
8
BLACK
6
CONTINUOUS
10
6.28723
20
-5.97383
11
6.2767
21
-5.96804
0
LINE
8
BLACK
6
CONTINUOUS
10
6.2767
20
-5.96804
11
6.26554
21
-5.96362
0
LINE
8
BLACK
6
CONTINUOUS
10
6.26554
20
-5.96362
11
6.2539
21
-5.96063
0
LINE
8
BLACK
6
CONTINUOUS
10
6.2539
20
-5.96063
11
6.24198
21
-5.95913
0
LINE
8
BLACK
6
CONTINUOUS
10
6.24198
20
-5.95913
11
6.22997
21
-5.95913
0
LINE
8
BLACK
6
CONTINUOUS
10
6.22997
20
-5.95913
11
6.21805
21
-5.96063
0
LINE
8
BLACK
6
CONTINUOUS
10
6.21805
20
-5.96063
11
6.20641
21
-5.96362
0
LINE
8
BLACK
6
CONTINUOUS
10
6.20641
20
-5.96362
11
6.19524
21
-5.96804
0
LINE
8
BLACK
6
CONTINUOUS
10
6.19524
20
-5.96804
11
6.18472
21
-5.97383
0
LINE
8
BLACK
6
CONTINUOUS
10
6.18472
20
-5.97383
11
6.175
21
-5.98089
0
LINE
8
BLACK
6
CONTINUOUS
10
6.175
20
-5.98089
11
6.16624
21
-5.98912
0
LINE
8
BLACK
6
CONTINUOUS
10
6.16624
20
-5.98912
11
6.15858
21
-5.99837
0
LINE
8
BLACK
6
CONTINUOUS
10
6.15858
20
-5.99837
11
6.15215
21
-6.00852
0
LINE
8
BLACK
6
CONTINUOUS
10
6.15215
20
-6.00852
11
6.14703
21
-6.01939
0
LINE
8
BLACK
6
CONTINUOUS
10
6.14703
20
-6.01939
11
6.14332
21
-6.03081
0
LINE
8
BLACK
6
CONTINUOUS
10
6.14332
20
-6.03081
11
6.14107
21
-6.04261
0
LINE
8
BLACK
6
CONTINUOUS
10
6.14107
20
-6.04261
11
6.14031
21
-6.0546
0
LINE
8
BLACK
6
CONTINUOUS
10
6.14031
20
-6.0546
11
6.14107
21
-6.06659
0
LINE
8
BLACK
6
CONTINUOUS
10
6.14107
20
-6.06659
11
6.14332
21
-6.07839
0
LINE
8
BLACK
6
CONTINUOUS
10
7.83451
20
-6.03037
11
7.83829
21
-6.01873
0
LINE
8
BLACK
6
CONTINUOUS
10
7.83829
20
-6.01873
11
7.8435
21
-6.00766
0
LINE
8
BLACK
6
CONTINUOUS
10
7.8435
20
-6.00766
11
7.85006
21
-5.99733
0
LINE
8
BLACK
6
CONTINUOUS
10
7.85006
20
-5.99733
11
7.85786
21
-5.9879
0
LINE
8
BLACK
6
CONTINUOUS
10
7.85786
20
-5.9879
11
7.86678
21
-5.97952
0
LINE
8
BLACK
6
CONTINUOUS
10
7.86678
20
-5.97952
11
7.87668
21
-5.97233
0
LINE
8
BLACK
6
CONTINUOUS
10
7.87668
20
-5.97233
11
7.8874
21
-5.96643
0
LINE
8
BLACK
6
CONTINUOUS
10
7.8874
20
-5.96643
11
7.89878
21
-5.96193
0
LINE
8
BLACK
6
CONTINUOUS
10
7.89878
20
-5.96193
11
7.91063
21
-5.95889
0
LINE
8
BLACK
6
CONTINUOUS
10
7.91063
20
-5.95889
11
7.92277
21
-5.95735
0
LINE
8
BLACK
6
CONTINUOUS
10
7.92277
20
-5.95735
11
7.93501
21
-5.95735
0
LINE
8
BLACK
6
CONTINUOUS
10
7.93501
20
-5.95735
11
7.94715
21
-5.95889
0
LINE
8
BLACK
6
CONTINUOUS
10
7.94715
20
-5.95889
11
7.959
21
-5.96193
0
LINE
8
BLACK
6
CONTINUOUS
10
7.959
20
-5.96193
11
7.97038
21
-5.96643
0
LINE
8
BLACK
6
CONTINUOUS
10
7.97038
20
-5.96643
11
7.9811
21
-5.97233
0
LINE
8
BLACK
6
CONTINUOUS
10
7.9811
20
-5.97233
11
7.991
21
-5.97952
0
LINE
8
BLACK
6
CONTINUOUS
10
7.991
20
-5.97952
11
7.99992
21
-5.9879
0
LINE
8
BLACK
6
CONTINUOUS
10
7.99992
20
-5.9879
11
8.00772
21
-5.99733
0
LINE
8
BLACK
6
CONTINUOUS
10
8.00772
20
-5.99733
11
8.01428
21
-6.00766
0
LINE
8
BLACK
6
CONTINUOUS
10
8.01428
20
-6.00766
11
8.01949
21
-6.01873
0
LINE
8
BLACK
6
CONTINUOUS
10
8.01949
20
-6.01873
11
8.02327
21
-6.03037
0
LINE
8
BLACK
6
CONTINUOUS
10
8.02327
20
-6.03037
11
8.02556
21
-6.04239
0
LINE
8
BLACK
6
CONTINUOUS
10
8.02556
20
-6.04239
11
8.02633
21
-6.0546
0
LINE
8
BLACK
6
CONTINUOUS
10
8.02633
20
-6.0546
11
8.02556
21
-6.06681
0
LINE
8
BLACK
6
CONTINUOUS
10
8.02556
20
-6.06681
11
8.02327
21
-6.07883
0
LINE
8
BLACK
6
CONTINUOUS
10
8.02327
20
-6.07883
11
8.01949
21
-6.09047
0
LINE
8
BLACK
6
CONTINUOUS
10
8.01949
20
-6.09047
11
8.01428
21
-6.10154
0
LINE
8
BLACK
6
CONTINUOUS
10
8.01428
20
-6.10154
11
8.00772
21
-6.11188
0
LINE
8
BLACK
6
CONTINUOUS
10
8.00772
20
-6.11188
11
7.99992
21
-6.1213
0
LINE
8
BLACK
6
CONTINUOUS
10
7.99992
20
-6.1213
11
7.991
21
-6.12968
0
LINE
8
BLACK
6
CONTINUOUS
10
7.991
20
-6.12968
11
7.9811
21
-6.13687
0
LINE
8
BLACK
6
CONTINUOUS
10
7.9811
20
-6.13687
11
7.97038
21
-6.14277
0
LINE
8
BLACK
6
CONTINUOUS
10
7.97038
20
-6.14277
11
7.959
21
-6.14727
0
LINE
8
BLACK
6
CONTINUOUS
10
7.959
20
-6.14727
11
7.94715
21
-6.15032
0
LINE
8
BLACK
6
CONTINUOUS
10
7.94715
20
-6.15032
11
7.93501
21
-6.15185
0
LINE
8
BLACK
6
CONTINUOUS
10
7.93501
20
-6.15185
11
7.92277
21
-6.15185
0
LINE
8
BLACK
6
CONTINUOUS
10
7.92277
20
-6.15185
11
7.91063
21
-6.15032
0
LINE
8
BLACK
6
CONTINUOUS
10
7.91063
20
-6.15032
11
7.89878
21
-6.14727
0
LINE
8
BLACK
6
CONTINUOUS
10
7.89878
20
-6.14727
11
7.8874
21
-6.14277
0
LINE
8
BLACK
6
CONTINUOUS
10
7.8874
20
-6.14277
11
7.87668
21
-6.13687
0
LINE
8
BLACK
6
CONTINUOUS
10
7.87668
20
-6.13687
11
7.86678
21
-6.12968
0
LINE
8
BLACK
6
CONTINUOUS
10
7.86678
20
-6.12968
11
7.85786
21
-6.1213
0
LINE
8
BLACK
6
CONTINUOUS
10
7.85786
20
-6.1213
11
7.85006
21
-6.11188
0
LINE
8
BLACK
6
CONTINUOUS
10
7.85006
20
-6.11188
11
7.8435
21
-6.10154
0
LINE
8
BLACK
6
CONTINUOUS
10
7.8435
20
-6.10154
11
7.83829
21
-6.09047
0
LINE
8
BLACK
6
CONTINUOUS
10
7.83829
20
-6.09047
11
7.83451
21
-6.07883
0
LINE
8
BLACK
6
CONTINUOUS
10
7.83451
20
-6.07883
11
7.83222
21
-6.06681
0
LINE
8
BLACK
6
CONTINUOUS
10
7.83222
20
-6.06681
11
7.83145
21
-6.0546
0
LINE
8
BLACK
6
CONTINUOUS
10
7.83145
20
-6.0546
11
7.83222
21
-6.04239
0
LINE
8
BLACK
6
CONTINUOUS
10
7.83222
20
-6.04239
11
7.83451
21
-6.03037
0
LINE
8
BLACK
6
CONTINUOUS
10
7.83623
20
-6.07839
11
7.83994
21
-6.08982
0
LINE
8
BLACK
6
CONTINUOUS
10
7.83994
20
-6.08982
11
7.84506
21
-6.10069
0
LINE
8
BLACK
6
CONTINUOUS
10
7.84506
20
-6.10069
11
7.8515
21
-6.11083
0
LINE
8
BLACK
6
CONTINUOUS
10
7.8515
20
-6.11083
11
7.85915
21
-6.12009
0
LINE
8
BLACK
6
CONTINUOUS
10
7.85915
20
-6.12009
11
7.86791
21
-6.12831
0
LINE
8
BLACK
6
CONTINUOUS
10
7.86791
20
-6.12831
11
7.87763
21
-6.13537
0
LINE
8
BLACK
6
CONTINUOUS
10
7.87763
20
-6.13537
11
7.88816
21
-6.14116
0
LINE
8
BLACK
6
CONTINUOUS
10
7.88816
20
-6.14116
11
7.89933
21
-6.14558
0
LINE
8
BLACK
6
CONTINUOUS
10
7.89933
20
-6.14558
11
7.91096
21
-6.14857
0
LINE
8
BLACK
6
CONTINUOUS
10
7.91096
20
-6.14857
11
7.92288
21
-6.15007
0
LINE
8
BLACK
6
CONTINUOUS
10
7.92288
20
-6.15007
11
7.93489
21
-6.15007
0
LINE
8
BLACK
6
CONTINUOUS
10
7.93489
20
-6.15007
11
7.94681
21
-6.14857
0
LINE
8
BLACK
6
CONTINUOUS
10
7.94681
20
-6.14857
11
7.95845
21
-6.14558
0
LINE
8
BLACK
6
CONTINUOUS
10
7.95845
20
-6.14558
11
7.96962
21
-6.14116
0
LINE
8
BLACK
6
CONTINUOUS
10
7.96962
20
-6.14116
11
7.98015
21
-6.13537
0
LINE
8
BLACK
6
CONTINUOUS
10
7.98015
20
-6.13537
11
7.98986
21
-6.12831
0
LINE
8
BLACK
6
CONTINUOUS
10
7.98986
20
-6.12831
11
7.99862
21
-6.12009
0
LINE
8
BLACK
6
CONTINUOUS
10
7.99862
20
-6.12009
11
8.00628
21
-6.11083
0
LINE
8
BLACK
6
CONTINUOUS
10
8.00628
20
-6.11083
11
8.01272
21
-6.10069
0
LINE
8
BLACK
6
CONTINUOUS
10
8.01272
20
-6.10069
11
8.01783
21
-6.08982
0
LINE
8
BLACK
6
CONTINUOUS
10
8.01783
20
-6.08982
11
8.02154
21
-6.07839
0
LINE
8
BLACK
6
CONTINUOUS
10
8.02154
20
-6.07839
11
8.02379
21
-6.06659
0
LINE
8
BLACK
6
CONTINUOUS
10
8.02379
20
-6.06659
11
8.02455
21
-6.0546
0
LINE
8
BLACK
6
CONTINUOUS
10
8.02455
20
-6.0546
11
8.02379
21
-6.04261
0
LINE
8
BLACK
6
CONTINUOUS
10
8.02379
20
-6.04261
11
8.02154
21
-6.03081
0
LINE
8
BLACK
6
CONTINUOUS
10
8.02154
20
-6.03081
11
8.01783
21
-6.01939
0
LINE
8
BLACK
6
CONTINUOUS
10
8.01783
20
-6.01939
11
8.01272
21
-6.00852
0
LINE
8
BLACK
6
CONTINUOUS
10
8.01272
20
-6.00852
11
8.00628
21
-5.99837
0
LINE
8
BLACK
6
CONTINUOUS
10
8.00628
20
-5.99837
11
7.99862
21
-5.98912
0
LINE
8
BLACK
6
CONTINUOUS
10
7.99862
20
-5.98912
11
7.98986
21
-5.98089
0
LINE
8
BLACK
6
CONTINUOUS
10
7.98986
20
-5.98089
11
7.98015
21
-5.97383
0
LINE
8
BLACK
6
CONTINUOUS
10
7.98015
20
-5.97383
11
7.96962
21
-5.96804
0
LINE
8
BLACK
6
CONTINUOUS
10
7.96962
20
-5.96804
11
7.95845
21
-5.96362
0
LINE
8
BLACK
6
CONTINUOUS
10
7.95845
20
-5.96362
11
7.94681
21
-5.96063
0
LINE
8
BLACK
6
CONTINUOUS
10
7.94681
20
-5.96063
11
7.93489
21
-5.95913
0
LINE
8
BLACK
6
CONTINUOUS
10
7.93489
20
-5.95913
11
7.92288
21
-5.95913
0
LINE
8
BLACK
6
CONTINUOUS
10
7.92288
20
-5.95913
11
7.91096
21
-5.96063
0
LINE
8
BLACK
6
CONTINUOUS
10
7.91096
20
-5.96063
11
7.89933
21
-5.96362
0
LINE
8
BLACK
6
CONTINUOUS
10
7.89933
20
-5.96362
11
7.88816
21
-5.96804
0
LINE
8
BLACK
6
CONTINUOUS
10
7.88816
20
-5.96804
11
7.87763
21
-5.97383
0
LINE
8
BLACK
6
CONTINUOUS
10
7.87763
20
-5.97383
11
7.86791
21
-5.98089
0
LINE
8
BLACK
6
CONTINUOUS
10
7.86791
20
-5.98089
11
7.85915
21
-5.98912
0
LINE
8
BLACK
6
CONTINUOUS
10
7.85915
20
-5.98912
11
7.8515
21
-5.99837
0
LINE
8
BLACK
6
CONTINUOUS
10
7.8515
20
-5.99837
11
7.84506
21
-6.00852
0
LINE
8
BLACK
6
CONTINUOUS
10
7.84506
20
-6.00852
11
7.83994
21
-6.01939
0
LINE
8
BLACK
6
CONTINUOUS
10
7.83994
20
-6.01939
11
7.83623
21
-6.03081
0
LINE
8
BLACK
6
CONTINUOUS
10
7.83623
20
-6.03081
11
7.83398
21
-6.04261
0
LINE
8
BLACK
6
CONTINUOUS
10
7.83398
20
-6.04261
11
7.83323
21
-6.0546
0
LINE
8
BLACK
6
CONTINUOUS
10
7.83323
20
-6.0546
11
7.83398
21
-6.06659
0
LINE
8
BLACK
6
CONTINUOUS
10
7.83398
20
-6.06659
11
7.83623
21
-6.07839
0
LINE
8
BLACK
6
CONTINUOUS
10
4.05498
20
-6.03037
11
4.05876
21
-6.01873
0
LINE
8
BLACK
6
CONTINUOUS
10
4.05876
20
-6.01873
11
4.06397
21
-6.00766
0
LINE
8
BLACK
6
CONTINUOUS
10
4.06397
20
-6.00766
11
4.07053
21
-5.99733
0
LINE
8
BLACK
6
CONTINUOUS
10
4.07053
20
-5.99733
11
4.07833
21
-5.9879
0
LINE
8
BLACK
6
CONTINUOUS
10
4.07833
20
-5.9879
11
4.08725
21
-5.97952
0
LINE
8
BLACK
6
CONTINUOUS
10
4.08725
20
-5.97952
11
4.09715
21
-5.97233
0
LINE
8
BLACK
6
CONTINUOUS
10
4.09715
20
-5.97233
11
4.10787
21
-5.96643
0
LINE
8
BLACK
6
CONTINUOUS
10
4.10787
20
-5.96643
11
4.11925
21
-5.96193
0
LINE
8
BLACK
6
CONTINUOUS
10
4.11925
20
-5.96193
11
4.1311
21
-5.95889
0
LINE
8
BLACK
6
CONTINUOUS
10
4.1311
20
-5.95889
11
4.14324
21
-5.95735
0
LINE
8
BLACK
6
CONTINUOUS
10
4.14324
20
-5.95735
11
4.15548
21
-5.95735
0
LINE
8
BLACK
6
CONTINUOUS
10
4.15548
20
-5.95735
11
4.16762
21
-5.95889
0
LINE
8
BLACK
6
CONTINUOUS
10
4.16762
20
-5.95889
11
4.17947
21
-5.96193
0
LINE
8
BLACK
6
CONTINUOUS
10
4.17947
20
-5.96193
11
4.19085
21
-5.96643
0
LINE
8
BLACK
6
CONTINUOUS
10
4.19085
20
-5.96643
11
4.20157
21
-5.97233
0
LINE
8
BLACK
6
CONTINUOUS
10
4.20157
20
-5.97233
11
4.21147
21
-5.97952
0
LINE
8
BLACK
6
CONTINUOUS
10
4.21147
20
-5.97952
11
4.22039
21
-5.9879
0
LINE
8
BLACK
6
CONTINUOUS
10
4.22039
20
-5.9879
11
4.22819
21
-5.99733
0
LINE
8
BLACK
6
CONTINUOUS
10
4.22819
20
-5.99733
11
4.23475
21
-6.00766
0
LINE
8
BLACK
6
CONTINUOUS
10
4.23475
20
-6.00766
11
4.23996
21
-6.01873
0
LINE
8
BLACK
6
CONTINUOUS
10
4.23996
20
-6.01873
11
4.24374
21
-6.03037
0
LINE
8
BLACK
6
CONTINUOUS
10
4.24374
20
-6.03037
11
4.24603
21
-6.04239
0
LINE
8
BLACK
6
CONTINUOUS
10
4.24603
20
-6.04239
11
4.2468
21
-6.0546
0
LINE
8
BLACK
6
CONTINUOUS
10
4.2468
20
-6.0546
11
4.24603
21
-6.06681
0
LINE
8
BLACK
6
CONTINUOUS
10
4.24603
20
-6.06681
11
4.24374
21
-6.07883
0
LINE
8
BLACK
6
CONTINUOUS
10
4.24374
20
-6.07883
11
4.23996
21
-6.09047
0
LINE
8
BLACK
6
CONTINUOUS
10
4.23996
20
-6.09047
11
4.23475
21
-6.10154
0
LINE
8
BLACK
6
CONTINUOUS
10
4.23475
20
-6.10154
11
4.22819
21
-6.11188
0
LINE
8
BLACK
6
CONTINUOUS
10
4.22819
20
-6.11188
11
4.22039
21
-6.1213
0
LINE
8
BLACK
6
CONTINUOUS
10
4.22039
20
-6.1213
11
4.21147
21
-6.12968
0
LINE
8
BLACK
6
CONTINUOUS
10
4.21147
20
-6.12968
11
4.20157
21
-6.13687
0
LINE
8
BLACK
6
CONTINUOUS
10
4.20157
20
-6.13687
11
4.19085
21
-6.14277
0
LINE
8
BLACK
6
CONTINUOUS
10
4.19085
20
-6.14277
11
4.17947
21
-6.14727
0
LINE
8
BLACK
6
CONTINUOUS
10
4.17947
20
-6.14727
11
4.16762
21
-6.15032
0
LINE
8
BLACK
6
CONTINUOUS
10
4.16762
20
-6.15032
11
4.15548
21
-6.15185
0
LINE
8
BLACK
6
CONTINUOUS
10
4.15548
20
-6.15185
11
4.14324
21
-6.15185
0
LINE
8
BLACK
6
CONTINUOUS
10
4.14324
20
-6.15185
11
4.1311
21
-6.15032
0
LINE
8
BLACK
6
CONTINUOUS
10
4.1311
20
-6.15032
11
4.11925
21
-6.14727
0
LINE
8
BLACK
6
CONTINUOUS
10
4.11925
20
-6.14727
11
4.10787
21
-6.14277
0
LINE
8
BLACK
6
CONTINUOUS
10
4.10787
20
-6.14277
11
4.09715
21
-6.13687
0
LINE
8
BLACK
6
CONTINUOUS
10
4.09715
20
-6.13687
11
4.08725
21
-6.12968
0
LINE
8
BLACK
6
CONTINUOUS
10
4.08725
20
-6.12968
11
4.07833
21
-6.1213
0
LINE
8
BLACK
6
CONTINUOUS
10
4.07833
20
-6.1213
11
4.07053
21
-6.11188
0
LINE
8
BLACK
6
CONTINUOUS
10
4.07053
20
-6.11188
11
4.06397
21
-6.10154
0
LINE
8
BLACK
6
CONTINUOUS
10
4.06397
20
-6.10154
11
4.05876
21
-6.09047
0
LINE
8
BLACK
6
CONTINUOUS
10
4.05876
20
-6.09047
11
4.05498
21
-6.07883
0
LINE
8
BLACK
6
CONTINUOUS
10
4.05498
20
-6.07883
11
4.05269
21
-6.06681
0
LINE
8
BLACK
6
CONTINUOUS
10
4.05269
20
-6.06681
11
4.05192
21
-6.0546
0
LINE
8
BLACK
6
CONTINUOUS
10
4.05192
20
-6.0546
11
4.05269
21
-6.04239
0
LINE
8
BLACK
6
CONTINUOUS
10
4.05269
20
-6.04239
11
4.05498
21
-6.03037
0
LINE
8
BLACK
6
CONTINUOUS
10
4.0567
20
-6.07839
11
4.06042
21
-6.08982
0
LINE
8
BLACK
6
CONTINUOUS
10
4.06042
20
-6.08982
11
4.06553
21
-6.10069
0
LINE
8
BLACK
6
CONTINUOUS
10
4.06553
20
-6.10069
11
4.07197
21
-6.11083
0
LINE
8
BLACK
6
CONTINUOUS
10
4.07197
20
-6.11083
11
4.07963
21
-6.12009
0
LINE
8
BLACK
6
CONTINUOUS
10
4.07963
20
-6.12009
11
4.08838
21
-6.12831
0
LINE
8
BLACK
6
CONTINUOUS
10
4.08838
20
-6.12831
11
4.0981
21
-6.13537
0
LINE
8
BLACK
6
CONTINUOUS
10
4.0981
20
-6.13537
11
4.10863
21
-6.14116
0
LINE
8
BLACK
6
CONTINUOUS
10
4.10863
20
-6.14116
11
4.1198
21
-6.14558
0
LINE
8
BLACK
6
CONTINUOUS
10
4.1198
20
-6.14558
11
4.13144
21
-6.14857
0
LINE
8
BLACK
6
CONTINUOUS
10
4.13144
20
-6.14857
11
4.14335
21
-6.15007
0
LINE
8
BLACK
6
CONTINUOUS
10
4.14335
20
-6.15007
11
4.15537
21
-6.15007
0
LINE
8
BLACK
6
CONTINUOUS
10
4.15537
20
-6.15007
11
4.16729
21
-6.14857
0
LINE
8
BLACK
6
CONTINUOUS
10
4.16729
20
-6.14857
11
4.17892
21
-6.14558
0
LINE
8
BLACK
6
CONTINUOUS
10
4.17892
20
-6.14558
11
4.19009
21
-6.14116
0
LINE
8
BLACK
6
CONTINUOUS
10
4.19009
20
-6.14116
11
4.20062
21
-6.13537
0
LINE
8
BLACK
6
CONTINUOUS
10
4.20062
20
-6.13537
11
4.21034
21
-6.12831
0
LINE
8
BLACK
6
CONTINUOUS
10
4.21034
20
-6.12831
11
4.21909
21
-6.12009
0
LINE
8
BLACK
6
CONTINUOUS
10
4.21909
20
-6.12009
11
4.22675
21
-6.11083
0
LINE
8
BLACK
6
CONTINUOUS
10
4.22675
20
-6.11083
11
4.23319
21
-6.10069
0
LINE
8
BLACK
6
CONTINUOUS
10
4.23319
20
-6.10069
11
4.2383
21
-6.08982
0
LINE
8
BLACK
6
CONTINUOUS
10
4.2383
20
-6.08982
11
4.24202
21
-6.07839
0
LINE
8
BLACK
6
CONTINUOUS
10
4.24202
20
-6.07839
11
4.24427
21
-6.06659
0
LINE
8
BLACK
6
CONTINUOUS
10
4.24427
20
-6.06659
11
4.24502
21
-6.0546
0
LINE
8
BLACK
6
CONTINUOUS
10
4.24502
20
-6.0546
11
4.24427
21
-6.04261
0
LINE
8
BLACK
6
CONTINUOUS
10
4.24427
20
-6.04261
11
4.24202
21
-6.03081
0
LINE
8
BLACK
6
CONTINUOUS
10
4.24202
20
-6.03081
11
4.2383
21
-6.01939
0
LINE
8
BLACK
6
CONTINUOUS
10
4.2383
20
-6.01939
11
4.23319
21
-6.00852
0
LINE
8
BLACK
6
CONTINUOUS
10
4.23319
20
-6.00852
11
4.22675
21
-5.99837
0
LINE
8
BLACK
6
CONTINUOUS
10
4.22675
20
-5.99837
11
4.21909
21
-5.98912
0
LINE
8
BLACK
6
CONTINUOUS
10
4.21909
20
-5.98912
11
4.21034
21
-5.98089
0
LINE
8
BLACK
6
CONTINUOUS
10
4.21034
20
-5.98089
11
4.20062
21
-5.97383
0
LINE
8
BLACK
6
CONTINUOUS
10
4.20062
20
-5.97383
11
4.19009
21
-5.96804
0
LINE
8
BLACK
6
CONTINUOUS
10
4.19009
20
-5.96804
11
4.17892
21
-5.96362
0
LINE
8
BLACK
6
CONTINUOUS
10
4.17892
20
-5.96362
11
4.16729
21
-5.96063
0
LINE
8
BLACK
6
CONTINUOUS
10
4.16729
20
-5.96063
11
4.15537
21
-5.95913
0
LINE
8
BLACK
6
CONTINUOUS
10
4.15537
20
-5.95913
11
4.14335
21
-5.95913
0
LINE
8
BLACK
6
CONTINUOUS
10
4.14335
20
-5.95913
11
4.13144
21
-5.96063
0
LINE
8
BLACK
6
CONTINUOUS
10
4.13144
20
-5.96063
11
4.1198
21
-5.96362
0
LINE
8
BLACK
6
CONTINUOUS
10
4.1198
20
-5.96362
11
4.10863
21
-5.96804
0
LINE
8
BLACK
6
CONTINUOUS
10
4.10863
20
-5.96804
11
4.0981
21
-5.97383
0
LINE
8
BLACK
6
CONTINUOUS
10
4.0981
20
-5.97383
11
4.08838
21
-5.98089
0
LINE
8
BLACK
6
CONTINUOUS
10
4.08838
20
-5.98089
11
4.07963
21
-5.98912
0
LINE
8
BLACK
6
CONTINUOUS
10
4.07963
20
-5.98912
11
4.07197
21
-5.99837
0
LINE
8
BLACK
6
CONTINUOUS
10
4.07197
20
-5.99837
11
4.06553
21
-6.00852
0
LINE
8
BLACK
6
CONTINUOUS
10
4.06553
20
-6.00852
11
4.06042
21
-6.01939
0
LINE
8
BLACK
6
CONTINUOUS
10
4.06042
20
-6.01939
11
4.0567
21
-6.03081
0
LINE
8
BLACK
6
CONTINUOUS
10
4.0567
20
-6.03081
11
4.05445
21
-6.04261
0
LINE
8
BLACK
6
CONTINUOUS
10
4.05445
20
-6.04261
11
4.0537
21
-6.0546
0
LINE
8
BLACK
6
CONTINUOUS
10
4.0537
20
-6.0546
11
4.05445
21
-6.06659
0
LINE
8
BLACK
6
CONTINUOUS
10
4.05445
20
-6.06659
11
4.0567
21
-6.07839
0
LINE
8
BLACK
6
CONTINUOUS
10
4.2912
20
-4.33746
11
4.29498
21
-4.32582
0
LINE
8
BLACK
6
CONTINUOUS
10
4.29498
20
-4.32582
11
4.30019
21
-4.31475
0
LINE
8
BLACK
6
CONTINUOUS
10
4.30019
20
-4.31475
11
4.30675
21
-4.30441
0
LINE
8
BLACK
6
CONTINUOUS
10
4.30675
20
-4.30441
11
4.31455
21
-4.29499
0
LINE
8
BLACK
6
CONTINUOUS
10
4.31455
20
-4.29499
11
4.32347
21
-4.28661
0
LINE
8
BLACK
6
CONTINUOUS
10
4.32347
20
-4.28661
11
4.33337
21
-4.27942
0
LINE
8
BLACK
6
CONTINUOUS
10
4.33337
20
-4.27942
11
4.34409
21
-4.27352
0
LINE
8
BLACK
6
CONTINUOUS
10
4.34409
20
-4.27352
11
4.35547
21
-4.26902
0
LINE
8
BLACK
6
CONTINUOUS
10
4.35547
20
-4.26902
11
4.36732
21
-4.26597
0
LINE
8
BLACK
6
CONTINUOUS
10
4.36732
20
-4.26597
11
4.37946
21
-4.26444
0
LINE
8
BLACK
6
CONTINUOUS
10
4.37946
20
-4.26444
11
4.3917
21
-4.26444
0
LINE
8
BLACK
6
CONTINUOUS
10
4.3917
20
-4.26444
11
4.40384
21
-4.26597
0
LINE
8
BLACK
6
CONTINUOUS
10
4.40384
20
-4.26597
11
4.41569
21
-4.26902
0
LINE
8
BLACK
6
CONTINUOUS
10
4.41569
20
-4.26902
11
4.42707
21
-4.27352
0
LINE
8
BLACK
6
CONTINUOUS
10
4.42707
20
-4.27352
11
4.43779
21
-4.27942
0
LINE
8
BLACK
6
CONTINUOUS
10
4.43779
20
-4.27942
11
4.44769
21
-4.28661
0
LINE
8
BLACK
6
CONTINUOUS
10
4.44769
20
-4.28661
11
4.45661
21
-4.29499
0
LINE
8
BLACK
6
CONTINUOUS
10
4.45661
20
-4.29499
11
4.46441
21
-4.30441
0
LINE
8
BLACK
6
CONTINUOUS
10
4.46441
20
-4.30441
11
4.47097
21
-4.31475
0
LINE
8
BLACK
6
CONTINUOUS
10
4.47097
20
-4.31475
11
4.47618
21
-4.32582
0
LINE
8
BLACK
6
CONTINUOUS
10
4.47618
20
-4.32582
11
4.47996
21
-4.33746
0
LINE
8
BLACK
6
CONTINUOUS
10
4.47996
20
-4.33746
11
4.48225
21
-4.34948
0
LINE
8
BLACK
6
CONTINUOUS
10
4.48225
20
-4.34948
11
4.48302
21
-4.36169
0
LINE
8
BLACK
6
CONTINUOUS
10
4.48302
20
-4.36169
11
4.48225
21
-4.3739
0
LINE
8
BLACK
6
CONTINUOUS
10
4.48225
20
-4.3739
11
4.47996
21
-4.38592
0
LINE
8
BLACK
6
CONTINUOUS
10
4.47996
20
-4.38592
11
4.47618
21
-4.39756
0
LINE
8
BLACK
6
CONTINUOUS
10
4.47618
20
-4.39756
11
4.47097
21
-4.40863
0
LINE
8
BLACK
6
CONTINUOUS
10
4.47097
20
-4.40863
11
4.46441
21
-4.41896
0
LINE
8
BLACK
6
CONTINUOUS
10
4.46441
20
-4.41896
11
4.45661
21
-4.42839
0
LINE
8
BLACK
6
CONTINUOUS
10
4.45661
20
-4.42839
11
4.44769
21
-4.43677
0
LINE
8
BLACK
6
CONTINUOUS
10
4.44769
20
-4.43677
11
4.43779
21
-4.44396
0
LINE
8
BLACK
6
CONTINUOUS
10
4.43779
20
-4.44396
11
4.42707
21
-4.44986
0
LINE
8
BLACK
6
CONTINUOUS
10
4.42707
20
-4.44986
11
4.41569
21
-4.45436
0
LINE
8
BLACK
6
CONTINUOUS
10
4.41569
20
-4.45436
11
4.40384
21
-4.4574
0
LINE
8
BLACK
6
CONTINUOUS
10
4.40384
20
-4.4574
11
4.3917
21
-4.45894
0
LINE
8
BLACK
6
CONTINUOUS
10
4.3917
20
-4.45894
11
4.37946
21
-4.45894
0
LINE
8
BLACK
6
CONTINUOUS
10
4.37946
20
-4.45894
11
4.36732
21
-4.4574
0
LINE
8
BLACK
6
CONTINUOUS
10
4.36732
20
-4.4574
11
4.35547
21
-4.45436
0
LINE
8
BLACK
6
CONTINUOUS
10
4.35547
20
-4.45436
11
4.34409
21
-4.44986
0
LINE
8
BLACK
6
CONTINUOUS
10
4.34409
20
-4.44986
11
4.33337
21
-4.44396
0
LINE
8
BLACK
6
CONTINUOUS
10
4.33337
20
-4.44396
11
4.32347
21
-4.43677
0
LINE
8
BLACK
6
CONTINUOUS
10
4.32347
20
-4.43677
11
4.31455
21
-4.42839
0
LINE
8
BLACK
6
CONTINUOUS
10
4.31455
20
-4.42839
11
4.30675
21
-4.41896
0
LINE
8
BLACK
6
CONTINUOUS
10
4.30675
20
-4.41896
11
4.30019
21
-4.40863
0
LINE
8
BLACK
6
CONTINUOUS
10
4.30019
20
-4.40863
11
4.29498
21
-4.39756
0
LINE
8
BLACK
6
CONTINUOUS
10
4.29498
20
-4.39756
11
4.2912
21
-4.38592
0
LINE
8
BLACK
6
CONTINUOUS
10
4.2912
20
-4.38592
11
4.28891
21
-4.3739
0
LINE
8
BLACK
6
CONTINUOUS
10
4.28891
20
-4.3739
11
4.28814
21
-4.36169
0
LINE
8
BLACK
6
CONTINUOUS
10
4.28814
20
-4.36169
11
4.28891
21
-4.34948
0
LINE
8
BLACK
6
CONTINUOUS
10
4.28891
20
-4.34948
11
4.2912
21
-4.33746
0
LINE
8
BLACK
6
CONTINUOUS
10
4.29292
20
-4.38548
11
4.29664
21
-4.3969
0
LINE
8
BLACK
6
CONTINUOUS
10
4.29664
20
-4.3969
11
4.30175
21
-4.40777
0
LINE
8
BLACK
6
CONTINUOUS
10
4.30175
20
-4.40777
11
4.30819
21
-4.41792
0
LINE
8
BLACK
6
CONTINUOUS
10
4.30819
20
-4.41792
11
4.31585
21
-4.42717
0
LINE
8
BLACK
6
CONTINUOUS
10
4.31585
20
-4.42717
11
4.3246
21
-4.4354
0
LINE
8
BLACK
6
CONTINUOUS
10
4.3246
20
-4.4354
11
4.33432
21
-4.44246
0
LINE
8
BLACK
6
CONTINUOUS
10
4.33432
20
-4.44246
11
4.34485
21
-4.44824
0
LINE
8
BLACK
6
CONTINUOUS
10
4.34485
20
-4.44824
11
4.35602
21
-4.45267
0
LINE
8
BLACK
6
CONTINUOUS
10
4.35602
20
-4.45267
11
4.36766
21
-4.45565
0
LINE
8
BLACK
6
CONTINUOUS
10
4.36766
20
-4.45565
11
4.37957
21
-4.45716
0
LINE
8
BLACK
6
CONTINUOUS
10
4.37957
20
-4.45716
11
4.39159
21
-4.45716
0
LINE
8
BLACK
6
CONTINUOUS
10
4.39159
20
-4.45716
11
4.40351
21
-4.45565
0
LINE
8
BLACK
6
CONTINUOUS
10
4.40351
20
-4.45565
11
4.41514
21
-4.45267
0
LINE
8
BLACK
6
CONTINUOUS
10
4.41514
20
-4.45267
11
4.42631
21
-4.44824
0
LINE
8
BLACK
6
CONTINUOUS
10
4.42631
20
-4.44824
11
4.43684
21
-4.44246
0
LINE
8
BLACK
6
CONTINUOUS
10
4.43684
20
-4.44246
11
4.44656
21
-4.4354
0
LINE
8
BLACK
6
CONTINUOUS
10
4.44656
20
-4.4354
11
4.45531
21
-4.42717
0
LINE
8
BLACK
6
CONTINUOUS
10
4.45531
20
-4.42717
11
4.46297
21
-4.41792
0
LINE
8
BLACK
6
CONTINUOUS
10
4.46297
20
-4.41792
11
4.46941
21
-4.40777
0
LINE
8
BLACK
6
CONTINUOUS
10
4.46941
20
-4.40777
11
4.47452
21
-4.3969
0
LINE
8
BLACK
6
CONTINUOUS
10
4.47452
20
-4.3969
11
4.47824
21
-4.38548
0
LINE
8
BLACK
6
CONTINUOUS
10
4.47824
20
-4.38548
11
4.48049
21
-4.37368
0
LINE
8
BLACK
6
CONTINUOUS
10
4.48049
20
-4.37368
11
4.48124
21
-4.36169
0
LINE
8
BLACK
6
CONTINUOUS
10
4.48124
20
-4.36169
11
4.48049
21
-4.3497
0
LINE
8
BLACK
6
CONTINUOUS
10
4.48049
20
-4.3497
11
4.47824
21
-4.3379
0
LINE
8
BLACK
6
CONTINUOUS
10
4.47824
20
-4.3379
11
4.47452
21
-4.32647
0
LINE
8
BLACK
6
CONTINUOUS
10
4.47452
20
-4.32647
11
4.46941
21
-4.3156
0
LINE
8
BLACK
6
CONTINUOUS
10
4.46941
20
-4.3156
11
4.46297
21
-4.30546
0
LINE
8
BLACK
6
CONTINUOUS
10
4.46297
20
-4.30546
11
4.45531
21
-4.2962
0
LINE
8
BLACK
6
CONTINUOUS
10
4.45531
20
-4.2962
11
4.44656
21
-4.28798
0
LINE
8
BLACK
6
CONTINUOUS
10
4.44656
20
-4.28798
11
4.43684
21
-4.28092
0
LINE
8
BLACK
6
CONTINUOUS
10
4.43684
20
-4.28092
11
4.42631
21
-4.27513
0
LINE
8
BLACK
6
CONTINUOUS
10
4.42631
20
-4.27513
11
4.41514
21
-4.27071
0
LINE
8
BLACK
6
CONTINUOUS
10
4.41514
20
-4.27071
11
4.40351
21
-4.26772
0
LINE
8
BLACK
6
CONTINUOUS
10
4.40351
20
-4.26772
11
4.39159
21
-4.26622
0
LINE
8
BLACK
6
CONTINUOUS
10
4.39159
20
-4.26622
11
4.37957
21
-4.26622
0
LINE
8
BLACK
6
CONTINUOUS
10
4.37957
20
-4.26622
11
4.36766
21
-4.26772
0
LINE
8
BLACK
6
CONTINUOUS
10
4.36766
20
-4.26772
11
4.35602
21
-4.27071
0
LINE
8
BLACK
6
CONTINUOUS
10
4.35602
20
-4.27071
11
4.34485
21
-4.27513
0
LINE
8
BLACK
6
CONTINUOUS
10
4.34485
20
-4.27513
11
4.33432
21
-4.28092
0
LINE
8
BLACK
6
CONTINUOUS
10
4.33432
20
-4.28092
11
4.3246
21
-4.28798
0
LINE
8
BLACK
6
CONTINUOUS
10
4.3246
20
-4.28798
11
4.31585
21
-4.2962
0
LINE
8
BLACK
6
CONTINUOUS
10
4.31585
20
-4.2962
11
4.30819
21
-4.30546
0
LINE
8
BLACK
6
CONTINUOUS
10
4.30819
20
-4.30546
11
4.30175
21
-4.3156
0
LINE
8
BLACK
6
CONTINUOUS
10
4.30175
20
-4.3156
11
4.29664
21
-4.32647
0
LINE
8
BLACK
6
CONTINUOUS
10
4.29664
20
-4.32647
11
4.29292
21
-4.3379
0
LINE
8
BLACK
6
CONTINUOUS
10
4.29292
20
-4.3379
11
4.29067
21
-4.3497
0
LINE
8
BLACK
6
CONTINUOUS
10
4.29067
20
-4.3497
11
4.28992
21
-4.36169
0
LINE
8
BLACK
6
CONTINUOUS
10
4.28992
20
-4.36169
11
4.29067
21
-4.37368
0
LINE
8
BLACK
6
CONTINUOUS
10
4.29067
20
-4.37368
11
4.29292
21
-4.38548
0
LINE
8
BLACK
6
CONTINUOUS
10
7.59829
20
-4.33746
11
7.60207
21
-4.32582
0
LINE
8
BLACK
6
CONTINUOUS
10
7.60207
20
-4.32582
11
7.60728
21
-4.31475
0
LINE
8
BLACK
6
CONTINUOUS
10
7.60728
20
-4.31475
11
7.61384
21
-4.30441
0
LINE
8
BLACK
6
CONTINUOUS
10
7.61384
20
-4.30441
11
7.62164
21
-4.29499
0
LINE
8
BLACK
6
CONTINUOUS
10
7.62164
20
-4.29499
11
7.63056
21
-4.28661
0
LINE
8
BLACK
6
CONTINUOUS
10
7.63056
20
-4.28661
11
7.64046
21
-4.27942
0
LINE
8
BLACK
6
CONTINUOUS
10
7.64046
20
-4.27942
11
7.65118
21
-4.27352
0
LINE
8
BLACK
6
CONTINUOUS
10
7.65118
20
-4.27352
11
7.66256
21
-4.26902
0
LINE
8
BLACK
6
CONTINUOUS
10
7.66256
20
-4.26902
11
7.67441
21
-4.26597
0
LINE
8
BLACK
6
CONTINUOUS
10
7.67441
20
-4.26597
11
7.68655
21
-4.26444
0
LINE
8
BLACK
6
CONTINUOUS
10
7.68655
20
-4.26444
11
7.69879
21
-4.26444
0
LINE
8
BLACK
6
CONTINUOUS
10
7.69879
20
-4.26444
11
7.71093
21
-4.26597
0
LINE
8
BLACK
6
CONTINUOUS
10
7.71093
20
-4.26597
11
7.72278
21
-4.26902
0
LINE
8
BLACK
6
CONTINUOUS
10
7.72278
20
-4.26902
11
7.73416
21
-4.27352
0
LINE
8
BLACK
6
CONTINUOUS
10
7.73416
20
-4.27352
11
7.74488
21
-4.27942
0
LINE
8
BLACK
6
CONTINUOUS
10
7.74488
20
-4.27942
11
7.75478
21
-4.28661
0
LINE
8
BLACK
6
CONTINUOUS
10
7.75478
20
-4.28661
11
7.7637
21
-4.29499
0
LINE
8
BLACK
6
CONTINUOUS
10
7.7637
20
-4.29499
11
7.7715
21
-4.30441
0
LINE
8
BLACK
6
CONTINUOUS
10
7.7715
20
-4.30441
11
7.77806
21
-4.31475
0
LINE
8
BLACK
6
CONTINUOUS
10
7.77806
20
-4.31475
11
7.78327
21
-4.32582
0
LINE
8
BLACK
6
CONTINUOUS
10
7.78327
20
-4.32582
11
7.78705
21
-4.33746
0
LINE
8
BLACK
6
CONTINUOUS
10
7.78705
20
-4.33746
11
7.78934
21
-4.34948
0
LINE
8
BLACK
6
CONTINUOUS
10
7.78934
20
-4.34948
11
7.79011
21
-4.36169
0
LINE
8
BLACK
6
CONTINUOUS
10
7.79011
20
-4.36169
11
7.78934
21
-4.3739
0
LINE
8
BLACK
6
CONTINUOUS
10
7.78934
20
-4.3739
11
7.78705
21
-4.38592
0
LINE
8
BLACK
6
CONTINUOUS
10
7.78705
20
-4.38592
11
7.78327
21
-4.39756
0
LINE
8
BLACK
6
CONTINUOUS
10
7.78327
20
-4.39756
11
7.77806
21
-4.40863
0
LINE
8
BLACK
6
CONTINUOUS
10
7.77806
20
-4.40863
11
7.7715
21
-4.41896
0
LINE
8
BLACK
6
CONTINUOUS
10
7.7715
20
-4.41896
11
7.7637
21
-4.42839
0
LINE
8
BLACK
6
CONTINUOUS
10
7.7637
20
-4.42839
11
7.75478
21
-4.43677
0
LINE
8
BLACK
6
CONTINUOUS
10
7.75478
20
-4.43677
11
7.74488
21
-4.44396
0
LINE
8
BLACK
6
CONTINUOUS
10
7.74488
20
-4.44396
11
7.73416
21
-4.44986
0
LINE
8
BLACK
6
CONTINUOUS
10
7.73416
20
-4.44986
11
7.72278
21
-4.45436
0
LINE
8
BLACK
6
CONTINUOUS
10
7.72278
20
-4.45436
11
7.71093
21
-4.4574
0
LINE
8
BLACK
6
CONTINUOUS
10
7.71093
20
-4.4574
11
7.69879
21
-4.45894
0
LINE
8
BLACK
6
CONTINUOUS
10
7.69879
20
-4.45894
11
7.68655
21
-4.45894
0
LINE
8
BLACK
6
CONTINUOUS
10
7.68655
20
-4.45894
11
7.67441
21
-4.4574
0
LINE
8
BLACK
6
CONTINUOUS
10
7.67441
20
-4.4574
11
7.66256
21
-4.45436
0
LINE
8
BLACK
6
CONTINUOUS
10
7.66256
20
-4.45436
11
7.65118
21
-4.44986
0
LINE
8
BLACK
6
CONTINUOUS
10
7.65118
20
-4.44986
11
7.64046
21
-4.44396
0
LINE
8
BLACK
6
CONTINUOUS
10
7.64046
20
-4.44396
11
7.63056
21
-4.43677
0
LINE
8
BLACK
6
CONTINUOUS
10
7.63056
20
-4.43677
11
7.62164
21
-4.42839
0
LINE
8
BLACK
6
CONTINUOUS
10
7.62164
20
-4.42839
11
7.61384
21
-4.41896
0
LINE
8
BLACK
6
CONTINUOUS
10
7.61384
20
-4.41896
11
7.60728
21
-4.40863
0
LINE
8
BLACK
6
CONTINUOUS
10
7.60728
20
-4.40863
11
7.60207
21
-4.39756
0
LINE
8
BLACK
6
CONTINUOUS
10
7.60207
20
-4.39756
11
7.59829
21
-4.38592
0
LINE
8
BLACK
6
CONTINUOUS
10
7.59829
20
-4.38592
11
7.59599
21
-4.3739
0
LINE
8
BLACK
6
CONTINUOUS
10
7.59599
20
-4.3739
11
7.59523
21
-4.36169
0
LINE
8
BLACK
6
CONTINUOUS
10
7.59523
20
-4.36169
11
7.59599
21
-4.34948
0
LINE
8
BLACK
6
CONTINUOUS
10
7.59599
20
-4.34948
11
7.59829
21
-4.33746
0
LINE
8
BLACK
6
CONTINUOUS
10
7.60001
20
-4.38548
11
7.60372
21
-4.3969
0
LINE
8
BLACK
6
CONTINUOUS
10
7.60372
20
-4.3969
11
7.60884
21
-4.40777
0
LINE
8
BLACK
6
CONTINUOUS
10
7.60884
20
-4.40777
11
7.61528
21
-4.41792
0
LINE
8
BLACK
6
CONTINUOUS
10
7.61528
20
-4.41792
11
7.62293
21
-4.42717
0
LINE
8
BLACK
6
CONTINUOUS
10
7.62293
20
-4.42717
11
7.63169
21
-4.4354
0
LINE
8
BLACK
6
CONTINUOUS
10
7.63169
20
-4.4354
11
7.64141
21
-4.44246
0
LINE
8
BLACK
6
CONTINUOUS
10
7.64141
20
-4.44246
11
7.65194
21
-4.44824
0
LINE
8
BLACK
6
CONTINUOUS
10
7.65194
20
-4.44824
11
7.66311
21
-4.45267
0
LINE
8
BLACK
6
CONTINUOUS
10
7.66311
20
-4.45267
11
7.67474
21
-4.45565
0
LINE
8
BLACK
6
CONTINUOUS
10
7.67474
20
-4.45565
11
7.68666
21
-4.45716
0
LINE
8
BLACK
6
CONTINUOUS
10
7.68666
20
-4.45716
11
7.69867
21
-4.45716
0
LINE
8
BLACK
6
CONTINUOUS
10
7.69867
20
-4.45716
11
7.71059
21
-4.45565
0
LINE
8
BLACK
6
CONTINUOUS
10
7.71059
20
-4.45565
11
7.72223
21
-4.45267
0
LINE
8
BLACK
6
CONTINUOUS
10
7.72223
20
-4.45267
11
7.7334
21
-4.44824
0
LINE
8
BLACK
6
CONTINUOUS
10
7.7334
20
-4.44824
11
7.74393
21
-4.44246
0
LINE
8
BLACK
6
CONTINUOUS
10
7.74393
20
-4.44246
11
7.75364
21
-4.4354
0
LINE
8
BLACK
6
CONTINUOUS
10
7.75364
20
-4.4354
11
7.7624
21
-4.42717
0
LINE
8
BLACK
6
CONTINUOUS
10
7.7624
20
-4.42717
11
7.77006
21
-4.41792
0
LINE
8
BLACK
6
CONTINUOUS
10
7.77006
20
-4.41792
11
7.7765
21
-4.40777
0
LINE
8
BLACK
6
CONTINUOUS
10
7.7765
20
-4.40777
11
7.78161
21
-4.3969
0
LINE
8
BLACK
6
CONTINUOUS
10
7.78161
20
-4.3969
11
7.78532
21
-4.38548
0
LINE
8
BLACK
6
CONTINUOUS
10
7.78532
20
-4.38548
11
7.78757
21
-4.37368
0
LINE
8
BLACK
6
CONTINUOUS
10
7.78757
20
-4.37368
11
7.78833
21
-4.36169
0
LINE
8
BLACK
6
CONTINUOUS
10
7.78833
20
-4.36169
11
7.78757
21
-4.3497
0
LINE
8
BLACK
6
CONTINUOUS
10
7.78757
20
-4.3497
11
7.78532
21
-4.3379
0
LINE
8
BLACK
6
CONTINUOUS
10
7.78532
20
-4.3379
11
7.78161
21
-4.32647
0
LINE
8
BLACK
6
CONTINUOUS
10
7.78161
20
-4.32647
11
7.7765
21
-4.3156
0
LINE
8
BLACK
6
CONTINUOUS
10
7.7765
20
-4.3156
11
7.77006
21
-4.30546
0
LINE
8
BLACK
6
CONTINUOUS
10
7.77006
20
-4.30546
11
7.7624
21
-4.2962
0
LINE
8
BLACK
6
CONTINUOUS
10
7.7624
20
-4.2962
11
7.75364
21
-4.28798
0
LINE
8
BLACK
6
CONTINUOUS
10
7.75364
20
-4.28798
11
7.74393
21
-4.28092
0
LINE
8
BLACK
6
CONTINUOUS
10
7.74393
20
-4.28092
11
7.7334
21
-4.27513
0
LINE
8
BLACK
6
CONTINUOUS
10
7.7334
20
-4.27513
11
7.72223
21
-4.27071
0
LINE
8
BLACK
6
CONTINUOUS
10
7.72223
20
-4.27071
11
7.71059
21
-4.26772
0
LINE
8
BLACK
6
CONTINUOUS
10
7.71059
20
-4.26772
11
7.69867
21
-4.26622
0
LINE
8
BLACK
6
CONTINUOUS
10
7.69867
20
-4.26622
11
7.68666
21
-4.26622
0
LINE
8
BLACK
6
CONTINUOUS
10
7.68666
20
-4.26622
11
7.67474
21
-4.26772
0
LINE
8
BLACK
6
CONTINUOUS
10
7.67474
20
-4.26772
11
7.66311
21
-4.27071
0
LINE
8
BLACK
6
CONTINUOUS
10
7.66311
20
-4.27071
11
7.65194
21
-4.27513
0
LINE
8
BLACK
6
CONTINUOUS
10
7.65194
20
-4.27513
11
7.64141
21
-4.28092
0
LINE
8
BLACK
6
CONTINUOUS
10
7.64141
20
-4.28092
11
7.63169
21
-4.28798
0
LINE
8
BLACK
6
CONTINUOUS
10
7.63169
20
-4.28798
11
7.62293
21
-4.2962
0
LINE
8
BLACK
6
CONTINUOUS
10
7.62293
20
-4.2962
11
7.61528
21
-4.30546
0
LINE
8
BLACK
6
CONTINUOUS
10
7.61528
20
-4.30546
11
7.60884
21
-4.3156
0
LINE
8
BLACK
6
CONTINUOUS
10
7.60884
20
-4.3156
11
7.60372
21
-4.32647
0
LINE
8
BLACK
6
CONTINUOUS
10
7.60372
20
-4.32647
11
7.60001
21
-4.3379
0
LINE
8
BLACK
6
CONTINUOUS
10
7.60001
20
-4.3379
11
7.59776
21
-4.3497
0
LINE
8
BLACK
6
CONTINUOUS
10
7.59776
20
-4.3497
11
7.59701
21
-4.36169
0
LINE
8
BLACK
6
CONTINUOUS
10
7.59701
20
-4.36169
11
7.59776
21
-4.37368
0
LINE
8
BLACK
6
CONTINUOUS
10
7.59776
20
-4.37368
11
7.60001
21
-4.38548
0
LINE
8
BLACK
6
CONTINUOUS
10
2.24396
20
-4.21935
11
2.24774
21
-4.20771
0
LINE
8
BLACK
6
CONTINUOUS
10
2.24774
20
-4.20771
11
2.25295
21
-4.19664
0
LINE
8
BLACK
6
CONTINUOUS
10
2.25295
20
-4.19664
11
2.25951
21
-4.1863
0
LINE
8
BLACK
6
CONTINUOUS
10
2.25951
20
-4.1863
11
2.26731
21
-4.17687
0
LINE
8
BLACK
6
CONTINUOUS
10
2.26731
20
-4.17687
11
2.27623
21
-4.1685
0
LINE
8
BLACK
6
CONTINUOUS
10
2.27623
20
-4.1685
11
2.28613
21
-4.16131
0
LINE
8
BLACK
6
CONTINUOUS
10
2.28613
20
-4.16131
11
2.29685
21
-4.15541
0
LINE
8
BLACK
6
CONTINUOUS
10
2.29685
20
-4.15541
11
2.30823
21
-4.15091
0
LINE
8
BLACK
6
CONTINUOUS
10
2.30823
20
-4.15091
11
2.32008
21
-4.14786
0
LINE
8
BLACK
6
CONTINUOUS
10
2.32008
20
-4.14786
11
2.33222
21
-4.14633
0
LINE
8
BLACK
6
CONTINUOUS
10
2.33222
20
-4.14633
11
2.34445
21
-4.14633
0
LINE
8
BLACK
6
CONTINUOUS
10
2.34445
20
-4.14633
11
2.3566
21
-4.14786
0
LINE
8
BLACK
6
CONTINUOUS
10
2.3566
20
-4.14786
11
2.36845
21
-4.15091
0
LINE
8
BLACK
6
CONTINUOUS
10
2.36845
20
-4.15091
11
2.37982
21
-4.15541
0
LINE
8
BLACK
6
CONTINUOUS
10
2.37982
20
-4.15541
11
2.39055
21
-4.16131
0
LINE
8
BLACK
6
CONTINUOUS
10
2.39055
20
-4.16131
11
2.40045
21
-4.1685
0
LINE
8
BLACK
6
CONTINUOUS
10
2.40045
20
-4.1685
11
2.40937
21
-4.17687
0
LINE
8
BLACK
6
CONTINUOUS
10
2.40937
20
-4.17687
11
2.41717
21
-4.1863
0
LINE
8
BLACK
6
CONTINUOUS
10
2.41717
20
-4.1863
11
2.42372
21
-4.19664
0
LINE
8
BLACK
6
CONTINUOUS
10
2.42372
20
-4.19664
11
2.42893
21
-4.20771
0
LINE
8
BLACK
6
CONTINUOUS
10
2.42893
20
-4.20771
11
2.43272
21
-4.21935
0
LINE
8
BLACK
6
CONTINUOUS
10
2.43272
20
-4.21935
11
2.43501
21
-4.23137
0
LINE
8
BLACK
6
CONTINUOUS
10
2.43501
20
-4.23137
11
2.43578
21
-4.24358
0
LINE
8
BLACK
6
CONTINUOUS
10
2.43578
20
-4.24358
11
2.43501
21
-4.25579
0
LINE
8
BLACK
6
CONTINUOUS
10
2.43501
20
-4.25579
11
2.43272
21
-4.26781
0
LINE
8
BLACK
6
CONTINUOUS
10
2.43272
20
-4.26781
11
2.42893
21
-4.27945
0
LINE
8
BLACK
6
CONTINUOUS
10
2.42893
20
-4.27945
11
2.42372
21
-4.29052
0
LINE
8
BLACK
6
CONTINUOUS
10
2.42372
20
-4.29052
11
2.41717
21
-4.30085
0
LINE
8
BLACK
6
CONTINUOUS
10
2.41717
20
-4.30085
11
2.40937
21
-4.31028
0
LINE
8
BLACK
6
CONTINUOUS
10
2.40937
20
-4.31028
11
2.40045
21
-4.31866
0
LINE
8
BLACK
6
CONTINUOUS
10
2.40045
20
-4.31866
11
2.39055
21
-4.32585
0
LINE
8
BLACK
6
CONTINUOUS
10
2.39055
20
-4.32585
11
2.37982
21
-4.33174
0
LINE
8
BLACK
6
CONTINUOUS
10
2.37982
20
-4.33174
11
2.36845
21
-4.33625
0
LINE
8
BLACK
6
CONTINUOUS
10
2.36845
20
-4.33625
11
2.3566
21
-4.33929
0
LINE
8
BLACK
6
CONTINUOUS
10
2.3566
20
-4.33929
11
2.34445
21
-4.34083
0
LINE
8
BLACK
6
CONTINUOUS
10
2.34445
20
-4.34083
11
2.33222
21
-4.34083
0
LINE
8
BLACK
6
CONTINUOUS
10
2.33222
20
-4.34083
11
2.32008
21
-4.33929
0
LINE
8
BLACK
6
CONTINUOUS
10
2.32008
20
-4.33929
11
2.30823
21
-4.33625
0
LINE
8
BLACK
6
CONTINUOUS
10
2.30823
20
-4.33625
11
2.29685
21
-4.33174
0
LINE
8
BLACK
6
CONTINUOUS
10
2.29685
20
-4.33174
11
2.28613
21
-4.32585
0
LINE
8
BLACK
6
CONTINUOUS
10
2.28613
20
-4.32585
11
2.27623
21
-4.31866
0
LINE
8
BLACK
6
CONTINUOUS
10
2.27623
20
-4.31866
11
2.26731
21
-4.31028
0
LINE
8
BLACK
6
CONTINUOUS
10
2.26731
20
-4.31028
11
2.25951
21
-4.30085
0
LINE
8
BLACK
6
CONTINUOUS
10
2.25951
20
-4.30085
11
2.25295
21
-4.29052
0
LINE
8
BLACK
6
CONTINUOUS
10
2.25295
20
-4.29052
11
2.24774
21
-4.27945
0
LINE
8
BLACK
6
CONTINUOUS
10
2.24774
20
-4.27945
11
2.24396
21
-4.26781
0
LINE
8
BLACK
6
CONTINUOUS
10
2.24396
20
-4.26781
11
2.24166
21
-4.25579
0
LINE
8
BLACK
6
CONTINUOUS
10
2.24166
20
-4.25579
11
2.2409
21
-4.24358
0
LINE
8
BLACK
6
CONTINUOUS
10
2.2409
20
-4.24358
11
2.24166
21
-4.23137
0
LINE
8
BLACK
6
CONTINUOUS
10
2.24166
20
-4.23137
11
2.24396
21
-4.21935
0
LINE
8
BLACK
6
CONTINUOUS
10
2.24568
20
-4.26737
11
2.24939
21
-4.27879
0
LINE
8
BLACK
6
CONTINUOUS
10
2.24939
20
-4.27879
11
2.25451
21
-4.28966
0
LINE
8
BLACK
6
CONTINUOUS
10
2.25451
20
-4.28966
11
2.26095
21
-4.29981
0
LINE
8
BLACK
6
CONTINUOUS
10
2.26095
20
-4.29981
11
2.2686
21
-4.30906
0
LINE
8
BLACK
6
CONTINUOUS
10
2.2686
20
-4.30906
11
2.27736
21
-4.31729
0
LINE
8
BLACK
6
CONTINUOUS
10
2.27736
20
-4.31729
11
2.28708
21
-4.32435
0
LINE
8
BLACK
6
CONTINUOUS
10
2.28708
20
-4.32435
11
2.29761
21
-4.33013
0
LINE
8
BLACK
6
CONTINUOUS
10
2.29761
20
-4.33013
11
2.30878
21
-4.33456
0
LINE
8
BLACK
6
CONTINUOUS
10
2.30878
20
-4.33456
11
2.32041
21
-4.33754
0
LINE
8
BLACK
6
CONTINUOUS
10
2.32041
20
-4.33754
11
2.33233
21
-4.33905
0
LINE
8
BLACK
6
CONTINUOUS
10
2.33233
20
-4.33905
11
2.34434
21
-4.33905
0
LINE
8
BLACK
6
CONTINUOUS
10
2.34434
20
-4.33905
11
2.35626
21
-4.33754
0
LINE
8
BLACK
6
CONTINUOUS
10
2.35626
20
-4.33754
11
2.3679
21
-4.33456
0
LINE
8
BLACK
6
CONTINUOUS
10
2.3679
20
-4.33456
11
2.37907
21
-4.33013
0
LINE
8
BLACK
6
CONTINUOUS
10
2.37907
20
-4.33013
11
2.38959
21
-4.32435
0
LINE
8
BLACK
6
CONTINUOUS
10
2.38959
20
-4.32435
11
2.39931
21
-4.31729
0
LINE
8
BLACK
6
CONTINUOUS
10
2.39931
20
-4.31729
11
2.40807
21
-4.30906
0
LINE
8
BLACK
6
CONTINUOUS
10
2.40807
20
-4.30906
11
2.41573
21
-4.29981
0
LINE
8
BLACK
6
CONTINUOUS
10
2.41573
20
-4.29981
11
2.42217
21
-4.28966
0
LINE
8
BLACK
6
CONTINUOUS
10
2.42217
20
-4.28966
11
2.42728
21
-4.27879
0
LINE
8
BLACK
6
CONTINUOUS
10
2.42728
20
-4.27879
11
2.43099
21
-4.26737
0
LINE
8
BLACK
6
CONTINUOUS
10
2.43099
20
-4.26737
11
2.43324
21
-4.25557
0
LINE
8
BLACK
6
CONTINUOUS
10
2.43324
20
-4.25557
11
2.434
21
-4.24358
0
LINE
8
BLACK
6
CONTINUOUS
10
2.434
20
-4.24358
11
2.43324
21
-4.23159
0
LINE
8
BLACK
6
CONTINUOUS
10
2.43324
20
-4.23159
11
2.43099
21
-4.21979
0
LINE
8
BLACK
6
CONTINUOUS
10
2.43099
20
-4.21979
11
2.42728
21
-4.20836
0
LINE
8
BLACK
6
CONTINUOUS
10
2.42728
20
-4.20836
11
2.42217
21
-4.19749
0
LINE
8
BLACK
6
CONTINUOUS
10
2.42217
20
-4.19749
11
2.41573
21
-4.18735
0
LINE
8
BLACK
6
CONTINUOUS
10
2.41573
20
-4.18735
11
2.40807
21
-4.17809
0
LINE
8
BLACK
6
CONTINUOUS
10
2.40807
20
-4.17809
11
2.39931
21
-4.16987
0
LINE
8
BLACK
6
CONTINUOUS
10
2.39931
20
-4.16987
11
2.38959
21
-4.16281
0
LINE
8
BLACK
6
CONTINUOUS
10
2.38959
20
-4.16281
11
2.37907
21
-4.15702
0
LINE
8
BLACK
6
CONTINUOUS
10
2.37907
20
-4.15702
11
2.3679
21
-4.1526
0
LINE
8
BLACK
6
CONTINUOUS
10
2.3679
20
-4.1526
11
2.35626
21
-4.14961
0
LINE
8
BLACK
6
CONTINUOUS
10
2.35626
20
-4.14961
11
2.34434
21
-4.14811
0
LINE
8
BLACK
6
CONTINUOUS
10
2.34434
20
-4.14811
11
2.33233
21
-4.14811
0
LINE
8
BLACK
6
CONTINUOUS
10
2.33233
20
-4.14811
11
2.32041
21
-4.14961
0
LINE
8
BLACK
6
CONTINUOUS
10
2.32041
20
-4.14961
11
2.30878
21
-4.1526
0
LINE
8
BLACK
6
CONTINUOUS
10
2.30878
20
-4.1526
11
2.29761
21
-4.15702
0
LINE
8
BLACK
6
CONTINUOUS
10
2.29761
20
-4.15702
11
2.28708
21
-4.16281
0
LINE
8
BLACK
6
CONTINUOUS
10
2.28708
20
-4.16281
11
2.27736
21
-4.16987
0
LINE
8
BLACK
6
CONTINUOUS
10
2.27736
20
-4.16987
11
2.2686
21
-4.17809
0
LINE
8
BLACK
6
CONTINUOUS
10
2.2686
20
-4.17809
11
2.26095
21
-4.18735
0
LINE
8
BLACK
6
CONTINUOUS
10
2.26095
20
-4.18735
11
2.25451
21
-4.19749
0
LINE
8
BLACK
6
CONTINUOUS
10
2.25451
20
-4.19749
11
2.24939
21
-4.20836
0
LINE
8
BLACK
6
CONTINUOUS
10
2.24939
20
-4.20836
11
2.24568
21
-4.21979
0
LINE
8
BLACK
6
CONTINUOUS
10
2.24568
20
-4.21979
11
2.24343
21
-4.23159
0
LINE
8
BLACK
6
CONTINUOUS
10
2.24343
20
-4.23159
11
2.24268
21
-4.24358
0
LINE
8
BLACK
6
CONTINUOUS
10
2.24268
20
-4.24358
11
2.24343
21
-4.25557
0
LINE
8
BLACK
6
CONTINUOUS
10
2.24343
20
-4.25557
11
2.24568
21
-4.26737
0
LINE
8
BLACK
6
CONTINUOUS
10
9.64553
20
-4.21935
11
9.64931
21
-4.20771
0
LINE
8
BLACK
6
CONTINUOUS
10
9.64931
20
-4.20771
11
9.65452
21
-4.19664
0
LINE
8
BLACK
6
CONTINUOUS
10
9.65452
20
-4.19664
11
9.66108
21
-4.1863
0
LINE
8
BLACK
6
CONTINUOUS
10
9.66108
20
-4.1863
11
9.66888
21
-4.17687
0
LINE
8
BLACK
6
CONTINUOUS
10
9.66888
20
-4.17687
11
9.6778
21
-4.1685
0
LINE
8
BLACK
6
CONTINUOUS
10
9.6778
20
-4.1685
11
9.6877
21
-4.16131
0
LINE
8
BLACK
6
CONTINUOUS
10
9.6877
20
-4.16131
11
9.69842
21
-4.15541
0
LINE
8
BLACK
6
CONTINUOUS
10
9.69842
20
-4.15541
11
9.7098
21
-4.15091
0
LINE
8
BLACK
6
CONTINUOUS
10
9.7098
20
-4.15091
11
9.72165
21
-4.14786
0
LINE
8
BLACK
6
CONTINUOUS
10
9.72165
20
-4.14786
11
9.73379
21
-4.14633
0
LINE
8
BLACK
6
CONTINUOUS
10
9.73379
20
-4.14633
11
9.74603
21
-4.14633
0
LINE
8
BLACK
6
CONTINUOUS
10
9.74603
20
-4.14633
11
9.75817
21
-4.14786
0
LINE
8
BLACK
6
CONTINUOUS
10
9.75817
20
-4.14786
11
9.77002
21
-4.15091
0
LINE
8
BLACK
6
CONTINUOUS
10
9.77002
20
-4.15091
11
9.7814
21
-4.15541
0
LINE
8
BLACK
6
CONTINUOUS
10
9.7814
20
-4.15541
11
9.79212
21
-4.16131
0
LINE
8
BLACK
6
CONTINUOUS
10
9.79212
20
-4.16131
11
9.80202
21
-4.1685
0
LINE
8
BLACK
6
CONTINUOUS
10
9.80202
20
-4.1685
11
9.81094
21
-4.17687
0
LINE
8
BLACK
6
CONTINUOUS
10
9.81094
20
-4.17687
11
9.81874
21
-4.1863
0
LINE
8
BLACK
6
CONTINUOUS
10
9.81874
20
-4.1863
11
9.8253
21
-4.19664
0
LINE
8
BLACK
6
CONTINUOUS
10
9.8253
20
-4.19664
11
9.83051
21
-4.20771
0
LINE
8
BLACK
6
CONTINUOUS
10
9.83051
20
-4.20771
11
9.83429
21
-4.21935
0
LINE
8
BLACK
6
CONTINUOUS
10
9.83429
20
-4.21935
11
9.83658
21
-4.23137
0
LINE
8
BLACK
6
CONTINUOUS
10
9.83658
20
-4.23137
11
9.83735
21
-4.24358
0
LINE
8
BLACK
6
CONTINUOUS
10
9.83735
20
-4.24358
11
9.83658
21
-4.25579
0
LINE
8
BLACK
6
CONTINUOUS
10
9.83658
20
-4.25579
11
9.83429
21
-4.26781
0
LINE
8
BLACK
6
CONTINUOUS
10
9.83429
20
-4.26781
11
9.83051
21
-4.27945
0
LINE
8
BLACK
6
CONTINUOUS
10
9.83051
20
-4.27945
11
9.8253
21
-4.29052
0
LINE
8
BLACK
6
CONTINUOUS
10
9.8253
20
-4.29052
11
9.81874
21
-4.30085
0
LINE
8
BLACK
6
CONTINUOUS
10
9.81874
20
-4.30085
11
9.81094
21
-4.31028
0
LINE
8
BLACK
6
CONTINUOUS
10
9.81094
20
-4.31028
11
9.80202
21
-4.31866
0
LINE
8
BLACK
6
CONTINUOUS
10
9.80202
20
-4.31866
11
9.79212
21
-4.32585
0
LINE
8
BLACK
6
CONTINUOUS
10
9.79212
20
-4.32585
11
9.7814
21
-4.33174
0
LINE
8
BLACK
6
CONTINUOUS
10
9.7814
20
-4.33174
11
9.77002
21
-4.33625
0
LINE
8
BLACK
6
CONTINUOUS
10
9.77002
20
-4.33625
11
9.75817
21
-4.33929
0
LINE
8
BLACK
6
CONTINUOUS
10
9.75817
20
-4.33929
11
9.74603
21
-4.34083
0
LINE
8
BLACK
6
CONTINUOUS
10
9.74603
20
-4.34083
11
9.73379
21
-4.34083
0
LINE
8
BLACK
6
CONTINUOUS
10
9.73379
20
-4.34083
11
9.72165
21
-4.33929
0
LINE
8
BLACK
6
CONTINUOUS
10
9.72165
20
-4.33929
11
9.7098
21
-4.33625
0
LINE
8
BLACK
6
CONTINUOUS
10
9.7098
20
-4.33625
11
9.69842
21
-4.33174
0
LINE
8
BLACK
6
CONTINUOUS
10
9.69842
20
-4.33174
11
9.6877
21
-4.32585
0
LINE
8
BLACK
6
CONTINUOUS
10
9.6877
20
-4.32585
11
9.6778
21
-4.31866
0
LINE
8
BLACK
6
CONTINUOUS
10
9.6778
20
-4.31866
11
9.66888
21
-4.31028
0
LINE
8
BLACK
6
CONTINUOUS
10
9.66888
20
-4.31028
11
9.66108
21
-4.30085
0
LINE
8
BLACK
6
CONTINUOUS
10
9.66108
20
-4.30085
11
9.65452
21
-4.29052
0
LINE
8
BLACK
6
CONTINUOUS
10
9.65452
20
-4.29052
11
9.64931
21
-4.27945
0
LINE
8
BLACK
6
CONTINUOUS
10
9.64931
20
-4.27945
11
9.64553
21
-4.26781
0
LINE
8
BLACK
6
CONTINUOUS
10
9.64553
20
-4.26781
11
9.64324
21
-4.25579
0
LINE
8
BLACK
6
CONTINUOUS
10
9.64324
20
-4.25579
11
9.64247
21
-4.24358
0
LINE
8
BLACK
6
CONTINUOUS
10
9.64247
20
-4.24358
11
9.64324
21
-4.23137
0
LINE
8
BLACK
6
CONTINUOUS
10
9.64324
20
-4.23137
11
9.64553
21
-4.21935
0
LINE
8
BLACK
6
CONTINUOUS
10
9.64726
20
-4.26737
11
9.65097
21
-4.27879
0
LINE
8
BLACK
6
CONTINUOUS
10
9.65097
20
-4.27879
11
9.65608
21
-4.28966
0
LINE
8
BLACK
6
CONTINUOUS
10
9.65608
20
-4.28966
11
9.66252
21
-4.29981
0
LINE
8
BLACK
6
CONTINUOUS
10
9.66252
20
-4.29981
11
9.67018
21
-4.30906
0
LINE
8
BLACK
6
CONTINUOUS
10
9.67018
20
-4.30906
11
9.67893
21
-4.31729
0
LINE
8
BLACK
6
CONTINUOUS
10
9.67893
20
-4.31729
11
9.68865
21
-4.32435
0
LINE
8
BLACK
6
CONTINUOUS
10
9.68865
20
-4.32435
11
9.69918
21
-4.33013
0
LINE
8
BLACK
6
CONTINUOUS
10
9.69918
20
-4.33013
11
9.71035
21
-4.33456
0
LINE
8
BLACK
6
CONTINUOUS
10
9.71035
20
-4.33456
11
9.72199
21
-4.33754
0
LINE
8
BLACK
6
CONTINUOUS
10
9.72199
20
-4.33754
11
9.7339
21
-4.33905
0
LINE
8
BLACK
6
CONTINUOUS
10
9.7339
20
-4.33905
11
9.74592
21
-4.33905
0
LINE
8
BLACK
6
CONTINUOUS
10
9.74592
20
-4.33905
11
9.75784
21
-4.33754
0
LINE
8
BLACK
6
CONTINUOUS
10
9.75784
20
-4.33754
11
9.76947
21
-4.33456
0
LINE
8
BLACK
6
CONTINUOUS
10
9.76947
20
-4.33456
11
9.78064
21
-4.33013
0
LINE
8
BLACK
6
CONTINUOUS
10
9.78064
20
-4.33013
11
9.79117
21
-4.32435
0
LINE
8
BLACK
6
CONTINUOUS
10
9.79117
20
-4.32435
11
9.80089
21
-4.31729
0
LINE
8
BLACK
6
CONTINUOUS
10
9.80089
20
-4.31729
11
9.80965
21
-4.30906
0
LINE
8
BLACK
6
CONTINUOUS
10
9.80965
20
-4.30906
11
9.8173
21
-4.29981
0
LINE
8
BLACK
6
CONTINUOUS
10
9.8173
20
-4.29981
11
9.82374
21
-4.28966
0
LINE
8
BLACK
6
CONTINUOUS
10
9.82374
20
-4.28966
11
9.82885
21
-4.27879
0
LINE
8
BLACK
6
CONTINUOUS
10
9.82885
20
-4.27879
11
9.83257
21
-4.26737
0
LINE
8
BLACK
6
CONTINUOUS
10
9.83257
20
-4.26737
11
9.83482
21
-4.25557
0
LINE
8
BLACK
6
CONTINUOUS
10
9.83482
20
-4.25557
11
9.83557
21
-4.24358
0
LINE
8
BLACK
6
CONTINUOUS
10
9.83557
20
-4.24358
11
9.83482
21
-4.23159
0
LINE
8
BLACK
6
CONTINUOUS
10
9.83482
20
-4.23159
11
9.83257
21
-4.21979
0
LINE
8
BLACK
6
CONTINUOUS
10
9.83257
20
-4.21979
11
9.82885
21
-4.20836
0
LINE
8
BLACK
6
CONTINUOUS
10
9.82885
20
-4.20836
11
9.82374
21
-4.19749
0
LINE
8
BLACK
6
CONTINUOUS
10
9.82374
20
-4.19749
11
9.8173
21
-4.18735
0
LINE
8
BLACK
6
CONTINUOUS
10
9.8173
20
-4.18735
11
9.80965
21
-4.17809
0
LINE
8
BLACK
6
CONTINUOUS
10
9.80965
20
-4.17809
11
9.80089
21
-4.16987
0
LINE
8
BLACK
6
CONTINUOUS
10
9.80089
20
-4.16987
11
9.79117
21
-4.16281
0
LINE
8
BLACK
6
CONTINUOUS
10
9.79117
20
-4.16281
11
9.78064
21
-4.15702
0
LINE
8
BLACK
6
CONTINUOUS
10
9.78064
20
-4.15702
11
9.76947
21
-4.1526
0
LINE
8
BLACK
6
CONTINUOUS
10
9.76947
20
-4.1526
11
9.75784
21
-4.14961
0
LINE
8
BLACK
6
CONTINUOUS
10
9.75784
20
-4.14961
11
9.74592
21
-4.14811
0
LINE
8
BLACK
6
CONTINUOUS
10
9.74592
20
-4.14811
11
9.7339
21
-4.14811
0
LINE
8
BLACK
6
CONTINUOUS
10
9.7339
20
-4.14811
11
9.72199
21
-4.14961
0
LINE
8
BLACK
6
CONTINUOUS
10
9.72199
20
-4.14961
11
9.71035
21
-4.1526
0
LINE
8
BLACK
6
CONTINUOUS
10
9.71035
20
-4.1526
11
9.69918
21
-4.15702
0
LINE
8
BLACK
6
CONTINUOUS
10
9.69918
20
-4.15702
11
9.68865
21
-4.16281
0
LINE
8
BLACK
6
CONTINUOUS
10
9.68865
20
-4.16281
11
9.67893
21
-4.16987
0
LINE
8
BLACK
6
CONTINUOUS
10
9.67893
20
-4.16987
11
9.67018
21
-4.17809
0
LINE
8
BLACK
6
CONTINUOUS
10
9.67018
20
-4.17809
11
9.66252
21
-4.18735
0
LINE
8
BLACK
6
CONTINUOUS
10
9.66252
20
-4.18735
11
9.65608
21
-4.19749
0
LINE
8
BLACK
6
CONTINUOUS
10
9.65608
20
-4.19749
11
9.65097
21
-4.20836
0
LINE
8
BLACK
6
CONTINUOUS
10
9.65097
20
-4.20836
11
9.64726
21
-4.21979
0
LINE
8
BLACK
6
CONTINUOUS
10
9.64726
20
-4.21979
11
9.645
21
-4.23159
0
LINE
8
BLACK
6
CONTINUOUS
10
9.645
20
-4.23159
11
9.64425
21
-4.24358
0
LINE
8
BLACK
6
CONTINUOUS
10
9.64425
20
-4.24358
11
9.645
21
-4.25557
0
LINE
8
BLACK
6
CONTINUOUS
10
9.645
20
-4.25557
11
9.64726
21
-4.26737
0
LINE
8
BLACK
6
CONTINUOUS
10
2.24396
20
-2.99887
11
2.24774
21
-2.98723
0
LINE
8
BLACK
6
CONTINUOUS
10
2.24774
20
-2.98723
11
2.25295
21
-2.97616
0
LINE
8
BLACK
6
CONTINUOUS
10
2.25295
20
-2.97616
11
2.25951
21
-2.96583
0
LINE
8
BLACK
6
CONTINUOUS
10
2.25951
20
-2.96583
11
2.26731
21
-2.9564
0
LINE
8
BLACK
6
CONTINUOUS
10
2.26731
20
-2.9564
11
2.27623
21
-2.94803
0
LINE
8
BLACK
6
CONTINUOUS
10
2.27623
20
-2.94803
11
2.28613
21
-2.94083
0
LINE
8
BLACK
6
CONTINUOUS
10
2.28613
20
-2.94083
11
2.29685
21
-2.93494
0
LINE
8
BLACK
6
CONTINUOUS
10
2.29685
20
-2.93494
11
2.30823
21
-2.93043
0
LINE
8
BLACK
6
CONTINUOUS
10
2.30823
20
-2.93043
11
2.32008
21
-2.92739
0
LINE
8
BLACK
6
CONTINUOUS
10
2.32008
20
-2.92739
11
2.33222
21
-2.92586
0
LINE
8
BLACK
6
CONTINUOUS
10
2.33222
20
-2.92586
11
2.34445
21
-2.92586
0
LINE
8
BLACK
6
CONTINUOUS
10
2.34445
20
-2.92586
11
2.3566
21
-2.92739
0
LINE
8
BLACK
6
CONTINUOUS
10
2.3566
20
-2.92739
11
2.36845
21
-2.93043
0
LINE
8
BLACK
6
CONTINUOUS
10
2.36845
20
-2.93043
11
2.37982
21
-2.93494
0
LINE
8
BLACK
6
CONTINUOUS
10
2.37982
20
-2.93494
11
2.39055
21
-2.94083
0
LINE
8
BLACK
6
CONTINUOUS
10
2.39055
20
-2.94083
11
2.40045
21
-2.94803
0
LINE
8
BLACK
6
CONTINUOUS
10
2.40045
20
-2.94803
11
2.40937
21
-2.9564
0
LINE
8
BLACK
6
CONTINUOUS
10
2.40937
20
-2.9564
11
2.41717
21
-2.96583
0
LINE
8
BLACK
6
CONTINUOUS
10
2.41717
20
-2.96583
11
2.42372
21
-2.97616
0
LINE
8
BLACK
6
CONTINUOUS
10
2.42372
20
-2.97616
11
2.42893
21
-2.98723
0
LINE
8
BLACK
6
CONTINUOUS
10
2.42893
20
-2.98723
11
2.43272
21
-2.99887
0
LINE
8
BLACK
6
CONTINUOUS
10
2.43272
20
-2.99887
11
2.43501
21
-3.01089
0
LINE
8
BLACK
6
CONTINUOUS
10
2.43501
20
-3.01089
11
2.43578
21
-3.02311
0
LINE
8
BLACK
6
CONTINUOUS
10
2.43578
20
-3.02311
11
2.43501
21
-3.03532
0
LINE
8
BLACK
6
CONTINUOUS
10
2.43501
20
-3.03532
11
2.43272
21
-3.04734
0
LINE
8
BLACK
6
CONTINUOUS
10
2.43272
20
-3.04734
11
2.42893
21
-3.05898
0
LINE
8
BLACK
6
CONTINUOUS
10
2.42893
20
-3.05898
11
2.42372
21
-3.07005
0
LINE
8
BLACK
6
CONTINUOUS
10
2.42372
20
-3.07005
11
2.41717
21
-3.08038
0
LINE
8
BLACK
6
CONTINUOUS
10
2.41717
20
-3.08038
11
2.40937
21
-3.08981
0
LINE
8
BLACK
6
CONTINUOUS
10
2.40937
20
-3.08981
11
2.40045
21
-3.09818
0
LINE
8
BLACK
6
CONTINUOUS
10
2.40045
20
-3.09818
11
2.39055
21
-3.10538
0
LINE
8
BLACK
6
CONTINUOUS
10
2.39055
20
-3.10538
11
2.37982
21
-3.11127
0
LINE
8
BLACK
6
CONTINUOUS
10
2.37982
20
-3.11127
11
2.36845
21
-3.11578
0
LINE
8
BLACK
6
CONTINUOUS
10
2.36845
20
-3.11578
11
2.3566
21
-3.11882
0
LINE
8
BLACK
6
CONTINUOUS
10
2.3566
20
-3.11882
11
2.34445
21
-3.12035
0
LINE
8
BLACK
6
CONTINUOUS
10
2.34445
20
-3.12035
11
2.33222
21
-3.12035
0
LINE
8
BLACK
6
CONTINUOUS
10
2.33222
20
-3.12035
11
2.32008
21
-3.11882
0
LINE
8
BLACK
6
CONTINUOUS
10
2.32008
20
-3.11882
11
2.30823
21
-3.11578
0
LINE
8
BLACK
6
CONTINUOUS
10
2.30823
20
-3.11578
11
2.29685
21
-3.11127
0
LINE
8
BLACK
6
CONTINUOUS
10
2.29685
20
-3.11127
11
2.28613
21
-3.10538
0
LINE
8
BLACK
6
CONTINUOUS
10
2.28613
20
-3.10538
11
2.27623
21
-3.09818
0
LINE
8
BLACK
6
CONTINUOUS
10
2.27623
20
-3.09818
11
2.26731
21
-3.08981
0
LINE
8
BLACK
6
CONTINUOUS
10
2.26731
20
-3.08981
11
2.25951
21
-3.08038
0
LINE
8
BLACK
6
CONTINUOUS
10
2.25951
20
-3.08038
11
2.25295
21
-3.07005
0
LINE
8
BLACK
6
CONTINUOUS
10
2.25295
20
-3.07005
11
2.24774
21
-3.05898
0
LINE
8
BLACK
6
CONTINUOUS
10
2.24774
20
-3.05898
11
2.24396
21
-3.04734
0
LINE
8
BLACK
6
CONTINUOUS
10
2.24396
20
-3.04734
11
2.24166
21
-3.03532
0
LINE
8
BLACK
6
CONTINUOUS
10
2.24166
20
-3.03532
11
2.2409
21
-3.02311
0
LINE
8
BLACK
6
CONTINUOUS
10
2.2409
20
-3.02311
11
2.24166
21
-3.01089
0
LINE
8
BLACK
6
CONTINUOUS
10
2.24166
20
-3.01089
11
2.24396
21
-2.99887
0
LINE
8
BLACK
6
CONTINUOUS
10
2.24568
20
-3.0469
11
2.24939
21
-3.05832
0
LINE
8
BLACK
6
CONTINUOUS
10
2.24939
20
-3.05832
11
2.25451
21
-3.06919
0
LINE
8
BLACK
6
CONTINUOUS
10
2.25451
20
-3.06919
11
2.26095
21
-3.07933
0
LINE
8
BLACK
6
CONTINUOUS
10
2.26095
20
-3.07933
11
2.2686
21
-3.08859
0
LINE
8
BLACK
6
CONTINUOUS
10
2.2686
20
-3.08859
11
2.27736
21
-3.09681
0
LINE
8
BLACK
6
CONTINUOUS
10
2.27736
20
-3.09681
11
2.28708
21
-3.10387
0
LINE
8
BLACK
6
CONTINUOUS
10
2.28708
20
-3.10387
11
2.29761
21
-3.10966
0
LINE
8
BLACK
6
CONTINUOUS
10
2.29761
20
-3.10966
11
2.30878
21
-3.11408
0
LINE
8
BLACK
6
CONTINUOUS
10
2.30878
20
-3.11408
11
2.32041
21
-3.11707
0
LINE
8
BLACK
6
CONTINUOUS
10
2.32041
20
-3.11707
11
2.33233
21
-3.11858
0
LINE
8
BLACK
6
CONTINUOUS
10
2.33233
20
-3.11858
11
2.34434
21
-3.11858
0
LINE
8
BLACK
6
CONTINUOUS
10
2.34434
20
-3.11858
11
2.35626
21
-3.11707
0
LINE
8
BLACK
6
CONTINUOUS
10
2.35626
20
-3.11707
11
2.3679
21
-3.11408
0
LINE
8
BLACK
6
CONTINUOUS
10
2.3679
20
-3.11408
11
2.37907
21
-3.10966
0
LINE
8
BLACK
6
CONTINUOUS
10
2.37907
20
-3.10966
11
2.38959
21
-3.10387
0
LINE
8
BLACK
6
CONTINUOUS
10
2.38959
20
-3.10387
11
2.39931
21
-3.09681
0
LINE
8
BLACK
6
CONTINUOUS
10
2.39931
20
-3.09681
11
2.40807
21
-3.08859
0
LINE
8
BLACK
6
CONTINUOUS
10
2.40807
20
-3.08859
11
2.41573
21
-3.07933
0
LINE
8
BLACK
6
CONTINUOUS
10
2.41573
20
-3.07933
11
2.42217
21
-3.06919
0
LINE
8
BLACK
6
CONTINUOUS
10
2.42217
20
-3.06919
11
2.42728
21
-3.05832
0
LINE
8
BLACK
6
CONTINUOUS
10
2.42728
20
-3.05832
11
2.43099
21
-3.0469
0
LINE
8
BLACK
6
CONTINUOUS
10
2.43099
20
-3.0469
11
2.43324
21
-3.03509
0
LINE
8
BLACK
6
CONTINUOUS
10
2.43324
20
-3.03509
11
2.434
21
-3.02311
0
LINE
8
BLACK
6
CONTINUOUS
10
2.434
20
-3.02311
11
2.43324
21
-3.01112
0
LINE
8
BLACK
6
CONTINUOUS
10
2.43324
20
-3.01112
11
2.43099
21
-2.99932
0
LINE
8
BLACK
6
CONTINUOUS
10
2.43099
20
-2.99932
11
2.42728
21
-2.98789
0
LINE
8
BLACK
6
CONTINUOUS
10
2.42728
20
-2.98789
11
2.42217
21
-2.97702
0
LINE
8
BLACK
6
CONTINUOUS
10
2.42217
20
-2.97702
11
2.41573
21
-2.96688
0
LINE
8
BLACK
6
CONTINUOUS
10
2.41573
20
-2.96688
11
2.40807
21
-2.95762
0
LINE
8
BLACK
6
CONTINUOUS
10
2.40807
20
-2.95762
11
2.39931
21
-2.9494
0
LINE
8
BLACK
6
CONTINUOUS
10
2.39931
20
-2.9494
11
2.38959
21
-2.94234
0
LINE
8
BLACK
6
CONTINUOUS
10
2.38959
20
-2.94234
11
2.37907
21
-2.93655
0
LINE
8
BLACK
6
CONTINUOUS
10
2.37907
20
-2.93655
11
2.3679
21
-2.93213
0
LINE
8
BLACK
6
CONTINUOUS
10
2.3679
20
-2.93213
11
2.35626
21
-2.92914
0
LINE
8
BLACK
6
CONTINUOUS
10
2.35626
20
-2.92914
11
2.34434
21
-2.92763
0
LINE
8
BLACK
6
CONTINUOUS
10
2.34434
20
-2.92763
11
2.33233
21
-2.92763
0
LINE
8
BLACK
6
CONTINUOUS
10
2.33233
20
-2.92763
11
2.32041
21
-2.92914
0
LINE
8
BLACK
6
CONTINUOUS
10
2.32041
20
-2.92914
11
2.30878
21
-2.93213
0
LINE
8
BLACK
6
CONTINUOUS
10
2.30878
20
-2.93213
11
2.29761
21
-2.93655
0
LINE
8
BLACK
6
CONTINUOUS
10
2.29761
20
-2.93655
11
2.28708
21
-2.94234
0
LINE
8
BLACK
6
CONTINUOUS
10
2.28708
20
-2.94234
11
2.27736
21
-2.9494
0
LINE
8
BLACK
6
CONTINUOUS
10
2.27736
20
-2.9494
11
2.2686
21
-2.95762
0
LINE
8
BLACK
6
CONTINUOUS
10
2.2686
20
-2.95762
11
2.26095
21
-2.96688
0
LINE
8
BLACK
6
CONTINUOUS
10
2.26095
20
-2.96688
11
2.25451
21
-2.97702
0
LINE
8
BLACK
6
CONTINUOUS
10
2.25451
20
-2.97702
11
2.24939
21
-2.98789
0
LINE
8
BLACK
6
CONTINUOUS
10
2.24939
20
-2.98789
11
2.24568
21
-2.99932
0
LINE
8
BLACK
6
CONTINUOUS
10
2.24568
20
-2.99932
11
2.24343
21
-3.01112
0
LINE
8
BLACK
6
CONTINUOUS
10
2.24343
20
-3.01112
11
2.24268
21
-3.02311
0
LINE
8
BLACK
6
CONTINUOUS
10
2.24268
20
-3.02311
11
2.24343
21
-3.03509
0
LINE
8
BLACK
6
CONTINUOUS
10
2.24343
20
-3.03509
11
2.24568
21
-3.0469
0
LINE
8
BLACK
6
CONTINUOUS
10
9.64553
20
-2.99887
11
9.64931
21
-2.98723
0
LINE
8
BLACK
6
CONTINUOUS
10
9.64931
20
-2.98723
11
9.65452
21
-2.97616
0
LINE
8
BLACK
6
CONTINUOUS
10
9.65452
20
-2.97616
11
9.66108
21
-2.96583
0
LINE
8
BLACK
6
CONTINUOUS
10
9.66108
20
-2.96583
11
9.66888
21
-2.9564
0
LINE
8
BLACK
6
CONTINUOUS
10
9.66888
20
-2.9564
11
9.6778
21
-2.94803
0
LINE
8
BLACK
6
CONTINUOUS
10
9.6778
20
-2.94803
11
9.6877
21
-2.94083
0
LINE
8
BLACK
6
CONTINUOUS
10
9.6877
20
-2.94083
11
9.69842
21
-2.93494
0
LINE
8
BLACK
6
CONTINUOUS
10
9.69842
20
-2.93494
11
9.7098
21
-2.93043
0
LINE
8
BLACK
6
CONTINUOUS
10
9.7098
20
-2.93043
11
9.72165
21
-2.92739
0
LINE
8
BLACK
6
CONTINUOUS
10
9.72165
20
-2.92739
11
9.73379
21
-2.92586
0
LINE
8
BLACK
6
CONTINUOUS
10
9.73379
20
-2.92586
11
9.74603
21
-2.92586
0
LINE
8
BLACK
6
CONTINUOUS
10
9.74603
20
-2.92586
11
9.75817
21
-2.92739
0
LINE
8
BLACK
6
CONTINUOUS
10
9.75817
20
-2.92739
11
9.77002
21
-2.93043
0
LINE
8
BLACK
6
CONTINUOUS
10
9.77002
20
-2.93043
11
9.7814
21
-2.93494
0
LINE
8
BLACK
6
CONTINUOUS
10
9.7814
20
-2.93494
11
9.79212
21
-2.94083
0
LINE
8
BLACK
6
CONTINUOUS
10
9.79212
20
-2.94083
11
9.80202
21
-2.94803
0
LINE
8
BLACK
6
CONTINUOUS
10
9.80202
20
-2.94803
11
9.81094
21
-2.9564
0
LINE
8
BLACK
6
CONTINUOUS
10
9.81094
20
-2.9564
11
9.81874
21
-2.96583
0
LINE
8
BLACK
6
CONTINUOUS
10
9.81874
20
-2.96583
11
9.8253
21
-2.97616
0
LINE
8
BLACK
6
CONTINUOUS
10
9.8253
20
-2.97616
11
9.83051
21
-2.98723
0
LINE
8
BLACK
6
CONTINUOUS
10
9.83051
20
-2.98723
11
9.83429
21
-2.99887
0
LINE
8
BLACK
6
CONTINUOUS
10
9.83429
20
-2.99887
11
9.83658
21
-3.01089
0
LINE
8
BLACK
6
CONTINUOUS
10
9.83658
20
-3.01089
11
9.83735
21
-3.02311
0
LINE
8
BLACK
6
CONTINUOUS
10
9.83735
20
-3.02311
11
9.83658
21
-3.03532
0
LINE
8
BLACK
6
CONTINUOUS
10
9.83658
20
-3.03532
11
9.83429
21
-3.04734
0
LINE
8
BLACK
6
CONTINUOUS
10
9.83429
20
-3.04734
11
9.83051
21
-3.05898
0
LINE
8
BLACK
6
CONTINUOUS
10
9.83051
20
-3.05898
11
9.8253
21
-3.07005
0
LINE
8
BLACK
6
CONTINUOUS
10
9.8253
20
-3.07005
11
9.81874
21
-3.08038
0
LINE
8
BLACK
6
CONTINUOUS
10
9.81874
20
-3.08038
11
9.81094
21
-3.08981
0
LINE
8
BLACK
6
CONTINUOUS
10
9.81094
20
-3.08981
11
9.80202
21
-3.09818
0
LINE
8
BLACK
6
CONTINUOUS
10
9.80202
20
-3.09818
11
9.79212
21
-3.10538
0
LINE
8
BLACK
6
CONTINUOUS
10
9.79212
20
-3.10538
11
9.7814
21
-3.11127
0
LINE
8
BLACK
6
CONTINUOUS
10
9.7814
20
-3.11127
11
9.77002
21
-3.11578
0
LINE
8
BLACK
6
CONTINUOUS
10
9.77002
20
-3.11578
11
9.75817
21
-3.11882
0
LINE
8
BLACK
6
CONTINUOUS
10
9.75817
20
-3.11882
11
9.74603
21
-3.12035
0
LINE
8
BLACK
6
CONTINUOUS
10
9.74603
20
-3.12035
11
9.73379
21
-3.12035
0
LINE
8
BLACK
6
CONTINUOUS
10
9.73379
20
-3.12035
11
9.72165
21
-3.11882
0
LINE
8
BLACK
6
CONTINUOUS
10
9.72165
20
-3.11882
11
9.7098
21
-3.11578
0
LINE
8
BLACK
6
CONTINUOUS
10
9.7098
20
-3.11578
11
9.69842
21
-3.11127
0
LINE
8
BLACK
6
CONTINUOUS
10
9.69842
20
-3.11127
11
9.6877
21
-3.10538
0
LINE
8
BLACK
6
CONTINUOUS
10
9.6877
20
-3.10538
11
9.6778
21
-3.09818
0
LINE
8
BLACK
6
CONTINUOUS
10
9.6778
20
-3.09818
11
9.66888
21
-3.08981
0
LINE
8
BLACK
6
CONTINUOUS
10
9.66888
20
-3.08981
11
9.66108
21
-3.08038
0
LINE
8
BLACK
6
CONTINUOUS
10
9.66108
20
-3.08038
11
9.65452
21
-3.07005
0
LINE
8
BLACK
6
CONTINUOUS
10
9.65452
20
-3.07005
11
9.64931
21
-3.05898
0
LINE
8
BLACK
6
CONTINUOUS
10
9.64931
20
-3.05898
11
9.64553
21
-3.04734
0
LINE
8
BLACK
6
CONTINUOUS
10
9.64553
20
-3.04734
11
9.64324
21
-3.03532
0
LINE
8
BLACK
6
CONTINUOUS
10
9.64324
20
-3.03532
11
9.64247
21
-3.02311
0
LINE
8
BLACK
6
CONTINUOUS
10
9.64247
20
-3.02311
11
9.64324
21
-3.01089
0
LINE
8
BLACK
6
CONTINUOUS
10
9.64324
20
-3.01089
11
9.64553
21
-2.99887
0
LINE
8
BLACK
6
CONTINUOUS
10
9.64726
20
-3.0469
11
9.65097
21
-3.05832
0
LINE
8
BLACK
6
CONTINUOUS
10
9.65097
20
-3.05832
11
9.65608
21
-3.06919
0
LINE
8
BLACK
6
CONTINUOUS
10
9.65608
20
-3.06919
11
9.66252
21
-3.07933
0
LINE
8
BLACK
6
CONTINUOUS
10
9.66252
20
-3.07933
11
9.67018
21
-3.08859
0
LINE
8
BLACK
6
CONTINUOUS
10
9.67018
20
-3.08859
11
9.67893
21
-3.09681
0
LINE
8
BLACK
6
CONTINUOUS
10
9.67893
20
-3.09681
11
9.68865
21
-3.10387
0
LINE
8
BLACK
6
CONTINUOUS
10
9.68865
20
-3.10387
11
9.69918
21
-3.10966
0
LINE
8
BLACK
6
CONTINUOUS
10
9.69918
20
-3.10966
11
9.71035
21
-3.11408
0
LINE
8
BLACK
6
CONTINUOUS
10
9.71035
20
-3.11408
11
9.72199
21
-3.11707
0
LINE
8
BLACK
6
CONTINUOUS
10
9.72199
20
-3.11707
11
9.7339
21
-3.11858
0
LINE
8
BLACK
6
CONTINUOUS
10
9.7339
20
-3.11858
11
9.74592
21
-3.11858
0
LINE
8
BLACK
6
CONTINUOUS
10
9.74592
20
-3.11858
11
9.75784
21
-3.11707
0
LINE
8
BLACK
6
CONTINUOUS
10
9.75784
20
-3.11707
11
9.76947
21
-3.11408
0
LINE
8
BLACK
6
CONTINUOUS
10
9.76947
20
-3.11408
11
9.78064
21
-3.10966
0
LINE
8
BLACK
6
CONTINUOUS
10
9.78064
20
-3.10966
11
9.79117
21
-3.10387
0
LINE
8
BLACK
6
CONTINUOUS
10
9.79117
20
-3.10387
11
9.80089
21
-3.09681
0
LINE
8
BLACK
6
CONTINUOUS
10
9.80089
20
-3.09681
11
9.80965
21
-3.08859
0
LINE
8
BLACK
6
CONTINUOUS
10
9.80965
20
-3.08859
11
9.8173
21
-3.07933
0
LINE
8
BLACK
6
CONTINUOUS
10
9.8173
20
-3.07933
11
9.82374
21
-3.06919
0
LINE
8
BLACK
6
CONTINUOUS
10
9.82374
20
-3.06919
11
9.82885
21
-3.05832
0
LINE
8
BLACK
6
CONTINUOUS
10
9.82885
20
-3.05832
11
9.83257
21
-3.0469
0
LINE
8
BLACK
6
CONTINUOUS
10
9.83257
20
-3.0469
11
9.83482
21
-3.03509
0
LINE
8
BLACK
6
CONTINUOUS
10
9.83482
20
-3.03509
11
9.83557
21
-3.02311
0
LINE
8
BLACK
6
CONTINUOUS
10
9.83557
20
-3.02311
11
9.83482
21
-3.01112
0
LINE
8
BLACK
6
CONTINUOUS
10
9.83482
20
-3.01112
11
9.83257
21
-2.99932
0
LINE
8
BLACK
6
CONTINUOUS
10
9.83257
20
-2.99932
11
9.82885
21
-2.98789
0
LINE
8
BLACK
6
CONTINUOUS
10
9.82885
20
-2.98789
11
9.82374
21
-2.97702
0
LINE
8
BLACK
6
CONTINUOUS
10
9.82374
20
-2.97702
11
9.8173
21
-2.96688
0
LINE
8
BLACK
6
CONTINUOUS
10
9.8173
20
-2.96688
11
9.80965
21
-2.95762
0
LINE
8
BLACK
6
CONTINUOUS
10
9.80965
20
-2.95762
11
9.80089
21
-2.9494
0
LINE
8
BLACK
6
CONTINUOUS
10
9.80089
20
-2.9494
11
9.79117
21
-2.94234
0
LINE
8
BLACK
6
CONTINUOUS
10
9.79117
20
-2.94234
11
9.78064
21
-2.93655
0
LINE
8
BLACK
6
CONTINUOUS
10
9.78064
20
-2.93655
11
9.76947
21
-2.93213
0
LINE
8
BLACK
6
CONTINUOUS
10
9.76947
20
-2.93213
11
9.75784
21
-2.92914
0
LINE
8
BLACK
6
CONTINUOUS
10
9.75784
20
-2.92914
11
9.74592
21
-2.92763
0
LINE
8
BLACK
6
CONTINUOUS
10
9.74592
20
-2.92763
11
9.7339
21
-2.92763
0
LINE
8
BLACK
6
CONTINUOUS
10
9.7339
20
-2.92763
11
9.72199
21
-2.92914
0
LINE
8
BLACK
6
CONTINUOUS
10
9.72199
20
-2.92914
11
9.71035
21
-2.93213
0
LINE
8
BLACK
6
CONTINUOUS
10
9.71035
20
-2.93213
11
9.69918
21
-2.93655
0
LINE
8
BLACK
6
CONTINUOUS
10
9.69918
20
-2.93655
11
9.68865
21
-2.94234
0
LINE
8
BLACK
6
CONTINUOUS
10
9.68865
20
-2.94234
11
9.67893
21
-2.9494
0
LINE
8
BLACK
6
CONTINUOUS
10
9.67893
20
-2.9494
11
9.67018
21
-2.95762
0
LINE
8
BLACK
6
CONTINUOUS
10
9.67018
20
-2.95762
11
9.66252
21
-2.96688
0
LINE
8
BLACK
6
CONTINUOUS
10
9.66252
20
-2.96688
11
9.65608
21
-2.97702
0
LINE
8
BLACK
6
CONTINUOUS
10
9.65608
20
-2.97702
11
9.65097
21
-2.98789
0
LINE
8
BLACK
6
CONTINUOUS
10
9.65097
20
-2.98789
11
9.64726
21
-2.99932
0
LINE
8
BLACK
6
CONTINUOUS
10
9.64726
20
-2.99932
11
9.645
21
-3.01112
0
LINE
8
BLACK
6
CONTINUOUS
10
9.645
20
-3.01112
11
9.64425
21
-3.02311
0
LINE
8
BLACK
6
CONTINUOUS
10
9.64425
20
-3.02311
11
9.645
21
-3.03509
0
LINE
8
BLACK
6
CONTINUOUS
10
9.645
20
-3.03509
11
9.64726
21
-3.0469
0
LINE
8
BLACK
6
CONTINUOUS
10
5.78726
20
-2.9595
11
5.79105
21
-2.94786
0
LINE
8
BLACK
6
CONTINUOUS
10
5.79105
20
-2.94786
11
5.79626
21
-2.93679
0
LINE
8
BLACK
6
CONTINUOUS
10
5.79626
20
-2.93679
11
5.80281
21
-2.92646
0
LINE
8
BLACK
6
CONTINUOUS
10
5.80281
20
-2.92646
11
5.81061
21
-2.91703
0
LINE
8
BLACK
6
CONTINUOUS
10
5.81061
20
-2.91703
11
5.81953
21
-2.90866
0
LINE
8
BLACK
6
CONTINUOUS
10
5.81953
20
-2.90866
11
5.82943
21
-2.90146
0
LINE
8
BLACK
6
CONTINUOUS
10
5.82943
20
-2.90146
11
5.84016
21
-2.89557
0
LINE
8
BLACK
6
CONTINUOUS
10
5.84016
20
-2.89557
11
5.85153
21
-2.89106
0
LINE
8
BLACK
6
CONTINUOUS
10
5.85153
20
-2.89106
11
5.86339
21
-2.88802
0
LINE
8
BLACK
6
CONTINUOUS
10
5.86339
20
-2.88802
11
5.87553
21
-2.88649
0
LINE
8
BLACK
6
CONTINUOUS
10
5.87553
20
-2.88649
11
5.88776
21
-2.88649
0
LINE
8
BLACK
6
CONTINUOUS
10
5.88776
20
-2.88649
11
5.8999
21
-2.88802
0
LINE
8
BLACK
6
CONTINUOUS
10
5.8999
20
-2.88802
11
5.91175
21
-2.89106
0
LINE
8
BLACK
6
CONTINUOUS
10
5.91175
20
-2.89106
11
5.92313
21
-2.89557
0
LINE
8
BLACK
6
CONTINUOUS
10
5.92313
20
-2.89557
11
5.93386
21
-2.90146
0
LINE
8
BLACK
6
CONTINUOUS
10
5.93386
20
-2.90146
11
5.94375
21
-2.90866
0
LINE
8
BLACK
6
CONTINUOUS
10
5.94375
20
-2.90866
11
5.95268
21
-2.91703
0
LINE
8
BLACK
6
CONTINUOUS
10
5.95268
20
-2.91703
11
5.96048
21
-2.92646
0
LINE
8
BLACK
6
CONTINUOUS
10
5.96048
20
-2.92646
11
5.96703
21
-2.93679
0
LINE
8
BLACK
6
CONTINUOUS
10
5.96703
20
-2.93679
11
5.97224
21
-2.94786
0
LINE
8
BLACK
6
CONTINUOUS
10
5.97224
20
-2.94786
11
5.97602
21
-2.9595
0
LINE
8
BLACK
6
CONTINUOUS
10
5.97602
20
-2.9595
11
5.97832
21
-2.97152
0
LINE
8
BLACK
6
CONTINUOUS
10
5.97832
20
-2.97152
11
5.97908
21
-2.98374
0
LINE
8
BLACK
6
CONTINUOUS
10
5.97908
20
-2.98374
11
5.97832
21
-2.99595
0
LINE
8
BLACK
6
CONTINUOUS
10
5.97832
20
-2.99595
11
5.97602
21
-3.00797
0
LINE
8
BLACK
6
CONTINUOUS
10
5.97602
20
-3.00797
11
5.97224
21
-3.01961
0
LINE
8
BLACK
6
CONTINUOUS
10
5.97224
20
-3.01961
11
5.96703
21
-3.03068
0
LINE
8
BLACK
6
CONTINUOUS
10
5.96703
20
-3.03068
11
5.96048
21
-3.04101
0
LINE
8
BLACK
6
CONTINUOUS
10
5.96048
20
-3.04101
11
5.95268
21
-3.05044
0
LINE
8
BLACK
6
CONTINUOUS
10
5.95268
20
-3.05044
11
5.94375
21
-3.05881
0
LINE
8
BLACK
6
CONTINUOUS
10
5.94375
20
-3.05881
11
5.93386
21
-3.06601
0
LINE
8
BLACK
6
CONTINUOUS
10
5.93386
20
-3.06601
11
5.92313
21
-3.0719
0
LINE
8
BLACK
6
CONTINUOUS
10
5.92313
20
-3.0719
11
5.91175
21
-3.07641
0
LINE
8
BLACK
6
CONTINUOUS
10
5.91175
20
-3.07641
11
5.8999
21
-3.07945
0
LINE
8
BLACK
6
CONTINUOUS
10
5.8999
20
-3.07945
11
5.88776
21
-3.08098
0
LINE
8
BLACK
6
CONTINUOUS
10
5.88776
20
-3.08098
11
5.87553
21
-3.08098
0
LINE
8
BLACK
6
CONTINUOUS
10
5.87553
20
-3.08098
11
5.86339
21
-3.07945
0
LINE
8
BLACK
6
CONTINUOUS
10
5.86339
20
-3.07945
11
5.85153
21
-3.07641
0
LINE
8
BLACK
6
CONTINUOUS
10
5.85153
20
-3.07641
11
5.84016
21
-3.0719
0
LINE
8
BLACK
6
CONTINUOUS
10
5.84016
20
-3.0719
11
5.82943
21
-3.06601
0
LINE
8
BLACK
6
CONTINUOUS
10
5.82943
20
-3.06601
11
5.81953
21
-3.05881
0
LINE
8
BLACK
6
CONTINUOUS
10
5.81953
20
-3.05881
11
5.81061
21
-3.05044
0
LINE
8
BLACK
6
CONTINUOUS
10
5.81061
20
-3.05044
11
5.80281
21
-3.04101
0
LINE
8
BLACK
6
CONTINUOUS
10
5.80281
20
-3.04101
11
5.79626
21
-3.03068
0
LINE
8
BLACK
6
CONTINUOUS
10
5.79626
20
-3.03068
11
5.79105
21
-3.01961
0
LINE
8
BLACK
6
CONTINUOUS
10
5.79105
20
-3.01961
11
5.78726
21
-3.00797
0
LINE
8
BLACK
6
CONTINUOUS
10
5.78726
20
-3.00797
11
5.78497
21
-2.99595
0
LINE
8
BLACK
6
CONTINUOUS
10
5.78497
20
-2.99595
11
5.7842
21
-2.98374
0
LINE
8
BLACK
6
CONTINUOUS
10
5.7842
20
-2.98374
11
5.78497
21
-2.97152
0
LINE
8
BLACK
6
CONTINUOUS
10
5.78497
20
-2.97152
11
5.78726
21
-2.9595
0
LINE
8
BLACK
6
CONTINUOUS
10
5.78899
20
-3.00753
11
5.7927
21
-3.01895
0
LINE
8
BLACK
6
CONTINUOUS
10
5.7927
20
-3.01895
11
5.79782
21
-3.02982
0
LINE
8
BLACK
6
CONTINUOUS
10
5.79782
20
-3.02982
11
5.80425
21
-3.03996
0
LINE
8
BLACK
6
CONTINUOUS
10
5.80425
20
-3.03996
11
5.81191
21
-3.04922
0
LINE
8
BLACK
6
CONTINUOUS
10
5.81191
20
-3.04922
11
5.82067
21
-3.05744
0
LINE
8
BLACK
6
CONTINUOUS
10
5.82067
20
-3.05744
11
5.83039
21
-3.0645
0
LINE
8
BLACK
6
CONTINUOUS
10
5.83039
20
-3.0645
11
5.84091
21
-3.07029
0
LINE
8
BLACK
6
CONTINUOUS
10
5.84091
20
-3.07029
11
5.85208
21
-3.07471
0
LINE
8
BLACK
6
CONTINUOUS
10
5.85208
20
-3.07471
11
5.86372
21
-3.0777
0
LINE
8
BLACK
6
CONTINUOUS
10
5.86372
20
-3.0777
11
5.87564
21
-3.07921
0
LINE
8
BLACK
6
CONTINUOUS
10
5.87564
20
-3.07921
11
5.88765
21
-3.07921
0
LINE
8
BLACK
6
CONTINUOUS
10
5.88765
20
-3.07921
11
5.89957
21
-3.0777
0
LINE
8
BLACK
6
CONTINUOUS
10
5.89957
20
-3.0777
11
5.9112
21
-3.07471
0
LINE
8
BLACK
6
CONTINUOUS
10
5.9112
20
-3.07471
11
5.92237
21
-3.07029
0
LINE
8
BLACK
6
CONTINUOUS
10
5.92237
20
-3.07029
11
5.9329
21
-3.0645
0
LINE
8
BLACK
6
CONTINUOUS
10
5.9329
20
-3.0645
11
5.94262
21
-3.05744
0
LINE
8
BLACK
6
CONTINUOUS
10
5.94262
20
-3.05744
11
5.95138
21
-3.04922
0
LINE
8
BLACK
6
CONTINUOUS
10
5.95138
20
-3.04922
11
5.95904
21
-3.03996
0
LINE
8
BLACK
6
CONTINUOUS
10
5.95904
20
-3.03996
11
5.96547
21
-3.02982
0
LINE
8
BLACK
6
CONTINUOUS
10
5.96547
20
-3.02982
11
5.97059
21
-3.01895
0
LINE
8
BLACK
6
CONTINUOUS
10
5.97059
20
-3.01895
11
5.9743
21
-3.00753
0
LINE
8
BLACK
6
CONTINUOUS
10
5.9743
20
-3.00753
11
5.97655
21
-2.99572
0
LINE
8
BLACK
6
CONTINUOUS
10
5.97655
20
-2.99572
11
5.9773
21
-2.98374
0
LINE
8
BLACK
6
CONTINUOUS
10
5.9773
20
-2.98374
11
5.97655
21
-2.97175
0
LINE
8
BLACK
6
CONTINUOUS
10
5.97655
20
-2.97175
11
5.9743
21
-2.95995
0
LINE
8
BLACK
6
CONTINUOUS
10
5.9743
20
-2.95995
11
5.97059
21
-2.94852
0
LINE
8
BLACK
6
CONTINUOUS
10
5.97059
20
-2.94852
11
5.96547
21
-2.93765
0
LINE
8
BLACK
6
CONTINUOUS
10
5.96547
20
-2.93765
11
5.95904
21
-2.92751
0
LINE
8
BLACK
6
CONTINUOUS
10
5.95904
20
-2.92751
11
5.95138
21
-2.91825
0
LINE
8
BLACK
6
CONTINUOUS
10
5.95138
20
-2.91825
11
5.94262
21
-2.91003
0
LINE
8
BLACK
6
CONTINUOUS
10
5.94262
20
-2.91003
11
5.9329
21
-2.90297
0
LINE
8
BLACK
6
CONTINUOUS
10
5.9329
20
-2.90297
11
5.92237
21
-2.89718
0
LINE
8
BLACK
6
CONTINUOUS
10
5.92237
20
-2.89718
11
5.9112
21
-2.89276
0
LINE
8
BLACK
6
CONTINUOUS
10
5.9112
20
-2.89276
11
5.89957
21
-2.88977
0
LINE
8
BLACK
6
CONTINUOUS
10
5.89957
20
-2.88977
11
5.88765
21
-2.88826
0
LINE
8
BLACK
6
CONTINUOUS
10
5.88765
20
-2.88826
11
5.87564
21
-2.88826
0
LINE
8
BLACK
6
CONTINUOUS
10
5.87564
20
-2.88826
11
5.86372
21
-2.88977
0
LINE
8
BLACK
6
CONTINUOUS
10
5.86372
20
-2.88977
11
5.85208
21
-2.89276
0
LINE
8
BLACK
6
CONTINUOUS
10
5.85208
20
-2.89276
11
5.84091
21
-2.89718
0
LINE
8
BLACK
6
CONTINUOUS
10
5.84091
20
-2.89718
11
5.83039
21
-2.90297
0
LINE
8
BLACK
6
CONTINUOUS
10
5.83039
20
-2.90297
11
5.82067
21
-2.91003
0
LINE
8
BLACK
6
CONTINUOUS
10
5.82067
20
-2.91003
11
5.81191
21
-2.91825
0
LINE
8
BLACK
6
CONTINUOUS
10
5.81191
20
-2.91825
11
5.80425
21
-2.92751
0
LINE
8
BLACK
6
CONTINUOUS
10
5.80425
20
-2.92751
11
5.79782
21
-2.93765
0
LINE
8
BLACK
6
CONTINUOUS
10
5.79782
20
-2.93765
11
5.7927
21
-2.94852
0
LINE
8
BLACK
6
CONTINUOUS
10
5.7927
20
-2.94852
11
5.78899
21
-2.95995
0
LINE
8
BLACK
6
CONTINUOUS
10
5.78899
20
-2.95995
11
5.78674
21
-2.97175
0
LINE
8
BLACK
6
CONTINUOUS
10
5.78674
20
-2.97175
11
5.78598
21
-2.98374
0
LINE
8
BLACK
6
CONTINUOUS
10
5.78598
20
-2.98374
11
5.78674
21
-2.99572
0
LINE
8
BLACK
6
CONTINUOUS
10
5.78674
20
-2.99572
11
5.78899
21
-3.00753
0
LINE
8
BLACK
6
CONTINUOUS
10
6.10222
20
-2.9595
11
6.10601
21
-2.94786
0
LINE
8
BLACK
6
CONTINUOUS
10
6.10601
20
-2.94786
11
6.11122
21
-2.93679
0
LINE
8
BLACK
6
CONTINUOUS
10
6.11122
20
-2.93679
11
6.11777
21
-2.92646
0
LINE
8
BLACK
6
CONTINUOUS
10
6.11777
20
-2.92646
11
6.12557
21
-2.91703
0
LINE
8
BLACK
6
CONTINUOUS
10
6.12557
20
-2.91703
11
6.13449
21
-2.90866
0
LINE
8
BLACK
6
CONTINUOUS
10
6.13449
20
-2.90866
11
6.14439
21
-2.90146
0
LINE
8
BLACK
6
CONTINUOUS
10
6.14439
20
-2.90146
11
6.15512
21
-2.89557
0
LINE
8
BLACK
6
CONTINUOUS
10
6.15512
20
-2.89557
11
6.16649
21
-2.89106
0
LINE
8
BLACK
6
CONTINUOUS
10
6.16649
20
-2.89106
11
6.17835
21
-2.88802
0
LINE
8
BLACK
6
CONTINUOUS
10
6.17835
20
-2.88802
11
6.19049
21
-2.88649
0
LINE
8
BLACK
6
CONTINUOUS
10
6.19049
20
-2.88649
11
6.20272
21
-2.88649
0
LINE
8
BLACK
6
CONTINUOUS
10
6.20272
20
-2.88649
11
6.21486
21
-2.88802
0
LINE
8
BLACK
6
CONTINUOUS
10
6.21486
20
-2.88802
11
6.22672
21
-2.89106
0
LINE
8
BLACK
6
CONTINUOUS
10
6.22672
20
-2.89106
11
6.23809
21
-2.89557
0
LINE
8
BLACK
6
CONTINUOUS
10
6.23809
20
-2.89557
11
6.24882
21
-2.90146
0
LINE
8
BLACK
6
CONTINUOUS
10
6.24882
20
-2.90146
11
6.25872
21
-2.90866
0
LINE
8
BLACK
6
CONTINUOUS
10
6.25872
20
-2.90866
11
6.26764
21
-2.91703
0
LINE
8
BLACK
6
CONTINUOUS
10
6.26764
20
-2.91703
11
6.27544
21
-2.92646
0
LINE
8
BLACK
6
CONTINUOUS
10
6.27544
20
-2.92646
11
6.28199
21
-2.93679
0
LINE
8
BLACK
6
CONTINUOUS
10
6.28199
20
-2.93679
11
6.2872
21
-2.94786
0
LINE
8
BLACK
6
CONTINUOUS
10
6.2872
20
-2.94786
11
6.29098
21
-2.9595
0
LINE
8
BLACK
6
CONTINUOUS
10
6.29098
20
-2.9595
11
6.29328
21
-2.97152
0
LINE
8
BLACK
6
CONTINUOUS
10
6.29328
20
-2.97152
11
6.29405
21
-2.98374
0
LINE
8
BLACK
6
CONTINUOUS
10
6.29405
20
-2.98374
11
6.29328
21
-2.99595
0
LINE
8
BLACK
6
CONTINUOUS
10
6.29328
20
-2.99595
11
6.29098
21
-3.00797
0
LINE
8
BLACK
6
CONTINUOUS
10
6.29098
20
-3.00797
11
6.2872
21
-3.01961
0
LINE
8
BLACK
6
CONTINUOUS
10
6.2872
20
-3.01961
11
6.28199
21
-3.03068
0
LINE
8
BLACK
6
CONTINUOUS
10
6.28199
20
-3.03068
11
6.27544
21
-3.04101
0
LINE
8
BLACK
6
CONTINUOUS
10
6.27544
20
-3.04101
11
6.26764
21
-3.05044
0
LINE
8
BLACK
6
CONTINUOUS
10
6.26764
20
-3.05044
11
6.25872
21
-3.05881
0
LINE
8
BLACK
6
CONTINUOUS
10
6.25872
20
-3.05881
11
6.24882
21
-3.06601
0
LINE
8
BLACK
6
CONTINUOUS
10
6.24882
20
-3.06601
11
6.23809
21
-3.0719
0
LINE
8
BLACK
6
CONTINUOUS
10
6.23809
20
-3.0719
11
6.22672
21
-3.07641
0
LINE
8
BLACK
6
CONTINUOUS
10
6.22672
20
-3.07641
11
6.21486
21
-3.07945
0
LINE
8
BLACK
6
CONTINUOUS
10
6.21486
20
-3.07945
11
6.20272
21
-3.08098
0
LINE
8
BLACK
6
CONTINUOUS
10
6.20272
20
-3.08098
11
6.19049
21
-3.08098
0
LINE
8
BLACK
6
CONTINUOUS
10
6.19049
20
-3.08098
11
6.17835
21
-3.07945
0
LINE
8
BLACK
6
CONTINUOUS
10
6.17835
20
-3.07945
11
6.16649
21
-3.07641
0
LINE
8
BLACK
6
CONTINUOUS
10
6.16649
20
-3.07641
11
6.15512
21
-3.0719
0
LINE
8
BLACK
6
CONTINUOUS
10
6.15512
20
-3.0719
11
6.14439
21
-3.06601
0
LINE
8
BLACK
6
CONTINUOUS
10
6.14439
20
-3.06601
11
6.13449
21
-3.05881
0
LINE
8
BLACK
6
CONTINUOUS
10
6.13449
20
-3.05881
11
6.12557
21
-3.05044
0
LINE
8
BLACK
6
CONTINUOUS
10
6.12557
20
-3.05044
11
6.11777
21
-3.04101
0
LINE
8
BLACK
6
CONTINUOUS
10
6.11777
20
-3.04101
11
6.11122
21
-3.03068
0
LINE
8
BLACK
6
CONTINUOUS
10
6.11122
20
-3.03068
11
6.10601
21
-3.01961
0
LINE
8
BLACK
6
CONTINUOUS
10
6.10601
20
-3.01961
11
6.10222
21
-3.00797
0
LINE
8
BLACK
6
CONTINUOUS
10
6.10222
20
-3.00797
11
6.09993
21
-2.99595
0
LINE
8
BLACK
6
CONTINUOUS
10
6.09993
20
-2.99595
11
6.09916
21
-2.98374
0
LINE
8
BLACK
6
CONTINUOUS
10
6.09916
20
-2.98374
11
6.09993
21
-2.97152
0
LINE
8
BLACK
6
CONTINUOUS
10
6.09993
20
-2.97152
11
6.10222
21
-2.9595
0
LINE
8
BLACK
6
CONTINUOUS
10
6.10395
20
-3.00753
11
6.10766
21
-3.01895
0
LINE
8
BLACK
6
CONTINUOUS
10
6.10766
20
-3.01895
11
6.11278
21
-3.02982
0
LINE
8
BLACK
6
CONTINUOUS
10
6.11278
20
-3.02982
11
6.11921
21
-3.03996
0
LINE
8
BLACK
6
CONTINUOUS
10
6.11921
20
-3.03996
11
6.12687
21
-3.04922
0
LINE
8
BLACK
6
CONTINUOUS
10
6.12687
20
-3.04922
11
6.13563
21
-3.05744
0
LINE
8
BLACK
6
CONTINUOUS
10
6.13563
20
-3.05744
11
6.14535
21
-3.0645
0
LINE
8
BLACK
6
CONTINUOUS
10
6.14535
20
-3.0645
11
6.15587
21
-3.07029
0
LINE
8
BLACK
6
CONTINUOUS
10
6.15587
20
-3.07029
11
6.16704
21
-3.07471
0
LINE
8
BLACK
6
CONTINUOUS
10
6.16704
20
-3.07471
11
6.17868
21
-3.0777
0
LINE
8
BLACK
6
CONTINUOUS
10
6.17868
20
-3.0777
11
6.1906
21
-3.07921
0
LINE
8
BLACK
6
CONTINUOUS
10
6.1906
20
-3.07921
11
6.20261
21
-3.07921
0
LINE
8
BLACK
6
CONTINUOUS
10
6.20261
20
-3.07921
11
6.21453
21
-3.0777
0
LINE
8
BLACK
6
CONTINUOUS
10
6.21453
20
-3.0777
11
6.22617
21
-3.07471
0
LINE
8
BLACK
6
CONTINUOUS
10
6.22617
20
-3.07471
11
6.23733
21
-3.07029
0
LINE
8
BLACK
6
CONTINUOUS
10
6.23733
20
-3.07029
11
6.24786
21
-3.0645
0
LINE
8
BLACK
6
CONTINUOUS
10
6.24786
20
-3.0645
11
6.25758
21
-3.05744
0
LINE
8
BLACK
6
CONTINUOUS
10
6.25758
20
-3.05744
11
6.26634
21
-3.04922
0
LINE
8
BLACK
6
CONTINUOUS
10
6.26634
20
-3.04922
11
6.274
21
-3.03996
0
LINE
8
BLACK
6
CONTINUOUS
10
6.274
20
-3.03996
11
6.28043
21
-3.02982
0
LINE
8
BLACK
6
CONTINUOUS
10
6.28043
20
-3.02982
11
6.28555
21
-3.01895
0
LINE
8
BLACK
6
CONTINUOUS
10
6.28555
20
-3.01895
11
6.28926
21
-3.00753
0
LINE
8
BLACK
6
CONTINUOUS
10
6.28926
20
-3.00753
11
6.29151
21
-2.99572
0
LINE
8
BLACK
6
CONTINUOUS
10
6.29151
20
-2.99572
11
6.29227
21
-2.98374
0
LINE
8
BLACK
6
CONTINUOUS
10
6.29227
20
-2.98374
11
6.29151
21
-2.97175
0
LINE
8
BLACK
6
CONTINUOUS
10
6.29151
20
-2.97175
11
6.28926
21
-2.95995
0
LINE
8
BLACK
6
CONTINUOUS
10
6.28926
20
-2.95995
11
6.28555
21
-2.94852
0
LINE
8
BLACK
6
CONTINUOUS
10
6.28555
20
-2.94852
11
6.28043
21
-2.93765
0
LINE
8
BLACK
6
CONTINUOUS
10
6.28043
20
-2.93765
11
6.274
21
-2.92751
0
LINE
8
BLACK
6
CONTINUOUS
10
6.274
20
-2.92751
11
6.26634
21
-2.91825
0
LINE
8
BLACK
6
CONTINUOUS
10
6.26634
20
-2.91825
11
6.25758
21
-2.91003
0
LINE
8
BLACK
6
CONTINUOUS
10
6.25758
20
-2.91003
11
6.24786
21
-2.90297
0
LINE
8
BLACK
6
CONTINUOUS
10
6.24786
20
-2.90297
11
6.23733
21
-2.89718
0
LINE
8
BLACK
6
CONTINUOUS
10
6.23733
20
-2.89718
11
6.22617
21
-2.89276
0
LINE
8
BLACK
6
CONTINUOUS
10
6.22617
20
-2.89276
11
6.21453
21
-2.88977
0
LINE
8
BLACK
6
CONTINUOUS
10
6.21453
20
-2.88977
11
6.20261
21
-2.88826
0
LINE
8
BLACK
6
CONTINUOUS
10
6.20261
20
-2.88826
11
6.1906
21
-2.88826
0
LINE
8
BLACK
6
CONTINUOUS
10
6.1906
20
-2.88826
11
6.17868
21
-2.88977
0
LINE
8
BLACK
6
CONTINUOUS
10
6.17868
20
-2.88977
11
6.16704
21
-2.89276
0
LINE
8
BLACK
6
CONTINUOUS
10
6.16704
20
-2.89276
11
6.15587
21
-2.89718
0
LINE
8
BLACK
6
CONTINUOUS
10
6.15587
20
-2.89718
11
6.14535
21
-2.90297
0
LINE
8
BLACK
6
CONTINUOUS
10
6.14535
20
-2.90297
11
6.13563
21
-2.91003
0
LINE
8
BLACK
6
CONTINUOUS
10
6.13563
20
-2.91003
11
6.12687
21
-2.91825
0
LINE
8
BLACK
6
CONTINUOUS
10
6.12687
20
-2.91825
11
6.11921
21
-2.92751
0
LINE
8
BLACK
6
CONTINUOUS
10
6.11921
20
-2.92751
11
6.11278
21
-2.93765
0
LINE
8
BLACK
6
CONTINUOUS
10
6.11278
20
-2.93765
11
6.10766
21
-2.94852
0
LINE
8
BLACK
6
CONTINUOUS
10
6.10766
20
-2.94852
11
6.10395
21
-2.95995
0
LINE
8
BLACK
6
CONTINUOUS
10
6.10395
20
-2.95995
11
6.1017
21
-2.97175
0
LINE
8
BLACK
6
CONTINUOUS
10
6.1017
20
-2.97175
11
6.10094
21
-2.98374
0
LINE
8
BLACK
6
CONTINUOUS
10
6.10094
20
-2.98374
11
6.1017
21
-2.99572
0
LINE
8
BLACK
6
CONTINUOUS
10
6.1017
20
-2.99572
11
6.10395
21
-3.00753
0
LINE
8
BLACK
6
CONTINUOUS
10
2.24396
20
-1.30596
11
2.24774
21
-1.29432
0
LINE
8
BLACK
6
CONTINUOUS
10
2.24774
20
-1.29432
11
2.25295
21
-1.28325
0
LINE
8
BLACK
6
CONTINUOUS
10
2.25295
20
-1.28325
11
2.25951
21
-1.27292
0
LINE
8
BLACK
6
CONTINUOUS
10
2.25951
20
-1.27292
11
2.26731
21
-1.26349
0
LINE
8
BLACK
6
CONTINUOUS
10
2.26731
20
-1.26349
11
2.27623
21
-1.25511
0
LINE
8
BLACK
6
CONTINUOUS
10
2.27623
20
-1.25511
11
2.28613
21
-1.24792
0
LINE
8
BLACK
6
CONTINUOUS
10
2.28613
20
-1.24792
11
2.29685
21
-1.24202
0
LINE
8
BLACK
6
CONTINUOUS
10
2.29685
20
-1.24202
11
2.30823
21
-1.23752
0
LINE
8
BLACK
6
CONTINUOUS
10
2.30823
20
-1.23752
11
2.32008
21
-1.23448
0
LINE
8
BLACK
6
CONTINUOUS
10
2.32008
20
-1.23448
11
2.33222
21
-1.23294
0
LINE
8
BLACK
6
CONTINUOUS
10
2.33222
20
-1.23294
11
2.34446
21
-1.23294
0
LINE
8
BLACK
6
CONTINUOUS
10
2.34446
20
-1.23294
11
2.3566
21
-1.23448
0
LINE
8
BLACK
6
CONTINUOUS
10
2.3566
20
-1.23448
11
2.36845
21
-1.23752
0
LINE
8
BLACK
6
CONTINUOUS
10
2.36845
20
-1.23752
11
2.37983
21
-1.24202
0
LINE
8
BLACK
6
CONTINUOUS
10
2.37983
20
-1.24202
11
2.39055
21
-1.24792
0
LINE
8
BLACK
6
CONTINUOUS
10
2.39055
20
-1.24792
11
2.40045
21
-1.25511
0
LINE
8
BLACK
6
CONTINUOUS
10
2.40045
20
-1.25511
11
2.40937
21
-1.26349
0
LINE
8
BLACK
6
CONTINUOUS
10
2.40937
20
-1.26349
11
2.41717
21
-1.27292
0
LINE
8
BLACK
6
CONTINUOUS
10
2.41717
20
-1.27292
11
2.42372
21
-1.28325
0
LINE
8
BLACK
6
CONTINUOUS
10
2.42372
20
-1.28325
11
2.42894
21
-1.29432
0
LINE
8
BLACK
6
CONTINUOUS
10
2.42894
20
-1.29432
11
2.43272
21
-1.30596
0
LINE
8
BLACK
6
CONTINUOUS
10
2.43272
20
-1.30596
11
2.43501
21
-1.31798
0
LINE
8
BLACK
6
CONTINUOUS
10
2.43501
20
-1.31798
11
2.43578
21
-1.33019
0
LINE
8
BLACK
6
CONTINUOUS
10
2.43578
20
-1.33019
11
2.43501
21
-1.3424
0
LINE
8
BLACK
6
CONTINUOUS
10
2.43501
20
-1.3424
11
2.43272
21
-1.35442
0
LINE
8
BLACK
6
CONTINUOUS
10
2.43272
20
-1.35442
11
2.42894
21
-1.36606
0
LINE
8
BLACK
6
CONTINUOUS
10
2.42894
20
-1.36606
11
2.42372
21
-1.37713
0
LINE
8
BLACK
6
CONTINUOUS
10
2.42372
20
-1.37713
11
2.41717
21
-1.38747
0
LINE
8
BLACK
6
CONTINUOUS
10
2.41717
20
-1.38747
11
2.40937
21
-1.39689
0
LINE
8
BLACK
6
CONTINUOUS
10
2.40937
20
-1.39689
11
2.40045
21
-1.40527
0
LINE
8
BLACK
6
CONTINUOUS
10
2.40045
20
-1.40527
11
2.39055
21
-1.41246
0
LINE
8
BLACK
6
CONTINUOUS
10
2.39055
20
-1.41246
11
2.37983
21
-1.41836
0
LINE
8
BLACK
6
CONTINUOUS
10
2.37983
20
-1.41836
11
2.36845
21
-1.42286
0
LINE
8
BLACK
6
CONTINUOUS
10
2.36845
20
-1.42286
11
2.3566
21
-1.42591
0
LINE
8
BLACK
6
CONTINUOUS
10
2.3566
20
-1.42591
11
2.34446
21
-1.42744
0
LINE
8
BLACK
6
CONTINUOUS
10
2.34446
20
-1.42744
11
2.33222
21
-1.42744
0
LINE
8
BLACK
6
CONTINUOUS
10
2.33222
20
-1.42744
11
2.32008
21
-1.42591
0
LINE
8
BLACK
6
CONTINUOUS
10
2.32008
20
-1.42591
11
2.30823
21
-1.42286
0
LINE
8
BLACK
6
CONTINUOUS
10
2.30823
20
-1.42286
11
2.29685
21
-1.41836
0
LINE
8
BLACK
6
CONTINUOUS
10
2.29685
20
-1.41836
11
2.28613
21
-1.41246
0
LINE
8
BLACK
6
CONTINUOUS
10
2.28613
20
-1.41246
11
2.27623
21
-1.40527
0
LINE
8
BLACK
6
CONTINUOUS
10
2.27623
20
-1.40527
11
2.26731
21
-1.39689
0
LINE
8
BLACK
6
CONTINUOUS
10
2.26731
20
-1.39689
11
2.25951
21
-1.38747
0
LINE
8
BLACK
6
CONTINUOUS
10
2.25951
20
-1.38747
11
2.25295
21
-1.37713
0
LINE
8
BLACK
6
CONTINUOUS
10
2.25295
20
-1.37713
11
2.24774
21
-1.36606
0
LINE
8
BLACK
6
CONTINUOUS
10
2.24774
20
-1.36606
11
2.24396
21
-1.35442
0
LINE
8
BLACK
6
CONTINUOUS
10
2.24396
20
-1.35442
11
2.24166
21
-1.3424
0
LINE
8
BLACK
6
CONTINUOUS
10
2.24166
20
-1.3424
11
2.2409
21
-1.33019
0
LINE
8
BLACK
6
CONTINUOUS
10
2.2409
20
-1.33019
11
2.24166
21
-1.31798
0
LINE
8
BLACK
6
CONTINUOUS
10
2.24166
20
-1.31798
11
2.24396
21
-1.30596
0
LINE
8
BLACK
6
CONTINUOUS
10
2.24568
20
-1.35398
11
2.24939
21
-1.36541
0
LINE
8
BLACK
6
CONTINUOUS
10
2.24939
20
-1.36541
11
2.25451
21
-1.37628
0
LINE
8
BLACK
6
CONTINUOUS
10
2.25451
20
-1.37628
11
2.26095
21
-1.38642
0
LINE
8
BLACK
6
CONTINUOUS
10
2.26095
20
-1.38642
11
2.2686
21
-1.39568
0
LINE
8
BLACK
6
CONTINUOUS
10
2.2686
20
-1.39568
11
2.27736
21
-1.4039
0
LINE
8
BLACK
6
CONTINUOUS
10
2.27736
20
-1.4039
11
2.28708
21
-1.41096
0
LINE
8
BLACK
6
CONTINUOUS
10
2.28708
20
-1.41096
11
2.29761
21
-1.41675
0
LINE
8
BLACK
6
CONTINUOUS
10
2.29761
20
-1.41675
11
2.30878
21
-1.42117
0
LINE
8
BLACK
6
CONTINUOUS
10
2.30878
20
-1.42117
11
2.32041
21
-1.42416
0
LINE
8
BLACK
6
CONTINUOUS
10
2.32041
20
-1.42416
11
2.33233
21
-1.42566
0
LINE
8
BLACK
6
CONTINUOUS
10
2.33233
20
-1.42566
11
2.34434
21
-1.42566
0
LINE
8
BLACK
6
CONTINUOUS
10
2.34434
20
-1.42566
11
2.35626
21
-1.42416
0
LINE
8
BLACK
6
CONTINUOUS
10
2.35626
20
-1.42416
11
2.3679
21
-1.42117
0
LINE
8
BLACK
6
CONTINUOUS
10
2.3679
20
-1.42117
11
2.37907
21
-1.41675
0
LINE
8
BLACK
6
CONTINUOUS
10
2.37907
20
-1.41675
11
2.38959
21
-1.41096
0
LINE
8
BLACK
6
CONTINUOUS
10
2.38959
20
-1.41096
11
2.39931
21
-1.4039
0
LINE
8
BLACK
6
CONTINUOUS
10
2.39931
20
-1.4039
11
2.40807
21
-1.39568
0
LINE
8
BLACK
6
CONTINUOUS
10
2.40807
20
-1.39568
11
2.41573
21
-1.38642
0
LINE
8
BLACK
6
CONTINUOUS
10
2.41573
20
-1.38642
11
2.42217
21
-1.37628
0
LINE
8
BLACK
6
CONTINUOUS
10
2.42217
20
-1.37628
11
2.42728
21
-1.36541
0
LINE
8
BLACK
6
CONTINUOUS
10
2.42728
20
-1.36541
11
2.43099
21
-1.35398
0
LINE
8
BLACK
6
CONTINUOUS
10
2.43099
20
-1.35398
11
2.43324
21
-1.34218
0
LINE
8
BLACK
6
CONTINUOUS
10
2.43324
20
-1.34218
11
2.434
21
-1.33019
0
LINE
8
BLACK
6
CONTINUOUS
10
2.434
20
-1.33019
11
2.43324
21
-1.3182
0
LINE
8
BLACK
6
CONTINUOUS
10
2.43324
20
-1.3182
11
2.43099
21
-1.3064
0
LINE
8
BLACK
6
CONTINUOUS
10
2.43099
20
-1.3064
11
2.42728
21
-1.29498
0
LINE
8
BLACK
6
CONTINUOUS
10
2.42728
20
-1.29498
11
2.42217
21
-1.28411
0
LINE
8
BLACK
6
CONTINUOUS
10
2.42217
20
-1.28411
11
2.41573
21
-1.27396
0
LINE
8
BLACK
6
CONTINUOUS
10
2.41573
20
-1.27396
11
2.40807
21
-1.26471
0
LINE
8
BLACK
6
CONTINUOUS
10
2.40807
20
-1.26471
11
2.39931
21
-1.25648
0
LINE
8
BLACK
6
CONTINUOUS
10
2.39931
20
-1.25648
11
2.38959
21
-1.24942
0
LINE
8
BLACK
6
CONTINUOUS
10
2.38959
20
-1.24942
11
2.37907
21
-1.24364
0
LINE
8
BLACK
6
CONTINUOUS
10
2.37907
20
-1.24364
11
2.3679
21
-1.23921
0
LINE
8
BLACK
6
CONTINUOUS
10
2.3679
20
-1.23921
11
2.35626
21
-1.23623
0
LINE
8
BLACK
6
CONTINUOUS
10
2.35626
20
-1.23623
11
2.34434
21
-1.23472
0
LINE
8
BLACK
6
CONTINUOUS
10
2.34434
20
-1.23472
11
2.33233
21
-1.23472
0
LINE
8
BLACK
6
CONTINUOUS
10
2.33233
20
-1.23472
11
2.32041
21
-1.23623
0
LINE
8
BLACK
6
CONTINUOUS
10
2.32041
20
-1.23623
11
2.30878
21
-1.23921
0
LINE
8
BLACK
6
CONTINUOUS
10
2.30878
20
-1.23921
11
2.29761
21
-1.24364
0
LINE
8
BLACK
6
CONTINUOUS
10
2.29761
20
-1.24364
11
2.28708
21
-1.24942
0
LINE
8
BLACK
6
CONTINUOUS
10
2.28708
20
-1.24942
11
2.27736
21
-1.25648
0
LINE
8
BLACK
6
CONTINUOUS
10
2.27736
20
-1.25648
11
2.2686
21
-1.26471
0
LINE
8
BLACK
6
CONTINUOUS
10
2.2686
20
-1.26471
11
2.26095
21
-1.27396
0
LINE
8
BLACK
6
CONTINUOUS
10
2.26095
20
-1.27396
11
2.25451
21
-1.28411
0
LINE
8
BLACK
6
CONTINUOUS
10
2.25451
20
-1.28411
11
2.24939
21
-1.29498
0
LINE
8
BLACK
6
CONTINUOUS
10
2.24939
20
-1.29498
11
2.24568
21
-1.3064
0
LINE
8
BLACK
6
CONTINUOUS
10
2.24568
20
-1.3064
11
2.24343
21
-1.3182
0
LINE
8
BLACK
6
CONTINUOUS
10
2.24343
20
-1.3182
11
2.24268
21
-1.33019
0
LINE
8
BLACK
6
CONTINUOUS
10
2.24268
20
-1.33019
11
2.24343
21
-1.34218
0
LINE
8
BLACK
6
CONTINUOUS
10
2.24343
20
-1.34218
11
2.24568
21
-1.35398
0
LINE
8
BLACK
6
CONTINUOUS
10
9.65214
20
-1.2992
11
9.65592
21
-1.28757
0
LINE
8
BLACK
6
CONTINUOUS
10
9.65592
20
-1.28757
11
9.66113
21
-1.27649
0
LINE
8
BLACK
6
CONTINUOUS
10
9.66113
20
-1.27649
11
9.66769
21
-1.26616
0
LINE
8
BLACK
6
CONTINUOUS
10
9.66769
20
-1.26616
11
9.67549
21
-1.25673
0
LINE
8
BLACK
6
CONTINUOUS
10
9.67549
20
-1.25673
11
9.68441
21
-1.24836
0
LINE
8
BLACK
6
CONTINUOUS
10
9.68441
20
-1.24836
11
9.69431
21
-1.24116
0
LINE
8
BLACK
6
CONTINUOUS
10
9.69431
20
-1.24116
11
9.70503
21
-1.23527
0
LINE
8
BLACK
6
CONTINUOUS
10
9.70503
20
-1.23527
11
9.71641
21
-1.23077
0
LINE
8
BLACK
6
CONTINUOUS
10
9.71641
20
-1.23077
11
9.72826
21
-1.22772
0
LINE
8
BLACK
6
CONTINUOUS
10
9.72826
20
-1.22772
11
9.7404
21
-1.22619
0
LINE
8
BLACK
6
CONTINUOUS
10
9.7404
20
-1.22619
11
9.75264
21
-1.22619
0
LINE
8
BLACK
6
CONTINUOUS
10
9.75264
20
-1.22619
11
9.76478
21
-1.22772
0
LINE
8
BLACK
6
CONTINUOUS
10
9.76478
20
-1.22772
11
9.77663
21
-1.23077
0
LINE
8
BLACK
6
CONTINUOUS
10
9.77663
20
-1.23077
11
9.78801
21
-1.23527
0
LINE
8
BLACK
6
CONTINUOUS
10
9.78801
20
-1.23527
11
9.79873
21
-1.24116
0
LINE
8
BLACK
6
CONTINUOUS
10
9.79873
20
-1.24116
11
9.80863
21
-1.24836
0
LINE
8
BLACK
6
CONTINUOUS
10
9.80863
20
-1.24836
11
9.81755
21
-1.25673
0
LINE
8
BLACK
6
CONTINUOUS
10
9.81755
20
-1.25673
11
9.82535
21
-1.26616
0
LINE
8
BLACK
6
CONTINUOUS
10
9.82535
20
-1.26616
11
9.83191
21
-1.27649
0
LINE
8
BLACK
6
CONTINUOUS
10
9.83191
20
-1.27649
11
9.83712
21
-1.28757
0
LINE
8
BLACK
6
CONTINUOUS
10
9.83712
20
-1.28757
11
9.8409
21
-1.2992
0
LINE
8
BLACK
6
CONTINUOUS
10
9.8409
20
-1.2992
11
9.84319
21
-1.31122
0
LINE
8
BLACK
6
CONTINUOUS
10
9.84319
20
-1.31122
11
9.84396
21
-1.32344
0
LINE
8
BLACK
6
CONTINUOUS
10
9.84396
20
-1.32344
11
9.84319
21
-1.33565
0
LINE
8
BLACK
6
CONTINUOUS
10
9.84319
20
-1.33565
11
9.8409
21
-1.34767
0
LINE
8
BLACK
6
CONTINUOUS
10
9.8409
20
-1.34767
11
9.83712
21
-1.35931
0
LINE
8
BLACK
6
CONTINUOUS
10
9.83712
20
-1.35931
11
9.83191
21
-1.37038
0
LINE
8
BLACK
6
CONTINUOUS
10
9.83191
20
-1.37038
11
9.82535
21
-1.38071
0
LINE
8
BLACK
6
CONTINUOUS
10
9.82535
20
-1.38071
11
9.81755
21
-1.39014
0
LINE
8
BLACK
6
CONTINUOUS
10
9.81755
20
-1.39014
11
9.80863
21
-1.39852
0
LINE
8
BLACK
6
CONTINUOUS
10
9.80863
20
-1.39852
11
9.79873
21
-1.40571
0
LINE
8
BLACK
6
CONTINUOUS
10
9.79873
20
-1.40571
11
9.78801
21
-1.4116
0
LINE
8
BLACK
6
CONTINUOUS
10
9.78801
20
-1.4116
11
9.77663
21
-1.41611
0
LINE
8
BLACK
6
CONTINUOUS
10
9.77663
20
-1.41611
11
9.76478
21
-1.41915
0
LINE
8
BLACK
6
CONTINUOUS
10
9.76478
20
-1.41915
11
9.75264
21
-1.42069
0
LINE
8
BLACK
6
CONTINUOUS
10
9.75264
20
-1.42069
11
9.7404
21
-1.42069
0
LINE
8
BLACK
6
CONTINUOUS
10
9.7404
20
-1.42069
11
9.72826
21
-1.41915
0
LINE
8
BLACK
6
CONTINUOUS
10
9.72826
20
-1.41915
11
9.71641
21
-1.41611
0
LINE
8
BLACK
6
CONTINUOUS
10
9.71641
20
-1.41611
11
9.70503
21
-1.4116
0
LINE
8
BLACK
6
CONTINUOUS
10
9.70503
20
-1.4116
11
9.69431
21
-1.40571
0
LINE
8
BLACK
6
CONTINUOUS
10
9.69431
20
-1.40571
11
9.68441
21
-1.39852
0
LINE
8
BLACK
6
CONTINUOUS
10
9.68441
20
-1.39852
11
9.67549
21
-1.39014
0
LINE
8
BLACK
6
CONTINUOUS
10
9.67549
20
-1.39014
11
9.66769
21
-1.38071
0
LINE
8
BLACK
6
CONTINUOUS
10
9.66769
20
-1.38071
11
9.66113
21
-1.37038
0
LINE
8
BLACK
6
CONTINUOUS
10
9.66113
20
-1.37038
11
9.65592
21
-1.35931
0
LINE
8
BLACK
6
CONTINUOUS
10
9.65592
20
-1.35931
11
9.65214
21
-1.34767
0
LINE
8
BLACK
6
CONTINUOUS
10
9.65214
20
-1.34767
11
9.64985
21
-1.33565
0
LINE
8
BLACK
6
CONTINUOUS
10
9.64985
20
-1.33565
11
9.64908
21
-1.32344
0
LINE
8
BLACK
6
CONTINUOUS
10
9.64908
20
-1.32344
11
9.64985
21
-1.31122
0
LINE
8
BLACK
6
CONTINUOUS
10
9.64985
20
-1.31122
11
9.65214
21
-1.2992
0
LINE
8
BLACK
6
CONTINUOUS
10
9.65387
20
-1.34723
11
9.65758
21
-1.35865
0
LINE
8
BLACK
6
CONTINUOUS
10
9.65758
20
-1.35865
11
9.66269
21
-1.36952
0
LINE
8
BLACK
6
CONTINUOUS
10
9.66269
20
-1.36952
11
9.66913
21
-1.37967
0
LINE
8
BLACK
6
CONTINUOUS
10
9.66913
20
-1.37967
11
9.67679
21
-1.38892
0
LINE
8
BLACK
6
CONTINUOUS
10
9.67679
20
-1.38892
11
9.68554
21
-1.39715
0
LINE
8
BLACK
6
CONTINUOUS
10
9.68554
20
-1.39715
11
9.69526
21
-1.40421
0
LINE
8
BLACK
6
CONTINUOUS
10
9.69526
20
-1.40421
11
9.70579
21
-1.40999
0
LINE
8
BLACK
6
CONTINUOUS
10
9.70579
20
-1.40999
11
9.71696
21
-1.41442
0
LINE
8
BLACK
6
CONTINUOUS
10
9.71696
20
-1.41442
11
9.7286
21
-1.4174
0
LINE
8
BLACK
6
CONTINUOUS
10
9.7286
20
-1.4174
11
9.74051
21
-1.41891
0
LINE
8
BLACK
6
CONTINUOUS
10
9.74051
20
-1.41891
11
9.75253
21
-1.41891
0
LINE
8
BLACK
6
CONTINUOUS
10
9.75253
20
-1.41891
11
9.76445
21
-1.4174
0
LINE
8
BLACK
6
CONTINUOUS
10
9.76445
20
-1.4174
11
9.77608
21
-1.41442
0
LINE
8
BLACK
6
CONTINUOUS
10
9.77608
20
-1.41442
11
9.78725
21
-1.40999
0
LINE
8
BLACK
6
CONTINUOUS
10
9.78725
20
-1.40999
11
9.79778
21
-1.40421
0
LINE
8
BLACK
6
CONTINUOUS
10
9.79778
20
-1.40421
11
9.8075
21
-1.39715
0
LINE
8
BLACK
6
CONTINUOUS
10
9.8075
20
-1.39715
11
9.81626
21
-1.38892
0
LINE
8
BLACK
6
CONTINUOUS
10
9.81626
20
-1.38892
11
9.82391
21
-1.37967
0
LINE
8
BLACK
6
CONTINUOUS
10
9.82391
20
-1.37967
11
9.83035
21
-1.36952
0
LINE
8
BLACK
6
CONTINUOUS
10
9.83035
20
-1.36952
11
9.83546
21
-1.35865
0
LINE
8
BLACK
6
CONTINUOUS
10
9.83546
20
-1.35865
11
9.83918
21
-1.34723
0
LINE
8
BLACK
6
CONTINUOUS
10
9.83918
20
-1.34723
11
9.84143
21
-1.33543
0
LINE
8
BLACK
6
CONTINUOUS
10
9.84143
20
-1.33543
11
9.84218
21
-1.32344
0
LINE
8
BLACK
6
CONTINUOUS
10
9.84218
20
-1.32344
11
9.84143
21
-1.31145
0
LINE
8
BLACK
6
CONTINUOUS
10
9.84143
20
-1.31145
11
9.83918
21
-1.29965
0
LINE
8
BLACK
6
CONTINUOUS
10
9.83918
20
-1.29965
11
9.83546
21
-1.28822
0
LINE
8
BLACK
6
CONTINUOUS
10
9.83546
20
-1.28822
11
9.83035
21
-1.27735
0
LINE
8
BLACK
6
CONTINUOUS
10
9.83035
20
-1.27735
11
9.82391
21
-1.26721
0
LINE
8
BLACK
6
CONTINUOUS
10
9.82391
20
-1.26721
11
9.81626
21
-1.25795
0
LINE
8
BLACK
6
CONTINUOUS
10
9.81626
20
-1.25795
11
9.8075
21
-1.24973
0
LINE
8
BLACK
6
CONTINUOUS
10
9.8075
20
-1.24973
11
9.79778
21
-1.24267
0
LINE
8
BLACK
6
CONTINUOUS
10
9.79778
20
-1.24267
11
9.78725
21
-1.23688
0
LINE
8
BLACK
6
CONTINUOUS
10
9.78725
20
-1.23688
11
9.77608
21
-1.23246
0
LINE
8
BLACK
6
CONTINUOUS
10
9.77608
20
-1.23246
11
9.76445
21
-1.22947
0
LINE
8
BLACK
6
CONTINUOUS
10
9.76445
20
-1.22947
11
9.75253
21
-1.22796
0
LINE
8
BLACK
6
CONTINUOUS
10
9.75253
20
-1.22796
11
9.74051
21
-1.22796
0
LINE
8
BLACK
6
CONTINUOUS
10
9.74051
20
-1.22796
11
9.7286
21
-1.22947
0
LINE
8
BLACK
6
CONTINUOUS
10
9.7286
20
-1.22947
11
9.71696
21
-1.23246
0
LINE
8
BLACK
6
CONTINUOUS
10
9.71696
20
-1.23246
11
9.70579
21
-1.23688
0
LINE
8
BLACK
6
CONTINUOUS
10
9.70579
20
-1.23688
11
9.69526
21
-1.24267
0
LINE
8
BLACK
6
CONTINUOUS
10
9.69526
20
-1.24267
11
9.68554
21
-1.24973
0
LINE
8
BLACK
6
CONTINUOUS
10
9.68554
20
-1.24973
11
9.67679
21
-1.25795
0
LINE
8
BLACK
6
CONTINUOUS
10
9.67679
20
-1.25795
11
9.66913
21
-1.26721
0
LINE
8
BLACK
6
CONTINUOUS
10
9.66913
20
-1.26721
11
9.66269
21
-1.27735
0
LINE
8
BLACK
6
CONTINUOUS
10
9.66269
20
-1.27735
11
9.65758
21
-1.28822
0
LINE
8
BLACK
6
CONTINUOUS
10
9.65758
20
-1.28822
11
9.65387
21
-1.29965
0
LINE
8
BLACK
6
CONTINUOUS
10
9.65387
20
-1.29965
11
9.65161
21
-1.31145
0
LINE
8
BLACK
6
CONTINUOUS
10
9.65161
20
-1.31145
11
9.65086
21
-1.32344
0
LINE
8
BLACK
6
CONTINUOUS
10
9.65086
20
-1.32344
11
9.65161
21
-1.33543
0
LINE
8
BLACK
6
CONTINUOUS
10
9.65161
20
-1.33543
11
9.65387
21
-1.34723
0
LINE
8
BLACK
6
CONTINUOUS
10
6.88963
20
-1.27643
11
6.89341
21
-1.26479
0
LINE
8
BLACK
6
CONTINUOUS
10
6.89341
20
-1.26479
11
6.89862
21
-1.25372
0
LINE
8
BLACK
6
CONTINUOUS
10
6.89862
20
-1.25372
11
6.90517
21
-1.24339
0
LINE
8
BLACK
6
CONTINUOUS
10
6.90517
20
-1.24339
11
6.91297
21
-1.23396
0
LINE
8
BLACK
6
CONTINUOUS
10
6.91297
20
-1.23396
11
6.92189
21
-1.22558
0
LINE
8
BLACK
6
CONTINUOUS
10
6.92189
20
-1.22558
11
6.93179
21
-1.21839
0
LINE
8
BLACK
6
CONTINUOUS
10
6.93179
20
-1.21839
11
6.94252
21
-1.2125
0
LINE
8
BLACK
6
CONTINUOUS
10
6.94252
20
-1.2125
11
6.9539
21
-1.20799
0
LINE
8
BLACK
6
CONTINUOUS
10
6.9539
20
-1.20799
11
6.96575
21
-1.20495
0
LINE
8
BLACK
6
CONTINUOUS
10
6.96575
20
-1.20495
11
6.97789
21
-1.20342
0
LINE
8
BLACK
6
CONTINUOUS
10
6.97789
20
-1.20342
11
6.99012
21
-1.20342
0
LINE
8
BLACK
6
CONTINUOUS
10
6.99012
20
-1.20342
11
7.00226
21
-1.20495
0
LINE
8
BLACK
6
CONTINUOUS
10
7.00226
20
-1.20495
11
7.01412
21
-1.20799
0
LINE
8
BLACK
6
CONTINUOUS
10
7.01412
20
-1.20799
11
7.02549
21
-1.2125
0
LINE
8
BLACK
6
CONTINUOUS
10
7.02549
20
-1.2125
11
7.03622
21
-1.21839
0
LINE
8
BLACK
6
CONTINUOUS
10
7.03622
20
-1.21839
11
7.04612
21
-1.22558
0
LINE
8
BLACK
6
CONTINUOUS
10
7.04612
20
-1.22558
11
7.05504
21
-1.23396
0
LINE
8
BLACK
6
CONTINUOUS
10
7.05504
20
-1.23396
11
7.06284
21
-1.24339
0
LINE
8
BLACK
6
CONTINUOUS
10
7.06284
20
-1.24339
11
7.06939
21
-1.25372
0
LINE
8
BLACK
6
CONTINUOUS
10
7.06939
20
-1.25372
11
7.0746
21
-1.26479
0
LINE
8
BLACK
6
CONTINUOUS
10
7.0746
20
-1.26479
11
7.07839
21
-1.27643
0
LINE
8
BLACK
6
CONTINUOUS
10
7.07839
20
-1.27643
11
7.08068
21
-1.28845
0
LINE
8
BLACK
6
CONTINUOUS
10
7.08068
20
-1.28845
11
7.08145
21
-1.30066
0
LINE
8
BLACK
6
CONTINUOUS
10
7.08145
20
-1.30066
11
7.08068
21
-1.31288
0
LINE
8
BLACK
6
CONTINUOUS
10
7.08068
20
-1.31288
11
7.07839
21
-1.3249
0
LINE
8
BLACK
6
CONTINUOUS
10
7.07839
20
-1.3249
11
7.0746
21
-1.33653
0
LINE
8
BLACK
6
CONTINUOUS
10
7.0746
20
-1.33653
11
7.06939
21
-1.34761
0
LINE
8
BLACK
6
CONTINUOUS
10
7.06939
20
-1.34761
11
7.06284
21
-1.35794
0
LINE
8
BLACK
6
CONTINUOUS
10
7.06284
20
-1.35794
11
7.05504
21
-1.36737
0
LINE
8
BLACK
6
CONTINUOUS
10
7.05504
20
-1.36737
11
7.04612
21
-1.37574
0
LINE
8
BLACK
6
CONTINUOUS
10
7.04612
20
-1.37574
11
7.03622
21
-1.38294
0
LINE
8
BLACK
6
CONTINUOUS
10
7.03622
20
-1.38294
11
7.02549
21
-1.38883
0
LINE
8
BLACK
6
CONTINUOUS
10
7.02549
20
-1.38883
11
7.01412
21
-1.39334
0
LINE
8
BLACK
6
CONTINUOUS
10
7.01412
20
-1.39334
11
7.00226
21
-1.39638
0
LINE
8
BLACK
6
CONTINUOUS
10
7.00226
20
-1.39638
11
6.99012
21
-1.39791
0
LINE
8
BLACK
6
CONTINUOUS
10
6.99012
20
-1.39791
11
6.97789
21
-1.39791
0
LINE
8
BLACK
6
CONTINUOUS
10
6.97789
20
-1.39791
11
6.96575
21
-1.39638
0
LINE
8
BLACK
6
CONTINUOUS
10
6.96575
20
-1.39638
11
6.9539
21
-1.39334
0
LINE
8
BLACK
6
CONTINUOUS
10
6.9539
20
-1.39334
11
6.94252
21
-1.38883
0
LINE
8
BLACK
6
CONTINUOUS
10
6.94252
20
-1.38883
11
6.93179
21
-1.38294
0
LINE
8
BLACK
6
CONTINUOUS
10
6.93179
20
-1.38294
11
6.92189
21
-1.37574
0
LINE
8
BLACK
6
CONTINUOUS
10
6.92189
20
-1.37574
11
6.91297
21
-1.36737
0
LINE
8
BLACK
6
CONTINUOUS
10
6.91297
20
-1.36737
11
6.90517
21
-1.35794
0
LINE
8
BLACK
6
CONTINUOUS
10
6.90517
20
-1.35794
11
6.89862
21
-1.34761
0
LINE
8
BLACK
6
CONTINUOUS
10
6.89862
20
-1.34761
11
6.89341
21
-1.33653
0
LINE
8
BLACK
6
CONTINUOUS
10
6.89341
20
-1.33653
11
6.88963
21
-1.3249
0
LINE
8
BLACK
6
CONTINUOUS
10
6.88963
20
-1.3249
11
6.88733
21
-1.31288
0
LINE
8
BLACK
6
CONTINUOUS
10
6.88733
20
-1.31288
11
6.88657
21
-1.30066
0
LINE
8
BLACK
6
CONTINUOUS
10
6.88657
20
-1.30066
11
6.88733
21
-1.28845
0
LINE
8
BLACK
6
CONTINUOUS
10
6.88733
20
-1.28845
11
6.88963
21
-1.27643
0
LINE
8
BLACK
6
CONTINUOUS
10
6.89135
20
-1.32445
11
6.89506
21
-1.33588
0
LINE
8
BLACK
6
CONTINUOUS
10
6.89506
20
-1.33588
11
6.90018
21
-1.34675
0
LINE
8
BLACK
6
CONTINUOUS
10
6.90018
20
-1.34675
11
6.90661
21
-1.35689
0
LINE
8
BLACK
6
CONTINUOUS
10
6.90661
20
-1.35689
11
6.91427
21
-1.36615
0
LINE
8
BLACK
6
CONTINUOUS
10
6.91427
20
-1.36615
11
6.92303
21
-1.37437
0
LINE
8
BLACK
6
CONTINUOUS
10
6.92303
20
-1.37437
11
6.93275
21
-1.38143
0
LINE
8
BLACK
6
CONTINUOUS
10
6.93275
20
-1.38143
11
6.94328
21
-1.38722
0
LINE
8
BLACK
6
CONTINUOUS
10
6.94328
20
-1.38722
11
6.95445
21
-1.39164
0
LINE
8
BLACK
6
CONTINUOUS
10
6.95445
20
-1.39164
11
6.96608
21
-1.39463
0
LINE
8
BLACK
6
CONTINUOUS
10
6.96608
20
-1.39463
11
6.978
21
-1.39614
0
LINE
8
BLACK
6
CONTINUOUS
10
6.978
20
-1.39614
11
6.99001
21
-1.39614
0
LINE
8
BLACK
6
CONTINUOUS
10
6.99001
20
-1.39614
11
7.00193
21
-1.39463
0
LINE
8
BLACK
6
CONTINUOUS
10
7.00193
20
-1.39463
11
7.01357
21
-1.39164
0
LINE
8
BLACK
6
CONTINUOUS
10
7.01357
20
-1.39164
11
7.02474
21
-1.38722
0
LINE
8
BLACK
6
CONTINUOUS
10
7.02474
20
-1.38722
11
7.03526
21
-1.38143
0
LINE
8
BLACK
6
CONTINUOUS
10
7.03526
20
-1.38143
11
7.04498
21
-1.37437
0
LINE
8
BLACK
6
CONTINUOUS
10
7.04498
20
-1.37437
11
7.05374
21
-1.36615
0
LINE
8
BLACK
6
CONTINUOUS
10
7.05374
20
-1.36615
11
7.0614
21
-1.35689
0
LINE
8
BLACK
6
CONTINUOUS
10
7.0614
20
-1.35689
11
7.06783
21
-1.34675
0
LINE
8
BLACK
6
CONTINUOUS
10
7.06783
20
-1.34675
11
7.07295
21
-1.33588
0
LINE
8
BLACK
6
CONTINUOUS
10
7.07295
20
-1.33588
11
7.07666
21
-1.32445
0
LINE
8
BLACK
6
CONTINUOUS
10
7.07666
20
-1.32445
11
7.07891
21
-1.31265
0
LINE
8
BLACK
6
CONTINUOUS
10
7.07891
20
-1.31265
11
7.07967
21
-1.30066
0
LINE
8
BLACK
6
CONTINUOUS
10
7.07967
20
-1.30066
11
7.07891
21
-1.28867
0
LINE
8
BLACK
6
CONTINUOUS
10
7.07891
20
-1.28867
11
7.07666
21
-1.27687
0
LINE
8
BLACK
6
CONTINUOUS
10
7.07666
20
-1.27687
11
7.07295
21
-1.26545
0
LINE
8
BLACK
6
CONTINUOUS
10
7.07295
20
-1.26545
11
7.06783
21
-1.25458
0
LINE
8
BLACK
6
CONTINUOUS
10
7.06783
20
-1.25458
11
7.0614
21
-1.24444
0
LINE
8
BLACK
6
CONTINUOUS
10
7.0614
20
-1.24444
11
7.05374
21
-1.23518
0
LINE
8
BLACK
6
CONTINUOUS
10
7.05374
20
-1.23518
11
7.04498
21
-1.22696
0
LINE
8
BLACK
6
CONTINUOUS
10
7.04498
20
-1.22696
11
7.03526
21
-1.21989
0
LINE
8
BLACK
6
CONTINUOUS
10
7.03526
20
-1.21989
11
7.02474
21
-1.21411
0
LINE
8
BLACK
6
CONTINUOUS
10
7.02474
20
-1.21411
11
7.01357
21
-1.20969
0
LINE
8
BLACK
6
CONTINUOUS
10
7.01357
20
-1.20969
11
7.00193
21
-1.2067
0
LINE
8
BLACK
6
CONTINUOUS
10
7.00193
20
-1.2067
11
6.99001
21
-1.20519
0
LINE
8
BLACK
6
CONTINUOUS
10
6.99001
20
-1.20519
11
6.978
21
-1.20519
0
LINE
8
BLACK
6
CONTINUOUS
10
6.978
20
-1.20519
11
6.96608
21
-1.2067
0
LINE
8
BLACK
6
CONTINUOUS
10
6.96608
20
-1.2067
11
6.95445
21
-1.20969
0
LINE
8
BLACK
6
CONTINUOUS
10
6.95445
20
-1.20969
11
6.94328
21
-1.21411
0
LINE
8
BLACK
6
CONTINUOUS
10
6.94328
20
-1.21411
11
6.93275
21
-1.21989
0
LINE
8
BLACK
6
CONTINUOUS
10
6.93275
20
-1.21989
11
6.92303
21
-1.22696
0
LINE
8
BLACK
6
CONTINUOUS
10
6.92303
20
-1.22696
11
6.91427
21
-1.23518
0
LINE
8
BLACK
6
CONTINUOUS
10
6.91427
20
-1.23518
11
6.90661
21
-1.24444
0
LINE
8
BLACK
6
CONTINUOUS
10
6.90661
20
-1.24444
11
6.90018
21
-1.25458
0
LINE
8
BLACK
6
CONTINUOUS
10
6.90018
20
-1.25458
11
6.89506
21
-1.26545
0
LINE
8
BLACK
6
CONTINUOUS
10
6.89506
20
-1.26545
11
6.89135
21
-1.27687
0
LINE
8
BLACK
6
CONTINUOUS
10
6.89135
20
-1.27687
11
6.8891
21
-1.28867
0
LINE
8
BLACK
6
CONTINUOUS
10
6.8891
20
-1.28867
11
6.88834
21
-1.30066
0
LINE
8
BLACK
6
CONTINUOUS
10
6.88834
20
-1.30066
11
6.8891
21
-1.31265
0
LINE
8
BLACK
6
CONTINUOUS
10
6.8891
20
-1.31265
11
6.89135
21
-1.32445
0
LINE
8
BLACK
6
CONTINUOUS
10
4.99986
20
-1.26659
11
5.00364
21
-1.25495
0
LINE
8
BLACK
6
CONTINUOUS
10
5.00364
20
-1.25495
11
5.00885
21
-1.24388
0
LINE
8
BLACK
6
CONTINUOUS
10
5.00885
20
-1.24388
11
5.01541
21
-1.23355
0
LINE
8
BLACK
6
CONTINUOUS
10
5.01541
20
-1.23355
11
5.02321
21
-1.22412
0
LINE
8
BLACK
6
CONTINUOUS
10
5.02321
20
-1.22412
11
5.03213
21
-1.21574
0
LINE
8
BLACK
6
CONTINUOUS
10
5.03213
20
-1.21574
11
5.04203
21
-1.20855
0
LINE
8
BLACK
6
CONTINUOUS
10
5.04203
20
-1.20855
11
5.05275
21
-1.20265
0
LINE
8
BLACK
6
CONTINUOUS
10
5.05275
20
-1.20265
11
5.06413
21
-1.19815
0
LINE
8
BLACK
6
CONTINUOUS
10
5.06413
20
-1.19815
11
5.07598
21
-1.19511
0
LINE
8
BLACK
6
CONTINUOUS
10
5.07598
20
-1.19511
11
5.08812
21
-1.19357
0
LINE
8
BLACK
6
CONTINUOUS
10
5.08812
20
-1.19357
11
5.10036
21
-1.19357
0
LINE
8
BLACK
6
CONTINUOUS
10
5.10036
20
-1.19357
11
5.1125
21
-1.19511
0
LINE
8
BLACK
6
CONTINUOUS
10
5.1125
20
-1.19511
11
5.12435
21
-1.19815
0
LINE
8
BLACK
6
CONTINUOUS
10
5.12435
20
-1.19815
11
5.13573
21
-1.20265
0
LINE
8
BLACK
6
CONTINUOUS
10
5.13573
20
-1.20265
11
5.14645
21
-1.20855
0
LINE
8
BLACK
6
CONTINUOUS
10
5.14645
20
-1.20855
11
5.15635
21
-1.21574
0
LINE
8
BLACK
6
CONTINUOUS
10
5.15635
20
-1.21574
11
5.16527
21
-1.22412
0
LINE
8
BLACK
6
CONTINUOUS
10
5.16527
20
-1.22412
11
5.17307
21
-1.23355
0
LINE
8
BLACK
6
CONTINUOUS
10
5.17307
20
-1.23355
11
5.17963
21
-1.24388
0
LINE
8
BLACK
6
CONTINUOUS
10
5.17963
20
-1.24388
11
5.18484
21
-1.25495
0
LINE
8
BLACK
6
CONTINUOUS
10
5.18484
20
-1.25495
11
5.18862
21
-1.26659
0
LINE
8
BLACK
6
CONTINUOUS
10
5.18862
20
-1.26659
11
5.19091
21
-1.27861
0
LINE
8
BLACK
6
CONTINUOUS
10
5.19091
20
-1.27861
11
5.19168
21
-1.29082
0
LINE
8
BLACK
6
CONTINUOUS
10
5.19168
20
-1.29082
11
5.19091
21
-1.30303
0
LINE
8
BLACK
6
CONTINUOUS
10
5.19091
20
-1.30303
11
5.18862
21
-1.31505
0
LINE
8
BLACK
6
CONTINUOUS
10
5.18862
20
-1.31505
11
5.18484
21
-1.32669
0
LINE
8
BLACK
6
CONTINUOUS
10
5.18484
20
-1.32669
11
5.17963
21
-1.33776
0
LINE
8
BLACK
6
CONTINUOUS
10
5.17963
20
-1.33776
11
5.17307
21
-1.3481
0
LINE
8
BLACK
6
CONTINUOUS
10
5.17307
20
-1.3481
11
5.16527
21
-1.35752
0
LINE
8
BLACK
6
CONTINUOUS
10
5.16527
20
-1.35752
11
5.15635
21
-1.3659
0
LINE
8
BLACK
6
CONTINUOUS
10
5.15635
20
-1.3659
11
5.14645
21
-1.37309
0
LINE
8
BLACK
6
CONTINUOUS
10
5.14645
20
-1.37309
11
5.13573
21
-1.37899
0
LINE
8
BLACK
6
CONTINUOUS
10
5.13573
20
-1.37899
11
5.12435
21
-1.38349
0
LINE
8
BLACK
6
CONTINUOUS
10
5.12435
20
-1.38349
11
5.1125
21
-1.38654
0
LINE
8
BLACK
6
CONTINUOUS
10
5.1125
20
-1.38654
11
5.10036
21
-1.38807
0
LINE
8
BLACK
6
CONTINUOUS
10
5.10036
20
-1.38807
11
5.08812
21
-1.38807
0
LINE
8
BLACK
6
CONTINUOUS
10
5.08812
20
-1.38807
11
5.07598
21
-1.38654
0
LINE
8
BLACK
6
CONTINUOUS
10
5.07598
20
-1.38654
11
5.06413
21
-1.38349
0
LINE
8
BLACK
6
CONTINUOUS
10
5.06413
20
-1.38349
11
5.05275
21
-1.37899
0
LINE
8
BLACK
6
CONTINUOUS
10
5.05275
20
-1.37899
11
5.04203
21
-1.37309
0
LINE
8
BLACK
6
CONTINUOUS
10
5.04203
20
-1.37309
11
5.03213
21
-1.3659
0
LINE
8
BLACK
6
CONTINUOUS
10
5.03213
20
-1.3659
11
5.02321
21
-1.35752
0
LINE
8
BLACK
6
CONTINUOUS
10
5.02321
20
-1.35752
11
5.01541
21
-1.3481
0
LINE
8
BLACK
6
CONTINUOUS
10
5.01541
20
-1.3481
11
5.00885
21
-1.33776
0
LINE
8
BLACK
6
CONTINUOUS
10
5.00885
20
-1.33776
11
5.00364
21
-1.32669
0
LINE
8
BLACK
6
CONTINUOUS
10
5.00364
20
-1.32669
11
4.99986
21
-1.31505
0
LINE
8
BLACK
6
CONTINUOUS
10
4.99986
20
-1.31505
11
4.99757
21
-1.30303
0
LINE
8
BLACK
6
CONTINUOUS
10
4.99757
20
-1.30303
11
4.9968
21
-1.29082
0
LINE
8
BLACK
6
CONTINUOUS
10
4.9968
20
-1.29082
11
4.99757
21
-1.27861
0
LINE
8
BLACK
6
CONTINUOUS
10
4.99757
20
-1.27861
11
4.99986
21
-1.26659
0
LINE
8
BLACK
6
CONTINUOUS
10
5.00159
20
-1.31461
11
5.0053
21
-1.32604
0
LINE
8
BLACK
6
CONTINUOUS
10
5.0053
20
-1.32604
11
5.01041
21
-1.33691
0
LINE
8
BLACK
6
CONTINUOUS
10
5.01041
20
-1.33691
11
5.01685
21
-1.34705
0
LINE
8
BLACK
6
CONTINUOUS
10
5.01685
20
-1.34705
11
5.02451
21
-1.35631
0
LINE
8
BLACK
6
CONTINUOUS
10
5.02451
20
-1.35631
11
5.03327
21
-1.36453
0
LINE
8
BLACK
6
CONTINUOUS
10
5.03327
20
-1.36453
11
5.04298
21
-1.37159
0
LINE
8
BLACK
6
CONTINUOUS
10
5.04298
20
-1.37159
11
5.05351
21
-1.37738
0
LINE
8
BLACK
6
CONTINUOUS
10
5.05351
20
-1.37738
11
5.06468
21
-1.3818
0
LINE
8
BLACK
6
CONTINUOUS
10
5.06468
20
-1.3818
11
5.07632
21
-1.38479
0
LINE
8
BLACK
6
CONTINUOUS
10
5.07632
20
-1.38479
11
5.08824
21
-1.38629
0
LINE
8
BLACK
6
CONTINUOUS
10
5.08824
20
-1.38629
11
5.10025
21
-1.38629
0
LINE
8
BLACK
6
CONTINUOUS
10
5.10025
20
-1.38629
11
5.11217
21
-1.38479
0
LINE
8
BLACK
6
CONTINUOUS
10
5.11217
20
-1.38479
11
5.1238
21
-1.3818
0
LINE
8
BLACK
6
CONTINUOUS
10
5.1238
20
-1.3818
11
5.13497
21
-1.37738
0
LINE
8
BLACK
6
CONTINUOUS
10
5.13497
20
-1.37738
11
5.1455
21
-1.37159
0
LINE
8
BLACK
6
CONTINUOUS
10
5.1455
20
-1.37159
11
5.15522
21
-1.36453
0
LINE
8
BLACK
6
CONTINUOUS
10
5.15522
20
-1.36453
11
5.16398
21
-1.35631
0
LINE
8
BLACK
6
CONTINUOUS
10
5.16398
20
-1.35631
11
5.17163
21
-1.34705
0
LINE
8
BLACK
6
CONTINUOUS
10
5.17163
20
-1.34705
11
5.17807
21
-1.33691
0
LINE
8
BLACK
6
CONTINUOUS
10
5.17807
20
-1.33691
11
5.18319
21
-1.32604
0
LINE
8
BLACK
6
CONTINUOUS
10
5.18319
20
-1.32604
11
5.1869
21
-1.31461
0
LINE
8
BLACK
6
CONTINUOUS
10
5.1869
20
-1.31461
11
5.18915
21
-1.30281
0
LINE
8
BLACK
6
CONTINUOUS
10
5.18915
20
-1.30281
11
5.1899
21
-1.29082
0
LINE
8
BLACK
6
CONTINUOUS
10
5.1899
20
-1.29082
11
5.18915
21
-1.27883
0
LINE
8
BLACK
6
CONTINUOUS
10
5.18915
20
-1.27883
11
5.1869
21
-1.26703
0
LINE
8
BLACK
6
CONTINUOUS
10
5.1869
20
-1.26703
11
5.18319
21
-1.25561
0
LINE
8
BLACK
6
CONTINUOUS
10
5.18319
20
-1.25561
11
5.17807
21
-1.24474
0
LINE
8
BLACK
6
CONTINUOUS
10
5.17807
20
-1.24474
11
5.17163
21
-1.23459
0
LINE
8
BLACK
6
CONTINUOUS
10
5.17163
20
-1.23459
11
5.16398
21
-1.22534
0
LINE
8
BLACK
6
CONTINUOUS
10
5.16398
20
-1.22534
11
5.15522
21
-1.21711
0
LINE
8
BLACK
6
CONTINUOUS
10
5.15522
20
-1.21711
11
5.1455
21
-1.21005
0
LINE
8
BLACK
6
CONTINUOUS
10
5.1455
20
-1.21005
11
5.13497
21
-1.20426
0
LINE
8
BLACK
6
CONTINUOUS
10
5.13497
20
-1.20426
11
5.1238
21
-1.19984
0
LINE
8
BLACK
6
CONTINUOUS
10
5.1238
20
-1.19984
11
5.11217
21
-1.19686
0
LINE
8
BLACK
6
CONTINUOUS
10
5.11217
20
-1.19686
11
5.10025
21
-1.19535
0
LINE
8
BLACK
6
CONTINUOUS
10
5.10025
20
-1.19535
11
5.08824
21
-1.19535
0
LINE
8
BLACK
6
CONTINUOUS
10
5.08824
20
-1.19535
11
5.07632
21
-1.19686
0
LINE
8
BLACK
6
CONTINUOUS
10
5.07632
20
-1.19686
11
5.06468
21
-1.19984
0
LINE
8
BLACK
6
CONTINUOUS
10
5.06468
20
-1.19984
11
5.05351
21
-1.20426
0
LINE
8
BLACK
6
CONTINUOUS
10
5.05351
20
-1.20426
11
5.04298
21
-1.21005
0
LINE
8
BLACK
6
CONTINUOUS
10
5.04298
20
-1.21005
11
5.03327
21
-1.21711
0
LINE
8
BLACK
6
CONTINUOUS
10
5.03327
20
-1.21711
11
5.02451
21
-1.22534
0
LINE
8
BLACK
6
CONTINUOUS
10
5.02451
20
-1.22534
11
5.01685
21
-1.23459
0
LINE
8
BLACK
6
CONTINUOUS
10
5.01685
20
-1.23459
11
5.01041
21
-1.24474
0
LINE
8
BLACK
6
CONTINUOUS
10
5.01041
20
-1.24474
11
5.0053
21
-1.25561
0
LINE
8
BLACK
6
CONTINUOUS
10
5.0053
20
-1.25561
11
5.00159
21
-1.26703
0
LINE
8
BLACK
6
CONTINUOUS
10
5.00159
20
-1.26703
11
4.99934
21
-1.27883
0
LINE
8
BLACK
6
CONTINUOUS
10
4.99934
20
-1.27883
11
4.99858
21
-1.29082
0
LINE
8
BLACK
6
CONTINUOUS
10
4.99858
20
-1.29082
11
4.99934
21
-1.30281
0
LINE
8
BLACK
6
CONTINUOUS
10
4.99934
20
-1.30281
11
5.00159
21
-1.31461
  0
ENDSEC
  0
EOF
