G04 #@! TF.GenerationSoftware,KiCad,Pcbnew,(6.0.10)*
G04 #@! TF.CreationDate,2023-07-31T18:02:39+01:00*
G04 #@! TF.ProjectId,magnetonekeys,6d61676e-6574-46f6-9e65-6b6579732e6b,rev?*
G04 #@! TF.SameCoordinates,Original*
G04 #@! TF.FileFunction,Copper,L2,Bot*
G04 #@! TF.FilePolarity,Positive*
%FSLAX46Y46*%
G04 Gerber Fmt 4.6, Leading zero omitted, Abs format (unit mm)*
G04 Created by KiCad (PCBNEW (6.0.10)) date 2023-07-31 18:02:39*
%MOMM*%
%LPD*%
G01*
G04 APERTURE LIST*
G04 Aperture macros list*
%AMRoundRect*
0 Rectangle with rounded corners*
0 $1 Rounding radius*
0 $2 $3 $4 $5 $6 $7 $8 $9 X,Y pos of 4 corners*
0 Add a 4 corners polygon primitive as box body*
4,1,4,$2,$3,$4,$5,$6,$7,$8,$9,$2,$3,0*
0 Add four circle primitives for the rounded corners*
1,1,$1+$1,$2,$3*
1,1,$1+$1,$4,$5*
1,1,$1+$1,$6,$7*
1,1,$1+$1,$8,$9*
0 Add four rect primitives between the rounded corners*
20,1,$1+$1,$2,$3,$4,$5,0*
20,1,$1+$1,$4,$5,$6,$7,0*
20,1,$1+$1,$6,$7,$8,$9,0*
20,1,$1+$1,$8,$9,$2,$3,0*%
%AMRotRect*
0 Rectangle, with rotation*
0 The origin of the aperture is its center*
0 $1 length*
0 $2 width*
0 $3 Rotation angle, in degrees counterclockwise*
0 Add horizontal line*
21,1,$1,$2,0,0,$3*%
G04 Aperture macros list end*
G04 #@! TA.AperFunction,SMDPad,CuDef*
%ADD10RoundRect,0.225000X0.443559X0.556332X-0.688646X-0.178930X-0.443559X-0.556332X0.688646X0.178930X0*%
G04 #@! TD*
G04 #@! TA.AperFunction,ComponentPad*
%ADD11R,1.700000X1.700000*%
G04 #@! TD*
G04 #@! TA.AperFunction,ComponentPad*
%ADD12O,1.700000X1.700000*%
G04 #@! TD*
G04 #@! TA.AperFunction,SMDPad,CuDef*
%ADD13RoundRect,0.225000X-0.579722X-0.412519X0.711289X-0.017818X0.579722X0.412519X-0.711289X0.017818X0*%
G04 #@! TD*
G04 #@! TA.AperFunction,SMDPad,CuDef*
%ADD14RoundRect,0.225000X-0.688646X0.178930X0.443559X-0.556332X0.688646X-0.178930X-0.443559X0.556332X0*%
G04 #@! TD*
G04 #@! TA.AperFunction,SMDPad,CuDef*
%ADD15RoundRect,0.225000X-0.711289X-0.017818X0.579722X-0.412519X0.711289X0.017818X-0.579722X0.412519X0*%
G04 #@! TD*
G04 #@! TA.AperFunction,SMDPad,CuDef*
%ADD16RoundRect,0.225000X0.711289X0.017818X-0.579722X0.412519X-0.711289X-0.017818X0.579722X-0.412519X0*%
G04 #@! TD*
G04 #@! TA.AperFunction,SMDPad,CuDef*
%ADD17RotRect,0.800000X0.750000X56.000000*%
G04 #@! TD*
G04 #@! TA.AperFunction,SMDPad,CuDef*
%ADD18RotRect,0.800000X0.750000X253.000000*%
G04 #@! TD*
G04 #@! TA.AperFunction,SMDPad,CuDef*
%ADD19RoundRect,0.039200X0.405935X-0.504145X0.054621X0.644951X-0.405935X0.504145X-0.054621X-0.644951X0*%
G04 #@! TD*
G04 #@! TA.AperFunction,SMDPad,CuDef*
%ADD20RoundRect,0.039200X-0.405935X0.504145X-0.054621X-0.644951X0.405935X-0.504145X0.054621X0.644951X0*%
G04 #@! TD*
G04 #@! TA.AperFunction,SMDPad,CuDef*
%ADD21RotRect,0.800000X0.750000X73.000000*%
G04 #@! TD*
G04 #@! TA.AperFunction,SMDPad,CuDef*
%ADD22RotRect,0.800000X0.750000X343.000000*%
G04 #@! TD*
G04 #@! TA.AperFunction,SMDPad,CuDef*
%ADD23RotRect,0.800000X0.750000X107.000000*%
G04 #@! TD*
G04 #@! TA.AperFunction,SMDPad,CuDef*
%ADD24RotRect,0.800000X0.750000X316.000000*%
G04 #@! TD*
G04 #@! TA.AperFunction,SMDPad,CuDef*
%ADD25RoundRect,0.039200X-0.254558X-0.595101X0.595101X0.254558X0.254558X0.595101X-0.595101X-0.254558X0*%
G04 #@! TD*
G04 #@! TA.AperFunction,SMDPad,CuDef*
%ADD26RoundRect,0.039200X-0.529171X0.372724X0.125267X-0.635022X0.529171X-0.372724X-0.125267X0.635022X0*%
G04 #@! TD*
G04 #@! TA.AperFunction,ComponentPad*
%ADD27C,2.400000*%
G04 #@! TD*
G04 #@! TA.AperFunction,ComponentPad*
%ADD28O,2.400000X2.400000*%
G04 #@! TD*
G04 #@! TA.AperFunction,SMDPad,CuDef*
%ADD29RoundRect,0.039200X0.240800X-0.600800X0.240800X0.600800X-0.240800X0.600800X-0.240800X-0.600800X0*%
G04 #@! TD*
G04 #@! TA.AperFunction,SMDPad,CuDef*
%ADD30RoundRect,0.039200X0.504145X0.405935X-0.644951X0.054621X-0.504145X-0.405935X0.644951X-0.054621X0*%
G04 #@! TD*
G04 #@! TA.AperFunction,SMDPad,CuDef*
%ADD31RotRect,0.800000X0.750000X348.000000*%
G04 #@! TD*
G04 #@! TA.AperFunction,ViaPad*
%ADD32C,1.250000*%
G04 #@! TD*
G04 #@! TA.AperFunction,ViaPad*
%ADD33C,0.800000*%
G04 #@! TD*
G04 #@! TA.AperFunction,ViaPad*
%ADD34C,0.450000*%
G04 #@! TD*
G04 #@! TA.AperFunction,ViaPad*
%ADD35C,0.750000*%
G04 #@! TD*
G04 #@! TA.AperFunction,Conductor*
%ADD36C,0.500000*%
G04 #@! TD*
G04 #@! TA.AperFunction,Conductor*
%ADD37C,0.300000*%
G04 #@! TD*
G04 APERTURE END LIST*
D10*
X170897849Y-138676266D03*
X170080891Y-137418260D03*
X165132734Y-140631631D03*
X165949693Y-141889637D03*
D11*
X144170816Y-103174481D03*
D12*
X144170816Y-105714481D03*
X144170816Y-108254481D03*
X144170816Y-110794481D03*
D11*
X209493750Y-88966875D03*
D12*
X209493750Y-91506875D03*
X209493750Y-94046875D03*
X209493750Y-96586875D03*
X209493750Y-99126875D03*
X209493750Y-101666875D03*
X209493750Y-104206875D03*
X209493750Y-106746875D03*
X209493750Y-109286875D03*
D13*
X177834270Y-84708118D03*
X178272827Y-86142575D03*
X183915026Y-84417582D03*
X183476468Y-82983125D03*
D11*
X162975350Y-103174481D03*
D12*
X162975350Y-105714481D03*
X162975350Y-108254481D03*
X162975350Y-110794481D03*
D10*
X186874524Y-128300894D03*
X186057566Y-127042888D03*
X181109409Y-130256259D03*
X181926368Y-131514265D03*
D14*
X120730501Y-127594311D03*
X119913543Y-128852317D03*
X124861699Y-132065688D03*
X125678658Y-130807682D03*
D11*
X97653750Y-88956875D03*
D12*
X97653750Y-91496875D03*
X97653750Y-94036875D03*
X97653750Y-96576875D03*
X97653750Y-99116875D03*
X97653750Y-101656875D03*
X97653750Y-104196875D03*
X97653750Y-106736875D03*
X97653750Y-109276875D03*
D11*
X139408312Y-97786875D03*
X164872750Y-97786875D03*
D15*
X107482650Y-38193391D03*
X107044092Y-39627848D03*
X112686291Y-41352841D03*
X113124848Y-39918384D03*
D16*
X81646762Y-45143390D03*
X82085319Y-43708933D03*
X76443121Y-41983940D03*
X76004563Y-43418397D03*
X134443018Y-67924969D03*
X134881575Y-66490512D03*
X129239377Y-64765519D03*
X128800819Y-66199976D03*
D14*
X136707175Y-137969685D03*
X135890217Y-139227691D03*
X140838373Y-142441062D03*
X141655332Y-141183056D03*
D16*
X107116610Y-59570447D03*
X107555167Y-58135990D03*
X101912969Y-56410997D03*
X101474411Y-57845454D03*
D13*
X172264591Y-66490512D03*
X172703148Y-67924969D03*
X178345347Y-66199976D03*
X177906789Y-64765519D03*
D16*
X128873339Y-86142575D03*
X129311896Y-84708118D03*
X123669698Y-82983125D03*
X123231140Y-84417582D03*
D13*
X194021318Y-39918384D03*
X194459875Y-41352841D03*
X200102074Y-39627848D03*
X199663516Y-38193391D03*
X225060847Y-43708933D03*
X225499404Y-45143390D03*
X231141603Y-43418397D03*
X230703045Y-41983940D03*
X230630528Y-61926539D03*
X231069085Y-63360996D03*
X236711284Y-61636003D03*
X236272726Y-60201546D03*
X199590999Y-58135990D03*
X200029556Y-59570447D03*
X205671755Y-57845454D03*
X205233197Y-56410997D03*
D16*
X76077081Y-63360996D03*
X76515638Y-61926539D03*
X70873440Y-60201546D03*
X70434882Y-61636003D03*
D17*
X119405855Y-126408028D03*
X120244645Y-125164472D03*
D18*
X78036333Y-64025526D03*
X77597775Y-65459984D03*
D19*
X230794644Y-49124152D03*
X228977664Y-49679658D03*
X229286792Y-47441481D03*
D20*
X181151725Y-88718419D03*
X182968705Y-88162913D03*
X182659577Y-90401090D03*
D21*
X105844432Y-37367402D03*
X106282990Y-35932944D03*
D19*
X199755115Y-45333603D03*
X197938135Y-45889109D03*
X198247263Y-43650932D03*
X205324796Y-63551209D03*
X203507816Y-64106715D03*
X203816944Y-61868538D03*
D22*
X84104896Y-45795096D03*
X85539354Y-46233654D03*
D23*
X170119106Y-67088510D03*
X169680548Y-65654052D03*
D24*
X188629617Y-127289442D03*
X189708627Y-128331430D03*
D23*
X222725929Y-43993219D03*
X222287371Y-42558761D03*
D18*
X136280779Y-68937771D03*
X135842221Y-70372229D03*
D25*
X130302916Y-72599808D03*
X128959413Y-71256305D03*
X131080733Y-70478488D03*
D26*
X169427066Y-143572165D03*
X171020540Y-142537351D03*
X171340313Y-144774032D03*
D27*
X146393750Y-119595011D03*
D28*
X146393750Y-134835011D03*
D23*
X197503504Y-58754128D03*
X197064946Y-57319670D03*
X175696202Y-85069816D03*
X175257644Y-83635358D03*
D18*
X130760154Y-86969021D03*
X130321596Y-88403479D03*
X109905838Y-59906254D03*
X109467280Y-61340712D03*
D29*
X78509693Y-49446693D03*
X76609693Y-49446693D03*
X77559693Y-47396693D03*
D30*
X177492676Y-69995101D03*
X178048182Y-71812081D03*
X175810005Y-71502953D03*
D19*
X236364325Y-67341758D03*
X234547345Y-67897264D03*
X234856473Y-65659087D03*
D25*
X124733237Y-90817414D03*
X123389734Y-89473911D03*
X125511054Y-88696094D03*
X135952975Y-145862356D03*
X134609472Y-144518853D03*
X136730792Y-143741036D03*
D31*
X173924802Y-137312187D03*
X175392024Y-137624055D03*
D27*
X160752750Y-119595011D03*
D28*
X160752750Y-134835011D03*
D23*
X228679059Y-62447922D03*
X228240501Y-61013464D03*
X191769653Y-40421341D03*
X191331095Y-38986883D03*
D29*
X72940012Y-67664299D03*
X71040012Y-67664299D03*
X71990012Y-65614299D03*
D25*
X102976508Y-64245286D03*
X101633005Y-62901783D03*
X103754325Y-62123966D03*
D17*
X134883972Y-136508541D03*
X135722762Y-135264985D03*
D26*
X185403741Y-133196793D03*
X186997215Y-132161979D03*
X187316988Y-134398660D03*
D25*
X119976301Y-135486982D03*
X118632798Y-134143479D03*
X120754118Y-133365662D03*
D29*
X109549222Y-45656144D03*
X107649222Y-45656144D03*
X108599222Y-43606144D03*
D32*
X80059625Y-65064375D03*
X83631500Y-63873750D03*
X168343004Y-85430754D03*
X134280147Y-90846772D03*
X117784580Y-98776920D03*
X190399750Y-124156250D03*
X217784125Y-64625000D03*
X137209625Y-112689375D03*
X122139625Y-118988750D03*
X134489625Y-106458750D03*
X190955061Y-105783855D03*
X187430375Y-120015625D03*
X84770250Y-48443125D03*
X90775250Y-65064375D03*
X174921625Y-105106250D03*
X176072236Y-134358879D03*
D33*
X201670695Y-88519778D03*
D32*
X138779117Y-72467383D03*
X114371500Y-61165000D03*
X224009631Y-63706756D03*
X175061725Y-129504275D03*
X127403375Y-137665625D03*
X125693750Y-80326875D03*
X101890250Y-53823125D03*
X133070250Y-70633125D03*
X128500250Y-69303125D03*
X70330250Y-65623125D03*
X221821795Y-40958580D03*
X142740250Y-144213125D03*
X67800250Y-59273125D03*
X79950250Y-68823125D03*
X238590375Y-62045625D03*
X177537250Y-139733125D03*
X206070375Y-60815625D03*
X172641689Y-146557936D03*
X190747250Y-37563125D03*
X176520375Y-82395625D03*
X164602750Y-137356875D03*
X203857250Y-40133125D03*
X128580250Y-88433125D03*
X105728847Y-62364528D03*
X208647250Y-57873125D03*
X127733750Y-63676875D03*
X233750375Y-43935625D03*
X181267250Y-66723125D03*
X87150250Y-46243125D03*
X192770375Y-127125625D03*
X226974125Y-67119375D03*
X134763375Y-142415625D03*
X115723375Y-43075625D03*
X200589471Y-42914721D03*
X179307250Y-128443125D03*
X196237250Y-54653125D03*
X122993750Y-87616875D03*
X189077250Y-136153125D03*
X126590250Y-134363125D03*
X121830250Y-123603125D03*
X75755890Y-47107485D03*
X230380375Y-58385625D03*
X106862049Y-43524924D03*
X104490250Y-35503125D03*
X187587250Y-83743125D03*
X108690250Y-67803125D03*
X226897548Y-47893423D03*
X74200250Y-40173125D03*
X183317250Y-92563125D03*
X137290250Y-133733125D03*
X169647250Y-63963125D03*
X176387250Y-74113125D03*
D33*
X210742750Y-42635011D03*
X221928689Y-46933133D03*
X226652750Y-58775011D03*
X228442750Y-64185011D03*
X190955061Y-118880741D03*
D34*
X243827250Y-62373125D03*
X212521064Y-113388189D03*
X238880375Y-59333125D03*
D32*
X129289625Y-149926875D03*
X102681500Y-67445625D03*
X175678278Y-94674263D03*
X184406618Y-139121383D03*
X81180875Y-71376875D03*
X170714419Y-149241704D03*
X90775250Y-59111250D03*
X113390875Y-49846875D03*
X119519625Y-139688750D03*
X209395244Y-47457701D03*
X230245719Y-52205685D03*
X187978496Y-101616664D03*
X122922125Y-96020625D03*
X87216095Y-61505220D03*
X171281874Y-79131275D03*
X120603539Y-78098586D03*
D33*
X208070310Y-73488125D03*
D32*
X236237250Y-53183125D03*
D33*
X191567726Y-66578462D03*
X197520856Y-63601897D03*
X119350250Y-59111250D03*
X114121500Y-57815000D03*
D34*
X94282750Y-115006250D03*
X90282750Y-111006250D03*
D33*
X112206500Y-128167500D03*
D35*
X107444000Y-128167500D03*
D36*
X169427066Y-143572165D02*
X159583750Y-144416875D01*
X163570663Y-149837017D02*
X170714419Y-149241704D01*
X156323750Y-140306875D02*
X163570663Y-149837017D01*
X156193750Y-105466875D02*
X156323750Y-140306875D01*
X162975350Y-103174481D02*
X156193750Y-105466875D01*
X122139625Y-118988750D02*
X118219625Y-122908750D01*
X144170816Y-108254481D02*
X136285356Y-108254481D01*
X188629617Y-127289442D02*
X186874524Y-128300894D01*
X170119106Y-67088510D02*
X172264591Y-66490512D01*
X78036333Y-64025526D02*
X76077081Y-63360996D01*
X136280779Y-68937771D02*
X134443018Y-67924969D01*
X187390375Y-120015625D02*
X187430375Y-120015625D01*
X224009631Y-63706756D02*
X228679059Y-62447922D01*
X128873339Y-86142575D02*
X130760154Y-86969021D01*
X136285356Y-108254481D02*
X134489625Y-106458750D01*
X188573809Y-45061929D02*
X191769653Y-40421341D01*
X170897849Y-138676266D02*
X171048045Y-138526070D01*
X175696202Y-85069816D02*
X168343004Y-85430754D01*
X188484435Y-108254481D02*
X190955061Y-105783855D01*
X168343004Y-85430754D02*
X163015375Y-75340625D01*
X134205699Y-91056909D02*
X130760154Y-86969021D01*
X109905838Y-59906254D02*
X107452417Y-59906254D01*
X197503504Y-58754128D02*
X199590999Y-58135990D01*
X133637750Y-135262319D02*
X134883972Y-136508541D01*
X101228689Y-37367402D02*
X105844432Y-37367402D01*
X194243457Y-63204801D02*
X197503504Y-58754128D01*
X181430053Y-113522924D02*
X171905045Y-113522924D01*
X94265013Y-56647888D02*
X100012858Y-38583233D01*
X222725929Y-43993219D02*
X225060847Y-43708933D01*
X171773394Y-108254481D02*
X188484435Y-108254481D01*
X162975350Y-108254481D02*
X171905045Y-113522924D01*
X183215992Y-115308863D02*
X181430053Y-113522924D01*
X171048045Y-138526070D02*
X173924802Y-137312187D01*
X114371500Y-61165000D02*
X109905838Y-59906254D01*
X134205699Y-91056909D02*
X134205699Y-90921220D01*
X190399750Y-124156250D02*
X188629617Y-127289442D01*
X105844432Y-37367402D02*
X107482650Y-38193391D01*
X134205699Y-90921220D02*
X134280147Y-90846772D01*
X133637750Y-134120625D02*
X133637750Y-135262319D01*
X201670695Y-88519778D02*
X197503504Y-73636953D01*
X84770250Y-48443125D02*
X84104896Y-45795096D01*
X191769653Y-40421341D02*
X194021318Y-39918384D01*
X137209625Y-112689375D02*
X133637750Y-134120625D01*
X120730501Y-127594311D02*
X120592138Y-127594311D01*
X217784125Y-64625000D02*
X217784125Y-49146875D01*
X118219625Y-122908750D02*
X118219625Y-125221798D01*
X162975350Y-108254481D02*
X171773394Y-108254481D01*
X197503504Y-73636953D02*
X188573809Y-45061929D01*
X176072236Y-134358879D02*
X174881610Y-136355379D01*
X117784580Y-98776920D02*
X117904455Y-98832045D01*
X187390375Y-120015625D02*
X183215992Y-115308863D01*
X80059625Y-65064375D02*
X78036333Y-64025526D01*
X117904455Y-98832045D02*
X134489625Y-106458750D01*
X120592138Y-127594311D02*
X119405855Y-126408028D01*
X138779117Y-72467383D02*
X136280779Y-68937771D01*
X117904455Y-98832045D02*
X117849330Y-98776920D01*
X175020375Y-129305625D02*
X171997217Y-113615096D01*
X107452417Y-59906254D02*
X107116610Y-59570447D01*
X171773394Y-108254481D02*
X174921625Y-105106250D01*
X90775250Y-65064375D02*
X83631500Y-63873750D01*
X175696202Y-85069816D02*
X177834270Y-84708118D01*
X174881610Y-136355379D02*
X173924802Y-137312187D01*
X134883972Y-136508541D02*
X136707175Y-137969685D01*
X222725929Y-43993219D02*
X217784125Y-49146875D01*
X163015375Y-75340625D02*
X170119106Y-67088510D01*
X230630528Y-61926539D02*
X228679059Y-62447922D01*
X90775250Y-65064375D02*
X94265013Y-56647888D01*
X100012858Y-38583233D02*
X101228689Y-37367402D01*
X117849330Y-98776920D02*
X117784580Y-98776920D01*
X144170816Y-108254481D02*
X137209625Y-112689375D01*
X81646762Y-45143390D02*
X84104896Y-45795096D01*
X118219625Y-125221798D02*
X119405855Y-126408028D01*
X202191973Y-39627848D02*
X200102074Y-39627848D01*
X175810005Y-73445880D02*
X175810005Y-71502953D01*
X228860375Y-59445625D02*
X228240501Y-61013464D01*
X105431091Y-62123966D02*
X103754325Y-62123966D01*
X203857250Y-40133125D02*
X202191973Y-39627848D01*
X123923375Y-134165625D02*
X120754118Y-133365662D01*
X124861699Y-132065688D02*
X124861699Y-132634574D01*
X236820128Y-61636003D02*
X236711284Y-61636003D01*
X169680548Y-63996423D02*
X169647250Y-63963125D01*
X110190250Y-62253125D02*
X109467280Y-61340712D01*
X127403375Y-137665625D02*
X123923375Y-134165625D01*
X77597775Y-65459984D02*
X79940250Y-68833125D01*
X191331095Y-38986883D02*
X190817250Y-37713125D01*
X187607250Y-83723125D02*
X187587250Y-83743125D01*
X197064946Y-57319670D02*
X196247250Y-54623125D01*
X122993750Y-87616875D02*
X125511054Y-88433929D01*
X196237250Y-54633125D02*
X196237250Y-54653125D01*
X181109409Y-130256259D02*
X181109409Y-130245284D01*
X226897548Y-47893423D02*
X227418894Y-47441481D01*
X238590375Y-62045625D02*
X236820128Y-61636003D01*
X190918945Y-128331430D02*
X189708627Y-128331430D01*
X87140779Y-46233654D02*
X87150250Y-46243125D01*
X127733750Y-63676875D02*
X129239377Y-64765519D01*
X124861699Y-132634574D02*
X126590250Y-134363125D01*
X187322785Y-134398660D02*
X189077250Y-136153125D01*
X181267250Y-66723125D02*
X179314101Y-66199976D01*
X123669698Y-82983125D02*
X125693750Y-80326875D01*
X208619579Y-57845454D02*
X208647250Y-57873125D01*
X172641689Y-146557936D02*
X171348157Y-144774032D01*
X106282990Y-35932944D02*
X104490250Y-35503125D01*
X198247263Y-43650932D02*
X200589471Y-42914721D01*
X190817250Y-37633125D02*
X190747250Y-37563125D01*
X171348157Y-144774032D02*
X171340313Y-144774032D01*
X135722762Y-135264985D02*
X135758390Y-135264985D01*
X133070250Y-70633125D02*
X134071146Y-70372229D01*
X120268903Y-125164472D02*
X121830250Y-123603125D01*
X231141603Y-43437478D02*
X231141603Y-43418397D01*
X187316988Y-134398660D02*
X187322785Y-134398660D01*
X165132734Y-140488609D02*
X165132734Y-140631631D01*
X70330250Y-65623125D02*
X71990012Y-65614299D01*
X175257644Y-83635358D02*
X176497377Y-82395625D01*
X182659577Y-90401090D02*
X183317250Y-92563125D01*
X233057250Y-65793125D02*
X234856473Y-65659087D01*
X85539354Y-46233654D02*
X87140779Y-46233654D01*
X233750375Y-43935625D02*
X231141603Y-43437478D01*
X76443121Y-41983940D02*
X76011065Y-41983940D01*
X76011065Y-41983940D02*
X74200250Y-40173125D01*
X101912969Y-53845844D02*
X101890250Y-53823125D01*
X176387250Y-74113125D02*
X175810005Y-73445880D01*
X112686291Y-41379166D02*
X112686291Y-41352841D01*
X203921837Y-61868538D02*
X203816944Y-61868538D01*
X227418894Y-47441481D02*
X229286792Y-47441481D01*
X115723375Y-43075625D02*
X112686291Y-41379166D01*
X176497377Y-82395625D02*
X176520375Y-82395625D01*
X181109409Y-130245284D02*
X179307250Y-128443125D01*
X175428180Y-137624055D02*
X177537250Y-139733125D01*
X128609896Y-88403479D02*
X128580250Y-88433125D01*
X105728847Y-62364528D02*
X105431091Y-62123966D01*
X106862049Y-43524924D02*
X108599222Y-43606144D01*
X196247250Y-54623125D02*
X196237250Y-54633125D01*
X222287371Y-42558761D02*
X221821795Y-40958580D01*
X183915026Y-84417582D02*
X187607250Y-83723125D01*
X226974125Y-67119375D02*
X233057250Y-65793125D01*
X140968187Y-142441062D02*
X142740250Y-144213125D01*
X101912969Y-56410997D02*
X101912969Y-53845844D01*
X108690250Y-67803125D02*
X110190250Y-62253125D01*
X134071146Y-70372229D02*
X135842221Y-70372229D01*
X134763375Y-142415625D02*
X136730792Y-143741036D01*
X140838373Y-142441062D02*
X140968187Y-142441062D01*
X130321596Y-88403479D02*
X128609896Y-88403479D01*
X70873440Y-60201546D02*
X67800250Y-59273125D01*
X120244645Y-125164472D02*
X120268903Y-125164472D01*
X190817250Y-37713125D02*
X190817250Y-37633125D01*
X169680548Y-65654052D02*
X169680548Y-63996423D01*
X125511054Y-88433929D02*
X125511054Y-88696094D01*
X206070375Y-60815625D02*
X203921837Y-61868538D01*
X135758390Y-135264985D02*
X137290250Y-133733125D01*
X77559693Y-47396693D02*
X75755890Y-47107485D01*
X175392024Y-137624055D02*
X175428180Y-137624055D01*
X164602750Y-137356875D02*
X165132734Y-140488609D01*
X179314101Y-66199976D02*
X178345347Y-66199976D01*
X79940250Y-68833125D02*
X79950250Y-68823125D01*
X205671755Y-57845454D02*
X208619579Y-57845454D01*
X192770375Y-127125625D02*
X190918945Y-128331430D01*
X128500250Y-69303125D02*
X131080733Y-70478488D01*
X230380375Y-58385625D02*
X228860375Y-59445625D01*
D37*
X160752750Y-113017081D02*
X160752750Y-119595011D01*
X162975350Y-110794481D02*
X160752750Y-113017081D01*
X205242573Y-96854160D02*
X209489000Y-99116261D01*
X178048182Y-71812081D02*
X188573809Y-73636953D01*
X188573809Y-73636953D02*
X205242573Y-96854160D01*
X185597244Y-89115091D02*
X204051947Y-102807290D01*
X182968705Y-88162913D02*
X185597244Y-89115091D01*
X204051947Y-102807290D02*
X209489000Y-104196261D01*
X209409764Y-52800998D02*
X215643750Y-74036875D01*
X215643750Y-74036875D02*
X214143750Y-88286875D01*
X205837886Y-90305717D02*
X209489000Y-94036261D01*
X198694130Y-48633807D02*
X209409764Y-52800998D01*
X203507816Y-64106715D02*
X205837886Y-90305717D01*
X197938135Y-45889109D02*
X198694130Y-48633807D01*
X214143750Y-88286875D02*
X209489000Y-91496261D01*
X221316024Y-56968189D02*
X217148833Y-90305717D01*
X228977664Y-49679658D02*
X227864467Y-50419746D01*
X227864467Y-50419746D02*
X221316024Y-56968189D01*
X217148833Y-90305717D02*
X209489000Y-96576261D01*
X215362894Y-98044786D02*
X211751419Y-101656261D01*
X211751419Y-101656261D02*
X209489000Y-101656261D01*
X234547345Y-67897264D02*
X215362894Y-98044786D01*
X188729719Y-142537351D02*
X209489000Y-121778070D01*
X209489000Y-121778070D02*
X209489000Y-109276261D01*
X171020540Y-142537351D02*
X188729719Y-142537351D01*
X204051947Y-121261993D02*
X204051947Y-109355733D01*
X206671419Y-106736261D02*
X209489000Y-106736261D01*
X186997215Y-132161979D02*
X193151961Y-132161979D01*
X204051947Y-109355733D02*
X206671419Y-106736261D01*
X193151961Y-132161979D02*
X204051947Y-121261993D01*
X178272827Y-86142575D02*
X164872750Y-97786875D01*
X172703148Y-67924969D02*
X166564580Y-77294096D01*
X167755206Y-80865974D02*
X182638031Y-81461287D01*
X182638031Y-81461287D02*
X183476468Y-82983125D01*
X166564580Y-77294096D02*
X167755206Y-80865974D01*
X133040868Y-84708118D02*
X129311896Y-84708118D01*
X139408312Y-91075562D02*
X133040868Y-84708118D01*
X139408312Y-97786875D02*
X139408312Y-91075562D01*
X196925543Y-50505011D02*
X205233197Y-56410997D01*
X194459875Y-41352841D02*
X196925543Y-50505011D01*
X210742750Y-42635011D02*
X206301130Y-38193391D01*
X225499404Y-45143390D02*
X221928689Y-46933133D01*
X206301130Y-38193391D02*
X199663516Y-38193391D01*
X226652750Y-58775011D02*
X237532750Y-48035011D01*
X237532750Y-48035011D02*
X235482750Y-41915011D01*
X235482750Y-41915011D02*
X230703045Y-41983940D01*
X231069085Y-63360996D02*
X228442750Y-64185011D01*
X186057566Y-123778236D02*
X190955061Y-118880741D01*
X243827250Y-62373125D02*
X241261625Y-73072500D01*
X238880375Y-59333125D02*
X236272726Y-60201546D01*
X186057566Y-127042888D02*
X186057566Y-123778236D01*
X238580101Y-87329152D02*
X212521064Y-113388189D01*
X238580101Y-87329152D02*
X241261625Y-84647628D01*
X241261625Y-84647628D02*
X241261625Y-73072500D01*
X170080891Y-137418260D02*
X174926211Y-132572940D01*
X180867693Y-132572940D02*
X181926368Y-131514265D01*
X174926211Y-132572940D02*
X180867693Y-132572940D01*
X160752750Y-139280035D02*
X163570663Y-142097948D01*
X165741382Y-142097948D02*
X165949693Y-141889637D01*
X160752750Y-134835011D02*
X160752750Y-139280035D01*
X163570663Y-142097948D02*
X165741382Y-142097948D01*
D36*
X184406618Y-139121383D02*
X184406618Y-134193916D01*
X102681500Y-67445625D02*
X102681500Y-64540294D01*
X81180875Y-71376875D02*
X75102588Y-69826875D01*
X113390875Y-49846875D02*
X113390875Y-49716875D01*
X135952975Y-145862356D02*
X137990250Y-150023125D01*
X230245719Y-52205685D02*
X230794644Y-49124152D01*
X176967337Y-69469762D02*
X177492676Y-69995101D01*
X113390875Y-49716875D02*
X109549222Y-45656144D01*
X171281874Y-79131275D02*
X174286297Y-70065075D01*
X208070310Y-73488125D02*
X205324796Y-63551209D01*
X144745356Y-103174481D02*
X144170816Y-103174481D01*
X142250250Y-150293125D02*
X150389625Y-140128750D01*
X129289625Y-149926875D02*
X142250250Y-150293125D01*
X119519625Y-139688750D02*
X119976301Y-135486982D01*
X162975350Y-103174481D02*
X167178059Y-103174481D01*
X122922125Y-96020625D02*
X126494000Y-96020625D01*
X144170816Y-103174481D02*
X126494000Y-96020625D01*
X174881610Y-69469762D02*
X176967337Y-69469762D01*
X90775250Y-59111250D02*
X87216095Y-61505220D01*
X102681500Y-64540294D02*
X102976508Y-64245286D01*
X149833750Y-104983125D02*
X144745356Y-103174481D01*
X167178059Y-103174481D02*
X187978496Y-101616664D01*
X78509693Y-49446693D02*
X90775250Y-59111250D01*
X174286297Y-70065075D02*
X174881610Y-69469762D01*
X184406618Y-134193916D02*
X185403741Y-133196793D01*
X175678278Y-94674263D02*
X181151725Y-89200815D01*
X126494000Y-96020625D02*
X124733237Y-94259862D01*
X209395244Y-47457701D02*
X207271146Y-45333603D01*
X181151725Y-89200815D02*
X181151725Y-88718419D01*
X236237250Y-53183125D02*
X241596625Y-61053125D01*
X207271146Y-45333603D02*
X199755115Y-45333603D01*
X167178059Y-103174481D02*
X175678278Y-94674263D01*
X124733237Y-94259862D02*
X124733237Y-90817414D01*
X241596625Y-61053125D02*
X236364325Y-67341758D01*
X150389625Y-140128750D02*
X149833750Y-104983125D01*
X127684625Y-74589375D02*
X120603539Y-78098586D01*
X129503974Y-73398750D02*
X127684625Y-74589375D01*
X130302916Y-72599808D02*
X129503974Y-73398750D01*
X75102588Y-69826875D02*
X72940012Y-67664299D01*
D37*
X191567726Y-66578462D02*
X187995848Y-64197210D01*
X180256779Y-64197210D02*
X177906789Y-64765519D01*
X187995848Y-64197210D02*
X180256779Y-64197210D01*
X200029556Y-59570447D02*
X197520856Y-63601897D01*
X141655332Y-140865543D02*
X141655332Y-141183056D01*
X146393750Y-134835011D02*
X146393750Y-136127125D01*
X146393750Y-136127125D02*
X141655332Y-140865543D01*
X128800819Y-66199976D02*
X127380250Y-65423125D01*
X127380250Y-65423125D02*
X119350250Y-59111250D01*
X114121500Y-57815000D02*
X107555167Y-58135990D01*
X120881500Y-82405000D02*
X123231140Y-84417582D01*
X140191500Y-68465000D02*
X141111500Y-73285000D01*
X132220250Y-76003125D02*
X122001500Y-79375000D01*
X122001500Y-79375000D02*
X120881500Y-82405000D01*
X141111500Y-73285000D02*
X132220250Y-76003125D01*
X134881575Y-66490512D02*
X140191500Y-68465000D01*
X101101500Y-43405000D02*
X98351500Y-52465000D01*
X98351500Y-52465000D02*
X98431500Y-55585000D01*
X105456118Y-39627848D02*
X101101500Y-43405000D01*
X98431500Y-55585000D02*
X101474411Y-57845454D01*
X107044092Y-39627848D02*
X105456118Y-39627848D01*
X90699442Y-42442500D02*
X100250250Y-33483125D01*
X109825250Y-35298750D02*
X113397125Y-39646107D01*
X82085319Y-43708933D02*
X90699442Y-42442500D01*
X106253375Y-34108125D02*
X109825250Y-35298750D01*
X100250250Y-33483125D02*
X106253375Y-34108125D01*
X113397125Y-39646107D02*
X113124848Y-39918384D01*
X70910250Y-46603125D02*
X71410250Y-44693125D01*
X71410250Y-44693125D02*
X72734978Y-43418397D01*
X76515638Y-61926539D02*
X74106500Y-55539375D01*
X72734978Y-43418397D02*
X76004563Y-43418397D01*
X74106500Y-55539375D02*
X70910250Y-46603125D01*
X94282750Y-115006250D02*
X107444000Y-128167500D01*
X67110250Y-61923125D02*
X64690250Y-64343125D01*
X70434882Y-61636003D02*
X67110250Y-61923125D01*
X64690250Y-64343125D02*
X64690250Y-65053125D01*
X66656697Y-86823750D02*
X90282750Y-111006250D01*
X112206500Y-128167500D02*
X113902933Y-128852317D01*
X64690250Y-65053125D02*
X66656697Y-86823750D01*
X113902933Y-128852317D02*
X119913543Y-128852317D01*
X103893750Y-87286875D02*
X97653750Y-91496875D01*
X114593750Y-72586875D02*
X103893750Y-87286875D01*
X117193750Y-57086875D02*
X114593750Y-72586875D01*
X107649222Y-45656144D02*
X117193750Y-57086875D01*
X101633005Y-62901783D02*
X93156500Y-71378288D01*
X93156500Y-71378288D02*
X93593750Y-91386875D01*
X93593750Y-91386875D02*
X97657166Y-94036261D01*
X94902761Y-96576261D02*
X97657166Y-96576261D01*
X91965875Y-93639375D02*
X94902761Y-96576261D01*
X82440875Y-65064375D02*
X91965875Y-93639375D01*
X76609693Y-49446693D02*
X77678375Y-51967500D01*
X77678375Y-51967500D02*
X82440875Y-65064375D01*
X101490875Y-97211250D02*
X97657166Y-99116261D01*
X128959413Y-71256305D02*
X116969000Y-75780000D01*
X116969000Y-75780000D02*
X101490875Y-97211250D01*
X72915875Y-82923750D02*
X71040012Y-67664299D01*
X97657166Y-101656261D02*
X72915875Y-82923750D01*
X123389734Y-89473911D02*
X97657166Y-104196261D01*
X91965875Y-116261250D02*
X93156500Y-107926875D01*
X93156500Y-107926875D02*
X97657166Y-106736261D01*
X134609472Y-144518853D02*
X120223478Y-144518853D01*
X120223478Y-144518853D02*
X91965875Y-116261250D01*
X115801229Y-134143479D02*
X97657166Y-115999416D01*
X97657166Y-115999416D02*
X97657166Y-109276261D01*
X118632798Y-134143479D02*
X115801229Y-134143479D01*
X144170816Y-110794481D02*
X146393750Y-113017415D01*
X146393750Y-113017415D02*
X146393750Y-119595011D01*
X135890217Y-139227691D02*
X126494000Y-131739375D01*
X126494000Y-131739375D02*
X125678658Y-130807682D01*
M02*
