M48
; DRILL file {KiCad (6.0.10)} date Mon Jul 31 18:03:32 2023
; FORMAT={-:-/ absolute / metric / decimal}
; #@! TF.CreationDate,2023-07-31T18:03:32+01:00
; #@! TF.GenerationSoftware,Kicad,Pcbnew,(6.0.10)
; #@! TF.FileFunction,Plated,1,2,PTH
FMAT,2
METRIC
; #@! TA.AperFunction,Plated,PTH,ViaDrill
T1C0.300
; #@! TA.AperFunction,Plated,PTH,ViaDrill
T2C0.400
; #@! TA.AperFunction,Plated,PTH,ViaDrill
T3C0.450
; #@! TA.AperFunction,Plated,PTH,ViaDrill
T4C0.600
; #@! TA.AperFunction,Plated,PTH,ViaDrill
T5C0.750
; #@! TA.AperFunction,Plated,PTH,ComponentDrill
T6C1.000
; #@! TA.AperFunction,Plated,PTH,ComponentDrill
T7C1.200
%
G90
G05
T1
X90.283Y-111.006
X94.283Y-115.006
X212.521Y-113.388
X238.88Y-59.333
X243.827Y-62.373
T2
X112.206Y-128.167
X114.121Y-57.815
X119.35Y-59.111
X190.955Y-118.881
X191.568Y-66.578
X197.521Y-63.602
X210.743Y-42.635
X221.929Y-46.933
X226.653Y-58.775
X228.443Y-64.185
T3
X107.444Y-128.167
T4
X201.671Y-88.52
X208.07Y-73.488
T5
X67.8Y-59.273
X70.33Y-65.623
X74.2Y-40.173
X75.756Y-47.107
X79.95Y-68.823
X80.06Y-65.064
X81.181Y-71.377
X83.632Y-63.874
X84.77Y-48.443
X87.15Y-46.243
X87.216Y-61.505
X90.775Y-59.111
X90.775Y-65.064
X101.89Y-53.823
X102.681Y-67.446
X104.49Y-35.503
X105.729Y-62.365
X106.862Y-43.525
X108.69Y-67.803
X113.391Y-49.847
X114.371Y-61.165
X115.723Y-43.076
X117.785Y-98.777
X119.52Y-139.689
X120.604Y-78.099
X121.83Y-123.603
X122.14Y-118.989
X122.922Y-96.021
X122.994Y-87.617
X125.694Y-80.327
X126.59Y-134.363
X127.403Y-137.666
X127.734Y-63.677
X128.5Y-69.303
X128.58Y-88.433
X129.29Y-149.927
X133.07Y-70.633
X134.28Y-90.847
X134.49Y-106.459
X134.763Y-142.416
X137.21Y-112.689
X137.29Y-133.733
X138.779Y-72.467
X142.74Y-144.213
X164.603Y-137.357
X168.343Y-85.431
X169.647Y-63.963
X170.714Y-149.242
X171.282Y-79.131
X172.642Y-146.558
X174.922Y-105.106
X175.062Y-129.504
X175.678Y-94.674
X176.072Y-134.359
X176.387Y-74.113
X176.52Y-82.396
X177.537Y-139.733
X179.307Y-128.443
X181.267Y-66.723
X183.317Y-92.563
X184.407Y-139.121
X187.43Y-120.016
X187.587Y-83.743
X187.978Y-101.617
X189.077Y-136.153
X190.4Y-124.156
X190.747Y-37.563
X190.955Y-105.784
X192.77Y-127.126
X196.237Y-54.653
X200.589Y-42.915
X203.857Y-40.133
X206.07Y-60.816
X208.647Y-57.873
X209.395Y-47.458
X217.784Y-64.625
X221.822Y-40.959
X224.01Y-63.707
X226.898Y-47.893
X226.974Y-67.119
X230.246Y-52.206
X230.38Y-58.386
X233.75Y-43.936
X236.237Y-53.183
X238.59Y-62.046
T6
X97.654Y-88.957
X97.654Y-91.497
X97.654Y-94.037
X97.654Y-96.577
X97.654Y-99.117
X97.654Y-101.657
X97.654Y-104.197
X97.654Y-106.737
X97.654Y-109.277
X139.408Y-97.787
X144.171Y-103.174
X144.171Y-105.714
X144.171Y-108.254
X144.171Y-110.794
X162.975Y-103.174
X162.975Y-105.714
X162.975Y-108.254
X162.975Y-110.794
X164.873Y-97.787
X209.494Y-88.967
X209.494Y-91.507
X209.494Y-94.047
X209.494Y-96.587
X209.494Y-99.127
X209.494Y-101.667
X209.494Y-104.207
X209.494Y-106.747
X209.494Y-109.287
T7
X146.394Y-119.595
X146.394Y-134.835
X160.753Y-119.595
X160.753Y-134.835
T0
M30
