G04 #@! TF.GenerationSoftware,KiCad,Pcbnew,(6.0.10)*
G04 #@! TF.CreationDate,2023-07-31T18:02:39+01:00*
G04 #@! TF.ProjectId,magnetonekeys,6d61676e-6574-46f6-9e65-6b6579732e6b,rev?*
G04 #@! TF.SameCoordinates,Original*
G04 #@! TF.FileFunction,Paste,Bot*
G04 #@! TF.FilePolarity,Positive*
%FSLAX46Y46*%
G04 Gerber Fmt 4.6, Leading zero omitted, Abs format (unit mm)*
G04 Created by KiCad (PCBNEW (6.0.10)) date 2023-07-31 18:02:39*
%MOMM*%
%LPD*%
G01*
G04 APERTURE LIST*
G04 Aperture macros list*
%AMRoundRect*
0 Rectangle with rounded corners*
0 $1 Rounding radius*
0 $2 $3 $4 $5 $6 $7 $8 $9 X,Y pos of 4 corners*
0 Add a 4 corners polygon primitive as box body*
4,1,4,$2,$3,$4,$5,$6,$7,$8,$9,$2,$3,0*
0 Add four circle primitives for the rounded corners*
1,1,$1+$1,$2,$3*
1,1,$1+$1,$4,$5*
1,1,$1+$1,$6,$7*
1,1,$1+$1,$8,$9*
0 Add four rect primitives between the rounded corners*
20,1,$1+$1,$2,$3,$4,$5,0*
20,1,$1+$1,$4,$5,$6,$7,0*
20,1,$1+$1,$6,$7,$8,$9,0*
20,1,$1+$1,$8,$9,$2,$3,0*%
%AMRotRect*
0 Rectangle, with rotation*
0 The origin of the aperture is its center*
0 $1 length*
0 $2 width*
0 $3 Rotation angle, in degrees counterclockwise*
0 Add horizontal line*
21,1,$1,$2,0,0,$3*%
G04 Aperture macros list end*
%ADD10RoundRect,0.225000X0.443559X0.556332X-0.688646X-0.178930X-0.443559X-0.556332X0.688646X0.178930X0*%
%ADD11RoundRect,0.225000X-0.579722X-0.412519X0.711289X-0.017818X0.579722X0.412519X-0.711289X0.017818X0*%
%ADD12RoundRect,0.225000X-0.688646X0.178930X0.443559X-0.556332X0.688646X-0.178930X-0.443559X0.556332X0*%
%ADD13RoundRect,0.225000X-0.711289X-0.017818X0.579722X-0.412519X0.711289X0.017818X-0.579722X0.412519X0*%
%ADD14RoundRect,0.225000X0.711289X0.017818X-0.579722X0.412519X-0.711289X-0.017818X0.579722X-0.412519X0*%
%ADD15RotRect,0.800000X0.750000X56.000000*%
%ADD16RotRect,0.800000X0.750000X253.000000*%
%ADD17RoundRect,0.039200X0.405935X-0.504145X0.054621X0.644951X-0.405935X0.504145X-0.054621X-0.644951X0*%
%ADD18RoundRect,0.039200X-0.405935X0.504145X-0.054621X-0.644951X0.405935X-0.504145X0.054621X0.644951X0*%
%ADD19RotRect,0.800000X0.750000X73.000000*%
%ADD20RotRect,0.800000X0.750000X343.000000*%
%ADD21RotRect,0.800000X0.750000X107.000000*%
%ADD22RotRect,0.800000X0.750000X316.000000*%
%ADD23RoundRect,0.039200X-0.254558X-0.595101X0.595101X0.254558X0.254558X0.595101X-0.595101X-0.254558X0*%
%ADD24RoundRect,0.039200X-0.529171X0.372724X0.125267X-0.635022X0.529171X-0.372724X-0.125267X0.635022X0*%
%ADD25RoundRect,0.039200X0.240800X-0.600800X0.240800X0.600800X-0.240800X0.600800X-0.240800X-0.600800X0*%
%ADD26RoundRect,0.039200X0.504145X0.405935X-0.644951X0.054621X-0.504145X-0.405935X0.644951X-0.054621X0*%
%ADD27RotRect,0.800000X0.750000X348.000000*%
G04 APERTURE END LIST*
D10*
X170897849Y-138676266D03*
X170080891Y-137418260D03*
X165132734Y-140631631D03*
X165949693Y-141889637D03*
D11*
X177834270Y-84708118D03*
X178272827Y-86142575D03*
X183915026Y-84417582D03*
X183476468Y-82983125D03*
D10*
X186874524Y-128300894D03*
X186057566Y-127042888D03*
X181109409Y-130256259D03*
X181926368Y-131514265D03*
D12*
X120730501Y-127594311D03*
X119913543Y-128852317D03*
X124861699Y-132065688D03*
X125678658Y-130807682D03*
D13*
X107482650Y-38193391D03*
X107044092Y-39627848D03*
X112686291Y-41352841D03*
X113124848Y-39918384D03*
D14*
X81646762Y-45143390D03*
X82085319Y-43708933D03*
X76443121Y-41983940D03*
X76004563Y-43418397D03*
X134443018Y-67924969D03*
X134881575Y-66490512D03*
X129239377Y-64765519D03*
X128800819Y-66199976D03*
D12*
X136707175Y-137969685D03*
X135890217Y-139227691D03*
X140838373Y-142441062D03*
X141655332Y-141183056D03*
D14*
X107116610Y-59570447D03*
X107555167Y-58135990D03*
X101912969Y-56410997D03*
X101474411Y-57845454D03*
D11*
X172264591Y-66490512D03*
X172703148Y-67924969D03*
X178345347Y-66199976D03*
X177906789Y-64765519D03*
D14*
X128873339Y-86142575D03*
X129311896Y-84708118D03*
X123669698Y-82983125D03*
X123231140Y-84417582D03*
D11*
X194021318Y-39918384D03*
X194459875Y-41352841D03*
X200102074Y-39627848D03*
X199663516Y-38193391D03*
X225060847Y-43708933D03*
X225499404Y-45143390D03*
X231141603Y-43418397D03*
X230703045Y-41983940D03*
X230630528Y-61926539D03*
X231069085Y-63360996D03*
X236711284Y-61636003D03*
X236272726Y-60201546D03*
X199590999Y-58135990D03*
X200029556Y-59570447D03*
X205671755Y-57845454D03*
X205233197Y-56410997D03*
D14*
X76077081Y-63360996D03*
X76515638Y-61926539D03*
X70873440Y-60201546D03*
X70434882Y-61636003D03*
D15*
X119405855Y-126408028D03*
X120244645Y-125164472D03*
D16*
X78036333Y-64025526D03*
X77597775Y-65459984D03*
D17*
X230794644Y-49124152D03*
X228977664Y-49679658D03*
X229286792Y-47441481D03*
D18*
X181151725Y-88718419D03*
X182968705Y-88162913D03*
X182659577Y-90401090D03*
D19*
X105844432Y-37367402D03*
X106282990Y-35932944D03*
D17*
X199755115Y-45333603D03*
X197938135Y-45889109D03*
X198247263Y-43650932D03*
X205324796Y-63551209D03*
X203507816Y-64106715D03*
X203816944Y-61868538D03*
D20*
X84104896Y-45795096D03*
X85539354Y-46233654D03*
D21*
X170119106Y-67088510D03*
X169680548Y-65654052D03*
D22*
X188629617Y-127289442D03*
X189708627Y-128331430D03*
D21*
X222725929Y-43993219D03*
X222287371Y-42558761D03*
D16*
X136280779Y-68937771D03*
X135842221Y-70372229D03*
D23*
X130302916Y-72599808D03*
X128959413Y-71256305D03*
X131080733Y-70478488D03*
D24*
X169427066Y-143572165D03*
X171020540Y-142537351D03*
X171340313Y-144774032D03*
D21*
X197503504Y-58754128D03*
X197064946Y-57319670D03*
X175696202Y-85069816D03*
X175257644Y-83635358D03*
D16*
X130760154Y-86969021D03*
X130321596Y-88403479D03*
X109905838Y-59906254D03*
X109467280Y-61340712D03*
D25*
X78509693Y-49446693D03*
X76609693Y-49446693D03*
X77559693Y-47396693D03*
D26*
X177492676Y-69995101D03*
X178048182Y-71812081D03*
X175810005Y-71502953D03*
D17*
X236364325Y-67341758D03*
X234547345Y-67897264D03*
X234856473Y-65659087D03*
D23*
X124733237Y-90817414D03*
X123389734Y-89473911D03*
X125511054Y-88696094D03*
X135952975Y-145862356D03*
X134609472Y-144518853D03*
X136730792Y-143741036D03*
D27*
X173924802Y-137312187D03*
X175392024Y-137624055D03*
D21*
X228679059Y-62447922D03*
X228240501Y-61013464D03*
X191769653Y-40421341D03*
X191331095Y-38986883D03*
D25*
X72940012Y-67664299D03*
X71040012Y-67664299D03*
X71990012Y-65614299D03*
D23*
X102976508Y-64245286D03*
X101633005Y-62901783D03*
X103754325Y-62123966D03*
D15*
X134883972Y-136508541D03*
X135722762Y-135264985D03*
D24*
X185403741Y-133196793D03*
X186997215Y-132161979D03*
X187316988Y-134398660D03*
D23*
X119976301Y-135486982D03*
X118632798Y-134143479D03*
X120754118Y-133365662D03*
D25*
X109549222Y-45656144D03*
X107649222Y-45656144D03*
X108599222Y-43606144D03*
M02*
