%TF.GenerationSoftware,KiCad,Pcbnew,(6.0.10)*%
%TF.CreationDate,2023-07-31T18:03:33+01:00*%
%TF.ProjectId,magnetonekeys,6d61676e-6574-46f6-9e65-6b6579732e6b,rev?*%
%TF.SameCoordinates,Original*%
%TF.FileFunction,Drillmap*%
%TF.FilePolarity,Positive*%
%FSLAX45Y45*%
G04 Gerber Fmt 4.5, Leading zero omitted, Abs format (unit mm)*
G04 Created by KiCad (PCBNEW (6.0.10)) date 2023-07-31 18:03:33*
%MOMM*%
%LPD*%
G01*
G04 APERTURE LIST*
%ADD10C,0.100000*%
%ADD11C,0.200000*%
%ADD12C,0.030000*%
%ADD13C,0.040000*%
%ADD14C,0.045000*%
%ADD15C,0.060000*%
%ADD16C,0.075000*%
%ADD17C,0.120000*%
G04 APERTURE END LIST*
D10*
X15239375Y-14378687D02*
G75*
G03*
X15439375Y-14378687I100000J0D01*
G01*
X14839375Y-15778685D02*
G75*
G03*
X15239375Y-15378687I5J399995D01*
G01*
X5539375Y-3378687D02*
X5539375Y-10978688D01*
X17739375Y-2978684D02*
G75*
G03*
X17439375Y-3178687I5J-325006D01*
G01*
X15239375Y-7478687D02*
X15239375Y-9878688D01*
X5939375Y-2978687D02*
G75*
G03*
X5539375Y-3378687I0J-400000D01*
G01*
X15239375Y-15278687D02*
X15239375Y-15378687D01*
X5939375Y-2978687D02*
X12939375Y-2978687D01*
X15439375Y-10778688D02*
G75*
G03*
X15239375Y-10778688I-100000J0D01*
G01*
X15239375Y-9878688D02*
G75*
G03*
X15439375Y-9878688I100000J0D01*
G01*
X20339375Y-15778687D02*
X25139375Y-10978688D01*
X15439375Y-14378687D02*
X15439375Y-10778688D01*
X25139375Y-8578688D02*
X25139375Y-3361530D01*
X13239372Y-3178689D02*
G75*
G03*
X12939375Y-2978687I-300002J-125001D01*
G01*
X15439372Y-15378687D02*
G75*
G03*
X15839375Y-15778687I399998J-3D01*
G01*
X15839375Y-15778687D02*
X20339375Y-15778687D01*
X15439375Y-15278687D02*
G75*
G03*
X15239375Y-15278687I-100000J0D01*
G01*
X15239375Y-7478687D02*
X13239375Y-3178687D01*
X25139375Y-10978688D02*
X25139375Y-8578688D01*
X15439375Y-7478687D02*
X15439375Y-9878688D01*
X15439375Y-15278687D02*
X15439375Y-15378687D01*
X25139370Y-3361530D02*
G75*
G03*
X24739375Y-2978687I-383210J0D01*
G01*
X5539375Y-10978688D02*
X10339375Y-15778687D01*
X15239375Y-10778688D02*
X15239375Y-14378687D01*
X15439375Y-7478687D02*
X17439375Y-3178687D01*
X17739375Y-2978687D02*
X24739375Y-2978687D01*
X10339375Y-15778687D02*
X14839375Y-15778687D01*
D11*
D12*
X9013275Y-11085625D02*
X9043275Y-11115625D01*
X9043275Y-11085625D02*
X9013275Y-11115625D01*
X9413275Y-11485625D02*
X9443275Y-11515625D01*
X9443275Y-11485625D02*
X9413275Y-11515625D01*
X21237106Y-11323819D02*
X21267106Y-11353819D01*
X21267106Y-11323819D02*
X21237106Y-11353819D01*
X23873037Y-5918312D02*
X23903037Y-5948312D01*
X23903037Y-5918312D02*
X23873037Y-5948312D01*
X24367725Y-6222312D02*
X24397725Y-6252312D01*
X24397725Y-6222312D02*
X24367725Y-6252312D01*
D13*
X11240650Y-12816750D02*
G75*
G03*
X11240650Y-12816750I-20000J0D01*
G01*
X11432150Y-5781500D02*
G75*
G03*
X11432150Y-5781500I-20000J0D01*
G01*
X11955025Y-5911125D02*
G75*
G03*
X11955025Y-5911125I-20000J0D01*
G01*
X19115506Y-11888074D02*
G75*
G03*
X19115506Y-11888074I-20000J0D01*
G01*
X19176773Y-6657846D02*
G75*
G03*
X19176773Y-6657846I-20000J0D01*
G01*
X19772086Y-6360190D02*
G75*
G03*
X19772086Y-6360190I-20000J0D01*
G01*
X21094275Y-4263501D02*
G75*
G03*
X21094275Y-4263501I-20000J0D01*
G01*
X22212869Y-4693313D02*
G75*
G03*
X22212869Y-4693313I-20000J0D01*
G01*
X22685275Y-5877501D02*
G75*
G03*
X22685275Y-5877501I-20000J0D01*
G01*
X22864275Y-6418501D02*
G75*
G03*
X22864275Y-6418501I-20000J0D01*
G01*
D14*
X10744400Y-12794250D02*
X10744400Y-12839250D01*
X10721900Y-12816750D02*
X10766900Y-12816750D01*
D15*
X20188283Y-8873191D02*
X20188283Y-8830764D01*
X20145856Y-8830764D01*
X20145856Y-8873191D01*
X20188283Y-8873191D01*
X20828244Y-7370026D02*
X20828244Y-7327599D01*
X20785818Y-7327599D01*
X20785818Y-7370026D01*
X20828244Y-7370026D01*
D16*
X6780025Y-5964812D02*
X6817525Y-5927312D01*
X6780025Y-5889812D01*
X6742525Y-5927312D01*
X6780025Y-5964812D01*
X7033025Y-6599812D02*
X7070525Y-6562312D01*
X7033025Y-6524812D01*
X6995525Y-6562312D01*
X7033025Y-6599812D01*
X7420025Y-4054812D02*
X7457525Y-4017312D01*
X7420025Y-3979812D01*
X7382525Y-4017312D01*
X7420025Y-4054812D01*
X7575589Y-4748249D02*
X7613089Y-4710749D01*
X7575589Y-4673249D01*
X7538089Y-4710749D01*
X7575589Y-4748249D01*
X7995025Y-6919812D02*
X8032525Y-6882312D01*
X7995025Y-6844812D01*
X7957525Y-6882312D01*
X7995025Y-6919812D01*
X8005962Y-6543937D02*
X8043462Y-6506437D01*
X8005962Y-6468937D01*
X7968462Y-6506437D01*
X8005962Y-6543937D01*
X8118087Y-7175187D02*
X8155587Y-7137687D01*
X8118087Y-7100187D01*
X8080587Y-7137687D01*
X8118087Y-7175187D01*
X8363150Y-6424875D02*
X8400650Y-6387375D01*
X8363150Y-6349875D01*
X8325650Y-6387375D01*
X8363150Y-6424875D01*
X8477025Y-4881813D02*
X8514525Y-4844313D01*
X8477025Y-4806813D01*
X8439525Y-4844313D01*
X8477025Y-4881813D01*
X8715025Y-4661813D02*
X8752525Y-4624313D01*
X8715025Y-4586813D01*
X8677525Y-4624313D01*
X8715025Y-4661813D01*
X8721610Y-6188022D02*
X8759110Y-6150522D01*
X8721610Y-6113022D01*
X8684110Y-6150522D01*
X8721610Y-6188022D01*
X9077525Y-5948625D02*
X9115025Y-5911125D01*
X9077525Y-5873625D01*
X9040025Y-5911125D01*
X9077525Y-5948625D01*
X9077525Y-6543937D02*
X9115025Y-6506437D01*
X9077525Y-6468937D01*
X9040025Y-6506437D01*
X9077525Y-6543937D01*
X10189025Y-5419813D02*
X10226525Y-5382313D01*
X10189025Y-5344813D01*
X10151525Y-5382313D01*
X10189025Y-5419813D01*
X10268150Y-6782062D02*
X10305650Y-6744562D01*
X10268150Y-6707062D01*
X10230650Y-6744562D01*
X10268150Y-6782062D01*
X10449025Y-3587812D02*
X10486525Y-3550312D01*
X10449025Y-3512812D01*
X10411525Y-3550312D01*
X10449025Y-3587812D01*
X10572885Y-6273953D02*
X10610385Y-6236453D01*
X10572885Y-6198953D01*
X10535385Y-6236453D01*
X10572885Y-6273953D01*
X10686205Y-4389992D02*
X10723705Y-4352492D01*
X10686205Y-4314992D01*
X10648705Y-4352492D01*
X10686205Y-4389992D01*
X10869025Y-6817812D02*
X10906525Y-6780312D01*
X10869025Y-6742812D01*
X10831525Y-6780312D01*
X10869025Y-6817812D01*
X11339087Y-5022188D02*
X11376587Y-4984688D01*
X11339087Y-4947188D01*
X11301587Y-4984688D01*
X11339087Y-5022188D01*
X11437150Y-6154000D02*
X11474650Y-6116500D01*
X11437150Y-6079000D01*
X11399650Y-6116500D01*
X11437150Y-6154000D01*
X11572337Y-4345063D02*
X11609837Y-4307563D01*
X11572337Y-4270063D01*
X11534837Y-4307563D01*
X11572337Y-4345063D01*
X11778458Y-9915192D02*
X11815958Y-9877692D01*
X11778458Y-9840192D01*
X11740958Y-9877692D01*
X11778458Y-9915192D01*
X11951962Y-14006375D02*
X11989462Y-13968875D01*
X11951962Y-13931375D01*
X11914462Y-13968875D01*
X11951962Y-14006375D01*
X12060354Y-7847359D02*
X12097854Y-7809859D01*
X12060354Y-7772359D01*
X12022854Y-7809859D01*
X12060354Y-7847359D01*
X12183025Y-12397812D02*
X12220525Y-12360312D01*
X12183025Y-12322812D01*
X12145525Y-12360312D01*
X12183025Y-12397812D01*
X12213962Y-11936375D02*
X12251462Y-11898875D01*
X12213962Y-11861375D01*
X12176462Y-11898875D01*
X12213962Y-11936375D01*
X12292212Y-9639563D02*
X12329712Y-9602063D01*
X12292212Y-9564563D01*
X12254712Y-9602063D01*
X12292212Y-9639563D01*
X12299375Y-8799188D02*
X12336875Y-8761688D01*
X12299375Y-8724188D01*
X12261875Y-8761688D01*
X12299375Y-8799188D01*
X12569375Y-8070187D02*
X12606875Y-8032687D01*
X12569375Y-7995187D01*
X12531875Y-8032687D01*
X12569375Y-8070187D01*
X12659025Y-13473812D02*
X12696525Y-13436312D01*
X12659025Y-13398812D01*
X12621525Y-13436312D01*
X12659025Y-13473812D01*
X12740337Y-13804062D02*
X12777837Y-13766562D01*
X12740337Y-13729062D01*
X12702837Y-13766562D01*
X12740337Y-13804062D01*
X12773375Y-6405187D02*
X12810875Y-6367687D01*
X12773375Y-6330187D01*
X12735875Y-6367687D01*
X12773375Y-6405187D01*
X12850025Y-6967812D02*
X12887525Y-6930312D01*
X12850025Y-6892812D01*
X12812525Y-6930312D01*
X12850025Y-6967812D01*
X12858025Y-8880813D02*
X12895525Y-8843313D01*
X12858025Y-8805813D01*
X12820525Y-8843313D01*
X12858025Y-8880813D01*
X12928962Y-15030187D02*
X12966462Y-14992687D01*
X12928962Y-14955187D01*
X12891462Y-14992687D01*
X12928962Y-15030187D01*
X13307025Y-7100812D02*
X13344525Y-7063312D01*
X13307025Y-7025812D01*
X13269525Y-7063312D01*
X13307025Y-7100812D01*
X13428015Y-9122177D02*
X13465515Y-9084677D01*
X13428015Y-9047177D01*
X13390515Y-9084677D01*
X13428015Y-9122177D01*
X13448962Y-10683375D02*
X13486462Y-10645875D01*
X13448962Y-10608375D01*
X13411462Y-10645875D01*
X13448962Y-10683375D01*
X13476337Y-14279062D02*
X13513837Y-14241562D01*
X13476337Y-14204062D01*
X13438837Y-14241562D01*
X13476337Y-14279062D01*
X13720962Y-11306437D02*
X13758462Y-11268937D01*
X13720962Y-11231437D01*
X13683462Y-11268937D01*
X13720962Y-11306437D01*
X13729025Y-13410812D02*
X13766525Y-13373312D01*
X13729025Y-13335812D01*
X13691525Y-13373312D01*
X13729025Y-13410812D01*
X13877912Y-7284238D02*
X13915412Y-7246738D01*
X13877912Y-7209238D01*
X13840412Y-7246738D01*
X13877912Y-7284238D01*
X14274025Y-14458812D02*
X14311525Y-14421312D01*
X14274025Y-14383812D01*
X14236525Y-14421312D01*
X14274025Y-14458812D01*
X16460275Y-13773187D02*
X16497775Y-13735687D01*
X16460275Y-13698187D01*
X16422775Y-13735687D01*
X16460275Y-13773187D01*
X16834300Y-8580575D02*
X16871800Y-8543075D01*
X16834300Y-8505575D01*
X16796800Y-8543075D01*
X16834300Y-8580575D01*
X16964725Y-6433812D02*
X17002225Y-6396312D01*
X16964725Y-6358812D01*
X16927225Y-6396312D01*
X16964725Y-6433812D01*
X17071442Y-14961670D02*
X17108942Y-14924170D01*
X17071442Y-14886670D01*
X17033942Y-14924170D01*
X17071442Y-14961670D01*
X17128187Y-7950627D02*
X17165687Y-7913127D01*
X17128187Y-7875627D01*
X17090687Y-7913127D01*
X17128187Y-7950627D01*
X17264169Y-14693294D02*
X17301669Y-14655794D01*
X17264169Y-14618294D01*
X17226669Y-14655794D01*
X17264169Y-14693294D01*
X17492163Y-10548125D02*
X17529663Y-10510625D01*
X17492163Y-10473125D01*
X17454663Y-10510625D01*
X17492163Y-10548125D01*
X17506173Y-12987927D02*
X17543673Y-12950427D01*
X17506173Y-12912927D01*
X17468673Y-12950427D01*
X17506173Y-12987927D01*
X17567828Y-9504926D02*
X17605328Y-9467426D01*
X17567828Y-9429926D01*
X17530328Y-9467426D01*
X17567828Y-9504926D01*
X17607224Y-13473388D02*
X17644724Y-13435888D01*
X17607224Y-13398388D01*
X17569724Y-13435888D01*
X17607224Y-13473388D01*
X17638725Y-7448812D02*
X17676225Y-7411312D01*
X17638725Y-7373812D01*
X17601225Y-7411312D01*
X17638725Y-7448812D01*
X17652038Y-8277062D02*
X17689538Y-8239562D01*
X17652038Y-8202062D01*
X17614538Y-8239562D01*
X17652038Y-8277062D01*
X17753725Y-14010812D02*
X17791225Y-13973312D01*
X17753725Y-13935812D01*
X17716225Y-13973312D01*
X17753725Y-14010812D01*
X17930725Y-12881812D02*
X17968225Y-12844312D01*
X17930725Y-12806812D01*
X17893225Y-12844312D01*
X17930725Y-12881812D01*
X18126725Y-6709812D02*
X18164225Y-6672312D01*
X18126725Y-6634812D01*
X18089225Y-6672312D01*
X18126725Y-6709812D01*
X18331725Y-9293813D02*
X18369225Y-9256313D01*
X18331725Y-9218813D01*
X18294225Y-9256313D01*
X18331725Y-9293813D01*
X18440662Y-13949638D02*
X18478162Y-13912138D01*
X18440662Y-13874638D01*
X18403162Y-13912138D01*
X18440662Y-13949638D01*
X18743038Y-12039062D02*
X18780538Y-12001562D01*
X18743038Y-11964062D01*
X18705538Y-12001562D01*
X18743038Y-12039062D01*
X18758725Y-8411813D02*
X18796225Y-8374312D01*
X18758725Y-8336812D01*
X18721225Y-8374312D01*
X18758725Y-8411813D01*
X18797850Y-10199166D02*
X18835350Y-10161666D01*
X18797850Y-10124166D01*
X18760350Y-10161666D01*
X18797850Y-10199166D01*
X18907725Y-13652812D02*
X18945225Y-13615312D01*
X18907725Y-13577812D01*
X18870225Y-13615312D01*
X18907725Y-13652812D01*
X19039975Y-12453125D02*
X19077475Y-12415625D01*
X19039975Y-12378125D01*
X19002475Y-12415625D01*
X19039975Y-12453125D01*
X19074725Y-3793812D02*
X19112225Y-3756312D01*
X19074725Y-3718812D01*
X19037225Y-3756312D01*
X19074725Y-3793812D01*
X19095506Y-10615886D02*
X19133006Y-10578386D01*
X19095506Y-10540886D01*
X19058006Y-10578386D01*
X19095506Y-10615886D01*
X19277038Y-12750062D02*
X19314538Y-12712562D01*
X19277038Y-12675062D01*
X19239538Y-12712562D01*
X19277038Y-12750062D01*
X19623725Y-5502813D02*
X19661225Y-5465313D01*
X19623725Y-5427813D01*
X19586225Y-5465313D01*
X19623725Y-5502813D01*
X20058947Y-4328972D02*
X20096447Y-4291472D01*
X20058947Y-4253972D01*
X20021447Y-4291472D01*
X20058947Y-4328972D01*
X20385725Y-4050812D02*
X20423225Y-4013312D01*
X20385725Y-3975812D01*
X20348225Y-4013312D01*
X20385725Y-4050812D01*
X20607038Y-6119062D02*
X20644538Y-6081562D01*
X20607038Y-6044062D01*
X20569538Y-6081562D01*
X20607038Y-6119062D01*
X20864725Y-5824812D02*
X20902225Y-5787312D01*
X20864725Y-5749812D01*
X20827225Y-5787312D01*
X20864725Y-5824812D01*
X20939524Y-4783270D02*
X20977024Y-4745770D01*
X20939524Y-4708270D01*
X20902024Y-4745770D01*
X20939524Y-4783270D01*
X21778413Y-6500000D02*
X21815913Y-6462500D01*
X21778413Y-6425000D01*
X21740913Y-6462500D01*
X21778413Y-6500000D01*
X22182180Y-4133358D02*
X22219680Y-4095858D01*
X22182180Y-4058358D01*
X22144680Y-4095858D01*
X22182180Y-4133358D01*
X22400963Y-6408176D02*
X22438463Y-6370676D01*
X22400963Y-6333176D01*
X22363463Y-6370676D01*
X22400963Y-6408176D01*
X22689755Y-4826842D02*
X22727255Y-4789342D01*
X22689755Y-4751842D01*
X22652255Y-4789342D01*
X22689755Y-4826842D01*
X22697412Y-6749437D02*
X22734912Y-6711937D01*
X22697412Y-6674437D01*
X22659912Y-6711937D01*
X22697412Y-6749437D01*
X23024572Y-5258069D02*
X23062072Y-5220569D01*
X23024572Y-5183069D01*
X22987072Y-5220569D01*
X23024572Y-5258069D01*
X23038037Y-5876062D02*
X23075537Y-5838562D01*
X23038037Y-5801062D01*
X23000537Y-5838562D01*
X23038037Y-5876062D01*
X23375037Y-4431063D02*
X23412537Y-4393563D01*
X23375037Y-4356063D01*
X23337537Y-4393563D01*
X23375037Y-4431063D01*
X23623725Y-5355813D02*
X23661225Y-5318313D01*
X23623725Y-5280813D01*
X23586225Y-5318313D01*
X23623725Y-5355813D01*
X23859037Y-6242062D02*
X23896537Y-6204562D01*
X23859037Y-6167062D01*
X23821537Y-6204562D01*
X23859037Y-6242062D01*
D10*
X9715375Y-8845688D02*
X9815375Y-8945688D01*
X9815375Y-8845688D02*
X9715375Y-8945688D01*
X9815375Y-8895688D02*
G75*
G03*
X9815375Y-8895688I-50000J0D01*
G01*
X9715375Y-9099688D02*
X9815375Y-9199688D01*
X9815375Y-9099688D02*
X9715375Y-9199688D01*
X9815375Y-9149688D02*
G75*
G03*
X9815375Y-9149688I-50000J0D01*
G01*
X9715375Y-9353688D02*
X9815375Y-9453688D01*
X9815375Y-9353688D02*
X9715375Y-9453688D01*
X9815375Y-9403688D02*
G75*
G03*
X9815375Y-9403688I-50000J0D01*
G01*
X9715375Y-9607688D02*
X9815375Y-9707688D01*
X9815375Y-9607688D02*
X9715375Y-9707688D01*
X9815375Y-9657688D02*
G75*
G03*
X9815375Y-9657688I-50000J0D01*
G01*
X9715375Y-9861688D02*
X9815375Y-9961688D01*
X9815375Y-9861688D02*
X9715375Y-9961688D01*
X9815375Y-9911688D02*
G75*
G03*
X9815375Y-9911688I-50000J0D01*
G01*
X9715375Y-10115688D02*
X9815375Y-10215688D01*
X9815375Y-10115688D02*
X9715375Y-10215688D01*
X9815375Y-10165688D02*
G75*
G03*
X9815375Y-10165688I-50000J0D01*
G01*
X9715375Y-10369688D02*
X9815375Y-10469688D01*
X9815375Y-10369688D02*
X9715375Y-10469688D01*
X9815375Y-10419688D02*
G75*
G03*
X9815375Y-10419688I-50000J0D01*
G01*
X9715375Y-10623688D02*
X9815375Y-10723688D01*
X9815375Y-10623688D02*
X9715375Y-10723688D01*
X9815375Y-10673688D02*
G75*
G03*
X9815375Y-10673688I-50000J0D01*
G01*
X9715375Y-10877688D02*
X9815375Y-10977688D01*
X9815375Y-10877688D02*
X9715375Y-10977688D01*
X9815375Y-10927688D02*
G75*
G03*
X9815375Y-10927688I-50000J0D01*
G01*
X13890831Y-9728688D02*
X13990831Y-9828688D01*
X13990831Y-9728688D02*
X13890831Y-9828688D01*
X13990831Y-9778688D02*
G75*
G03*
X13990831Y-9778688I-50000J0D01*
G01*
X14367082Y-10267448D02*
X14467082Y-10367448D01*
X14467082Y-10267448D02*
X14367082Y-10367448D01*
X14467082Y-10317448D02*
G75*
G03*
X14467082Y-10317448I-50000J0D01*
G01*
X14367082Y-10521448D02*
X14467082Y-10621448D01*
X14467082Y-10521448D02*
X14367082Y-10621448D01*
X14467082Y-10571448D02*
G75*
G03*
X14467082Y-10571448I-50000J0D01*
G01*
X14367082Y-10775448D02*
X14467082Y-10875448D01*
X14467082Y-10775448D02*
X14367082Y-10875448D01*
X14467082Y-10825448D02*
G75*
G03*
X14467082Y-10825448I-50000J0D01*
G01*
X14367082Y-11029448D02*
X14467082Y-11129448D01*
X14467082Y-11029448D02*
X14367082Y-11129448D01*
X14467082Y-11079448D02*
G75*
G03*
X14467082Y-11079448I-50000J0D01*
G01*
X16247535Y-10267448D02*
X16347535Y-10367448D01*
X16347535Y-10267448D02*
X16247535Y-10367448D01*
X16347535Y-10317448D02*
G75*
G03*
X16347535Y-10317448I-50000J0D01*
G01*
X16247535Y-10521448D02*
X16347535Y-10621448D01*
X16347535Y-10521448D02*
X16247535Y-10621448D01*
X16347535Y-10571448D02*
G75*
G03*
X16347535Y-10571448I-50000J0D01*
G01*
X16247535Y-10775448D02*
X16347535Y-10875448D01*
X16347535Y-10775448D02*
X16247535Y-10875448D01*
X16347535Y-10825448D02*
G75*
G03*
X16347535Y-10825448I-50000J0D01*
G01*
X16247535Y-11029448D02*
X16347535Y-11129448D01*
X16347535Y-11029448D02*
X16247535Y-11129448D01*
X16347535Y-11079448D02*
G75*
G03*
X16347535Y-11079448I-50000J0D01*
G01*
X16437275Y-9728688D02*
X16537275Y-9828688D01*
X16537275Y-9728688D02*
X16437275Y-9828688D01*
X16537275Y-9778688D02*
G75*
G03*
X16537275Y-9778688I-50000J0D01*
G01*
X20899375Y-8846688D02*
X20999375Y-8946688D01*
X20999375Y-8846688D02*
X20899375Y-8946688D01*
X20999375Y-8896688D02*
G75*
G03*
X20999375Y-8896688I-50000J0D01*
G01*
X20899375Y-9100688D02*
X20999375Y-9200688D01*
X20999375Y-9100688D02*
X20899375Y-9200688D01*
X20999375Y-9150688D02*
G75*
G03*
X20999375Y-9150688I-50000J0D01*
G01*
X20899375Y-9354688D02*
X20999375Y-9454688D01*
X20999375Y-9354688D02*
X20899375Y-9454688D01*
X20999375Y-9404688D02*
G75*
G03*
X20999375Y-9404688I-50000J0D01*
G01*
X20899375Y-9608688D02*
X20999375Y-9708688D01*
X20999375Y-9608688D02*
X20899375Y-9708688D01*
X20999375Y-9658688D02*
G75*
G03*
X20999375Y-9658688I-50000J0D01*
G01*
X20899375Y-9862688D02*
X20999375Y-9962688D01*
X20999375Y-9862688D02*
X20899375Y-9962688D01*
X20999375Y-9912688D02*
G75*
G03*
X20999375Y-9912688I-50000J0D01*
G01*
X20899375Y-10116688D02*
X20999375Y-10216688D01*
X20999375Y-10116688D02*
X20899375Y-10216688D01*
X20999375Y-10166688D02*
G75*
G03*
X20999375Y-10166688I-50000J0D01*
G01*
X20899375Y-10370688D02*
X20999375Y-10470688D01*
X20999375Y-10370688D02*
X20899375Y-10470688D01*
X20999375Y-10420688D02*
G75*
G03*
X20999375Y-10420688I-50000J0D01*
G01*
X20899375Y-10624688D02*
X20999375Y-10724688D01*
X20999375Y-10624688D02*
X20899375Y-10724688D01*
X20999375Y-10674688D02*
G75*
G03*
X20999375Y-10674688I-50000J0D01*
G01*
X20899375Y-10878688D02*
X20999375Y-10978688D01*
X20999375Y-10878688D02*
X20899375Y-10978688D01*
X20999375Y-10928688D02*
G75*
G03*
X20999375Y-10928688I-50000J0D01*
G01*
D17*
X14579375Y-11899501D02*
X14699375Y-12019501D01*
X14699375Y-11899501D02*
X14579375Y-12019501D01*
X14639375Y-11899501D02*
X14639375Y-12019501D01*
X14579375Y-11959501D02*
X14699375Y-11959501D01*
X14579375Y-13423501D02*
X14699375Y-13543501D01*
X14699375Y-13423501D02*
X14579375Y-13543501D01*
X14639375Y-13423501D02*
X14639375Y-13543501D01*
X14579375Y-13483501D02*
X14699375Y-13483501D01*
X16015275Y-11899501D02*
X16135275Y-12019501D01*
X16135275Y-11899501D02*
X16015275Y-12019501D01*
X16075275Y-11899501D02*
X16075275Y-12019501D01*
X16015275Y-11959501D02*
X16135275Y-11959501D01*
X16015275Y-13423501D02*
X16135275Y-13543501D01*
X16135275Y-13423501D02*
X16015275Y-13543501D01*
X16075275Y-13423501D02*
X16075275Y-13543501D01*
X16015275Y-13483501D02*
X16135275Y-13483501D01*
D11*
X5791994Y-16094164D02*
X5791994Y-15894164D01*
X5839613Y-15894164D01*
X5868184Y-15903687D01*
X5887232Y-15922735D01*
X5896756Y-15941783D01*
X5906280Y-15979878D01*
X5906280Y-16008449D01*
X5896756Y-16046545D01*
X5887232Y-16065592D01*
X5868184Y-16084640D01*
X5839613Y-16094164D01*
X5791994Y-16094164D01*
X5991994Y-16094164D02*
X5991994Y-15960830D01*
X5991994Y-15998925D02*
X6001518Y-15979878D01*
X6011042Y-15970354D01*
X6030089Y-15960830D01*
X6049137Y-15960830D01*
X6115803Y-16094164D02*
X6115803Y-15960830D01*
X6115803Y-15894164D02*
X6106280Y-15903687D01*
X6115803Y-15913211D01*
X6125327Y-15903687D01*
X6115803Y-15894164D01*
X6115803Y-15913211D01*
X6239613Y-16094164D02*
X6220565Y-16084640D01*
X6211042Y-16065592D01*
X6211042Y-15894164D01*
X6344375Y-16094164D02*
X6325327Y-16084640D01*
X6315803Y-16065592D01*
X6315803Y-15894164D01*
X6572946Y-16094164D02*
X6572946Y-15894164D01*
X6639613Y-16037021D01*
X6706280Y-15894164D01*
X6706280Y-16094164D01*
X6887232Y-16094164D02*
X6887232Y-15989402D01*
X6877708Y-15970354D01*
X6858661Y-15960830D01*
X6820565Y-15960830D01*
X6801518Y-15970354D01*
X6887232Y-16084640D02*
X6868184Y-16094164D01*
X6820565Y-16094164D01*
X6801518Y-16084640D01*
X6791994Y-16065592D01*
X6791994Y-16046545D01*
X6801518Y-16027497D01*
X6820565Y-16017973D01*
X6868184Y-16017973D01*
X6887232Y-16008449D01*
X6982470Y-15960830D02*
X6982470Y-16160830D01*
X6982470Y-15970354D02*
X7001518Y-15960830D01*
X7039613Y-15960830D01*
X7058661Y-15970354D01*
X7068184Y-15979878D01*
X7077708Y-15998925D01*
X7077708Y-16056068D01*
X7068184Y-16075116D01*
X7058661Y-16084640D01*
X7039613Y-16094164D01*
X7001518Y-16094164D01*
X6982470Y-16084640D01*
X7163423Y-16075116D02*
X7172946Y-16084640D01*
X7163423Y-16094164D01*
X7153899Y-16084640D01*
X7163423Y-16075116D01*
X7163423Y-16094164D01*
X7163423Y-15970354D02*
X7172946Y-15979878D01*
X7163423Y-15989402D01*
X7153899Y-15979878D01*
X7163423Y-15970354D01*
X7163423Y-15989402D01*
D12*
X5504375Y-16408687D02*
X5534375Y-16438687D01*
X5534375Y-16408687D02*
X5504375Y-16438687D01*
D11*
X5830089Y-16314164D02*
X5849137Y-16314164D01*
X5868184Y-16323687D01*
X5877708Y-16333211D01*
X5887232Y-16352259D01*
X5896756Y-16390354D01*
X5896756Y-16437973D01*
X5887232Y-16476068D01*
X5877708Y-16495116D01*
X5868184Y-16504640D01*
X5849137Y-16514164D01*
X5830089Y-16514164D01*
X5811042Y-16504640D01*
X5801518Y-16495116D01*
X5791994Y-16476068D01*
X5782470Y-16437973D01*
X5782470Y-16390354D01*
X5791994Y-16352259D01*
X5801518Y-16333211D01*
X5811042Y-16323687D01*
X5830089Y-16314164D01*
X5982470Y-16495116D02*
X5991994Y-16504640D01*
X5982470Y-16514164D01*
X5972946Y-16504640D01*
X5982470Y-16495116D01*
X5982470Y-16514164D01*
X6058661Y-16314164D02*
X6182470Y-16314164D01*
X6115803Y-16390354D01*
X6144375Y-16390354D01*
X6163423Y-16399878D01*
X6172946Y-16409402D01*
X6182470Y-16428449D01*
X6182470Y-16476068D01*
X6172946Y-16495116D01*
X6163423Y-16504640D01*
X6144375Y-16514164D01*
X6087232Y-16514164D01*
X6068184Y-16504640D01*
X6058661Y-16495116D01*
X6306280Y-16314164D02*
X6325327Y-16314164D01*
X6344375Y-16323687D01*
X6353899Y-16333211D01*
X6363423Y-16352259D01*
X6372946Y-16390354D01*
X6372946Y-16437973D01*
X6363423Y-16476068D01*
X6353899Y-16495116D01*
X6344375Y-16504640D01*
X6325327Y-16514164D01*
X6306280Y-16514164D01*
X6287232Y-16504640D01*
X6277708Y-16495116D01*
X6268184Y-16476068D01*
X6258661Y-16437973D01*
X6258661Y-16390354D01*
X6268184Y-16352259D01*
X6277708Y-16333211D01*
X6287232Y-16323687D01*
X6306280Y-16314164D01*
X6496756Y-16314164D02*
X6515803Y-16314164D01*
X6534851Y-16323687D01*
X6544375Y-16333211D01*
X6553899Y-16352259D01*
X6563423Y-16390354D01*
X6563423Y-16437973D01*
X6553899Y-16476068D01*
X6544375Y-16495116D01*
X6534851Y-16504640D01*
X6515803Y-16514164D01*
X6496756Y-16514164D01*
X6477708Y-16504640D01*
X6468184Y-16495116D01*
X6458661Y-16476068D01*
X6449137Y-16437973D01*
X6449137Y-16390354D01*
X6458661Y-16352259D01*
X6468184Y-16333211D01*
X6477708Y-16323687D01*
X6496756Y-16314164D01*
X6649137Y-16514164D02*
X6649137Y-16380830D01*
X6649137Y-16399878D02*
X6658661Y-16390354D01*
X6677708Y-16380830D01*
X6706280Y-16380830D01*
X6725327Y-16390354D01*
X6734851Y-16409402D01*
X6734851Y-16514164D01*
X6734851Y-16409402D02*
X6744375Y-16390354D01*
X6763423Y-16380830D01*
X6791994Y-16380830D01*
X6811042Y-16390354D01*
X6820565Y-16409402D01*
X6820565Y-16514164D01*
X6915803Y-16514164D02*
X6915803Y-16380830D01*
X6915803Y-16399878D02*
X6925327Y-16390354D01*
X6944375Y-16380830D01*
X6972946Y-16380830D01*
X6991994Y-16390354D01*
X7001518Y-16409402D01*
X7001518Y-16514164D01*
X7001518Y-16409402D02*
X7011042Y-16390354D01*
X7030089Y-16380830D01*
X7058661Y-16380830D01*
X7077708Y-16390354D01*
X7087232Y-16409402D01*
X7087232Y-16514164D01*
X7477708Y-16304640D02*
X7306280Y-16561783D01*
X7734851Y-16314164D02*
X7753899Y-16314164D01*
X7772946Y-16323687D01*
X7782470Y-16333211D01*
X7791994Y-16352259D01*
X7801518Y-16390354D01*
X7801518Y-16437973D01*
X7791994Y-16476068D01*
X7782470Y-16495116D01*
X7772946Y-16504640D01*
X7753899Y-16514164D01*
X7734851Y-16514164D01*
X7715803Y-16504640D01*
X7706280Y-16495116D01*
X7696756Y-16476068D01*
X7687232Y-16437973D01*
X7687232Y-16390354D01*
X7696756Y-16352259D01*
X7706280Y-16333211D01*
X7715803Y-16323687D01*
X7734851Y-16314164D01*
X7887232Y-16495116D02*
X7896756Y-16504640D01*
X7887232Y-16514164D01*
X7877708Y-16504640D01*
X7887232Y-16495116D01*
X7887232Y-16514164D01*
X8020565Y-16314164D02*
X8039613Y-16314164D01*
X8058661Y-16323687D01*
X8068184Y-16333211D01*
X8077708Y-16352259D01*
X8087232Y-16390354D01*
X8087232Y-16437973D01*
X8077708Y-16476068D01*
X8068184Y-16495116D01*
X8058661Y-16504640D01*
X8039613Y-16514164D01*
X8020565Y-16514164D01*
X8001518Y-16504640D01*
X7991994Y-16495116D01*
X7982470Y-16476068D01*
X7972946Y-16437973D01*
X7972946Y-16390354D01*
X7982470Y-16352259D01*
X7991994Y-16333211D01*
X8001518Y-16323687D01*
X8020565Y-16314164D01*
X8277708Y-16514164D02*
X8163423Y-16514164D01*
X8220565Y-16514164D02*
X8220565Y-16314164D01*
X8201518Y-16342735D01*
X8182470Y-16361783D01*
X8163423Y-16371306D01*
X8468185Y-16514164D02*
X8353899Y-16514164D01*
X8411042Y-16514164D02*
X8411042Y-16314164D01*
X8391994Y-16342735D01*
X8372946Y-16361783D01*
X8353899Y-16371306D01*
X8582470Y-16399878D02*
X8563423Y-16390354D01*
X8553899Y-16380830D01*
X8544375Y-16361783D01*
X8544375Y-16352259D01*
X8553899Y-16333211D01*
X8563423Y-16323687D01*
X8582470Y-16314164D01*
X8620565Y-16314164D01*
X8639613Y-16323687D01*
X8649137Y-16333211D01*
X8658661Y-16352259D01*
X8658661Y-16361783D01*
X8649137Y-16380830D01*
X8639613Y-16390354D01*
X8620565Y-16399878D01*
X8582470Y-16399878D01*
X8563423Y-16409402D01*
X8553899Y-16418925D01*
X8544375Y-16437973D01*
X8544375Y-16476068D01*
X8553899Y-16495116D01*
X8563423Y-16504640D01*
X8582470Y-16514164D01*
X8620565Y-16514164D01*
X8639613Y-16504640D01*
X8649137Y-16495116D01*
X8658661Y-16476068D01*
X8658661Y-16437973D01*
X8649137Y-16418925D01*
X8639613Y-16409402D01*
X8620565Y-16399878D01*
X8734851Y-16314164D02*
X8734851Y-16352259D01*
X8811042Y-16314164D02*
X8811042Y-16352259D01*
X9106280Y-16590354D02*
X9096756Y-16580830D01*
X9077708Y-16552259D01*
X9068185Y-16533211D01*
X9058661Y-16504640D01*
X9049137Y-16457021D01*
X9049137Y-16418925D01*
X9058661Y-16371306D01*
X9068185Y-16342735D01*
X9077708Y-16323687D01*
X9096756Y-16295116D01*
X9106280Y-16285592D01*
X9277708Y-16314164D02*
X9182470Y-16314164D01*
X9172946Y-16409402D01*
X9182470Y-16399878D01*
X9201518Y-16390354D01*
X9249137Y-16390354D01*
X9268185Y-16399878D01*
X9277708Y-16409402D01*
X9287232Y-16428449D01*
X9287232Y-16476068D01*
X9277708Y-16495116D01*
X9268185Y-16504640D01*
X9249137Y-16514164D01*
X9201518Y-16514164D01*
X9182470Y-16504640D01*
X9172946Y-16495116D01*
X9525327Y-16514164D02*
X9525327Y-16314164D01*
X9611042Y-16514164D02*
X9611042Y-16409402D01*
X9601518Y-16390354D01*
X9582470Y-16380830D01*
X9553899Y-16380830D01*
X9534851Y-16390354D01*
X9525327Y-16399878D01*
X9734851Y-16514164D02*
X9715804Y-16504640D01*
X9706280Y-16495116D01*
X9696756Y-16476068D01*
X9696756Y-16418925D01*
X9706280Y-16399878D01*
X9715804Y-16390354D01*
X9734851Y-16380830D01*
X9763423Y-16380830D01*
X9782470Y-16390354D01*
X9791994Y-16399878D01*
X9801518Y-16418925D01*
X9801518Y-16476068D01*
X9791994Y-16495116D01*
X9782470Y-16504640D01*
X9763423Y-16514164D01*
X9734851Y-16514164D01*
X9915804Y-16514164D02*
X9896756Y-16504640D01*
X9887232Y-16485592D01*
X9887232Y-16314164D01*
X10068185Y-16504640D02*
X10049137Y-16514164D01*
X10011042Y-16514164D01*
X9991994Y-16504640D01*
X9982470Y-16485592D01*
X9982470Y-16409402D01*
X9991994Y-16390354D01*
X10011042Y-16380830D01*
X10049137Y-16380830D01*
X10068185Y-16390354D01*
X10077708Y-16409402D01*
X10077708Y-16428449D01*
X9982470Y-16447497D01*
X10153899Y-16504640D02*
X10172946Y-16514164D01*
X10211042Y-16514164D01*
X10230089Y-16504640D01*
X10239613Y-16485592D01*
X10239613Y-16476068D01*
X10230089Y-16457021D01*
X10211042Y-16447497D01*
X10182470Y-16447497D01*
X10163423Y-16437973D01*
X10153899Y-16418925D01*
X10153899Y-16409402D01*
X10163423Y-16390354D01*
X10182470Y-16380830D01*
X10211042Y-16380830D01*
X10230089Y-16390354D01*
X10306280Y-16590354D02*
X10315804Y-16580830D01*
X10334851Y-16552259D01*
X10344375Y-16533211D01*
X10353899Y-16504640D01*
X10363423Y-16457021D01*
X10363423Y-16418925D01*
X10353899Y-16371306D01*
X10344375Y-16342735D01*
X10334851Y-16323687D01*
X10315804Y-16295116D01*
X10306280Y-16285592D01*
D13*
X5534375Y-16687687D02*
G75*
G03*
X5534375Y-16687687I-20000J0D01*
G01*
D11*
X5830089Y-16578164D02*
X5849137Y-16578164D01*
X5868184Y-16587687D01*
X5877708Y-16597211D01*
X5887232Y-16616259D01*
X5896756Y-16654354D01*
X5896756Y-16701973D01*
X5887232Y-16740068D01*
X5877708Y-16759116D01*
X5868184Y-16768640D01*
X5849137Y-16778164D01*
X5830089Y-16778164D01*
X5811042Y-16768640D01*
X5801518Y-16759116D01*
X5791994Y-16740068D01*
X5782470Y-16701973D01*
X5782470Y-16654354D01*
X5791994Y-16616259D01*
X5801518Y-16597211D01*
X5811042Y-16587687D01*
X5830089Y-16578164D01*
X5982470Y-16759116D02*
X5991994Y-16768640D01*
X5982470Y-16778164D01*
X5972946Y-16768640D01*
X5982470Y-16759116D01*
X5982470Y-16778164D01*
X6163423Y-16644830D02*
X6163423Y-16778164D01*
X6115803Y-16568640D02*
X6068184Y-16711497D01*
X6191994Y-16711497D01*
X6306280Y-16578164D02*
X6325327Y-16578164D01*
X6344375Y-16587687D01*
X6353899Y-16597211D01*
X6363423Y-16616259D01*
X6372946Y-16654354D01*
X6372946Y-16701973D01*
X6363423Y-16740068D01*
X6353899Y-16759116D01*
X6344375Y-16768640D01*
X6325327Y-16778164D01*
X6306280Y-16778164D01*
X6287232Y-16768640D01*
X6277708Y-16759116D01*
X6268184Y-16740068D01*
X6258661Y-16701973D01*
X6258661Y-16654354D01*
X6268184Y-16616259D01*
X6277708Y-16597211D01*
X6287232Y-16587687D01*
X6306280Y-16578164D01*
X6496756Y-16578164D02*
X6515803Y-16578164D01*
X6534851Y-16587687D01*
X6544375Y-16597211D01*
X6553899Y-16616259D01*
X6563423Y-16654354D01*
X6563423Y-16701973D01*
X6553899Y-16740068D01*
X6544375Y-16759116D01*
X6534851Y-16768640D01*
X6515803Y-16778164D01*
X6496756Y-16778164D01*
X6477708Y-16768640D01*
X6468184Y-16759116D01*
X6458661Y-16740068D01*
X6449137Y-16701973D01*
X6449137Y-16654354D01*
X6458661Y-16616259D01*
X6468184Y-16597211D01*
X6477708Y-16587687D01*
X6496756Y-16578164D01*
X6649137Y-16778164D02*
X6649137Y-16644830D01*
X6649137Y-16663878D02*
X6658661Y-16654354D01*
X6677708Y-16644830D01*
X6706280Y-16644830D01*
X6725327Y-16654354D01*
X6734851Y-16673402D01*
X6734851Y-16778164D01*
X6734851Y-16673402D02*
X6744375Y-16654354D01*
X6763423Y-16644830D01*
X6791994Y-16644830D01*
X6811042Y-16654354D01*
X6820565Y-16673402D01*
X6820565Y-16778164D01*
X6915803Y-16778164D02*
X6915803Y-16644830D01*
X6915803Y-16663878D02*
X6925327Y-16654354D01*
X6944375Y-16644830D01*
X6972946Y-16644830D01*
X6991994Y-16654354D01*
X7001518Y-16673402D01*
X7001518Y-16778164D01*
X7001518Y-16673402D02*
X7011042Y-16654354D01*
X7030089Y-16644830D01*
X7058661Y-16644830D01*
X7077708Y-16654354D01*
X7087232Y-16673402D01*
X7087232Y-16778164D01*
X7477708Y-16568640D02*
X7306280Y-16825783D01*
X7734851Y-16578164D02*
X7753899Y-16578164D01*
X7772946Y-16587687D01*
X7782470Y-16597211D01*
X7791994Y-16616259D01*
X7801518Y-16654354D01*
X7801518Y-16701973D01*
X7791994Y-16740068D01*
X7782470Y-16759116D01*
X7772946Y-16768640D01*
X7753899Y-16778164D01*
X7734851Y-16778164D01*
X7715803Y-16768640D01*
X7706280Y-16759116D01*
X7696756Y-16740068D01*
X7687232Y-16701973D01*
X7687232Y-16654354D01*
X7696756Y-16616259D01*
X7706280Y-16597211D01*
X7715803Y-16587687D01*
X7734851Y-16578164D01*
X7887232Y-16759116D02*
X7896756Y-16768640D01*
X7887232Y-16778164D01*
X7877708Y-16768640D01*
X7887232Y-16759116D01*
X7887232Y-16778164D01*
X8020565Y-16578164D02*
X8039613Y-16578164D01*
X8058661Y-16587687D01*
X8068184Y-16597211D01*
X8077708Y-16616259D01*
X8087232Y-16654354D01*
X8087232Y-16701973D01*
X8077708Y-16740068D01*
X8068184Y-16759116D01*
X8058661Y-16768640D01*
X8039613Y-16778164D01*
X8020565Y-16778164D01*
X8001518Y-16768640D01*
X7991994Y-16759116D01*
X7982470Y-16740068D01*
X7972946Y-16701973D01*
X7972946Y-16654354D01*
X7982470Y-16616259D01*
X7991994Y-16597211D01*
X8001518Y-16587687D01*
X8020565Y-16578164D01*
X8277708Y-16778164D02*
X8163423Y-16778164D01*
X8220565Y-16778164D02*
X8220565Y-16578164D01*
X8201518Y-16606735D01*
X8182470Y-16625783D01*
X8163423Y-16635306D01*
X8458661Y-16578164D02*
X8363423Y-16578164D01*
X8353899Y-16673402D01*
X8363423Y-16663878D01*
X8382470Y-16654354D01*
X8430089Y-16654354D01*
X8449137Y-16663878D01*
X8458661Y-16673402D01*
X8468185Y-16692449D01*
X8468185Y-16740068D01*
X8458661Y-16759116D01*
X8449137Y-16768640D01*
X8430089Y-16778164D01*
X8382470Y-16778164D01*
X8363423Y-16768640D01*
X8353899Y-16759116D01*
X8534851Y-16578164D02*
X8668185Y-16578164D01*
X8582470Y-16778164D01*
X8734851Y-16578164D02*
X8734851Y-16616259D01*
X8811042Y-16578164D02*
X8811042Y-16616259D01*
X9106280Y-16854354D02*
X9096756Y-16844830D01*
X9077708Y-16816259D01*
X9068185Y-16797211D01*
X9058661Y-16768640D01*
X9049137Y-16721021D01*
X9049137Y-16682925D01*
X9058661Y-16635306D01*
X9068185Y-16606735D01*
X9077708Y-16587687D01*
X9096756Y-16559116D01*
X9106280Y-16549592D01*
X9287232Y-16778164D02*
X9172946Y-16778164D01*
X9230089Y-16778164D02*
X9230089Y-16578164D01*
X9211042Y-16606735D01*
X9191994Y-16625783D01*
X9172946Y-16635306D01*
X9411042Y-16578164D02*
X9430089Y-16578164D01*
X9449137Y-16587687D01*
X9458661Y-16597211D01*
X9468185Y-16616259D01*
X9477708Y-16654354D01*
X9477708Y-16701973D01*
X9468185Y-16740068D01*
X9458661Y-16759116D01*
X9449137Y-16768640D01*
X9430089Y-16778164D01*
X9411042Y-16778164D01*
X9391994Y-16768640D01*
X9382470Y-16759116D01*
X9372946Y-16740068D01*
X9363423Y-16701973D01*
X9363423Y-16654354D01*
X9372946Y-16616259D01*
X9382470Y-16597211D01*
X9391994Y-16587687D01*
X9411042Y-16578164D01*
X9715804Y-16778164D02*
X9715804Y-16578164D01*
X9801518Y-16778164D02*
X9801518Y-16673402D01*
X9791994Y-16654354D01*
X9772946Y-16644830D01*
X9744375Y-16644830D01*
X9725327Y-16654354D01*
X9715804Y-16663878D01*
X9925327Y-16778164D02*
X9906280Y-16768640D01*
X9896756Y-16759116D01*
X9887232Y-16740068D01*
X9887232Y-16682925D01*
X9896756Y-16663878D01*
X9906280Y-16654354D01*
X9925327Y-16644830D01*
X9953899Y-16644830D01*
X9972946Y-16654354D01*
X9982470Y-16663878D01*
X9991994Y-16682925D01*
X9991994Y-16740068D01*
X9982470Y-16759116D01*
X9972946Y-16768640D01*
X9953899Y-16778164D01*
X9925327Y-16778164D01*
X10106280Y-16778164D02*
X10087232Y-16768640D01*
X10077708Y-16749592D01*
X10077708Y-16578164D01*
X10258661Y-16768640D02*
X10239613Y-16778164D01*
X10201518Y-16778164D01*
X10182470Y-16768640D01*
X10172946Y-16749592D01*
X10172946Y-16673402D01*
X10182470Y-16654354D01*
X10201518Y-16644830D01*
X10239613Y-16644830D01*
X10258661Y-16654354D01*
X10268185Y-16673402D01*
X10268185Y-16692449D01*
X10172946Y-16711497D01*
X10344375Y-16768640D02*
X10363423Y-16778164D01*
X10401518Y-16778164D01*
X10420565Y-16768640D01*
X10430089Y-16749592D01*
X10430089Y-16740068D01*
X10420565Y-16721021D01*
X10401518Y-16711497D01*
X10372946Y-16711497D01*
X10353899Y-16701973D01*
X10344375Y-16682925D01*
X10344375Y-16673402D01*
X10353899Y-16654354D01*
X10372946Y-16644830D01*
X10401518Y-16644830D01*
X10420565Y-16654354D01*
X10496756Y-16854354D02*
X10506280Y-16844830D01*
X10525327Y-16816259D01*
X10534851Y-16797211D01*
X10544375Y-16768640D01*
X10553899Y-16721021D01*
X10553899Y-16682925D01*
X10544375Y-16635306D01*
X10534851Y-16606735D01*
X10525327Y-16587687D01*
X10506280Y-16559116D01*
X10496756Y-16549592D01*
D14*
X5511875Y-16929188D02*
X5511875Y-16974188D01*
X5489375Y-16951688D02*
X5534375Y-16951688D01*
D11*
X5830089Y-16842164D02*
X5849137Y-16842164D01*
X5868184Y-16851688D01*
X5877708Y-16861211D01*
X5887232Y-16880259D01*
X5896756Y-16918354D01*
X5896756Y-16965973D01*
X5887232Y-17004068D01*
X5877708Y-17023116D01*
X5868184Y-17032640D01*
X5849137Y-17042164D01*
X5830089Y-17042164D01*
X5811042Y-17032640D01*
X5801518Y-17023116D01*
X5791994Y-17004068D01*
X5782470Y-16965973D01*
X5782470Y-16918354D01*
X5791994Y-16880259D01*
X5801518Y-16861211D01*
X5811042Y-16851688D01*
X5830089Y-16842164D01*
X5982470Y-17023116D02*
X5991994Y-17032640D01*
X5982470Y-17042164D01*
X5972946Y-17032640D01*
X5982470Y-17023116D01*
X5982470Y-17042164D01*
X6163423Y-16908830D02*
X6163423Y-17042164D01*
X6115803Y-16832640D02*
X6068184Y-16975497D01*
X6191994Y-16975497D01*
X6363423Y-16842164D02*
X6268184Y-16842164D01*
X6258661Y-16937402D01*
X6268184Y-16927878D01*
X6287232Y-16918354D01*
X6334851Y-16918354D01*
X6353899Y-16927878D01*
X6363423Y-16937402D01*
X6372946Y-16956449D01*
X6372946Y-17004068D01*
X6363423Y-17023116D01*
X6353899Y-17032640D01*
X6334851Y-17042164D01*
X6287232Y-17042164D01*
X6268184Y-17032640D01*
X6258661Y-17023116D01*
X6496756Y-16842164D02*
X6515803Y-16842164D01*
X6534851Y-16851688D01*
X6544375Y-16861211D01*
X6553899Y-16880259D01*
X6563423Y-16918354D01*
X6563423Y-16965973D01*
X6553899Y-17004068D01*
X6544375Y-17023116D01*
X6534851Y-17032640D01*
X6515803Y-17042164D01*
X6496756Y-17042164D01*
X6477708Y-17032640D01*
X6468184Y-17023116D01*
X6458661Y-17004068D01*
X6449137Y-16965973D01*
X6449137Y-16918354D01*
X6458661Y-16880259D01*
X6468184Y-16861211D01*
X6477708Y-16851688D01*
X6496756Y-16842164D01*
X6649137Y-17042164D02*
X6649137Y-16908830D01*
X6649137Y-16927878D02*
X6658661Y-16918354D01*
X6677708Y-16908830D01*
X6706280Y-16908830D01*
X6725327Y-16918354D01*
X6734851Y-16937402D01*
X6734851Y-17042164D01*
X6734851Y-16937402D02*
X6744375Y-16918354D01*
X6763423Y-16908830D01*
X6791994Y-16908830D01*
X6811042Y-16918354D01*
X6820565Y-16937402D01*
X6820565Y-17042164D01*
X6915803Y-17042164D02*
X6915803Y-16908830D01*
X6915803Y-16927878D02*
X6925327Y-16918354D01*
X6944375Y-16908830D01*
X6972946Y-16908830D01*
X6991994Y-16918354D01*
X7001518Y-16937402D01*
X7001518Y-17042164D01*
X7001518Y-16937402D02*
X7011042Y-16918354D01*
X7030089Y-16908830D01*
X7058661Y-16908830D01*
X7077708Y-16918354D01*
X7087232Y-16937402D01*
X7087232Y-17042164D01*
X7477708Y-16832640D02*
X7306280Y-17089783D01*
X7734851Y-16842164D02*
X7753899Y-16842164D01*
X7772946Y-16851688D01*
X7782470Y-16861211D01*
X7791994Y-16880259D01*
X7801518Y-16918354D01*
X7801518Y-16965973D01*
X7791994Y-17004068D01*
X7782470Y-17023116D01*
X7772946Y-17032640D01*
X7753899Y-17042164D01*
X7734851Y-17042164D01*
X7715803Y-17032640D01*
X7706280Y-17023116D01*
X7696756Y-17004068D01*
X7687232Y-16965973D01*
X7687232Y-16918354D01*
X7696756Y-16880259D01*
X7706280Y-16861211D01*
X7715803Y-16851688D01*
X7734851Y-16842164D01*
X7887232Y-17023116D02*
X7896756Y-17032640D01*
X7887232Y-17042164D01*
X7877708Y-17032640D01*
X7887232Y-17023116D01*
X7887232Y-17042164D01*
X8020565Y-16842164D02*
X8039613Y-16842164D01*
X8058661Y-16851688D01*
X8068184Y-16861211D01*
X8077708Y-16880259D01*
X8087232Y-16918354D01*
X8087232Y-16965973D01*
X8077708Y-17004068D01*
X8068184Y-17023116D01*
X8058661Y-17032640D01*
X8039613Y-17042164D01*
X8020565Y-17042164D01*
X8001518Y-17032640D01*
X7991994Y-17023116D01*
X7982470Y-17004068D01*
X7972946Y-16965973D01*
X7972946Y-16918354D01*
X7982470Y-16880259D01*
X7991994Y-16861211D01*
X8001518Y-16851688D01*
X8020565Y-16842164D01*
X8277708Y-17042164D02*
X8163423Y-17042164D01*
X8220565Y-17042164D02*
X8220565Y-16842164D01*
X8201518Y-16870735D01*
X8182470Y-16889783D01*
X8163423Y-16899307D01*
X8344375Y-16842164D02*
X8477708Y-16842164D01*
X8391994Y-17042164D01*
X8534851Y-16842164D02*
X8668185Y-16842164D01*
X8582470Y-17042164D01*
X8734851Y-16842164D02*
X8734851Y-16880259D01*
X8811042Y-16842164D02*
X8811042Y-16880259D01*
X9106280Y-17118354D02*
X9096756Y-17108830D01*
X9077708Y-17080259D01*
X9068185Y-17061211D01*
X9058661Y-17032640D01*
X9049137Y-16985021D01*
X9049137Y-16946926D01*
X9058661Y-16899307D01*
X9068185Y-16870735D01*
X9077708Y-16851688D01*
X9096756Y-16823116D01*
X9106280Y-16813592D01*
X9287232Y-17042164D02*
X9172946Y-17042164D01*
X9230089Y-17042164D02*
X9230089Y-16842164D01*
X9211042Y-16870735D01*
X9191994Y-16889783D01*
X9172946Y-16899307D01*
X9525327Y-17042164D02*
X9525327Y-16842164D01*
X9611042Y-17042164D02*
X9611042Y-16937402D01*
X9601518Y-16918354D01*
X9582470Y-16908830D01*
X9553899Y-16908830D01*
X9534851Y-16918354D01*
X9525327Y-16927878D01*
X9734851Y-17042164D02*
X9715804Y-17032640D01*
X9706280Y-17023116D01*
X9696756Y-17004068D01*
X9696756Y-16946926D01*
X9706280Y-16927878D01*
X9715804Y-16918354D01*
X9734851Y-16908830D01*
X9763423Y-16908830D01*
X9782470Y-16918354D01*
X9791994Y-16927878D01*
X9801518Y-16946926D01*
X9801518Y-17004068D01*
X9791994Y-17023116D01*
X9782470Y-17032640D01*
X9763423Y-17042164D01*
X9734851Y-17042164D01*
X9915804Y-17042164D02*
X9896756Y-17032640D01*
X9887232Y-17013592D01*
X9887232Y-16842164D01*
X10068185Y-17032640D02*
X10049137Y-17042164D01*
X10011042Y-17042164D01*
X9991994Y-17032640D01*
X9982470Y-17013592D01*
X9982470Y-16937402D01*
X9991994Y-16918354D01*
X10011042Y-16908830D01*
X10049137Y-16908830D01*
X10068185Y-16918354D01*
X10077708Y-16937402D01*
X10077708Y-16956449D01*
X9982470Y-16975497D01*
X10144375Y-17118354D02*
X10153899Y-17108830D01*
X10172946Y-17080259D01*
X10182470Y-17061211D01*
X10191994Y-17032640D01*
X10201518Y-16985021D01*
X10201518Y-16946926D01*
X10191994Y-16899307D01*
X10182470Y-16870735D01*
X10172946Y-16851688D01*
X10153899Y-16823116D01*
X10144375Y-16813592D01*
D15*
X5525588Y-17236901D02*
X5525588Y-17194474D01*
X5483162Y-17194474D01*
X5483162Y-17236901D01*
X5525588Y-17236901D01*
D11*
X5830089Y-17106164D02*
X5849137Y-17106164D01*
X5868184Y-17115688D01*
X5877708Y-17125211D01*
X5887232Y-17144259D01*
X5896756Y-17182354D01*
X5896756Y-17229973D01*
X5887232Y-17268068D01*
X5877708Y-17287116D01*
X5868184Y-17296640D01*
X5849137Y-17306164D01*
X5830089Y-17306164D01*
X5811042Y-17296640D01*
X5801518Y-17287116D01*
X5791994Y-17268068D01*
X5782470Y-17229973D01*
X5782470Y-17182354D01*
X5791994Y-17144259D01*
X5801518Y-17125211D01*
X5811042Y-17115688D01*
X5830089Y-17106164D01*
X5982470Y-17287116D02*
X5991994Y-17296640D01*
X5982470Y-17306164D01*
X5972946Y-17296640D01*
X5982470Y-17287116D01*
X5982470Y-17306164D01*
X6163423Y-17106164D02*
X6125327Y-17106164D01*
X6106280Y-17115688D01*
X6096756Y-17125211D01*
X6077708Y-17153783D01*
X6068184Y-17191878D01*
X6068184Y-17268068D01*
X6077708Y-17287116D01*
X6087232Y-17296640D01*
X6106280Y-17306164D01*
X6144375Y-17306164D01*
X6163423Y-17296640D01*
X6172946Y-17287116D01*
X6182470Y-17268068D01*
X6182470Y-17220449D01*
X6172946Y-17201402D01*
X6163423Y-17191878D01*
X6144375Y-17182354D01*
X6106280Y-17182354D01*
X6087232Y-17191878D01*
X6077708Y-17201402D01*
X6068184Y-17220449D01*
X6306280Y-17106164D02*
X6325327Y-17106164D01*
X6344375Y-17115688D01*
X6353899Y-17125211D01*
X6363423Y-17144259D01*
X6372946Y-17182354D01*
X6372946Y-17229973D01*
X6363423Y-17268068D01*
X6353899Y-17287116D01*
X6344375Y-17296640D01*
X6325327Y-17306164D01*
X6306280Y-17306164D01*
X6287232Y-17296640D01*
X6277708Y-17287116D01*
X6268184Y-17268068D01*
X6258661Y-17229973D01*
X6258661Y-17182354D01*
X6268184Y-17144259D01*
X6277708Y-17125211D01*
X6287232Y-17115688D01*
X6306280Y-17106164D01*
X6496756Y-17106164D02*
X6515803Y-17106164D01*
X6534851Y-17115688D01*
X6544375Y-17125211D01*
X6553899Y-17144259D01*
X6563423Y-17182354D01*
X6563423Y-17229973D01*
X6553899Y-17268068D01*
X6544375Y-17287116D01*
X6534851Y-17296640D01*
X6515803Y-17306164D01*
X6496756Y-17306164D01*
X6477708Y-17296640D01*
X6468184Y-17287116D01*
X6458661Y-17268068D01*
X6449137Y-17229973D01*
X6449137Y-17182354D01*
X6458661Y-17144259D01*
X6468184Y-17125211D01*
X6477708Y-17115688D01*
X6496756Y-17106164D01*
X6649137Y-17306164D02*
X6649137Y-17172830D01*
X6649137Y-17191878D02*
X6658661Y-17182354D01*
X6677708Y-17172830D01*
X6706280Y-17172830D01*
X6725327Y-17182354D01*
X6734851Y-17201402D01*
X6734851Y-17306164D01*
X6734851Y-17201402D02*
X6744375Y-17182354D01*
X6763423Y-17172830D01*
X6791994Y-17172830D01*
X6811042Y-17182354D01*
X6820565Y-17201402D01*
X6820565Y-17306164D01*
X6915803Y-17306164D02*
X6915803Y-17172830D01*
X6915803Y-17191878D02*
X6925327Y-17182354D01*
X6944375Y-17172830D01*
X6972946Y-17172830D01*
X6991994Y-17182354D01*
X7001518Y-17201402D01*
X7001518Y-17306164D01*
X7001518Y-17201402D02*
X7011042Y-17182354D01*
X7030089Y-17172830D01*
X7058661Y-17172830D01*
X7077708Y-17182354D01*
X7087232Y-17201402D01*
X7087232Y-17306164D01*
X7477708Y-17096640D02*
X7306280Y-17353783D01*
X7734851Y-17106164D02*
X7753899Y-17106164D01*
X7772946Y-17115688D01*
X7782470Y-17125211D01*
X7791994Y-17144259D01*
X7801518Y-17182354D01*
X7801518Y-17229973D01*
X7791994Y-17268068D01*
X7782470Y-17287116D01*
X7772946Y-17296640D01*
X7753899Y-17306164D01*
X7734851Y-17306164D01*
X7715803Y-17296640D01*
X7706280Y-17287116D01*
X7696756Y-17268068D01*
X7687232Y-17229973D01*
X7687232Y-17182354D01*
X7696756Y-17144259D01*
X7706280Y-17125211D01*
X7715803Y-17115688D01*
X7734851Y-17106164D01*
X7887232Y-17287116D02*
X7896756Y-17296640D01*
X7887232Y-17306164D01*
X7877708Y-17296640D01*
X7887232Y-17287116D01*
X7887232Y-17306164D01*
X8020565Y-17106164D02*
X8039613Y-17106164D01*
X8058661Y-17115688D01*
X8068184Y-17125211D01*
X8077708Y-17144259D01*
X8087232Y-17182354D01*
X8087232Y-17229973D01*
X8077708Y-17268068D01*
X8068184Y-17287116D01*
X8058661Y-17296640D01*
X8039613Y-17306164D01*
X8020565Y-17306164D01*
X8001518Y-17296640D01*
X7991994Y-17287116D01*
X7982470Y-17268068D01*
X7972946Y-17229973D01*
X7972946Y-17182354D01*
X7982470Y-17144259D01*
X7991994Y-17125211D01*
X8001518Y-17115688D01*
X8020565Y-17106164D01*
X8163423Y-17125211D02*
X8172946Y-17115688D01*
X8191994Y-17106164D01*
X8239613Y-17106164D01*
X8258661Y-17115688D01*
X8268184Y-17125211D01*
X8277708Y-17144259D01*
X8277708Y-17163307D01*
X8268184Y-17191878D01*
X8153899Y-17306164D01*
X8277708Y-17306164D01*
X8344375Y-17106164D02*
X8468185Y-17106164D01*
X8401518Y-17182354D01*
X8430089Y-17182354D01*
X8449137Y-17191878D01*
X8458661Y-17201402D01*
X8468185Y-17220449D01*
X8468185Y-17268068D01*
X8458661Y-17287116D01*
X8449137Y-17296640D01*
X8430089Y-17306164D01*
X8372946Y-17306164D01*
X8353899Y-17296640D01*
X8344375Y-17287116D01*
X8639613Y-17106164D02*
X8601518Y-17106164D01*
X8582470Y-17115688D01*
X8572946Y-17125211D01*
X8553899Y-17153783D01*
X8544375Y-17191878D01*
X8544375Y-17268068D01*
X8553899Y-17287116D01*
X8563423Y-17296640D01*
X8582470Y-17306164D01*
X8620565Y-17306164D01*
X8639613Y-17296640D01*
X8649137Y-17287116D01*
X8658661Y-17268068D01*
X8658661Y-17220449D01*
X8649137Y-17201402D01*
X8639613Y-17191878D01*
X8620565Y-17182354D01*
X8582470Y-17182354D01*
X8563423Y-17191878D01*
X8553899Y-17201402D01*
X8544375Y-17220449D01*
X8734851Y-17106164D02*
X8734851Y-17144259D01*
X8811042Y-17106164D02*
X8811042Y-17144259D01*
X9106280Y-17382354D02*
X9096756Y-17372830D01*
X9077708Y-17344259D01*
X9068185Y-17325211D01*
X9058661Y-17296640D01*
X9049137Y-17249021D01*
X9049137Y-17210926D01*
X9058661Y-17163307D01*
X9068185Y-17134735D01*
X9077708Y-17115688D01*
X9096756Y-17087116D01*
X9106280Y-17077592D01*
X9172946Y-17125211D02*
X9182470Y-17115688D01*
X9201518Y-17106164D01*
X9249137Y-17106164D01*
X9268185Y-17115688D01*
X9277708Y-17125211D01*
X9287232Y-17144259D01*
X9287232Y-17163307D01*
X9277708Y-17191878D01*
X9163423Y-17306164D01*
X9287232Y-17306164D01*
X9525327Y-17306164D02*
X9525327Y-17106164D01*
X9611042Y-17306164D02*
X9611042Y-17201402D01*
X9601518Y-17182354D01*
X9582470Y-17172830D01*
X9553899Y-17172830D01*
X9534851Y-17182354D01*
X9525327Y-17191878D01*
X9734851Y-17306164D02*
X9715804Y-17296640D01*
X9706280Y-17287116D01*
X9696756Y-17268068D01*
X9696756Y-17210926D01*
X9706280Y-17191878D01*
X9715804Y-17182354D01*
X9734851Y-17172830D01*
X9763423Y-17172830D01*
X9782470Y-17182354D01*
X9791994Y-17191878D01*
X9801518Y-17210926D01*
X9801518Y-17268068D01*
X9791994Y-17287116D01*
X9782470Y-17296640D01*
X9763423Y-17306164D01*
X9734851Y-17306164D01*
X9915804Y-17306164D02*
X9896756Y-17296640D01*
X9887232Y-17277592D01*
X9887232Y-17106164D01*
X10068185Y-17296640D02*
X10049137Y-17306164D01*
X10011042Y-17306164D01*
X9991994Y-17296640D01*
X9982470Y-17277592D01*
X9982470Y-17201402D01*
X9991994Y-17182354D01*
X10011042Y-17172830D01*
X10049137Y-17172830D01*
X10068185Y-17182354D01*
X10077708Y-17201402D01*
X10077708Y-17220449D01*
X9982470Y-17239497D01*
X10153899Y-17296640D02*
X10172946Y-17306164D01*
X10211042Y-17306164D01*
X10230089Y-17296640D01*
X10239613Y-17277592D01*
X10239613Y-17268068D01*
X10230089Y-17249021D01*
X10211042Y-17239497D01*
X10182470Y-17239497D01*
X10163423Y-17229973D01*
X10153899Y-17210926D01*
X10153899Y-17201402D01*
X10163423Y-17182354D01*
X10182470Y-17172830D01*
X10211042Y-17172830D01*
X10230089Y-17182354D01*
X10306280Y-17382354D02*
X10315804Y-17372830D01*
X10334851Y-17344259D01*
X10344375Y-17325211D01*
X10353899Y-17296640D01*
X10363423Y-17249021D01*
X10363423Y-17210926D01*
X10353899Y-17163307D01*
X10344375Y-17134735D01*
X10334851Y-17115688D01*
X10315804Y-17087116D01*
X10306280Y-17077592D01*
D16*
X5496875Y-17517188D02*
X5534375Y-17479688D01*
X5496875Y-17442188D01*
X5459375Y-17479688D01*
X5496875Y-17517188D01*
D11*
X5830089Y-17370164D02*
X5849137Y-17370164D01*
X5868184Y-17379688D01*
X5877708Y-17389211D01*
X5887232Y-17408259D01*
X5896756Y-17446354D01*
X5896756Y-17493973D01*
X5887232Y-17532068D01*
X5877708Y-17551116D01*
X5868184Y-17560640D01*
X5849137Y-17570164D01*
X5830089Y-17570164D01*
X5811042Y-17560640D01*
X5801518Y-17551116D01*
X5791994Y-17532068D01*
X5782470Y-17493973D01*
X5782470Y-17446354D01*
X5791994Y-17408259D01*
X5801518Y-17389211D01*
X5811042Y-17379688D01*
X5830089Y-17370164D01*
X5982470Y-17551116D02*
X5991994Y-17560640D01*
X5982470Y-17570164D01*
X5972946Y-17560640D01*
X5982470Y-17551116D01*
X5982470Y-17570164D01*
X6058661Y-17370164D02*
X6191994Y-17370164D01*
X6106280Y-17570164D01*
X6363423Y-17370164D02*
X6268184Y-17370164D01*
X6258661Y-17465402D01*
X6268184Y-17455878D01*
X6287232Y-17446354D01*
X6334851Y-17446354D01*
X6353899Y-17455878D01*
X6363423Y-17465402D01*
X6372946Y-17484449D01*
X6372946Y-17532068D01*
X6363423Y-17551116D01*
X6353899Y-17560640D01*
X6334851Y-17570164D01*
X6287232Y-17570164D01*
X6268184Y-17560640D01*
X6258661Y-17551116D01*
X6496756Y-17370164D02*
X6515803Y-17370164D01*
X6534851Y-17379688D01*
X6544375Y-17389211D01*
X6553899Y-17408259D01*
X6563423Y-17446354D01*
X6563423Y-17493973D01*
X6553899Y-17532068D01*
X6544375Y-17551116D01*
X6534851Y-17560640D01*
X6515803Y-17570164D01*
X6496756Y-17570164D01*
X6477708Y-17560640D01*
X6468184Y-17551116D01*
X6458661Y-17532068D01*
X6449137Y-17493973D01*
X6449137Y-17446354D01*
X6458661Y-17408259D01*
X6468184Y-17389211D01*
X6477708Y-17379688D01*
X6496756Y-17370164D01*
X6649137Y-17570164D02*
X6649137Y-17436830D01*
X6649137Y-17455878D02*
X6658661Y-17446354D01*
X6677708Y-17436830D01*
X6706280Y-17436830D01*
X6725327Y-17446354D01*
X6734851Y-17465402D01*
X6734851Y-17570164D01*
X6734851Y-17465402D02*
X6744375Y-17446354D01*
X6763423Y-17436830D01*
X6791994Y-17436830D01*
X6811042Y-17446354D01*
X6820565Y-17465402D01*
X6820565Y-17570164D01*
X6915803Y-17570164D02*
X6915803Y-17436830D01*
X6915803Y-17455878D02*
X6925327Y-17446354D01*
X6944375Y-17436830D01*
X6972946Y-17436830D01*
X6991994Y-17446354D01*
X7001518Y-17465402D01*
X7001518Y-17570164D01*
X7001518Y-17465402D02*
X7011042Y-17446354D01*
X7030089Y-17436830D01*
X7058661Y-17436830D01*
X7077708Y-17446354D01*
X7087232Y-17465402D01*
X7087232Y-17570164D01*
X7477708Y-17360640D02*
X7306280Y-17617783D01*
X7734851Y-17370164D02*
X7753899Y-17370164D01*
X7772946Y-17379688D01*
X7782470Y-17389211D01*
X7791994Y-17408259D01*
X7801518Y-17446354D01*
X7801518Y-17493973D01*
X7791994Y-17532068D01*
X7782470Y-17551116D01*
X7772946Y-17560640D01*
X7753899Y-17570164D01*
X7734851Y-17570164D01*
X7715803Y-17560640D01*
X7706280Y-17551116D01*
X7696756Y-17532068D01*
X7687232Y-17493973D01*
X7687232Y-17446354D01*
X7696756Y-17408259D01*
X7706280Y-17389211D01*
X7715803Y-17379688D01*
X7734851Y-17370164D01*
X7887232Y-17551116D02*
X7896756Y-17560640D01*
X7887232Y-17570164D01*
X7877708Y-17560640D01*
X7887232Y-17551116D01*
X7887232Y-17570164D01*
X8020565Y-17370164D02*
X8039613Y-17370164D01*
X8058661Y-17379688D01*
X8068184Y-17389211D01*
X8077708Y-17408259D01*
X8087232Y-17446354D01*
X8087232Y-17493973D01*
X8077708Y-17532068D01*
X8068184Y-17551116D01*
X8058661Y-17560640D01*
X8039613Y-17570164D01*
X8020565Y-17570164D01*
X8001518Y-17560640D01*
X7991994Y-17551116D01*
X7982470Y-17532068D01*
X7972946Y-17493973D01*
X7972946Y-17446354D01*
X7982470Y-17408259D01*
X7991994Y-17389211D01*
X8001518Y-17379688D01*
X8020565Y-17370164D01*
X8163423Y-17389211D02*
X8172946Y-17379688D01*
X8191994Y-17370164D01*
X8239613Y-17370164D01*
X8258661Y-17379688D01*
X8268184Y-17389211D01*
X8277708Y-17408259D01*
X8277708Y-17427307D01*
X8268184Y-17455878D01*
X8153899Y-17570164D01*
X8277708Y-17570164D01*
X8372946Y-17570164D02*
X8411042Y-17570164D01*
X8430089Y-17560640D01*
X8439613Y-17551116D01*
X8458661Y-17522545D01*
X8468185Y-17484449D01*
X8468185Y-17408259D01*
X8458661Y-17389211D01*
X8449137Y-17379688D01*
X8430089Y-17370164D01*
X8391994Y-17370164D01*
X8372946Y-17379688D01*
X8363423Y-17389211D01*
X8353899Y-17408259D01*
X8353899Y-17455878D01*
X8363423Y-17474926D01*
X8372946Y-17484449D01*
X8391994Y-17493973D01*
X8430089Y-17493973D01*
X8449137Y-17484449D01*
X8458661Y-17474926D01*
X8468185Y-17455878D01*
X8649137Y-17370164D02*
X8553899Y-17370164D01*
X8544375Y-17465402D01*
X8553899Y-17455878D01*
X8572946Y-17446354D01*
X8620565Y-17446354D01*
X8639613Y-17455878D01*
X8649137Y-17465402D01*
X8658661Y-17484449D01*
X8658661Y-17532068D01*
X8649137Y-17551116D01*
X8639613Y-17560640D01*
X8620565Y-17570164D01*
X8572946Y-17570164D01*
X8553899Y-17560640D01*
X8544375Y-17551116D01*
X8734851Y-17370164D02*
X8734851Y-17408259D01*
X8811042Y-17370164D02*
X8811042Y-17408259D01*
X9106280Y-17646354D02*
X9096756Y-17636830D01*
X9077708Y-17608259D01*
X9068185Y-17589211D01*
X9058661Y-17560640D01*
X9049137Y-17513021D01*
X9049137Y-17474926D01*
X9058661Y-17427307D01*
X9068185Y-17398735D01*
X9077708Y-17379688D01*
X9096756Y-17351116D01*
X9106280Y-17341592D01*
X9211042Y-17455878D02*
X9191994Y-17446354D01*
X9182470Y-17436830D01*
X9172946Y-17417783D01*
X9172946Y-17408259D01*
X9182470Y-17389211D01*
X9191994Y-17379688D01*
X9211042Y-17370164D01*
X9249137Y-17370164D01*
X9268185Y-17379688D01*
X9277708Y-17389211D01*
X9287232Y-17408259D01*
X9287232Y-17417783D01*
X9277708Y-17436830D01*
X9268185Y-17446354D01*
X9249137Y-17455878D01*
X9211042Y-17455878D01*
X9191994Y-17465402D01*
X9182470Y-17474926D01*
X9172946Y-17493973D01*
X9172946Y-17532068D01*
X9182470Y-17551116D01*
X9191994Y-17560640D01*
X9211042Y-17570164D01*
X9249137Y-17570164D01*
X9268185Y-17560640D01*
X9277708Y-17551116D01*
X9287232Y-17532068D01*
X9287232Y-17493973D01*
X9277708Y-17474926D01*
X9268185Y-17465402D01*
X9249137Y-17455878D01*
X9468185Y-17370164D02*
X9372946Y-17370164D01*
X9363423Y-17465402D01*
X9372946Y-17455878D01*
X9391994Y-17446354D01*
X9439613Y-17446354D01*
X9458661Y-17455878D01*
X9468185Y-17465402D01*
X9477708Y-17484449D01*
X9477708Y-17532068D01*
X9468185Y-17551116D01*
X9458661Y-17560640D01*
X9439613Y-17570164D01*
X9391994Y-17570164D01*
X9372946Y-17560640D01*
X9363423Y-17551116D01*
X9715804Y-17570164D02*
X9715804Y-17370164D01*
X9801518Y-17570164D02*
X9801518Y-17465402D01*
X9791994Y-17446354D01*
X9772946Y-17436830D01*
X9744375Y-17436830D01*
X9725327Y-17446354D01*
X9715804Y-17455878D01*
X9925327Y-17570164D02*
X9906280Y-17560640D01*
X9896756Y-17551116D01*
X9887232Y-17532068D01*
X9887232Y-17474926D01*
X9896756Y-17455878D01*
X9906280Y-17446354D01*
X9925327Y-17436830D01*
X9953899Y-17436830D01*
X9972946Y-17446354D01*
X9982470Y-17455878D01*
X9991994Y-17474926D01*
X9991994Y-17532068D01*
X9982470Y-17551116D01*
X9972946Y-17560640D01*
X9953899Y-17570164D01*
X9925327Y-17570164D01*
X10106280Y-17570164D02*
X10087232Y-17560640D01*
X10077708Y-17541592D01*
X10077708Y-17370164D01*
X10258661Y-17560640D02*
X10239613Y-17570164D01*
X10201518Y-17570164D01*
X10182470Y-17560640D01*
X10172946Y-17541592D01*
X10172946Y-17465402D01*
X10182470Y-17446354D01*
X10201518Y-17436830D01*
X10239613Y-17436830D01*
X10258661Y-17446354D01*
X10268185Y-17465402D01*
X10268185Y-17484449D01*
X10172946Y-17503497D01*
X10344375Y-17560640D02*
X10363423Y-17570164D01*
X10401518Y-17570164D01*
X10420565Y-17560640D01*
X10430089Y-17541592D01*
X10430089Y-17532068D01*
X10420565Y-17513021D01*
X10401518Y-17503497D01*
X10372946Y-17503497D01*
X10353899Y-17493973D01*
X10344375Y-17474926D01*
X10344375Y-17465402D01*
X10353899Y-17446354D01*
X10372946Y-17436830D01*
X10401518Y-17436830D01*
X10420565Y-17446354D01*
X10496756Y-17646354D02*
X10506280Y-17636830D01*
X10525327Y-17608259D01*
X10534851Y-17589211D01*
X10544375Y-17560640D01*
X10553899Y-17513021D01*
X10553899Y-17474926D01*
X10544375Y-17427307D01*
X10534851Y-17398735D01*
X10525327Y-17379688D01*
X10506280Y-17351116D01*
X10496756Y-17341592D01*
D10*
X5434375Y-17693688D02*
X5534375Y-17793688D01*
X5534375Y-17693688D02*
X5434375Y-17793688D01*
X5534375Y-17743688D02*
G75*
G03*
X5534375Y-17743688I-50000J0D01*
G01*
D11*
X5896756Y-17834164D02*
X5782470Y-17834164D01*
X5839613Y-17834164D02*
X5839613Y-17634164D01*
X5820565Y-17662735D01*
X5801518Y-17681783D01*
X5782470Y-17691307D01*
X5982470Y-17815116D02*
X5991994Y-17824640D01*
X5982470Y-17834164D01*
X5972946Y-17824640D01*
X5982470Y-17815116D01*
X5982470Y-17834164D01*
X6115803Y-17634164D02*
X6134851Y-17634164D01*
X6153899Y-17643688D01*
X6163423Y-17653211D01*
X6172946Y-17672259D01*
X6182470Y-17710354D01*
X6182470Y-17757973D01*
X6172946Y-17796068D01*
X6163423Y-17815116D01*
X6153899Y-17824640D01*
X6134851Y-17834164D01*
X6115803Y-17834164D01*
X6096756Y-17824640D01*
X6087232Y-17815116D01*
X6077708Y-17796068D01*
X6068184Y-17757973D01*
X6068184Y-17710354D01*
X6077708Y-17672259D01*
X6087232Y-17653211D01*
X6096756Y-17643688D01*
X6115803Y-17634164D01*
X6306280Y-17634164D02*
X6325327Y-17634164D01*
X6344375Y-17643688D01*
X6353899Y-17653211D01*
X6363423Y-17672259D01*
X6372946Y-17710354D01*
X6372946Y-17757973D01*
X6363423Y-17796068D01*
X6353899Y-17815116D01*
X6344375Y-17824640D01*
X6325327Y-17834164D01*
X6306280Y-17834164D01*
X6287232Y-17824640D01*
X6277708Y-17815116D01*
X6268184Y-17796068D01*
X6258661Y-17757973D01*
X6258661Y-17710354D01*
X6268184Y-17672259D01*
X6277708Y-17653211D01*
X6287232Y-17643688D01*
X6306280Y-17634164D01*
X6496756Y-17634164D02*
X6515803Y-17634164D01*
X6534851Y-17643688D01*
X6544375Y-17653211D01*
X6553899Y-17672259D01*
X6563423Y-17710354D01*
X6563423Y-17757973D01*
X6553899Y-17796068D01*
X6544375Y-17815116D01*
X6534851Y-17824640D01*
X6515803Y-17834164D01*
X6496756Y-17834164D01*
X6477708Y-17824640D01*
X6468184Y-17815116D01*
X6458661Y-17796068D01*
X6449137Y-17757973D01*
X6449137Y-17710354D01*
X6458661Y-17672259D01*
X6468184Y-17653211D01*
X6477708Y-17643688D01*
X6496756Y-17634164D01*
X6649137Y-17834164D02*
X6649137Y-17700830D01*
X6649137Y-17719878D02*
X6658661Y-17710354D01*
X6677708Y-17700830D01*
X6706280Y-17700830D01*
X6725327Y-17710354D01*
X6734851Y-17729402D01*
X6734851Y-17834164D01*
X6734851Y-17729402D02*
X6744375Y-17710354D01*
X6763423Y-17700830D01*
X6791994Y-17700830D01*
X6811042Y-17710354D01*
X6820565Y-17729402D01*
X6820565Y-17834164D01*
X6915803Y-17834164D02*
X6915803Y-17700830D01*
X6915803Y-17719878D02*
X6925327Y-17710354D01*
X6944375Y-17700830D01*
X6972946Y-17700830D01*
X6991994Y-17710354D01*
X7001518Y-17729402D01*
X7001518Y-17834164D01*
X7001518Y-17729402D02*
X7011042Y-17710354D01*
X7030089Y-17700830D01*
X7058661Y-17700830D01*
X7077708Y-17710354D01*
X7087232Y-17729402D01*
X7087232Y-17834164D01*
X7477708Y-17624640D02*
X7306280Y-17881783D01*
X7734851Y-17634164D02*
X7753899Y-17634164D01*
X7772946Y-17643688D01*
X7782470Y-17653211D01*
X7791994Y-17672259D01*
X7801518Y-17710354D01*
X7801518Y-17757973D01*
X7791994Y-17796068D01*
X7782470Y-17815116D01*
X7772946Y-17824640D01*
X7753899Y-17834164D01*
X7734851Y-17834164D01*
X7715803Y-17824640D01*
X7706280Y-17815116D01*
X7696756Y-17796068D01*
X7687232Y-17757973D01*
X7687232Y-17710354D01*
X7696756Y-17672259D01*
X7706280Y-17653211D01*
X7715803Y-17643688D01*
X7734851Y-17634164D01*
X7887232Y-17815116D02*
X7896756Y-17824640D01*
X7887232Y-17834164D01*
X7877708Y-17824640D01*
X7887232Y-17815116D01*
X7887232Y-17834164D01*
X8020565Y-17634164D02*
X8039613Y-17634164D01*
X8058661Y-17643688D01*
X8068184Y-17653211D01*
X8077708Y-17672259D01*
X8087232Y-17710354D01*
X8087232Y-17757973D01*
X8077708Y-17796068D01*
X8068184Y-17815116D01*
X8058661Y-17824640D01*
X8039613Y-17834164D01*
X8020565Y-17834164D01*
X8001518Y-17824640D01*
X7991994Y-17815116D01*
X7982470Y-17796068D01*
X7972946Y-17757973D01*
X7972946Y-17710354D01*
X7982470Y-17672259D01*
X7991994Y-17653211D01*
X8001518Y-17643688D01*
X8020565Y-17634164D01*
X8153899Y-17634164D02*
X8277708Y-17634164D01*
X8211042Y-17710354D01*
X8239613Y-17710354D01*
X8258661Y-17719878D01*
X8268184Y-17729402D01*
X8277708Y-17748449D01*
X8277708Y-17796068D01*
X8268184Y-17815116D01*
X8258661Y-17824640D01*
X8239613Y-17834164D01*
X8182470Y-17834164D01*
X8163423Y-17824640D01*
X8153899Y-17815116D01*
X8372946Y-17834164D02*
X8411042Y-17834164D01*
X8430089Y-17824640D01*
X8439613Y-17815116D01*
X8458661Y-17786545D01*
X8468185Y-17748449D01*
X8468185Y-17672259D01*
X8458661Y-17653211D01*
X8449137Y-17643688D01*
X8430089Y-17634164D01*
X8391994Y-17634164D01*
X8372946Y-17643688D01*
X8363423Y-17653211D01*
X8353899Y-17672259D01*
X8353899Y-17719878D01*
X8363423Y-17738926D01*
X8372946Y-17748449D01*
X8391994Y-17757973D01*
X8430089Y-17757973D01*
X8449137Y-17748449D01*
X8458661Y-17738926D01*
X8468185Y-17719878D01*
X8639613Y-17700830D02*
X8639613Y-17834164D01*
X8591994Y-17624640D02*
X8544375Y-17767497D01*
X8668185Y-17767497D01*
X8734851Y-17634164D02*
X8734851Y-17672259D01*
X8811042Y-17634164D02*
X8811042Y-17672259D01*
X9106280Y-17910354D02*
X9096756Y-17900830D01*
X9077708Y-17872259D01*
X9068185Y-17853211D01*
X9058661Y-17824640D01*
X9049137Y-17777021D01*
X9049137Y-17738926D01*
X9058661Y-17691307D01*
X9068185Y-17662735D01*
X9077708Y-17643688D01*
X9096756Y-17615116D01*
X9106280Y-17605592D01*
X9172946Y-17653211D02*
X9182470Y-17643688D01*
X9201518Y-17634164D01*
X9249137Y-17634164D01*
X9268185Y-17643688D01*
X9277708Y-17653211D01*
X9287232Y-17672259D01*
X9287232Y-17691307D01*
X9277708Y-17719878D01*
X9163423Y-17834164D01*
X9287232Y-17834164D01*
X9401518Y-17719878D02*
X9382470Y-17710354D01*
X9372946Y-17700830D01*
X9363423Y-17681783D01*
X9363423Y-17672259D01*
X9372946Y-17653211D01*
X9382470Y-17643688D01*
X9401518Y-17634164D01*
X9439613Y-17634164D01*
X9458661Y-17643688D01*
X9468185Y-17653211D01*
X9477708Y-17672259D01*
X9477708Y-17681783D01*
X9468185Y-17700830D01*
X9458661Y-17710354D01*
X9439613Y-17719878D01*
X9401518Y-17719878D01*
X9382470Y-17729402D01*
X9372946Y-17738926D01*
X9363423Y-17757973D01*
X9363423Y-17796068D01*
X9372946Y-17815116D01*
X9382470Y-17824640D01*
X9401518Y-17834164D01*
X9439613Y-17834164D01*
X9458661Y-17824640D01*
X9468185Y-17815116D01*
X9477708Y-17796068D01*
X9477708Y-17757973D01*
X9468185Y-17738926D01*
X9458661Y-17729402D01*
X9439613Y-17719878D01*
X9715804Y-17834164D02*
X9715804Y-17634164D01*
X9801518Y-17834164D02*
X9801518Y-17729402D01*
X9791994Y-17710354D01*
X9772946Y-17700830D01*
X9744375Y-17700830D01*
X9725327Y-17710354D01*
X9715804Y-17719878D01*
X9925327Y-17834164D02*
X9906280Y-17824640D01*
X9896756Y-17815116D01*
X9887232Y-17796068D01*
X9887232Y-17738926D01*
X9896756Y-17719878D01*
X9906280Y-17710354D01*
X9925327Y-17700830D01*
X9953899Y-17700830D01*
X9972946Y-17710354D01*
X9982470Y-17719878D01*
X9991994Y-17738926D01*
X9991994Y-17796068D01*
X9982470Y-17815116D01*
X9972946Y-17824640D01*
X9953899Y-17834164D01*
X9925327Y-17834164D01*
X10106280Y-17834164D02*
X10087232Y-17824640D01*
X10077708Y-17805592D01*
X10077708Y-17634164D01*
X10258661Y-17824640D02*
X10239613Y-17834164D01*
X10201518Y-17834164D01*
X10182470Y-17824640D01*
X10172946Y-17805592D01*
X10172946Y-17729402D01*
X10182470Y-17710354D01*
X10201518Y-17700830D01*
X10239613Y-17700830D01*
X10258661Y-17710354D01*
X10268185Y-17729402D01*
X10268185Y-17748449D01*
X10172946Y-17767497D01*
X10344375Y-17824640D02*
X10363423Y-17834164D01*
X10401518Y-17834164D01*
X10420565Y-17824640D01*
X10430089Y-17805592D01*
X10430089Y-17796068D01*
X10420565Y-17777021D01*
X10401518Y-17767497D01*
X10372946Y-17767497D01*
X10353899Y-17757973D01*
X10344375Y-17738926D01*
X10344375Y-17729402D01*
X10353899Y-17710354D01*
X10372946Y-17700830D01*
X10401518Y-17700830D01*
X10420565Y-17710354D01*
X10496756Y-17910354D02*
X10506280Y-17900830D01*
X10525327Y-17872259D01*
X10534851Y-17853211D01*
X10544375Y-17824640D01*
X10553899Y-17777021D01*
X10553899Y-17738926D01*
X10544375Y-17691307D01*
X10534851Y-17662735D01*
X10525327Y-17643688D01*
X10506280Y-17615116D01*
X10496756Y-17605592D01*
D17*
X5414375Y-17947688D02*
X5534375Y-18067688D01*
X5534375Y-17947688D02*
X5414375Y-18067688D01*
X5474375Y-17947688D02*
X5474375Y-18067688D01*
X5414375Y-18007688D02*
X5534375Y-18007688D01*
D11*
X5896756Y-18098164D02*
X5782470Y-18098164D01*
X5839613Y-18098164D02*
X5839613Y-17898164D01*
X5820565Y-17926735D01*
X5801518Y-17945783D01*
X5782470Y-17955307D01*
X5982470Y-18079116D02*
X5991994Y-18088640D01*
X5982470Y-18098164D01*
X5972946Y-18088640D01*
X5982470Y-18079116D01*
X5982470Y-18098164D01*
X6068184Y-17917211D02*
X6077708Y-17907688D01*
X6096756Y-17898164D01*
X6144375Y-17898164D01*
X6163423Y-17907688D01*
X6172946Y-17917211D01*
X6182470Y-17936259D01*
X6182470Y-17955307D01*
X6172946Y-17983878D01*
X6058661Y-18098164D01*
X6182470Y-18098164D01*
X6306280Y-17898164D02*
X6325327Y-17898164D01*
X6344375Y-17907688D01*
X6353899Y-17917211D01*
X6363423Y-17936259D01*
X6372946Y-17974354D01*
X6372946Y-18021973D01*
X6363423Y-18060068D01*
X6353899Y-18079116D01*
X6344375Y-18088640D01*
X6325327Y-18098164D01*
X6306280Y-18098164D01*
X6287232Y-18088640D01*
X6277708Y-18079116D01*
X6268184Y-18060068D01*
X6258661Y-18021973D01*
X6258661Y-17974354D01*
X6268184Y-17936259D01*
X6277708Y-17917211D01*
X6287232Y-17907688D01*
X6306280Y-17898164D01*
X6496756Y-17898164D02*
X6515803Y-17898164D01*
X6534851Y-17907688D01*
X6544375Y-17917211D01*
X6553899Y-17936259D01*
X6563423Y-17974354D01*
X6563423Y-18021973D01*
X6553899Y-18060068D01*
X6544375Y-18079116D01*
X6534851Y-18088640D01*
X6515803Y-18098164D01*
X6496756Y-18098164D01*
X6477708Y-18088640D01*
X6468184Y-18079116D01*
X6458661Y-18060068D01*
X6449137Y-18021973D01*
X6449137Y-17974354D01*
X6458661Y-17936259D01*
X6468184Y-17917211D01*
X6477708Y-17907688D01*
X6496756Y-17898164D01*
X6649137Y-18098164D02*
X6649137Y-17964830D01*
X6649137Y-17983878D02*
X6658661Y-17974354D01*
X6677708Y-17964830D01*
X6706280Y-17964830D01*
X6725327Y-17974354D01*
X6734851Y-17993402D01*
X6734851Y-18098164D01*
X6734851Y-17993402D02*
X6744375Y-17974354D01*
X6763423Y-17964830D01*
X6791994Y-17964830D01*
X6811042Y-17974354D01*
X6820565Y-17993402D01*
X6820565Y-18098164D01*
X6915803Y-18098164D02*
X6915803Y-17964830D01*
X6915803Y-17983878D02*
X6925327Y-17974354D01*
X6944375Y-17964830D01*
X6972946Y-17964830D01*
X6991994Y-17974354D01*
X7001518Y-17993402D01*
X7001518Y-18098164D01*
X7001518Y-17993402D02*
X7011042Y-17974354D01*
X7030089Y-17964830D01*
X7058661Y-17964830D01*
X7077708Y-17974354D01*
X7087232Y-17993402D01*
X7087232Y-18098164D01*
X7477708Y-17888640D02*
X7306280Y-18145783D01*
X7734851Y-17898164D02*
X7753899Y-17898164D01*
X7772946Y-17907688D01*
X7782470Y-17917211D01*
X7791994Y-17936259D01*
X7801518Y-17974354D01*
X7801518Y-18021973D01*
X7791994Y-18060068D01*
X7782470Y-18079116D01*
X7772946Y-18088640D01*
X7753899Y-18098164D01*
X7734851Y-18098164D01*
X7715803Y-18088640D01*
X7706280Y-18079116D01*
X7696756Y-18060068D01*
X7687232Y-18021973D01*
X7687232Y-17974354D01*
X7696756Y-17936259D01*
X7706280Y-17917211D01*
X7715803Y-17907688D01*
X7734851Y-17898164D01*
X7887232Y-18079116D02*
X7896756Y-18088640D01*
X7887232Y-18098164D01*
X7877708Y-18088640D01*
X7887232Y-18079116D01*
X7887232Y-18098164D01*
X8020565Y-17898164D02*
X8039613Y-17898164D01*
X8058661Y-17907688D01*
X8068184Y-17917211D01*
X8077708Y-17936259D01*
X8087232Y-17974354D01*
X8087232Y-18021973D01*
X8077708Y-18060068D01*
X8068184Y-18079116D01*
X8058661Y-18088640D01*
X8039613Y-18098164D01*
X8020565Y-18098164D01*
X8001518Y-18088640D01*
X7991994Y-18079116D01*
X7982470Y-18060068D01*
X7972946Y-18021973D01*
X7972946Y-17974354D01*
X7982470Y-17936259D01*
X7991994Y-17917211D01*
X8001518Y-17907688D01*
X8020565Y-17898164D01*
X8258661Y-17964830D02*
X8258661Y-18098164D01*
X8211042Y-17888640D02*
X8163423Y-18031497D01*
X8287232Y-18031497D01*
X8344375Y-17898164D02*
X8477708Y-17898164D01*
X8391994Y-18098164D01*
X8544375Y-17917211D02*
X8553899Y-17907688D01*
X8572946Y-17898164D01*
X8620565Y-17898164D01*
X8639613Y-17907688D01*
X8649137Y-17917211D01*
X8658661Y-17936259D01*
X8658661Y-17955307D01*
X8649137Y-17983878D01*
X8534851Y-18098164D01*
X8658661Y-18098164D01*
X8734851Y-17898164D02*
X8734851Y-17936259D01*
X8811042Y-17898164D02*
X8811042Y-17936259D01*
X9106280Y-18174354D02*
X9096756Y-18164830D01*
X9077708Y-18136259D01*
X9068185Y-18117211D01*
X9058661Y-18088640D01*
X9049137Y-18041021D01*
X9049137Y-18002926D01*
X9058661Y-17955307D01*
X9068185Y-17926735D01*
X9077708Y-17907688D01*
X9096756Y-17879116D01*
X9106280Y-17869592D01*
X9268185Y-17964830D02*
X9268185Y-18098164D01*
X9220565Y-17888640D02*
X9172946Y-18031497D01*
X9296756Y-18031497D01*
X9525327Y-18098164D02*
X9525327Y-17898164D01*
X9611042Y-18098164D02*
X9611042Y-17993402D01*
X9601518Y-17974354D01*
X9582470Y-17964830D01*
X9553899Y-17964830D01*
X9534851Y-17974354D01*
X9525327Y-17983878D01*
X9734851Y-18098164D02*
X9715804Y-18088640D01*
X9706280Y-18079116D01*
X9696756Y-18060068D01*
X9696756Y-18002926D01*
X9706280Y-17983878D01*
X9715804Y-17974354D01*
X9734851Y-17964830D01*
X9763423Y-17964830D01*
X9782470Y-17974354D01*
X9791994Y-17983878D01*
X9801518Y-18002926D01*
X9801518Y-18060068D01*
X9791994Y-18079116D01*
X9782470Y-18088640D01*
X9763423Y-18098164D01*
X9734851Y-18098164D01*
X9915804Y-18098164D02*
X9896756Y-18088640D01*
X9887232Y-18069592D01*
X9887232Y-17898164D01*
X10068185Y-18088640D02*
X10049137Y-18098164D01*
X10011042Y-18098164D01*
X9991994Y-18088640D01*
X9982470Y-18069592D01*
X9982470Y-17993402D01*
X9991994Y-17974354D01*
X10011042Y-17964830D01*
X10049137Y-17964830D01*
X10068185Y-17974354D01*
X10077708Y-17993402D01*
X10077708Y-18012449D01*
X9982470Y-18031497D01*
X10153899Y-18088640D02*
X10172946Y-18098164D01*
X10211042Y-18098164D01*
X10230089Y-18088640D01*
X10239613Y-18069592D01*
X10239613Y-18060068D01*
X10230089Y-18041021D01*
X10211042Y-18031497D01*
X10182470Y-18031497D01*
X10163423Y-18021973D01*
X10153899Y-18002926D01*
X10153899Y-17993402D01*
X10163423Y-17974354D01*
X10182470Y-17964830D01*
X10211042Y-17964830D01*
X10230089Y-17974354D01*
X10306280Y-18174354D02*
X10315804Y-18164830D01*
X10334851Y-18136259D01*
X10344375Y-18117211D01*
X10353899Y-18088640D01*
X10363423Y-18041021D01*
X10363423Y-18002926D01*
X10353899Y-17955307D01*
X10344375Y-17926735D01*
X10334851Y-17907688D01*
X10315804Y-17879116D01*
X10306280Y-17869592D01*
M02*
