M48
; DRILL file {KiCad (6.0.10)} date Mon Jul 31 18:03:32 2023
; FORMAT={-:-/ absolute / metric / decimal}
; #@! TF.CreationDate,2023-07-31T18:03:32+01:00
; #@! TF.GenerationSoftware,Kicad,Pcbnew,(6.0.10)
; #@! TF.FileFunction,NonPlated,1,2,NPTH
FMAT,2
METRIC
; #@! TA.AperFunction,NonPlated,NPTH,ComponentDrill
T1C0.500
; #@! TA.AperFunction,NonPlated,NPTH,ComponentDrill
T2C1.750
; #@! TA.AperFunction,NonPlated,NPTH,ComponentDrill
T3C2.200
%
G90
G05
T1
X153.394Y-100.497
X153.394Y-103.287
X153.394Y-106.077
X153.394Y-145.497
X153.394Y-148.287
X153.394Y-151.077
T2
X67.132Y-65.154
X72.702Y-46.936
X76.848Y-68.125
X82.418Y-49.907
X98.172Y-61.364
X103.741Y-43.146
X107.888Y-64.334
X113.457Y-46.116
X115.769Y-131.324
X119.928Y-87.936
X124.29Y-136.857
X125.498Y-69.718
X129.644Y-90.906
X131.746Y-141.699
X135.214Y-72.689
X140.266Y-147.233
X166.522Y-146.681
X171.932Y-72.689
X175.043Y-141.148
X177.502Y-90.906
X181.648Y-69.718
X182.498Y-136.306
X187.218Y-87.936
X191.019Y-130.772
X193.689Y-46.116
X199.259Y-64.334
X203.405Y-43.146
X208.975Y-61.364
X224.728Y-49.907
X230.298Y-68.125
X234.445Y-46.936
X240.014Y-65.154
T3
X59.394Y-76.787
X59.394Y-107.787
X59.394Y-33.787
X105.394Y-153.787
X111.394Y-110.787
X129.394Y-32.787
X148.394Y-153.787
X149.394Y-75.787
X157.394Y-75.787
X158.394Y-153.787
X177.394Y-33.037
X195.394Y-110.787
X201.394Y-153.787
X247.394Y-76.787
X247.394Y-107.787
X247.562Y-33.615
T0
M30
