G04 #@! TF.GenerationSoftware,KiCad,Pcbnew,(6.0.10)*
G04 #@! TF.CreationDate,2023-07-31T18:02:40+01:00*
G04 #@! TF.ProjectId,magnetonekeys,6d61676e-6574-46f6-9e65-6b6579732e6b,rev?*
G04 #@! TF.SameCoordinates,Original*
G04 #@! TF.FileFunction,Profile,NP*
%FSLAX46Y46*%
G04 Gerber Fmt 4.6, Leading zero omitted, Abs format (unit mm)*
G04 Created by KiCad (PCBNEW (6.0.10)) date 2023-07-31 18:02:40*
%MOMM*%
%LPD*%
G01*
G04 APERTURE LIST*
G04 #@! TA.AperFunction,Profile*
%ADD10C,0.100000*%
G04 #@! TD*
G04 #@! TA.AperFunction,Profile*
%ADD11C,0.120000*%
G04 #@! TD*
G04 APERTURE END LIST*
D10*
X152393750Y-143786875D02*
G75*
G03*
X154393750Y-143786875I1000000J0D01*
G01*
X148393749Y-157786849D02*
G75*
G03*
X152393749Y-153786875I51J3999949D01*
G01*
X55393750Y-33786875D02*
X55393750Y-109786875D01*
X177393751Y-29786845D02*
G75*
G03*
X174393751Y-31786875I49J-3250055D01*
G01*
X152393750Y-74786875D02*
X152393750Y-98786875D01*
X59393750Y-29786870D02*
G75*
G03*
X55393750Y-33786875I0J-4000000D01*
G01*
X152393749Y-152786875D02*
X152393749Y-153786875D01*
X59393750Y-29786875D02*
X129393750Y-29786875D01*
X154393749Y-107786875D02*
G75*
G03*
X152393749Y-107786875I-1000000J1D01*
G01*
X152393750Y-98786875D02*
G75*
G03*
X154393750Y-98786875I1000000J0D01*
G01*
X203393750Y-157786875D02*
X251393750Y-109786875D01*
X154393750Y-143786875D02*
X154393750Y-107786875D01*
X251393750Y-85786875D02*
X251393750Y-33615303D01*
X132393722Y-31786887D02*
G75*
G03*
X129393750Y-29786875I-3000022J-1250013D01*
G01*
X154393725Y-153786875D02*
G75*
G03*
X158393750Y-157786875I3999975J-25D01*
G01*
X158393750Y-157786875D02*
X203393750Y-157786875D01*
X154393749Y-152786875D02*
G75*
G03*
X152393749Y-152786875I-1000000J1D01*
G01*
X152393750Y-74786875D02*
X132393750Y-31786875D01*
X251393750Y-109786875D02*
X251393750Y-85786875D01*
X154393750Y-74786875D02*
X154393750Y-98786875D01*
X154393750Y-152786875D02*
X154393750Y-153786875D01*
X251393703Y-33615303D02*
G75*
G03*
X247393751Y-29786875I-3832103J3D01*
G01*
X55393750Y-109786875D02*
X103393750Y-157786875D01*
X152393749Y-107786875D02*
X152393750Y-143786875D01*
X154393750Y-74786875D02*
X174393750Y-31786875D01*
X177393751Y-29786875D02*
X247393751Y-29786875D01*
X103393750Y-157786875D02*
X148393749Y-157786875D01*
D11*
X168682879Y-137193394D02*
X165495931Y-139263022D01*
X165495931Y-139263022D02*
X167347704Y-142114503D01*
X167347704Y-142114503D02*
X170534652Y-140044874D01*
X170534652Y-140044874D02*
X168682879Y-137193394D01*
X179554701Y-86744074D02*
X183188659Y-85633062D01*
X183188659Y-85633062D02*
X182194595Y-82381626D01*
X182194595Y-82381626D02*
X178560637Y-83492638D01*
X178560637Y-83492638D02*
X179554701Y-86744074D01*
X184659554Y-126818022D02*
X181472606Y-128887650D01*
X181472606Y-128887650D02*
X183324379Y-131739131D01*
X183324379Y-131739131D02*
X186511327Y-129669502D01*
X186511327Y-129669502D02*
X184659554Y-126818022D01*
X120276740Y-130220925D02*
X123463688Y-132290554D01*
X123463688Y-132290554D02*
X125315461Y-129439074D01*
X125315461Y-129439074D02*
X122128513Y-127369445D01*
X122128513Y-127369445D02*
X120276740Y-130220925D01*
X107770459Y-40843328D02*
X111404417Y-41954340D01*
X111404417Y-41954340D02*
X112398481Y-38702904D01*
X112398481Y-38702904D02*
X108764523Y-37591892D01*
X108764523Y-37591892D02*
X107770459Y-40843328D01*
X81358952Y-42493453D02*
X77724994Y-41382441D01*
X77724994Y-41382441D02*
X76730930Y-44633877D01*
X76730930Y-44633877D02*
X80364888Y-45744889D01*
X80364888Y-45744889D02*
X81358952Y-42493453D01*
X134155208Y-65275032D02*
X130521250Y-64164020D01*
X130521250Y-64164020D02*
X129527186Y-67415456D01*
X129527186Y-67415456D02*
X133161144Y-68526468D01*
X133161144Y-68526468D02*
X134155208Y-65275032D01*
X136253414Y-140596299D02*
X139440362Y-142665928D01*
X139440362Y-142665928D02*
X141292135Y-139814448D01*
X141292135Y-139814448D02*
X138105187Y-137744819D01*
X138105187Y-137744819D02*
X136253414Y-140596299D01*
X106828800Y-56920510D02*
X103194842Y-55809498D01*
X103194842Y-55809498D02*
X102200778Y-59060934D01*
X102200778Y-59060934D02*
X105834736Y-60171946D01*
X105834736Y-60171946D02*
X106828800Y-56920510D01*
X173985022Y-68526468D02*
X177618980Y-67415456D01*
X177618980Y-67415456D02*
X176624916Y-64164020D01*
X176624916Y-64164020D02*
X172990958Y-65275032D01*
X172990958Y-65275032D02*
X173985022Y-68526468D01*
X128585529Y-83492638D02*
X124951571Y-82381626D01*
X124951571Y-82381626D02*
X123957507Y-85633062D01*
X123957507Y-85633062D02*
X127591465Y-86744074D01*
X127591465Y-86744074D02*
X128585529Y-83492638D01*
X195741749Y-41954340D02*
X199375707Y-40843328D01*
X199375707Y-40843328D02*
X198381643Y-37591892D01*
X198381643Y-37591892D02*
X194747685Y-38702904D01*
X194747685Y-38702904D02*
X195741749Y-41954340D01*
X226781278Y-45744889D02*
X230415236Y-44633877D01*
X230415236Y-44633877D02*
X229421172Y-41382441D01*
X229421172Y-41382441D02*
X225787214Y-42493453D01*
X225787214Y-42493453D02*
X226781278Y-45744889D01*
X232350959Y-63962495D02*
X235984917Y-62851483D01*
X235984917Y-62851483D02*
X234990853Y-59600047D01*
X234990853Y-59600047D02*
X231356895Y-60711059D01*
X231356895Y-60711059D02*
X232350959Y-63962495D01*
X201311430Y-60171946D02*
X204945388Y-59060934D01*
X204945388Y-59060934D02*
X203951324Y-55809498D01*
X203951324Y-55809498D02*
X200317366Y-56920510D01*
X200317366Y-56920510D02*
X201311430Y-60171946D01*
X75789271Y-60711059D02*
X72155313Y-59600047D01*
X72155313Y-59600047D02*
X71161249Y-62851483D01*
X71161249Y-62851483D02*
X74795207Y-63962495D01*
X74795207Y-63962495D02*
X75789271Y-60711059D01*
M02*
