%TF.GenerationSoftware,KiCad,Pcbnew,(6.0.10)*%
%TF.CreationDate,2023-07-31T18:03:33+01:00*%
%TF.ProjectId,magnetonekeys,6d61676e-6574-46f6-9e65-6b6579732e6b,rev?*%
%TF.SameCoordinates,Original*%
%TF.FileFunction,Drillmap*%
%TF.FilePolarity,Positive*%
%FSLAX45Y45*%
G04 Gerber Fmt 4.5, Leading zero omitted, Abs format (unit mm)*
G04 Created by KiCad (PCBNEW (6.0.10)) date 2023-07-31 18:03:33*
%MOMM*%
%LPD*%
G01*
G04 APERTURE LIST*
%ADD10C,0.100000*%
%ADD11C,0.200000*%
%ADD12C,0.050000*%
%ADD13C,0.175000*%
%ADD14C,0.220000*%
G04 APERTURE END LIST*
D10*
X15239375Y-14378687D02*
G75*
G03*
X15439375Y-14378687I100000J0D01*
G01*
X14839375Y-15778685D02*
G75*
G03*
X15239375Y-15378687I5J399995D01*
G01*
X5539375Y-3378687D02*
X5539375Y-10978688D01*
X17739375Y-2978684D02*
G75*
G03*
X17439375Y-3178687I5J-325006D01*
G01*
X15239375Y-7478687D02*
X15239375Y-9878688D01*
X5939375Y-2978687D02*
G75*
G03*
X5539375Y-3378687I0J-400000D01*
G01*
X15239375Y-15278687D02*
X15239375Y-15378687D01*
X5939375Y-2978687D02*
X12939375Y-2978687D01*
X15439375Y-10778688D02*
G75*
G03*
X15239375Y-10778688I-100000J0D01*
G01*
X15239375Y-9878688D02*
G75*
G03*
X15439375Y-9878688I100000J0D01*
G01*
X20339375Y-15778687D02*
X25139375Y-10978688D01*
X15439375Y-14378687D02*
X15439375Y-10778688D01*
X25139375Y-8578688D02*
X25139375Y-3361530D01*
X13239372Y-3178689D02*
G75*
G03*
X12939375Y-2978687I-300002J-125001D01*
G01*
X15439372Y-15378687D02*
G75*
G03*
X15839375Y-15778687I399998J-3D01*
G01*
X15839375Y-15778687D02*
X20339375Y-15778687D01*
X15439375Y-15278687D02*
G75*
G03*
X15239375Y-15278687I-100000J0D01*
G01*
X15239375Y-7478687D02*
X13239375Y-3178687D01*
X25139375Y-10978688D02*
X25139375Y-8578688D01*
X15439375Y-7478687D02*
X15439375Y-9878688D01*
X15439375Y-15278687D02*
X15439375Y-15378687D01*
X25139370Y-3361530D02*
G75*
G03*
X24739375Y-2978687I-383210J0D01*
G01*
X5539375Y-10978688D02*
X10339375Y-15778687D01*
X15239375Y-10778688D02*
X15239375Y-14378687D01*
X15439375Y-7478687D02*
X17439375Y-3178687D01*
X17739375Y-2978687D02*
X24739375Y-2978687D01*
X10339375Y-15778687D02*
X14839375Y-15778687D01*
D11*
D12*
X15314375Y-10024688D02*
X15364375Y-10074688D01*
X15364375Y-10024688D02*
X15314375Y-10074688D01*
X15314375Y-10303688D02*
X15364375Y-10353688D01*
X15364375Y-10303688D02*
X15314375Y-10353688D01*
X15314375Y-10582688D02*
X15364375Y-10632688D01*
X15364375Y-10582688D02*
X15314375Y-10632688D01*
X15314375Y-14524687D02*
X15364375Y-14574687D01*
X15364375Y-14524687D02*
X15314375Y-14574687D01*
X15314375Y-14803687D02*
X15364375Y-14853687D01*
X15364375Y-14803687D02*
X15314375Y-14853687D01*
X15314375Y-15082687D02*
X15364375Y-15132687D01*
X15364375Y-15082687D02*
X15314375Y-15132687D01*
D13*
X6800698Y-6515405D02*
G75*
G03*
X6800698Y-6515405I-87500J0D01*
G01*
X7357666Y-4693645D02*
G75*
G03*
X7357666Y-4693645I-87500J0D01*
G01*
X7772304Y-6812455D02*
G75*
G03*
X7772304Y-6812455I-87500J0D01*
G01*
X8329272Y-4990694D02*
G75*
G03*
X8329272Y-4990694I-87500J0D01*
G01*
X9904651Y-6136350D02*
G75*
G03*
X9904651Y-6136350I-87500J0D01*
G01*
X10461619Y-4314590D02*
G75*
G03*
X10461619Y-4314590I-87500J0D01*
G01*
X10876257Y-6433400D02*
G75*
G03*
X10876257Y-6433400I-87500J0D01*
G01*
X11433225Y-4611639D02*
G75*
G03*
X11433225Y-4611639I-87500J0D01*
G01*
X11664389Y-13132368D02*
G75*
G03*
X11664389Y-13132368I-87500J0D01*
G01*
X12080324Y-8793563D02*
G75*
G03*
X12080324Y-8793563I-87500J0D01*
G01*
X12516478Y-13685721D02*
G75*
G03*
X12516478Y-13685721I-87500J0D01*
G01*
X12637292Y-6971802D02*
G75*
G03*
X12637292Y-6971802I-87500J0D01*
G01*
X13051930Y-9090613D02*
G75*
G03*
X13051930Y-9090613I-87500J0D01*
G01*
X13262056Y-14169905D02*
G75*
G03*
X13262056Y-14169905I-87500J0D01*
G01*
X13608898Y-7268852D02*
G75*
G03*
X13608898Y-7268852I-87500J0D01*
G01*
X14114145Y-14723259D02*
G75*
G03*
X14114145Y-14723259I-87500J0D01*
G01*
X16739661Y-14668116D02*
G75*
G03*
X16739661Y-14668116I-87500J0D01*
G01*
X17280719Y-7268852D02*
G75*
G03*
X17280719Y-7268852I-87500J0D01*
G01*
X17591750Y-14114763D02*
G75*
G03*
X17591750Y-14114763I-87500J0D01*
G01*
X17837687Y-9090613D02*
G75*
G03*
X17837687Y-9090613I-87500J0D01*
G01*
X18252325Y-6971802D02*
G75*
G03*
X18252325Y-6971802I-87500J0D01*
G01*
X18337329Y-13630579D02*
G75*
G03*
X18337329Y-13630579I-87500J0D01*
G01*
X18809292Y-8793563D02*
G75*
G03*
X18809292Y-8793563I-87500J0D01*
G01*
X19189418Y-13077226D02*
G75*
G03*
X19189418Y-13077226I-87500J0D01*
G01*
X19456392Y-4611639D02*
G75*
G03*
X19456392Y-4611639I-87500J0D01*
G01*
X20013360Y-6433400D02*
G75*
G03*
X20013360Y-6433400I-87500J0D01*
G01*
X20427997Y-4314590D02*
G75*
G03*
X20427997Y-4314590I-87500J0D01*
G01*
X20984965Y-6136350D02*
G75*
G03*
X20984965Y-6136350I-87500J0D01*
G01*
X22560344Y-4990694D02*
G75*
G03*
X22560344Y-4990694I-87500J0D01*
G01*
X23117313Y-6812455D02*
G75*
G03*
X23117313Y-6812455I-87500J0D01*
G01*
X23531950Y-4693645D02*
G75*
G03*
X23531950Y-4693645I-87500J0D01*
G01*
X24088918Y-6515405D02*
G75*
G03*
X24088918Y-6515405I-87500J0D01*
G01*
D14*
X5939375Y-7568687D02*
X5939375Y-7788687D01*
X5829375Y-7678687D02*
X6049375Y-7678687D01*
X5939375Y-10668688D02*
X5939375Y-10888688D01*
X5829375Y-10778688D02*
X6049375Y-10778688D01*
X5939375Y-3268687D02*
X5939375Y-3488687D01*
X5829375Y-3378687D02*
X6049375Y-3378687D01*
X10539375Y-15268687D02*
X10539375Y-15488687D01*
X10429375Y-15378687D02*
X10649375Y-15378687D01*
X11139375Y-10968688D02*
X11139375Y-11188687D01*
X11029375Y-11078688D02*
X11249375Y-11078688D01*
X12939375Y-3168687D02*
X12939375Y-3388687D01*
X12829375Y-3278687D02*
X13049375Y-3278687D01*
X14839375Y-15268688D02*
X14839375Y-15488688D01*
X14729375Y-15378688D02*
X14949375Y-15378688D01*
X14939375Y-7468687D02*
X14939375Y-7688687D01*
X14829375Y-7578687D02*
X15049375Y-7578687D01*
X15739375Y-7468687D02*
X15739375Y-7688687D01*
X15629375Y-7578687D02*
X15849375Y-7578687D01*
X15839375Y-15268688D02*
X15839375Y-15488688D01*
X15729375Y-15378688D02*
X15949375Y-15378688D01*
X17739375Y-3193688D02*
X17739375Y-3413688D01*
X17629375Y-3303688D02*
X17849375Y-3303688D01*
X19539375Y-10968688D02*
X19539375Y-11188687D01*
X19429375Y-11078688D02*
X19649375Y-11078688D01*
X20139375Y-15268687D02*
X20139375Y-15488687D01*
X20029375Y-15378687D02*
X20249375Y-15378687D01*
X24739375Y-7568687D02*
X24739375Y-7788687D01*
X24629375Y-7678687D02*
X24849375Y-7678687D01*
X24739375Y-10668688D02*
X24739375Y-10888688D01*
X24629375Y-10778688D02*
X24849375Y-10778688D01*
X24756164Y-3251530D02*
X24756164Y-3471530D01*
X24646164Y-3361530D02*
X24866164Y-3361530D01*
D11*
X5791994Y-16094164D02*
X5791994Y-15894164D01*
X5839613Y-15894164D01*
X5868184Y-15903687D01*
X5887232Y-15922735D01*
X5896756Y-15941783D01*
X5906280Y-15979878D01*
X5906280Y-16008449D01*
X5896756Y-16046545D01*
X5887232Y-16065592D01*
X5868184Y-16084640D01*
X5839613Y-16094164D01*
X5791994Y-16094164D01*
X5991994Y-16094164D02*
X5991994Y-15960830D01*
X5991994Y-15998925D02*
X6001518Y-15979878D01*
X6011042Y-15970354D01*
X6030089Y-15960830D01*
X6049137Y-15960830D01*
X6115803Y-16094164D02*
X6115803Y-15960830D01*
X6115803Y-15894164D02*
X6106280Y-15903687D01*
X6115803Y-15913211D01*
X6125327Y-15903687D01*
X6115803Y-15894164D01*
X6115803Y-15913211D01*
X6239613Y-16094164D02*
X6220565Y-16084640D01*
X6211042Y-16065592D01*
X6211042Y-15894164D01*
X6344375Y-16094164D02*
X6325327Y-16084640D01*
X6315803Y-16065592D01*
X6315803Y-15894164D01*
X6572946Y-16094164D02*
X6572946Y-15894164D01*
X6639613Y-16037021D01*
X6706280Y-15894164D01*
X6706280Y-16094164D01*
X6887232Y-16094164D02*
X6887232Y-15989402D01*
X6877708Y-15970354D01*
X6858661Y-15960830D01*
X6820565Y-15960830D01*
X6801518Y-15970354D01*
X6887232Y-16084640D02*
X6868184Y-16094164D01*
X6820565Y-16094164D01*
X6801518Y-16084640D01*
X6791994Y-16065592D01*
X6791994Y-16046545D01*
X6801518Y-16027497D01*
X6820565Y-16017973D01*
X6868184Y-16017973D01*
X6887232Y-16008449D01*
X6982470Y-15960830D02*
X6982470Y-16160830D01*
X6982470Y-15970354D02*
X7001518Y-15960830D01*
X7039613Y-15960830D01*
X7058661Y-15970354D01*
X7068184Y-15979878D01*
X7077708Y-15998925D01*
X7077708Y-16056068D01*
X7068184Y-16075116D01*
X7058661Y-16084640D01*
X7039613Y-16094164D01*
X7001518Y-16094164D01*
X6982470Y-16084640D01*
X7163423Y-16075116D02*
X7172946Y-16084640D01*
X7163423Y-16094164D01*
X7153899Y-16084640D01*
X7163423Y-16075116D01*
X7163423Y-16094164D01*
X7163423Y-15970354D02*
X7172946Y-15979878D01*
X7163423Y-15989402D01*
X7153899Y-15979878D01*
X7163423Y-15970354D01*
X7163423Y-15989402D01*
D12*
X5484375Y-16398687D02*
X5534375Y-16448687D01*
X5534375Y-16398687D02*
X5484375Y-16448687D01*
D11*
X5830089Y-16314164D02*
X5849137Y-16314164D01*
X5868184Y-16323687D01*
X5877708Y-16333211D01*
X5887232Y-16352259D01*
X5896756Y-16390354D01*
X5896756Y-16437973D01*
X5887232Y-16476068D01*
X5877708Y-16495116D01*
X5868184Y-16504640D01*
X5849137Y-16514164D01*
X5830089Y-16514164D01*
X5811042Y-16504640D01*
X5801518Y-16495116D01*
X5791994Y-16476068D01*
X5782470Y-16437973D01*
X5782470Y-16390354D01*
X5791994Y-16352259D01*
X5801518Y-16333211D01*
X5811042Y-16323687D01*
X5830089Y-16314164D01*
X5982470Y-16495116D02*
X5991994Y-16504640D01*
X5982470Y-16514164D01*
X5972946Y-16504640D01*
X5982470Y-16495116D01*
X5982470Y-16514164D01*
X6172946Y-16314164D02*
X6077708Y-16314164D01*
X6068184Y-16409402D01*
X6077708Y-16399878D01*
X6096756Y-16390354D01*
X6144375Y-16390354D01*
X6163423Y-16399878D01*
X6172946Y-16409402D01*
X6182470Y-16428449D01*
X6182470Y-16476068D01*
X6172946Y-16495116D01*
X6163423Y-16504640D01*
X6144375Y-16514164D01*
X6096756Y-16514164D01*
X6077708Y-16504640D01*
X6068184Y-16495116D01*
X6306280Y-16314164D02*
X6325327Y-16314164D01*
X6344375Y-16323687D01*
X6353899Y-16333211D01*
X6363423Y-16352259D01*
X6372946Y-16390354D01*
X6372946Y-16437973D01*
X6363423Y-16476068D01*
X6353899Y-16495116D01*
X6344375Y-16504640D01*
X6325327Y-16514164D01*
X6306280Y-16514164D01*
X6287232Y-16504640D01*
X6277708Y-16495116D01*
X6268184Y-16476068D01*
X6258661Y-16437973D01*
X6258661Y-16390354D01*
X6268184Y-16352259D01*
X6277708Y-16333211D01*
X6287232Y-16323687D01*
X6306280Y-16314164D01*
X6496756Y-16314164D02*
X6515803Y-16314164D01*
X6534851Y-16323687D01*
X6544375Y-16333211D01*
X6553899Y-16352259D01*
X6563423Y-16390354D01*
X6563423Y-16437973D01*
X6553899Y-16476068D01*
X6544375Y-16495116D01*
X6534851Y-16504640D01*
X6515803Y-16514164D01*
X6496756Y-16514164D01*
X6477708Y-16504640D01*
X6468184Y-16495116D01*
X6458661Y-16476068D01*
X6449137Y-16437973D01*
X6449137Y-16390354D01*
X6458661Y-16352259D01*
X6468184Y-16333211D01*
X6477708Y-16323687D01*
X6496756Y-16314164D01*
X6649137Y-16514164D02*
X6649137Y-16380830D01*
X6649137Y-16399878D02*
X6658661Y-16390354D01*
X6677708Y-16380830D01*
X6706280Y-16380830D01*
X6725327Y-16390354D01*
X6734851Y-16409402D01*
X6734851Y-16514164D01*
X6734851Y-16409402D02*
X6744375Y-16390354D01*
X6763423Y-16380830D01*
X6791994Y-16380830D01*
X6811042Y-16390354D01*
X6820565Y-16409402D01*
X6820565Y-16514164D01*
X6915803Y-16514164D02*
X6915803Y-16380830D01*
X6915803Y-16399878D02*
X6925327Y-16390354D01*
X6944375Y-16380830D01*
X6972946Y-16380830D01*
X6991994Y-16390354D01*
X7001518Y-16409402D01*
X7001518Y-16514164D01*
X7001518Y-16409402D02*
X7011042Y-16390354D01*
X7030089Y-16380830D01*
X7058661Y-16380830D01*
X7077708Y-16390354D01*
X7087232Y-16409402D01*
X7087232Y-16514164D01*
X7477708Y-16304640D02*
X7306280Y-16561783D01*
X7734851Y-16314164D02*
X7753899Y-16314164D01*
X7772946Y-16323687D01*
X7782470Y-16333211D01*
X7791994Y-16352259D01*
X7801518Y-16390354D01*
X7801518Y-16437973D01*
X7791994Y-16476068D01*
X7782470Y-16495116D01*
X7772946Y-16504640D01*
X7753899Y-16514164D01*
X7734851Y-16514164D01*
X7715803Y-16504640D01*
X7706280Y-16495116D01*
X7696756Y-16476068D01*
X7687232Y-16437973D01*
X7687232Y-16390354D01*
X7696756Y-16352259D01*
X7706280Y-16333211D01*
X7715803Y-16323687D01*
X7734851Y-16314164D01*
X7887232Y-16495116D02*
X7896756Y-16504640D01*
X7887232Y-16514164D01*
X7877708Y-16504640D01*
X7887232Y-16495116D01*
X7887232Y-16514164D01*
X8020565Y-16314164D02*
X8039613Y-16314164D01*
X8058661Y-16323687D01*
X8068184Y-16333211D01*
X8077708Y-16352259D01*
X8087232Y-16390354D01*
X8087232Y-16437973D01*
X8077708Y-16476068D01*
X8068184Y-16495116D01*
X8058661Y-16504640D01*
X8039613Y-16514164D01*
X8020565Y-16514164D01*
X8001518Y-16504640D01*
X7991994Y-16495116D01*
X7982470Y-16476068D01*
X7972946Y-16437973D01*
X7972946Y-16390354D01*
X7982470Y-16352259D01*
X7991994Y-16333211D01*
X8001518Y-16323687D01*
X8020565Y-16314164D01*
X8277708Y-16514164D02*
X8163423Y-16514164D01*
X8220565Y-16514164D02*
X8220565Y-16314164D01*
X8201518Y-16342735D01*
X8182470Y-16361783D01*
X8163423Y-16371306D01*
X8372946Y-16514164D02*
X8411042Y-16514164D01*
X8430089Y-16504640D01*
X8439613Y-16495116D01*
X8458661Y-16466545D01*
X8468185Y-16428449D01*
X8468185Y-16352259D01*
X8458661Y-16333211D01*
X8449137Y-16323687D01*
X8430089Y-16314164D01*
X8391994Y-16314164D01*
X8372946Y-16323687D01*
X8363423Y-16333211D01*
X8353899Y-16352259D01*
X8353899Y-16399878D01*
X8363423Y-16418925D01*
X8372946Y-16428449D01*
X8391994Y-16437973D01*
X8430089Y-16437973D01*
X8449137Y-16428449D01*
X8458661Y-16418925D01*
X8468185Y-16399878D01*
X8534851Y-16314164D02*
X8668185Y-16314164D01*
X8582470Y-16514164D01*
X8734851Y-16314164D02*
X8734851Y-16352259D01*
X8811042Y-16314164D02*
X8811042Y-16352259D01*
X9106280Y-16590354D02*
X9096756Y-16580830D01*
X9077708Y-16552259D01*
X9068185Y-16533211D01*
X9058661Y-16504640D01*
X9049137Y-16457021D01*
X9049137Y-16418925D01*
X9058661Y-16371306D01*
X9068185Y-16342735D01*
X9077708Y-16323687D01*
X9096756Y-16295116D01*
X9106280Y-16285592D01*
X9268185Y-16314164D02*
X9230089Y-16314164D01*
X9211042Y-16323687D01*
X9201518Y-16333211D01*
X9182470Y-16361783D01*
X9172946Y-16399878D01*
X9172946Y-16476068D01*
X9182470Y-16495116D01*
X9191994Y-16504640D01*
X9211042Y-16514164D01*
X9249137Y-16514164D01*
X9268185Y-16504640D01*
X9277708Y-16495116D01*
X9287232Y-16476068D01*
X9287232Y-16428449D01*
X9277708Y-16409402D01*
X9268185Y-16399878D01*
X9249137Y-16390354D01*
X9211042Y-16390354D01*
X9191994Y-16399878D01*
X9182470Y-16409402D01*
X9172946Y-16428449D01*
X9525327Y-16514164D02*
X9525327Y-16314164D01*
X9611042Y-16514164D02*
X9611042Y-16409402D01*
X9601518Y-16390354D01*
X9582470Y-16380830D01*
X9553899Y-16380830D01*
X9534851Y-16390354D01*
X9525327Y-16399878D01*
X9734851Y-16514164D02*
X9715804Y-16504640D01*
X9706280Y-16495116D01*
X9696756Y-16476068D01*
X9696756Y-16418925D01*
X9706280Y-16399878D01*
X9715804Y-16390354D01*
X9734851Y-16380830D01*
X9763423Y-16380830D01*
X9782470Y-16390354D01*
X9791994Y-16399878D01*
X9801518Y-16418925D01*
X9801518Y-16476068D01*
X9791994Y-16495116D01*
X9782470Y-16504640D01*
X9763423Y-16514164D01*
X9734851Y-16514164D01*
X9915804Y-16514164D02*
X9896756Y-16504640D01*
X9887232Y-16485592D01*
X9887232Y-16314164D01*
X10068185Y-16504640D02*
X10049137Y-16514164D01*
X10011042Y-16514164D01*
X9991994Y-16504640D01*
X9982470Y-16485592D01*
X9982470Y-16409402D01*
X9991994Y-16390354D01*
X10011042Y-16380830D01*
X10049137Y-16380830D01*
X10068185Y-16390354D01*
X10077708Y-16409402D01*
X10077708Y-16428449D01*
X9982470Y-16447497D01*
X10153899Y-16504640D02*
X10172946Y-16514164D01*
X10211042Y-16514164D01*
X10230089Y-16504640D01*
X10239613Y-16485592D01*
X10239613Y-16476068D01*
X10230089Y-16457021D01*
X10211042Y-16447497D01*
X10182470Y-16447497D01*
X10163423Y-16437973D01*
X10153899Y-16418925D01*
X10153899Y-16409402D01*
X10163423Y-16390354D01*
X10182470Y-16380830D01*
X10211042Y-16380830D01*
X10230089Y-16390354D01*
X10306280Y-16590354D02*
X10315804Y-16580830D01*
X10334851Y-16552259D01*
X10344375Y-16533211D01*
X10353899Y-16504640D01*
X10363423Y-16457021D01*
X10363423Y-16418925D01*
X10353899Y-16371306D01*
X10344375Y-16342735D01*
X10334851Y-16323687D01*
X10315804Y-16295116D01*
X10306280Y-16285592D01*
X10668185Y-16590354D02*
X10658661Y-16580830D01*
X10639613Y-16552259D01*
X10630089Y-16533211D01*
X10620565Y-16504640D01*
X10611042Y-16457021D01*
X10611042Y-16418925D01*
X10620565Y-16371306D01*
X10630089Y-16342735D01*
X10639613Y-16323687D01*
X10658661Y-16295116D01*
X10668185Y-16285592D01*
X10744375Y-16380830D02*
X10744375Y-16514164D01*
X10744375Y-16399878D02*
X10753899Y-16390354D01*
X10772946Y-16380830D01*
X10801518Y-16380830D01*
X10820565Y-16390354D01*
X10830089Y-16409402D01*
X10830089Y-16514164D01*
X10953899Y-16514164D02*
X10934851Y-16504640D01*
X10925327Y-16495116D01*
X10915804Y-16476068D01*
X10915804Y-16418925D01*
X10925327Y-16399878D01*
X10934851Y-16390354D01*
X10953899Y-16380830D01*
X10982470Y-16380830D01*
X11001518Y-16390354D01*
X11011042Y-16399878D01*
X11020565Y-16418925D01*
X11020565Y-16476068D01*
X11011042Y-16495116D01*
X11001518Y-16504640D01*
X10982470Y-16514164D01*
X10953899Y-16514164D01*
X11077708Y-16380830D02*
X11153899Y-16380830D01*
X11106280Y-16314164D02*
X11106280Y-16485592D01*
X11115804Y-16504640D01*
X11134851Y-16514164D01*
X11153899Y-16514164D01*
X11372946Y-16380830D02*
X11372946Y-16580830D01*
X11372946Y-16390354D02*
X11391994Y-16380830D01*
X11430089Y-16380830D01*
X11449137Y-16390354D01*
X11458661Y-16399878D01*
X11468184Y-16418925D01*
X11468184Y-16476068D01*
X11458661Y-16495116D01*
X11449137Y-16504640D01*
X11430089Y-16514164D01*
X11391994Y-16514164D01*
X11372946Y-16504640D01*
X11582470Y-16514164D02*
X11563423Y-16504640D01*
X11553899Y-16485592D01*
X11553899Y-16314164D01*
X11744375Y-16514164D02*
X11744375Y-16409402D01*
X11734851Y-16390354D01*
X11715803Y-16380830D01*
X11677708Y-16380830D01*
X11658661Y-16390354D01*
X11744375Y-16504640D02*
X11725327Y-16514164D01*
X11677708Y-16514164D01*
X11658661Y-16504640D01*
X11649137Y-16485592D01*
X11649137Y-16466545D01*
X11658661Y-16447497D01*
X11677708Y-16437973D01*
X11725327Y-16437973D01*
X11744375Y-16428449D01*
X11811042Y-16380830D02*
X11887232Y-16380830D01*
X11839613Y-16314164D02*
X11839613Y-16485592D01*
X11849137Y-16504640D01*
X11868184Y-16514164D01*
X11887232Y-16514164D01*
X12030089Y-16504640D02*
X12011042Y-16514164D01*
X11972946Y-16514164D01*
X11953899Y-16504640D01*
X11944375Y-16485592D01*
X11944375Y-16409402D01*
X11953899Y-16390354D01*
X11972946Y-16380830D01*
X12011042Y-16380830D01*
X12030089Y-16390354D01*
X12039613Y-16409402D01*
X12039613Y-16428449D01*
X11944375Y-16447497D01*
X12211042Y-16514164D02*
X12211042Y-16314164D01*
X12211042Y-16504640D02*
X12191994Y-16514164D01*
X12153899Y-16514164D01*
X12134851Y-16504640D01*
X12125327Y-16495116D01*
X12115803Y-16476068D01*
X12115803Y-16418925D01*
X12125327Y-16399878D01*
X12134851Y-16390354D01*
X12153899Y-16380830D01*
X12191994Y-16380830D01*
X12211042Y-16390354D01*
X12287232Y-16590354D02*
X12296756Y-16580830D01*
X12315803Y-16552259D01*
X12325327Y-16533211D01*
X12334851Y-16504640D01*
X12344375Y-16457021D01*
X12344375Y-16418925D01*
X12334851Y-16371306D01*
X12325327Y-16342735D01*
X12315803Y-16323687D01*
X12296756Y-16295116D01*
X12287232Y-16285592D01*
D13*
X5534375Y-16687687D02*
G75*
G03*
X5534375Y-16687687I-87500J0D01*
G01*
D11*
X5896756Y-16778164D02*
X5782470Y-16778164D01*
X5839613Y-16778164D02*
X5839613Y-16578164D01*
X5820565Y-16606735D01*
X5801518Y-16625783D01*
X5782470Y-16635306D01*
X5982470Y-16759116D02*
X5991994Y-16768640D01*
X5982470Y-16778164D01*
X5972946Y-16768640D01*
X5982470Y-16759116D01*
X5982470Y-16778164D01*
X6058661Y-16578164D02*
X6191994Y-16578164D01*
X6106280Y-16778164D01*
X6363423Y-16578164D02*
X6268184Y-16578164D01*
X6258661Y-16673402D01*
X6268184Y-16663878D01*
X6287232Y-16654354D01*
X6334851Y-16654354D01*
X6353899Y-16663878D01*
X6363423Y-16673402D01*
X6372946Y-16692449D01*
X6372946Y-16740068D01*
X6363423Y-16759116D01*
X6353899Y-16768640D01*
X6334851Y-16778164D01*
X6287232Y-16778164D01*
X6268184Y-16768640D01*
X6258661Y-16759116D01*
X6496756Y-16578164D02*
X6515803Y-16578164D01*
X6534851Y-16587687D01*
X6544375Y-16597211D01*
X6553899Y-16616259D01*
X6563423Y-16654354D01*
X6563423Y-16701973D01*
X6553899Y-16740068D01*
X6544375Y-16759116D01*
X6534851Y-16768640D01*
X6515803Y-16778164D01*
X6496756Y-16778164D01*
X6477708Y-16768640D01*
X6468184Y-16759116D01*
X6458661Y-16740068D01*
X6449137Y-16701973D01*
X6449137Y-16654354D01*
X6458661Y-16616259D01*
X6468184Y-16597211D01*
X6477708Y-16587687D01*
X6496756Y-16578164D01*
X6649137Y-16778164D02*
X6649137Y-16644830D01*
X6649137Y-16663878D02*
X6658661Y-16654354D01*
X6677708Y-16644830D01*
X6706280Y-16644830D01*
X6725327Y-16654354D01*
X6734851Y-16673402D01*
X6734851Y-16778164D01*
X6734851Y-16673402D02*
X6744375Y-16654354D01*
X6763423Y-16644830D01*
X6791994Y-16644830D01*
X6811042Y-16654354D01*
X6820565Y-16673402D01*
X6820565Y-16778164D01*
X6915803Y-16778164D02*
X6915803Y-16644830D01*
X6915803Y-16663878D02*
X6925327Y-16654354D01*
X6944375Y-16644830D01*
X6972946Y-16644830D01*
X6991994Y-16654354D01*
X7001518Y-16673402D01*
X7001518Y-16778164D01*
X7001518Y-16673402D02*
X7011042Y-16654354D01*
X7030089Y-16644830D01*
X7058661Y-16644830D01*
X7077708Y-16654354D01*
X7087232Y-16673402D01*
X7087232Y-16778164D01*
X7477708Y-16568640D02*
X7306280Y-16825783D01*
X7734851Y-16578164D02*
X7753899Y-16578164D01*
X7772946Y-16587687D01*
X7782470Y-16597211D01*
X7791994Y-16616259D01*
X7801518Y-16654354D01*
X7801518Y-16701973D01*
X7791994Y-16740068D01*
X7782470Y-16759116D01*
X7772946Y-16768640D01*
X7753899Y-16778164D01*
X7734851Y-16778164D01*
X7715803Y-16768640D01*
X7706280Y-16759116D01*
X7696756Y-16740068D01*
X7687232Y-16701973D01*
X7687232Y-16654354D01*
X7696756Y-16616259D01*
X7706280Y-16597211D01*
X7715803Y-16587687D01*
X7734851Y-16578164D01*
X7887232Y-16759116D02*
X7896756Y-16768640D01*
X7887232Y-16778164D01*
X7877708Y-16768640D01*
X7887232Y-16759116D01*
X7887232Y-16778164D01*
X8020565Y-16578164D02*
X8039613Y-16578164D01*
X8058661Y-16587687D01*
X8068184Y-16597211D01*
X8077708Y-16616259D01*
X8087232Y-16654354D01*
X8087232Y-16701973D01*
X8077708Y-16740068D01*
X8068184Y-16759116D01*
X8058661Y-16768640D01*
X8039613Y-16778164D01*
X8020565Y-16778164D01*
X8001518Y-16768640D01*
X7991994Y-16759116D01*
X7982470Y-16740068D01*
X7972946Y-16701973D01*
X7972946Y-16654354D01*
X7982470Y-16616259D01*
X7991994Y-16597211D01*
X8001518Y-16587687D01*
X8020565Y-16578164D01*
X8258661Y-16578164D02*
X8220565Y-16578164D01*
X8201518Y-16587687D01*
X8191994Y-16597211D01*
X8172946Y-16625783D01*
X8163423Y-16663878D01*
X8163423Y-16740068D01*
X8172946Y-16759116D01*
X8182470Y-16768640D01*
X8201518Y-16778164D01*
X8239613Y-16778164D01*
X8258661Y-16768640D01*
X8268184Y-16759116D01*
X8277708Y-16740068D01*
X8277708Y-16692449D01*
X8268184Y-16673402D01*
X8258661Y-16663878D01*
X8239613Y-16654354D01*
X8201518Y-16654354D01*
X8182470Y-16663878D01*
X8172946Y-16673402D01*
X8163423Y-16692449D01*
X8391994Y-16663878D02*
X8372946Y-16654354D01*
X8363423Y-16644830D01*
X8353899Y-16625783D01*
X8353899Y-16616259D01*
X8363423Y-16597211D01*
X8372946Y-16587687D01*
X8391994Y-16578164D01*
X8430089Y-16578164D01*
X8449137Y-16587687D01*
X8458661Y-16597211D01*
X8468185Y-16616259D01*
X8468185Y-16625783D01*
X8458661Y-16644830D01*
X8449137Y-16654354D01*
X8430089Y-16663878D01*
X8391994Y-16663878D01*
X8372946Y-16673402D01*
X8363423Y-16682925D01*
X8353899Y-16701973D01*
X8353899Y-16740068D01*
X8363423Y-16759116D01*
X8372946Y-16768640D01*
X8391994Y-16778164D01*
X8430089Y-16778164D01*
X8449137Y-16768640D01*
X8458661Y-16759116D01*
X8468185Y-16740068D01*
X8468185Y-16701973D01*
X8458661Y-16682925D01*
X8449137Y-16673402D01*
X8430089Y-16663878D01*
X8563423Y-16778164D02*
X8601518Y-16778164D01*
X8620565Y-16768640D01*
X8630089Y-16759116D01*
X8649137Y-16730545D01*
X8658661Y-16692449D01*
X8658661Y-16616259D01*
X8649137Y-16597211D01*
X8639613Y-16587687D01*
X8620565Y-16578164D01*
X8582470Y-16578164D01*
X8563423Y-16587687D01*
X8553899Y-16597211D01*
X8544375Y-16616259D01*
X8544375Y-16663878D01*
X8553899Y-16682925D01*
X8563423Y-16692449D01*
X8582470Y-16701973D01*
X8620565Y-16701973D01*
X8639613Y-16692449D01*
X8649137Y-16682925D01*
X8658661Y-16663878D01*
X8734851Y-16578164D02*
X8734851Y-16616259D01*
X8811042Y-16578164D02*
X8811042Y-16616259D01*
X9106280Y-16854354D02*
X9096756Y-16844830D01*
X9077708Y-16816259D01*
X9068185Y-16797211D01*
X9058661Y-16768640D01*
X9049137Y-16721021D01*
X9049137Y-16682925D01*
X9058661Y-16635306D01*
X9068185Y-16606735D01*
X9077708Y-16587687D01*
X9096756Y-16559116D01*
X9106280Y-16549592D01*
X9163423Y-16578164D02*
X9287232Y-16578164D01*
X9220565Y-16654354D01*
X9249137Y-16654354D01*
X9268185Y-16663878D01*
X9277708Y-16673402D01*
X9287232Y-16692449D01*
X9287232Y-16740068D01*
X9277708Y-16759116D01*
X9268185Y-16768640D01*
X9249137Y-16778164D01*
X9191994Y-16778164D01*
X9172946Y-16768640D01*
X9163423Y-16759116D01*
X9363423Y-16597211D02*
X9372946Y-16587687D01*
X9391994Y-16578164D01*
X9439613Y-16578164D01*
X9458661Y-16587687D01*
X9468185Y-16597211D01*
X9477708Y-16616259D01*
X9477708Y-16635306D01*
X9468185Y-16663878D01*
X9353899Y-16778164D01*
X9477708Y-16778164D01*
X9715804Y-16778164D02*
X9715804Y-16578164D01*
X9801518Y-16778164D02*
X9801518Y-16673402D01*
X9791994Y-16654354D01*
X9772946Y-16644830D01*
X9744375Y-16644830D01*
X9725327Y-16654354D01*
X9715804Y-16663878D01*
X9925327Y-16778164D02*
X9906280Y-16768640D01*
X9896756Y-16759116D01*
X9887232Y-16740068D01*
X9887232Y-16682925D01*
X9896756Y-16663878D01*
X9906280Y-16654354D01*
X9925327Y-16644830D01*
X9953899Y-16644830D01*
X9972946Y-16654354D01*
X9982470Y-16663878D01*
X9991994Y-16682925D01*
X9991994Y-16740068D01*
X9982470Y-16759116D01*
X9972946Y-16768640D01*
X9953899Y-16778164D01*
X9925327Y-16778164D01*
X10106280Y-16778164D02*
X10087232Y-16768640D01*
X10077708Y-16749592D01*
X10077708Y-16578164D01*
X10258661Y-16768640D02*
X10239613Y-16778164D01*
X10201518Y-16778164D01*
X10182470Y-16768640D01*
X10172946Y-16749592D01*
X10172946Y-16673402D01*
X10182470Y-16654354D01*
X10201518Y-16644830D01*
X10239613Y-16644830D01*
X10258661Y-16654354D01*
X10268185Y-16673402D01*
X10268185Y-16692449D01*
X10172946Y-16711497D01*
X10344375Y-16768640D02*
X10363423Y-16778164D01*
X10401518Y-16778164D01*
X10420565Y-16768640D01*
X10430089Y-16749592D01*
X10430089Y-16740068D01*
X10420565Y-16721021D01*
X10401518Y-16711497D01*
X10372946Y-16711497D01*
X10353899Y-16701973D01*
X10344375Y-16682925D01*
X10344375Y-16673402D01*
X10353899Y-16654354D01*
X10372946Y-16644830D01*
X10401518Y-16644830D01*
X10420565Y-16654354D01*
X10496756Y-16854354D02*
X10506280Y-16844830D01*
X10525327Y-16816259D01*
X10534851Y-16797211D01*
X10544375Y-16768640D01*
X10553899Y-16721021D01*
X10553899Y-16682925D01*
X10544375Y-16635306D01*
X10534851Y-16606735D01*
X10525327Y-16587687D01*
X10506280Y-16559116D01*
X10496756Y-16549592D01*
X10858661Y-16854354D02*
X10849137Y-16844830D01*
X10830089Y-16816259D01*
X10820565Y-16797211D01*
X10811042Y-16768640D01*
X10801518Y-16721021D01*
X10801518Y-16682925D01*
X10811042Y-16635306D01*
X10820565Y-16606735D01*
X10830089Y-16587687D01*
X10849137Y-16559116D01*
X10858661Y-16549592D01*
X10934851Y-16644830D02*
X10934851Y-16778164D01*
X10934851Y-16663878D02*
X10944375Y-16654354D01*
X10963423Y-16644830D01*
X10991994Y-16644830D01*
X11011042Y-16654354D01*
X11020565Y-16673402D01*
X11020565Y-16778164D01*
X11144375Y-16778164D02*
X11125327Y-16768640D01*
X11115804Y-16759116D01*
X11106280Y-16740068D01*
X11106280Y-16682925D01*
X11115804Y-16663878D01*
X11125327Y-16654354D01*
X11144375Y-16644830D01*
X11172946Y-16644830D01*
X11191994Y-16654354D01*
X11201518Y-16663878D01*
X11211042Y-16682925D01*
X11211042Y-16740068D01*
X11201518Y-16759116D01*
X11191994Y-16768640D01*
X11172946Y-16778164D01*
X11144375Y-16778164D01*
X11268184Y-16644830D02*
X11344375Y-16644830D01*
X11296756Y-16578164D02*
X11296756Y-16749592D01*
X11306280Y-16768640D01*
X11325327Y-16778164D01*
X11344375Y-16778164D01*
X11563423Y-16644830D02*
X11563423Y-16844830D01*
X11563423Y-16654354D02*
X11582470Y-16644830D01*
X11620565Y-16644830D01*
X11639613Y-16654354D01*
X11649137Y-16663878D01*
X11658661Y-16682925D01*
X11658661Y-16740068D01*
X11649137Y-16759116D01*
X11639613Y-16768640D01*
X11620565Y-16778164D01*
X11582470Y-16778164D01*
X11563423Y-16768640D01*
X11772946Y-16778164D02*
X11753899Y-16768640D01*
X11744375Y-16749592D01*
X11744375Y-16578164D01*
X11934851Y-16778164D02*
X11934851Y-16673402D01*
X11925327Y-16654354D01*
X11906280Y-16644830D01*
X11868184Y-16644830D01*
X11849137Y-16654354D01*
X11934851Y-16768640D02*
X11915803Y-16778164D01*
X11868184Y-16778164D01*
X11849137Y-16768640D01*
X11839613Y-16749592D01*
X11839613Y-16730545D01*
X11849137Y-16711497D01*
X11868184Y-16701973D01*
X11915803Y-16701973D01*
X11934851Y-16692449D01*
X12001518Y-16644830D02*
X12077708Y-16644830D01*
X12030089Y-16578164D02*
X12030089Y-16749592D01*
X12039613Y-16768640D01*
X12058661Y-16778164D01*
X12077708Y-16778164D01*
X12220565Y-16768640D02*
X12201518Y-16778164D01*
X12163423Y-16778164D01*
X12144375Y-16768640D01*
X12134851Y-16749592D01*
X12134851Y-16673402D01*
X12144375Y-16654354D01*
X12163423Y-16644830D01*
X12201518Y-16644830D01*
X12220565Y-16654354D01*
X12230089Y-16673402D01*
X12230089Y-16692449D01*
X12134851Y-16711497D01*
X12401518Y-16778164D02*
X12401518Y-16578164D01*
X12401518Y-16768640D02*
X12382470Y-16778164D01*
X12344375Y-16778164D01*
X12325327Y-16768640D01*
X12315803Y-16759116D01*
X12306280Y-16740068D01*
X12306280Y-16682925D01*
X12315803Y-16663878D01*
X12325327Y-16654354D01*
X12344375Y-16644830D01*
X12382470Y-16644830D01*
X12401518Y-16654354D01*
X12477708Y-16854354D02*
X12487232Y-16844830D01*
X12506280Y-16816259D01*
X12515803Y-16797211D01*
X12525327Y-16768640D01*
X12534851Y-16721021D01*
X12534851Y-16682925D01*
X12525327Y-16635306D01*
X12515803Y-16606735D01*
X12506280Y-16587687D01*
X12487232Y-16559116D01*
X12477708Y-16549592D01*
X5434375Y-16882688D02*
X5434375Y-17082688D01*
X5334375Y-16982688D02*
X5534375Y-16982688D01*
X5782470Y-16892211D02*
X5791994Y-16882688D01*
X5811042Y-16873164D01*
X5858661Y-16873164D01*
X5877708Y-16882688D01*
X5887232Y-16892211D01*
X5896756Y-16911259D01*
X5896756Y-16930307D01*
X5887232Y-16958878D01*
X5772946Y-17073164D01*
X5896756Y-17073164D01*
X5982470Y-17054116D02*
X5991994Y-17063640D01*
X5982470Y-17073164D01*
X5972946Y-17063640D01*
X5982470Y-17054116D01*
X5982470Y-17073164D01*
X6068184Y-16892211D02*
X6077708Y-16882688D01*
X6096756Y-16873164D01*
X6144375Y-16873164D01*
X6163423Y-16882688D01*
X6172946Y-16892211D01*
X6182470Y-16911259D01*
X6182470Y-16930307D01*
X6172946Y-16958878D01*
X6058661Y-17073164D01*
X6182470Y-17073164D01*
X6306280Y-16873164D02*
X6325327Y-16873164D01*
X6344375Y-16882688D01*
X6353899Y-16892211D01*
X6363423Y-16911259D01*
X6372946Y-16949354D01*
X6372946Y-16996973D01*
X6363423Y-17035068D01*
X6353899Y-17054116D01*
X6344375Y-17063640D01*
X6325327Y-17073164D01*
X6306280Y-17073164D01*
X6287232Y-17063640D01*
X6277708Y-17054116D01*
X6268184Y-17035068D01*
X6258661Y-16996973D01*
X6258661Y-16949354D01*
X6268184Y-16911259D01*
X6277708Y-16892211D01*
X6287232Y-16882688D01*
X6306280Y-16873164D01*
X6496756Y-16873164D02*
X6515803Y-16873164D01*
X6534851Y-16882688D01*
X6544375Y-16892211D01*
X6553899Y-16911259D01*
X6563423Y-16949354D01*
X6563423Y-16996973D01*
X6553899Y-17035068D01*
X6544375Y-17054116D01*
X6534851Y-17063640D01*
X6515803Y-17073164D01*
X6496756Y-17073164D01*
X6477708Y-17063640D01*
X6468184Y-17054116D01*
X6458661Y-17035068D01*
X6449137Y-16996973D01*
X6449137Y-16949354D01*
X6458661Y-16911259D01*
X6468184Y-16892211D01*
X6477708Y-16882688D01*
X6496756Y-16873164D01*
X6649137Y-17073164D02*
X6649137Y-16939830D01*
X6649137Y-16958878D02*
X6658661Y-16949354D01*
X6677708Y-16939830D01*
X6706280Y-16939830D01*
X6725327Y-16949354D01*
X6734851Y-16968402D01*
X6734851Y-17073164D01*
X6734851Y-16968402D02*
X6744375Y-16949354D01*
X6763423Y-16939830D01*
X6791994Y-16939830D01*
X6811042Y-16949354D01*
X6820565Y-16968402D01*
X6820565Y-17073164D01*
X6915803Y-17073164D02*
X6915803Y-16939830D01*
X6915803Y-16958878D02*
X6925327Y-16949354D01*
X6944375Y-16939830D01*
X6972946Y-16939830D01*
X6991994Y-16949354D01*
X7001518Y-16968402D01*
X7001518Y-17073164D01*
X7001518Y-16968402D02*
X7011042Y-16949354D01*
X7030089Y-16939830D01*
X7058661Y-16939830D01*
X7077708Y-16949354D01*
X7087232Y-16968402D01*
X7087232Y-17073164D01*
X7477708Y-16863640D02*
X7306280Y-17120783D01*
X7734851Y-16873164D02*
X7753899Y-16873164D01*
X7772946Y-16882688D01*
X7782470Y-16892211D01*
X7791994Y-16911259D01*
X7801518Y-16949354D01*
X7801518Y-16996973D01*
X7791994Y-17035068D01*
X7782470Y-17054116D01*
X7772946Y-17063640D01*
X7753899Y-17073164D01*
X7734851Y-17073164D01*
X7715803Y-17063640D01*
X7706280Y-17054116D01*
X7696756Y-17035068D01*
X7687232Y-16996973D01*
X7687232Y-16949354D01*
X7696756Y-16911259D01*
X7706280Y-16892211D01*
X7715803Y-16882688D01*
X7734851Y-16873164D01*
X7887232Y-17054116D02*
X7896756Y-17063640D01*
X7887232Y-17073164D01*
X7877708Y-17063640D01*
X7887232Y-17054116D01*
X7887232Y-17073164D01*
X8020565Y-16873164D02*
X8039613Y-16873164D01*
X8058661Y-16882688D01*
X8068184Y-16892211D01*
X8077708Y-16911259D01*
X8087232Y-16949354D01*
X8087232Y-16996973D01*
X8077708Y-17035068D01*
X8068184Y-17054116D01*
X8058661Y-17063640D01*
X8039613Y-17073164D01*
X8020565Y-17073164D01*
X8001518Y-17063640D01*
X7991994Y-17054116D01*
X7982470Y-17035068D01*
X7972946Y-16996973D01*
X7972946Y-16949354D01*
X7982470Y-16911259D01*
X7991994Y-16892211D01*
X8001518Y-16882688D01*
X8020565Y-16873164D01*
X8201518Y-16958878D02*
X8182470Y-16949354D01*
X8172946Y-16939830D01*
X8163423Y-16920783D01*
X8163423Y-16911259D01*
X8172946Y-16892211D01*
X8182470Y-16882688D01*
X8201518Y-16873164D01*
X8239613Y-16873164D01*
X8258661Y-16882688D01*
X8268184Y-16892211D01*
X8277708Y-16911259D01*
X8277708Y-16920783D01*
X8268184Y-16939830D01*
X8258661Y-16949354D01*
X8239613Y-16958878D01*
X8201518Y-16958878D01*
X8182470Y-16968402D01*
X8172946Y-16977926D01*
X8163423Y-16996973D01*
X8163423Y-17035068D01*
X8172946Y-17054116D01*
X8182470Y-17063640D01*
X8201518Y-17073164D01*
X8239613Y-17073164D01*
X8258661Y-17063640D01*
X8268184Y-17054116D01*
X8277708Y-17035068D01*
X8277708Y-16996973D01*
X8268184Y-16977926D01*
X8258661Y-16968402D01*
X8239613Y-16958878D01*
X8449137Y-16873164D02*
X8411042Y-16873164D01*
X8391994Y-16882688D01*
X8382470Y-16892211D01*
X8363423Y-16920783D01*
X8353899Y-16958878D01*
X8353899Y-17035068D01*
X8363423Y-17054116D01*
X8372946Y-17063640D01*
X8391994Y-17073164D01*
X8430089Y-17073164D01*
X8449137Y-17063640D01*
X8458661Y-17054116D01*
X8468185Y-17035068D01*
X8468185Y-16987449D01*
X8458661Y-16968402D01*
X8449137Y-16958878D01*
X8430089Y-16949354D01*
X8391994Y-16949354D01*
X8372946Y-16958878D01*
X8363423Y-16968402D01*
X8353899Y-16987449D01*
X8639613Y-16873164D02*
X8601518Y-16873164D01*
X8582470Y-16882688D01*
X8572946Y-16892211D01*
X8553899Y-16920783D01*
X8544375Y-16958878D01*
X8544375Y-17035068D01*
X8553899Y-17054116D01*
X8563423Y-17063640D01*
X8582470Y-17073164D01*
X8620565Y-17073164D01*
X8639613Y-17063640D01*
X8649137Y-17054116D01*
X8658661Y-17035068D01*
X8658661Y-16987449D01*
X8649137Y-16968402D01*
X8639613Y-16958878D01*
X8620565Y-16949354D01*
X8582470Y-16949354D01*
X8563423Y-16958878D01*
X8553899Y-16968402D01*
X8544375Y-16987449D01*
X8734851Y-16873164D02*
X8734851Y-16911259D01*
X8811042Y-16873164D02*
X8811042Y-16911259D01*
X9106280Y-17149354D02*
X9096756Y-17139830D01*
X9077708Y-17111259D01*
X9068185Y-17092211D01*
X9058661Y-17063640D01*
X9049137Y-17016021D01*
X9049137Y-16977926D01*
X9058661Y-16930307D01*
X9068185Y-16901735D01*
X9077708Y-16882688D01*
X9096756Y-16854116D01*
X9106280Y-16844592D01*
X9287232Y-17073164D02*
X9172946Y-17073164D01*
X9230089Y-17073164D02*
X9230089Y-16873164D01*
X9211042Y-16901735D01*
X9191994Y-16920783D01*
X9172946Y-16930307D01*
X9458661Y-16873164D02*
X9420565Y-16873164D01*
X9401518Y-16882688D01*
X9391994Y-16892211D01*
X9372946Y-16920783D01*
X9363423Y-16958878D01*
X9363423Y-17035068D01*
X9372946Y-17054116D01*
X9382470Y-17063640D01*
X9401518Y-17073164D01*
X9439613Y-17073164D01*
X9458661Y-17063640D01*
X9468185Y-17054116D01*
X9477708Y-17035068D01*
X9477708Y-16987449D01*
X9468185Y-16968402D01*
X9458661Y-16958878D01*
X9439613Y-16949354D01*
X9401518Y-16949354D01*
X9382470Y-16958878D01*
X9372946Y-16968402D01*
X9363423Y-16987449D01*
X9715804Y-17073164D02*
X9715804Y-16873164D01*
X9801518Y-17073164D02*
X9801518Y-16968402D01*
X9791994Y-16949354D01*
X9772946Y-16939830D01*
X9744375Y-16939830D01*
X9725327Y-16949354D01*
X9715804Y-16958878D01*
X9925327Y-17073164D02*
X9906280Y-17063640D01*
X9896756Y-17054116D01*
X9887232Y-17035068D01*
X9887232Y-16977926D01*
X9896756Y-16958878D01*
X9906280Y-16949354D01*
X9925327Y-16939830D01*
X9953899Y-16939830D01*
X9972946Y-16949354D01*
X9982470Y-16958878D01*
X9991994Y-16977926D01*
X9991994Y-17035068D01*
X9982470Y-17054116D01*
X9972946Y-17063640D01*
X9953899Y-17073164D01*
X9925327Y-17073164D01*
X10106280Y-17073164D02*
X10087232Y-17063640D01*
X10077708Y-17044592D01*
X10077708Y-16873164D01*
X10258661Y-17063640D02*
X10239613Y-17073164D01*
X10201518Y-17073164D01*
X10182470Y-17063640D01*
X10172946Y-17044592D01*
X10172946Y-16968402D01*
X10182470Y-16949354D01*
X10201518Y-16939830D01*
X10239613Y-16939830D01*
X10258661Y-16949354D01*
X10268185Y-16968402D01*
X10268185Y-16987449D01*
X10172946Y-17006497D01*
X10344375Y-17063640D02*
X10363423Y-17073164D01*
X10401518Y-17073164D01*
X10420565Y-17063640D01*
X10430089Y-17044592D01*
X10430089Y-17035068D01*
X10420565Y-17016021D01*
X10401518Y-17006497D01*
X10372946Y-17006497D01*
X10353899Y-16996973D01*
X10344375Y-16977926D01*
X10344375Y-16968402D01*
X10353899Y-16949354D01*
X10372946Y-16939830D01*
X10401518Y-16939830D01*
X10420565Y-16949354D01*
X10496756Y-17149354D02*
X10506280Y-17139830D01*
X10525327Y-17111259D01*
X10534851Y-17092211D01*
X10544375Y-17063640D01*
X10553899Y-17016021D01*
X10553899Y-16977926D01*
X10544375Y-16930307D01*
X10534851Y-16901735D01*
X10525327Y-16882688D01*
X10506280Y-16854116D01*
X10496756Y-16844592D01*
X10858661Y-17149354D02*
X10849137Y-17139830D01*
X10830089Y-17111259D01*
X10820565Y-17092211D01*
X10811042Y-17063640D01*
X10801518Y-17016021D01*
X10801518Y-16977926D01*
X10811042Y-16930307D01*
X10820565Y-16901735D01*
X10830089Y-16882688D01*
X10849137Y-16854116D01*
X10858661Y-16844592D01*
X10934851Y-16939830D02*
X10934851Y-17073164D01*
X10934851Y-16958878D02*
X10944375Y-16949354D01*
X10963423Y-16939830D01*
X10991994Y-16939830D01*
X11011042Y-16949354D01*
X11020565Y-16968402D01*
X11020565Y-17073164D01*
X11144375Y-17073164D02*
X11125327Y-17063640D01*
X11115804Y-17054116D01*
X11106280Y-17035068D01*
X11106280Y-16977926D01*
X11115804Y-16958878D01*
X11125327Y-16949354D01*
X11144375Y-16939830D01*
X11172946Y-16939830D01*
X11191994Y-16949354D01*
X11201518Y-16958878D01*
X11211042Y-16977926D01*
X11211042Y-17035068D01*
X11201518Y-17054116D01*
X11191994Y-17063640D01*
X11172946Y-17073164D01*
X11144375Y-17073164D01*
X11268184Y-16939830D02*
X11344375Y-16939830D01*
X11296756Y-16873164D02*
X11296756Y-17044592D01*
X11306280Y-17063640D01*
X11325327Y-17073164D01*
X11344375Y-17073164D01*
X11563423Y-16939830D02*
X11563423Y-17139830D01*
X11563423Y-16949354D02*
X11582470Y-16939830D01*
X11620565Y-16939830D01*
X11639613Y-16949354D01*
X11649137Y-16958878D01*
X11658661Y-16977926D01*
X11658661Y-17035068D01*
X11649137Y-17054116D01*
X11639613Y-17063640D01*
X11620565Y-17073164D01*
X11582470Y-17073164D01*
X11563423Y-17063640D01*
X11772946Y-17073164D02*
X11753899Y-17063640D01*
X11744375Y-17044592D01*
X11744375Y-16873164D01*
X11934851Y-17073164D02*
X11934851Y-16968402D01*
X11925327Y-16949354D01*
X11906280Y-16939830D01*
X11868184Y-16939830D01*
X11849137Y-16949354D01*
X11934851Y-17063640D02*
X11915803Y-17073164D01*
X11868184Y-17073164D01*
X11849137Y-17063640D01*
X11839613Y-17044592D01*
X11839613Y-17025545D01*
X11849137Y-17006497D01*
X11868184Y-16996973D01*
X11915803Y-16996973D01*
X11934851Y-16987449D01*
X12001518Y-16939830D02*
X12077708Y-16939830D01*
X12030089Y-16873164D02*
X12030089Y-17044592D01*
X12039613Y-17063640D01*
X12058661Y-17073164D01*
X12077708Y-17073164D01*
X12220565Y-17063640D02*
X12201518Y-17073164D01*
X12163423Y-17073164D01*
X12144375Y-17063640D01*
X12134851Y-17044592D01*
X12134851Y-16968402D01*
X12144375Y-16949354D01*
X12163423Y-16939830D01*
X12201518Y-16939830D01*
X12220565Y-16949354D01*
X12230089Y-16968402D01*
X12230089Y-16987449D01*
X12134851Y-17006497D01*
X12401518Y-17073164D02*
X12401518Y-16873164D01*
X12401518Y-17063640D02*
X12382470Y-17073164D01*
X12344375Y-17073164D01*
X12325327Y-17063640D01*
X12315803Y-17054116D01*
X12306280Y-17035068D01*
X12306280Y-16977926D01*
X12315803Y-16958878D01*
X12325327Y-16949354D01*
X12344375Y-16939830D01*
X12382470Y-16939830D01*
X12401518Y-16949354D01*
X12477708Y-17149354D02*
X12487232Y-17139830D01*
X12506280Y-17111259D01*
X12515803Y-17092211D01*
X12525327Y-17063640D01*
X12534851Y-17016021D01*
X12534851Y-16977926D01*
X12525327Y-16930307D01*
X12515803Y-16901735D01*
X12506280Y-16882688D01*
X12487232Y-16854116D01*
X12477708Y-16844592D01*
M02*
